<svg width="813" height="200" xmlns="http://www.w3.org/2000/svg" xmlns:xlink="http://www.w3.org/1999/xlink" overflow="hidden"><defs><clipPath id="clip0"><rect x="74" y="185" width="813" height="200"/></clipPath><clipPath id="clip1"><rect x="428" y="196" width="113" height="37"/></clipPath><clipPath id="clip2"><rect x="428" y="196" width="113" height="37"/></clipPath><clipPath id="clip3"><rect x="428" y="196" width="113" height="37"/></clipPath><clipPath id="clip4"><rect x="435" y="256" width="113" height="37"/></clipPath><clipPath id="clip5"><rect x="435" y="256" width="113" height="37"/></clipPath><clipPath id="clip6"><rect x="435" y="256" width="113" height="37"/></clipPath><clipPath id="clip7"><rect x="103" y="198" width="159" height="48"/></clipPath><clipPath id="clip8"><rect x="103" y="198" width="159" height="48"/></clipPath><clipPath id="clip9"><rect x="103" y="198" width="159" height="48"/></clipPath></defs><g clip-path="url(#clip0)" transform="translate(-74 -185)"><text font-family="Latha,Latha_MSFontService,sans-serif" font-weight="700" font-size="13" transform="translate(425.578 324)">இரட்டைத் திறவி <tspan font-size="13" x="13.92" y="16">மறையாக்கம்</tspan><tspan font-family="Verdana,Verdana_MSFontService,sans-serif" font-size="13" x="1.5" y="33">(Asymmetric Key </tspan><tspan font-family="Verdana,Verdana_MSFontService,sans-serif" font-size="13" x="22" y="49">Encryption)</tspan></text><g clip-path="url(#clip1)"><g clip-path="url(#clip2)"><g clip-path="url(#clip3)"><path d="M-13.5668 27.3608C-17.9244 27.3608-21.7368 29.6741-24.3062 33.0202-26.8753 36.3663-28.3632 40.8066-28.3632 45.669-28.3632 50.5313-26.8753 54.9714-24.3062 58.3178-21.7371 61.6639-17.9243 63.9797-13.5668 63.9797-9.20918 63.9797-5.39915 61.6639-2.82974 58.3178-0.797259 55.6706 0.55958 52.3378 1.03792 48.6535L65.008 48.6535 65.008 54.3633 60.2568 54.3633 60.2568 63.9792 63.2106 63.9792 63.2106 60.2668 65.9927 60.2668 65.9927 63.9792 67.924 63.9792 67.924 58.1838 71.0948 58.1838 71.0948 63.9792 73.2583 63.9792 73.2583 59.2643 76.197 59.2643 76.197 63.9792 79.0573 63.9792 79.0573 61.8081 81.8391 61.8081 81.8391 63.9792 84.5512 63.9792 84.5512 54.3633 79.7971 54.3633 79.7971 48.6535 84.5512 48.6535 84.5512 42.6843 1.03695 42.6843C0.566415 39.0002-0.790327 35.6676-2.82297 33.02-5.39214 29.6744-9.202 27.3613-13.56 27.3613ZM-13.5668 31.771C-11.0957 31.771-8.72455 33.0616-6.81861 35.5439-4.91267 38.0262-3.63514 41.6371-3.63514 45.6684-3.63514 49.7-4.91267 53.3109-6.81861 55.7929-8.72455 58.2752-11.0957 59.5658-13.5668 59.5658-16.0379 59.5658-18.409 58.2752-20.3149 55.7929-22.2209 53.3105-23.4984 49.6996-23.4984 45.6684-23.4984 41.6367-22.2209 38.0258-20.3149 35.5439-18.409 33.0615-16.0379 31.7709-13.5668 31.771Z" fill="#01919A" transform="matrix(1 0 0 1.01043 456.406 168.354)"/></g></g></g><g clip-path="url(#clip4)"><g clip-path="url(#clip5)"><g clip-path="url(#clip6)"><path d="M-13.5668 27.3608C-17.9244 27.3608-21.7368 29.6741-24.3062 33.0202-26.8753 36.3663-28.3632 40.8066-28.3632 45.669-28.3632 50.5313-26.8753 54.9714-24.3062 58.3178-21.7371 61.6639-17.9243 63.9797-13.5668 63.9797-9.20918 63.9797-5.39915 61.6639-2.82974 58.3178-0.797259 55.6706 0.55958 52.3378 1.03792 48.6535L65.008 48.6535 65.008 54.3633 60.2568 54.3633 60.2568 63.9792 63.2106 63.9792 63.2106 60.2668 65.9927 60.2668 65.9927 63.9792 67.924 63.9792 67.924 58.1838 71.0948 58.1838 71.0948 63.9792 73.2583 63.9792 73.2583 59.2643 76.197 59.2643 76.197 63.9792 79.0573 63.9792 79.0573 61.8081 81.8391 61.8081 81.8391 63.9792 84.5512 63.9792 84.5512 54.3633 79.7971 54.3633 79.7971 48.6535 84.5512 48.6535 84.5512 42.6843 1.03695 42.6843C0.566415 39.0002-0.790327 35.6676-2.82297 33.02-5.39214 29.6744-9.202 27.3613-13.56 27.3613ZM-13.5668 31.771C-11.0957 31.771-8.72455 33.0616-6.81861 35.5439-4.91267 38.0262-3.63514 41.6371-3.63514 45.6684-3.63514 49.7-4.91267 53.3109-6.81861 55.7929-8.72455 58.2752-11.0957 59.5658-13.5668 59.5658-16.0379 59.5658-18.409 58.2752-20.3149 55.7929-22.2209 53.3105-23.4984 49.6996-23.4984 45.6684-23.4984 41.6367-22.2209 38.0258-20.3149 35.5439-18.409 33.0615-16.0379 31.7709-13.5668 31.771Z" fill="#204497" transform="matrix(-1 0 0 1.01043 519.594 228.354)"/></g></g></g><text font-family="Latha,Latha_MSFontService,sans-serif" font-weight="700" font-size="13" transform="translate(794.526 350)">குறுக்கம்<tspan font-family="Verdana,Verdana_MSFontService,sans-serif" font-size="13" x="-3.2533" y="17">(Hashing)</tspan></text><path d="M838.5 259.5 835.698 288.393 834.577 289.447 832.896 290.049 830.28 290.5 827.852 290.35 825.236 289.898 823.929 288.995 821.5 259.651" stroke="#FFFFFF" stroke-linejoin="round" stroke-miterlimit="10" fill="#DC7476" fill-rule="evenodd"/><path d="M772.5 195.5 820.846 258.868 823.149 259.906 826.218 260.352 829.288 260.5 832.741 260.352 836.003 259.758 838.305 258.868 885.5 195.5" stroke="#FFFFFF" stroke-linejoin="round" stroke-miterlimit="10" fill="#DC7476" fill-rule="evenodd"/><path d="M0 8.5C-7.1932e-15 3.80558 25.2959-1.08216e-15 56.5-2.16433e-15 87.7041-4.32865e-15 113 3.80558 113 8.5 113 13.1944 87.7041 17 56.5 17 25.2959 17-3.5966e-14 13.1944 0 8.5Z" stroke="#DC7476" stroke-width="0.333333" stroke-linejoin="round" stroke-miterlimit="10" fill="#F2F2F2" fill-rule="evenodd" transform="matrix(-1 0 0 1 885.5 186.5)"/><text font-family="Latha,Latha_MSFontService,sans-serif" font-weight="700" font-size="13" transform="translate(120.417 322)">ஒற்றைத் திறவி <tspan font-size="13" x="10" y="16">மறையாக்கம்</tspan><tspan font-family="Verdana,Verdana_MSFontService,sans-serif" font-size="13" x="1.92001" y="33">(Symmetric Key </tspan><tspan font-family="Verdana,Verdana_MSFontService,sans-serif" font-size="13" x="18.0867" y="49">Encryption)</tspan></text><g clip-path="url(#clip7)"><g clip-path="url(#clip8)"><g clip-path="url(#clip9)"><path d="M124.767 196.002 124.767 196.486 125.14 196.486C125.382 196.486 125.617 196.593 125.847 196.809 126.006 196.959 126.111 197.142 126.162 197.357 126.226 197.648 126.258 198.239 126.258 199.131L126.263 200.374 127.739 200.374 127.739 199.132C127.739 198.067 127.803 197.4 127.93 197.131 128.128 196.701 128.437 196.486 128.858 196.486L129.24 196.486 129.24 196.003 124.767 196.003ZM130.855 196.119 130.855 196.602 131.228 196.602C131.47 196.602 131.706 196.71 131.935 196.925 132.095 197.075 132.2 197.258 132.251 197.473 132.315 197.764 132.346 198.355 132.346 199.248L132.346 200.545 133.817 200.703 133.828 199.248C133.836 198.183 133.892 197.516 134.019 197.247 134.217 196.818 134.526 196.602 134.946 196.602L135.329 196.602 135.329 196.119 130.855 196.119ZM120.665 200.864 120.665 201.452 121.468 201.452C122.278 201.452 122.892 201.687 123.31 202.157 123.61 202.497 123.76 203.332 123.76 204.665L123.76 218.476C123.76 219.678 123.643 220.462 123.408 220.827 123.016 221.389 122.369 221.67 121.468 221.67L120.665 221.67 120.665 222.257 130.774 222.257C133.177 222.257 134.96 222.035 136.123 221.591 137.298 221.148 138.219 220.442 138.885 219.476 139.564 218.496 139.904 217.471 139.904 216.4 139.904 215.002 139.394 213.82 138.375 212.854 137.644 212.162 136.54 211.659 135.064 211.345 136.331 210.94 137.291 210.313 137.945 209.465 138.597 208.616 138.924 207.656 138.924 206.585 138.924 205.331 138.506 204.227 137.67 203.274 136.847 202.307 135.646 201.635 134.065 201.256 133.02 200.995 131.636 200.864 129.912 200.864L120.665 200.864ZM129.638 201.922C131.584 201.922 133.066 202.366 134.085 203.254 135.117 204.142 135.633 205.207 135.633 206.447 135.633 207.257 135.424 208.008 135.006 208.7 134.601 209.38 134.006 209.889 133.223 210.229 132.452 210.555 131.303 210.718 129.775 210.718 129.174 210.718 128.619 210.699 128.11 210.66 127.613 210.621 127.176 210.562 126.797 210.483L126.797 202.275C127.633 202.04 128.58 201.922 129.638 201.922ZM129.579 211.796C131.081 211.796 132.341 212.018 133.36 212.462 134.379 212.906 135.117 213.513 135.574 214.284 136.031 215.041 136.26 215.838 136.26 216.674 136.26 217.941 135.757 219.005 134.751 219.868 133.758 220.716 132.309 221.141 130.402 221.141 129.213 221.141 128.012 220.997 126.797 220.71L126.797 211.953C127.071 211.9 127.437 211.861 127.894 211.835 128.364 211.809 128.926 211.796 129.579 211.796ZM133.29 222.522 131.819 222.604 131.808 223.863C131.808 224.755 131.777 225.347 131.713 225.637 131.662 225.852 131.557 226.035 131.397 226.186 131.168 226.401 130.932 226.508 130.69 226.508L130.317 226.508 130.317 226.992 134.791 226.992 134.791 226.508 134.408 226.508C133.988 226.508 133.679 226.293 133.481 225.863 133.353 225.594 133.29 224.927 133.29 223.863L133.29 222.522ZM127.263 222.62 125.803 222.632 125.781 223.863C125.781 224.755 125.749 225.347 125.685 225.637 125.634 225.852 125.529 226.035 125.37 226.186 125.141 226.401 124.905 226.508 124.663 226.508L124.29 226.508 124.29 226.992 128.763 226.992 128.763 226.508 128.381 226.508C127.96 226.508 127.651 226.293 127.454 225.863 127.326 225.594 127.263 224.927 127.263 223.863L127.263 222.62Z" fill="#01919A" transform="matrix(1.01597 0 0 1 106.747 9.47117)"/><path d="M130.024 188.531C128.115 188.531 126.568 190.078 126.568 191.988 126.568 192.371 126.644 192.734 126.759 193.078 120.236 194.239 114.89 198.801 112.637 204.873L108.811 204.873 108.811 207.544 105.983 207.544 105.983 209.43 105.463 209.43 105.366 213.197 105.986 213.197 105.986 215.083 108.814 215.083 108.814 217.755 112.708 217.755C114.962 223.814 120.245 228.391 126.762 229.549 126.646 229.893 126.57 230.257 126.57 230.64 126.57 232.55 128.117 234.097 130.027 234.097 131.938 234.097 133.484 232.55 133.484 230.64 133.484 230.257 133.408 229.893 133.293 229.549 141.061 228.167 147.138 221.958 148.334 214.125 148.658 214.226 148.997 214.298 149.355 214.298 151.265 214.298 152.812 212.751 152.812 210.84 152.807 208.933 151.26 207.386 149.35 207.386L149.352 207.387C148.945 207.387 148.557 207.471 148.194 207.601 146.686 200.193 140.759 194.407 133.29 193.078 133.405 192.734 133.482 192.371 133.482 191.988 133.482 190.078 131.935 188.531 130.025 188.531ZM129.931 195.546C138.718 195.546 145.842 202.669 145.842 211.457 145.842 220.245 138.718 227.368 129.931 227.368 121.143 227.368 114.019 220.245 114.019 211.457 114.019 202.669 121.143 195.546 129.931 195.546Z" fill="#01919A" transform="matrix(1.01597 0 0 1 106.747 9.47117)"/><path d="M-3.66669 211.758-2.85218 211.758-2.85218 209.446-3.68827 209.619-3.68827 208.991-2.85698 208.819-1.98015 208.819-1.98015 211.758-1.16563 211.758-1.16563 212.396-3.66669 212.396-3.66669 211.758Z" fill="#01919A" transform="matrix(1.01597 0 0 1 106.747 9.47117)"/><path d="M0.583212 211.718 2.15717 211.718 2.15717 212.396-0.442132 212.396-0.442132 211.718 0.863506 210.565C0.980095 210.46 1.06634 210.357 1.12224 210.256 1.17814 210.155 1.20609 210.051 1.20609 209.942 1.20609 209.775 1.14939 209.64 1.03599 209.537 0.924195 209.435 0.774866 209.384 0.588005 209.384 0.444263 209.384 0.286949 209.415 0.116057 209.478-0.0548338 209.538-0.237703 209.629-0.432552 209.751L-0.432552 208.965C-0.224926 208.896-0.0196974 208.844 0.183136 208.809 0.385969 208.772 0.584809 208.754 0.779657 208.754 1.20768 208.754 1.53988 208.848 1.77626 209.037 2.01422 209.225 2.13321 209.488 2.13321 209.825 2.13321 210.02 2.0829 210.202 1.98228 210.371 1.88166 210.539 1.67005 210.764 1.34743 211.047L0.583212 211.718Z" fill="#01919A" transform="matrix(1.01597 0 0 1 106.747 9.47117)"/><path d="M5.16134 209.796 5.16134 210.496C5.04476 210.416 4.92735 210.357 4.80916 210.318 4.69258 210.28 4.57119 210.261 4.44503 210.261 4.20547 210.261 4.0186 210.331 3.88444 210.472 3.75188 210.611 3.6856 210.806 3.6856 211.056 3.6856 211.307 3.75188 211.503 3.88444 211.643 4.0186 211.782 4.20547 211.852 4.44503 211.852 4.5792 211.852 4.70615 211.832 4.82594 211.792 4.94732 211.752 5.05911 211.693 5.16134 211.614L5.16134 212.316C5.02718 212.366 4.89062 212.403 4.75168 212.427 4.61432 212.452 4.47616 212.465 4.33723 212.465 3.85329 212.465 3.47478 212.341 3.20169 212.094 2.92857 211.845 2.79201 211.499 2.79201 211.056 2.79201 210.614 2.92857 210.269 3.20169 210.021 3.47478 209.772 3.85329 209.648 4.33723 209.648 4.47776 209.648 4.61592 209.66 4.75168 209.686 4.88902 209.71 5.02558 209.747 5.16134 209.796Z" fill="#01919A" transform="matrix(1.01597 0 0 1 106.747 9.47117)"/><path d="M7.26953 210.63C7.10821 210.63 6.98683 210.683 6.90537 210.788 6.82552 210.892 6.78559 211.048 6.78559 211.257 6.78559 211.467 6.82552 211.624 6.90537 211.73 6.98683 211.833 7.10821 211.885 7.26953 211.885 7.43241 211.885 7.5538 211.833 7.63365 211.73 7.71511 211.624 7.75584 211.467 7.75584 211.257 7.75584 211.048 7.71511 210.892 7.63365 210.788 7.5538 210.683 7.43241 210.63 7.26953 210.63ZM8.40987 208.912 8.40987 209.573C8.25813 209.501 8.11519 209.449 7.98103 209.415 7.84687 209.38 7.71591 209.363 7.58815 209.363 7.31343 209.363 7.09944 209.439 6.9461 209.593 6.79279 209.744 6.70333 209.97 6.67778 210.271 6.78319 210.192 6.8974 210.134 7.02038 210.096 7.14334 210.056 7.2775 210.036 7.42284 210.036 7.78859 210.036 8.08324 210.143 8.30686 210.357 8.53205 210.571 8.64463 210.851 8.64463 211.198 8.64463 211.581 8.51927 211.888 8.2685 212.12 8.01776 212.35 7.68158 212.465 7.25993 212.465 6.79519 212.465 6.43504 212.308 6.17949 211.996 5.92555 211.681 5.79859 211.235 5.79859 210.659 5.79859 210.068 5.9471 209.604 6.24417 209.267 6.54285 208.928 6.9517 208.759 7.47077 208.759 7.63525 208.759 7.79497 208.772 7.94988 208.797 8.10482 208.823 8.25813 208.861 8.40987 208.912Z" fill="#01919A" transform="matrix(1.01597 0 0 1 106.747 9.47117)"/><path d="M10.2785 209.516 10.2785 211.698 10.6091 211.698C10.986 211.698 11.2735 211.605 11.4715 211.418 11.6712 211.231 11.771 210.96 11.771 210.604 11.771 210.249 11.672 209.979 11.4739 209.794 11.2759 209.609 10.9876 209.516 10.6091 209.516L10.2785 209.516ZM9.35614 208.819 10.3288 208.819C10.8718 208.819 11.2759 208.858 11.541 208.936 11.8077 209.013 12.0361 209.144 12.2262 209.329 12.3938 209.49 12.5184 209.676 12.5999 209.887 12.6813 210.098 12.7221 210.337 12.7221 210.604 12.7221 210.873 12.6813 211.115 12.5999 211.327 12.5184 211.538 12.3938 211.724 12.2262 211.885 12.0345 212.07 11.8045 212.202 11.5362 212.28 11.2679 212.357 10.8654 212.396 10.3288 212.396L9.35614 212.396 9.35614 208.819Z" fill="#01919A" transform="matrix(1.01597 0 0 1 106.747 9.47117)"/><path d="M15.9179 208.931 15.9179 209.688C15.7214 209.601 15.5298 209.534 15.3429 209.49 15.1561 209.445 14.9796 209.422 14.8135 209.422 14.5931 209.422 14.4302 209.453 14.3248 209.513 14.2194 209.574 14.1667 209.668 14.1667 209.796 14.1667 209.892 14.2018 209.967 14.2721 210.021 14.3439 210.074 14.4733 210.12 14.6601 210.158L15.0531 210.237C15.4507 210.317 15.7334 210.438 15.9011 210.601 16.0688 210.764 16.1527 210.996 16.1527 211.296 16.1527 211.69 16.0353 211.984 15.8005 212.177 15.5673 212.369 15.2104 212.465 14.7296 212.465 14.5028 212.465 14.2752 212.443 14.0469 212.4 13.8185 212.357 13.5901 212.293 13.3617 212.209L13.3617 211.43C13.5901 211.551 13.8105 211.643 14.0229 211.706 14.2369 211.766 14.443 211.797 14.641 211.797 14.8422 211.797 14.9963 211.763 15.1034 211.696 15.2104 211.629 15.2639 211.533 15.2639 211.408 15.2639 211.297 15.2271 211.211 15.1537 211.15 15.0818 211.089 14.9372 211.035 14.7201 210.987L14.3631 210.908C14.0053 210.831 13.7434 210.709 13.5773 210.541 13.4128 210.374 13.3306 210.148 13.3306 209.863 13.3306 209.507 13.4456 209.233 13.6755 209.042 13.9055 208.85 14.2361 208.754 14.6673 208.754 14.8638 208.754 15.0658 208.769 15.2734 208.8 15.4811 208.828 15.6959 208.872 15.9179 208.931Z" fill="#01919A" transform="matrix(1.01597 0 0 1 106.747 9.47117)"/><path d="M16.9264 209.712 17.7841 209.712 17.7841 212.396 16.9264 212.396 16.9264 209.712ZM16.9264 208.668 17.7841 208.668 17.7841 209.367 16.9264 209.367 16.9264 208.668Z" fill="#01919A" transform="matrix(1.01597 0 0 1 106.747 9.47117)"/><path d="M18.6513 208.819 19.5737 208.819 19.5737 210.963C19.5737 211.258 19.6216 211.47 19.7174 211.598 19.8148 211.724 19.973 211.787 20.1917 211.787 20.4122 211.787 20.5703 211.724 20.6661 211.598 20.7635 211.47 20.8122 211.258 20.8122 210.963L20.8122 208.819 21.7346 208.819 21.7346 210.963C21.7346 211.469 21.6076 211.846 21.3537 212.094 21.0997 212.341 20.7124 212.465 20.1917 212.465 19.6727 212.465 19.2862 212.341 19.0323 212.094 18.7783 211.846 18.6513 211.469 18.6513 210.963L18.6513 208.819Z" fill="#01919A" transform="matrix(1.01597 0 0 1 106.747 9.47117)"/><path d="M23.9937 209.578 22.9827 211.076 23.9937 211.076 23.9937 209.578ZM23.8404 208.819 24.8657 208.819 24.8657 211.076 25.376 211.076 25.376 211.744 24.8657 211.744 24.8657 212.396 23.9937 212.396 23.9937 211.744 22.4077 211.744 22.4077 210.953 23.8404 208.819Z" fill="#01919A" transform="matrix(1.01597 0 0 1 106.747 9.47117)"/><path d="M27.3597 210.405C27.5528 210.405 27.6909 210.369 27.7742 210.297 27.8587 210.225 27.9011 210.107 27.9011 209.942 27.9011 209.779 27.8587 209.663 27.7742 209.593 27.6909 209.522 27.5528 209.487 27.3597 209.487L26.9716 209.487 26.9716 210.405 27.3597 210.405ZM26.9716 211.042 26.9716 212.396 26.0492 212.396 26.0492 208.819 27.4578 208.819C27.9289 208.819 28.274 208.898 28.4927 209.056 28.713 209.214 28.8234 209.464 28.8234 209.806 28.8234 210.042 28.7658 210.236 28.6509 210.388 28.5375 210.54 28.3658 210.652 28.1358 210.723 28.262 210.752 28.3746 210.818 28.4735 210.92 28.5743 211.02 28.6757 211.174 28.7778 211.38L29.2785 212.396 28.2964 212.396 27.8603 211.507C27.7726 211.328 27.6829 211.206 27.592 211.14 27.5026 211.075 27.3826 211.042 27.2327 211.042L26.9716 211.042Z" fill="#01919A" transform="matrix(1.01597 0 0 1 106.747 9.47117)"/><path d="M31.0466 210.271C30.8644 210.271 30.7246 210.338 30.6273 210.472 30.5315 210.606 30.4835 210.801 30.4835 211.056 30.4835 211.312 30.5315 211.507 30.6273 211.641 30.7246 211.775 30.8644 211.842 31.0466 211.842 31.2301 211.842 31.3698 211.775 31.4658 211.641 31.5632 211.507 31.612 211.312 31.612 211.056 31.612 210.801 31.5632 210.606 31.4658 210.472 31.3698 210.338 31.2301 210.271 31.0466 210.271ZM31.612 212.008C31.4936 212.165 31.3634 212.281 31.2215 212.355 31.0794 212.428 30.9148 212.465 30.7278 212.465 30.3974 212.465 30.1258 212.334 29.9133 212.072 29.701 211.809 29.5948 211.47 29.5948 211.056 29.5948 210.643 29.701 210.306 29.9133 210.045 30.1258 209.783 30.3974 209.652 30.7278 209.652 30.9148 209.652 31.0794 209.689 31.2215 209.763 31.3634 209.836 31.4936 209.952 31.612 210.11L31.612 209.712 32.4743 209.712 32.4743 213.416 31.612 213.416 31.612 212.008Z" fill="#01919A" transform="matrix(1.01597 0 0 1 106.747 9.47117)"/><path d="M35.1767 210.467C35.4178 210.529 35.6008 210.638 35.7254 210.793 35.8515 210.946 35.9145 211.142 35.9145 211.38 35.9145 211.734 35.7787 212.004 35.5072 212.189 35.2357 212.373 34.8396 212.465 34.319 212.465 34.1355 212.465 33.9509 212.45 33.7655 212.419 33.582 212.391 33.3998 212.347 33.2193 212.288L33.2193 211.576C33.3918 211.662 33.5628 211.728 33.7322 211.773 33.9029 211.816 34.0706 211.837 34.2352 211.837 34.4795 211.837 34.6665 211.795 34.7959 211.71 34.9268 211.626 34.9922 211.504 34.9922 211.346 34.9922 211.183 34.9252 211.06 34.7911 210.977 34.6585 210.893 34.4619 210.85 34.2016 210.85L33.8327 210.85 33.8327 210.256 34.2208 210.256C34.4523 210.256 34.6249 210.22 34.7382 210.148 34.8516 210.075 34.9084 209.964 34.9084 209.815 34.9084 209.678 34.8532 209.572 34.743 209.497 34.6329 209.422 34.4771 209.384 34.2757 209.384 34.1275 209.384 33.9773 209.401 33.8255 209.434 33.6738 209.468 33.5228 209.517 33.3726 209.583L33.3726 208.907C33.5548 208.856 33.7354 208.818 33.9141 208.792 34.093 208.767 34.2688 208.754 34.4411 208.754 34.906 208.754 35.2533 208.831 35.4832 208.984 35.715 209.136 35.8307 209.365 35.8307 209.672 35.8307 209.881 35.7755 210.052 35.6654 210.187 35.5552 210.319 35.3922 210.413 35.1767 210.467Z" fill="#01919A" transform="matrix(1.01597 0 0 1 106.747 9.47117)"/><path d="M36.7531 208.819 38.2838 208.819C38.7391 208.819 39.0879 208.92 39.3306 209.123 39.5752 209.324 39.6974 209.612 39.6974 209.986 39.6974 210.361 39.5752 210.65 39.3306 210.853 39.0879 211.054 38.7391 211.155 38.2838 211.155L37.6754 211.155 37.6754 212.396 36.7531 212.396 36.7531 208.819ZM37.6754 209.487 37.6754 210.486 38.1856 210.486C38.3646 210.486 38.5027 210.443 38.6001 210.357 38.6974 210.269 38.7463 210.145 38.7463 209.986 38.7463 209.826 38.6974 209.703 38.6001 209.617 38.5027 209.53 38.3646 209.487 38.1856 209.487L37.6754 209.487Z" fill="#01919A" transform="matrix(1.01597 0 0 1 106.747 9.47117)"/><path d="M41.7026 209.578 40.6914 211.076 41.7026 211.076 41.7026 209.578ZM41.5492 208.819 42.5745 208.819 42.5745 211.076 43.0847 211.076 43.0847 211.744 42.5745 211.744 42.5745 212.396 41.7026 212.396 41.7026 211.744 40.1164 211.744 40.1164 210.953 41.5492 208.819Z" fill="#01919A" transform="matrix(1.01597 0 0 1 106.747 9.47117)"/><path d="M43.583 208.819 46.5897 208.819 46.5897 209.377 44.6707 211.698 46.6447 211.698 46.6447 212.396 43.528 212.396 43.528 211.837 45.4468 209.516 43.583 209.516 43.583 208.819Z" fill="#01919A" transform="matrix(1.01597 0 0 1 106.747 9.47117)"/><path d="M47.9527 211.023 46.985 209.712 47.8929 209.712 48.4416 210.508 48.9971 209.712 49.9053 209.712 48.9374 211.018 49.9531 212.396 49.0451 212.396 48.4416 211.547 47.8449 212.396 46.937 212.396 47.9527 211.023Z" fill="#01919A" transform="matrix(1.01597 0 0 1 106.747 9.47117)"/><path d="M50.3054 209.712 52.6459 209.712 52.6459 210.311 51.2325 211.782 52.6459 211.782 52.6459 212.396 50.2454 212.396 50.2454 211.797 51.6587 210.326 50.3054 210.326 50.3054 209.712Z" fill="#01919A" transform="matrix(1.01597 0 0 1 106.747 9.47117)"/><path d="M53.2927 209.712 54.1504 209.712 54.1504 212.396 53.2927 212.396 53.2927 209.712ZM53.2927 208.668 54.1504 208.668 54.1504 209.367 53.2927 209.367 53.2927 208.668Z" fill="#01919A" transform="matrix(1.01597 0 0 1 106.747 9.47117)"/><path d="M55.0176 208.819 55.9399 208.819 55.9399 210.124 57.2695 208.819 58.3404 208.819 56.6179 210.513 58.5177 212.396 57.3628 212.396 55.9399 210.987 55.9399 212.396 55.0176 212.396 55.0176 208.819Z" fill="#01919A" transform="matrix(1.01597 0 0 1 106.747 9.47117)"/><path d="M59.4617 211.023 58.4937 209.712 59.4016 209.712 59.9503 210.508 60.5061 209.712 61.4141 209.712 60.4461 211.018 61.4618 212.396 60.5539 212.396 59.9503 211.547 59.3536 212.396 58.4457 212.396 59.4617 211.023Z" fill="#01919A" transform="matrix(1.01597 0 0 1 106.747 9.47117)"/><path d="M61.8141 209.712 64.1546 209.712 64.1546 210.311 62.7413 211.782 64.1546 211.782 64.1546 212.396 61.7541 212.396 61.7541 211.797 63.1677 210.326 61.8141 210.326 61.8141 209.712Z" fill="#01919A" transform="matrix(1.01597 0 0 1 106.747 9.47117)"/><path d="M66.7946 210.443C66.7197 210.408 66.6444 210.382 66.5695 210.366 66.4961 210.349 66.4217 210.34 66.3468 210.34 66.1262 210.34 65.9563 210.411 65.8365 210.553 65.7181 210.694 65.6592 210.896 65.6592 211.159L65.6592 212.396 64.8014 212.396 64.8014 209.712 65.6592 209.712 65.6592 210.153C65.7693 209.977 65.8955 209.85 66.0377 209.77 66.1814 209.688 66.3532 209.648 66.5527 209.648 66.5815 209.648 66.6127 209.649 66.646 209.652 66.6796 209.654 66.7285 209.659 66.7922 209.667L66.7946 210.443Z" fill="#01919A" transform="matrix(1.01597 0 0 1 106.747 9.47117)"/><path d="M67.2643 208.819 68.1866 208.819 68.1866 211.698 69.8062 211.698 69.8062 212.396 67.2643 212.396 67.2643 208.819Z" fill="#01919A" transform="matrix(1.01597 0 0 1 106.747 9.47117)"/><path d="M70.4577 208.819 72.7502 208.819 72.7502 209.497 71.1931 209.497 71.1931 210.05C71.2635 210.031 71.3337 210.017 71.4041 210.007 71.4758 209.996 71.55 209.99 71.6268 209.99 72.0629 209.99 72.4021 210.1 72.6449 210.318 72.8876 210.536 73.0089 210.839 73.0089 211.229 73.0089 211.615 72.8764 211.918 72.6113 212.137 72.3477 212.356 71.9813 212.465 71.5118 212.465 71.3089 212.465 71.1077 212.445 70.908 212.405 70.7101 212.367 70.5127 212.308 70.3164 212.228L70.3164 211.502C70.5111 211.614 70.6957 211.698 70.8698 211.753 71.0453 211.809 71.2107 211.837 71.3657 211.837 71.5892 211.837 71.7649 211.783 71.8927 211.674 72.0221 211.564 72.0866 211.416 72.0866 211.229 72.0866 211.04 72.0221 210.892 71.8927 210.783 71.7649 210.675 71.5892 210.62 71.3657 210.62 71.2331 210.62 71.0918 210.638 70.9416 210.673 70.7914 210.706 70.6301 210.759 70.4577 210.831L70.4577 208.819Z" fill="#01919A" transform="matrix(1.01597 0 0 1 106.747 9.47117)"/><path d="M73.7995 208.819 74.7218 208.819 74.7218 211.698 76.3413 211.698 76.3413 212.396 73.7995 212.396 73.7995 208.819Z" fill="#01919A" transform="matrix(1.01597 0 0 1 106.747 9.47117)"/><path d="M79.3718 210.158C79.4807 209.992 79.6092 209.866 79.7578 209.779 79.9077 209.692 80.0722 209.648 80.2512 209.648 80.5593 209.648 80.7942 209.743 80.9553 209.933 81.1167 210.123 81.1975 210.399 81.1975 210.762L81.1975 212.396 80.335 212.396 80.335 210.996C80.3365 210.976 80.3374 210.954 80.3374 210.932 80.339 210.909 80.3398 210.877 80.3398 210.836 80.3398 210.646 80.3118 210.509 80.256 210.424 80.2 210.338 80.1098 210.294 79.9853 210.294 79.8223 210.294 79.6962 210.362 79.6068 210.496 79.5188 210.63 79.4734 210.824 79.4702 211.078L79.4702 212.396 78.6077 212.396 78.6077 210.996C78.6077 210.699 78.5821 210.509 78.5311 210.424 78.4799 210.338 78.389 210.294 78.258 210.294 78.0934 210.294 77.9665 210.362 77.8771 210.498 77.7875 210.632 77.743 210.825 77.743 211.076L77.743 212.396 76.8804 212.396 76.8804 209.712 77.743 209.712 77.743 210.105C77.8483 209.954 77.9689 209.839 78.1046 209.763 78.242 209.686 78.393 209.648 78.5575 209.648 78.7426 209.648 78.9064 209.692 79.0486 209.782 79.1907 209.871 79.2985 209.997 79.3718 210.158Z" fill="#01919A" transform="matrix(1.01597 0 0 1 106.747 9.47117)"/><path d="M82.0406 208.819 83.2145 208.819 84.029 210.733 84.8484 208.819 86.0198 208.819 86.0198 212.396 85.1479 212.396 85.1479 209.779 84.3238 211.708 83.7391 211.708 82.9152 209.779 82.9152 212.396 82.0406 212.396 82.0406 208.819Z" fill="#01919A" transform="matrix(1.01597 0 0 1 106.747 9.47117)"/><path d="M88.3606 210.203C88.5059 210.203 88.6161 210.171 88.691 210.108 88.7663 210.044 88.8036 209.949 88.8036 209.825 88.8036 209.702 88.7663 209.609 88.691 209.545 88.6161 209.479 88.5059 209.446 88.3606 209.446L87.8501 209.446 87.8501 210.203 88.3606 210.203ZM88.3915 211.768C88.5769 211.768 88.7159 211.729 88.8084 211.65 88.9028 211.572 88.9498 211.454 88.9498 211.296 88.9498 211.141 88.9036 211.025 88.8108 210.948 88.7183 210.87 88.5785 210.831 88.3915 210.831L87.8501 210.831 87.8501 211.768 88.3915 211.768ZM89.2493 210.481C89.4472 210.539 89.6006 210.645 89.7091 210.8 89.8179 210.955 89.8721 211.145 89.8721 211.37 89.8721 211.715 89.7555 211.972 89.5224 212.142 89.2893 212.311 88.9346 212.396 88.4587 212.396L86.9278 212.396 86.9278 208.819 88.3126 208.819C88.8092 208.819 89.1687 208.894 89.3907 209.044 89.6142 209.194 89.7259 209.434 89.7259 209.765 89.7259 209.939 89.6854 210.088 89.6038 210.211 89.5224 210.332 89.4043 210.422 89.2493 210.481Z" fill="#01919A" transform="matrix(1.01597 0 0 1 106.747 9.47117)"/><path d="M92.6198 210.443C92.5449 210.408 92.4699 210.382 92.3947 210.366 92.3214 210.349 92.247 210.34 92.172 210.34 91.9517 210.34 91.7815 210.411 91.6618 210.553 91.5436 210.694 91.4844 210.896 91.4844 211.159L91.4844 212.396 90.6269 212.396 90.6269 209.712 91.4844 209.712 91.4844 210.153C91.5946 209.977 91.7207 209.85 91.8629 209.77 92.0067 209.688 92.1784 209.648 92.3779 209.648 92.4067 209.648 92.4379 209.649 92.4715 209.652 92.5049 209.654 92.5537 209.659 92.6177 209.667L92.6201 210.443Z" fill="#01919A" transform="matrix(1.01597 0 0 1 106.747 9.47117)"/><path d="M92.9194 209.712 95.2601 209.712 95.2601 210.311 93.8465 211.782 95.2601 211.782 95.2601 212.396 92.8596 212.396 92.8596 211.797 94.273 210.326 92.9194 210.326 92.9194 209.712Z" fill="#01919A" transform="matrix(1.01597 0 0 1 106.747 9.47117)"/><path d="M95.9069 209.712 96.7644 209.712 96.7644 212.348C96.7644 212.707 96.6783 212.981 96.5057 213.169 96.3331 213.359 96.0832 213.454 95.7559 213.454L95.3319 213.454 95.3319 212.891 95.4804 212.891C95.6434 212.891 95.7551 212.855 95.8157 212.781 95.8765 212.708 95.9069 212.563 95.9069 212.348L95.9069 209.712ZM95.9069 208.668 96.7644 208.668 96.7644 209.367 95.9069 209.367 95.9069 208.668Z" fill="#01919A" transform="matrix(1.01597 0 0 1 106.747 9.47117)"/><path d="M99.5866 210.443C99.5116 210.408 99.4364 210.382 99.3615 210.366 99.2879 210.349 99.2137 210.34 99.1385 210.34 98.9182 210.34 98.748 210.411 98.6283 210.553 98.5101 210.694 98.4512 210.896 98.4512 211.159L98.4512 212.396 97.5934 212.396 97.5934 209.712 98.4512 209.712 98.4512 210.153C98.5613 209.977 98.6875 209.85 98.8296 209.77 98.9734 209.688 99.1449 209.648 99.3447 209.648 99.3735 209.648 99.4044 209.649 99.438 209.652 99.4716 209.654 99.5202 209.659 99.5842 209.667L99.5866 210.443Z" fill="#01919A" transform="matrix(1.01597 0 0 1 106.747 9.47117)"/><path d="M100.056 208.819 100.978 208.819 100.978 212.048C100.978 212.494 100.857 212.827 100.614 213.047 100.373 213.268 100.007 213.378 99.517 213.378L99.3303 213.378 99.3303 212.68 99.474 212.68C99.6655 212.68 99.8101 212.627 99.9077 212.52 100.007 212.413 100.056 212.256 100.056 212.048L100.056 208.819Z" fill="#01919A" transform="matrix(1.01597 0 0 1 106.747 9.47117)"/><path d="M103.88 210.57 105.121 212.396 104.16 212.396 103.324 211.174 102.495 212.396 101.529 212.396 102.77 210.57 101.577 208.819 102.541 208.819 103.324 209.971 104.105 208.819 105.073 208.819 103.88 210.57Z" fill="#01919A" transform="matrix(1.01597 0 0 1 106.747 9.47117)"/><path d="M9.13913 213.48 10.0615 213.48 10.0615 216.359 11.6809 216.359 11.6809 217.057 9.13913 217.057 9.13913 213.48Z" fill="#01919A" transform="matrix(1.01597 0 0 1 106.747 9.47117)"/><path d="M12.3326 213.48 14.6252 213.48 14.6252 214.158 13.068 214.158 13.068 214.711C13.1383 214.692 13.2086 214.678 13.2788 214.668 13.3507 214.657 13.425 214.651 13.5016 214.651 13.9377 214.651 14.277 214.761 14.5198 214.979 14.7625 215.197 14.8839 215.5 14.8839 215.89 14.8839 216.276 14.7514 216.579 14.4862 216.798 14.2227 217.017 13.8562 217.126 13.3866 217.126 13.1838 217.126 12.9826 217.106 12.7829 217.066 12.5849 217.028 12.3877 216.969 12.1912 216.889L12.1912 216.163C12.3861 216.275 12.5705 216.359 12.7446 216.414 12.9203 216.47 13.0856 216.498 13.2405 216.498 13.4641 216.498 13.6398 216.444 13.7676 216.335 13.8969 216.225 13.9616 216.077 13.9616 215.89 13.9616 215.701 13.8969 215.553 13.7676 215.444 13.6398 215.336 13.4641 215.281 13.2405 215.281 13.1079 215.281 12.9666 215.299 12.8165 215.334 12.6664 215.367 12.505 215.42 12.3326 215.492L12.3326 213.48Z" fill="#01919A" transform="matrix(1.01597 0 0 1 106.747 9.47117)"/><path d="M15.6745 213.48 16.5968 213.48 16.5968 216.359 18.2163 216.359 18.2163 217.057 15.6745 217.057 15.6745 213.48Z" fill="#01919A" transform="matrix(1.01597 0 0 1 106.747 9.47117)"/><path d="M21.2468 214.819C21.3554 214.653 21.484 214.527 21.6325 214.44 21.7827 214.353 21.9472 214.309 22.126 214.309 22.4343 214.309 22.669 214.404 22.8304 214.594 22.9917 214.784 23.0723 215.06 23.0723 215.423L23.0723 217.057 22.2099 217.057 22.2099 215.657C22.2115 215.637 22.2123 215.615 22.2123 215.593 22.2139 215.57 22.2147 215.538 22.2147 215.497 22.2147 215.307 22.1867 215.169 22.1308 215.085 22.075 214.999 21.9847 214.955 21.8601 214.955 21.6972 214.955 21.571 215.023 21.4816 215.157 21.3938 215.291 21.3482 215.485 21.345 215.739L21.345 217.057 20.4826 217.057 20.4826 215.657C20.4826 215.36 20.4571 215.169 20.406 215.085 20.3548 214.999 20.2638 214.955 20.1329 214.955 19.9683 214.955 19.8414 215.023 19.752 215.159 19.6625 215.293 19.6178 215.486 19.6178 215.737L19.6178 217.057 18.7553 217.057 18.7553 214.373 19.6178 214.373 19.6178 214.766C19.7232 214.614 19.8438 214.5 19.9795 214.424 20.1169 214.347 20.2678 214.309 20.4323 214.309 20.6176 214.309 20.7813 214.353 20.9234 214.443 21.0656 214.532 21.1734 214.658 21.2468 214.819Z" fill="#01919A" transform="matrix(1.01597 0 0 1 106.747 9.47117)"/><path d="M23.9156 213.48 25.0895 213.48 25.904 215.394 26.7233 213.48 27.8947 213.48 27.8947 217.057 27.0228 217.057 27.0228 214.44 26.1987 216.369 25.6141 216.369 24.79 214.44 24.79 217.057 23.9156 217.057 23.9156 213.48Z" fill="#01919A" transform="matrix(1.01597 0 0 1 106.747 9.47117)"/><path d="M30.2355 214.864C30.3808 214.864 30.491 214.832 30.5659 214.769 30.6411 214.705 30.6785 214.61 30.6785 214.486 30.6785 214.363 30.6411 214.27 30.5659 214.206 30.491 214.14 30.3808 214.107 30.2355 214.107L29.7252 214.107 29.7252 214.864 30.2355 214.864ZM30.2664 216.429C30.4518 216.429 30.5907 216.39 30.6833 216.311 30.7777 216.233 30.8246 216.115 30.8246 215.957 30.8246 215.802 30.7785 215.686 30.6857 215.61 30.5931 215.531 30.4534 215.492 30.2664 215.492L29.7252 215.492 29.7252 216.429 30.2664 216.429ZM31.1242 215.142C31.3221 215.2 31.4754 215.306 31.584 215.461 31.6928 215.616 31.747 215.806 31.747 216.031 31.747 216.376 31.6304 216.633 31.3973 216.803 31.1642 216.972 30.8094 217.057 30.3336 217.057L28.8026 217.057 28.8026 213.48 30.1875 213.48C30.6841 213.48 31.0436 213.555 31.2655 213.705 31.489 213.855 31.6008 214.095 31.6008 214.426 31.6008 214.6 31.5603 214.749 31.4786 214.872 31.3973 214.993 31.2791 215.083 31.1242 215.142Z" fill="#01919A" transform="matrix(1.01597 0 0 1 106.747 9.47117)"/><path d="M34.495 215.104C34.4198 215.069 34.3448 215.043 34.2696 215.027 34.1963 215.01 34.1219 215.001 34.0469 215.001 33.8266 215.001 33.6564 215.072 33.5367 215.214 33.4185 215.355 33.3593 215.557 33.3593 215.82L33.3593 217.057 32.5018 217.057 32.5018 214.373 33.3593 214.373 33.3593 214.814C33.4695 214.638 33.5956 214.511 33.7378 214.431 33.8815 214.349 34.0533 214.309 34.2528 214.309 34.2816 214.309 34.3128 214.31 34.3464 214.313 34.3798 214.315 34.4286 214.32 34.4926 214.328L34.495 215.104Z" fill="#01919A" transform="matrix(1.01597 0 0 1 106.747 9.47117)"/><path d="M34.7943 214.373 37.135 214.373 37.135 214.972 35.7214 216.443 37.135 216.443 37.135 217.057 34.7345 217.057 34.7345 216.457 36.1479 214.987 34.7943 214.987 34.7943 214.373Z" fill="#01919A" transform="matrix(1.01597 0 0 1 106.747 9.47117)"/><path d="M37.7818 214.373 38.6393 214.373 38.6393 217.009C38.6393 217.368 38.5532 217.642 38.3806 217.83 38.2083 218.02 37.9581 218.115 37.6308 218.115L37.2067 218.115 37.2067 217.552 37.3553 217.552C37.5183 217.552 37.63 217.516 37.6906 217.442 37.7514 217.369 37.7818 217.224 37.7818 217.009L37.7818 214.373ZM37.7818 213.329 38.6393 213.329 38.6393 214.028 37.7818 214.028 37.7818 213.329Z" fill="#01919A" transform="matrix(1.01597 0 0 1 106.747 9.47117)"/><path d="M41.4615 215.104C41.3865 215.069 41.3113 215.043 41.2364 215.027 41.1627 215.01 41.0886 215.001 41.0134 215.001 40.7931 215.001 40.6229 215.072 40.5031 215.214 40.385 215.355 40.326 215.557 40.326 215.82L40.326 217.057 39.4683 217.057 39.4683 214.373 40.326 214.373 40.326 214.814C40.4362 214.638 40.5624 214.511 40.7045 214.431 40.8483 214.349 41.0198 214.309 41.2196 214.309 41.2484 214.309 41.2793 214.31 41.3129 214.313 41.3465 214.315 41.3953 214.32 41.4591 214.328L41.4615 215.104Z" fill="#01919A" transform="matrix(1.01597 0 0 1 106.747 9.47117)"/><path d="M41.9309 213.48 42.8532 213.48 42.8532 216.709C42.8532 217.155 42.7319 217.488 42.4891 217.708 42.248 217.928 41.8824 218.039 41.3921 218.039L41.2052 218.039 41.2052 217.341 41.3489 217.341C41.5404 217.341 41.685 217.288 41.7826 217.181 41.8816 217.074 41.9309 216.917 41.9309 216.709L41.9309 213.48Z" fill="#01919A" transform="matrix(1.01597 0 0 1 106.747 9.47117)"/><path d="M39.0674 229.747 40.3084 231.573 39.3477 231.573 38.5115 230.351 37.6826 231.573 36.7173 231.573 37.9581 229.747 36.7651 227.996 37.7282 227.996 38.5115 229.148 39.2925 227.996 40.2604 227.996 39.0674 229.747Z" fill="#01919A" transform="matrix(1.01597 0 0 1 106.747 9.47117)"/><path d="M20.2093 219.519 20.2093 220.218C20.0927 220.138 19.9754 220.079 19.8572 220.041 19.7406 220.002 19.6192 219.984 19.493 219.984 19.2535 219.984 19.0666 220.054 18.9325 220.194 18.7999 220.333 18.7336 220.528 18.7336 220.779 18.7336 221.03 18.7999 221.225 18.9325 221.366 19.0666 221.505 19.2535 221.574 19.493 221.574 19.6272 221.574 19.7542 221.554 19.8739 221.514 19.9953 221.474 20.1071 221.415 20.2093 221.337L20.2093 222.039C20.0752 222.089 19.9386 222.125 19.7997 222.149 19.6623 222.175 19.5242 222.187 19.3852 222.187 18.9013 222.187 18.5228 222.064 18.2497 221.816 17.9766 221.567 17.84 221.221 17.84 220.779 17.84 220.336 17.9766 219.992 18.2497 219.744 18.5228 219.495 18.9013 219.37 19.3852 219.37 19.5258 219.37 19.6639 219.383 19.7997 219.408 19.937 219.432 20.0736 219.469 20.2093 219.519Z" fill="#01919A" transform="matrix(1.01597 0 0 1 106.747 9.47117)"/><path d="M22.3175 220.352C22.1562 220.352 22.0348 220.405 21.9534 220.511 21.8735 220.614 21.8336 220.771 21.8336 220.98 21.8336 221.189 21.8735 221.346 21.9534 221.452 22.0348 221.556 22.1562 221.608 22.3175 221.608 22.4804 221.608 22.6018 221.556 22.6817 221.452 22.7631 221.346 22.8039 221.189 22.8039 220.98 22.8039 220.771 22.7631 220.614 22.6817 220.511 22.6018 220.405 22.4804 220.352 22.3175 220.352ZM23.4578 218.635 23.4578 219.296C23.3061 219.224 23.1632 219.171 23.029 219.138 22.8949 219.103 22.7639 219.085 22.6361 219.085 22.3614 219.085 22.1474 219.162 21.9941 219.315 21.8408 219.467 21.7513 219.693 21.7258 219.993 21.8312 219.915 21.9454 219.857 22.0684 219.818 22.1914 219.778 22.3255 219.758 22.4708 219.758 22.8366 219.758 23.1313 219.865 23.3548 220.079 23.58 220.293 23.6926 220.574 23.6926 220.92 23.6926 221.304 23.5673 221.611 23.3165 221.843 23.0658 222.072 22.7296 222.187 22.3079 222.187 21.8432 222.187 21.483 222.031 21.2275 221.718 20.9736 221.403 20.8466 220.958 20.8466 220.381 20.8466 219.79 20.9951 219.326 21.2922 218.989 21.5908 218.651 21.9997 218.481 22.5188 218.481 22.6833 218.481 22.843 218.494 22.9979 218.52 23.1528 218.545 23.3061 218.584 23.4578 218.635Z" fill="#01919A" transform="matrix(1.01597 0 0 1 106.747 9.47117)"/><path d="M25.3265 219.238 25.3265 221.421 25.6571 221.421C26.034 221.421 26.3215 221.328 26.5195 221.141 26.7193 220.954 26.819 220.682 26.819 220.326 26.819 219.972 26.7201 219.702 26.5219 219.516 26.3239 219.331 26.0356 219.238 25.6571 219.238L25.3265 219.238ZM24.4041 218.541 25.3768 218.541C25.9198 218.541 26.3239 218.58 26.589 218.659 26.8556 218.735 27.0842 218.866 27.2741 219.052 27.4418 219.213 27.5664 219.399 27.648 219.61 27.7294 219.821 27.7702 220.059 27.7702 220.326 27.7702 220.596 27.7294 220.837 27.648 221.05 27.5664 221.26 27.4418 221.446 27.2741 221.608 27.0826 221.793 26.8526 221.925 26.5842 222.003 26.3159 222.08 25.9134 222.118 25.3768 222.118L24.4041 222.118 24.4041 218.541Z" fill="#01919A" transform="matrix(1.01597 0 0 1 106.747 9.47117)"/><path d="M30.966 218.654 30.966 219.411C30.7694 219.323 30.5777 219.257 30.391 219.212 30.204 219.167 30.0277 219.145 29.8615 219.145 29.6412 219.145 29.4782 219.175 29.3729 219.236 29.2673 219.297 29.2147 219.391 29.2147 219.519 29.2147 219.614 29.2497 219.69 29.3201 219.744 29.3918 219.797 29.5212 219.842 29.7082 219.88L30.101 219.96C30.4987 220.039 30.7814 220.161 30.9492 220.324 31.1167 220.487 31.2007 220.718 31.2007 221.018 31.2007 221.413 31.0834 221.707 30.8484 221.9 30.6153 222.092 30.2584 222.187 29.7775 222.187 29.5508 222.187 29.3233 222.166 29.095 222.123 28.8664 222.08 28.6381 222.016 28.4098 221.931L28.4098 221.153C28.6381 221.274 28.8584 221.366 29.071 221.428 29.2849 221.489 29.491 221.519 29.689 221.519 29.8903 221.519 30.0442 221.485 30.1514 221.418 30.2584 221.351 30.3117 221.256 30.3117 221.131 30.3117 221.019 30.2752 220.933 30.2016 220.872 30.1298 220.811 29.9853 220.757 29.7682 220.709L29.411 220.63C29.0534 220.554 28.7914 220.431 28.6253 220.264 28.4607 220.096 28.3786 219.87 28.3786 219.586 28.3786 219.23 28.4935 218.956 28.7234 218.764 28.9536 218.572 29.2841 218.477 29.7154 218.477 29.9117 218.477 30.1138 218.492 30.3213 218.522 30.5291 218.551 30.7438 218.595 30.966 218.654Z" fill="#01919A" transform="matrix(1.01597 0 0 1 106.747 9.47117)"/><path d="M31.9745 219.435 32.832 219.435 32.832 222.118 31.9745 222.118 31.9745 219.435ZM31.9745 218.39 32.832 218.39 32.832 219.09 31.9745 219.09 31.9745 218.39Z" fill="#01919A" transform="matrix(1.01597 0 0 1 106.747 9.47117)"/><path d="M33.6994 218.541 34.6217 218.541 34.6217 220.685C34.6217 220.981 34.6697 221.193 34.7654 221.32 34.8628 221.446 35.021 221.509 35.2397 221.509 35.4603 221.509 35.6182 221.446 35.7142 221.32 35.8115 221.193 35.8603 220.981 35.8603 220.685L35.8603 218.541 36.7827 218.541 36.7827 220.685C36.7827 221.192 36.6557 221.569 36.4018 221.816 36.1476 222.064 35.7603 222.187 35.2397 222.187 34.7206 222.187 34.3342 222.064 34.0802 221.816 33.8263 221.569 33.6994 221.192 33.6994 220.685L33.6994 218.541Z" fill="#01919A" transform="matrix(1.01597 0 0 1 106.747 9.47117)"/><path d="M13.4532 223.364 14.9841 223.364C15.4392 223.364 15.7882 223.466 16.031 223.669 16.2753 223.87 16.3975 224.157 16.3975 224.531 16.3975 224.906 16.2753 225.195 16.031 225.398 15.7882 225.599 15.4392 225.7 14.9841 225.7L14.3756 225.7 14.3756 226.941 13.4532 226.941 13.4532 223.364ZM14.3756 224.033 14.3756 225.032 14.8858 225.032C15.0647 225.032 15.2029 224.989 15.3003 224.902 15.3977 224.814 15.4464 224.691 15.4464 224.531 15.4464 224.371 15.3977 224.248 15.3003 224.162 15.2029 224.076 15.0647 224.033 14.8858 224.033L14.3756 224.033Z" fill="#01919A" transform="matrix(1.01597 0 0 1 106.747 9.47117)"/><path d="M18.0057 224.03 16.9948 225.528 18.0057 225.528 18.0057 224.03ZM17.8524 223.271 18.8777 223.271 18.8777 225.528 19.388 225.528 19.388 226.196 18.8777 226.196 18.8777 226.848 18.0057 226.848 18.0057 226.196 16.4198 226.196 16.4198 225.406 17.8524 223.271Z" fill="#01919A" transform="matrix(1.01597 0 0 1 106.747 9.47117)"/><path d="M20.1656 223.434 23.1722 223.434 23.1722 223.992 21.2532 226.314 23.2273 226.314 23.2273 227.011 20.1105 227.011 20.1105 226.453 22.0295 224.131 20.1656 224.131 20.1656 223.434Z" fill="#01919A" transform="matrix(1.01597 0 0 1 106.747 9.47117)"/><path d="M30.1776 223.434 31.0999 223.434 31.0999 224.74 32.4295 223.434 33.5004 223.434 31.7779 225.128 33.6778 227.011 32.5231 227.011 31.0999 225.602 31.0999 227.011 30.1776 227.011 30.1776 223.434Z" fill="#01919A" transform="matrix(1.01597 0 0 1 106.747 9.47117)"/><path d="M34.6217 225.638 33.6538 224.328 34.5617 224.328 35.1103 225.123 35.6662 224.328 36.5741 224.328 35.6062 225.633 36.6221 227.011 35.7142 227.011 35.1103 226.163 34.5139 227.011 33.6057 227.011 34.6217 225.638Z" fill="#01919A" transform="matrix(1.01597 0 0 1 106.747 9.47117)"/><path d="M36.9742 224.328 39.3146 224.328 39.3146 224.927 37.9013 226.398 39.3146 226.398 39.3146 227.011 36.9144 227.011 36.9144 226.412 38.3278 224.941 36.9742 224.941 36.9742 224.328Z" fill="#01919A" transform="matrix(1.01597 0 0 1 106.747 9.47117)"/><path d="M13.7186 227.512 14.6409 227.512 14.6409 230.391 16.2604 230.391 16.2604 231.088 13.7186 231.088 13.7186 227.512Z" fill="#01919A" transform="matrix(1.01597 0 0 1 106.747 9.47117)"/><path d="M14.1529 232.626 14.1529 234.809 14.4835 234.809C14.8604 234.809 15.1479 234.715 15.3459 234.529 15.5456 234.342 15.6454 234.07 15.6454 233.714 15.6454 233.36 15.5464 233.09 15.3483 232.904 15.1503 232.719 14.862 232.626 14.4835 232.626L14.1529 232.626ZM13.2305 231.929 14.2032 231.929C14.7462 231.929 15.1503 231.968 15.4154 232.047 15.6821 232.123 15.9105 232.254 16.1005 232.44 16.2682 232.601 16.3928 232.787 16.4743 232.998 16.5557 233.209 16.5965 233.447 16.5965 233.714 16.5965 233.984 16.5557 234.225 16.4743 234.438 16.3928 234.648 16.2682 234.835 16.1005 234.996 15.9089 235.181 15.6789 235.313 15.4106 235.391 15.1423 235.468 14.7398 235.506 14.2032 235.506L13.2305 235.506 13.2305 231.929Z" fill="#01919A" transform="matrix(1.01597 0 0 1 106.747 9.47117)"/><path d="M19.7923 232.042 19.7923 232.799C19.5958 232.711 19.4042 232.645 19.2173 232.6 19.0304 232.555 18.854 232.533 18.6879 232.533 18.4675 232.533 18.3046 232.563 18.1992 232.624 18.0937 232.685 18.041 232.779 18.041 232.907 18.041 233.002 18.0762 233.078 18.1465 233.132 18.2183 233.185 18.3477 233.23 18.5345 233.268L18.9274 233.348C19.3251 233.427 19.6078 233.549 19.7755 233.712 19.9432 233.875 20.027 234.106 20.027 234.406 20.027 234.801 19.9097 235.095 19.6749 235.288 19.4417 235.48 19.0847 235.576 18.604 235.576 18.3772 235.576 18.1496 235.554 17.9213 235.511 17.6929 235.468 17.4645 235.404 17.2361 235.319L17.2361 234.541C17.4645 234.662 17.6849 234.754 17.8973 234.816 18.1113 234.877 18.3173 234.907 18.5154 234.907 18.7166 234.907 18.8707 234.873 18.9777 234.807 19.0847 234.739 19.1383 234.644 19.1383 234.519 19.1383 234.407 19.1015 234.321 19.028 234.26 18.9562 234.199 18.8117 234.145 18.5944 234.097L18.2375 234.018C17.8797 233.942 17.6178 233.819 17.4517 233.652 17.2872 233.484 17.205 233.258 17.205 232.974 17.205 232.618 17.3199 232.344 17.5499 232.152 17.7799 231.96 18.1105 231.865 18.5417 231.865 18.7382 231.865 18.9402 231.88 19.1478 231.91 19.3554 231.939 19.5703 231.983 19.7923 232.042Z" fill="#01919A" transform="matrix(1.01597 0 0 1 106.747 9.47117)"/><path d="M20.8009 232.823 21.6585 232.823 21.6585 235.506 20.8009 235.506 20.8009 232.823ZM20.8009 231.778 21.6585 231.778 21.6585 232.478 20.8009 232.478 20.8009 231.778Z" fill="#01919A" transform="matrix(1.01597 0 0 1 106.747 9.47117)"/><path d="M22.5257 231.929 23.4481 231.929 23.4481 234.073C23.4481 234.369 23.496 234.58 23.5918 234.708 23.6892 234.835 23.8473 234.897 24.0661 234.897 24.2866 234.897 24.4447 234.835 24.5405 234.708 24.6379 234.58 24.6866 234.369 24.6866 234.073L24.6866 231.929 25.609 231.929 25.609 234.073C25.609 234.58 25.482 234.957 25.228 235.204 24.9741 235.452 24.5868 235.576 24.0661 235.576 23.5471 235.576 23.1606 235.452 22.9066 235.204 22.6527 234.957 22.5257 234.58 22.5257 234.073L22.5257 231.929Z" fill="#01919A" transform="matrix(1.01597 0 0 1 106.747 9.47117)"/><path d="M31.2341 233.515C31.4272 233.515 31.5653 233.479 31.6485 233.407 31.7331 233.336 31.7755 233.217 31.7755 233.053 31.7755 232.89 31.7331 232.773 31.6485 232.703 31.5653 232.633 31.4272 232.598 31.2341 232.598L30.846 232.598 30.846 233.515 31.2341 233.515ZM30.846 234.153 30.846 235.506 29.9237 235.506 29.9237 231.929 31.3322 231.929C31.8032 231.929 32.1484 232.008 32.3671 232.167 32.5874 232.324 32.6978 232.575 32.6978 232.916 32.6978 233.153 32.6402 233.347 32.5253 233.499 32.4119 233.65 32.2401 233.762 32.0102 233.834 32.1364 233.863 32.2489 233.928 32.3479 234.03 32.4487 234.131 32.5501 234.284 32.6522 234.49L33.1529 235.506 32.1708 235.506 31.7347 234.617C31.6469 234.438 31.5573 234.316 31.4664 234.251 31.377 234.185 31.257 234.153 31.1071 234.153L30.846 234.153Z" fill="#01919A" transform="matrix(1.01597 0 0 1 106.747 9.47117)"/><path d="M34.9209 233.381C34.7388 233.381 34.599 233.448 34.5017 233.582 34.4059 233.716 34.3579 233.911 34.3579 234.167 34.3579 234.422 34.4059 234.617 34.5017 234.751 34.599 234.885 34.7388 234.953 34.9209 234.953 35.1045 234.953 35.2442 234.885 35.3402 234.751 35.4376 234.617 35.4864 234.422 35.4864 234.167 35.4864 233.911 35.4376 233.716 35.3402 233.582 35.2442 233.448 35.1045 233.381 34.9209 233.381ZM35.4864 235.118C35.3682 235.276 35.2378 235.392 35.0959 235.465 34.9538 235.539 34.7892 235.576 34.6022 235.576 34.2717 235.576 34.0002 235.445 33.7877 235.183 33.5753 234.919 33.4692 234.58 33.4692 234.167 33.4692 233.753 33.5753 233.416 33.7877 233.156 34.0002 232.894 34.2717 232.763 34.6022 232.763 34.7892 232.763 34.9538 232.8 35.0959 232.873 35.2378 232.947 35.3682 233.062 35.4864 233.221L35.4864 232.823 36.3487 232.823 36.3487 236.527 35.4864 236.527 35.4864 235.118Z" fill="#01919A" transform="matrix(1.01597 0 0 1 106.747 9.47117)"/><path d="M39.0511 233.577C39.2922 233.64 39.4752 233.748 39.5998 233.903 39.7259 234.057 39.7889 234.252 39.7889 234.49 39.7889 234.845 39.6531 235.115 39.3816 235.3 39.1101 235.484 38.714 235.576 38.1933 235.576 38.0098 235.576 37.8253 235.56 37.6399 235.53 37.4564 235.501 37.2742 235.457 37.0937 235.398L37.0937 234.687C37.2662 234.773 37.4372 234.839 37.6066 234.883 37.7773 234.926 37.945 234.948 38.1096 234.948 38.3539 234.948 38.5409 234.905 38.6702 234.821 38.8012 234.736 38.8665 234.615 38.8665 234.457 38.8665 234.294 38.7996 234.171 38.6654 234.088 38.5329 234.003 38.3363 233.961 38.076 233.961L37.7071 233.961 37.7071 233.367 38.0952 233.367C38.3267 233.367 38.4993 233.331 38.6126 233.259 38.726 233.185 38.7828 233.074 38.7828 232.926 38.7828 232.789 38.7276 232.682 38.6174 232.607 38.5073 232.532 38.3515 232.495 38.1504 232.495 38.0018 232.495 37.8517 232.511 37.6999 232.545 37.5481 232.579 37.3972 232.628 37.247 232.694L37.247 232.018C37.4292 231.967 37.6098 231.928 37.7885 231.903 37.9674 231.877 38.1432 231.865 38.3155 231.865 38.7804 231.865 39.1277 231.941 39.3576 232.095 39.5894 232.246 39.7051 232.475 39.7051 232.782 39.7051 232.991 39.6499 233.163 39.5397 233.297 39.4296 233.43 39.2666 233.523 39.0511 233.577Z" fill="#01919A" transform="matrix(1.01597 0 0 1 106.747 9.47117)"/><path d="M34.8079 227.765 35.7302 227.765 35.7302 230.994C35.7302 231.439 35.6088 231.773 35.3661 231.993 35.1247 232.213 34.759 232.323 34.2688 232.323L34.0818 232.323 34.0818 231.626 34.2256 231.626C34.4174 231.626 34.5619 231.573 34.6593 231.466 34.7582 231.359 34.8079 231.202 34.8079 230.994L34.8079 227.765Z" fill="#01919A" transform="matrix(1.01597 0 0 1 106.747 9.47117)"/><path d="M18.0111 229.241 17.0433 227.93 17.9513 227.93 18.4999 228.726 19.0556 227.93 19.9636 227.93 18.9958 229.236 20.0115 230.614 19.1036 230.614 18.4999 229.766 17.9033 230.614 16.9954 230.614 18.0111 229.241Z" fill="#01919A" transform="matrix(1.01597 0 0 1 106.747 9.47117)"/></g></g></g><path d="M329.5 195.5 329.5 353.237" stroke="#D9D9D9" stroke-linejoin="round" stroke-miterlimit="10" fill="none" fill-rule="evenodd"/><path d="M667.5 195.5 667.5 353.237" stroke="#D9D9D9" stroke-linejoin="round" stroke-miterlimit="10" fill="none" fill-rule="evenodd"/></g></svg>