<svg width="1431" height="273" xmlns="http://www.w3.org/2000/svg" xmlns:xlink="http://www.w3.org/1999/xlink" xml:space="preserve" overflow="hidden"><defs><clipPath id="clip0"><rect x="1805" y="1228" width="1431" height="273"/></clipPath></defs><g clip-path="url(#clip0)" transform="translate(-1805 -1228)"><path d="M1834.5 1367.83C1834.5 1357.71 1842.71 1349.5 1852.83 1349.5L2128.17 1349.5C2138.29 1349.5 2146.5 1357.71 2146.5 1367.83L2146.5 1441.17C2146.5 1451.29 2138.29 1459.5 2128.17 1459.5L1852.83 1459.5C1842.71 1459.5 1834.5 1451.29 1834.5 1441.17Z" stroke="#7A797B" stroke-width="3.4375" stroke-linejoin="round" stroke-miterlimit="10" fill="none" fill-rule="evenodd"/><text font-family="Latha,Latha_MSFontService,sans-serif" font-weight="400" font-size="46" transform="translate(1915.92 1395)">பொது</text><text font-family="Verdana,Verdana_MSFontService,sans-serif" font-weight="400" font-size="37" transform="matrix(1 0 0 1 1935.97 1445)">Public</text><path d="M2178.5 1367.83C2178.5 1357.71 2186.71 1349.5 2196.83 1349.5L2472.17 1349.5C2482.29 1349.5 2490.5 1357.71 2490.5 1367.83L2490.5 1441.17C2490.5 1451.29 2482.29 1459.5 2472.17 1459.5L2196.83 1459.5C2186.71 1459.5 2178.5 1451.29 2178.5 1441.17Z" stroke="#7A797B" stroke-width="3.4375" stroke-linejoin="round" stroke-miterlimit="10" fill="none" fill-rule="evenodd"/><text font-family="Latha,Latha_MSFontService,sans-serif" font-weight="400" font-size="46" transform="translate(2231.22 1395)">தனியார்</text><text font-family="Verdana,Verdana_MSFontService,sans-serif" font-weight="400" font-size="37" transform="matrix(1 0 0 1 2270.48 1445)">Private</text><path d="M2527.5 1367.83C2527.5 1357.71 2535.71 1349.5 2545.83 1349.5L2820.17 1349.5C2830.29 1349.5 2838.5 1357.71 2838.5 1367.83L2838.5 1441.17C2838.5 1451.29 2830.29 1459.5 2820.17 1459.5L2545.83 1459.5C2535.71 1459.5 2527.5 1451.29 2527.5 1441.17Z" stroke="#7A797B" stroke-width="3.4375" stroke-linejoin="round" stroke-miterlimit="10" fill="none" fill-rule="evenodd"/><text font-family="Latha,Latha_MSFontService,sans-serif" font-weight="400" font-size="46" transform="translate(2605.35 1395)">கலப்பு</text><text font-family="Verdana,Verdana_MSFontService,sans-serif" font-weight="400" font-size="37" transform="matrix(1 0 0 1 2621.97 1445)">Hybrid</text><path d="M2884.5 1367.83C2884.5 1357.71 2892.71 1349.5 2902.83 1349.5L3178.17 1349.5C3188.29 1349.5 3196.5 1357.71 3196.5 1367.83L3196.5 1441.17C3196.5 1451.29 3188.29 1459.5 3178.17 1459.5L2902.83 1459.5C2892.71 1459.5 2884.5 1451.29 2884.5 1441.17Z" stroke="#7A797B" stroke-width="3.4375" stroke-linejoin="round" stroke-miterlimit="10" fill="none" fill-rule="evenodd"/><text font-family="Latha,Latha_MSFontService,sans-serif" font-weight="400" font-size="46" transform="translate(2971.89 1395)">சமூக</text><text font-family="Verdana,Verdana_MSFontService,sans-serif" font-weight="400" font-size="37" transform="matrix(1 0 0 1 2934.08 1445)">Community</text><text font-family="Latha,Latha_MSFontService,sans-serif" font-weight="400" font-size="46" transform="translate(2201.82 1303)">பணியமர்த்தல்<tspan font-size="46" x="362.656" y="0"> </tspan><tspan font-size="46" x="389.01" y="0">முறை</tspan><tspan font-size="46" x="552.865" y="0">கள்</tspan></text><path d="M1806 1284.17C1806 1260.33 1825.33 1241 1849.17 1241L3191.83 1241C3215.67 1241 3235 1260.33 3235 1284.17L3235 1456.83C3235 1480.67 3215.67 1500 3191.83 1500L1849.17 1500C1825.33 1500 1806 1480.67 1806 1456.83Z" stroke="#7A797B" stroke-width="2.29167" stroke-linejoin="round" stroke-miterlimit="10" fill="none" fill-rule="evenodd"/></g></svg>