<svg width="1431" height="288" xmlns="http://www.w3.org/2000/svg" xmlns:xlink="http://www.w3.org/1999/xlink" xml:space="preserve" overflow="hidden"><defs><clipPath id="clip0"><rect x="1805" y="928" width="1431" height="288"/></clipPath></defs><g clip-path="url(#clip0)" transform="translate(-1805 -928)"><path d="M1832.5 1044.17C1832.5 1028.33 1845.33 1015.5 1861.17 1015.5L2284.83 1015.5C2300.67 1015.5 2313.5 1028.33 2313.5 1044.17L2313.5 1158.83C2313.5 1174.67 2300.67 1187.5 2284.83 1187.5L1861.17 1187.5C1845.33 1187.5 1832.5 1174.67 1832.5 1158.83Z" stroke="#7A797B" stroke-width="3.4375" stroke-linejoin="round" stroke-miterlimit="10" fill="none" fill-rule="evenodd"/><text font-family="Latha,Latha_MSFontService,sans-serif" font-weight="400" font-size="46" transform="translate(1928.76 1064)">சேவையாக <tspan font-size="46" x="-48.9958" y="56">உள்கட்டமைப்பு</tspan></text><text font-family="Verdana,Verdana_MSFontService,sans-serif" font-weight="400" font-size="37" transform="matrix(1 0 0 1 2030.17 1170)">IaaS</text><path d="M2352.5 1044.17C2352.5 1028.33 2365.33 1015.5 2381.17 1015.5L2738.83 1015.5C2754.67 1015.5 2767.5 1028.33 2767.5 1044.17L2767.5 1158.83C2767.5 1174.67 2754.67 1187.5 2738.83 1187.5L2381.17 1187.5C2365.33 1187.5 2352.5 1174.67 2352.5 1158.83Z" stroke="#7A797B" stroke-width="3.4375" stroke-linejoin="round" stroke-miterlimit="10" fill="none" fill-rule="evenodd"/><text font-family="Latha,Latha_MSFontService,sans-serif" font-weight="400" font-size="46" transform="translate(2416.06 1064)">சேவையாக <tspan font-size="46" x="0.572998" y="56">பணித்தளம்</tspan></text><text font-family="Verdana,Verdana_MSFontService,sans-serif" font-weight="400" font-size="37" transform="matrix(1 0 0 1 2514.03 1170)">PaaS</text><path d="M2793.5 1044.17C2793.5 1028.33 2806.33 1015.5 2822.17 1015.5L3180.83 1015.5C3196.67 1015.5 3209.5 1028.33 3209.5 1044.17L3209.5 1158.83C3209.5 1174.67 3196.67 1187.5 3180.83 1187.5L2822.17 1187.5C2806.33 1187.5 2793.5 1174.67 2793.5 1158.83Z" stroke="#7A797B" stroke-width="3.4375" stroke-linejoin="round" stroke-miterlimit="10" fill="none" fill-rule="evenodd"/><text font-family="Latha,Latha_MSFontService,sans-serif" font-weight="400" font-size="46" transform="translate(2857.82 1064)">சேவையாக <tspan font-size="46" x="-25.2085" y="56">மென்பொருள்</tspan></text><text font-family="Verdana,Verdana_MSFontService,sans-serif" font-weight="400" font-size="37" transform="matrix(1 0 0 1 2954.36 1170)">SaaS</text><text font-family="Latha,Latha_MSFontService,sans-serif" font-weight="400" font-size="46" transform="translate(2295.21 984)">சேவை முறைகள்</text><path d="M1806 976.668C1806 950.342 1827.34 929 1853.67 929L3187.33 929C3213.66 929 3235 950.342 3235 976.668L3235 1167.33C3235 1193.66 3213.66 1215 3187.33 1215L1853.67 1215C1827.34 1215 1806 1193.66 1806 1167.33Z" stroke="#7A797B" stroke-width="2.29167" stroke-linejoin="round" stroke-miterlimit="10" fill="none" fill-rule="evenodd"/></g></svg>