<svg width="1431" height="491" xmlns="http://www.w3.org/2000/svg" xmlns:xlink="http://www.w3.org/1999/xlink" xml:space="preserve" overflow="hidden"><defs><clipPath id="clip0"><rect x="1805" y="412" width="1431" height="491"/></clipPath></defs><g clip-path="url(#clip0)" transform="translate(-1805 -412)"><path d="M2352.5 545.667C2352.5 530.111 2365.11 517.5 2380.67 517.5L2739.33 517.5C2754.89 517.5 2767.5 530.111 2767.5 545.667L2767.5 658.333C2767.5 673.889 2754.89 686.5 2739.33 686.5L2380.67 686.5C2365.11 686.5 2352.5 673.889 2352.5 658.333Z" stroke="#7A797B" stroke-width="3.4375" stroke-linejoin="round" stroke-miterlimit="10" fill="none" fill-rule="evenodd"/><text font-family="Latha,Latha_MSFontService,sans-serif" font-weight="400" font-size="46" transform="translate(2419.21 565)">விரைவான <tspan font-size="46" x="44.6875" y="56">மீள்மை</tspan></text><text font-family="Verdana,Verdana_MSFontService,sans-serif" font-weight="400" font-size="37" transform="matrix(1 0 0 1 2419.21 671)">Rapid Elasticity</text><path d="M2793.5 542.667C2793.5 527.111 2806.11 514.5 2821.67 514.5L3181.33 514.5C3196.89 514.5 3209.5 527.111 3209.5 542.667L3209.5 655.333C3209.5 670.889 3196.89 683.5 3181.33 683.5L2821.67 683.5C2806.11 683.5 2793.5 670.889 2793.5 655.333Z" stroke="#7A797B" stroke-width="3.4375" stroke-linejoin="round" stroke-miterlimit="10" fill="none" fill-rule="evenodd"/><text font-family="Latha,Latha_MSFontService,sans-serif" font-weight="400" font-size="46" transform="translate(2822.01 562)">அளவிடப்பட்ட<tspan font-size="46" x="358.646" y="0"> </tspan><tspan font-size="46" x="91.3687" y="56">சேவை</tspan></text><text font-family="Verdana,Verdana_MSFontService,sans-serif" font-weight="400" font-size="37" transform="matrix(1 0 0 1 2838.62 668)">Measured Service</text><path d="M1832.5 735.167C1832.5 719.335 1845.33 706.5 1861.17 706.5L2284.83 706.5C2300.67 706.5 2313.5 719.335 2313.5 735.167L2313.5 849.833C2313.5 865.665 2300.67 878.5 2284.83 878.5L1861.17 878.5C1845.33 878.5 1832.5 865.665 1832.5 849.833Z" stroke="#7A797B" stroke-width="3.4375" stroke-linejoin="round" stroke-miterlimit="10" fill="none" fill-rule="evenodd"/><text font-family="Latha,Latha_MSFontService,sans-serif" font-weight="400" font-size="46" transform="translate(1889.49 755)">தேவைக்கேற்ப<tspan font-size="46" x="365.521" y="0"> </tspan><tspan font-size="46" x="39.5312" y="56">சுய சேவை</tspan></text><text font-family="Verdana,Verdana_MSFontService,sans-serif" font-weight="400" font-size="37" transform="matrix(1 0 0 1 1845.1 858)">On<tspan font-size="37" x="52.1354" y="0">-</tspan><tspan font-size="37" x="68.75" y="0">Demand Self Service</tspan></text><path d="M2352.5 736.667C2352.5 721.111 2365.11 708.5 2380.67 708.5L2739.33 708.5C2754.89 708.5 2767.5 721.111 2767.5 736.667L2767.5 849.333C2767.5 864.889 2754.89 877.5 2739.33 877.5L2380.67 877.5C2365.11 877.5 2352.5 864.889 2352.5 849.333Z" stroke="#7A797B" stroke-width="3.4375" stroke-linejoin="round" stroke-miterlimit="10" fill="none" fill-rule="evenodd"/><text font-family="Latha,Latha_MSFontService,sans-serif" font-weight="400" font-size="46" transform="translate(2510.02 755)">வள<tspan font-size="46" x="-38.3853" y="56">திரள்வு</tspan></text><text font-family="Verdana,Verdana_MSFontService,sans-serif" font-weight="400" font-size="37" transform="matrix(1 0 0 1 2401.73 861)">Resource Pooling</text><path d="M2793.5 736.667C2793.5 721.111 2806.11 708.5 2821.67 708.5L3181.33 708.5C3196.89 708.5 3209.5 721.111 3209.5 736.667L3209.5 849.332C3209.5 864.889 3196.89 877.5 3181.33 877.5L2821.67 877.5C2806.11 877.5 2793.5 864.889 2793.5 849.332Z" stroke="#7A797B" stroke-width="3.4375" stroke-linejoin="round" stroke-miterlimit="10" fill="none" fill-rule="evenodd"/><text font-family="Latha,Latha_MSFontService,sans-serif" font-weight="400" font-size="46" transform="translate(2831.75 755)">பல்குத்தகை<tspan font-size="46" x="300.781" y="0">த்</tspan><tspan font-size="46" x="339.167" y="0"> </tspan><tspan font-size="46" x="73.6082" y="56">தன்மை</tspan></text><text font-family="Verdana,Verdana_MSFontService,sans-serif" font-weight="400" font-size="37" transform="matrix(1 0 0 1 2883.88 861)">Multitenancy</text><text font-family="Latha,Latha_MSFontService,sans-serif" font-weight="400" font-size="46" transform="translate(2220.44 486)">அத்தியாவசிய<tspan font-size="46" x="351.771" y="0"> </tspan><tspan font-size="46" x="378.125" y="0">பண்பு</tspan>கள்</text><path d="M1832.5 545.667C1832.5 530.111 1845.11 517.5 1860.67 517.5L2285.33 517.5C2300.89 517.5 2313.5 530.111 2313.5 545.667L2313.5 658.333C2313.5 673.889 2300.89 686.5 2285.33 686.5L1860.67 686.5C1845.11 686.5 1832.5 673.889 1832.5 658.333Z" stroke="#7A797B" stroke-width="3.4375" stroke-linejoin="round" stroke-miterlimit="10" fill="none" fill-rule="evenodd"/><text font-family="Latha,Latha_MSFontService,sans-serif" font-weight="400" font-size="46" transform="translate(1882.34 565)">பரந்த பிணைய <tspan font-size="46" x="79.6354" y="56">அணுகல்</tspan></text><text font-family="Verdana,Verdana_MSFontService,sans-serif" font-weight="400" font-size="37" transform="matrix(1 0 0 1 1867.45 668)">Broad Network Access</text><path d="M1806 512.001C1806 468.923 1840.92 434 1884 434L3157 434C3200.08 434 3235 468.923 3235 512.001L3235 823.999C3235 867.078 3200.08 902 3157 902L1884 902C1840.92 902 1806 867.078 1806 823.999Z" stroke="#7A797B" stroke-width="2.29167" stroke-linejoin="round" stroke-miterlimit="10" fill="none" fill-rule="evenodd"/></g></svg>