<svg width="3139" height="469" xmlns="http://www.w3.org/2000/svg" xmlns:xlink="http://www.w3.org/1999/xlink" xml:space="preserve" overflow="hidden"><defs><clipPath id="clip0"><rect x="122" y="1188" width="3139" height="469"/></clipPath><clipPath id="clip1"><rect x="1250" y="1324" width="227" height="260"/></clipPath><clipPath id="clip2"><rect x="1250" y="1324" width="227" height="260"/></clipPath><clipPath id="clip3"><rect x="1250" y="1324" width="227" height="260"/></clipPath><clipPath id="clip4"><rect x="1340" y="1347" width="52" height="68"/></clipPath><clipPath id="clip5"><rect x="1340" y="1347" width="52" height="68"/></clipPath><clipPath id="clip6"><rect x="1340" y="1347" width="52" height="68"/></clipPath><clipPath id="clip7"><rect x="1788" y="1324" width="227" height="260"/></clipPath><clipPath id="clip8"><rect x="1788" y="1324" width="227" height="260"/></clipPath><clipPath id="clip9"><rect x="1788" y="1324" width="227" height="260"/></clipPath><clipPath id="clip10"><rect x="1877" y="1347" width="53" height="68"/></clipPath><clipPath id="clip11"><rect x="1877" y="1347" width="53" height="68"/></clipPath><clipPath id="clip12"><rect x="1877" y="1347" width="53" height="68"/></clipPath><clipPath id="clip13"><rect x="2359" y="1324" width="228" height="260"/></clipPath><clipPath id="clip14"><rect x="2359" y="1324" width="228" height="260"/></clipPath><clipPath id="clip15"><rect x="2359" y="1324" width="228" height="260"/></clipPath><clipPath id="clip16"><rect x="2449" y="1347" width="53" height="68"/></clipPath><clipPath id="clip17"><rect x="2449" y="1347" width="53" height="68"/></clipPath><clipPath id="clip18"><rect x="2449" y="1347" width="53" height="68"/></clipPath><clipPath id="clip19"><rect x="2931" y="1324" width="226" height="260"/></clipPath><clipPath id="clip20"><rect x="2931" y="1324" width="226" height="260"/></clipPath><clipPath id="clip21"><rect x="2931" y="1324" width="226" height="260"/></clipPath><clipPath id="clip22"><rect x="3021" y="1347" width="53" height="68"/></clipPath><clipPath id="clip23"><rect x="3021" y="1347" width="53" height="68"/></clipPath><clipPath id="clip24"><rect x="3021" y="1347" width="53" height="68"/></clipPath></defs><g clip-path="url(#clip0)" transform="translate(-122 -1188)"><rect x="128" y="1188" width="773" height="442" fill="#F2F2F2"/><rect x="127" y="1242" width="777" height="77" fill="#FFFFFF"/><text fill="#F79A0B" font-family="Latha,Latha_MSFontService,sans-serif" font-weight="700" font-size="37" transform="translate(271.495 1292)">பரிவர்த்தனை பதிவேடு </text><rect x="1046" y="1188" width="2215" height="442" fill="#F2F2F2"/><rect x="1049" y="1240" width="2211" height="77" fill="#FFFFFF"/><text fill="#204497" font-family="Latha,Latha_MSFontService,sans-serif" font-weight="700" font-size="37" transform="translate(2007.28 1290)">கட்டச்சங்கிலி</text><path d="M922 1394 974 1394 974 1368 1026 1420 974 1472 974 1446 922 1446Z" fill="#FC3204" fill-rule="evenodd"/><path d="M276.973 1370C194.027 1370 194.027 1370 194.027 1370 189.345 1370 186 1373.32 186 1377.96 186 1492.04 186 1492.04 186 1492.04 186 1496.68 189.345 1500 194.027 1500 244.865 1500 244.865 1500 244.865 1500 245.534 1500 246.203 1500 246.872 1499.34 284.331 1462.19 284.331 1462.19 284.331 1462.19 285 1461.53 285 1460.87 285 1460.2 285 1460.2 285 1460.2 285 1460.2 285 1377.96 285 1377.96 285 1377.96 285 1373.32 281.655 1370 276.973 1370ZM247.541 1490.71C247.541 1462.86 247.541 1462.86 247.541 1462.86 275.635 1462.86 275.635 1462.86 275.635 1462.86L247.541 1490.71ZM279.649 1457.55C244.865 1457.55 244.865 1457.55 244.865 1457.55 243.527 1457.55 242.189 1458.88 242.189 1460.2 242.189 1494.69 242.189 1494.69 242.189 1494.69 194.027 1494.69 194.027 1494.69 194.027 1494.69 192.689 1494.69 191.351 1493.37 191.351 1492.04 191.351 1377.96 191.351 1377.96 191.351 1377.96 191.351 1376.63 192.689 1375.31 194.027 1375.31 276.973 1375.31 276.973 1375.31 276.973 1375.31 278.311 1375.31 279.649 1376.63 279.649 1377.96L279.649 1457.55ZM202.054 1399.18C268.946 1399.18 268.946 1399.18 268.946 1399.18 268.946 1393.88 268.946 1393.88 268.946 1393.88 202.054 1393.88 202.054 1393.88 202.054 1393.88L202.054 1399.18ZM202.054 1420.41C268.946 1420.41 268.946 1420.41 268.946 1420.41 268.946 1415.1 268.946 1415.1 268.946 1415.1 202.054 1415.1 202.054 1415.1 202.054 1415.1L202.054 1420.41ZM202.054 1441.63C268.946 1441.63 268.946 1441.63 268.946 1441.63 268.946 1436.33 268.946 1436.33 268.946 1436.33 202.054 1436.33 202.054 1436.33 202.054 1436.33L202.054 1441.63Z" fill="#F79A0B" fill-rule="evenodd"/><text fill="#F79A0B" font-family="Latha,Latha_MSFontService,sans-serif" font-weight="400" font-size="37" transform="translate(162.52 1562)">பக்கம்</text><text fill="#F79A0B" font-family="Arial,Arial_MSFontService,sans-serif" font-weight="400" font-size="37" transform="matrix(1 0 0 1 293.718 1562)">1</text><path d="M456.054 1370C373.946 1370 373.946 1370 373.946 1370 369.311 1370 366 1373.32 366 1377.96 366 1492.04 366 1492.04 366 1492.04 366 1496.68 369.311 1500 373.946 1500 424.27 1500 424.27 1500 424.27 1500 424.932 1500 425.595 1500 426.257 1499.34 463.338 1462.19 463.338 1462.19 463.338 1462.19 464 1461.53 464 1460.87 464 1460.2 464 1460.2 464 1460.2 464 1460.2 464 1377.96 464 1377.96 464 1377.96 464 1373.32 460.689 1370 456.054 1370ZM426.919 1490.71C426.919 1462.86 426.919 1462.86 426.919 1462.86 454.73 1462.86 454.73 1462.86 454.73 1462.86L426.919 1490.71ZM458.703 1457.55C424.27 1457.55 424.27 1457.55 424.27 1457.55 422.946 1457.55 421.622 1458.88 421.622 1460.2 421.622 1494.69 421.622 1494.69 421.622 1494.69 373.946 1494.69 373.946 1494.69 373.946 1494.69 372.622 1494.69 371.297 1493.37 371.297 1492.04 371.297 1377.96 371.297 1377.96 371.297 1377.96 371.297 1376.63 372.622 1375.31 373.946 1375.31 456.054 1375.31 456.054 1375.31 456.054 1375.31 457.378 1375.31 458.703 1376.63 458.703 1377.96L458.703 1457.55ZM381.892 1399.18C448.108 1399.18 448.108 1399.18 448.108 1399.18 448.108 1393.88 448.108 1393.88 448.108 1393.88 381.892 1393.88 381.892 1393.88 381.892 1393.88L381.892 1399.18ZM381.892 1420.41C448.108 1420.41 448.108 1420.41 448.108 1420.41 448.108 1415.1 448.108 1415.1 448.108 1415.1 381.892 1415.1 381.892 1415.1 381.892 1415.1L381.892 1420.41ZM381.892 1441.63C448.108 1441.63 448.108 1441.63 448.108 1441.63 448.108 1436.33 448.108 1436.33 448.108 1436.33 381.892 1436.33 381.892 1436.33 381.892 1436.33L381.892 1441.63Z" fill="#F79A0B" fill-rule="evenodd"/><text fill="#F79A0B" font-family="Latha,Latha_MSFontService,sans-serif" font-weight="400" font-size="37" transform="translate(339.686 1562)">பக்கம்</text><text fill="#F79A0B" font-family="Arial,Arial_MSFontService,sans-serif" font-weight="400" font-size="37" transform="matrix(1 0 0 1 470.884 1562)">2</text><path d="M655.973 1370C573.027 1370 573.027 1370 573.027 1370 568.345 1370 565 1373.32 565 1377.96 565 1492.04 565 1492.04 565 1492.04 565 1496.68 568.345 1500 573.027 1500 623.865 1500 623.865 1500 623.865 1500 624.534 1500 625.203 1500 625.872 1499.34 663.331 1462.19 663.331 1462.19 663.331 1462.19 664 1461.53 664 1460.87 664 1460.2 664 1460.2 664 1460.2 664 1460.2 664 1377.96 664 1377.96 664 1377.96 664 1373.32 660.656 1370 655.973 1370ZM626.541 1490.71C626.541 1462.86 626.541 1462.86 626.541 1462.86 654.635 1462.86 654.635 1462.86 654.635 1462.86L626.541 1490.71ZM658.649 1457.55C623.865 1457.55 623.865 1457.55 623.865 1457.55 622.527 1457.55 621.189 1458.88 621.189 1460.2 621.189 1494.69 621.189 1494.69 621.189 1494.69 573.027 1494.69 573.027 1494.69 573.027 1494.69 571.689 1494.69 570.352 1493.37 570.352 1492.04 570.352 1377.96 570.352 1377.96 570.352 1377.96 570.352 1376.63 571.689 1375.31 573.027 1375.31 655.973 1375.31 655.973 1375.31 655.973 1375.31 657.311 1375.31 658.649 1376.63 658.649 1377.96L658.649 1457.55ZM581.054 1399.18C647.946 1399.18 647.946 1399.18 647.946 1399.18 647.946 1393.88 647.946 1393.88 647.946 1393.88 581.054 1393.88 581.054 1393.88 581.054 1393.88L581.054 1399.18ZM581.054 1420.41C647.946 1420.41 647.946 1420.41 647.946 1420.41 647.946 1415.1 647.946 1415.1 647.946 1415.1 581.054 1415.1 581.054 1415.1 581.054 1415.1L581.054 1420.41ZM581.054 1441.63C647.946 1441.63 647.946 1441.63 647.946 1441.63 647.946 1436.33 647.946 1436.33 647.946 1436.33 581.054 1436.33 581.054 1436.33 581.054 1436.33L581.054 1441.63Z" fill="#F79A0B" fill-rule="evenodd"/><text fill="#F79A0B" font-family="Latha,Latha_MSFontService,sans-serif" font-weight="400" font-size="37" transform="translate(551.758 1562)">பக்கம்</text><text fill="#F79A0B" font-family="Arial,Arial_MSFontService,sans-serif" font-weight="400" font-size="37" transform="matrix(1 0 0 1 682.956 1562)">3</text><path d="M838.054 1370C755.946 1370 755.946 1370 755.946 1370 751.311 1370 748 1373.32 748 1377.96 748 1492.04 748 1492.04 748 1492.04 748 1496.68 751.311 1500 755.946 1500 806.27 1500 806.27 1500 806.27 1500 806.932 1500 807.595 1500 808.257 1499.34 845.338 1462.19 845.338 1462.19 845.338 1462.19 846 1461.53 846 1460.87 846 1460.2 846 1460.2 846 1460.2 846 1460.2 846 1377.96 846 1377.96 846 1377.96 846 1373.32 842.689 1370 838.054 1370ZM808.919 1490.71C808.919 1462.86 808.919 1462.86 808.919 1462.86 836.73 1462.86 836.73 1462.86 836.73 1462.86L808.919 1490.71ZM840.703 1457.55C806.27 1457.55 806.27 1457.55 806.27 1457.55 804.946 1457.55 803.622 1458.88 803.622 1460.2 803.622 1494.69 803.622 1494.69 803.622 1494.69 755.946 1494.69 755.946 1494.69 755.946 1494.69 754.622 1494.69 753.297 1493.37 753.297 1492.04 753.297 1377.96 753.297 1377.96 753.297 1377.96 753.297 1376.63 754.622 1375.31 755.946 1375.31 838.054 1375.31 838.054 1375.31 838.054 1375.31 839.378 1375.31 840.703 1376.63 840.703 1377.96L840.703 1457.55ZM763.892 1399.18C830.108 1399.18 830.108 1399.18 830.108 1399.18 830.108 1393.88 830.108 1393.88 830.108 1393.88 763.892 1393.88 763.892 1393.88 763.892 1393.88L763.892 1399.18ZM763.892 1420.41C830.108 1420.41 830.108 1420.41 830.108 1420.41 830.108 1415.1 830.108 1415.1 830.108 1415.1 763.892 1415.1 763.892 1415.1 763.892 1415.1L763.892 1420.41ZM763.892 1441.63C830.108 1441.63 830.108 1441.63 830.108 1441.63 830.108 1436.33 830.108 1436.33 830.108 1436.33 763.892 1436.33 763.892 1436.33 763.892 1436.33L763.892 1441.63Z" fill="#F79A0B" fill-rule="evenodd"/><text fill="#F79A0B" font-family="Latha,Latha_MSFontService,sans-serif" font-weight="400" font-size="37" transform="translate(734.09 1562)">பக்கம்</text><text fill="#F79A0B" font-family="Arial,Arial_MSFontService,sans-serif" font-weight="400" font-size="37" transform="matrix(1 0 0 1 865.288 1562)">#</text><path d="M1476.5 1452.78 1765.84 1452.78 1765.84 1456.22 1476.5 1456.22ZM1761.26 1440.75 1788.76 1454.5 1761.26 1468.25Z" fill="#FC3204"/><path d="M2014.5 1452.78 2338.1 1452.78 2338.1 1456.22 2014.5 1456.22ZM2333.52 1440.75 2361.02 1454.5 2333.52 1468.25Z" fill="#FC3204"/><path d="M2586.5 1452.78 2910.1 1452.78 2910.1 1456.22 2586.5 1456.22ZM2905.52 1440.75 2933.02 1454.5 2905.52 1468.25Z" fill="#FC3204"/><g clip-path="url(#clip1)"><g clip-path="url(#clip2)"><g clip-path="url(#clip3)"><path d="M123.077 6.73077 229.665 68.2693 229.665 191.346 123.077 252.885 16.4891 191.346 16.4891 68.2693Z" fill="#FFFFFF" fill-rule="evenodd" transform="matrix(1 0 0 1.00148 1240.42 1324)"/><path d="M14.8059 69.6147 123.632 130.505 125.04 127.988 16.2144 67.0974Z" fill="#E6E6E6" transform="matrix(1 0 0 1.00148 1240.42 1324)"/><path d="M230.353 65.6674 122.717 128.185 124.165 130.679 231.802 68.1618Z" fill="#E6E6E6" transform="matrix(1 0 0 1.00148 1240.42 1324)"/><path d="M122.607 127.349 121.814 252.892 124.698 252.91 125.491 127.367Z" fill="#E6E6E6" transform="matrix(1 0 0 1.00148 1240.42 1324)"/><path d="M123.077 6.73077 16.4891 68.2693 16.4891 191.346 123.077 252.885 229.665 191.346 229.665 68.2693 123.077 6.73077ZM123.077 0.0690354 235.434 64.9384 235.434 194.677 123.077 259.546 10.7199 194.677 10.7199 64.9384 123.077 0.0690354Z" fill="#38A9F7" transform="matrix(1 0 0 1.00148 1240.42 1324)"/><path d="M32.312 100.366 31.4044 98.6712 27.1195 100.965 31.0507 107.048 32.6658 106.004 29.8681 101.675Z" transform="matrix(1 0 0 1.00148 1240.42 1324)"/><path d="M51.0148 108.472 49.3665 107.481 45.4294 114.032 49.8193 115.87 50.5621 114.096 48.223 113.117Z" transform="matrix(-1 0 0 1.00148 1336.87 1324)"/><path d="M35.4256 106.33 42.6642 110.839 43.6808 109.206 36.4422 104.698Z" transform="matrix(1 0 0 1.00148 1240.42 1324)"/><path d="M31.6793 178.832 30.7717 177.137 26.4867 179.431 30.4179 185.514 32.033 184.469 29.2353 180.141Z" transform="matrix(1 0 0 1.00148 1240.42 1324)"/><path d="M33.6269 188.407 37.9722 182.086 36.3874 180.996 32.0422 187.317Z" transform="matrix(1 0 0 1.00148 1240.42 1324)"/><path d="M43.4213 183.773 41.773 182.783 37.836 189.334 42.2258 191.172 42.9686 189.398 40.6295 188.418Z" transform="matrix(-1 0 0 1.00148 1321.68 1324)"/><path d="M27.7303 113.786 79.183 143.387 80.6215 140.887 29.1688 111.286Z" fill="#529BDB" transform="matrix(1 0 0 1.00148 1240.42 1324)"/><path d="M27.7406 126.447 106.548 170.929 107.966 168.417 29.1585 123.935Z" fill="#529BDB" transform="matrix(1 0 0 1.00148 1240.42 1324)"/><path d="M27.7406 137.838 106.548 182.319 107.966 179.808 29.1585 135.325Z" fill="#529BDB" transform="matrix(1 0 0 1.00148 1240.42 1324)"/><path d="M27.7368 147.96 60.3512 166.498 61.7767 163.99 29.1622 145.452Z" fill="#529BDB" transform="matrix(1 0 0 1.00148 1240.42 1324)"/><path d="M27.7368 157.452 92.6232 194.341 94.0488 191.833 29.1623 154.944Z" fill="#529BDB" transform="matrix(1 0 0 1.00148 1240.42 1324)"/><path d="M27.7561 166.954 47.7147 177.898 49.1017 175.369 29.143 164.425Z" fill="#529BDB" transform="matrix(1 0 0 1.00148 1240.42 1324)"/><path d="M39.9944 14.6365 42.7358 12.8271C44.6735 11.5252 46.275 12.6473 46.2952 15.3389L46.5522 49.55C46.5724 52.248 44.9963 55.6792 43.0488 57.1457L3.59249 80.3551C1.61724 81.2008 0 79.6119 0 76.851L1.4114e-14 41.7941C1.41059e-14 39.0323 1.60188 36.0361 3.5595 35.1186L6.3253 33.7913C6.31979 1.24802 39.7787-12.9147 39.9944 14.6365ZM34.0646 18.4191C33.8814-6.51987 12.2746 10.7897 12.2953 30.8009L34.0646 18.4191Z" fill="#38A9F7" fill-rule="evenodd" transform="matrix(1 0 0 1.00148 1395.46 1453.05)"/><path d="M20.03 46.8604C20.0189 43.8247 21.7112 40.4128 23.8089 39.2168 25.9052 37.9955 27.6157 39.4375 27.6305 42.4611 27.6394 44.2983 27.0195 46.3029 26.0606 47.8733L26.0889 53.9835C26.097 55.7591 25.0864 57.8057 23.831 58.5448 22.5751 59.2729 21.5511 58.4124 21.5441 56.6328L21.5197 50.3786C20.6192 49.8774 20.0365 48.6271 20.03 46.8604Z" fill="#177FE6" fill-rule="evenodd" transform="matrix(1 0 0 1.00148 1395.46 1453.05)"/></g></g></g><g clip-path="url(#clip4)"><g clip-path="url(#clip5)"><g clip-path="url(#clip6)"><path d="M39.6215 31.8659C43.5125 29.7673 45.471 26.4974 45.471 22.1058 45.471 15.4216 41.7727 10.7296 33.2481 9.66524L33.2481 2.23059 25.5145 2.23059 25.5145 9.29823C24.2815 9.28689 23.7257 9.28944 19.6006 9.28944L19.6006 2.23059 11.867 2.23059 11.867 9.2894 3.66993 9.2894 3.66993 57.6956 11.867 57.6956 11.867 64.7546 19.6006 64.7546 19.6006 57.6956C25.558 57.6956 25.219 57.696 25.5145 57.6953L25.5145 64.7546 33.2482 64.7546 33.2482 57.4108C42.4363 56.5245 47.1471 51.1814 47.1471 43.1705 47.1471 37.4268 44.8485 33.7423 39.6215 31.8659ZM31.0115 24.439C31.0115 29.4559 26.5056 28.6126 18.7538 28.6126L18.7538 20.2655C27.3993 20.2655 31.0115 19.7825 31.0115 24.439ZM18.7538 46.3913 18.7538 37.4525C27.3485 37.4525 32.556 36.6183 32.556 41.8888 32.556 47.3174 27.1408 46.3913 18.7538 46.3913Z" fill="#7F7F7F" transform="matrix(1.0036 0 0 1 1341 1348.01)"/></g></g></g><text fill="#204497" font-family="Latha,Latha_MSFontService,sans-serif" font-weight="400" font-size="37" transform="translate(1300.36 1622)">கட்டம் <tspan font-size="37" x="154.688" y="0">1</tspan></text><g clip-path="url(#clip7)"><g clip-path="url(#clip8)"><g clip-path="url(#clip9)"><path d="M123.077 6.73077 229.665 68.2693 229.665 191.346 123.077 252.885 16.4891 191.346 16.4891 68.2693Z" fill="#FFFFFF" fill-rule="evenodd" transform="matrix(1 0 0 1.00148 1778.42 1324)"/><path d="M14.8059 69.6147 123.632 130.505 125.04 127.988 16.2144 67.0974Z" fill="#E6E6E6" transform="matrix(1 0 0 1.00148 1778.42 1324)"/><path d="M230.353 65.6674 122.717 128.185 124.165 130.679 231.802 68.1618Z" fill="#E6E6E6" transform="matrix(1 0 0 1.00148 1778.42 1324)"/><path d="M122.607 127.349 121.814 252.892 124.698 252.91 125.491 127.367Z" fill="#E6E6E6" transform="matrix(1 0 0 1.00148 1778.42 1324)"/><path d="M123.077 6.73077 16.4891 68.2693 16.4891 191.346 123.077 252.885 229.665 191.346 229.665 68.2693 123.077 6.73077ZM123.077 0.0690354 235.434 64.9384 235.434 194.677 123.077 259.546 10.7199 194.677 10.7199 64.9384 123.077 0.0690354Z" fill="#38A9F7" transform="matrix(1 0 0 1.00148 1778.42 1324)"/><path d="M32.312 100.366 31.4044 98.6712 27.1195 100.965 31.0507 107.048 32.6658 106.004 29.8681 101.675Z" transform="matrix(1 0 0 1.00148 1778.42 1324)"/><path d="M51.0148 108.472 49.3665 107.481 45.4294 114.032 49.8193 115.87 50.5621 114.096 48.223 113.117Z" transform="matrix(-1 0 0 1.00148 1874.87 1324)"/><path d="M35.4256 106.33 42.6642 110.839 43.6808 109.206 36.4422 104.698Z" transform="matrix(1 0 0 1.00148 1778.42 1324)"/><path d="M31.6793 178.832 30.7717 177.137 26.4867 179.431 30.4179 185.514 32.033 184.469 29.2353 180.141Z" transform="matrix(1 0 0 1.00148 1778.42 1324)"/><path d="M33.6269 188.407 37.9722 182.086 36.3874 180.996 32.0422 187.317Z" transform="matrix(1 0 0 1.00148 1778.42 1324)"/><path d="M43.4213 183.773 41.773 182.783 37.836 189.334 42.2258 191.172 42.9686 189.398 40.6295 188.418Z" transform="matrix(-1 0 0 1.00148 1859.68 1324)"/><path d="M27.7303 113.786 79.183 143.387 80.6215 140.887 29.1688 111.286Z" fill="#529BDB" transform="matrix(1 0 0 1.00148 1778.42 1324)"/><path d="M27.7406 126.447 106.548 170.929 107.966 168.417 29.1585 123.935Z" fill="#529BDB" transform="matrix(1 0 0 1.00148 1778.42 1324)"/><path d="M27.7406 137.838 106.548 182.319 107.966 179.808 29.1585 135.325Z" fill="#529BDB" transform="matrix(1 0 0 1.00148 1778.42 1324)"/><path d="M27.7368 147.96 60.3512 166.498 61.7767 163.99 29.1622 145.452Z" fill="#529BDB" transform="matrix(1 0 0 1.00148 1778.42 1324)"/><path d="M27.7368 157.452 92.6232 194.341 94.0488 191.833 29.1623 154.944Z" fill="#529BDB" transform="matrix(1 0 0 1.00148 1778.42 1324)"/><path d="M27.7561 166.954 47.7147 177.898 49.1017 175.369 29.143 164.425Z" fill="#529BDB" transform="matrix(1 0 0 1.00148 1778.42 1324)"/><path d="M39.9944 14.6365 42.7358 12.8271C44.6735 11.5252 46.275 12.6473 46.2952 15.3389L46.5522 49.55C46.5724 52.248 44.9963 55.6792 43.0488 57.1457L3.59249 80.3551C1.61724 81.2008 0 79.6119 0 76.851L1.4114e-14 41.7941C1.41059e-14 39.0323 1.60188 36.0361 3.5595 35.1186L6.3253 33.7913C6.31979 1.24802 39.7787-12.9147 39.9944 14.6365ZM34.0646 18.4191C33.8814-6.51987 12.2746 10.7897 12.2953 30.8009L34.0646 18.4191Z" fill="#38A9F7" fill-rule="evenodd" transform="matrix(1 0 0 1.00148 1933.46 1453.05)"/><path d="M20.03 46.8604C20.0189 43.8247 21.7112 40.4128 23.8089 39.2168 25.9052 37.9955 27.6157 39.4375 27.6305 42.4611 27.6394 44.2983 27.0195 46.3029 26.0606 47.8733L26.0889 53.9835C26.097 55.7591 25.0864 57.8057 23.831 58.5448 22.5751 59.2729 21.5511 58.4124 21.5441 56.6328L21.5197 50.3786C20.6192 49.8774 20.0365 48.6271 20.03 46.8604Z" fill="#177FE6" fill-rule="evenodd" transform="matrix(1 0 0 1.00148 1933.46 1453.05)"/></g></g></g><g clip-path="url(#clip10)"><g clip-path="url(#clip11)"><g clip-path="url(#clip12)"><path d="M39.6215 31.8659C43.5125 29.7673 45.471 26.4974 45.471 22.1058 45.471 15.4216 41.7727 10.7296 33.2481 9.66524L33.2481 2.23059 25.5145 2.23059 25.5145 9.29823C24.2815 9.28689 23.7257 9.28944 19.6006 9.28944L19.6006 2.23059 11.867 2.23059 11.867 9.2894 3.66993 9.2894 3.66993 57.6956 11.867 57.6956 11.867 64.7546 19.6006 64.7546 19.6006 57.6956C25.558 57.6956 25.219 57.696 25.5145 57.6953L25.5145 64.7546 33.2482 64.7546 33.2482 57.4108C42.4363 56.5245 47.1471 51.1814 47.1471 43.1705 47.1471 37.4268 44.8485 33.7423 39.6215 31.8659ZM31.0115 24.439C31.0115 29.4559 26.5056 28.6126 18.7538 28.6126L18.7538 20.2655C27.3993 20.2655 31.0115 19.7825 31.0115 24.439ZM18.7538 46.3913 18.7538 37.4525C27.3485 37.4525 32.556 36.6183 32.556 41.8888 32.556 47.3174 27.1408 46.3913 18.7538 46.3913Z" fill="#7F7F7F" transform="matrix(1.00361 0 0 1 1878 1348.01)"/></g></g></g><text fill="#204497" font-family="Latha,Latha_MSFontService,sans-serif" font-weight="400" font-size="37" transform="translate(1841.71 1622)">கட்டம் </text><text fill="#204497" font-family="Arial,Arial_MSFontService,sans-serif" font-weight="400" font-size="37" transform="matrix(1 0 0 1 1996.4 1622)">2</text><g clip-path="url(#clip13)"><g clip-path="url(#clip14)"><g clip-path="url(#clip15)"><path d="M123.259 6.74074 230.005 68.3703 230.005 191.63 123.259 253.259 16.5136 191.63 16.5136 68.3703Z" fill="#FFFFFF" fill-rule="evenodd" transform="matrix(1.00296 0 0 1 2349.38 1324)"/><path d="M14.8278 69.7177 123.815 130.698 125.225 128.177 16.2384 67.1967Z" fill="#E6E6E6" transform="matrix(1.00296 0 0 1 2349.38 1324)"/><path d="M230.694 65.7646 122.899 128.374 124.349 130.872 232.145 68.2627Z" fill="#E6E6E6" transform="matrix(1.00296 0 0 1 2349.38 1324)"/><path d="M122.788 127.538 121.994 253.266 124.883 253.284 125.677 127.556Z" fill="#E6E6E6" transform="matrix(1.00296 0 0 1 2349.38 1324)"/><path d="M123.259 6.74074 16.5136 68.3703 16.5136 191.63 123.259 253.259 230.005 191.63 230.005 68.3703 123.259 6.74074ZM123.259 0.0691376 235.782 65.0345 235.782 194.965 123.259 259.931 10.7358 194.965 10.7358 65.0345 123.259 0.0691376Z" fill="#38A9F7" transform="matrix(1.00296 0 0 1 2349.38 1324)"/><path d="M32.3599 100.515 31.4509 98.8173 27.1597 101.115 31.0967 107.207 32.7141 106.161 29.9123 101.826Z" transform="matrix(1.00296 0 0 1 2349.38 1324)"/><path d="M51.0903 108.633 49.4395 107.64 45.4966 114.201 49.893 116.042 50.6369 114.265 48.2944 113.285Z" transform="matrix(-1.00296 0 0 1 2446.25 1324)"/><path d="M35.478 106.487 42.7273 111.003 43.7455 109.367 36.4962 104.853Z" transform="matrix(1.00296 0 0 1 2349.38 1324)"/><path d="M31.7261 179.097 30.8172 177.399 26.526 179.697 30.4629 185.788 32.0804 184.742 29.2786 180.407Z" transform="matrix(1.00296 0 0 1 2349.38 1324)"/><path d="M33.6767 188.686 38.0284 182.355 36.4413 181.264 32.0897 187.595Z" transform="matrix(1.00296 0 0 1 2349.38 1324)"/><path d="M43.4856 184.045 41.8348 183.053 37.892 189.614 42.2883 191.455 43.0322 189.679 40.6897 188.697Z" transform="matrix(-1.00296 0 0 1 2430.99 1324)"/><path d="M27.7714 113.954 79.3002 143.599 80.7408 141.095 29.2119 111.45Z" fill="#529BDB" transform="matrix(1.00296 0 0 1 2349.38 1324)"/><path d="M27.7817 126.634 106.706 171.182 108.126 168.667 29.2016 124.118Z" fill="#529BDB" transform="matrix(1.00296 0 0 1 2349.38 1324)"/><path d="M27.7817 138.042 106.706 182.589 108.126 180.074 29.2016 135.525Z" fill="#529BDB" transform="matrix(1.00296 0 0 1 2349.38 1324)"/><path d="M27.7779 148.179 60.4405 166.745 61.8681 164.232 29.2054 145.667Z" fill="#529BDB" transform="matrix(1.00296 0 0 1 2349.38 1324)"/><path d="M27.7778 157.685 92.7603 194.628 94.188 192.117 29.2055 155.174Z" fill="#529BDB" transform="matrix(1.00296 0 0 1 2349.38 1324)"/><path d="M27.7972 167.201 47.7854 178.162 49.1744 175.629 29.1861 164.669Z" fill="#529BDB" transform="matrix(1.00296 0 0 1 2349.38 1324)"/><path d="M40.0536 14.6581 42.7991 12.8461C44.7396 11.5423 46.3435 12.666 46.3638 15.3616L46.6212 49.6234C46.6414 52.3254 45.0629 55.7616 43.1125 57.2303L3.59781 80.4741C1.61964 81.321 0 79.7297 0 76.9648L1.41348e-14 41.8559C1.41268e-14 39.0901 1.60425 36.0894 3.56477 35.1706L6.33467 33.8413C6.32915 1.24987 39.8376-12.9338 40.0536 14.6581ZM34.1151 18.4464C33.9315-6.52952 12.2928 10.8057 12.3135 30.8465L34.1151 18.4464Z" fill="#38A9F7" fill-rule="evenodd" transform="matrix(1.00296 0 0 1 2505.1 1453.05)"/><path d="M20.0597 46.9298C20.0485 43.8896 21.7433 40.4726 23.8441 39.2748 25.9436 38.0518 27.6566 39.4959 27.6714 42.5239 27.6804 44.3639 27.0595 46.3715 26.0992 47.9442L26.1275 54.0634C26.1357 55.8416 25.1235 57.8913 23.8663 58.6315 22.6085 59.3607 21.583 58.4989 21.5759 56.7167L21.5516 50.4532C20.6498 49.9513 20.0661 48.699 20.0597 46.9298Z" fill="#177FE6" fill-rule="evenodd" transform="matrix(1.00296 0 0 1 2505.1 1453.05)"/></g></g></g><g clip-path="url(#clip16)"><g clip-path="url(#clip17)"><g clip-path="url(#clip18)"><path d="M39.6215 31.8659C43.5125 29.7673 45.471 26.4974 45.471 22.1058 45.471 15.4216 41.7727 10.7296 33.2481 9.66524L33.2481 2.23059 25.5145 2.23059 25.5145 9.29823C24.2815 9.28689 23.7257 9.28944 19.6006 9.28944L19.6006 2.23059 11.867 2.23059 11.867 9.2894 3.66993 9.2894 3.66993 57.6956 11.867 57.6956 11.867 64.7546 19.6006 64.7546 19.6006 57.6956C25.558 57.6956 25.219 57.696 25.5145 57.6953L25.5145 64.7546 33.2482 64.7546 33.2482 57.4108C42.4363 56.5245 47.1471 51.1814 47.1471 43.1705 47.1471 37.4268 44.8485 33.7423 39.6215 31.8659ZM31.0115 24.439C31.0115 29.4559 26.5056 28.6126 18.7538 28.6126L18.7538 20.2655C27.3993 20.2655 31.0115 19.7825 31.0115 24.439ZM18.7538 46.3913 18.7538 37.4525C27.3485 37.4525 32.556 36.6183 32.556 41.8888 32.556 47.3174 27.1408 46.3913 18.7538 46.3913Z" fill="#7F7F7F" transform="matrix(1.00361 0 0 1 2450 1348.01)"/></g></g></g><text fill="#204497" font-family="Latha,Latha_MSFontService,sans-serif" font-weight="400" font-size="37" transform="translate(2411.52 1622)">கட்டம் </text><text fill="#204497" font-family="Arial,Arial_MSFontService,sans-serif" font-weight="400" font-size="37" transform="matrix(1 0 0 1 2566.2 1622)">3</text><g clip-path="url(#clip19)"><g clip-path="url(#clip20)"><g clip-path="url(#clip21)"><path d="M123.077 6.73077 229.665 68.2693 229.665 191.346 123.077 252.885 16.4891 191.346 16.4891 68.2693Z" fill="#FFFFFF" fill-rule="evenodd" transform="matrix(1 0 0 1.00148 2921.42 1324)"/><path d="M14.8059 69.6147 123.632 130.505 125.04 127.988 16.2144 67.0974Z" fill="#E6E6E6" transform="matrix(1 0 0 1.00148 2921.42 1324)"/><path d="M230.353 65.6674 122.717 128.185 124.165 130.679 231.802 68.1618Z" fill="#E6E6E6" transform="matrix(1 0 0 1.00148 2921.42 1324)"/><path d="M122.607 127.349 121.814 252.892 124.698 252.91 125.491 127.367Z" fill="#E6E6E6" transform="matrix(1 0 0 1.00148 2921.42 1324)"/><path d="M123.077 6.73077 16.4891 68.2693 16.4891 191.346 123.077 252.885 229.665 191.346 229.665 68.2693 123.077 6.73077ZM123.077 0.0690354 235.434 64.9384 235.434 194.677 123.077 259.546 10.7199 194.677 10.7199 64.9384 123.077 0.0690354Z" fill="#38A9F7" transform="matrix(1 0 0 1.00148 2921.42 1324)"/><path d="M32.312 100.366 31.4044 98.6712 27.1195 100.965 31.0507 107.048 32.6658 106.004 29.8681 101.675Z" transform="matrix(1 0 0 1.00148 2921.42 1324)"/><path d="M51.0148 108.472 49.3665 107.481 45.4294 114.032 49.8193 115.87 50.5621 114.096 48.223 113.117Z" transform="matrix(-1 0 0 1.00148 3017.87 1324)"/><path d="M35.4256 106.33 42.6642 110.839 43.6808 109.206 36.4422 104.698Z" transform="matrix(1 0 0 1.00148 2921.42 1324)"/><path d="M31.6793 178.832 30.7717 177.137 26.4867 179.431 30.4179 185.514 32.033 184.469 29.2353 180.141Z" transform="matrix(1 0 0 1.00148 2921.42 1324)"/><path d="M33.6269 188.407 37.9722 182.086 36.3874 180.996 32.0422 187.317Z" transform="matrix(1 0 0 1.00148 2921.42 1324)"/><path d="M43.4213 183.773 41.773 182.783 37.836 189.334 42.2258 191.172 42.9686 189.398 40.6295 188.418Z" transform="matrix(-1 0 0 1.00148 3002.68 1324)"/><path d="M27.7303 113.786 79.183 143.387 80.6215 140.887 29.1688 111.286Z" fill="#529BDB" transform="matrix(1 0 0 1.00148 2921.42 1324)"/><path d="M27.7406 126.447 106.548 170.929 107.966 168.417 29.1585 123.935Z" fill="#529BDB" transform="matrix(1 0 0 1.00148 2921.42 1324)"/><path d="M27.7406 137.838 106.548 182.319 107.966 179.808 29.1585 135.325Z" fill="#529BDB" transform="matrix(1 0 0 1.00148 2921.42 1324)"/><path d="M27.7368 147.96 60.3512 166.498 61.7767 163.99 29.1622 145.452Z" fill="#529BDB" transform="matrix(1 0 0 1.00148 2921.42 1324)"/><path d="M27.7368 157.452 92.6232 194.341 94.0488 191.833 29.1623 154.944Z" fill="#529BDB" transform="matrix(1 0 0 1.00148 2921.42 1324)"/><path d="M27.7561 166.954 47.7147 177.898 49.1017 175.369 29.143 164.425Z" fill="#529BDB" transform="matrix(1 0 0 1.00148 2921.42 1324)"/><path d="M39.9944 14.6365 42.7358 12.8271C44.6735 11.5252 46.275 12.6473 46.2952 15.3389L46.5522 49.55C46.5724 52.248 44.9963 55.6792 43.0488 57.1457L3.59249 80.3551C1.61724 81.2008 0 79.6119 0 76.851L1.4114e-14 41.7941C1.41059e-14 39.0323 1.60188 36.0361 3.5595 35.1186L6.3253 33.7913C6.31979 1.24802 39.7787-12.9147 39.9944 14.6365ZM34.0646 18.4191C33.8814-6.51987 12.2746 10.7897 12.2953 30.8009L34.0646 18.4191Z" fill="#38A9F7" fill-rule="evenodd" transform="matrix(1 0 0 1.00148 3076.46 1453.05)"/><path d="M20.03 46.8604C20.0189 43.8247 21.7112 40.4128 23.8089 39.2168 25.9052 37.9955 27.6157 39.4375 27.6305 42.4611 27.6394 44.2983 27.0195 46.3029 26.0606 47.8733L26.0889 53.9835C26.097 55.7591 25.0864 57.8057 23.831 58.5448 22.5751 59.2729 21.5511 58.4124 21.5441 56.6328L21.5197 50.3786C20.6192 49.8774 20.0365 48.6271 20.03 46.8604Z" fill="#177FE6" fill-rule="evenodd" transform="matrix(1 0 0 1.00148 3076.46 1453.05)"/></g></g></g><g clip-path="url(#clip22)"><g clip-path="url(#clip23)"><g clip-path="url(#clip24)"><path d="M39.6215 31.8659C43.5125 29.7673 45.471 26.4974 45.471 22.1058 45.471 15.4216 41.7727 10.7296 33.2481 9.66524L33.2481 2.23059 25.5145 2.23059 25.5145 9.29823C24.2815 9.28689 23.7257 9.28944 19.6006 9.28944L19.6006 2.23059 11.867 2.23059 11.867 9.2894 3.66993 9.2894 3.66993 57.6956 11.867 57.6956 11.867 64.7546 19.6006 64.7546 19.6006 57.6956C25.558 57.6956 25.219 57.696 25.5145 57.6953L25.5145 64.7546 33.2482 64.7546 33.2482 57.4108C42.4363 56.5245 47.1471 51.1814 47.1471 43.1705 47.1471 37.4268 44.8485 33.7423 39.6215 31.8659ZM31.0115 24.439C31.0115 29.4559 26.5056 28.6126 18.7538 28.6126L18.7538 20.2655C27.3993 20.2655 31.0115 19.7825 31.0115 24.439ZM18.7538 46.3913 18.7538 37.4525C27.3485 37.4525 32.556 36.6183 32.556 41.8888 32.556 47.3174 27.1408 46.3913 18.7538 46.3913Z" fill="#7F7F7F" transform="matrix(1.00361 0 0 1 3022 1348.01)"/></g></g></g><text fill="#204497" font-family="Latha,Latha_MSFontService,sans-serif" font-weight="400" font-size="37" transform="translate(2993.22 1622)">கட்டம் </text><text fill="#204497" font-family="Arial,Arial_MSFontService,sans-serif" font-weight="400" font-size="37" transform="matrix(1 0 0 1 3147.91 1622)">#</text></g></svg>