<svg width="3265" height="1413" xmlns="http://www.w3.org/2000/svg" xmlns:xlink="http://www.w3.org/1999/xlink" xml:space="preserve" overflow="hidden"><defs><clipPath id="clip0"><rect x="43" y="304" width="3265" height="1413"/></clipPath><linearGradient x1="1528.02" y1="504.642" x2="1554.98" y2="559.357" gradientUnits="userSpaceOnUse" spreadMethod="reflect" id="fill1"><stop offset="0" stop-color="#959ECD"/><stop offset="0.5" stop-color="#C0C4DF"/><stop offset="1" stop-color="#E0E3EF"/></linearGradient><linearGradient x1="258.4" y1="1381.3" x2="305.6" y2="1475.7" gradientUnits="userSpaceOnUse" spreadMethod="reflect" id="fill2"><stop offset="0" stop-color="#959ECD"/><stop offset="0.5" stop-color="#C0C4DF"/><stop offset="1" stop-color="#E0E3EF"/></linearGradient><linearGradient x1="2476.62" y1="1358.34" x2="2520.38" y2="1446.66" gradientUnits="userSpaceOnUse" spreadMethod="reflect" id="fill3"><stop offset="0" stop-color="#959ECD"/><stop offset="0.5" stop-color="#C0C4DF"/><stop offset="1" stop-color="#E0E3EF"/></linearGradient><linearGradient x1="774.78" y1="794.461" x2="822.22" y2="888.539" gradientUnits="userSpaceOnUse" spreadMethod="reflect" id="fill4"><stop offset="0" stop-color="#959ECD"/><stop offset="0.5" stop-color="#C0C4DF"/><stop offset="1" stop-color="#E0E3EF"/></linearGradient><clipPath id="clip5"><rect x="334" y="324" width="35" height="53"/></clipPath><clipPath id="clip6"><rect x="334" y="324" width="35" height="53"/></clipPath><clipPath id="clip7"><rect x="334" y="324" width="35" height="53"/></clipPath></defs><g clip-path="url(#clip0)" transform="translate(-43 -304)"><path d="M1507 530 1541 548.372 1541 592 1507 573.675 1507 530Z" fill="#204497" fill-rule="evenodd"/><path d="M1576 532 1576 575.544 1541 592 1541 548.48 1576 532Z" fill="#204497" fill-rule="evenodd"/><path d="M1541.52 515 1576 532.902 1541.52 549 1507 531.098 1541.52 515Z" fill="url(#fill1)" fill-rule="evenodd"/><path d="M1322.6 575.693 1322.6 587.216 1334.19 587.216 1334.19 575.693 1322.6 575.693ZM1311 569.864 1427 569.864 1427 593 1311 593 1311 569.864ZM1322.6 546.75 1322.6 558.295 1334.19 558.295 1334.19 546.75 1322.6 546.75ZM1311 540.92 1427 540.92 1427 564.079 1311 564.079 1311 540.92ZM1322.6 517.806 1322.6 529.352 1334.19 529.352 1334.19 517.806 1322.6 517.806ZM1311 512 1427 512 1427 535.136 1311 535.136 1311 512Z" fill="#948F8C" fill-rule="evenodd"/><path d="M1667.5 575.693 1667.5 587.216 1678.99 587.216 1678.99 575.693 1667.5 575.693ZM1656 569.864 1771 569.864 1771 593 1656 593 1656 569.864ZM1667.5 546.75 1667.5 558.295 1678.99 558.295 1678.99 546.75 1667.5 546.75ZM1656 540.92 1771 540.92 1771 564.079 1656 564.079 1656 540.92ZM1667.5 517.806 1667.5 529.352 1678.99 529.352 1678.99 517.806 1667.5 517.806ZM1656 512 1771 512 1771 535.136 1656 535.136 1656 512Z" fill="#948F8C" fill-rule="evenodd"/><path d="M1501.5 414.693 1501.5 426.216 1512.99 426.216 1512.99 414.693 1501.5 414.693ZM1490 408.864 1605 408.864 1605 432 1490 432 1490 408.864ZM1501.5 385.75 1501.5 397.295 1512.99 397.295 1512.99 385.75 1501.5 385.75ZM1490 379.921 1605 379.921 1605 403.08 1490 403.08 1490 379.921ZM1501.5 356.807 1501.5 368.352 1512.99 368.352 1512.99 356.807 1501.5 356.807ZM1490 351 1605 351 1605 374.136 1490 374.136 1490 351Z" fill="#948F8C" fill-rule="evenodd"/><path d="M1501.5 736.693 1501.5 748.216 1512.99 748.216 1512.99 736.693 1501.5 736.693ZM1490 730.863 1605 730.863 1605 754 1490 754 1490 730.863ZM1501.5 707.75 1501.5 719.295 1512.99 719.295 1512.99 707.75 1501.5 707.75ZM1490 701.921 1605 701.921 1605 725.079 1490 725.079 1490 701.921ZM1501.5 678.807 1501.5 690.352 1512.99 690.352 1512.99 678.807 1501.5 678.807ZM1490 673 1605 673 1605 696.136 1490 696.136 1490 673Z" fill="#948F8C" fill-rule="evenodd"/><path d="M1541.9 459 1545.71 459.154 1549.58 459.616 1553.29 460.438 1556.95 461.619 1560.46 463.159 1563.82 464.905 1567.08 466.959 1570.19 469.373 1573 471.992 1567.78 477.487 1565.12 474.97 1562.22 472.762 1559.16 470.914 1555.95 469.373 1552.54 468.141 1549.12 467.319 1545.51 466.754 1541.9 466.6 1538.09 466.754 1534.48 467.319 1530.87 468.243 1527.46 469.527 1524.15 471.17 1521.04 473.122 1518.08 475.433 1515.37 478 1510 472.762 1512.91 469.938 1516.02 467.422 1519.33 465.214 1522.79 463.365 1526.35 461.773 1530.11 460.592 1533.93 459.719 1537.89 459.154 1541.9 459Z" fill="#CCCCCC" fill-rule="evenodd"/><path d="M1541.22 472 1544.52 472.247 1547.82 472.742 1550.91 473.632 1553.91 474.869 1556.81 476.403 1559.5 478.283 1562 480.41 1556.81 485.654 1554.61 483.823 1552.26 482.191 1549.61 481.004 1546.92 480.064 1544.12 479.569 1541.22 479.371 1538.68 479.47 1536.18 479.965 1533.78 480.608 1531.39 481.597 1529.24 482.834 1527.19 484.269 1525.29 486 1520 480.954 1522.2 478.876 1524.54 477.145 1527.04 475.611 1529.74 474.375 1532.49 473.336 1535.33 472.643 1538.28 472.247 1541.22 472Z" fill="#CCCCCC" fill-rule="evenodd"/><path d="M1541.57 484 1543.67 484.145 1545.72 484.629 1547.63 485.355 1549.34 486.468 1551 487.774 1545.92 492.903 1544.99 492.129 1543.97 491.597 1542.79 491.21 1541.57 491.161 1540.35 491.306 1539.23 491.597 1538.11 492.177 1537.18 493 1532 487.968 1533.61 486.613 1535.42 485.5 1537.37 484.629 1539.47 484.145 1541.57 484Z" fill="#CCCCCC" fill-rule="evenodd"/><path d="M1541.1 646 1537.29 645.854 1533.42 645.416 1529.71 644.638 1526.05 643.519 1522.54 642.059 1519.18 640.405 1515.92 638.459 1512.81 636.173 1510 633.692 1515.22 628.487 1517.88 630.87 1520.78 632.962 1523.84 634.714 1527.05 636.173 1530.47 637.34 1533.88 638.119 1537.49 638.654 1541.1 638.8 1544.91 638.654 1548.52 638.119 1552.13 637.243 1555.54 636.027 1558.86 634.47 1561.96 632.622 1564.92 630.432 1567.63 628 1573 632.962 1570.09 635.638 1566.98 638.022 1563.67 640.113 1560.21 641.865 1556.65 643.373 1552.89 644.492 1549.07 645.319 1545.11 645.854 1541.1 646Z" fill="#CCCCCC" fill-rule="evenodd"/><path d="M1540.78 634 1537.48 633.753 1534.18 633.258 1531.09 632.367 1528.09 631.131 1525.19 629.597 1522.5 627.717 1520 625.59 1525.19 620.346 1527.39 622.177 1529.74 623.809 1532.39 624.997 1535.08 625.936 1537.88 626.431 1540.78 626.629 1543.32 626.53 1545.82 626.035 1548.22 625.392 1550.61 624.403 1552.76 623.166 1554.81 621.732 1556.71 620 1562 625.046 1559.8 627.124 1557.46 628.855 1554.96 630.389 1552.26 631.625 1549.51 632.664 1546.67 633.357 1543.72 633.753 1540.78 634Z" fill="#CCCCCC" fill-rule="evenodd"/><path d="M1541.43 622 1539.33 621.839 1537.28 621.301 1535.37 620.494 1533.66 619.258 1532 617.806 1537.08 612.107 1538.01 612.968 1539.03 613.559 1540.21 613.989 1541.43 614.043 1542.65 613.882 1543.77 613.559 1544.89 612.914 1545.82 612 1551 617.591 1549.39 619.097 1547.58 620.333 1545.63 621.301 1543.53 621.839 1541.43 622Z" fill="#CCCCCC" fill-rule="evenodd"/><path d="M1635 552.901 1634.85 556.713 1634.38 560.576 1633.56 564.287 1632.38 567.949 1630.84 571.46 1629.09 574.821 1627.04 578.081 1624.63 581.191 1622.01 584 1616.51 578.783 1619.03 576.125 1621.24 573.216 1623.09 570.156 1624.63 566.946 1625.86 563.535 1626.68 560.124 1627.25 556.513 1627.4 552.901 1627.25 549.089 1626.68 545.478 1625.76 541.866 1624.47 538.456 1622.83 535.145 1620.88 532.035 1618.57 529.076 1616 526.367 1621.24 521 1624.06 523.909 1626.58 527.019 1628.79 530.33 1630.64 533.791 1632.23 537.352 1633.41 541.114 1634.28 544.926 1634.85 548.889 1635 552.901Z" fill="#CCCCCC" fill-rule="evenodd"/><path d="M1622 553.225 1621.75 556.521 1621.26 559.817 1620.37 562.913 1619.13 565.91 1617.6 568.806 1615.72 571.503 1613.59 574 1608.35 568.806 1610.18 566.609 1611.81 564.261 1613 561.615 1613.94 558.918 1614.43 556.121 1614.63 553.225 1614.53 550.678 1614.04 548.181 1613.39 545.784 1612.4 543.386 1611.17 541.239 1609.73 539.191 1608 537.294 1613.05 532 1615.12 534.197 1616.86 536.544 1618.39 539.042 1619.63 541.738 1620.66 544.485 1621.36 547.332 1621.75 550.278 1622 553.225Z" fill="#CCCCCC" fill-rule="evenodd"/><path d="M1610 552.573 1609.85 554.674 1609.37 556.725 1608.65 558.63 1607.53 560.339 1606.23 562 1601.1 556.92 1601.87 555.992 1602.4 554.967 1602.79 553.794 1602.84 552.573 1602.69 551.352 1602.4 550.229 1601.82 549.105 1601 548.177 1606.03 543 1607.39 544.612 1608.5 546.419 1609.37 548.373 1609.85 550.473 1610 552.573Z" fill="#CCCCCC" fill-rule="evenodd"/><path d="M1448 552.099 1448.15 548.287 1448.58 544.424 1449.36 540.713 1450.48 537.051 1451.94 533.54 1453.59 530.179 1455.54 526.919 1457.83 523.809 1460.31 521 1465.51 526.217 1463.13 528.875 1461.04 531.784 1459.29 534.844 1457.83 538.054 1456.66 541.465 1455.88 544.876 1455.35 548.487 1455.2 552.099 1455.35 555.911 1455.88 559.522 1456.76 563.134 1457.97 566.545 1459.53 569.855 1461.38 572.965 1463.57 575.924 1466 578.633 1461.04 584 1458.36 581.091 1455.98 577.981 1453.89 574.67 1452.14 571.209 1450.63 567.648 1449.51 563.886 1448.68 560.074 1448.15 556.112 1448 552.099Z" fill="#CCCCCC" fill-rule="evenodd"/><path d="M1460 552.775 1460.25 549.479 1460.74 546.183 1461.63 543.087 1462.87 540.09 1464.4 537.194 1466.28 534.497 1468.41 532 1473.65 537.194 1471.82 539.391 1470.19 541.738 1469 544.385 1468.06 547.082 1467.57 549.879 1467.37 552.775 1467.47 555.322 1467.96 557.819 1468.61 560.216 1469.6 562.613 1470.83 564.761 1472.27 566.808 1474 568.706 1468.95 574 1466.88 571.802 1465.15 569.455 1463.61 566.958 1462.37 564.261 1461.34 561.515 1460.64 558.668 1460.25 555.722 1460 552.775Z" fill="#CCCCCC" fill-rule="evenodd"/><path d="M1472 552.427 1472.16 550.327 1472.7 548.275 1473.51 546.37 1474.74 544.661 1476.19 543 1481.89 548.08 1481.03 549.008 1480.44 550.034 1480.01 551.206 1479.96 552.427 1480.12 553.648 1480.44 554.771 1481.09 555.895 1482 556.823 1476.41 562 1474.9 560.388 1473.67 558.581 1472.7 556.627 1472.16 554.527 1472 552.427Z" fill="#CCCCCC" fill-rule="evenodd"/><path d="M282 1333 282 1594.68" stroke="#A6A6A6" stroke-width="10.3125" stroke-linejoin="round" stroke-miterlimit="10" fill="none" fill-rule="evenodd"/><path d="M151 1464 412.684 1464" stroke="#A6A6A6" stroke-width="10.3125" stroke-linejoin="round" stroke-miterlimit="10" fill="none" fill-rule="evenodd"/><path d="M223 1425 282 1456.11 282 1530 223 1498.97 223 1425Z" fill="#204497" fill-rule="evenodd"/><path d="M341 1428 341 1502.02 282 1530 282 1456.02 341 1428Z" fill="#204497" fill-rule="evenodd"/><path d="M282.04 1399 341 1430.07 282.04 1458 223 1426.93 282.04 1399Z" fill="url(#fill2)" fill-rule="evenodd"/><path d="M241 1323.5C241 1300.58 259.356 1282 282 1282 304.644 1282 323 1300.58 323 1323.5 323 1346.42 304.644 1365 282 1365 259.356 1365 241 1346.42 241 1323.5Z" fill="#7A797B" fill-rule="evenodd"/><path d="M241 1605C241 1582.36 259.356 1564 282 1564 304.644 1564 323 1582.36 323 1605 323 1627.64 304.644 1646 282 1646 259.356 1646 241 1627.64 241 1605Z" fill="#7A797B" fill-rule="evenodd"/><path d="M423 1423C445.644 1423 464 1441.36 464 1464 464 1486.64 445.644 1505 423 1505 400.356 1505 382 1486.64 382 1464 382 1441.36 400.356 1423 423 1423Z" fill="#7A797B" fill-rule="evenodd"/><path d="M141 1423C163.644 1423 182 1441.36 182 1464 182 1486.64 163.644 1505 141 1505 118.356 1505 100 1486.64 100 1464 100 1441.36 118.356 1423 141 1423Z" fill="#7A797B" fill-rule="evenodd"/><path d="M261.947 1328.87 269.313 1321.19 276.993 1328.55 294.109 1310.71 301.789 1318.07 277.307 1343.6Z" fill="#FFFFFF" fill-rule="evenodd"/><path d="M261.947 1605.39 269.313 1597.71 276.993 1605.08 294.109 1587.23 301.789 1594.6 277.307 1620.12Z" fill="#FFFFFF" fill-rule="evenodd"/><path d="M119.948 1467.13 127.313 1459.45 134.993 1466.82 152.109 1448.97 159.789 1456.33 135.308 1481.86Z" fill="#FFFFFF" fill-rule="evenodd"/><path d="M402.078 1467.13 409.443 1459.45 417.123 1466.82 434.239 1448.97 441.919 1456.33 417.438 1481.86Z" fill="#FFFFFF" fill-rule="evenodd"/><path d="M1892 1399 1947 1428.34 1947 1498 1892 1468.74 1892 1399Z" fill="#7A797B" fill-rule="evenodd"/><path d="M2003 1402 2003 1471.67 1947 1498 1947 1428.37 2003 1402Z" fill="#BFBCBA" fill-rule="evenodd"/><path d="M1947.54 1375 2003 1403.96 1947.54 1430 1892 1401.04 1947.54 1375Z" fill="#D4D2D1" fill-rule="evenodd"/><path d="M2002 1399 2058 1428.34 2058 1498 2002 1468.74 2002 1399Z" fill="#7A797B" fill-rule="evenodd"/><path d="M2113 1402 2113 1471.67 2058 1498 2058 1428.37 2113 1402Z" fill="#BFBCBA" fill-rule="evenodd"/><path d="M2057.54 1375 2113 1403.96 2057.54 1430 2002 1401.04 2057.54 1375Z" fill="#D4D2D1" fill-rule="evenodd"/><path d="M2113 1399 2168 1428.34 2168 1498 2113 1468.74 2113 1399Z" fill="#7A797B" fill-rule="evenodd"/><path d="M2224 1402 2224 1471.67 2168 1498 2168 1428.37 2224 1402Z" fill="#BFBCBA" fill-rule="evenodd"/><path d="M2168.54 1375 2224 1403.96 2168.54 1430 2113 1401.04 2168.54 1375Z" fill="#D4D2D1" fill-rule="evenodd"/><path d="M2222 1399 2278 1428.34 2278 1498 2222 1468.74 2222 1399Z" fill="#7A797B" fill-rule="evenodd"/><path d="M2333 1402 2333 1471.67 2278 1498 2278 1428.37 2333 1402Z" fill="#BFBCBA" fill-rule="evenodd"/><path d="M2277.54 1375 2333 1403.96 2277.54 1430 2222 1401.04 2277.54 1375Z" fill="#D4D2D1" fill-rule="evenodd"/><path d="M2332 1399 2388 1428.34 2388 1498 2332 1468.74 2332 1399Z" fill="#7A797B" fill-rule="evenodd"/><path d="M2444 1402 2444 1471.67 2388 1498 2388 1428.37 2444 1402Z" fill="#BFBCBA" fill-rule="evenodd"/><path d="M2388.04 1375 2444 1403.96 2388.04 1430 2332 1401.04 2388.04 1375Z" fill="#D4D2D1" fill-rule="evenodd"/><path d="M2443 1399 2499 1428.34 2499 1498 2443 1468.74 2443 1399Z" fill="#204497" fill-rule="evenodd"/><path d="M2554 1402 2554 1471.67 2499 1498 2499 1428.37 2554 1402Z" fill="#204497" fill-rule="evenodd"/><path d="M2498.54 1375 2554 1403.96 2498.54 1430 2443 1401.04 2498.54 1375Z" fill="url(#fill3)" fill-rule="evenodd"/><path d="M740 838 799 868.818 799 942 740 911.262 740 838Z" fill="#204497" fill-rule="evenodd"/><path d="M857 841 857 914.299 799 942 799 868.741 857 841Z" fill="#204497" fill-rule="evenodd"/><path d="M798.54 812 857 843.065 798.54 871 740 839.935 798.54 812Z" fill="url(#fill4)" fill-rule="evenodd"/><path d="M711.5 575.781 1103.68 575.782 1103.68 579.219 711.5 579.219ZM1077.04 559.974 1107.09 577.5 1077.04 595.027C1076.22 595.505 1075.17 595.228 1074.69 594.408 1074.21 593.588 1074.49 592.536 1075.31 592.057L1102.81 576.016 1102.81 578.985 1075.31 562.943C1074.49 562.465 1074.21 561.413 1074.69 560.593 1075.17 559.773 1076.22 559.496 1077.04 559.974Z" fill="#FC3204"/><path d="M0.0209587-1.71862 452.8 3.80305 452.758 7.24029-0.0209587 1.71862ZM426.36-12.3281 456.189 5.56325 425.933 22.7219C425.107 23.1901 424.058 22.9004 423.59 22.0747 423.122 21.249 423.411 20.2 424.237 19.7317L451.931 4.02659 451.894 6.99561 424.592-9.3802C423.778-9.86846 423.514-10.9242 424.002-11.7382 424.49-12.5523 425.546-12.8164 426.36-12.3281Z" fill="#FC3204" transform="matrix(1 0 0 -1 1926.5 575.063)"/><path d="M2958.22 718.5 2958.22 821.594 2954.78 821.594 2954.78 718.5ZM2974.03 794.96 2956.5 825.005 2938.97 794.96C2938.5 794.141 2938.77 793.088 2939.59 792.61 2940.41 792.131 2941.46 792.408 2941.94 793.228L2957.98 820.728 2955.02 820.728 2971.06 793.228C2971.54 792.408 2972.59 792.131 2973.41 792.61 2974.23 793.088 2974.5 794.14 2974.03 794.96Z" fill="#FC3204"/><path d="M5.96788e-06-1.71875 100.534-1.7184 100.534 1.7191-5.96788e-06 1.71875ZM73.9-17.526 103.945 0.000360963 73.8998 17.5265C73.0799 18.0048 72.0275 17.7279 71.5492 16.9079 71.0709 16.088 71.3479 15.0356 72.1678 14.5573L99.6679-1.48427 99.6679 1.48497 72.1679-14.5568C71.348-15.0351 71.071-16.0875 71.5493-16.9074 72.0276-17.7274 73.08-18.0043 73.9-17.526Z" fill="#FC3204" transform="matrix(-1 0 0 1 2692.44 958.5)"/><path d="M2.9081e-06-1.71875 209.892-1.71839 209.892 1.71911-2.9081e-06 1.71875ZM183.258-17.526 213.303 0.000360666 183.258 17.5266C182.438 18.0049 181.386 17.7279 180.907 16.908 180.429 16.0881 180.706 15.0356 181.526 14.5574L209.026-1.48427 209.026 1.48497 181.526-14.5567C180.706-15.035 180.429-16.0875 180.907-16.9074 181.386-17.7273 182.438-18.0043 183.258-17.526Z" fill="#FC3204" transform="matrix(-1 0 0 1 1780.79 960.5)"/><text fill="#404040" font-family="Latha,Latha_MSFontService,sans-serif" font-weight="400" font-size="37" transform="translate(591.627 405)">ஏதேனும் ஒரு கணு வழியாக <tspan font-size="37" x="614.167" y="0">இந்த </tspan><tspan font-size="37" x="0" y="44">பரிவர்த்தனை </tspan><tspan font-size="37" x="294.479" y="44">கட்டச்சங்கிலி</tspan>யில் <tspan font-size="37" x="0" y="88">உள்ள அனைத்து </tspan><tspan font-size="37" x="358.073" y="88">கணுக்களுக்</tspan><tspan font-size="37" x="593.542" y="88">கும்</tspan><tspan font-size="37" x="668.021" y="88"> </tspan><tspan font-size="37" x="0" y="133">அனுப்பப்படும்</tspan><tspan font-size="37" x="1211.09" y="454">இந்த </tspan>விண்ணப்ப <tspan font-size="37" x="1569.16" y="454">கட்டத்தை</tspan> <tspan font-size="37" x="1211.09" y="498">கட்டச்சங்கிலியில்</tspan><tspan font-size="37" x="1573.17" y="498"> </tspan><tspan font-size="37" x="1594.37" y="498">இணைக்க</tspan><tspan font-size="37" x="1793.17" y="498">, </tspan><tspan font-size="37" x="1823.54" y="498">அ</tspan><tspan font-size="37" x="1865.36" y="498">ந்த </tspan><tspan font-size="37" x="1211.09" y="542">கணுவிற்கு</tspan><tspan font-size="37" x="1428.8" y="542"> </tspan>ஒரு கடினமான கண<tspan font-size="37" x="1869.95" y="542">க்கு </tspan><tspan font-size="37" x="1211.09" y="586">கொடுக்கப்</tspan><tspan font-size="37" x="1416.77" y="586"> </tspan>படும்<tspan font-size="37" x="1538.23" y="586">. </tspan><tspan font-size="37" x="1568.59" y="586">கொடுக்கப்</tspan> <tspan font-size="37" x="1795.47" y="586">பட்ட</tspan><tspan font-size="37" x="1891.14" y="586"> </tspan><tspan font-size="37" x="1211.09" y="630">அந்த </tspan>கணக்கிற்கு <tspan font-size="37" x="1576.61" y="630">முதலில் தீ</tspan>ர்வு <tspan font-size="37" x="1211.09" y="674">காணவேண்டும்</tspan>. <tspan font-size="37" x="1549.11" y="674">இதனை செய்</tspan>யும் <tspan font-size="37" x="1211.09" y="718">கணுக்கள்</tspan> <tspan font-size="37" x="1423.64" y="718">சுரங்கமர்</tspan><tspan font-size="37" x="1602.39" y="718"> </tspan><tspan font-size="37" x="1623.59" y="718">என்று </tspan><tspan font-size="37" x="1211.09" y="762">அழைக்கப்படுகின்றனர்</tspan> <tspan font-size="37" x="1682.6" y="762">தீர்வு</tspan><tspan font-size="37" x="1778.28" y="762"> </tspan><tspan font-size="37" x="1799.48" y="762">காண </tspan><tspan font-size="37" x="1211.09" y="806">நேரம் எடுக்கும்</tspan>. <tspan font-size="37" x="1549.11" y="806">இந்த தீர்வு</tspan><tspan font-size="37" x="1764.53" y="806"> </tspan><tspan font-size="37" x="1211.09" y="851">உழைப்புக்குச்</tspan> <tspan font-size="37" x="1499.84" y="851">சான்று </tspan>(</text><text fill="#404040" font-family="Verdana,Verdana_MSFontService,sans-serif" font-weight="400" font-size="37" transform="matrix(1 0 0 1 2260.48 1256)">proof<tspan font-size="37" x="96.25" y="0">-</tspan><tspan font-size="37" x="112.865" y="0">of</tspan><tspan font-size="37" x="148.385" y="0">-</tspan><tspan font-size="37" x="165" y="0">work) </tspan></text><text fill="#404040" font-family="Latha,Latha_MSFontService,sans-serif" font-weight="400" font-size="37" transform="translate(1802.72 1300)">என்று அழைக்கப்படுகிறது.<tspan font-size="37" x="38.7965" y="249">இவ்வாறு கட்டம் </tspan><tspan font-size="37" x="403.171" y="249">இணைக்கப்படும்</tspan><tspan font-size="37" x="729.161" y="249"> </tspan><tspan font-size="37" x="750.359" y="249">போ</tspan><tspan font-size="37" x="828.849" y="249">து</tspan><tspan font-size="37" x="867.807" y="249"> </tspan><tspan font-size="37" x="170.567" y="293">கட்டத்தில் உள்ள அனைத்து </tspan><tspan font-size="37" x="39.6672" y="337">பரிவர்த்தனைகளும்</tspan><tspan font-size="37" x="430.969" y="337"> </tspan><tspan font-size="37" x="452.167" y="337">மாற்றரு</tspan><tspan font-size="37" x="619.459" y="337"> </tspan><tspan font-size="37" x="640.657" y="337">பதிவுகளா</tspan><tspan font-size="37" x="837.74" y="337">க</tspan>  <tspan font-size="37" x="258.224" y="382">உறுதிப்படுத்துகிறது</tspan><tspan font-size="37" x="1089.06" y="102">கட்டச்சங்கிலி</tspan>யில் <tspan font-size="37" x="1109.41" y="146">இணைக்கப்பட்ட</tspan> <tspan font-size="37" x="1196.77" y="190">பின்னர் </tspan><tspan font-size="37" x="1133.47" y="234">பரிவர்த்தனை </tspan><tspan font-size="37" x="1130.03" y="278">முடிவுற்றதா</tspan>க <tspan font-size="37" x="1155.24" y="323">கருதப்படும்</tspan></text><path d="M332 385.5 368 385.5 368 378 383 393 368 408 368 400.5 332 400.5Z" fill="#7A797B" fill-rule="evenodd"/><text fill="#404040" font-family="Latha,Latha_MSFontService,sans-serif" font-weight="400" font-size="37" transform="translate(167.432 522)">முகிலன்<tspan font-size="37" x="174.167" y="0">  </tspan><tspan font-size="37" x="216.562" y="0">ஒரு </tspan><tspan font-size="37" x="-27.7979" y="44">பரிவர்த்தனையை</tspan> <tspan font-size="37" x="-10.3125" y="89">தொடங்குகிறார்</tspan><tspan font-size="37" x="300.208" y="89">.</tspan></text><path d="M213.681 304 215.525 304.062 217.278 304.217 218.91 304.497 220.421 304.901 221.872 305.337 223.201 305.834 224.41 306.456 225.529 307.078 226.768 307.886 227.916 308.694 228.883 309.471 229.699 310.249 230.394 310.995 230.969 311.679 231.452 312.269 231.785 312.798 232.057 313.171 232.178 313.388 232.268 313.513 232.299 313.513 232.419 313.513 232.601 313.575 232.903 313.637 233.235 313.73 233.628 313.855 234.051 314.041 234.475 314.29 234.988 314.57 235.502 314.912 236.046 315.347 236.56 315.876 237.104 316.466 237.587 317.15 238.071 317.958 238.524 318.829 238.978 319.824 239.34 320.943 239.703 322.249 239.975 323.585 240.217 325.109 240.338 326.787 240.368 328.591 240.338 330.549 240.217 332.725 239.975 335.026 239.612 337.513 239.189 339.347 238.645 341.181 239.068 341.181 239.461 341.181 239.884 341.275 240.277 341.43 240.67 341.616 241.033 341.958 241.335 342.3 241.577 342.798 241.819 343.388 241.909 344.104 242 344.912 242 345.876 241.909 346.995 241.728 348.269 241.426 349.668 241.033 351.254 240.489 353.088 239.945 354.642 239.431 355.979 238.917 357.067 238.464 357.938 237.98 358.622 237.527 359.119 237.104 359.461 236.651 359.679 236.288 359.772 235.925 361.451 235.472 363.223 234.837 364.964 234.082 366.736 233.205 368.477 232.178 370.249 231.029 371.927 229.73 373.575 228.339 375.129 226.828 376.56 225.166 377.896 223.413 379.047 221.569 380.072 219.575 380.912 217.58 381.534 215.525 381.876 213.47 382 211.384 381.876 209.359 381.565 207.335 380.974 205.37 380.135 203.436 379.078 201.683 377.927 200.051 376.591 198.54 375.161 197.149 373.606 195.85 371.958 194.732 370.28 193.704 368.539 192.858 366.767 192.102 364.964 191.498 363.223 191.014 361.451 190.712 359.772 190.319 359.679 189.896 359.461 189.473 359.119 188.989 358.622 188.536 357.938 188.022 357.067 187.569 355.979 187.055 354.642 186.511 353.088 185.997 351.254 185.574 349.668 185.302 348.269 185.121 346.995 185 345.876 185 344.912 185.06 344.104 185.212 343.388 185.423 342.798 185.695 342.3 185.967 341.958 186.3 341.616 186.692 341.43 187.085 341.275 187.508 341.181 187.962 341.181 188.385 341.181 187.78 339.347 187.418 337.513 187.055 335.43 186.813 333.378 186.692 331.42 186.753 329.461 186.964 327.565 187.327 325.668 187.901 323.585 188.657 321.627 189.503 319.793 190.531 318.083 191.619 316.466 192.828 315.005 194.067 313.606 195.457 312.114 197.029 310.777 198.63 309.471 200.262 308.321 201.653 307.42 203.134 306.58 204.705 305.803 206.277 305.181 208.03 304.653 209.873 304.28 211.777 304.093 213.681 304Z" fill="#7A797B" fill-rule="evenodd"/><path d="M194.144 378 202.777 405.494 204.424 410.644 204.485 410.583 205.889 414.966 210.465 401.939 209.367 400.345 208.421 398.782 207.658 397.402 207.079 396.115 206.59 394.92 206.285 393.878 206.102 392.897 206.011 391.977 206.041 391.15 206.163 390.445 206.407 389.77 206.712 389.219 207.079 388.697 207.475 388.268 207.933 387.87 208.451 387.533 208.97 387.287 209.519 387.042 210.068 386.858 210.617 386.705 211.136 386.582 211.624 386.491 212.051 386.46 212.509 386.429 212.844 386.368 213.18 386.368 213.363 386.368 213.485 386.368 213.607 386.368 213.82 386.368 214.156 386.368 214.492 386.429 214.888 386.46 215.376 386.491 215.864 386.582 216.383 386.705 216.932 386.858 217.481 387.042 218.03 387.287 218.549 387.533 219.068 387.87 219.525 388.268 219.922 388.697 220.288 389.219 220.593 389.77 220.837 390.445 220.959 391.15 220.99 391.977 220.898 392.897 220.715 393.878 220.41 394.92 219.922 396.115 219.342 397.402 218.579 398.782 217.634 400.345 216.536 401.939 221.112 414.966 222.515 410.583 222.545 410.644 224.223 405.494 232.857 378 232.948 378.061 233.162 378.215 233.558 378.491 234.107 378.858 234.809 379.287 235.602 379.747 236.578 380.36 237.646 380.973 238.836 381.648 240.117 382.353 241.52 383.058 243.015 383.824 244.602 384.56 246.249 385.326 247.988 386.061 249.788 386.828 251.679 387.471 253.601 388.146 255.614 388.789 257.628 389.341 259.153 389.801 260.526 390.445 261.777 391.18 262.875 392.069 263.821 392.989 264.644 394.061 265.407 395.196 266.048 396.391 266.536 397.617 266.963 398.874 267.298 400.161 267.573 401.448 267.756 402.736 267.878 403.992 267.97 405.219 268 406.445 268 407.548 267.97 408.621 267.909 409.602 267.909 409.724 267.878 410.092 267.848 410.705 267.756 411.441 267.695 412.391 267.604 413.433 267.482 414.537 267.359 415.701 267.237 416.835 267.146 418.031 267.024 419.104 266.871 420.115 266.749 420.973 266.627 421.035 266.383 421.219 265.956 421.464 265.316 421.801 264.583 422.261 263.638 422.751 262.539 423.303 261.289 423.916 259.824 424.56 258.238 425.295 256.53 426 254.638 426.736 252.594 427.502 250.428 428.238 248.11 428.973 245.639 429.709 243.015 430.353 240.239 431.027 237.341 431.671 234.321 432.222 231.179 432.743 227.853 433.173 224.498 433.479 220.898 433.755 217.268 433.908 213.485 434 209.672 433.908 206.011 433.755 202.472 433.479 199.055 433.111 195.761 432.682 192.618 432.222 189.568 431.671 186.7 431.027 183.955 430.353 181.331 429.709 178.86 428.943 176.541 428.207 174.345 427.502 172.301 426.736 170.41 426 168.671 425.295 167.084 424.56 165.681 423.916 164.43 423.303 163.332 422.72 162.386 422.261 161.593 421.801 161.014 421.464 160.587 421.188 160.312 421.035 160.22 420.973 160.098 420.115 159.946 419.104 159.824 418.031 159.702 416.835 159.58 415.701 159.458 414.537 159.366 413.433 159.275 412.391 159.183 411.441 159.153 410.705 159.122 410.092 159.092 409.724 159.092 409.602 159.031 408.621 159 407.548 159 406.414 159.031 405.219 159.122 403.992 159.244 402.736 159.427 401.448 159.702 400.13 160.037 398.874 160.464 397.586 160.953 396.36 161.593 395.165 162.356 394.061 163.18 392.989 164.125 392.069 165.224 391.18 166.474 390.445 167.847 389.801 169.342 389.341 171.386 388.789 173.399 388.146 175.321 387.471 177.213 386.828 179.012 386.061 180.751 385.326 182.399 384.56 183.985 383.824 185.48 383.058 186.883 382.353 188.164 381.648 189.354 380.973 190.422 380.36 191.398 379.747 192.161 379.287 192.893 378.858 193.442 378.491 193.839 378.215 194.052 378.061 194.144 378Z" fill="#7A797B" fill-rule="evenodd"/><path d="M461.323 443.648C435.839 444 410 436.249 410 420.748 410 415.111 410 410.531 412.124 402.781 413.54 396.087 416.371 391.154 422.034 388.336 426.636 385.518 444.687 376.71 447.165 372.835 444.333 369.312 441.502 364.732 440.44 360.856 439.024 359.799 439.024 359.799 439.024 359.799 436.546 353.81 435.839 348.878 436.192 342.184 437.254 341.48 437.254 341.48 437.254 341.48 437.254 339.366 437.254 337.604 437.254 335.49 437.608 327.74 439.378 323.16 446.103 318.58 450.704 315.409 455.66 314 461.323 314 467.34 314 471.942 315.409 476.897 318.58 483.622 323.16 485.392 327.74 485.746 335.49 485.746 337.604 485.746 339.366 485.746 341.48 486.807 342.184 486.807 342.184 486.807 342.184 487.161 348.878 486.1 353.81 483.976 359.799 482.56 360.856 482.56 360.856 482.56 360.856 481.144 364.732 478.667 369.312 475.835 372.835 477.959 376.71 496.01 385.518 500.966 388.336 506.275 391.154 509.106 396.087 510.876 402.781 512.646 410.531 513 415.111 513 420.748 513 436.249 487.161 444 461.323 443.648Z" fill="#7A797B" fill-rule="evenodd"/><path d="M444.79 339C444.438 339 444.086 342.887 445.143 347.834 444.086 347.834 441.971 347.48 441.619 346.42 441.619 345.714 441.267 344.654 441.267 343.947 440.914 343.594 440.914 343.24 440.562 343.594 439.857 343.947 439.857 343.947 439.857 343.947 439.857 344.3 439.857 344.3 439.857 344.3 439.857 348.894 440.562 352.781 441.971 356.668 441.971 357.021 441.971 357.375 442.324 357.375 443.028 358.081 443.028 358.081 443.028 358.081 443.381 358.081 443.733 358.435 443.733 358.788 444.086 359.848 444.086 359.848 444.086 359.848 445.143 363.382 447.257 367.268 449.724 370.095 451.486 371.862 453.952 373.276 456.067 373.982 458.886 375.042 463.467 375.042 466.286 373.982 468.4 373.276 470.867 371.862 472.276 370.095 474.743 367.268 477.21 363.382 478.267 359.848 478.619 358.788 478.619 358.788 478.619 358.788 478.619 358.435 478.619 358.081 478.971 358.081 479.676 357.375 479.676 357.375 479.676 357.375 480.029 357.375 480.381 357.021 480.381 356.668 481.791 352.781 482.495 348.894 482.495 344.3 482.495 344.3 482.143 344.3 482.143 343.947 481.791 343.594 481.791 343.594 481.791 343.594 481.086 343.24 481.086 343.594 481.086 343.947 480.733 344.654 480.733 345.714 480.381 346.42 480.029 347.48 477.914 347.834 477.21 347.834 477.914 342.887 477.914 339 477.21 339 465.229 342.534 456.771 342.534 444.79 339ZM497.648 414.972C495.181 420.272 495.181 420.272 495.181 420.272 495.181 420.272 494.829 420.272 494.829 420.625 494.476 439 494.476 439 494.476 439 495.181 438.647 495.533 438.647 496.238 438.293 496.591 420.625 496.591 420.625 496.591 420.625 498 415.678 498 415.678 498 415.678 497.648 414.972 497.648 414.972 497.648 414.972ZM427.876 439C427.171 438.647 426.467 438.647 426.114 438.293 425.409 420.625 425.409 420.625 425.409 420.625 424 415.678 424 415.678 424 415.678 424.352 414.972 424.352 414.972 424.352 414.972 427.171 420.272 427.171 420.272 427.171 420.272 427.171 420.272 427.171 420.272 427.171 420.625 427.876 439 427.876 439 427.876 439ZM450.076 375.396C448.314 377.869 445.848 379.636 443.381 381.049 445.143 394.83 449.019 415.678 455.009 424.159 455.714 410.025 456.419 396.244 457.829 390.59 457.829 389.883 457.829 389.53 457.476 389.177 457.124 388.823 456.419 388.117 456.067 387.763 455.714 387.41 455.714 387.41 455.714 387.056 455.714 385.29 456.067 381.049 457.476 381.403 458.533 381.756 459.943 381.756 461 381.756 462.41 381.756 463.467 381.756 464.876 381.403 466.286 381.049 466.638 385.29 466.638 387.056 466.286 387.41 466.286 387.41 466.286 387.763 465.581 388.117 464.876 388.823 464.524 389.177 464.171 389.53 464.524 389.883 464.524 390.59 465.933 396.597 466.638 410.025 466.99 424.159 472.629 416.385 476.152 398.011 477.914 383.523 478.267 382.463 478.267 381.756 478.267 380.696 475.8 379.283 473.686 377.516 472.276 375.396 471.924 375.749 471.924 375.749 471.924 375.749 467.695 379.989 454.305 379.989 450.076 375.749L450.076 375.396Z" fill="#FFFFFF" fill-rule="evenodd"/><g clip-path="url(#clip5)"><g clip-path="url(#clip6)"><g clip-path="url(#clip7)"><path d="M20.3539 216.311 1.73493 193.015 1.84247 188.398C10.5808 189 17.3744 188.075 18.9549 179.809L0.335721 179.703 3.34923 174.656 18.2016 174.87C15.9385 170.167 9.7148 169.587 0.0127858 169.932L3.34923 164.993 34.8841 164.946 31.7629 169.824 23.0453 169.824C24.6386 171.506 25.8048 173.441 25.8436 175.084L34.8841 174.977 31.7629 179.808 25.7359 179.915C24.7951 187.122 18.174 191.389 9.80731 192.369L28.551 216.305 20.3546 216.309 20.3546 216.309Z" stroke="#000000" stroke-width="0.0203677" fill="#7A797B" transform="matrix(1 0 0 1.01029 334.052 157.451)"/></g></g></g><text fill="#404040" font-family="Latha,Latha_MSFontService,sans-serif" font-weight="400" font-size="32" transform="translate(130.721 474)">முகிலன்<tspan font-size="32" x="259.957" y="9">எழி</tspan>லன்<tspan font-size="37" x="1708.2" y="-95">இவ்வாறு வரும் அனைத்து </tspan><tspan font-size="37" x="1708.2" y="-51">பரிவர்த்தனைகளும்</tspan><tspan font-size="37" x="2099.5" y="-51"> </tspan><tspan font-size="37" x="2120.7" y="-51">கட்டச்சங்கி</tspan><tspan font-size="37" x="2347.58" y="-51">லியின் </tspan><tspan font-size="37" x="1708.2" y="-7">நினைவக</tspan><tspan font-size="37" x="1900.7" y="-7"> </tspan><tspan font-size="37" x="1921.9" y="-7">தேக்கத்தில்</tspan><tspan font-size="37" x="2149.35" y="-7"> </tspan><tspan font-size="37" x="2170.54" y="-7">தற்காலி</tspan><tspan font-size="37" x="2334.4" y="-7">கமாக </tspan><tspan font-size="37" x="1708.2" y="38">நிறுத்தி வைக்கப்படும்</tspan><tspan font-size="37" x="2146.48" y="38">.</tspan><tspan font-size="37" x="2551.18" y="-38">கட்டச்சங்கிலியில்</tspan><tspan font-size="37" x="2913.26" y="-38"> </tspan><tspan font-size="37" x="2934.46" y="-38">உள்</tspan><tspan font-size="37" x="3012.38" y="-38">ள </tspan><tspan font-size="37" x="2551.18" y="6">சில </tspan><tspan font-size="37" x="2647.43" y="6">கணுக்கள்</tspan><tspan font-size="37" x="2838.78" y="6">, </tspan><tspan font-size="37" x="2551.18" y="50">நினைவகத்தில்</tspan><tspan font-size="37" x="2853.11" y="50"> </tspan><tspan font-size="37" x="2874.3" y="50">உள்ள ஒ</tspan><tspan font-size="37" x="3051.91" y="50">ரு </tspan><tspan font-size="37" x="2551.18" y="94">மெகா </tspan><tspan font-size="37" x="2690.4" y="94">பைட்</tspan><tspan font-size="37" x="2795.81" y="94"> </tspan><tspan font-size="37" x="2817.01" y="94">அளவிலான</tspan><tspan font-size="37" x="3055.34" y="94"> </tspan><tspan font-size="37" x="2551.18" y="138">பரிவர்த்தனைகளை</tspan><tspan font-size="37" x="2936.18" y="138"> </tspan><tspan font-size="37" x="2957.38" y="138">கொண்</tspan><tspan font-size="37" x="3096.02" y="138">டு </tspan><tspan font-size="37" x="2551.18" y="182">விண்ணப்பக்</tspan><tspan font-size="37" x="2797.53" y="182"> </tspan><tspan font-size="37" x="2818.73" y="182">கட்டத்தை</tspan><tspan font-size="37" x="3022.69" y="182"> </tspan><tspan font-size="37" x="2551.18" y="227">உருவாக்கும்</tspan><tspan font-size="37" x="789.839" y="401">விண்ணப்பக்</tspan><tspan font-size="37" x="1036.19" y="401"> </tspan><tspan font-size="37" x="1057.39" y="401">கட்டத்தின் </tspan><tspan font-size="37" x="789.839" y="445">தலைப்புடன்</tspan><tspan font-size="37" x="1036.77" y="445"> </tspan><tspan font-size="37" x="1057.96" y="445">எந்த ஒருமுறை</tspan><tspan font-size="37" x="1381.66" y="445"> </tspan><tspan font-size="37" x="789.839" y="489">எண் </tspan><tspan font-size="37" x="897.548" y="489">இணைக்கப்பட்டால்</tspan><tspan font-size="37" x="1282.55" y="489">, </tspan><tspan font-size="37" x="1312.91" y="489">அ</tspan><tspan font-size="37" x="1354.74" y="489">ந்த </tspan><tspan font-size="37" x="789.839" y="533">கட்டத்தின் </tspan><tspan font-size="37" x="1021.3" y="533">குறுக்க</tspan><tspan font-size="37" x="1161.66" y="533"> </tspan><tspan font-size="37" x="1182.86" y="533">மதிப்</tspan><tspan font-size="37" x="1283.12" y="533">பு ஒரு </tspan><tspan font-size="37" x="789.839" y="577">குறிப்பிட்ட </tspan><tspan font-size="37" x="1022.44" y="577">எண்ணிக்கை</tspan><tspan font-size="37" x="1277.39" y="577">யிலான</tspan><tspan font-size="37" x="1431.51" y="577"> </tspan><tspan font-size="37" x="789.839" y="621">முன் </tspan><tspan font-size="37" x="908.433" y="621">சுழிகளுடன்</tspan><tspan font-size="37" x="1141.04" y="621"> </tspan><tspan font-size="37" x="1162.24" y="621">தொடங்</tspan><tspan font-size="37" x="1318.64" y="621">கும் </tspan><tspan font-size="37" x="789.839" y="665">என்று கணிக்க வேண்டும்</tspan><tspan font-size="37" x="1302.03" y="665">.</tspan><tspan font-size="37" x="2589.84" y="401">இவ்வாறு செய்யும்</tspan><tspan font-size="37" x="2968.54" y="401"> </tspan><tspan font-size="37" x="2589.84" y="445">போது</tspan><tspan font-size="37" x="2707.29" y="445">, </tspan><tspan font-size="37" x="2737.66" y="445">அந்த குறிப்பி</tspan><tspan font-size="37" x="3001.77" y="445">ட </tspan><tspan font-size="37" x="2589.84" y="489">பரிவர்த்தனைகள்</tspan><tspan font-size="37" x="2930.73" y="489"> </tspan><tspan font-size="37" x="2589.84" y="533">சரிபார்க்கப்படும்</tspan><tspan font-size="37" x="2908.39" y="533">. </tspan><tspan font-size="37" x="2589.84" y="577">குறிப்பாக ஒரே பணம்</tspan><tspan font-size="37" x="3027.55" y="577"> </tspan><tspan font-size="37" x="2589.84" y="621">இருமுறை </tspan><tspan font-size="37" x="2824.74" y="621">செலவழிக்</tspan><tspan font-size="37" x="3035.57" y="621">கப்</tspan><tspan font-size="37" x="3091.72" y="621"> </tspan><tspan font-size="37" x="2589.84" y="666">பட்டுள்ளதா</tspan><tspan font-size="37" x="2819.58" y="666"> </tspan><tspan font-size="37" x="2840.78" y="666">(</tspan></text><text fill="#404040" font-family="Verdana,Verdana_MSFontService,sans-serif" font-weight="400" font-size="37" transform="matrix(1 0 0 1 2982.39 1140)">Double <tspan font-size="37" x="-261.823" y="44">spending) </tspan></text><text fill="#404040" font-family="Latha,Latha_MSFontService,sans-serif" font-weight="400" font-size="37" transform="translate(2917.08 1184)">மற்றும் <tspan font-size="37" x="-196.51" y="43">அனுப்பும் </tspan>நபரிடம்<tspan font-size="37" x="166.719" y="43"> </tspan><tspan font-size="37" x="187.917" y="43">ப</tspan><tspan font-size="37" x="214.844" y="43">ணம் </tspan><tspan font-size="37" x="-196.51" y="87">உள்ளதா</tspan><tspan font-size="37" x="-26.354" y="87"> </tspan><tspan font-size="37" x="-5.15625" y="87">என்று </tspan><tspan font-size="37" x="-196.51" y="132">பார்க்கப்படும்</tspan><tspan font-size="37" x="61.875" y="132">. </tspan><tspan font-size="37" x="-2840.68" y="-415">இவ்வாறு</tspan>, <tspan font-size="37" x="-2621.82" y="-415">ஒரு குறிப்பி</tspan><tspan font-size="37" x="-2375.47" y="-415">ட்ட </tspan><tspan font-size="37" x="-2840.68" y="-371">எண்ணிக்கையிலான</tspan> <tspan font-size="37" x="-2410.42" y="-371">மு</tspan>ன் <tspan font-size="37" x="-2840.68" y="-327">சுழிகளுடன்</tspan><tspan font-size="37" x="-2608.08" y="-327"> </tspan>தொடங்கும் <tspan font-size="37" x="-2840.68" y="-283">குறுக்க</tspan> மதிப்பு கொண்ட <tspan font-size="37" x="-2840.68" y="-239">கட்டம் </tspan>ஒப்பமிடப்பட்டக் <tspan font-size="37" x="-2840.68" y="-195">கட்டமாகக்</tspan> <tspan font-size="37" x="-2604.64" y="-195">கருத்தப்படும்</tspan><tspan font-size="37" x="-2343.96" y="-195">. </tspan><tspan font-size="37" x="-2840.68" y="-151">இது அந்த </tspan>கணுவில்<tspan font-size="37" x="-2432.76" y="-151"> </tspan>உள்ள <tspan font-size="37" x="-2840.68" y="-107">கட்டச்சங்கிலியில்</tspan> <tspan font-size="37" x="-2840.68" y="-62">இணைக்கப்படும்</tspan><tspan font-size="37" x="-2425.63" y="160">இணைக்கப்பட்ட</tspan> <tspan font-size="37" x="-2083.02" y="160">கட்டத்தின் விவரம் மற்ற </tspan><tspan font-size="37" x="-1556.51" y="160">கணுக்</tspan>களுக்கும் <tspan font-size="37" x="-2425.63" y="204">அனுப்பப்படும்</tspan><tspan font-size="37" x="-2148.33" y="204">. </tspan><tspan font-size="37" x="-2117.97" y="204">இந்த </tspan><tspan font-size="37" x="-1998.23" y="204">கணுக்கள்</tspan> <tspan font-size="37" x="-1785.68" y="204">உழைப்புக்குச்</tspan><tspan font-size="37" x="-1518.13" y="204"> </tspan>சான்று என்ற <tspan font-size="37" x="-2425.63" y="248">கருத்து </tspan>இணக்க நெறிமுறையில்<tspan font-size="37" x="-1770.21" y="248"> </tspan>செயல்படுவதினால்<tspan font-size="37" x="-1362.29" y="248">, </tspan><tspan font-size="37" x="-1331.93" y="248">அந்த </tspan><tspan font-size="37" x="-2425.63" y="292">கட்டத்திலுள்ள</tspan> பரிவர்த்தனைகளை<tspan font-size="37" x="-1727.81" y="292"> </tspan>மற்ற கணுக்களும் <tspan font-size="37" x="-2425.63" y="336">சரிபார்த்து தீர்வு </tspan>காணப்பட்ட<tspan font-size="37" x="-1853.85" y="336"> </tspan>ஒருமுறை எண்ணை <tspan font-size="37" x="-2425.63" y="380">பயன்படுத்தி</tspan><tspan font-size="37" x="-2184.43" y="380">, </tspan><tspan font-size="37" x="-2154.06" y="380">இந்த </tspan><tspan font-size="37" x="-2034.32" y="380">கட்டத்தை</tspan><tspan font-size="37" x="-1830.37" y="380"> </tspan>ஒப்பமிட்டு தங்கள்<tspan font-size="37" x="-1443.07" y="380"> </tspan>கணுவில் <tspan font-size="37" x="-2425.63" y="425">உள்ள </tspan>கட்டச்சங்கிலியில்<tspan font-size="37" x="-1926.04" y="425"> </tspan>இணைத்துக் <tspan font-size="37" x="-1644.17" y="425">கொள்ளு</tspan>ம்</text><path d="M2.9081e-06-1.71875 209.892-1.71839 209.892 1.71911-2.9081e-06 1.71875ZM183.258-17.526 213.303 0.000360666 183.258 17.5266C182.438 18.0049 181.386 17.7279 180.907 16.908 180.429 16.0881 180.706 15.0356 181.526 14.5574L209.026-1.48427 209.026 1.48497 181.526-14.5567C180.706-15.035 180.429-16.0875 180.907-16.9074 181.386-17.7273 182.438-18.0043 183.258-17.526Z" fill="#FC3204" transform="matrix(-1 0 0 1 901.795 960.5)"/><path d="M284.219 1162.5 284.219 1265.59 280.782 1265.59 280.781 1162.5ZM300.027 1238.96 282.5 1269.01 264.974 1238.96C264.496 1238.14 264.773 1237.09 265.593 1236.61 266.413 1236.13 267.465 1236.41 267.943 1237.23L283.985 1264.73 281.016 1264.73 297.057 1237.23C297.536 1236.41 298.588 1236.13 299.408 1236.61 300.228 1237.09 300.505 1238.14 300.027 1238.96Z" fill="#FC3204"/><path d="M1702.5 1440.78 1816.03 1440.78 1816.03 1444.22 1702.5 1444.22ZM1789.39 1424.97 1819.44 1442.5 1789.39 1460.03C1788.57 1460.5 1787.52 1460.23 1787.04 1459.41 1786.56 1458.59 1786.84 1457.54 1787.66 1457.06L1815.16 1441.02 1815.16 1443.98 1787.66 1427.94C1786.84 1427.46 1786.56 1426.41 1787.04 1425.59 1787.52 1424.77 1788.57 1424.5 1789.39 1424.97Z" fill="#FC3204"/><path d="M2586.5 1431.78 2842.94 1431.78 2842.94 1435.22 2586.5 1435.22ZM2816.31 1415.97 2846.35 1433.5 2816.31 1451.03C2815.49 1451.5 2814.43 1451.23 2813.95 1450.41 2813.48 1449.59 2813.75 1448.54 2814.57 1448.06L2842.07 1432.02 2842.07 1434.98 2814.57 1418.94C2813.75 1418.46 2813.48 1417.41 2813.95 1416.59 2814.43 1415.77 2815.49 1415.5 2816.31 1415.97Z" fill="#FC3204"/></g></svg>