<svg width="1718" height="1092" xmlns="http://www.w3.org/2000/svg" xmlns:xlink="http://www.w3.org/1999/xlink" xml:space="preserve" overflow="hidden"><defs><clipPath id="clip0"><rect x="1563" y="536" width="1718" height="1092"/></clipPath></defs><g clip-path="url(#clip0)" transform="translate(-1563 -536)"><rect x="1563.5" y="536.5" width="1717" height="1091" stroke="#204497" stroke-width="1.14583" stroke-linejoin="round" stroke-miterlimit="10" fill="none"/><text font-family="Latha,Latha_MSFontService,sans-serif" font-weight="400" font-size="55" transform="translate(2322.04 603)">கட்டம்</text><rect x="1590.5" y="617.5" width="1656" height="345" stroke="#DC7476" stroke-width="1.14583" stroke-linejoin="round" stroke-miterlimit="10" fill="none"/><text font-family="Latha,Latha_MSFontService,sans-serif" font-weight="400" font-size="46" transform="translate(1770.2 674)">தலைப்பு <tspan font-size="46" x="237.187" y="0">(</tspan>பதினாறென்முறை<tspan font-size="46" x="712.135" y="0"> </tspan><tspan font-size="46" x="738.49" y="0">வடிவில்</tspan><tspan font-size="46" x="947.031" y="0">/</tspan></text><text font-family="Verdana,Verdana_MSFontService,sans-serif" font-weight="400" font-size="46" transform="matrix(1 0 0 1 2728.69 674)">HEX) (Header)</text><path d="M1637.5 720.834C1637.5 711.261 1645.26 703.5 1654.83 703.5L1919.17 703.5C1928.74 703.5 1936.5 711.261 1936.5 720.834L1936.5 790.166C1936.5 799.739 1928.74 807.5 1919.17 807.5L1654.83 807.5C1645.26 807.5 1637.5 799.739 1637.5 790.166Z" stroke="#DC7476" stroke-width="1.14583" stroke-linejoin="round" stroke-miterlimit="10" fill="none" fill-rule="evenodd"/><text font-family="Latha,Latha_MSFontService,sans-serif" font-weight="400" font-size="37" transform="translate(1677.59 738)">பதிப்பு<tspan font-size="37" x="131.198" y="0">எண்</tspan></text><text font-family="Verdana,Verdana_MSFontService,sans-serif" font-weight="400" font-size="37" transform="matrix(1 0 0 1 1717.7 795)">Version</text><path d="M1988.5 720.834C1988.5 711.261 1996.26 703.5 2005.83 703.5L2613.17 703.5C2622.74 703.5 2630.5 711.261 2630.5 720.834L2630.5 790.166C2630.5 799.74 2622.74 807.5 2613.17 807.5L2005.83 807.5C1996.26 807.5 1988.5 799.74 1988.5 790.166Z" stroke="#DC7476" stroke-width="1.14583" stroke-linejoin="round" stroke-miterlimit="10" fill="none" fill-rule="evenodd"/><text font-family="Latha,Latha_MSFontService,sans-serif" font-weight="400" font-size="37" transform="translate(2002 738)">முந்தைய கட்ட<tspan font-size="37" x="325.99" y="0">குறுக்க</tspan><tspan font-size="37" x="466.354" y="0"> </tspan><tspan font-size="37" x="487.552" y="0">ம</tspan><tspan font-size="37" x="523.073" y="0">திப்பு</tspan></text><text font-family="Verdana,Verdana_MSFontService,sans-serif" font-weight="400" font-size="37" transform="matrix(1 0 0 1 2050.42 795)">Previous Block Header Hash</text><path d="M2664.5 720.834C2664.5 711.261 2672.26 703.5 2681.83 703.5L3166.17 703.5C3175.74 703.5 3183.5 711.261 3183.5 720.834L3183.5 790.167C3183.5 799.74 3175.74 807.5 3166.17 807.5L2681.83 807.5C2672.26 807.5 2664.5 799.74 2664.5 790.167Z" stroke="#DC7476" stroke-width="1.14583" stroke-linejoin="round" stroke-miterlimit="10" fill="none" fill-rule="evenodd"/><text font-family="Latha,Latha_MSFontService,sans-serif" font-weight="400" font-size="37" transform="translate(2714.28 738)">தரவுக்<tspan font-size="37" x="138.073" y="0">குறுக்க</tspan><tspan font-size="37" x="291.615" y="0">மதிப்</tspan><tspan font-size="37" x="391.875" y="0">பு</tspan></text><text font-family="Verdana,Verdana_MSFontService,sans-serif" font-weight="400" font-size="37" transform="matrix(1 0 0 1 2689.65 795)">Merkle Root Hash of data</text><path d="M1637.5 841.834C1637.5 832.261 1645.26 824.5 1654.83 824.5L1919.17 824.5C1928.74 824.5 1936.5 832.261 1936.5 841.834L1936.5 911.166C1936.5 920.739 1928.74 928.5 1919.17 928.5L1654.83 928.5C1645.26 928.5 1637.5 920.739 1637.5 911.166Z" stroke="#DC7476" stroke-width="1.14583" stroke-linejoin="round" stroke-miterlimit="10" fill="none" fill-rule="evenodd"/><text font-family="Latha,Latha_MSFontService,sans-serif" font-weight="400" font-size="37" transform="translate(1645.51 859)">நேர<tspan font-size="37" x="92.2395" y="0">முத்தி</tspan><tspan font-size="37" x="214.844" y="0">ரை</tspan></text><text font-family="Verdana,Verdana_MSFontService,sans-serif" font-weight="400" font-size="37" transform="matrix(1 0 0 1 1684.77 916)">Timestamp</text><path d="M1988.5 841.167C1988.5 831.41 1996.41 823.5 2006.17 823.5L2612.83 823.5C2622.59 823.5 2630.5 831.41 2630.5 841.167L2630.5 911.833C2630.5 921.59 2622.59 929.5 2612.83 929.5L2006.17 929.5C1996.41 929.5 1988.5 921.59 1988.5 911.833Z" stroke="#DC7476" stroke-width="1.14583" stroke-linejoin="round" stroke-miterlimit="10" fill="none" fill-rule="evenodd"/><text font-family="Latha,Latha_MSFontService,sans-serif" font-weight="400" font-size="37" transform="translate(2049.55 859)">தற்போதைய<tspan font-size="37" x="268.125" y="0">கடின</tspan><tspan font-size="37" x="375.833" y="0"> </tspan><tspan font-size="37" x="397.031" y="0">அளவு</tspan></text><text font-family="Verdana,Verdana_MSFontService,sans-serif" font-weight="400" font-size="37" transform="matrix(1 0 0 1 2262.98 916)">nBits</text><path d="M2664.5 841.167C2664.5 831.41 2672.41 823.5 2682.17 823.5L3165.83 823.5C3175.59 823.5 3183.5 831.41 3183.5 841.167L3183.5 911.833C3183.5 921.59 3175.59 929.5 3165.83 929.5L2682.17 929.5C2672.41 929.5 2664.5 921.59 2664.5 911.833Z" stroke="#DC7476" stroke-width="1.14583" stroke-linejoin="round" stroke-miterlimit="10" fill="none" fill-rule="evenodd"/><text font-family="Latha,Latha_MSFontService,sans-serif" font-weight="400" font-size="37" transform="translate(2762.12 859)">ஒரேமுறை<tspan font-size="37" x="236.042" y="0">எண்</tspan></text><text font-family="Verdana,Verdana_MSFontService,sans-serif" font-weight="400" font-size="37" transform="matrix(1 0 0 1 2866.39 916)">Nonce</text><rect x="1590.5" y="973.5" width="1656" height="626" stroke="#01919A" stroke-width="1.14583" stroke-linejoin="round" stroke-miterlimit="10" fill="none"/><text font-family="Latha,Latha_MSFontService,sans-serif" font-weight="400" font-size="46" transform="translate(2275.8 1030)">தரவு</text><text font-family="Verdana,Verdana_MSFontService,sans-serif" font-weight="400" font-size="46" transform="matrix(1 0 0 1 2411.01 1030)">(Data)</text><path d="M2664.5 1008.83C2664.5 999.26 2672.26 991.5 2681.83 991.5L3166.17 991.5C3175.74 991.5 3183.5 999.26 3183.5 1008.83L3183.5 1078.17C3183.5 1087.74 3175.74 1095.5 3166.17 1095.5L2681.83 1095.5C2672.26 1095.5 2664.5 1087.74 2664.5 1078.17Z" stroke="#01919A" stroke-width="1.14583" stroke-linejoin="round" stroke-miterlimit="10" fill="none" fill-rule="evenodd"/><text font-family="Latha,Latha_MSFontService,sans-serif" font-weight="400" font-size="37" transform="translate(2703.97 1032)">பரிவர்த்தனை<tspan font-size="37" x="286.458" y="0">எண்ணி</tspan></text><text font-family="Verdana,Verdana_MSFontService,sans-serif" font-weight="400" font-size="37" transform="matrix(1 0 0 1 2736.93 1079)">Transaction Counter</text><path d="M1728.5 1537.17C1728.5 1532.38 1732.38 1528.5 1737.17 1528.5L2122.83 1528.5C2127.62 1528.5 2131.5 1532.38 2131.5 1537.17L2131.5 1571.83C2131.5 1576.62 2127.62 1580.5 2122.83 1580.5L1737.17 1580.5C1732.38 1580.5 1728.5 1576.62 1728.5 1571.83Z" stroke="#01919A" stroke-width="1.14583" stroke-linejoin="round" stroke-miterlimit="10" fill="none" fill-rule="evenodd"/><text font-family="Latha,Latha_MSFontService,sans-serif" font-weight="400" font-size="37" transform="translate(1761.19 1564)">பரிவர்த்தனை #</text><text font-family="Verdana,Verdana_MSFontService,sans-serif" font-weight="400" font-size="37" transform="matrix(1 0 0 1 2074 1564)">2</text><path d="M2179.5 1537.17C2179.5 1532.38 2183.38 1528.5 2188.17 1528.5L2573.83 1528.5C2578.62 1528.5 2582.5 1532.38 2582.5 1537.17L2582.5 1571.83C2582.5 1576.62 2578.62 1580.5 2573.83 1580.5L2188.17 1580.5C2183.38 1580.5 2179.5 1576.62 2179.5 1571.83Z" stroke="#01919A" stroke-width="1.14583" stroke-linejoin="round" stroke-miterlimit="10" fill="none" fill-rule="evenodd"/><text font-family="Latha,Latha_MSFontService,sans-serif" font-weight="400" font-size="37" transform="translate(2212.38 1564)">பரிவர்த்தனை <tspan font-size="37" x="294.479" y="0">#</tspan></text><text font-family="Verdana,Verdana_MSFontService,sans-serif" font-weight="400" font-size="37" transform="matrix(1 0 0 1 2525.19 1564)">3</text><path d="M2630.5 1537.17C2630.5 1532.38 2634.38 1528.5 2639.17 1528.5L3024.83 1528.5C3029.62 1528.5 3033.5 1532.38 3033.5 1537.17L3033.5 1571.83C3033.5 1576.62 3029.62 1580.5 3024.83 1580.5L2639.17 1580.5C2634.38 1580.5 2630.5 1576.62 2630.5 1571.83Z" stroke="#01919A" stroke-width="1.14583" stroke-linejoin="round" stroke-miterlimit="10" fill="none" fill-rule="evenodd"/><text font-family="Latha,Latha_MSFontService,sans-serif" font-weight="400" font-size="37" transform="translate(2655.54 1564)">பரிவர்த்தனை <tspan font-size="37" x="294.479" y="0">#</tspan></text><text font-family="Verdana,Verdana_MSFontService,sans-serif" font-weight="400" font-size="37" transform="matrix(1 0 0 1 2968.35 1564)">..<tspan font-size="37" x="26.3543" y="0">.</tspan></text><path d="M1702.5 1176.17C1702.5 1143.21 1729.21 1116.5 1762.17 1116.5L3019.83 1116.5C3052.79 1116.5 3079.5 1143.21 3079.5 1176.17L3079.5 1414.83C3079.5 1447.79 3052.79 1474.5 3019.83 1474.5L1762.17 1474.5C1729.21 1474.5 1702.5 1447.79 1702.5 1414.83Z" stroke="#01919A" stroke-width="1.14583" stroke-linejoin="round" stroke-miterlimit="10" fill="none" fill-rule="evenodd"/><path d="M2235.5 1135.67C2235.5 1131.16 2239.16 1127.5 2243.67 1127.5L2578.33 1127.5C2582.84 1127.5 2586.5 1131.16 2586.5 1135.67L2586.5 1168.33C2586.5 1172.84 2582.84 1176.5 2578.33 1176.5L2243.67 1176.5C2239.16 1176.5 2235.5 1172.84 2235.5 1168.33Z" stroke="#01919A" stroke-width="1.14583" stroke-linejoin="round" stroke-miterlimit="10" fill="none" fill-rule="evenodd"/><text font-family="Latha,Latha_MSFontService,sans-serif" font-weight="400" font-size="37" transform="translate(2247.72 1162)">பரிவர்த்தனை</text><text font-family="Arial,Arial_MSFontService,sans-serif" font-weight="400" font-size="37" transform="matrix(1 0 0 1 2531.31 1162)">#<tspan font-size="37" x="20.625" y="0">1</tspan></text><path d="M1728.5 1207.83C1728.5 1198.26 1736.26 1190.5 1745.83 1190.5L2101.17 1190.5C2110.74 1190.5 2118.5 1198.26 2118.5 1207.83L2118.5 1277.17C2118.5 1286.74 2110.74 1294.5 2101.17 1294.5L1745.83 1294.5C1736.26 1294.5 1728.5 1286.74 1728.5 1277.17Z" stroke="#01919A" stroke-width="1.14583" stroke-linejoin="round" stroke-miterlimit="10" fill="none" fill-rule="evenodd"/><text font-family="Latha,Latha_MSFontService,sans-serif" font-weight="400" font-size="37" transform="translate(1815.42 1228)">பதிப்பு<tspan font-size="37" x="128.333" y="0">எண்</tspan></text><text font-family="Arial,Arial_MSFontService,sans-serif" font-weight="400" font-size="37" transform="matrix(1 0 0 1 1860.41 1275)">Version</text><path d="M2183.5 1207.83C2183.5 1198.26 2191.26 1190.5 2200.83 1190.5L2556.17 1190.5C2565.74 1190.5 2573.5 1198.26 2573.5 1207.83L2573.5 1277.17C2573.5 1286.74 2565.74 1294.5 2556.17 1294.5L2200.83 1294.5C2191.26 1294.5 2183.5 1286.74 2183.5 1277.17Z" stroke="#01919A" stroke-width="1.14583" stroke-linejoin="round" stroke-miterlimit="10" fill="none" fill-rule="evenodd"/><text font-family="Latha,Latha_MSFontService,sans-serif" font-weight="400" font-size="37" transform="translate(2219.22 1228)">உள்ளீடு<tspan font-size="37" x="164.427" y="0">எண்ணி</tspan></text><text font-family="Arial,Arial_MSFontService,sans-serif" font-weight="400" font-size="37" transform="matrix(1 0 0 1 2271.92 1275)">Tx_In_Count</text><path d="M2638.5 1207.83C2638.5 1198.26 2646.26 1190.5 2655.83 1190.5L3010.17 1190.5C3019.74 1190.5 3027.5 1198.26 3027.5 1207.83L3027.5 1277.17C3027.5 1286.74 3019.74 1294.5 3010.17 1294.5L2655.83 1294.5C2646.26 1294.5 2638.5 1286.74 2638.5 1277.17Z" stroke="#01919A" stroke-width="1.14583" stroke-linejoin="round" stroke-miterlimit="10" fill="none" fill-rule="evenodd"/><text font-family="Latha,Latha_MSFontService,sans-serif" font-weight="400" font-size="37" transform="translate(2702.36 1228)">உள்ளீடு<tspan font-size="37" x="164.427" y="0">தரவு</tspan></text><text font-family="Arial,Arial_MSFontService,sans-serif" font-weight="400" font-size="37" transform="matrix(1 0 0 1 2786.28 1275)">Tx_In</text><path d="M1728.5 1365.83C1728.5 1356.26 1736.26 1348.5 1745.83 1348.5L2101.17 1348.5C2110.74 1348.5 2118.5 1356.26 2118.5 1365.83L2118.5 1435.17C2118.5 1444.74 2110.74 1452.5 2101.17 1452.5L1745.83 1452.5C1736.26 1452.5 1728.5 1444.74 1728.5 1435.17Z" stroke="#01919A" stroke-width="1.14583" stroke-linejoin="round" stroke-miterlimit="10" fill="none" fill-rule="evenodd"/><text font-family="Latha,Latha_MSFontService,sans-serif" font-weight="400" font-size="37" transform="translate(1739.22 1386)">வெளியீடு எண்<tspan font-size="37" x="301.354" y="0">ணி</tspan></text><text font-family="Arial,Arial_MSFontService,sans-serif" font-weight="400" font-size="37" transform="matrix(1 0 0 1 1802.82 1433)">Tx_Out_Count</text><path d="M2189.5 1365.83C2189.5 1356.26 2197.26 1348.5 2206.83 1348.5L2562.17 1348.5C2571.74 1348.5 2579.5 1356.26 2579.5 1365.83L2579.5 1435.17C2579.5 1444.74 2571.74 1452.5 2562.17 1452.5L2206.83 1452.5C2197.26 1452.5 2189.5 1444.74 2189.5 1435.17Z" stroke="#01919A" stroke-width="1.14583" stroke-linejoin="round" stroke-miterlimit="10" fill="none" fill-rule="evenodd"/><text font-family="Latha,Latha_MSFontService,sans-serif" font-weight="400" font-size="37" transform="translate(2234.3 1386)">வெளியீடு<tspan font-size="37" x="203.958" y="0">தரவு</tspan></text><text font-family="Arial,Arial_MSFontService,sans-serif" font-weight="400" font-size="37" transform="matrix(1 0 0 1 2323.68 1433)">Tx_Out</text><path d="M2651.5 1365.83C2651.5 1356.26 2659.26 1348.5 2668.83 1348.5L3023.17 1348.5C3032.74 1348.5 3040.5 1356.26 3040.5 1365.83L3040.5 1435.17C3040.5 1444.74 3032.74 1452.5 3023.17 1452.5L2668.83 1452.5C2659.26 1452.5 2651.5 1444.74 2651.5 1435.17Z" stroke="#01919A" stroke-width="1.14583" stroke-linejoin="round" stroke-miterlimit="10" fill="none" fill-rule="evenodd"/><text font-family="Latha,Latha_MSFontService,sans-serif" font-weight="400" font-size="37" transform="translate(2711.63 1386)">பூட்டும்<tspan font-size="37" x="152.969" y="0">நேரம்</tspan></text><text font-family="Arial,Arial_MSFontService,sans-serif" font-weight="400" font-size="37" transform="matrix(1 0 0 1 2760.62 1433)">Lock Time</text></g></svg>