<svg width="1771" height="1241" xmlns="http://www.w3.org/2000/svg" xmlns:xlink="http://www.w3.org/1999/xlink" xml:space="preserve" overflow="hidden"><defs><clipPath id="clip0"><rect x="789" y="377" width="1771" height="1241"/></clipPath><clipPath id="clip1"><rect x="1225" y="797" width="169" height="169"/></clipPath><clipPath id="clip2"><rect x="1225" y="797" width="169" height="169"/></clipPath><clipPath id="clip3"><rect x="1225" y="797" width="169" height="212"/></clipPath><clipPath id="clip4"><rect x="1051" y="1490" width="658" height="129"/></clipPath><clipPath id="clip5"><rect x="1051" y="1490" width="658" height="129"/></clipPath><clipPath id="clip6"><rect x="1051" y="1490" width="658" height="129"/></clipPath></defs><g clip-path="url(#clip0)" transform="translate(-789 -377)"><path d="M793.5 779.503C793.5 702.182 856.182 639.5 933.503 639.5L2043.5 639.5C2120.82 639.5 2183.5 702.182 2183.5 779.503L2183.5 1339.5C2183.5 1416.82 2120.82 1479.5 2043.5 1479.5L933.503 1479.5C856.182 1479.5 793.5 1416.82 793.5 1339.5Z" stroke="#000000" stroke-width="1.14583" stroke-linejoin="round" stroke-miterlimit="10" fill="#FFFFFF" fill-rule="evenodd"/><path d="M1004.5 405.334C1004.5 391.618 1015.62 380.5 1029.33 380.5L1589.67 380.5C1603.38 380.5 1614.5 391.618 1614.5 405.334L1614.5 504.666C1614.5 518.381 1603.38 529.5 1589.67 529.5L1029.33 529.5C1015.62 529.5 1004.5 518.381 1004.5 504.666Z" stroke="#000000" stroke-width="1.14583" stroke-linejoin="round" stroke-miterlimit="10" fill="none" fill-rule="evenodd"/><text font-family="Latha,Latha_MSFontService,sans-serif" font-weight="400" font-size="37" transform="translate(1097.18 421)">நுகர்வி<tspan font-size="37" x="139.792" y="0"> </tspan><tspan font-size="37" x="160.99" y="0">பயன்பாடுகள்</tspan> <tspan font-size="37" x="30.0896" y="44">மற்றும் பயன்பாடு </tspan><tspan font-size="37" x="-41.8229" y="89">நிரலாக்க</tspan><tspan font-size="37" x="137.5" y="89"> </tspan><tspan font-size="37" x="158.698" y="89">இடைமுகங்</tspan><tspan font-size="37" x="398.177" y="89">கள்</tspan></text><path d="M1299.5 1188C1299.5 1162.87 1319.87 1142.5 1345 1142.5L2059 1142.5C2084.13 1142.5 2104.5 1162.87 2104.5 1188L2104.5 1370C2104.5 1395.13 2084.13 1415.5 2059 1415.5L1345 1415.5C1319.87 1415.5 1299.5 1395.13 1299.5 1370Z" stroke="#AE5E0E" stroke-width="1.14583" stroke-linejoin="round" stroke-miterlimit="10" fill="none" fill-rule="evenodd"/><text font-family="Latha,Latha_MSFontService,sans-serif" font-weight="400" font-size="37" transform="translate(1371.56 1187)">கட்டம்</text><path d="M1424.33 1276.28C1419.35 1276.28 1415.28 1272.2 1415.28 1267.13 1415.28 1245 1415.28 1245 1415.28 1245 1388.18 1245 1388.18 1245 1388.18 1245 1384.23 1245 1381 1248.29 1381 1252.38 1381 1318.62 1381 1318.62 1381 1318.62 1381 1322.71 1384.23 1326 1388.18 1326 1438.82 1326 1438.82 1326 1438.82 1326 1442.77 1326 1446 1322.71 1446 1318.62 1446 1276.28 1446 1276.28 1446 1276.28L1424.33 1276.28ZM1433.39 1311.25C1393.61 1311.25 1393.61 1311.25 1393.61 1311.25 1392.64 1311.25 1391.8 1310.46 1391.8 1309.4 1391.8 1308.42 1392.64 1307.56 1393.61 1307.56 1433.39 1307.56 1433.39 1307.56 1433.39 1307.56 1434.36 1307.56 1435.2 1308.42 1435.2 1309.4 1435.2 1310.46 1434.36 1311.25 1433.39 1311.25ZM1433.39 1300.19C1393.61 1300.19 1393.61 1300.19 1393.61 1300.19 1392.64 1300.19 1391.8 1299.4 1391.8 1298.41 1391.8 1297.35 1392.64 1296.56 1393.61 1296.56 1433.39 1296.56 1433.39 1296.56 1433.39 1296.56 1434.36 1296.56 1435.2 1297.35 1435.2 1298.41 1435.2 1299.4 1434.36 1300.19 1433.39 1300.19ZM1433.39 1289.19C1393.61 1289.19 1393.61 1289.19 1393.61 1289.19 1392.64 1289.19 1391.8 1288.33 1391.8 1287.34 1391.8 1286.29 1392.64 1285.5 1393.61 1285.5 1433.39 1285.5 1433.39 1285.5 1433.39 1285.5 1434.36 1285.5 1435.2 1286.29 1435.2 1287.34 1435.2 1288.33 1434.36 1289.19 1433.39 1289.19ZM1418.9 1267.13C1418.9 1248.36 1418.9 1248.36 1418.9 1248.36 1442.7 1272.59 1442.7 1272.59 1442.7 1272.59 1424.33 1272.59 1424.33 1272.59 1424.33 1272.59 1421.36 1272.59 1418.9 1270.16 1418.9 1267.13Z" fill="#AE5E0E" fill-rule="evenodd"/><rect x="1316.5" y="1189.5" width="234" height="156" stroke="#AE5E0E" stroke-width="1.14583" stroke-linejoin="round" stroke-miterlimit="10" fill="none"/><path d="M1709.67 1271.67C1704.76 1271.67 1700.75 1267.53 1700.75 1262.4 1700.75 1240 1700.75 1240 1700.75 1240 1674.07 1240 1674.07 1240 1674.07 1240 1670.18 1240 1667 1243.33 1667 1247.47 1667 1314.53 1667 1314.53 1667 1314.53 1667 1318.67 1670.18 1322 1674.07 1322 1723.93 1322 1723.93 1322 1723.93 1322 1727.82 1322 1731 1318.67 1731 1314.53 1731 1271.67 1731 1271.67 1731 1271.67L1709.67 1271.67ZM1718.58 1307.07C1679.42 1307.07 1679.42 1307.07 1679.42 1307.07 1678.46 1307.07 1677.63 1306.27 1677.63 1305.2 1677.63 1304.2 1678.46 1303.33 1679.42 1303.33 1718.58 1303.33 1718.58 1303.33 1718.58 1303.33 1719.54 1303.33 1720.37 1304.2 1720.37 1305.2 1720.37 1306.27 1719.54 1307.07 1718.58 1307.07ZM1718.58 1295.87C1679.42 1295.87 1679.42 1295.87 1679.42 1295.87 1678.46 1295.87 1677.63 1295.07 1677.63 1294.07 1677.63 1293 1678.46 1292.2 1679.42 1292.2 1718.58 1292.2 1718.58 1292.2 1718.58 1292.2 1719.54 1292.2 1720.37 1293 1720.37 1294.07 1720.37 1295.07 1719.54 1295.87 1718.58 1295.87ZM1718.58 1284.73C1679.42 1284.73 1679.42 1284.73 1679.42 1284.73 1678.46 1284.73 1677.63 1283.87 1677.63 1282.87 1677.63 1281.8 1678.46 1281 1679.42 1281 1718.58 1281 1718.58 1281 1718.58 1281 1719.54 1281 1720.37 1281.8 1720.37 1282.87 1720.37 1283.87 1719.54 1284.73 1718.58 1284.73ZM1704.32 1262.4C1704.32 1243.4 1704.32 1243.4 1704.32 1243.4 1727.75 1267.93 1727.75 1267.93 1727.75 1267.93 1709.67 1267.93 1709.67 1267.93 1709.67 1267.93 1706.74 1267.93 1704.32 1265.47 1704.32 1262.4Z" fill="#AE5E0E" fill-rule="evenodd"/><rect x="1576.5" y="1189.5" width="233" height="156" stroke="#AE5E0E" stroke-width="1.14583" stroke-linejoin="round" stroke-miterlimit="10" fill="none"/><path d="M1995.67 1278.67C1990.76 1278.67 1986.75 1274.53 1986.75 1269.4 1986.75 1247 1986.75 1247 1986.75 1247 1960.07 1247 1960.07 1247 1960.07 1247 1956.18 1247 1953 1250.33 1953 1254.47 1953 1321.53 1953 1321.53 1953 1321.53 1953 1325.67 1956.18 1329 1960.07 1329 2009.93 1329 2009.93 1329 2009.93 1329 2013.82 1329 2017 1325.67 2017 1321.53 2017 1278.67 2017 1278.67 2017 1278.67L1995.67 1278.67ZM2004.58 1314.07C1965.42 1314.07 1965.42 1314.07 1965.42 1314.07 1964.46 1314.07 1963.63 1313.27 1963.63 1312.2 1963.63 1311.2 1964.46 1310.33 1965.42 1310.33 2004.58 1310.33 2004.58 1310.33 2004.58 1310.33 2005.54 1310.33 2006.37 1311.2 2006.37 1312.2 2006.37 1313.27 2005.54 1314.07 2004.58 1314.07ZM2004.58 1302.87C1965.42 1302.87 1965.42 1302.87 1965.42 1302.87 1964.46 1302.87 1963.63 1302.07 1963.63 1301.07 1963.63 1300 1964.46 1299.2 1965.42 1299.2 2004.58 1299.2 2004.58 1299.2 2004.58 1299.2 2005.54 1299.2 2006.37 1300 2006.37 1301.07 2006.37 1302.07 2005.54 1302.87 2004.58 1302.87ZM2004.58 1291.73C1965.42 1291.73 1965.42 1291.73 1965.42 1291.73 1964.46 1291.73 1963.63 1290.87 1963.63 1289.87 1963.63 1288.8 1964.46 1288 1965.42 1288 2004.58 1288 2004.58 1288 2004.58 1288 2005.54 1288 2006.37 1288.8 2006.37 1289.87 2006.37 1290.87 2005.54 1291.73 2004.58 1291.73ZM1990.32 1269.4C1990.32 1250.4 1990.32 1250.4 1990.32 1250.4 2013.75 1274.93 2013.75 1274.93 2013.75 1274.93 1995.67 1274.93 1995.67 1274.93 1995.67 1274.93 1992.74 1274.93 1990.32 1272.47 1990.32 1269.4Z" fill="#AE5E0E" fill-rule="evenodd"/><rect x="1861.5" y="1188.5" width="234" height="156" stroke="#AE5E0E" stroke-width="1.14583" stroke-linejoin="round" stroke-miterlimit="10" fill="none"/><path d="M1550.5 1267.5 1576.51 1267.5" stroke="#AE5E0E" stroke-width="1.14583" stroke-linejoin="round" stroke-miterlimit="10" fill="none" fill-rule="evenodd"/><path d="M0 0 52.0003 0.668012" stroke="#AE5E0E" stroke-width="1.14583" stroke-linejoin="round" stroke-miterlimit="10" fill="none" fill-rule="evenodd" transform="matrix(1 0 0 -1 1809.5 1267.17)"/><text font-family="Latha,Latha_MSFontService,sans-serif" font-weight="400" font-size="37" transform="translate(1296.68 1138)">கட்டச்சங்கி<tspan font-size="37" x="226.875" y="0">லி</tspan></text><path d="M888.101 1157.1C889.714 1143.12 940.832 1143 943.05 1143 945.067 1143 990.337 1143.12 997.193 1154.63 997.697 1155.45 998 1156.16 998 1156.86 998 1156.98 998 1156.98 998 1156.98 991.446 1164.62 962.913 1167.56 943.05 1167.56 923.087 1167.56 894.755 1164.62 888.101 1157.1ZM998 1225.36C998 1193.76 998 1193.76 998 1193.76 995.782 1197.16 990.539 1199.87 981.767 1201.86 981.767 1234.88 981.767 1234.88 981.767 1234.88 990.136 1232.88 996.79 1229.94 998 1225.36ZM943.05 1205.62C928.733 1205.62 915.323 1204.33 905.241 1202.1 895.864 1199.98 890.319 1197.28 888 1193.76 888 1225.36 888 1225.36 888 1225.36 891.428 1238.52 940.832 1238.64 943.05 1238.64 944.159 1238.64 959.384 1238.64 973.499 1236.41 973.499 1203.51 973.499 1203.51 973.499 1203.51 964.627 1204.92 954.04 1205.62 943.05 1205.62ZM977.633 1255.09C975.314 1255.09 973.499 1252.97 973.499 1250.27 973.499 1240.75 973.499 1240.75 973.499 1240.75 964.627 1242.16 954.04 1242.87 943.05 1242.87 928.733 1242.87 915.323 1241.69 905.241 1239.34 895.864 1237.23 890.319 1234.64 888 1231 888 1261.2 888 1261.2 888 1261.2 888 1275.77 940.731 1276 943.05 1276 945.268 1276 998 1275.77 998 1261.2 998 1231 998 1231 998 1231 995.782 1234.53 990.539 1237.11 981.767 1239.23 981.767 1250.27 981.767 1250.27 981.767 1250.27 981.767 1252.97 979.952 1255.09 977.633 1255.09ZM943.05 1171.79C934.883 1171.79 900.099 1171.2 888 1161.92 888 1186.59 888 1186.59 888 1186.59 888 1201.16 940.731 1201.28 943.05 1201.28 944.159 1201.28 959.384 1201.28 973.499 1199.04 973.499 1169.79 973.499 1169.79 973.499 1169.79 960.795 1171.55 947.587 1171.79 943.05 1171.79ZM998 1186.59C998 1161.92 998 1161.92 998 1161.92 994.269 1164.85 988.422 1166.85 981.767 1168.26 981.767 1197.52 981.767 1197.52 981.767 1197.52 990.942 1195.28 998 1191.88 998 1186.59Z" fill="#AE5E0E" fill-rule="evenodd"/><text font-family="Latha,Latha_MSFontService,sans-serif" font-weight="400" font-size="32" transform="translate(827.855 1302)">நிலை <tspan font-size="32" x="122.604" y="0">தரவுத்தள</tspan><tspan font-size="32" x="293.906" y="0">ம்</tspan> <tspan font-size="32" x="40.1042" y="39">/ </tspan><tspan font-size="32" x="66.4583" y="39">உலக நிலை</tspan></text><path d="M811.5 1156.83C811.5 1125.72 836.722 1100.5 867.835 1100.5L2081.17 1100.5C2112.28 1100.5 2137.5 1125.72 2137.5 1156.83L2137.5 1382.17C2137.5 1413.28 2112.28 1438.5 2081.17 1438.5L867.835 1438.5C836.722 1438.5 811.5 1413.28 811.5 1382.17Z" stroke="#204497" stroke-width="3.4375" stroke-linejoin="round" stroke-miterlimit="10" fill="none" fill-rule="evenodd"/><text font-family="Arial,Arial_MSFontService,sans-serif" font-weight="400" font-size="32" transform="matrix(1 0 0 1 1082.68 1142)">‘</text><text font-family="Latha,Latha_MSFontService,sans-serif" font-weight="400" font-size="32" transform="translate(1089.55 1142)">பெறு<tspan font-size="32" x="87.0833" y="0">’</tspan></text><text font-family="Arial,Arial_MSFontService,sans-serif" font-weight="400" font-size="32" transform="matrix(1 0 0 1 1182.94 1142)">, <tspan font-size="32" x="-90.8187" y="38">‘</tspan></text><text font-family="Latha,Latha_MSFontService,sans-serif" font-weight="400" font-size="32" transform="translate(1098.99 1180)">இடு<tspan font-size="32" x="68.177" y="0">’</tspan></text><text font-family="Arial,Arial_MSFontService,sans-serif" font-weight="400" font-size="32" transform="matrix(1 0 0 1 1173.47 1180)">, <tspan font-size="32" x="-84.7916" y="39">‘</tspan></text><text font-family="Latha,Latha_MSFontService,sans-serif" font-weight="400" font-size="32" transform="translate(1095.55 1219)">நீக்கு</text><text font-family="Arial,Arial_MSFontService,sans-serif" font-weight="400" font-size="32" transform="matrix(1 0 0 1 1179.2 1219)">’</text><text font-family="Latha,Latha_MSFontService,sans-serif" font-weight="400" font-size="32" transform="translate(1346.99 1046)">பதிவு <tspan font-size="32" x="-99.1146" y="39">செய்யப்படுகி</tspan><tspan font-size="32" x="128.906" y="39">றது</tspan><tspan font-size="32" x="176.136" y="-159">தொடர்பு</tspan> <tspan font-size="32" x="148.338" y="-120">கொள்கிற</tspan><tspan font-size="32" x="315.629" y="-120">து</tspan><tspan font-size="37" x="-5.87231" y="-424">சமர்ப்பிக்கிற</tspan><tspan font-size="37" x="242.201" y="-424">து</tspan><tspan font-size="32" x="526.915" y="-228">வெளியிடுகி</tspan><tspan font-size="32" x="737.175" y="-228">றது</tspan><tspan fill="#204497" font-size="32" x="-496.326" y="5">பரவலாக்கப்பட்ட</tspan><tspan fill="#204497" font-size="32" x="-413.253" y="44">பேரேடு</tspan></text><path d="M2409.84 803 2375 883.816 2444.84 883.816 2409.84 803ZM2414.14 826.932 2413.34 858.964 2406.5 858.964 2405.7 826.932 2414.14 826.932ZM2405.23 868.721C2405.23 865.223 2407.3 862.83 2409.84 862.83 2412.39 862.83 2414.45 865.223 2414.45 868.721 2414.45 872.034 2412.86 874.611 2409.84 874.611 2407.3 874.611 2405.23 872.034 2405.23 868.721Z" fill="#FC3204" fill-rule="evenodd"/><path d="M2409.84 1193 2375 1274.81 2444.84 1274.81 2409.84 1193ZM2414.14 1217.23 2413.34 1249.65 2406.5 1249.65 2405.7 1217.23 2414.14 1217.23ZM2405.23 1259.53C2405.23 1255.99 2407.3 1253.57 2409.84 1253.57 2412.39 1253.57 2414.45 1255.99 2414.45 1259.53 2414.45 1262.89 2412.86 1265.5 2409.84 1265.5 2407.3 1265.5 2405.23 1262.89 2405.23 1259.53Z" fill="#FC3204" fill-rule="evenodd"/><text font-family="Latha,Latha_MSFontService,sans-serif" font-weight="400" font-size="28" transform="translate(1330.67 1229)">பரிவர்த்தனை<tspan font-size="28" x="259.871" y="0">பரிவர்த்தனை</tspan><tspan font-size="28" x="545.73" y="0">பரிவர்த்தனை</tspan><tspan font-size="37" x="-442.469" y="-605">இணையர்</tspan><tspan font-size="37" x="-241.948" y="-605"> </tspan><tspan font-size="37" x="-220.75" y="-605">/ </tspan><tspan font-size="37" x="-190.385" y="-605">கணு</tspan></text><path d="M1201.71 989.5 1201.71 1234.22C1201.71 1234.54 1201.45 1234.79 1201.14 1234.79L1083.41 1234.87 1083.41 1233.72 1201.14 1233.65 1200.56 1234.22 1200.56 989.5ZM1088.23 1247.97 1060.5 1234.68 1087.76 1220.47Z" fill="#7A797B"/><path d="M1310.07 529.497 1310.78 675.548 1309.63 675.554 1308.93 529.503ZM1323.93 670.901 1310.31 698.467 1296.43 671.034Z" fill="#7A797B"/><path d="M1139.5 746.668C1139.5 720.065 1161.07 698.5 1187.67 698.5L1433.33 698.5C1459.93 698.5 1481.5 720.065 1481.5 746.668L1481.5 939.332C1481.5 965.935 1459.93 987.5 1433.33 987.5L1187.67 987.5C1161.07 987.5 1139.5 965.935 1139.5 939.332Z" stroke="#000000" stroke-width="1.14583" stroke-linejoin="round" stroke-miterlimit="10" fill="none" fill-rule="evenodd"/><path d="M1614.5 454.927 1768.1 454.927C1768.42 454.927 1768.67 455.184 1768.67 455.5L1768.67 1121.23 1767.53 1121.23 1767.53 455.5 1768.1 456.073 1614.5 456.073ZM1781.85 1116.65 1768.1 1144.15 1754.35 1116.65Z" fill="#7A797B"/><path d="M1481.5 842.927 1768.67 842.927C1768.99 842.927 1769.25 843.184 1769.25 843.5L1769.25 1120.54 1768.1 1120.54 1768.1 843.5 1768.67 844.073 1481.5 844.073ZM1782.42 1115.96 1768.67 1143.46 1754.92 1115.96Z" fill="#7A797B"/><path d="M0.00150672-0.572915 4.58482-0.560861 4.58181 0.584969-0.00150672 0.572915ZM8.02231-0.551821 12.6056-0.539767 12.6026 0.606063 8.0193 0.594009ZM16.0431-0.530726 20.6264-0.518673 20.6234 0.627157 16.0401 0.615103ZM24.0639-0.509632 28.6472-0.497578 28.6442 0.648251 24.0609 0.636197ZM32.0847-0.488538 36.668-0.476484 36.665 0.669345 32.0817 0.657291ZM40.1055-0.467444 44.6888-0.45539 44.6858 0.690439 40.1025 0.678385ZM48.1263-0.44635 52.7097-0.434296 52.7066 0.711533 48.1233 0.69948ZM56.1471-0.425256 60.7305-0.413202 60.7274 0.732628 56.1441 0.720574ZM64.1679-0.404162 68.7513-0.392108 68.7483 0.753722 64.1649 0.741668ZM72.1888-0.383067 76.7721-0.371014 76.7691 0.774816 72.1857 0.762762ZM80.2096-0.361973 84.7929-0.349919 84.7899 0.79591 80.2065 0.783856ZM88.2304-0.340879 92.8137-0.328825 92.8107 0.817004 88.2273 0.80495ZM96.2512-0.319785 100.834-0.307731 100.831 0.838098 96.2482 0.826044ZM104.272-0.298691 108.855-0.286637 108.852 0.859192 104.269 0.847138ZM112.293-0.277597 116.876-0.265543 116.873 0.880287 112.29 0.868233ZM120.314-0.256503 124.897-0.244449 124.894 0.901381 120.311 0.889327ZM128.334-0.235408 132.918-0.223355 132.915 0.922475 128.331 0.910421ZM136.355-0.214314 140.939-0.20226 140.936 0.943569 136.352 0.931515ZM144.376-0.19322 148.959-0.181166 148.956 0.964663 144.373 0.952609ZM152.397-0.172126 156.98-0.160072 156.977 0.985757 152.394 0.973703ZM160.418-0.151032 165.001-0.138978 164.998 1.00685 160.415 0.994798ZM168.438-0.129938 173.022-0.117884 173.019 1.02795 168.435 1.01589ZM176.459-0.108844 181.043-0.0967897 181.04 1.04904 176.456 1.03699ZM184.48-0.0877494 189.063-0.0756956 189.06 1.07013 184.477 1.05808ZM192.501-0.0666553 197.084-0.0546014 197.081 1.09123 192.498 1.07917ZM200.522-0.0455611 205.105-0.0335073 205.102 1.11232 200.519 1.10027ZM208.542-0.024467 213.126-0.0124132 213.123 1.13342 208.539 1.12136ZM216.563-0.00337284 221.147 0.00868098 221.144 1.15451 216.56 1.14246ZM224.584 0.0177213 229.167 0.0297751 229.164 1.1756 224.581 1.16355ZM232.605 0.0388154 237.188 0.0508693 237.185 1.1967 232.602 1.18464ZM240.626 0.0599096 245.209 0.0719634 245.206 1.21779 240.623 1.20574ZM248.646 0.0810037 253.23 0.0930576 253.227 1.23889 248.643 1.22683ZM256.667 0.102098 261.251 0.114152 261.248 1.25998 256.664 1.24793ZM264.688 0.123192 269.271 0.135246 269.268 1.28108 264.685 1.26902ZM272.709 0.144286 277.292 0.15634 277.289 1.30217 272.706 1.29012ZM280.73 0.16538 285.313 0.177434 285.31 1.32326 280.727 1.31121ZM288.75 0.186474 293.334 0.198528 293.331 1.34436 288.747 1.3323ZM296.771 0.207569 301.355 0.219622 301.352 1.36545 296.768 1.3534ZM304.792 0.228663 309.375 0.240717 309.372 1.38655 304.789 1.37449ZM312.813 0.249757 317.396 0.261811 317.393 1.40764 312.81 1.39559ZM320.834 0.270851 325.417 0.282905 325.414 1.42873 320.831 1.41668ZM328.854 0.291945 333.438 0.303999 333.435 1.44983 328.851 1.43777ZM336.875 0.313039 341.459 0.325093 341.456 1.47092 336.872 1.45887ZM344.896 0.334133 349.479 0.346187 349.476 1.49202 344.893 1.47996ZM352.917 0.355228 357.5 0.367281 357.497 1.51311 352.914 1.50106ZM360.938 0.376322 365.521 0.388375 365.518 1.5342 360.935 1.52215ZM368.958 0.397416 373.542 0.40947 373.539 1.5553 368.955 1.54325ZM376.979 0.41851 381.563 0.430564 381.56 1.57639 376.976 1.56434ZM385 0.439604 389.583 0.451658 389.58 1.59749 384.997 1.58543ZM393.021 0.460698 397.604 0.472752 397.601 1.61858 393.018 1.60653ZM401.042 0.481792 405.625 0.493846 405.622 1.63968 401.039 1.62762ZM409.063 0.502887 413.646 0.51494 413.643 1.66077 409.06 1.64872ZM417.083 0.523981 421.667 0.536034 421.664 1.68186 417.08 1.66981ZM425.104 0.545075 429.688 0.557129 429.685 1.70296 425.101 1.6909ZM433.125 0.566169 437.708 0.578223 437.705 1.72405 433.122 1.712ZM441.146 0.587263 445.729 0.599317 445.726 1.74515 441.143 1.73309ZM449.167 0.608357 453.75 0.620411 453.747 1.76624 449.164 1.75419ZM457.188 0.629451 461.771 0.641505 461.768 1.78733 457.185 1.77528ZM465.208 0.650546 469.792 0.662599 469.789 1.80843 465.205 1.79638ZM473.229 0.67164 477.813 0.683693 477.81 1.82952 473.226 1.81747ZM481.25 0.692734 485.833 0.704788 485.83 1.85062 481.247 1.83856ZM489.271 0.713828 493.854 0.725882 493.851 1.87171 489.268 1.85966ZM497.292 0.734922 501.875 0.746976 501.872 1.89281 497.289 1.88075ZM505.313 0.756016 509.896 0.76807 509.893 1.9139 505.31 1.90185ZM513.333 0.77711 517.917 0.789164 517.914 1.93499 513.33 1.92294ZM521.354 0.798205 525.938 0.810258 525.935 1.95609 521.351 1.94403ZM529.375 0.819299 533.958 0.831352 533.955 1.97718 529.372 1.96513ZM537.396 0.840393 541.979 0.852447 541.976 1.99828 537.393 1.98622ZM545.417 0.861487 550 0.873541 549.997 2.01937 545.414 2.00732ZM553.437 0.882581 558.021 0.894635 558.018 2.04046 553.434 2.02841ZM561.458 0.903675 566.042 0.915729 566.039 2.06156 561.455 2.0495ZM569.479 0.924769 574.062 0.936823 574.059 2.08265 569.476 2.0706ZM577.5 0.945863 582.083 0.957917 582.08 2.10375 577.497 2.09169ZM585.521 0.966957 590.104 0.979011 590.101 2.12484 585.518 2.11279ZM593.541 0.988051 598.125 1.00011 598.122 2.14593 593.538 2.13388ZM601.562 1.00915 606.145 1.0212 606.143 2.16703 601.559 2.15497ZM609.583 1.03024 614.166 1.04229 614.163 2.18812 609.58 2.17607ZM617.604 1.05133 622.187 1.06339 622.184 2.20922 617.601 2.19716ZM625.625 1.07243 630.208 1.08448 630.205 2.23031 625.622 2.21826ZM633.645 1.09352 638.229 1.10558 638.226 2.25141 633.642 2.23935ZM641.666 1.11462 646.249 1.12667 646.246 2.2725 641.663 2.26045ZM649.687 1.13571 654.27 1.14776 654.267 2.29359 649.684 2.28154ZM657.708 1.1568 662.291 1.16886 662.288 2.31469 657.705 2.30263ZM665.729 1.1779 670.312 1.18995 670.309 2.33578 665.726 2.32373ZM673.749 1.19899 678.333 1.21105 678.33 2.35688 673.746 2.34482ZM681.77 1.22009 686.353 1.23214 686.35 2.37797 681.767 2.36592ZM689.791 1.24118 694.374 1.25323 694.371 2.39906 689.788 2.38701ZM697.812 1.26228 702.395 1.27433 702.392 2.42016 697.809 2.4081ZM705.833 1.28337 710.416 1.29542 710.413 2.44125 705.83 2.4292ZM713.853 1.30446 718.437 1.31652 718.434 2.46235 713.85 2.45029ZM721.874 1.32556 726.457 1.33761 726.454 2.48344 721.871 2.47139ZM729.895 1.34665 734.478 1.35871 734.475 2.50454 729.892 2.49248ZM737.916 1.36775 742.499 1.3798 742.496 2.52563 737.913 2.51358ZM745.936 1.38884 750.52 1.40089 750.517 2.54672 745.933 2.53467ZM753.957 1.40993 758.541 1.42199 758.538 2.56782 753.954 2.55576ZM761.978 1.43103 766.562 1.44308 766.558 2.58891 761.975 2.57686ZM769.999 1.45212 774.582 1.46418 774.579 2.61001 769.996 2.59795ZM778.02 1.47322 782.597 1.48525 782.594 2.63108 778.017 2.61905ZM778.048-11.7038 805.512 2.11844 777.976 15.7961Z" fill="#7A797B" transform="matrix(1 0 0 -1 1481.5 843.618)"/><text font-family="Latha,Latha_MSFontService,sans-serif" font-weight="400" font-size="37" transform="translate(2306.16 923)">நிகழ்வுக<tspan font-size="37" x="169.583" y="0">ள்</tspan><tspan font-size="37" x="0" y="389">நிகழ்வுக</tspan><tspan font-size="37" x="169.583" y="389">ள்</tspan></text><path d="M2137.5 1268.93 2142.08 1268.93 2142.08 1270.07 2137.5 1270.07ZM2145.52 1268.93 2150.1 1268.93 2150.1 1270.07 2145.52 1270.07ZM2153.54 1268.93 2158.12 1268.93 2158.12 1270.07 2153.54 1270.07ZM2161.56 1268.93 2166.15 1268.93 2166.15 1270.07 2161.56 1270.07ZM2169.58 1268.93 2174.17 1268.93 2174.17 1270.07 2169.58 1270.07ZM2177.6 1268.93 2182.19 1268.93 2182.19 1270.07 2177.6 1270.07ZM2185.62 1268.93 2190.21 1268.93 2190.21 1270.07 2185.62 1270.07ZM2193.65 1268.93 2198.23 1268.93 2198.23 1270.07 2193.65 1270.07ZM2201.67 1268.93 2206.25 1268.93 2206.25 1270.07 2201.67 1270.07ZM2209.69 1268.93 2214.27 1268.93 2214.27 1270.07 2209.69 1270.07ZM2217.71 1268.93 2222.29 1268.93 2222.29 1270.07 2217.71 1270.07ZM2225.73 1268.93 2230.31 1268.93 2230.31 1270.07 2225.73 1270.07ZM2233.75 1268.93 2238.33 1268.93 2238.33 1270.07 2233.75 1270.07ZM2241.77 1268.93 2246.35 1268.93 2246.35 1270.07 2241.77 1270.07ZM2249.79 1268.93 2254.38 1268.93 2254.38 1270.07 2249.79 1270.07ZM2257.81 1268.93 2262.4 1268.93 2262.4 1270.07 2257.81 1270.07ZM2265.83 1268.93 2270.42 1268.93 2270.42 1270.07 2265.83 1270.07ZM2265.91 1255.75 2293.41 1269.5 2265.91 1283.25Z" fill="#7A797B"/><text fill="#F79A0B" font-family="Latha,Latha_MSFontService,sans-serif" font-weight="400" font-size="37" transform="translate(1256.02 752)">திறன் <tspan font-size="37" x="-71.6145" y="44">ஒப்பந்தங்கள்</tspan></text><path d="M0-0.572917 282.858-0.572917C283.174-0.572917 283.431-0.316413 283.431 0L283.431 32.2991 282.285 32.2991 282.285 0 282.858 0.572917 0 0.572917ZM296.608 27.7158 282.858 55.2158 269.108 27.7158Z" fill="#7A797B" transform="matrix(1.83697e-16 1 1 -1.83697e-16 1244.5 996.5)"/><rect x="831.5" y="824.5" width="260" height="167" stroke="#01919A" stroke-width="1.14583" stroke-linejoin="round" stroke-miterlimit="10" fill="none"/><text fill="#01919A" font-family="Latha,Latha_MSFontService,sans-serif" font-weight="400" font-size="37" transform="translate(890.524 873)">கருத்து<tspan font-size="37" x="141.51" y="0"> </tspan><tspan font-size="37" x="-6.57709" y="44">இணக்க</tspan><tspan font-size="37" x="148.11" y="44"> </tspan><tspan font-size="37" x="-26.0562" y="88">தீர்வுநெ</tspan><tspan font-size="37" x="127.485" y="88">றி</tspan></text><rect x="831.5" y="694.5" width="260" height="122" stroke="#DC7476" stroke-width="1.14583" stroke-linejoin="round" stroke-miterlimit="10" fill="none"/><text fill="#DC7476" font-family="Latha,Latha_MSFontService,sans-serif" font-weight="400" font-size="37" transform="translate(866.473 743)">மெய்நிகர்<tspan font-size="37" x="189.635" y="0"> </tspan><tspan font-size="37" x="21.1979" y="44">கணினி</tspan></text><g clip-path="url(#clip1)"><g clip-path="url(#clip2)"><g clip-path="url(#clip3)"><path d="M95.8012 119.773 98.3823 119.773 91.5164 126.217 69.5862 126.217 76.4858 119.773 81.2767 119.773 81.2767 116.399 75.1531 116.399 63.6819 127.178 63.6819 143.238 56.7992 143.238 56.7992 146.612 63.6819 146.612 63.6819 150.728 92.866 150.728 97.252 146.612 103.443 146.612 103.443 143.238 100.828 143.238 104.32 139.864 104.32 116.399 95.8012 116.399ZM91.5164 147.354 67.0558 147.354 67.0558 129.591 90.5043 129.591 90.5043 137.232 93.8781 137.232 93.8781 128.629 100.946 121.983 100.946 138.498Z" fill="#F79A0B" transform="matrix(1.00181 0 0 1 1225 798)"/><path d="M90.5043 139.729 93.8781 139.729 93.8781 144.587 90.5043 144.587Z" fill="#F79A0B" transform="matrix(1.00181 0 0 1 1225 798)"/><path d="M115.319 127.178 115.319 143.238 107.154 143.238 107.154 146.612 115.319 146.612 115.319 150.728 144.503 150.728 155.957 140.016 155.957 116.399 126.79 116.399ZM143.17 147.422 118.693 147.422 118.693 129.591 142.141 129.591 142.141 137.232 145.515 137.232 145.515 128.629 152.584 121.983 152.584 138.498ZM150.019 119.773 143.17 126.217 121.24 126.217 128.207 119.773Z" fill="#F79A0B" transform="matrix(1.00181 0 0 1 1225 798)"/><path d="M142.141 139.729 145.515 139.729 145.515 144.587 142.141 144.587Z" fill="#F79A0B" transform="matrix(1.00181 0 0 1 1225 798)"/><path d="M52.5313 140.016 52.5313 116.399 23.3472 116.399 11.8086 127.178 11.8086 150.795 40.9926 150.795 45.3786 146.679 53.0205 146.679 53.0205 143.305 48.9718 143.305ZM24.6799 119.773 46.6101 119.773 39.7611 126.217 17.8309 126.217ZM39.7274 147.354 15.1824 147.354 15.1824 129.591 38.6309 129.591 38.6309 137.232 42.0048 137.232 42.0048 128.629 49.0899 121.983 49.0899 138.498Z" fill="#F79A0B" transform="matrix(1.00181 0 0 1 1225 798)"/><path d="M38.6984 139.729 42.0722 139.729 42.0722 144.587 38.6984 144.587Z" fill="#F79A0B" transform="matrix(1.00181 0 0 1 1225 798)"/><path d="M59.0428 91.0947 82.66 91.0947 82.66 102.262 86.0339 102.262 86.0339 91.0947 109.651 91.0947 109.651 73.23 115.15 78.7294 127.364 78.7294C128.476 82.2863 132.261 84.2685 135.817 83.1566 139.375 82.0448 141.357 78.2599 140.245 74.703 139.133 71.1461 135.348 69.164 131.791 70.2758 129.45 71.0076 127.69 72.9527 127.195 75.3555L116.551 75.3555 109.651 68.4728 109.651 59.0428 123.383 59.0428C124.314 62.6512 127.995 64.8211 131.603 63.8894 135.212 62.9577 137.381 59.2773 136.45 55.669 135.518 52.0606 131.838 49.8907 128.229 50.8224 125.852 51.4361 123.996 53.2921 123.383 55.669L109.651 55.669 109.651 47.2343 116.028 47.2343 125.778 37.4838 131.48 37.4838C132.412 41.0921 136.092 43.262 139.7 42.3303 143.309 41.3987 145.479 37.7183 144.547 34.1099 143.615 30.5015 139.935 28.3316 136.327 29.2633 133.95 29.877 132.094 31.733 131.48 34.1099L124.378 34.1099 114.712 43.8604 109.651 43.8604 109.651 17.7972 59.0428 17.7972 59.0428 43.8604 54.7412 43.8604 44.9907 34.1099 37.8886 34.1099C36.9569 30.5015 33.2766 28.3316 29.6682 29.2633 26.0598 30.195 23.8899 33.8754 24.8216 37.4838 25.7533 41.0921 29.4337 43.262 33.0421 42.3303 35.419 41.7166 37.2749 39.8607 37.8886 37.4838L43.5905 37.4838 53.341 47.2343 59.0428 47.2343 59.0428 55.669 45.9859 55.669C45.0542 52.0606 41.3739 49.8907 37.7655 50.8224 34.1571 51.7541 31.9872 55.4345 32.9189 59.0428 33.8506 62.6512 37.531 64.8211 41.1394 63.8894 43.5163 63.2757 45.3722 61.4197 45.9859 59.0428L59.0428 59.0428 59.0428 69.1645 52.818 75.3893 42.1735 75.3893C41.44 71.7355 37.8832 69.3683 34.2295 70.1017 30.5758 70.8352 28.2085 74.3918 28.942 78.0457 29.6754 81.6994 33.2322 84.0667 36.8859 83.3332 39.2908 82.8504 41.2443 81.1006 41.9879 78.7632L54.2182 78.7632 59.0428 73.9048ZM133.791 73.3818C135.654 73.3818 137.165 74.8923 137.165 76.7557 137.165 78.6191 135.654 80.1296 133.791 80.1296 131.928 80.1296 130.417 78.6191 130.417 76.7557 130.417 74.8923 131.928 73.3818 133.791 73.3818ZM129.894 53.982C131.758 53.982 133.268 55.4925 133.268 57.3559 133.268 59.2193 131.758 60.7298 129.894 60.7298 128.031 60.7298 126.52 59.2193 126.52 57.3559 126.52 55.4925 128.031 53.982 129.894 53.982ZM137.975 32.423C139.838 32.423 141.349 33.9334 141.349 35.7968 141.349 37.6602 139.838 39.1707 137.975 39.1707 136.111 39.1707 134.601 37.6602 134.601 35.7968 134.601 33.9334 136.111 32.423 137.975 32.423ZM31.3771 39.1707C29.5137 39.1707 28.0032 37.6602 28.0032 35.7968 28.0032 33.9334 29.5137 32.423 31.3771 32.423 33.2404 32.423 34.7509 33.9334 34.7509 35.7968 34.7509 37.6602 33.2404 39.1707 31.3771 39.1707ZM39.4744 60.7298C37.611 60.7298 36.1005 59.2193 36.1005 57.3559 36.1005 55.4925 37.611 53.982 39.4744 53.982 41.3378 53.982 42.8482 55.4925 42.8482 57.3559 42.8482 59.2193 41.3378 60.7298 39.4744 60.7298ZM35.5775 80.1296C33.7141 80.1296 32.2037 78.6191 32.2037 76.7557 32.2037 74.8923 33.7141 73.3818 35.5775 73.3818 37.4409 73.3818 38.9514 74.8923 38.9514 76.7557 38.9514 78.6191 37.4409 80.1296 35.5775 80.1296ZM62.4167 21.1711 106.277 21.1711 106.277 26.991 62.4167 26.991ZM106.277 30.3649 106.277 87.7208 62.4167 87.7208 62.4167 70.5309 62.5854 70.3622 62.4167 70.1766 62.4167 30.3649Z" fill="#F79A0B" transform="matrix(1.00181 0 0 1 1225 798)"/><path d="M82.66 107.61 86.0339 107.61 86.0339 114.391 82.66 114.391Z" fill="#F79A0B" transform="matrix(1.00181 0 0 1 1225 798)"/><path d="M80.9731 40.4865 101.216 40.4865 101.216 43.8604 80.9731 43.8604Z" fill="#F79A0B" transform="matrix(1.00181 0 0 1 1225 798)"/><path d="M80.9731 55.669 101.216 55.669 101.216 59.0428 80.9731 59.0428Z" fill="#F79A0B" transform="matrix(1.00181 0 0 1 1225 798)"/><path d="M80.9731 70.8514 101.216 70.8514 101.216 74.2253 80.9731 74.2253Z" fill="#F79A0B" transform="matrix(1.00181 0 0 1 1225 798)"/><path d="M67.4775 38.7996 74.2253 38.7996 74.2253 45.5473 67.4775 45.5473Z" fill="#F79A0B" transform="matrix(1.00181 0 0 1 1225 798)"/><path d="M67.4775 53.982 74.2253 53.982 74.2253 60.7298 67.4775 60.7298Z" fill="#F79A0B" transform="matrix(1.00181 0 0 1 1225 798)"/><path d="M67.4775 69.1645 74.2253 69.1645 74.2253 75.9122 67.4775 75.9122Z" fill="#F79A0B" transform="matrix(1.00181 0 0 1 1225 798)"/><text fill="#F79A0B" font-family="Arial,Arial_MSFontService,sans-serif" font-weight="700" font-size="5" transform="matrix(1.69 0 0 1.68694 1225 992)">Created by James Fok<tspan font-size="5" x="0" y="4.74232">from the Noun Project</tspan></text></g></g></g><g clip-path="url(#clip4)"><g clip-path="url(#clip5)"><g clip-path="url(#clip6)"><path d="M39.7335 123.653C39.3909 123.653 39.3909 123.653 39.0484 123.311L0.34253 68.506C0.34253 68.1634 0.34253 68.1634 0.34253 67.8209L28.43 6.8506C28.43 6.50807 28.7725 6.50807 29.115 6.50807L95.9084 0C96.2509 0 96.2509 0 96.5934 0.34253L135.299 55.1473C135.299 55.4898 135.299 55.4898 135.299 55.8324L107.212 116.803C107.212 117.145 106.869 117.145 106.527 117.145L39.7335 123.653 39.7335 123.653ZM1.71265 68.1634 40.076 122.283 106.184 116.118 133.929 55.8324 95.5658 1.37012 29.4576 7.53566 1.71265 68.1634ZM106.527 116.803 106.527 116.803 106.527 116.803Z" fill="#2F3134" transform="matrix(1 0 0 1.00725 1052.37 1490)"/><path d="M39.3909 123.653 28.7725 67.8209 28.7725 6.8506 81.1796 22.2644 135.299 55.8324 94.8808 91.4555 39.3909 123.653ZM29.115 7.53566 29.115 67.8209 39.7335 122.626 94.1957 91.1129 133.587 55.8324 80.152 22.607 29.115 7.53566Z" fill="#2F3134" transform="matrix(1 0 0 1.00725 1052.37 1490)"/><path d="M83.9198 22.607C83.9198 23.742 82.9997 24.6621 81.8646 24.6621 80.7296 24.6621 79.8095 23.742 79.8095 22.607 79.8095 21.4719 80.7296 20.5518 81.8646 20.5518 82.9997 20.5518 83.9198 21.4719 83.9198 22.607Z" fill="#2F3134" transform="matrix(1 0 0 1.00725 1052.37 1490)"/><path d="M81.8646 26.7173C79.8095 26.7173 77.7543 25.0047 77.7543 22.607 77.7543 20.5518 79.4669 18.4966 81.8646 18.4966 83.9198 18.4966 85.975 20.2093 85.975 22.607 85.6325 24.6621 83.9198 26.7173 81.8646 26.7173ZM81.8646 22.607 81.8646 22.607C81.5221 22.607 81.8646 22.607 81.8646 22.607L81.8646 22.607Z" fill="#2F3134" transform="matrix(1 0 0 1.00725 1052.37 1490)"/><path d="M96.936 91.1129C96.936 92.248 96.0158 93.1681 94.8808 93.1681 93.7457 93.1681 92.8256 92.248 92.8256 91.1129 92.8256 89.9779 93.7457 89.0578 94.8808 89.0578 96.0158 89.0578 96.936 89.9779 96.936 91.1129Z" fill="#2F3134" transform="matrix(1 0 0 1.00725 1052.37 1490)"/><path d="M94.8808 95.2233C92.8256 95.2233 90.7704 93.5107 90.7704 91.1129 90.7704 88.7152 92.4831 87.0026 94.8808 87.0026 96.936 87.0026 98.9911 88.7152 98.9911 91.1129 98.9911 93.5107 96.936 95.2233 94.8808 95.2233ZM94.8808 91.1129 94.8808 91.1129C94.5382 91.1129 94.5382 91.1129 94.8808 91.1129L94.8808 91.1129Z" fill="#2F3134" transform="matrix(1 0 0 1.00725 1052.37 1490)"/><path d="M42.1312 122.968C42.1312 124.103 41.211 125.023 40.076 125.023 38.9409 125.023 38.0208 124.103 38.0208 122.968 38.0208 121.833 38.9409 120.913 40.076 120.913 41.211 120.913 42.1312 121.833 42.1312 122.968Z" fill="#2F3134" transform="matrix(1 0 0 1.00725 1052.37 1490)"/><path d="M40.076 127.079C38.0208 127.079 35.9656 125.366 35.9656 122.968 35.9656 120.913 37.6783 118.858 40.076 118.858 42.4737 118.858 44.1864 120.571 44.1864 122.968 44.1864 125.366 42.4737 127.079 40.076 127.079ZM40.076 122.968 40.076 122.968 40.076 122.968 40.076 122.968Z" fill="#2F3134" transform="matrix(1 0 0 1.00725 1052.37 1490)"/><path d="M31.1702 68.1634C31.1702 69.2985 30.2501 70.2186 29.115 70.2186 27.98 70.2186 27.0599 69.2985 27.0599 68.1634 27.0599 67.0284 27.98 66.1083 29.115 66.1083 30.2501 66.1083 31.1702 67.0284 31.1702 68.1634Z" fill="#2F3134" transform="matrix(1 0 0 1.00725 1052.37 1490)"/><path d="M29.115 72.2738C27.0599 72.2738 25.0047 70.5612 25.0047 68.1634 25.0047 66.1083 26.7173 64.0531 29.115 64.0531 31.5127 64.0531 33.2254 65.7657 33.2254 68.1634 32.8829 70.5612 31.1702 72.2738 29.115 72.2738ZM29.115 68.1634 29.115 68.1634C28.7725 68.1634 28.7725 68.506 29.115 68.1634L29.115 68.1634Z" fill="#2F3134" transform="matrix(1 0 0 1.00725 1052.37 1490)"/><path d="M136.669 55.8324C136.669 56.9674 135.749 57.8875 134.614 57.8875 133.479 57.8875 132.559 56.9674 132.559 55.8324 132.559 54.6973 133.479 53.7772 134.614 53.7772 135.749 53.7772 136.669 54.6973 136.669 55.8324Z" fill="#2F3134" transform="matrix(1 0 0 1.00725 1052.37 1490)"/><path d="M134.614 59.9427C132.559 59.9427 130.504 58.2301 130.504 55.8324 130.504 53.7772 132.217 51.722 134.614 51.722 136.669 51.722 138.725 53.4347 138.725 55.8324 138.725 57.8875 136.669 59.9427 134.614 59.9427ZM134.614 55.8324 134.614 55.8324 134.614 55.8324 134.614 55.8324Z" fill="#2F3134" transform="matrix(1 0 0 1.00725 1052.37 1490)"/><path d="M31.1702 6.8506C31.1702 7.98564 30.2501 8.90578 29.115 8.90578 27.98 8.90578 27.0599 7.98564 27.0599 6.8506 27.0599 5.71555 27.98 4.79542 29.115 4.79542 30.2501 4.79542 31.1702 5.71555 31.1702 6.8506Z" fill="#2F3134" transform="matrix(1 0 0 1.00725 1052.37 1490)"/><path d="M29.115 10.961C27.0599 10.961 25.0047 9.24831 25.0047 6.8506 25.0047 4.79542 26.7173 2.74024 29.115 2.74024 31.5127 2.74024 33.2254 4.45289 33.2254 6.8506 32.8829 9.24831 31.1702 10.961 29.115 10.961ZM29.115 6.8506 29.115 6.8506C28.7725 7.19313 28.7725 7.19313 29.115 6.8506L29.115 6.8506Z" fill="#2F3134" transform="matrix(1 0 0 1.00725 1052.37 1490)"/><path d="M106.527 117.488C106.527 117.488 106.184 117.488 106.527 117.488L55.1473 99.3337 0.34253 68.506C0 68.506 0 68.1634 0 68.1634 0 67.8209 0 67.8209 0.34253 67.4784L41.4461 29.8001 95.2233 0.34253C95.5658 0.34253 95.5658 0.34253 95.9084 0.34253 96.2509 0.34253 96.2509 0.68506 96.2509 0.68506L108.239 53.7772 106.869 116.803C106.869 117.145 106.869 117.145 106.527 117.488 106.869 117.488 106.527 117.488 106.527 117.488ZM2.05518 67.8209 55.8324 97.9635 105.842 115.775 107.212 53.7772 95.2233 1.71265 42.4737 30.8277 2.05518 67.8209Z" fill="#2F3134" transform="matrix(1 0 0 1.00725 1052.37 1490)"/><path d="M94.8808 91.4555 94.8808 91.4555 28.43 68.506 28.7725 68.1634 81.8646 22.2644 94.8808 91.4555ZM29.115 68.1634 94.5382 90.7704 81.5221 22.9495 29.115 68.1634Z" fill="#2F3134" transform="matrix(1 0 0 1.00725 1052.37 1490)"/><path d="M55.1473 100.019 41.1036 29.4576 108.924 53.7772 55.1473 100.019ZM42.8162 31.1702 55.8324 97.2785 106.527 53.7772 42.8162 31.1702Z" fill="#2F3134" transform="matrix(1 0 0 1.00725 1052.37 1490)"/><path d="M34.9979 5.14675 36.3704 5.14675 36.3704 31.9099 34.9979 31.9099Z" fill="#2F3134" transform="matrix(0.870309 -0.492507 0.488962 0.876618 1047.88 1509.91)"/><path d="M40.7611 123.311 39.7335 122.626 55.1473 98.3061 56.1749 98.9911Z" fill="#2F3134" transform="matrix(1 0 0 1.00725 1052.37 1490)"/><path d="M120.57 41.446 121.94 41.446 121.94 68.1632 120.57 68.1632Z" fill="#2F3134" transform="matrix(0.0728624 -1.00453 0.997304 0.0733906 1110.06 1662.92)"/><path d="M165.099 39.0484 175.718 39.0484 175.718 57.2025 196.612 57.2025 196.612 39.0484 207.231 39.0484 207.231 87.6876 196.612 87.6876 196.612 66.7933 175.718 66.7933 175.718 87.6876 165.099 87.6876 165.099 39.0484Z" fill="#2F3134" transform="matrix(1 0 0 1.00725 1052.37 1490)"/><path d="M228.81 67.1359 210.313 39.0484 223.672 39.0484 233.948 57.2025 244.909 39.0484 257.582 39.0484 239.428 67.1359 239.428 88.0302 228.81 88.0302 228.81 67.1359Z" fill="#2F3134" transform="matrix(1 0 0 1.00725 1052.37 1490)"/><path d="M260.665 39.0484 278.819 39.0484C281.217 39.0484 283.615 39.3909 286.012 39.7335 288.41 40.076 290.123 41.1036 291.835 42.1312 293.548 43.1588 294.918 44.8714 295.946 46.5841 296.973 48.6392 297.316 51.0369 297.316 53.7772 297.316 56.5174 296.973 58.9151 295.946 60.9703 294.918 63.0255 293.891 64.3956 292.178 65.4232 290.465 66.4508 288.753 67.4784 286.355 67.8209 284.3 68.1634 281.902 68.506 279.162 68.506L271.284 68.506 271.284 87.3451 260.665 87.3451 260.665 39.0484ZM271.284 59.6002 278.477 59.6002C279.504 59.6002 280.532 59.6002 281.217 59.2577 282.245 58.9151 282.93 58.9151 283.615 58.2301 284.3 57.8875 284.985 57.2025 285.327 56.5174 285.67 55.8324 286.012 54.8048 286.012 53.7772 286.012 52.4071 285.67 51.3795 284.985 50.6944 284.3 50.0094 283.615 49.3243 282.93 48.9818 281.902 48.6392 280.874 48.2967 279.847 48.2967 278.819 48.2967 277.792 48.2967 276.764 48.2967L271.284 48.2967 271.284 59.6002Z" fill="#2F3134" transform="matrix(1 0 0 1.00725 1052.37 1490)"/><path d="M303.824 39.0484 337.049 39.0484 337.049 48.9818 314.785 48.9818 314.785 58.2301 336.022 58.2301 336.022 68.1634 314.785 68.1634 314.785 78.0968 338.42 78.0968 338.42 88.0302 304.167 88.0302 303.824 39.0484Z" fill="#2F3134" transform="matrix(1 0 0 1.00725 1052.37 1490)"/><path d="M345.955 39.0484 364.794 39.0484C367.192 39.0484 369.59 39.3909 371.987 39.7335 374.385 40.076 376.098 41.1036 377.81 42.1312 379.523 43.1588 380.893 44.8714 381.921 46.5841 382.948 48.6392 383.291 50.6944 383.291 53.7772 383.291 57.2025 382.263 60.2853 380.551 62.683 378.838 65.0807 376.098 66.7933 372.673 67.1359L385.004 87.6876 371.987 87.6876 361.712 68.1634 356.574 68.1634 356.574 87.6876 345.955 87.6876 345.955 39.0484ZM356.916 59.2577 363.424 59.2577C364.452 59.2577 365.479 59.2577 366.507 59.2577 367.535 59.2577 368.562 58.9151 369.59 58.5726 370.617 58.2301 371.302 57.545 371.645 56.86 372.33 56.1749 372.33 55.1473 372.33 53.7772 372.33 52.4071 371.987 51.3795 371.645 50.6944 371.302 50.0094 370.617 49.3243 369.59 48.9818 368.905 48.6392 367.877 48.2967 366.849 48.2967 365.822 48.2967 364.794 47.9542 363.767 47.9542L356.574 47.9542 356.916 59.2577Z" fill="#2F3134" transform="matrix(1 0 0 1.00725 1052.37 1490)"/><path d="M390.484 39.0484 401.102 39.0484 401.102 77.7543 420.969 77.7543 420.969 87.6876 390.142 87.6876 390.484 39.0484Z" fill="#2F3134" transform="matrix(1 0 0 1.00725 1052.37 1490)"/><path d="M426.792 39.0484 460.018 39.0484 460.018 48.9818 437.753 48.9818 437.753 58.2301 458.99 58.2301 458.99 68.1634 437.753 68.1634 437.753 78.0968 461.388 78.0968 461.388 88.0302 427.135 88.0302 426.792 39.0484Z" fill="#2F3134" transform="matrix(1 0 0 1.00725 1052.37 1490)"/><path d="M468.923 39.0484 485.022 39.0484C488.79 39.0484 492.558 39.3909 495.983 40.4185 499.409 41.4461 502.491 42.8162 505.232 44.5289 507.972 46.5841 510.027 48.9818 511.397 52.0645 513.11 55.1473 513.795 58.9151 513.795 63.368 513.795 67.4784 513.11 70.9037 511.397 73.6439 510.027 76.7267 507.972 79.1244 505.232 81.1796 502.834 83.2348 499.751 84.6049 496.326 85.975 492.9 87.0026 489.475 87.6876 486.05 87.6876L468.581 87.6876 468.923 39.0484ZM479.884 78.0968 485.365 78.0968C487.763 78.0968 490.16 77.7543 492.215 77.4118 494.271 77.0692 496.326 76.0416 497.696 75.014 499.409 73.9865 500.436 72.2738 501.464 70.5612 502.491 68.506 502.834 66.4508 502.834 63.7106 502.834 61.3128 502.491 59.2577 501.464 57.545 500.436 55.8324 499.409 54.4622 497.696 53.0921 496.326 52.0645 494.271 51.0369 492.215 50.3519 490.16 49.6668 488.105 49.3243 485.707 49.6668L479.199 49.6668 479.884 78.0968Z" fill="#2F3134" transform="matrix(1 0 0 1.00725 1052.37 1490)"/><path d="M564.832 83.9198C561.749 85.6325 558.324 86.6601 554.898 87.3451 551.473 88.0302 548.048 88.3727 544.28 88.3727 540.512 88.3727 537.087 87.6876 533.662 86.6601 530.579 85.6325 527.496 83.9198 525.441 81.5221 523.043 79.4669 521.33 76.7267 519.96 73.3014 518.59 70.2186 517.905 66.4508 517.905 62.683 517.905 58.9151 518.59 55.1473 519.96 52.0645 521.33 48.9818 523.043 46.2415 525.441 43.8438 527.839 41.4461 530.579 39.7335 533.662 38.7059 536.744 37.6783 540.512 36.9932 544.28 36.9932 548.048 36.9932 551.816 37.3358 554.898 38.3633 558.324 39.3909 561.064 40.7611 563.462 43.1588L555.926 51.3795C554.556 50.0094 552.843 48.6392 551.131 47.9542 549.418 47.2691 547.02 46.9266 544.28 46.9266 541.882 46.9266 539.827 47.2691 538.114 47.9542 536.402 48.6392 534.689 49.6668 533.319 51.3795 531.949 52.7496 530.921 54.4622 530.236 56.5174 529.551 58.5726 529.209 60.6278 529.209 62.683 529.209 65.0807 529.551 67.1359 530.236 68.8485 530.921 70.9037 531.949 72.2738 533.319 73.6439 534.689 75.014 536.402 76.0416 538.114 77.0692 539.827 77.7543 542.225 78.0968 544.28 78.0968 546.678 78.0968 548.733 77.7543 550.445 77.4118 552.158 76.7267 553.528 76.3842 554.556 75.6991L554.556 67.8209 545.65 67.8209 545.65 57.8875 564.832 57.8875 564.832 83.9198Z" fill="#2F3134" transform="matrix(1 0 0 1.00725 1052.37 1490)"/><path d="M574.08 39.0484 607.305 39.0484 607.305 48.9818 585.041 48.9818 585.041 58.2301 606.278 58.2301 606.278 68.1634 585.041 68.1634 585.041 78.0968 608.676 78.0968 608.676 88.0302 574.423 88.0302 574.08 39.0484Z" fill="#2F3134" transform="matrix(1 0 0 1.00725 1052.37 1490)"/><path d="M616.211 39.0484 635.05 39.0484C637.448 39.0484 639.846 39.3909 642.244 39.7335 644.641 40.076 646.354 41.1036 648.067 42.1312 649.779 43.1588 651.149 44.8714 652.177 46.5841 653.204 48.6392 653.547 50.6944 653.547 53.7772 653.547 57.2025 652.519 60.2853 650.807 62.683 649.094 65.0807 646.354 66.4508 642.929 67.1359L655.26 87.6876 642.244 87.6876 631.968 68.1634 626.83 68.1634 626.83 87.6876 616.211 87.6876 616.211 39.0484ZM627.172 59.2577 633.68 59.2577C634.708 59.2577 635.735 59.2577 636.763 59.2577 637.791 59.2577 638.818 58.9151 639.846 58.5726 640.873 58.2301 641.558 57.545 641.901 56.86 642.586 56.1749 642.929 55.1473 642.929 53.7772 642.929 52.4071 642.586 51.3795 642.244 50.6944 641.901 50.0094 641.216 49.3243 640.188 48.9818 639.503 48.6392 638.476 48.2967 637.448 48.2967 636.421 48.2967 635.393 47.9542 634.365 47.9542L627.172 47.9542 627.172 59.2577Z" fill="#2F3134" transform="matrix(1 0 0 1.00725 1052.37 1490)"/></g></g></g></g></svg>