<svg width="906" height="379" xmlns="http://www.w3.org/2000/svg" xmlns:xlink="http://www.w3.org/1999/xlink" overflow="hidden"><defs><clipPath id="clip0"><rect x="26" y="103" width="906" height="379"/></clipPath><clipPath id="clip1"><rect x="60" y="105" width="38" height="37"/></clipPath><clipPath id="clip2"><rect x="60" y="105" width="38" height="37"/></clipPath><clipPath id="clip3"><rect x="60" y="105" width="38" height="37"/></clipPath><clipPath id="clip4"><rect x="269" y="104" width="39" height="39"/></clipPath><clipPath id="clip5"><rect x="269" y="104" width="39" height="39"/></clipPath><clipPath id="clip6"><rect x="269" y="104" width="39" height="39"/></clipPath><clipPath id="clip7"><rect x="663" y="104" width="37" height="38"/></clipPath><clipPath id="clip8"><rect x="663" y="104" width="37" height="38"/></clipPath><clipPath id="clip9"><rect x="663" y="104" width="37" height="38"/></clipPath><clipPath id="clip10"><rect x="822" y="105" width="60" height="37"/></clipPath><clipPath id="clip11"><rect x="822" y="105" width="60" height="37"/></clipPath><clipPath id="clip12"><rect x="822" y="105" width="60" height="37"/></clipPath><clipPath id="clip13"><rect x="34" y="285" width="76" height="42"/></clipPath><clipPath id="clip14"><rect x="34" y="285" width="76" height="42"/></clipPath><clipPath id="clip15"><rect x="34" y="267" width="76" height="76"/></clipPath></defs><g clip-path="url(#clip0)" transform="translate(-26 -103)"><path d="M125.5 172.5 125.5 455.965" stroke="#79787A" stroke-width="0.333333" stroke-linejoin="round" stroke-miterlimit="10" stroke-dasharray="1.33333 1" fill="none" fill-rule="evenodd"/><path d="M288.5 172.5 288.5 455.965" stroke="#79787A" stroke-width="0.333333" stroke-linejoin="round" stroke-miterlimit="10" stroke-dasharray="1.33333 1" fill="none" fill-rule="evenodd"/><path d="M485.5 172.5 485.5 285.886" stroke="#79787A" stroke-width="0.333333" stroke-linejoin="round" stroke-miterlimit="10" stroke-dasharray="1.33333 1" fill="none" fill-rule="evenodd"/><path d="M681.5 172.5 681.5 353.917" stroke="#79787A" stroke-width="0.333333" stroke-linejoin="round" stroke-miterlimit="10" stroke-dasharray="1.33333 1" fill="none" fill-rule="evenodd"/><path d="M852.5 172.5 852.5 455.965" stroke="#79787A" stroke-width="0.333333" stroke-linejoin="round" stroke-miterlimit="10" stroke-dasharray="1.33333 1" fill="none" fill-rule="evenodd"/><text font-family="Verdana,Verdana_MSFontService,sans-serif" font-weight="400" font-size="11" transform="translate(128.803 187)">1<tspan font-size="11" x="6.83333" y="0">. www.google.com </tspan><tspan font-family="Latha,Latha_MSFontService,sans-serif" font-size="11" x="0" y="11">களத்தின்</tspan><tspan font-family="Latha,Latha_MSFontService,sans-serif" font-size="11" x="52.3333" y="11"> </tspan><tspan font-family="Latha,Latha_MSFontService,sans-serif" font-size="11" x="58.5" y="11">இ</tspan><tspan font-family="Latha,Latha_MSFontService,sans-serif" font-size="11" x="70.1667" y="11">.</tspan><tspan font-family="Latha,Latha_MSFontService,sans-serif" font-size="11" x="72.8333" y="11">நெறி</tspan><tspan font-family="Latha,Latha_MSFontService,sans-serif" font-size="11" x="101.333" y="11"> </tspan><tspan font-family="Latha,Latha_MSFontService,sans-serif" font-size="11" x="107.5" y="11">முகவ</tspan><tspan font-family="Latha,Latha_MSFontService,sans-serif" font-size="11" x="143.667" y="11">ரி </tspan><tspan font-family="Latha,Latha_MSFontService,sans-serif" font-size="11" x="0" y="24">என்ன</tspan><tspan font-family="Latha,Latha_MSFontService,sans-serif" font-size="11" x="34.1667" y="24">?</tspan><tspan font-size="11" x="162.2" y="28">2</tspan><tspan font-size="11" x="169.033" y="28">.COM </tspan><tspan font-family="Latha,Latha_MSFontService,sans-serif" font-size="11" x="201.533" y="28">மேல் நிலை </tspan><tspan font-family="Latha,Latha_MSFontService,sans-serif" font-size="11" x="279.033" y="28">களப்பெயர்</tspan><tspan font-family="Latha,Latha_MSFontService,sans-serif" font-size="11" x="162.2" y="40">வழங்கனின்</tspan><tspan font-family="Latha,Latha_MSFontService,sans-serif" font-size="11" x="231.7" y="40"> </tspan><tspan font-family="Latha,Latha_MSFontService,sans-serif" font-size="11" x="237.866" y="40">இ</tspan><tspan font-family="Latha,Latha_MSFontService,sans-serif" font-size="11" x="249.533" y="40">.</tspan><tspan font-family="Latha,Latha_MSFontService,sans-serif" font-size="11" x="252.2" y="40">நெறி</tspan><tspan font-family="Latha,Latha_MSFontService,sans-serif" font-size="11" x="280.7" y="40"> </tspan><tspan font-family="Latha,Latha_MSFontService,sans-serif" font-size="11" x="286.866" y="40">முகவரி என்</tspan><tspan font-family="Latha,Latha_MSFontService,sans-serif" font-size="11" x="360.2" y="40">ன</tspan><tspan font-family="Latha,Latha_MSFontService,sans-serif" font-size="11" x="372.866" y="40">? </tspan><tspan font-size="11" x="162.2" y="69">3</tspan><tspan font-size="11" x="169.033" y="69">. COM </tspan><tspan font-family="Latha,Latha_MSFontService,sans-serif" font-size="11" x="205.366" y="69">மேல் நிலை </tspan><tspan font-family="Latha,Latha_MSFontService,sans-serif" font-size="11" x="282.866" y="69">களப்பெயர்</tspan><tspan font-family="Latha,Latha_MSFontService,sans-serif" font-size="11" x="344.533" y="69"> </tspan><tspan font-family="Latha,Latha_MSFontService,sans-serif" font-size="11" x="162.2" y="81">வழங்கனின்</tspan><tspan font-family="Latha,Latha_MSFontService,sans-serif" font-size="11" x="231.7" y="81"> </tspan><tspan font-family="Latha,Latha_MSFontService,sans-serif" font-size="11" x="237.866" y="81">இ</tspan><tspan font-family="Latha,Latha_MSFontService,sans-serif" font-size="11" x="249.533" y="81">.</tspan><tspan font-family="Latha,Latha_MSFontService,sans-serif" font-size="11" x="252.2" y="81">நெறி</tspan><tspan font-family="Latha,Latha_MSFontService,sans-serif" font-size="11" x="280.7" y="81"> </tspan><tspan font-family="Latha,Latha_MSFontService,sans-serif" font-size="11" x="286.866" y="81">முகவரி</tspan><tspan font-size="11" x="336.366" y="81">x.x.</tspan>x.x<tspan font-size="11" x="162.2" y="116">4</tspan><tspan font-size="11" x="169.033" y="116">. google.com</tspan><tspan font-family="Latha,Latha_MSFontService,sans-serif" font-size="11" x="238.533" y="116"> </tspan><tspan font-family="Latha,Latha_MSFontService,sans-serif" font-size="11" x="244.7" y="116">களத்தின்</tspan><tspan font-family="Latha,Latha_MSFontService,sans-serif" font-size="11" x="297.033" y="116"> </tspan><tspan font-family="Latha,Latha_MSFontService,sans-serif" font-size="11" x="303.2" y="116">அதிகாரப்பூர்வ</tspan><tspan font-family="Latha,Latha_MSFontService,sans-serif" font-size="11" x="384.866" y="116"> </tspan><tspan font-family="Latha,Latha_MSFontService,sans-serif" font-size="11" x="391.033" y="116">களப்பெயர்</tspan><tspan font-family="Latha,Latha_MSFontService,sans-serif" font-size="11" x="456.533" y="116">வழங்க</tspan><tspan font-family="Latha,Latha_MSFontService,sans-serif" font-size="11" x="498.2" y="116">னின்</tspan><tspan font-family="Latha,Latha_MSFontService,sans-serif" font-size="11" x="526.033" y="116"> </tspan><tspan font-family="Latha,Latha_MSFontService,sans-serif" font-size="11" x="162.2" y="128">இ</tspan><tspan font-family="Latha,Latha_MSFontService,sans-serif" font-size="11" x="173.866" y="128">.</tspan><tspan font-family="Latha,Latha_MSFontService,sans-serif" font-size="11" x="176.533" y="128">நெறி</tspan><tspan font-family="Latha,Latha_MSFontService,sans-serif" font-size="11" x="205.033" y="128"> </tspan><tspan font-family="Latha,Latha_MSFontService,sans-serif" font-size="11" x="211.2" y="128">முகவரி என்ன</tspan><tspan font-family="Latha,Latha_MSFontService,sans-serif" font-size="11" x="297.2" y="128">?</tspan><tspan font-size="11" x="162.2" y="165">5</tspan><tspan font-size="11" x="169.033" y="165">. google.com </tspan><tspan font-family="Latha,Latha_MSFontService,sans-serif" font-size="11" x="242.366" y="165">களத்தின்</tspan><tspan font-family="Latha,Latha_MSFontService,sans-serif" font-size="11" x="294.7" y="165"> </tspan><tspan font-family="Latha,Latha_MSFontService,sans-serif" font-size="11" x="300.866" y="165">அதிகாரப்பூர்வ</tspan><tspan font-family="Latha,Latha_MSFontService,sans-serif" font-size="11" x="382.533" y="165"> </tspan><tspan font-family="Latha,Latha_MSFontService,sans-serif" font-size="11" x="388.7" y="165">களப்பெயர்</tspan><tspan font-family="Latha,Latha_MSFontService,sans-serif" font-size="11" x="450.366" y="165"> </tspan><tspan font-family="Latha,Latha_MSFontService,sans-serif" font-size="11" x="456.533" y="165">வழங்கனி</tspan><tspan font-family="Latha,Latha_MSFontService,sans-serif" font-size="11" x="513.366" y="165">ன்</tspan><tspan font-family="Latha,Latha_MSFontService,sans-serif" font-size="11" x="526.033" y="165"> </tspan><tspan font-family="Latha,Latha_MSFontService,sans-serif" font-size="11" x="162.2" y="177">இ</tspan><tspan font-family="Latha,Latha_MSFontService,sans-serif" font-size="11" x="173.866" y="177">.</tspan><tspan font-family="Latha,Latha_MSFontService,sans-serif" font-size="11" x="176.533" y="177">நெறி</tspan><tspan font-family="Latha,Latha_MSFontService,sans-serif" font-size="11" x="205.033" y="177"> </tspan><tspan font-family="Latha,Latha_MSFontService,sans-serif" font-size="11" x="211.2" y="177">முகவரி</tspan><tspan font-size="11" x="260.7" y="177">y.y.y.y</tspan><tspan font-size="11" x="162.2" y="205">6</tspan><tspan font-size="11" x="169.033" y="205">. www.google.com </tspan><tspan font-family="Latha,Latha_MSFontService,sans-serif" font-size="11" x="272.2" y="205">களத்தின்</tspan><tspan font-family="Latha,Latha_MSFontService,sans-serif" font-size="11" x="324.533" y="205"> </tspan><tspan font-family="Latha,Latha_MSFontService,sans-serif" font-size="11" x="330.7" y="205">இ</tspan><tspan font-family="Latha,Latha_MSFontService,sans-serif" font-size="11" x="342.366" y="205">.</tspan><tspan font-family="Latha,Latha_MSFontService,sans-serif" font-size="11" x="345.033" y="205">நெறி</tspan><tspan font-family="Latha,Latha_MSFontService,sans-serif" font-size="11" x="373.533" y="205"> </tspan><tspan font-family="Latha,Latha_MSFontService,sans-serif" font-size="11" x="379.7" y="205">முகவரி என்ன</tspan><tspan font-family="Latha,Latha_MSFontService,sans-serif" font-size="11" x="465.7" y="205">?</tspan><tspan font-size="11" x="471.033" y="205">?</tspan><tspan font-size="11" x="162.2" y="235">7</tspan><tspan font-size="11" x="169.033" y="235">. www.google.com </tspan><tspan font-family="Latha,Latha_MSFontService,sans-serif" font-size="11" x="272.2" y="235">களத்தின்</tspan><tspan font-family="Latha,Latha_MSFontService,sans-serif" font-size="11" x="324.533" y="235"> </tspan><tspan font-family="Latha,Latha_MSFontService,sans-serif" font-size="11" x="330.7" y="235">இ</tspan><tspan font-family="Latha,Latha_MSFontService,sans-serif" font-size="11" x="342.366" y="235">.</tspan><tspan font-family="Latha,Latha_MSFontService,sans-serif" font-size="11" x="345.033" y="235">நெறி</tspan><tspan font-family="Latha,Latha_MSFontService,sans-serif" font-size="11" x="373.533" y="235"> </tspan><tspan font-family="Latha,Latha_MSFontService,sans-serif" font-size="11" x="379.7" y="235">முகவரி</tspan><tspan font-size="11" x="429.2" y="235">z.z.z.z</tspan><tspan font-size="11" x="0" y="271">8</tspan><tspan font-size="11" x="6.83333" y="271">.www.google.com </tspan><tspan font-family="Latha,Latha_MSFontService,sans-serif" font-size="11" x="106.167" y="271">களத்தின்</tspan><tspan font-family="Latha,Latha_MSFontService,sans-serif" font-size="11" x="158.5" y="271"> </tspan><tspan font-family="Latha,Latha_MSFontService,sans-serif" font-size="11" x="0" y="283">இ</tspan><tspan font-family="Latha,Latha_MSFontService,sans-serif" font-size="11" x="11.6667" y="283">.</tspan><tspan font-family="Latha,Latha_MSFontService,sans-serif" font-size="11" x="14.3333" y="283">நெறி</tspan><tspan font-family="Latha,Latha_MSFontService,sans-serif" font-size="11" x="42.8333" y="283"> </tspan><tspan font-family="Latha,Latha_MSFontService,sans-serif" font-size="11" x="49" y="283">முகவரி</tspan><tspan font-size="11" x="98.5" y="283">z.z.z.z</tspan></text><path d="M125.5 202.333 281.353 202.333 281.353 202.667 125.5 202.667ZM280.02 198.5 288.02 202.5 280.02 206.5Z" fill="#79787A"/><path d="M291.5 232.333 473.81 232.333 473.81 232.667 291.5 232.667ZM472.476 228.5 480.476 232.5 472.476 236.5Z" fill="#79787A"/><path d="M9.25926e-08-0.166667 182.31-0.166565 182.31 0.166768-9.25926e-08 0.166667ZM180.976-3.9999 188.976 0.000104987 180.976 4.0001Z" fill="#79787A" transform="matrix(-1 0 0 1 480.476 275.5)"/><path d="M288.5 322.333 674.904 322.748 674.904 323.081 288.5 322.667ZM673.575 318.913 681.571 322.921 673.567 326.913Z" fill="#79787A"/><path d="M4.45157e-08-0.166667 386.406-0.166563 386.406 0.16677-4.45157e-08 0.166667ZM385.071-3.9999 393.071 0.000104987 385.071 4.0001Z" fill="#79787A" transform="matrix(-1 0 0 1 680.571 336.5)"/><path d="M288.5 399.333 848.762 399.333 848.762 399.667 288.5 399.667ZM847.429 395.5 855.429 399.5 847.429 403.5Z" fill="#79787A"/><path d="M3.08642e-08-0.166667 560.262-0.166563 560.262 0.16677-3.08642e-08 0.166667ZM558.929-3.9999 566.929 0.000104987 558.929 4.0001Z" fill="#79787A" transform="matrix(-1 0 0 1 855.429 429.5)"/><path d="M1.07666e-07-0.166667 155.853-0.166566 155.853 0.166767-1.07666e-07 0.166667ZM154.52-3.9999 162.52 0.000104987 154.52 4.0001Z" fill="#79787A" transform="matrix(-1 0 0 1 288.02 443.5)"/><g clip-path="url(#clip1)"><g clip-path="url(#clip2)"><g clip-path="url(#clip3)"><path d="M34.6875 11.5625 2.3125 11.5625C1.03535 11.5625 0 10.5272 0 9.25L0 4.625C0 3.34785 1.03535 2.3125 2.3125 2.3125L34.6875 2.3125C35.9646 2.3125 37 3.34785 37 4.625L37 9.25C37 10.5272 35.9646 11.5625 34.6875 11.5625ZM31.2188 5.20312C30.2609 5.20312 29.4844 5.97962 29.4844 6.9375 29.4844 7.89538 30.2609 8.67188 31.2188 8.67188 32.1766 8.67188 32.9531 7.89538 32.9531 6.9375 32.9531 5.97962 32.1766 5.20312 31.2188 5.20312ZM26.5938 5.20312C25.6359 5.20312 24.8594 5.97962 24.8594 6.9375 24.8594 7.89538 25.6359 8.67188 26.5938 8.67188 27.5516 8.67188 28.3281 7.89538 28.3281 6.9375 28.3281 5.97962 27.5516 5.20312 26.5938 5.20312ZM34.6875 23.125 2.3125 23.125C1.03535 23.125 0 22.0897 0 20.8125L0 16.1875C0 14.9103 1.03535 13.875 2.3125 13.875L34.6875 13.875C35.9646 13.875 37 14.9103 37 16.1875L37 20.8125C37 22.0897 35.9646 23.125 34.6875 23.125ZM31.2188 16.7656C30.2609 16.7656 29.4844 17.5421 29.4844 18.5 29.4844 19.4579 30.2609 20.2344 31.2188 20.2344 32.1766 20.2344 32.9531 19.4579 32.9531 18.5 32.9531 17.5421 32.1766 16.7656 31.2188 16.7656ZM26.5938 16.7656C25.6359 16.7656 24.8594 17.5421 24.8594 18.5 24.8594 19.4579 25.6359 20.2344 26.5938 20.2344 27.5516 20.2344 28.3281 19.4579 28.3281 18.5 28.3281 17.5421 27.5516 16.7656 26.5938 16.7656ZM34.6875 34.6875 2.3125 34.6875C1.03535 34.6875 0 33.6521 0 32.375L0 27.75C0 26.4728 1.03535 25.4375 2.3125 25.4375L34.6875 25.4375C35.9646 25.4375 37 26.4728 37 27.75L37 32.375C37 33.6521 35.9646 34.6875 34.6875 34.6875ZM31.2188 28.3281C30.2609 28.3281 29.4844 29.1046 29.4844 30.0625 29.4844 31.0204 30.2609 31.7969 31.2188 31.7969 32.1766 31.7969 32.9531 31.0204 32.9531 30.0625 32.9531 29.1046 32.1766 28.3281 31.2188 28.3281ZM26.5938 28.3281C25.6359 28.3281 24.8594 29.1046 24.8594 30.0625 24.8594 31.0204 25.6359 31.7969 26.5938 31.7969 27.5516 31.7969 28.3281 31.0204 28.3281 30.0625 28.3281 29.1046 27.5516 28.3281 26.5938 28.3281Z" fill="#AE5E0E" transform="matrix(1.02703 0 0 1 60 105)"/></g></g></g><text font-family="Verdana,Verdana_MSFontService,sans-serif" font-weight="400" font-size="11" transform="translate(103.909 128)">z.z.z.z<tspan font-size="11" x="-54.1948" y="33">Google.com</tspan></text><g clip-path="url(#clip4)"><g clip-path="url(#clip5)"><g clip-path="url(#clip6)"><path d="M298.132 115.928 278.869 115.928C278.252 115.928 277.75 116.426 277.75 117.044L277.75 120.842C277.75 121.459 278.252 121.957 278.869 121.957L298.132 121.957C298.747 121.957 299.249 121.459 299.249 120.842L299.249 117.044C299.249 116.426 298.746 115.928 298.132 115.928ZM279.765 118.573C279.384 118.573 279.075 118.266 279.075 117.885 279.075 117.505 279.384 117.196 279.765 117.196 280.146 117.196 280.453 117.505 280.453 117.885 280.453 118.266 280.146 118.573 279.765 118.573ZM296.311 120.559 291.445 120.559 291.445 118.943 296.312 118.943 296.312 120.559Z" fill="#DF7275"/><path d="M298.132 122.571 278.869 122.571C278.252 122.571 277.75 123.07 277.75 123.687L277.75 127.485C277.75 128.102 278.252 128.601 278.869 128.601L298.132 128.601C298.747 128.601 299.249 128.102 299.249 127.485L299.249 123.687C299.249 123.07 298.746 122.571 298.132 122.571ZM279.765 125.217C279.384 125.217 279.075 124.911 279.075 124.528 279.075 124.149 279.384 123.839 279.765 123.839 280.146 123.839 280.453 124.148 280.453 124.528 280.453 124.91 280.146 125.217 279.765 125.217ZM296.311 127.203 291.445 127.203 291.445 125.586 296.312 125.586 296.312 127.203Z" fill="#DF7275"/><path d="M298.132 129.214 278.869 129.214C278.252 129.214 277.75 129.713 277.75 130.33L277.75 134.128C277.75 134.745 278.252 135.244 278.869 135.244L298.132 135.244C298.747 135.244 299.249 134.745 299.249 134.128L299.249 130.33C299.249 129.713 298.746 129.214 298.132 129.214ZM279.765 131.86C279.384 131.86 279.075 131.554 279.075 131.171 279.075 130.79 279.384 130.483 279.765 130.483 280.146 130.483 280.453 130.79 280.453 131.171 280.453 131.554 280.146 131.86 279.765 131.86ZM296.311 133.845 291.445 133.845 291.445 132.228 296.312 132.228 296.312 133.845Z" fill="#DF7275"/><path d="M291.827 138.877 289.774 138.877 289.774 135.89 287.227 135.89 287.227 138.877 285.172 138.877 285.172 139.664 277.986 139.664 277.986 142.212 285.172 142.212 285.172 143 291.827 143 291.827 142.212 299.013 142.212 299.013 139.664 291.827 139.664Z" fill="#DF7275"/><path d="M299.87 109.801C299.595 109.778 299.341 109.637 299.177 109.415 297.633 107.33 295.156 106.043 292.521 106.043 292.356 106.043 292.191 106.048 292.026 106.058 291.797 106.072 291.572 106.004 291.389 105.866 289.785 104.656 287.841 104 285.806 104 282.16 104 278.924 106.112 277.412 109.31 277.273 109.603 276.996 109.807 276.675 109.852 272.657 110.417 269.554 113.878 269.554 118.049 269.554 122.026 272.374 125.355 276.119 126.146L276.119 123.687C276.119 123.381 276.176 123.088 276.27 122.813 274.267 122.155 272.816 120.27 272.816 118.049 272.816 115.284 275.066 113.034 277.832 113.034 277.972 113.034 278.109 113.045 278.246 113.056 279.043 113.118 279.764 112.6 279.959 111.827 280.633 109.139 283.038 107.262 285.806 107.262 287.388 107.262 288.885 107.872 290.021 108.982 290.409 109.36 290.961 109.522 291.492 109.411 291.831 109.34 292.177 109.304 292.521 109.304 294.458 109.304 296.187 110.393 297.034 112.146 297.332 112.762 297.983 113.129 298.664 113.058 298.834 113.041 299.003 113.033 299.167 113.033 301.933 113.033 304.184 115.283 304.184 118.049 304.184 120.27 302.732 122.155 300.729 122.813 300.823 123.088 300.88 123.38 300.88 123.687L300.88 126.146C304.625 125.354 307.446 122.026 307.446 118.049 307.445 113.721 304.106 110.159 299.87 109.801Z" fill="#DF7275"/></g></g></g><text font-family="Latha,Latha_MSFontService,sans-serif" font-weight="400" font-size="11" transform="translate(258.257 153)">சுழல்நிலை<tspan font-size="11" x="7.66666" y="13">தீர்விகள்</tspan><tspan font-family="Verdana,Verdana_MSFontService,sans-serif" font-size="11" x="56.6589" y="-32">1.1.1.1</tspan><tspan font-family="Verdana,Verdana_MSFontService,sans-serif" font-size="11" x="56.6589" y="-20">8.8.8.8</tspan></text><path d="M498.805 114.228C471.362 114.228 471.362 114.228 471.362 114.228 469.963 114.228 468.798 115.24 468.798 116.52 468.798 118.187 468.798 118.187 468.798 118.187 468.798 119.437 469.963 120.449 471.362 120.449 498.805 120.449 498.805 120.449 498.805 120.449 500.203 120.449 501.369 119.437 501.369 118.187 501.369 116.52 501.369 116.52 501.369 116.52 501.369 115.24 500.203 114.228 498.805 114.228ZM471.295 118.306C470.896 118.306 470.529 118.008 470.529 117.621 470.529 117.234 470.896 116.936 471.295 116.936 471.728 116.936 472.061 117.234 472.061 117.621 472.061 118.008 471.728 118.306 471.295 118.306ZM473.493 118.306C473.094 118.306 472.727 118.008 472.727 117.621 472.727 117.234 473.094 116.936 473.493 116.936 473.926 116.936 474.259 117.234 474.259 117.621 474.259 118.008 473.926 118.306 473.493 118.306ZM492.976 118.395C492.976 118.693 492.71 118.961 492.377 118.961 492.011 118.961 491.744 118.693 491.744 118.395 491.744 116.282 491.744 116.282 491.744 116.282 491.744 115.984 492.011 115.746 492.377 115.746 492.71 115.746 492.976 115.984 492.976 116.282L492.976 118.395ZM495.374 118.395C495.374 118.693 495.074 118.961 494.741 118.961 494.408 118.961 494.109 118.693 494.109 118.395 494.109 116.282 494.109 116.282 494.109 116.282 494.109 115.984 494.408 115.746 494.741 115.746 495.074 115.746 495.374 115.984 495.374 116.282L495.374 118.395ZM497.706 118.395C497.706 118.693 497.406 118.961 497.073 118.961 496.74 118.961 496.44 118.693 496.44 118.395 496.44 116.282 496.44 116.282 496.44 116.282 496.44 115.984 496.74 115.746 497.073 115.746 497.406 115.746 497.706 115.984 497.706 116.282L497.706 118.395ZM499.737 118.395C499.737 118.693 499.471 118.961 499.104 118.961 498.771 118.961 498.505 118.693 498.505 118.395 498.505 116.282 498.505 116.282 498.505 116.282 498.505 115.984 498.771 115.746 499.104 115.746 499.471 115.746 499.737 115.984 499.737 116.282L499.737 118.395ZM498.805 107.322C471.362 107.322 471.362 107.322 471.362 107.322 469.963 107.322 468.798 108.334 468.798 109.584 468.798 111.281 468.798 111.281 468.798 111.281 468.798 112.531 469.963 113.543 471.362 113.543 498.805 113.543 498.805 113.543 498.805 113.543 500.203 113.543 501.369 112.531 501.369 111.281 501.369 109.584 501.369 109.584 501.369 109.584 501.369 108.334 500.203 107.322 498.805 107.322ZM471.295 111.4C470.896 111.4 470.529 111.072 470.529 110.715 470.529 110.328 470.896 110.031 471.295 110.031 471.728 110.031 472.061 110.328 472.061 110.715 472.061 111.072 471.728 111.4 471.295 111.4ZM473.493 111.4C473.094 111.4 472.727 111.072 472.727 110.715 472.727 110.328 473.094 110.031 473.493 110.031 473.926 110.031 474.259 110.328 474.259 110.715 474.259 111.072 473.926 111.4 473.493 111.4ZM492.976 111.489C492.976 111.787 492.71 112.025 492.377 112.025 492.011 112.025 491.744 111.787 491.744 111.489 491.744 109.376 491.744 109.376 491.744 109.376 491.744 109.078 492.011 108.81 492.377 108.81 492.71 108.81 492.976 109.078 492.976 109.376L492.976 111.489ZM495.374 111.489C495.374 111.787 495.074 112.025 494.741 112.025 494.408 112.025 494.109 111.787 494.109 111.489 494.109 109.376 494.109 109.376 494.109 109.376 494.109 109.078 494.408 108.81 494.741 108.81 495.074 108.81 495.374 109.078 495.374 109.376L495.374 111.489ZM497.706 111.489C497.706 111.787 497.406 112.025 497.073 112.025 496.74 112.025 496.44 111.787 496.44 111.489 496.44 109.376 496.44 109.376 496.44 109.376 496.44 109.078 496.74 108.81 497.073 108.81 497.406 108.81 497.706 109.078 497.706 109.376L497.706 111.489ZM499.737 111.489C499.737 111.787 499.471 112.025 499.104 112.025 498.771 112.025 498.505 111.787 498.505 111.489 498.505 109.376 498.505 109.376 498.505 109.376 498.505 109.078 498.771 108.81 499.104 108.81 499.471 108.81 499.737 109.078 499.737 109.376L499.737 111.489ZM498.705 131.701C471.262 131.701 471.262 131.701 471.262 131.701 469.863 131.701 468.731 132.743 468.731 133.993 468.731 135.66 468.731 135.66 468.731 135.66 468.731 136.94 469.863 137.952 471.262 137.952 498.705 137.952 498.705 137.952 498.705 137.952 500.103 137.952 501.269 136.94 501.269 135.66 501.269 133.993 501.269 133.993 501.269 133.993 501.269 132.743 500.103 131.701 498.705 131.701ZM471.195 135.809C470.796 135.809 470.429 135.481 470.429 135.124 470.429 134.737 470.796 134.439 471.195 134.439 471.628 134.439 471.961 134.737 471.961 135.124 471.961 135.481 471.628 135.809 471.195 135.809ZM473.394 135.809C472.994 135.809 472.661 135.481 472.661 135.124 472.661 134.737 472.994 134.439 473.394 134.439 473.826 134.439 474.16 134.737 474.16 135.124 474.16 135.481 473.826 135.809 473.394 135.809ZM492.876 135.898C492.876 136.195 492.61 136.434 492.277 136.434 491.911 136.434 491.644 136.195 491.644 135.898 491.644 133.784 491.644 133.784 491.644 133.784 491.644 133.487 491.911 133.219 492.277 133.219 492.61 133.219 492.876 133.487 492.876 133.784L492.876 135.898ZM495.274 135.898C495.274 136.195 494.975 136.434 494.642 136.434 494.309 136.434 494.042 136.195 494.042 135.898 494.042 133.784 494.042 133.784 494.042 133.784 494.042 133.487 494.309 133.219 494.642 133.219 494.975 133.219 495.274 133.487 495.274 133.784L495.274 135.898ZM497.606 135.898C497.606 136.195 497.306 136.434 496.973 136.434 496.64 136.434 496.373 136.195 496.373 135.898 496.373 133.784 496.373 133.784 496.373 133.784 496.373 133.487 496.64 133.219 496.973 133.219 497.306 133.219 497.606 133.487 497.606 133.784L497.606 135.898ZM499.637 135.898C499.637 136.195 499.371 136.434 499.038 136.434 498.671 136.434 498.405 136.195 498.405 135.898 498.405 133.784 498.405 133.784 498.405 133.784 498.405 133.487 498.671 133.219 499.038 133.219 499.371 133.219 499.637 133.487 499.637 133.784L499.637 135.898ZM498.805 121.044C471.362 121.044 471.362 121.044 471.362 121.044 469.963 121.044 468.798 122.056 468.798 123.336 468.798 123.515 468.798 123.515 468.798 123.515 468.798 124.795 469.963 125.807 471.362 125.807 498.805 125.807 498.805 125.807 498.805 125.807 500.203 125.807 501.369 124.795 501.369 123.515 501.369 123.336 501.369 123.336 501.369 123.336 501.369 122.056 500.203 121.044 498.805 121.044ZM473.294 124.467C473.294 124.795 473.027 125.033 472.694 125.033 472.328 125.033 472.061 124.795 472.061 124.467 472.061 122.384 472.061 122.384 472.061 122.384 472.061 122.056 472.328 121.818 472.694 121.818 473.027 121.818 473.294 122.056 473.294 122.384L473.294 124.467ZM475.691 124.467C475.691 124.795 475.425 125.033 475.092 125.033 474.759 125.033 474.459 124.795 474.459 124.467 474.459 122.384 474.459 122.384 474.459 122.384 474.459 122.056 474.759 121.818 475.092 121.818 475.425 121.818 475.691 122.056 475.691 122.384L475.691 124.467ZM478.089 124.467C478.089 124.795 477.823 125.033 477.49 125.033 477.157 125.033 476.857 124.795 476.857 124.467 476.857 122.384 476.857 122.384 476.857 122.384 476.857 122.056 477.157 121.818 477.49 121.818 477.823 121.818 478.089 122.056 478.089 122.384L478.089 124.467ZM480.521 124.467C480.521 124.795 480.221 125.033 479.888 125.033 479.555 125.033 479.288 124.795 479.288 124.467 479.288 122.384 479.288 122.384 479.288 122.384 479.288 122.056 479.555 121.818 479.888 121.818 480.221 121.818 480.521 122.056 480.521 122.384L480.521 124.467ZM482.918 124.467C482.918 124.795 482.652 125.033 482.286 125.033 481.953 125.033 481.686 124.795 481.686 124.467 481.686 122.384 481.686 122.384 481.686 122.384 481.686 122.056 481.953 121.818 482.286 121.818 482.652 121.818 482.918 122.056 482.918 122.384L482.918 124.467ZM485.316 124.467C485.316 124.795 485.05 125.033 484.684 125.033 484.351 125.033 484.084 124.795 484.084 124.467 484.084 122.384 484.084 122.384 484.084 122.384 484.084 122.056 484.351 121.818 484.684 121.818 485.05 121.818 485.316 122.056 485.316 122.384L485.316 124.467ZM487.714 124.467C487.714 124.795 487.448 125.033 487.115 125.033 486.748 125.033 486.482 124.795 486.482 124.467 486.482 122.384 486.482 122.384 486.482 122.384 486.482 122.056 486.748 121.818 487.115 121.818 487.448 121.818 487.714 122.056 487.714 122.384L487.714 124.467ZM490.112 124.467C490.112 124.795 489.846 125.033 489.513 125.033 489.146 125.033 488.88 124.795 488.88 124.467 488.88 122.384 488.88 122.384 488.88 122.384 488.88 122.056 489.146 121.818 489.513 121.818 489.846 121.818 490.112 122.056 490.112 122.384L490.112 124.467ZM492.51 124.467C492.51 124.795 492.244 125.033 491.911 125.033 491.578 125.033 491.278 124.795 491.278 124.467 491.278 122.384 491.278 122.384 491.278 122.384 491.278 122.056 491.578 121.818 491.911 121.818 492.244 121.818 492.51 122.056 492.51 122.384L492.51 124.467ZM494.941 124.467C494.941 124.795 494.642 125.033 494.309 125.033 493.975 125.033 493.676 124.795 493.676 124.467 493.676 122.384 493.676 122.384 493.676 122.384 493.676 122.056 493.975 121.818 494.309 121.818 494.642 121.818 494.941 122.056 494.941 122.384L494.941 124.467ZM497.339 124.467C497.339 124.795 497.039 125.033 496.706 125.033 496.373 125.033 496.107 124.795 496.107 124.467 496.107 122.384 496.107 122.384 496.107 122.384 496.107 122.056 496.373 121.818 496.706 121.818 497.039 121.818 497.339 122.056 497.339 122.384L497.339 124.467ZM499.737 124.467C499.737 124.795 499.471 125.033 499.104 125.033 498.771 125.033 498.505 124.795 498.505 124.467 498.505 122.384 498.505 122.384 498.505 122.384 498.505 122.056 498.771 121.818 499.104 121.818 499.471 121.818 499.737 122.056 499.737 122.384L499.737 124.467ZM498.805 126.253C471.362 126.253 471.362 126.253 471.362 126.253 469.963 126.253 468.798 127.265 468.798 128.545 468.798 128.724 468.798 128.724 468.798 128.724 468.798 130.004 469.963 131.016 471.362 131.016 498.805 131.016 498.805 131.016 498.805 131.016 500.203 131.016 501.369 130.004 501.369 128.724 501.369 128.545 501.369 128.545 501.369 128.545 501.369 127.265 500.203 126.253 498.805 126.253ZM473.294 129.677C473.294 130.004 473.027 130.242 472.694 130.242 472.328 130.242 472.061 130.004 472.061 129.677 472.061 127.593 472.061 127.593 472.061 127.593 472.061 127.265 472.328 127.027 472.694 127.027 473.027 127.027 473.294 127.265 473.294 127.593L473.294 129.677ZM475.691 129.677C475.691 130.004 475.425 130.242 475.092 130.242 474.759 130.242 474.459 130.004 474.459 129.677 474.459 127.593 474.459 127.593 474.459 127.593 474.459 127.265 474.759 127.027 475.092 127.027 475.425 127.027 475.691 127.265 475.691 127.593L475.691 129.677ZM478.089 129.677C478.089 130.004 477.823 130.242 477.49 130.242 477.157 130.242 476.857 130.004 476.857 129.677 476.857 127.593 476.857 127.593 476.857 127.593 476.857 127.265 477.157 127.027 477.49 127.027 477.823 127.027 478.089 127.265 478.089 127.593L478.089 129.677ZM480.521 129.677C480.521 130.004 480.221 130.242 479.888 130.242 479.555 130.242 479.288 130.004 479.288 129.677 479.288 127.593 479.288 127.593 479.288 127.593 479.288 127.265 479.555 127.027 479.888 127.027 480.221 127.027 480.521 127.265 480.521 127.593L480.521 129.677ZM482.918 129.677C482.918 130.004 482.652 130.242 482.286 130.242 481.953 130.242 481.686 130.004 481.686 129.677 481.686 127.593 481.686 127.593 481.686 127.593 481.686 127.265 481.953 127.027 482.286 127.027 482.652 127.027 482.918 127.265 482.918 127.593L482.918 129.677ZM485.316 129.677C485.316 130.004 485.05 130.242 484.684 130.242 484.351 130.242 484.084 130.004 484.084 129.677 484.084 127.593 484.084 127.593 484.084 127.593 484.084 127.265 484.351 127.027 484.684 127.027 485.05 127.027 485.316 127.265 485.316 127.593L485.316 129.677ZM487.714 129.677C487.714 130.004 487.448 130.242 487.115 130.242 486.748 130.242 486.482 130.004 486.482 129.677 486.482 127.593 486.482 127.593 486.482 127.593 486.482 127.265 486.748 127.027 487.115 127.027 487.448 127.027 487.714 127.265 487.714 127.593L487.714 129.677ZM490.112 129.677C490.112 130.004 489.846 130.242 489.513 130.242 489.146 130.242 488.88 130.004 488.88 129.677 488.88 127.593 488.88 127.593 488.88 127.593 488.88 127.265 489.146 127.027 489.513 127.027 489.846 127.027 490.112 127.265 490.112 127.593L490.112 129.677ZM492.51 129.677C492.51 130.004 492.244 130.242 491.911 130.242 491.578 130.242 491.278 130.004 491.278 129.677 491.278 127.593 491.278 127.593 491.278 127.593 491.278 127.265 491.578 127.027 491.911 127.027 492.244 127.027 492.51 127.265 492.51 127.593L492.51 129.677ZM494.941 129.677C494.941 130.004 494.642 130.242 494.309 130.242 493.975 130.242 493.676 130.004 493.676 129.677 493.676 127.593 493.676 127.593 493.676 127.593 493.676 127.265 493.975 127.027 494.309 127.027 494.642 127.027 494.941 127.265 494.941 127.593L494.941 129.677ZM497.339 129.677C497.339 130.004 497.039 130.242 496.706 130.242 496.373 130.242 496.107 130.004 496.107 129.677 496.107 127.593 496.107 127.593 496.107 127.593 496.107 127.265 496.373 127.027 496.706 127.027 497.039 127.027 497.339 127.265 497.339 127.593L497.339 129.677ZM499.737 129.677C499.737 130.004 499.471 130.242 499.104 130.242 498.771 130.242 498.505 130.004 498.505 129.677 498.505 127.593 498.505 127.593 498.505 127.593 498.505 127.265 498.771 127.027 499.104 127.027 499.471 127.027 499.737 127.265 499.737 127.593L499.737 129.677ZM501.202 105C468.764 105 468.764 105 468.764 105 467.232 105 466 106.161 466 107.56 466 137.654 466 137.654 466 137.654 466 139.053 467.232 140.184 468.764 140.184 469.996 140.184 469.996 140.184 469.996 140.184 469.763 140.393 469.63 140.66 469.63 140.958 469.63 141.524 470.13 142 470.796 142 476.491 142 476.491 142 476.491 142 477.124 142 477.656 141.524 477.656 140.958 477.656 140.66 477.49 140.393 477.257 140.184 492.71 140.184 492.71 140.184 492.71 140.184 492.477 140.393 492.344 140.66 492.344 140.958 492.344 141.524 492.843 142 493.476 142 499.204 142 499.204 142 499.204 142 499.837 142 500.337 141.524 500.337 140.958 500.337 140.66 500.203 140.393 499.97 140.184 501.202 140.184 501.202 140.184 501.202 140.184 502.734 140.184 504 139.053 504 137.654 504 107.56 504 107.56 504 107.56 504 106.161 502.734 105 501.202 105ZM503.367 137.654C503.367 138.755 502.401 139.648 501.202 139.648 468.764 139.648 468.764 139.648 468.764 139.648 467.565 139.648 466.599 138.755 466.599 137.654 466.599 107.56 466.599 107.56 466.599 107.56 466.599 106.459 467.565 105.566 468.764 105.566 501.202 105.566 501.202 105.566 501.202 105.566 502.401 105.566 503.367 106.459 503.367 107.56L503.367 137.654Z" fill="#F2D552" fill-rule="evenodd"/><text font-family="Latha,Latha_MSFontService,sans-serif" font-weight="400" font-size="11" transform="translate(469.72 153)">வேர் <tspan font-size="11" x="-46.42" y="13">களப்பெயர்</tspan><tspan font-size="11" x="19.08" y="13">வழங்கன்</tspan></text><g clip-path="url(#clip7)"><g clip-path="url(#clip8)"><g clip-path="url(#clip9)"><path d="M1.5815-1190.62C0.530119-1190.62-0.3163-1189.77-0.3163-1188.72L-0.3163-1154.56C-0.3163-1153.51 0.530119-1152.66 1.5815-1152.66L26.2529-1152.66C27.3043-1152.66 28.1507-1153.51 28.1507-1154.56L28.1507-1188.72C28.1507-1189.77 27.3043-1190.62 26.2529-1190.62L1.5815-1190.62ZM1.8978-1187.77 25.9366-1187.77 25.9366-1182.22 1.8978-1182.22 1.8978-1187.77ZM1.8978-1180.95 25.9366-1180.95 25.9366-1175.59 1.8978-1175.59 1.8978-1180.95ZM1.8978-1174.33 25.9366-1174.33 25.9366-1168.95 1.8978-1168.95 1.8978-1174.33ZM1.8978-1167.69 25.9366-1167.69 25.9366-1162.33 1.8978-1162.33 1.8978-1167.69ZM1.8978-1161.06 25.9366-1161.06 25.9366-1155.51 1.8978-1155.51 1.8978-1161.06Z" fill="#FC9A05" transform="matrix(1.29976 0 0 1 663.411 1294.65)"/><path d="M-2.65591-1196.31-1.39071-1196.31-1.39071-1193.78-2.65591-1193.78Z" fill="#FC9A05" transform="matrix(1.29976 0 0 1 674.167 1305.42)"/><path d="M-5.50755-1196.31-4.24235-1196.31-4.24235-1193.78-5.50755-1193.78Z" fill="#FC9A05" transform="matrix(1.29976 0 0 1 674.167 1305.42)"/><path d="M0.195708-1196.31 1.46091-1196.31 1.46091-1193.78 0.195708-1193.78Z" fill="#FC9A05" transform="matrix(1.29976 0 0 1 674.167 1305.42)"/><path d="M-2.65591-1196.31-1.39071-1196.31-1.39071-1193.78-2.65591-1193.78Z" fill="#FC9A05" transform="matrix(1.29976 0 0 1 674.167 1312.1)"/><path d="M-5.50755-1196.31-4.24235-1196.31-4.24235-1193.78-5.50755-1193.78Z" fill="#FC9A05" transform="matrix(1.29976 0 0 1 674.167 1312.1)"/><path d="M0.195708-1196.31 1.46091-1196.31 1.46091-1193.78 0.195708-1193.78Z" fill="#FC9A05" transform="matrix(1.29976 0 0 1 674.167 1312.1)"/><path d="M-2.65591-1196.31-1.39071-1196.31-1.39071-1193.78-2.65591-1193.78Z" fill="#FC9A05" transform="matrix(1.29976 0 0 1 674.167 1318.77)"/><path d="M-5.50755-1196.31-4.24235-1196.31-4.24235-1193.78-5.50755-1193.78Z" fill="#FC9A05" transform="matrix(1.29976 0 0 1 674.167 1318.77)"/><path d="M0.195708-1196.31 1.46091-1196.31 1.46091-1193.78 0.195708-1193.78Z" fill="#FC9A05" transform="matrix(1.29976 0 0 1 674.167 1318.77)"/><path d="M-2.65591-1196.31-1.39071-1196.31-1.39071-1193.78-2.65591-1193.78Z" fill="#FC9A05" transform="matrix(1.29976 0 0 1 674.167 1325.44)"/><path d="M-5.50755-1196.31-4.24235-1196.31-4.24235-1193.78-5.50755-1193.78Z" fill="#FC9A05" transform="matrix(1.29976 0 0 1 674.167 1325.44)"/><path d="M0.195708-1196.31 1.46091-1196.31 1.46091-1193.78 0.195708-1193.78Z" fill="#FC9A05" transform="matrix(1.29976 0 0 1 674.167 1325.44)"/><path d="M-2.65591-1196.31-1.39071-1196.31-1.39071-1193.78-2.65591-1193.78Z" fill="#FC9A05" transform="matrix(1.29976 0 0 1 674.167 1332.11)"/><path d="M-5.50755-1196.31-4.24235-1196.31-4.24235-1193.78-5.50755-1193.78Z" fill="#FC9A05" transform="matrix(1.29976 0 0 1 674.167 1332.11)"/><path d="M0.195708-1196.31 1.46091-1196.31 1.46091-1193.78 0.195708-1193.78Z" fill="#FC9A05" transform="matrix(1.29976 0 0 1 674.167 1332.11)"/><path d="M20.7999-1184.29 22.0651-1184.29 22.0651-1183.03 20.7999-1183.03Z" fill="#FC9A05" transform="matrix(1.29976 0 0 1 663.411 1294.65)"/><path d="M20.7999-1177.65 22.0651-1177.65 22.0651-1176.38 20.7999-1176.38Z" fill="#FC9A05" transform="matrix(1.29976 0 0 1 663.411 1294.65)"/><path d="M20.7999-1164.36 22.0651-1164.36 22.0651-1163.1 20.7999-1163.1Z" fill="#FC9A05" transform="matrix(1.29976 0 0 1 663.411 1294.65)"/><path d="M20.5766-1170.88 21.8418-1170.88 21.8418-1169.62 20.5766-1169.62Z" fill="#FC9A05" transform="matrix(1.29976 0 0 1 663.411 1294.65)"/><path d="M20.7999-1157.66 22.0651-1157.66 22.0651-1156.39 20.7999-1156.39Z" fill="#FC9A05" transform="matrix(1.29976 0 0 1 663.411 1294.65)"/></g></g></g><text font-family="Verdana,Verdana_MSFontService,sans-serif" font-weight="400" font-size="11" transform="translate(705.384 128)">x.x.x.x<tspan font-family="Latha,Latha_MSFontService,sans-serif" font-size="11" x="-62.6066" y="25">மேல் நிலை</tspan><tspan font-family="Latha,Latha_MSFontService,sans-serif" font-size="11" x="-86.86" y="38">களப்பெயர்</tspan><tspan font-family="Latha,Latha_MSFontService,sans-serif" font-size="11" x="-21.36" y="38">வழங்கன்</tspan></text><g clip-path="url(#clip10)"><g clip-path="url(#clip11)"><g clip-path="url(#clip12)"><path d="M21.4078 23.2813 21.4078 33.7239 70.837 33.7239 70.837 23.2813ZM23.79 25.4567 25.9873 25.4567 25.9873 31.5483 23.79 31.5483ZM28.176 25.4567 30.3733 25.4567 30.3733 31.5483 28.176 31.5483ZM32.562 25.4567 34.7592 25.4567 34.7592 31.5483 32.562 31.5483Z" fill="#FC6605" fill-rule="evenodd" transform="matrix(1.16541 0 0 1 798.248 82.849)"/><path d="M21.4078 35.4297 21.4078 45.8724 70.837 45.8724 70.837 35.4297ZM23.79 37.6051 25.9873 37.6051 25.9873 43.6968 23.79 43.6968ZM28.176 37.6051 30.3733 37.6051 30.3733 43.6968 28.176 43.6968ZM32.562 37.6051 34.7592 37.6051 34.7592 43.6968 32.562 43.6968Z" fill="#FC6605" fill-rule="evenodd" transform="matrix(1.16541 0 0 1 798.248 82.849)"/><path d="M21.4078 47.5782 21.4078 58.0207 70.837 58.0207 70.837 47.5782ZM23.79 49.7534 25.9873 49.7534 25.9873 55.8455 23.79 55.8455ZM28.176 49.7534 30.3733 49.7534 30.3733 55.8455 28.176 55.8455ZM32.562 49.7534 34.7592 49.7534 34.7592 55.8455 32.562 55.8455Z" fill="#FC6605" fill-rule="evenodd" transform="matrix(1.16541 0 0 1 798.248 82.849)"/><path d="M23.792 33.254 25.985 33.254 25.985 36.3869 23.792 36.3869Z" fill="#FC6605" fill-rule="evenodd" transform="matrix(1.16541 0 0 1 798.248 82.849)"/><path d="M23.792 45.2981 25.985 45.2981 25.985 48.4311 23.792 48.4311Z" fill="#FC6605" fill-rule="evenodd" transform="matrix(1.16541 0 0 1 798.248 82.849)"/><path d="M66.1379 33.2714 68.3309 33.2714 68.3309 36.4044 66.1379 36.4044Z" fill="#FC6605" fill-rule="evenodd" transform="matrix(1.16541 0 0 1 798.248 82.849)"/><path d="M66.1379 45.3155 68.3309 45.3155 68.3309 48.4485 66.1379 48.4485Z" fill="#FC6605" fill-rule="evenodd" transform="matrix(1.16541 0 0 1 798.248 82.849)"/></g></g></g><text font-family="Verdana,Verdana_MSFontService,sans-serif" font-weight="400" font-size="11" transform="translate(888.205 128)">y.y.y.y<tspan font-family="Latha,Latha_MSFontService,sans-serif" font-size="11" x="-77.3799" y="25">அதிகாரப்பூர்வ</tspan><tspan font-family="Latha,Latha_MSFontService,sans-serif" font-size="11" x="-96.4666" y="38">களப்பெயர்</tspan><tspan font-family="Latha,Latha_MSFontService,sans-serif" font-size="11" x="-30.9666" y="38">வழங்கன்</tspan></text><path d="M0.166667-1.79423e-07 0.166764 90.8558-0.166569 90.8558-0.166667 1.79423e-07ZM4.0001 89.5224 0.000104987 97.5224-3.9999 89.5224Z" fill="#79787A" transform="matrix(1 0 0 -1 64.5001 276.022)"/><path d="M87.6667 178.5 87.6668 269.356 87.3335 269.356 87.3334 178.5ZM91.5002 268.022 87.5002 276.022 83.5002 268.022Z" fill="#79787A"/><text font-family="Verdana,Verdana_MSFontService,sans-serif" font-weight="400" font-size="11" transform="matrix(-1.83697e-16 -1 1 -1.83697e-16 40.7959 260)">9<tspan font-size="11" x="6" y="1.10218e-15">. </tspan><tspan font-size="11" x="14" y="2.57176e-15">z.z.z.z</tspan><tspan font-family="Latha,Latha_MSFontService,sans-serif" font-size="11" x="48" y="8.81746e-15">-</tspan><tspan font-family="Latha,Latha_MSFontService,sans-serif" font-size="11" x="51" y="9.36855e-15">க்கு</tspan><tspan font-family="Latha,Latha_MSFontService,sans-serif" font-size="11" x="71" y="1.30425e-14"> </tspan><tspan font-size="11" x="-13" y="12">https</tspan><tspan font-family="Latha,Latha_MSFontService,sans-serif" font-size="11" x="15" y="12"> </tspan><tspan font-family="Latha,Latha_MSFontService,sans-serif" font-size="11" x="21" y="12">கோரிக்கை</tspan><tspan font-size="11" x="11" y="57.6378">10</tspan><tspan font-size="11" x="25" y="57.6378">. https </tspan><tspan font-family="Latha,Latha_MSFontService,sans-serif" font-size="11" x="-15" y="68.6378">துலங்கல்</tspan><tspan font-family="Latha,Latha_MSFontService,sans-serif" font-size="11" x="40" y="68.6378"> </tspan><tspan font-family="Latha,Latha_MSFontService,sans-serif" font-size="11" x="46" y="68.6378">/ </tspan><tspan font-family="Latha,Latha_MSFontService,sans-serif" font-size="11" x="55" y="68.6378">பதி</tspan><tspan font-family="Latha,Latha_MSFontService,sans-serif" font-size="11" x="74" y="68.6378">ல்</tspan></text><text font-family="Latha,Latha_MSFontService,sans-serif" font-weight="400" font-size="11" transform="translate(42.7615 340)">கிளையன்<tspan font-family="Verdana,Verdana_MSFontService,sans-serif" font-size="11" x="13.5867" y="13">Client</tspan></text><g clip-path="url(#clip13)"><g clip-path="url(#clip14)"><g clip-path="url(#clip15)"><path d="M70.489 32.5739 59.8818 32.5739C59.3552 32.5739 58.9038 33.0253 58.9038 33.5519L58.9038 54.2397C58.9038 54.7663 59.3552 55.2176 59.8818 55.2176L70.489 55.2176C71.0156 55.2176 71.4669 54.7663 71.4669 54.2397L71.4669 33.6271C71.4669 33.0253 71.0156 32.5739 70.489 32.5739ZM65.1478 54.7663C64.6964 54.7663 64.3955 54.3901 64.3955 54.014 64.3955 53.5626 64.7716 53.2617 65.1478 53.2617 65.5991 53.2617 65.9 53.6378 65.9 54.014 65.9 54.4653 65.5991 54.7663 65.1478 54.7663ZM66.8028 34.0784 63.4927 34.0784C63.3423 34.0784 63.2671 33.928 63.2671 33.8528 63.2671 33.7775 63.4175 33.6271 63.4927 33.6271L66.8028 33.6271C66.9532 33.6271 67.0285 33.7775 67.0285 33.8528 67.0285 33.928 66.9532 34.0784 66.8028 34.0784Z" fill="#204497" transform="matrix(1.01026 0 0 1 34 267.606)"/><path d="M51.0048 23.0199 51.0048 21.5905C51.0048 20.6878 50.2526 19.9355 49.3498 19.9355L5.41644 19.9355C4.5137 19.9355 3.76142 20.6878 3.76142 21.5905L3.76142 44.6104C3.76142 45.5132 4.5137 46.2654 5.41644 46.2654L24.7501 46.2654 24.2988 48.3718C23.9226 48.6728 23.5465 49.0489 23.2456 49.425L20.1612 53.7883C19.9355 54.1644 20.1612 54.691 20.6126 54.691L34.2289 54.691C34.6803 54.691 34.906 54.1644 34.6803 53.7883L31.5959 49.425C31.295 48.9737 30.9189 48.6728 30.5427 48.3718L30.0913 46.2654 40.7738 46.2654 40.7738 23.8474C40.7738 23.396 41.1499 23.0951 41.5261 23.0951L51.0048 23.0199ZM27.3831 43.5572C26.7813 43.5572 26.3299 43.1059 26.3299 42.504 26.3299 41.9022 26.7813 41.4508 27.3831 41.4508 27.985 41.4508 28.4363 41.9022 28.4363 42.504 28.4363 43.1059 27.985 43.5572 27.3831 43.5572Z" fill="#204497" transform="matrix(1.01026 0 0 1 34 267.606)"/><path d="M63.4175 30.5427 63.7184 30.5427 63.7184 25.8033C63.7184 25.352 63.3423 24.9758 62.8909 24.9758L43.5572 24.9758C43.1059 24.9758 42.7297 25.352 42.7297 25.8033L42.7297 54.3901C42.7297 54.8415 43.1059 55.2176 43.5572 55.2176L54.6158 55.2176 57.0231 55.2176 57.0231 31.3702C57.0231 30.9189 57.3992 30.6179 57.7754 30.6179L63.4175 30.5427 63.4175 30.5427ZM53.2617 54.2397C52.8103 54.2397 52.4342 53.8635 52.4342 53.4121 52.4342 52.9608 52.8103 52.5846 53.2617 52.5846 53.7131 52.5846 54.0892 52.9608 54.0892 53.4121 54.0892 53.8635 53.7131 54.2397 53.2617 54.2397Z" fill="#204497" transform="matrix(1.01026 0 0 1 34 267.606)"/></g></g></g></g></svg>