<svg width="1288" height="1279" xmlns="http://www.w3.org/2000/svg" xmlns:xlink="http://www.w3.org/1999/xlink" xml:space="preserve" overflow="hidden"><defs><clipPath id="clip0"><rect x="1925" y="363" width="1288" height="1279"/></clipPath></defs><g clip-path="url(#clip0)" transform="translate(-1925 -363)"><path d="M1925 384.667C1925 372.701 1934.7 363 1946.67 363L2202.33 363C2214.3 363 2224 372.701 2224 384.667L2224 471.333C2224 483.299 2214.3 493 2202.33 493L1946.67 493C1934.7 493 1925 483.299 1925 471.333Z" fill="#204497" fill-rule="evenodd"/><text fill="#FFFFFF" font-family="Verdana,Verdana_MSFontService,sans-serif" font-weight="400" font-size="55" transform="matrix(1 0 0 1 1992.91 450)">X.<tspan font-size="55" x="57.8645" y="0">509</tspan></text><path d="M1925 658.667C1925 639.521 1940.52 624 1959.67 624L2189.33 624C2208.48 624 2224 639.521 2224 658.667L2224 797.333C2224 816.479 2208.48 832 2189.33 832L1959.67 832C1940.52 832 1925 816.479 1925 797.333Z" fill="#F2F2F2" fill-rule="evenodd"/><text font-family="Latha,Latha_MSFontService,sans-serif" font-weight="400" font-size="37" transform="translate(1974.29 690)">சான்றித<tspan font-size="37" x="165" y="0">ழ் </tspan><tspan font-size="37" x="23.4896" y="44">வடிவம்</tspan></text><text fill="#0066A1" font-family="Verdana,Verdana_MSFontService,sans-serif" font-weight="400" font-size="46" transform="matrix(1 0 0 1 1982.04 790)">(ASN.<tspan font-size="46" x="134.636" y="0">1</tspan>)</text><path d="M1982.29 793.814 2028.29 793.814 2074.29 793.814 2120.29 793.814 2166.29 793.814 2166.29 796.814 2120.29 796.814 2074.29 796.814 2028.29 796.814 1982.29 796.814Z" fill="#0066A1" fill-rule="evenodd"/><path d="M2304 879.667C2304 867.701 2313.7 858 2325.67 858L3191.33 858C3203.3 858 3213 867.701 3213 879.667L3213 966.333C3213 978.299 3203.3 988 3191.33 988L2325.67 988C2313.7 988 2304 978.299 2304 966.333Z" fill="#FC9A05" fill-rule="evenodd"/><text fill="#FFFFFF" font-family="Verdana,Verdana_MSFontService,sans-serif" font-weight="400" font-size="46" transform="matrix(1 0 0 1 2343.17 941)">PEM</text><path d="M2739 901.833C2739 895.85 2743.85 891 2749.83 891L2858.17 891C2864.15 891 2869 895.85 2869 901.833L2869 945.166C2869 951.149 2864.15 956 2858.17 956L2749.83 956C2743.85 956 2739 951.149 2739 945.166Z" fill="#F2F2F2" fill-rule="evenodd"/><text font-family="Verdana,Verdana_MSFontService,sans-serif" font-weight="400" font-size="46" transform="matrix(1 0 0 1 2764.9 941)">.<tspan font-size="46" x="16.6145" y="0">crt</tspan></text><path d="M2899 901.833C2899 895.85 2903.85 891 2909.83 891L3018.17 891C3024.15 891 3029 895.85 3029 901.833L3029 945.166C3029 951.15 3024.15 956 3018.17 956L2909.83 956C2903.85 956 2899 951.15 2899 945.166Z" fill="#F2F2F2" fill-rule="evenodd"/><text font-family="Verdana,Verdana_MSFontService,sans-serif" font-weight="400" font-size="46" transform="matrix(1 0 0 1 2920 941)">.<tspan font-size="46" x="16.6145" y="0">cer</tspan></text><path d="M3059 902.834C3059 896.85 3063.85 892 3069.83 892L3177.17 892C3183.15 892 3188 896.85 3188 902.834L3188 946.167C3188 952.15 3183.15 957 3177.17 957L3069.83 957C3063.85 957 3059 952.15 3059 946.167Z" fill="#F2F2F2" fill-rule="evenodd"/><text font-family="Verdana,Verdana_MSFontService,sans-serif" font-weight="400" font-size="46" transform="matrix(1 0 0 1 3074.53 942)">.key</text><path d="M2579 901.833C2579 895.85 2583.85 891 2589.83 891L2698.17 891C2704.15 891 2709 895.85 2709 901.833L2709 945.166C2709 951.149 2704.15 956 2698.17 956L2589.83 956C2583.85 956 2579 951.149 2579 945.166Z" fill="#F2F2F2" fill-rule="evenodd"/><text font-family="Verdana,Verdana_MSFontService,sans-serif" font-weight="400" font-size="46" transform="matrix(1 0 0 1 2585.38 941)">.<tspan font-size="46" x="16.6147" y="0">pem</tspan></text><path d="M2303 1049.67C2303 1037.7 2312.7 1028 2324.67 1028L3190.33 1028C3202.3 1028 3212 1037.7 3212 1049.67L3212 1136.33C3212 1148.3 3202.3 1158 3190.33 1158L2324.67 1158C2312.7 1158 2303 1148.3 2303 1136.33Z" fill="#FC9A05" fill-rule="evenodd"/><text fill="#FFFFFF" font-family="Verdana,Verdana_MSFontService,sans-serif" font-weight="400" font-size="46" transform="matrix(1 0 0 1 2342.37 1111)">PKCS #<tspan font-size="46" x="175.885" y="0">7</tspan></text><path d="M2738 1071.83C2738 1065.85 2742.85 1061 2748.83 1061L2857.17 1061C2863.15 1061 2868 1065.85 2868 1071.83L2868 1115.17C2868 1121.15 2863.15 1126 2857.17 1126L2748.83 1126C2742.85 1126 2738 1121.15 2738 1115.17Z" fill="#F2F2F2" fill-rule="evenodd"/><text font-family="Verdana,Verdana_MSFontService,sans-serif" font-weight="400" font-size="46" transform="matrix(1 0 0 1 2754.07 1111)">.p<tspan font-size="46" x="45.2605" y="0">7</tspan><tspan font-size="46" x="74.4793" y="0">c</tspan></text><path d="M2578 1071.83C2578 1065.85 2582.85 1061 2588.83 1061L2697.17 1061C2703.15 1061 2708 1065.85 2708 1071.83L2708 1115.17C2708 1121.15 2703.15 1126 2697.17 1126L2588.83 1126C2582.85 1126 2578 1121.15 2578 1115.17Z" fill="#F2F2F2" fill-rule="evenodd"/><text font-family="Verdana,Verdana_MSFontService,sans-serif" font-weight="400" font-size="46" transform="matrix(1 0 0 1 2591.73 1111)">.p<tspan font-size="46" x="45.2605" y="0">7</tspan><tspan font-size="46" x="74.4793" y="0">b</tspan></text><path d="M2303 1347.67C2303 1335.7 2312.7 1326 2324.67 1326L3190.33 1326C3202.3 1326 3212 1335.7 3212 1347.67L3212 1434.33C3212 1446.3 3202.3 1456 3190.33 1456L2324.67 1456C2312.7 1456 2303 1446.3 2303 1434.33Z" fill="#AE5E0E" fill-rule="evenodd"/><text fill="#FFFFFF" font-family="Verdana,Verdana_MSFontService,sans-serif" font-weight="400" font-size="46" transform="matrix(1 0 0 1 2342.37 1409)">DER</text><path d="M2738 1369.67C2738 1363.78 2742.78 1359 2748.67 1359L2857.33 1359C2863.22 1359 2868 1363.78 2868 1369.67L2868 1412.33C2868 1418.22 2863.22 1423 2857.33 1423L2748.67 1423C2742.78 1423 2738 1418.22 2738 1412.33Z" fill="#F2F2F2" fill-rule="evenodd"/><text font-family="Verdana,Verdana_MSFontService,sans-serif" font-weight="400" font-size="46" transform="matrix(1 0 0 1 2759.51 1409)">.<tspan font-size="46" x="16.6145" y="0">cer</tspan></text><path d="M2578 1369.67C2578 1363.78 2582.78 1359 2588.67 1359L2697.33 1359C2703.22 1359 2708 1363.78 2708 1369.67L2708 1412.33C2708 1418.22 2703.22 1423 2697.33 1423L2588.67 1423C2582.78 1423 2578 1418.22 2578 1412.33Z" fill="#F2F2F2" fill-rule="evenodd"/><text font-family="Verdana,Verdana_MSFontService,sans-serif" font-weight="400" font-size="46" transform="matrix(1 0 0 1 2597.18 1409)">.der</text><path d="M2303 1503.67C2303 1491.7 2312.7 1482 2324.67 1482L3190.33 1482C3202.3 1482 3212 1491.7 3212 1503.67L3212 1590.33C3212 1602.3 3202.3 1612 3190.33 1612L2324.67 1612C2312.7 1612 2303 1602.3 2303 1590.33Z" fill="#AE5E0E" fill-rule="evenodd"/><text fill="#FFFFFF" font-family="Verdana,Verdana_MSFontService,sans-serif" font-weight="400" font-size="46" transform="matrix(1 0 0 1 2342.37 1564)">PKCS #<tspan font-size="46" x="175.885" y="0">12</tspan></text><path d="M2738 1524.83C2738 1518.85 2742.85 1514 2748.83 1514L2857.17 1514C2863.15 1514 2868 1518.85 2868 1524.83L2868 1568.17C2868 1574.15 2863.15 1579 2857.17 1579L2748.83 1579C2742.85 1579 2738 1574.15 2738 1568.17Z" fill="#F2F2F2" fill-rule="evenodd"/><text font-family="Verdana,Verdana_MSFontService,sans-serif" font-weight="400" font-size="46" transform="matrix(1 0 0 1 2751.49 1564)">.p<tspan font-size="46" x="45.2605" y="0">12</tspan></text><path d="M2578 1524.83C2578 1518.85 2582.85 1514 2588.83 1514L2697.17 1514C2703.15 1514 2708 1518.85 2708 1524.83L2708 1568.17C2708 1574.15 2703.15 1579 2697.17 1579L2588.83 1579C2582.85 1579 2578 1574.15 2578 1568.17Z" fill="#F2F2F2" fill-rule="evenodd"/><text font-family="Verdana,Verdana_MSFontService,sans-serif" font-weight="400" font-size="46" transform="matrix(1 0 0 1 2599.18 1564)">.<tspan font-size="46" x="16.6145" y="0">pfx</tspan></text><path d="M0-1.14583 90.9766-1.14583C91.6095-1.14583 92.1225-0.632826 92.1225 0L92.1225 206.644 89.8308 206.644 89.8308 0 90.9766 1.14583 0 1.14583ZM104.727 202.061 90.9766 229.561 77.2266 202.061Z" fill="#79787A" transform="matrix(1.83697e-16 1 1 -1.83697e-16 2074 832)"/><path d="M0-1.14583 261.142-1.14583C261.775-1.14583 262.288-0.632826 262.288 0L262.288 205.841 259.996 205.841 259.996 0 261.142 1.14583 0 1.14583ZM274.892 201.258 261.142 228.758 247.392 201.258Z" fill="#79787A" transform="matrix(1.83697e-16 1 1 -1.83697e-16 2074 832)"/><path d="M0-1.14583 558.745-1.14583C559.378-1.14583 559.891-0.632826 559.891 0L559.891 205.841 557.599 205.841 557.599 0 558.745 1.14583 0 1.14583ZM572.495 201.258 558.745 228.758 544.995 201.258Z" fill="#79787A" transform="matrix(1.83697e-16 1 1 -1.83697e-16 2074 832)"/><path d="M0-1.14583 714.654-1.14583C715.286-1.14583 715.799-0.632826 715.799 0L715.799 205.841 713.508 205.841 713.508 0 714.654 1.14583 0 1.14583ZM728.404 201.258 714.654 228.758 700.904 201.258Z" fill="#79787A" transform="matrix(1.83697e-16 1 1 -1.83697e-16 2074 832)"/><path d="M2075.15 493 2075.15 601.39 2072.85 601.39 2072.85 493ZM2087.75 596.807 2074 624.307 2060.25 596.807Z" fill="#79787A"/><text fill="#FC9A05" font-family="Latha,Latha_MSFontService,sans-serif" font-weight="400" font-size="28" transform="translate(2088.42 992)">அடிப்படை <tspan font-size="28" x="171.875" y="0">64</tspan><tspan font-size="28" x="0" y="33">ஆஸ்கி</tspan><tspan font-size="28" x="0" y="66">குறியாக்கம்</tspan><tspan fill="#AE5E0E" font-size="28" x="5.60864" y="500">இருமமுறை</tspan><tspan fill="#AE5E0E" font-size="28" x="5.60864" y="534">குறியாக்கம்</tspan></text><text fill="#FC9A05" font-family="Arial,Arial_MSFontService,sans-serif" font-weight="400" font-size="28" transform="matrix(1 0 0 1 2106.46 1126)">Base <tspan font-size="28" x="70.4688" y="0">64</tspan><tspan font-size="28" x="0" y="33">ASCII</tspan><tspan font-size="28" x="0" y="66">Encoding</tspan><tspan fill="#AE5E0E" font-size="28" x="5.49609" y="459">Binary</tspan><tspan fill="#AE5E0E" font-size="28" x="5.49609" y="492">Encoding</tspan></text></g></svg>