<svg width="944" height="423" xmlns="http://www.w3.org/2000/svg" xmlns:xlink="http://www.w3.org/1999/xlink" xml:space="preserve" overflow="hidden"><defs><clipPath id="clip0"><rect x="1984" y="1006" width="944" height="423"/></clipPath></defs><g clip-path="url(#clip0)" transform="translate(-1984 -1006)"><text fill="#01919A" font-family="Latha,Latha_MSFontService,sans-serif" font-weight="700" font-size="46" transform="translate(2071.12 1221)">விரிவாக்கப்பட்ட சரிபார்த்த<tspan font-size="46" x="715.573" y="0">ல் </tspan><tspan font-size="46" x="-59.5834" y="56">குறியீடு ஒப்பமிடல் சான்றி</tspan>தழ்கள்</text><text fill="#01919A" font-family="Verdana,Verdana_MSFontService,sans-serif" font-weight="700" font-size="46" transform="matrix(1 0 0 1 2031.01 1336)">Extended Validated Code Signing <tspan font-size="46" x="278.163" y="55">Certificates</tspan></text><path d="M2458.5 1024.62 2455.66 1024.7 2452.93 1025.1 2450.25 1025.7 2447.64 1026.53 2445.16 1027.61 2442.83 1028.88 2440.58 1030.35 2438.49 1031.98 2436.55 1033.78 2434.74 1035.73 2433.12 1037.87 2431.66 1040.1 2430.39 1042.53 2429.33 1045.04 2428.5 1047.66 2427.91 1050.33 2427.51 1053.11 2427.39 1055.98 2427.51 1058.81 2427.87 1061.63 2428.46 1064.3 2429.33 1066.92 2430.39 1069.43 2431.66 1071.82 2433.08 1074.05 2434.7 1076.19 2436.51 1078.18 2438.45 1079.98 2440.54 1081.65 2442.79 1083.08 2445.12 1084.35 2447.61 1085.39 2450.21 1086.26 2452.89 1086.9 2455.62 1087.26 2458.46 1087.38 2461.26 1087.26 2464.03 1086.9 2466.75 1086.26 2469.28 1085.43 2471.76 1084.35 2474.13 1083.12 2476.42 1081.65 2478.47 1080.02 2480.45 1078.18 2482.26 1076.19 2483.88 1074.09 2485.3 1071.82 2486.57 1069.47 2487.63 1066.96 2488.46 1064.34 2489.09 1061.67 2489.45 1058.85 2489.61 1056.02 2489.45 1053.15 2489.09 1050.37 2488.46 1047.7 2487.63 1045.08 2486.61 1042.57 2485.34 1040.14 2483.92 1037.91 2482.26 1035.77 2480.49 1033.82 2478.51 1032.02 2476.42 1030.35 2474.21 1028.92 2471.8 1027.65 2469.36 1026.57 2466.79 1025.7 2464.11 1025.1 2461.3 1024.74 2458.5 1024.62ZM2458.54 1006 2459.09 1006.08 2459.61 1006.32 2460.08 1006.68 2464.38 1010.97 2469.63 1007.91 2470.14 1007.71 2470.78 1007.67 2471.33 1007.71 2471.84 1007.99 2472.32 1008.31 2472.67 1008.79 2475.71 1014.12 2481.55 1012.53 2482.14 1012.45 2482.7 1012.53 2483.25 1012.73 2483.72 1013.08 2484.08 1013.56 2484.32 1014.12 2485.86 1020.01 2491.93 1020.01 2492.64 1020.13 2493.24 1020.45 2493.71 1020.92 2494.07 1021.56 2494.14 1022.28 2494.14 1028.36 2499.99 1030 2500.66 1030.27 2501.17 1030.75 2501.53 1031.35 2501.64 1032.02 2501.61 1032.74 2499.99 1038.63 2505.24 1041.73 2505.71 1042.09 2506.07 1042.57 2506.3 1043.09 2506.38 1043.68 2506.3 1044.24 2506.07 1044.8 2503.03 1050.09 2507.33 1054.43 2507.68 1054.87 2507.88 1055.46 2508 1056.02 2507.88 1056.62 2507.68 1057.17 2507.33 1057.65 2503.03 1061.99 2506.07 1067.24 2506.3 1067.8 2506.34 1068.36 2506.3 1068.95 2506.07 1069.51 2505.71 1069.95 2505.24 1070.35 2499.95 1073.41 2501.57 1079.26 2501.64 1080.02 2501.49 1080.73 2501.13 1081.29 2500.62 1081.77 2499.95 1082.08 2494.11 1083.64 2494.11 1089.72 2493.99 1090.48 2493.67 1091.08 2493.2 1091.59 2492.61 1091.87 2491.89 1092.03 2485.82 1092.03 2484.28 1097.92 2484 1098.44 2483.64 1098.92 2483.17 1099.27 2482.66 1099.51 2482.11 1099.59 2481.51 1099.51 2475.67 1097.92 2472.59 1103.21 2472.24 1103.69 2471.76 1104.05 2471.25 1104.29 2470.7 1104.37 2470.11 1104.29 2469.55 1104.01 2464.3 1100.99 2460 1105.32 2459.57 1105.68 2459.01 1105.88 2458.46 1106 2457.87 1105.88 2457.32 1105.68 2456.88 1105.32 2452.58 1100.99 2447.33 1104.01 2446.78 1104.25 2446.22 1104.33 2445.67 1104.25 2445.12 1104.01 2444.64 1103.65 2444.25 1103.17 2441.29 1097.88 2435.41 1099.47 2434.7 1099.55 2434.03 1099.43 2433.43 1099.08 2432.96 1098.56 2432.64 1097.88 2431.07 1091.95 2425.07 1091.95 2424.32 1091.83 2423.72 1091.52 2423.21 1091.04 2422.93 1090.44 2422.78 1089.68 2422.78 1083.6 2416.93 1082 2416.42 1081.77 2415.95 1081.41 2415.59 1080.93 2415.39 1080.41 2415.28 1079.82 2415.39 1079.22 2416.93 1073.33 2411.68 1070.27 2411.25 1069.91 2410.86 1069.43 2410.7 1068.87 2410.62 1068.32 2410.66 1067.72 2410.89 1067.2 2413.89 1061.87 2409.63 1057.53 2409.32 1057.05 2409.04 1056.54 2409 1055.94 2409.04 1055.34 2409.32 1054.83 2409.63 1054.35 2413.93 1050.01 2410.89 1044.72 2410.7 1044.2 2410.62 1043.6 2410.7 1043.05 2410.89 1042.49 2411.25 1042.01 2411.72 1041.65 2416.97 1038.59 2415.43 1032.7 2415.32 1032.1 2415.43 1031.55 2415.63 1030.95 2415.99 1030.51 2416.46 1030.11 2416.97 1029.92 2422.86 1028.32 2422.86 1022.2 2422.97 1021.52 2423.29 1020.88 2423.76 1020.41 2424.39 1020.09 2425.11 1019.97 2431.18 1019.97 2432.72 1014.08 2433.04 1013.4 2433.51 1012.88 2434.07 1012.53 2434.78 1012.41 2435.45 1012.49 2441.33 1014.08 2444.37 1008.75 2444.68 1008.27 2445.16 1007.91 2445.71 1007.71 2446.3 1007.63 2446.86 1007.71 2447.45 1007.91 2452.62 1010.97 2456.92 1006.68 2457.39 1006.32 2457.95 1006.08 2458.54 1006Z" fill="#01919A" fill-rule="evenodd"/><path d="M2488.6 1100 2505.76 1136.75 2505.96 1137.29 2506 1137.92 2505.8 1138.51 2505.53 1139.01 2505.1 1139.44 2504.55 1139.76 2503.96 1139.87 2503.38 1139.84 2490.52 1137.53 2484.02 1148.87 2483.71 1149.34 2483.28 1149.69 2482.69 1149.92 2482.14 1150 2482.06 1150 2481.39 1149.88 2480.89 1149.61 2480.42 1149.22 2480.1 1148.71 2462 1109.89 2462.86 1109.38 2463.61 1108.76 2465.49 1106.84 2467.72 1108.13 2468.74 1108.64 2469.91 1108.95 2471.09 1109.07 2472.23 1108.95 2473.4 1108.64 2474.42 1108.17 2475.36 1107.54 2476.14 1106.72 2476.85 1105.79 2478.14 1103.48 2480.65 1104.14 2481.51 1104.34 2482.41 1104.38 2483.59 1104.3 2484.69 1103.99 2485.67 1103.52 2486.61 1102.85 2487.43 1102.03 2488.13 1101.09 2488.6 1100Z" fill="#01919A" fill-rule="evenodd"/><path d="M2428.74 1100 2429.3 1101.06 2429.98 1102 2430.78 1102.82 2431.74 1103.44 2432.82 1103.95 2433.94 1104.26 2435.14 1104.34 2436.06 1104.3 2436.9 1104.15 2439.51 1103.44 2440.83 1105.71 2441.51 1106.73 2442.35 1107.51 2443.31 1108.18 2444.39 1108.65 2445.51 1108.96 2446.71 1109.04 2447.87 1108.96 2449.03 1108.65 2450.07 1108.14 2452.44 1106.85 2454.4 1108.8 2455.16 1109.39 2456 1109.9 2437.42 1148.71 2437.06 1149.22 2436.58 1149.61 2436.06 1149.92 2435.46 1150 2435.34 1150 2434.78 1149.92 2434.22 1149.69 2433.74 1149.33 2433.38 1148.87 2426.81 1137.52 2413.6 1139.83 2413 1139.83 2412.44 1139.71 2411.92 1139.4 2411.48 1139.01 2411.16 1138.46 2411 1137.91 2411.04 1137.28 2411.2 1136.7 2428.74 1100Z" fill="#01919A" fill-rule="evenodd"/><path d="M2458.5 1029 2461.21 1029.12 2463.84 1029.52 2466.39 1030.2 2468.79 1031.12 2471.14 1032.28 2473.3 1033.64 2475.3 1035.16 2477.23 1036.91 2478.95 1038.87 2480.45 1040.91 2481.78 1043.19 2482.88 1045.51 2483.78 1048.03 2484.41 1050.54 2484.8 1053.26 2485 1056.02 2484.8 1058.78 2484.41 1061.42 2483.78 1064.01 2482.88 1066.53 2481.74 1068.85 2480.41 1071.09 2478.91 1073.17 2477.19 1075.13 2475.3 1076.8 2473.26 1078.4 2471.1 1079.72 2468.75 1080.88 2466.35 1081.8 2463.8 1082.44 2461.17 1082.84 2458.46 1083 2455.79 1082.84 2453.16 1082.44 2450.61 1081.76 2448.17 1080.88 2445.86 1079.72 2443.7 1078.36 2441.62 1076.8 2439.77 1075.05 2438.05 1073.13 2436.51 1071.05 2435.18 1068.81 2434.08 1066.49 2433.22 1063.97 2432.51 1061.42 2432.12 1058.74 2432 1055.98 2432.12 1053.18 2432.55 1050.5 2433.22 1047.95 2434.12 1045.47 2435.18 1043.11 2436.51 1040.87 2438.09 1038.83 2439.77 1036.87 2441.66 1035.16 2443.7 1033.6 2445.9 1032.28 2448.21 1031.12 2450.65 1030.2 2453.2 1029.52 2455.83 1029.12 2458.5 1029Z" fill="#01919A" fill-rule="evenodd"/></g></svg>