<svg width="3066" height="667" xmlns="http://www.w3.org/2000/svg" xmlns:xlink="http://www.w3.org/1999/xlink" xml:space="preserve" overflow="hidden"><defs><clipPath id="clip0"><rect x="117" y="725" width="3066" height="667"/></clipPath><clipPath id="clip1"><rect x="1002" y="761" width="104" height="104"/></clipPath><clipPath id="clip2"><rect x="1002" y="761" width="104" height="104"/></clipPath><clipPath id="clip3"><rect x="1002" y="761" width="104" height="104"/></clipPath><clipPath id="clip4"><rect x="2150" y="772" width="169" height="169"/></clipPath><clipPath id="clip5"><rect x="2150" y="772" width="169" height="169"/></clipPath><clipPath id="clip6"><rect x="2150" y="772" width="169" height="169"/></clipPath></defs><g clip-path="url(#clip0)" transform="translate(-117 -725)"><path d="M514.208 725C369.792 725 369.792 725 369.792 725 369.53 727.612 369.53 727.612 369.53 727.612 369.53 728.004 365.468 770.708 314.883 774.756 312 775.017 312 775.017 312 775.017 312 778.021 312 778.021 312 778.021 312 826.21 322.484 872.44 342.534 911.879 364.944 955.628 398.754 989.713 440.559 1010.22 442 1011 442 1011 442 1011 443.311 1010.22 443.311 1010.22 443.311 1010.22 485.246 989.713 519.056 955.628 541.466 911.879 561.516 872.44 572 826.21 572 778.021 572 775.017 572 775.017 572 775.017 569.117 775.017 569.117 775.017 569.117 775.017 518.663 770.838 514.601 729.44 514.47 727.612 514.208 725 514.208 725 514.208 725" fill="#BCBCBE" fill-rule="evenodd"/><path d="M439.5 987C404.3 968.097 376.578 939.163 357.108 901.099 340.347 868.179 330.676 829.344 329 789.094 361.492 781.893 377.094 760.032 382.896 741 496.104 741 496.104 741 496.104 741 501.906 760.032 517.508 781.893 550 789.094 548.324 829.344 538.653 867.922 521.891 900.971 502.422 939.034 474.7 968.097 439.5 987Z" fill="#204497" fill-rule="evenodd"/><path d="M442 741C384.116 741 384.116 741 384.116 741 378.182 760.341 362.228 782.558 329 789.876 330.714 830.781 340.603 870.117 357.744 903.703 377.655 942.255 406.004 971.789 442 991L442 741Z" fill="#204497" fill-rule="evenodd"/><path d="M375 735.5C375 733.567 376.567 732 378.5 732 380.433 732 382 733.567 382 735.5 382 737.433 380.433 739 378.5 739 376.567 739 375 737.433 375 735.5Z" fill="#7F7F7F" fill-rule="evenodd"/><path d="M502 735.5C502 733.567 503.567 732 505.5 732 507.433 732 509 733.567 509 735.5 509 737.433 507.433 739 505.5 739 503.567 739 502 737.433 502 735.5Z" fill="#7F7F7F" fill-rule="evenodd"/><path d="M557 785.5C557 783.567 558.567 782 560.5 782 562.433 782 564 783.567 564 785.5 564 787.433 562.433 789 560.5 789 558.567 789 557 787.433 557 785.5Z" fill="#7F7F7F" fill-rule="evenodd"/><path d="M318 785.5C318 783.567 319.791 782 322 782 324.209 782 326 783.567 326 785.5 326 787.433 324.209 789 322 789 319.791 789 318 787.433 318 785.5Z" fill="#7F7F7F" fill-rule="evenodd"/><path d="M439 999.5C439 997.567 440.567 996 442.5 996 444.433 996 446 997.567 446 999.5 446 1001.43 444.433 1003 442.5 1003 440.567 1003 439 1001.43 439 999.5Z" fill="#7F7F7F" fill-rule="evenodd"/><path d="M531 900.5C531 898.567 532.567 897 534.5 897 536.433 897 538 898.567 538 900.5 538 902.433 536.433 904 534.5 904 532.567 904 531 902.433 531 900.5Z" fill="#7F7F7F" fill-rule="evenodd"/><path d="M345 900.5C345 898.567 346.567 897 348.5 897 350.433 897 352 898.567 352 900.5 352 902.433 350.433 904 348.5 904 346.567 904 345 902.433 345 900.5Z" fill="#7F7F7F" fill-rule="evenodd"/><path d="M441.5 882.105 439.634 882.157 437.846 882.415 436.083 882.803 434.373 883.347 432.74 884.045 431.211 884.873 429.734 885.83 428.36 886.89 427.09 888.054 425.898 889.322 424.835 890.718 423.876 892.167 423.047 893.745 422.347 895.374 421.803 897.081 421.414 898.814 421.155 900.625 421.077 902.487 421.155 904.324 421.388 906.16 421.777 907.893 422.347 909.6 423.047 911.23 423.876 912.782 424.809 914.23 425.872 915.627 427.064 916.92 428.334 918.084 429.708 919.17 431.185 920.102 432.714 920.929 434.347 921.602 436.057 922.171 437.82 922.585 439.608 922.817 441.474 922.895 443.314 922.817 445.128 922.585 446.917 922.171 448.575 921.628 450.208 920.929 451.763 920.127 453.266 919.17 454.614 918.11 455.91 916.92 457.102 915.627 458.165 914.256 459.098 912.782 459.927 911.255 460.627 909.626 461.171 907.919 461.586 906.186 461.819 904.349 461.923 902.513 461.819 900.651 461.586 898.84 461.171 897.107 460.627 895.4 459.953 893.77 459.124 892.193 458.191 890.744 457.102 889.347 455.936 888.08 454.64 886.916 453.266 885.83 451.815 884.899 450.234 884.071 448.627 883.372 446.943 882.803 445.18 882.415 443.34 882.183 441.5 882.105ZM441.526 870 441.889 870.052 442.226 870.207 442.537 870.44 445.362 873.233 448.809 871.242 449.146 871.112 449.56 871.086 449.923 871.112 450.26 871.293 450.571 871.5 450.804 871.811 452.8 875.277 456.636 874.242 457.024 874.19 457.387 874.242 457.75 874.371 458.061 874.604 458.294 874.914 458.45 875.277 459.461 879.105 463.452 879.105 463.918 879.182 464.307 879.389 464.618 879.7 464.851 880.113 464.903 880.579 464.903 884.536 468.739 885.597 469.179 885.778 469.516 886.088 469.75 886.476 469.827 886.916 469.801 887.382 468.739 891.21 472.186 893.227 472.497 893.46 472.73 893.77 472.886 894.107 472.937 894.495 472.886 894.857 472.73 895.219 470.734 898.659 473.559 901.478 473.793 901.763 473.922 902.151 474 902.513 473.922 902.901 473.793 903.263 473.559 903.573 470.734 906.393 472.73 909.807 472.886 910.169 472.911 910.531 472.886 910.919 472.73 911.281 472.497 911.566 472.186 911.825 468.713 913.816 469.776 917.618 469.827 918.11 469.724 918.575 469.49 918.938 469.154 919.248 468.713 919.455 464.877 920.464 464.877 924.421 464.799 924.912 464.592 925.3 464.281 925.637 463.892 925.818 463.426 925.921 459.435 925.921 458.424 929.749 458.242 930.086 458.009 930.396 457.698 930.629 457.361 930.784 456.998 930.836 456.61 930.784 452.774 929.749 450.752 933.189 450.519 933.5 450.208 933.733 449.871 933.888 449.508 933.94 449.12 933.888 448.757 933.707 445.31 931.741 442.485 934.56 442.2 934.793 441.837 934.922 441.474 935 441.085 934.922 440.723 934.793 440.437 934.56 437.612 931.741 434.166 933.707 433.803 933.862 433.44 933.914 433.077 933.862 432.714 933.707 432.403 933.474 432.144 933.164 430.2 929.723 426.339 930.758 425.872 930.81 425.431 930.732 425.043 930.499 424.732 930.163 424.524 929.723 423.488 925.87 419.548 925.87 419.056 925.792 418.667 925.585 418.33 925.275 418.149 924.887 418.045 924.395 418.045 920.438 414.209 919.403 413.872 919.248 413.561 919.015 413.328 918.705 413.199 918.369 413.121 917.981 413.199 917.593 414.209 913.764 410.762 911.773 410.477 911.54 410.218 911.23 410.115 910.868 410.063 910.505 410.089 910.117 410.244 909.781 412.214 906.315 409.415 903.496 409.207 903.185 409.026 902.849 409 902.461 409.026 902.073 409.207 901.737 409.415 901.427 412.24 898.607 410.244 895.167 410.115 894.831 410.063 894.443 410.115 894.081 410.244 893.719 410.477 893.408 410.788 893.176 414.235 891.184 413.225 887.356 413.147 886.968 413.225 886.606 413.354 886.218 413.587 885.933 413.898 885.675 414.235 885.545 418.097 884.511 418.097 880.527 418.175 880.088 418.382 879.674 418.693 879.363 419.108 879.156 419.574 879.079 423.565 879.079 424.576 875.251 424.784 874.811 425.095 874.475 425.457 874.242 425.924 874.164 426.364 874.216 430.226 875.251 432.222 871.785 432.429 871.474 432.74 871.242 433.103 871.112 433.492 871.061 433.855 871.112 434.243 871.242 437.638 873.233 440.463 870.44 440.774 870.207 441.137 870.052 441.526 870Z" fill="#FFFFFF" fill-rule="evenodd"/><path d="M461.534 931 472.845 955.253 472.974 955.614 473 956.027 472.871 956.414 472.69 956.75 472.406 957.034 472.045 957.24 471.657 957.317 471.27 957.292 462.8 955.769 458.513 963.252 458.306 963.561 458.022 963.793 457.635 963.948 457.273 964 457.222 964 456.783 963.922 456.447 963.742 456.137 963.484 455.931 963.148 444 937.528 444.568 937.192 445.059 936.779 446.298 935.515 447.77 936.367 448.442 936.702 449.216 936.908 449.991 936.986 450.74 936.908 451.515 936.702 452.186 936.392 452.806 935.98 453.322 935.438 453.787 934.818 454.639 933.296 456.292 933.735 456.86 933.864 457.454 933.89 458.229 933.838 458.952 933.632 459.598 933.322 460.217 932.883 460.76 932.342 461.224 931.722 461.534 931Z" fill="#FFFFFF" fill-rule="evenodd"/><path d="M421.824 931 422.198 931.697 422.651 932.317 423.185 932.859 423.826 933.272 424.546 933.608 425.294 933.814 426.094 933.866 426.708 933.84 427.269 933.737 429.004 933.272 429.884 934.77 430.338 935.441 430.899 935.958 431.539 936.397 432.26 936.706 433.007 936.913 433.808 936.965 434.582 936.913 435.356 936.706 436.05 936.371 437.625 935.519 438.932 936.81 439.439 937.197 440 937.533 427.616 963.148 427.375 963.483 427.055 963.742 426.708 963.948 426.308 964 426.228 964 425.854 963.948 425.48 963.793 425.16 963.561 424.92 963.251 420.543 955.763 411.735 957.286 411.335 957.286 410.961 957.209 410.614 957.002 410.32 956.744 410.107 956.383 410 956.021 410.027 955.608 410.134 955.221 421.824 931Z" fill="#FFFFFF" fill-rule="evenodd"/><path d="M441.5 885 443.289 885.078 445.026 885.337 446.711 885.777 448.292 886.373 449.848 887.125 451.274 888.005 452.596 888.99 453.867 890.13 455.007 891.399 455.992 892.72 456.874 894.197 457.6 895.7 458.196 897.332 458.611 898.964 458.87 900.725 459 902.513 458.87 904.301 458.611 906.01 458.196 907.694 457.6 909.326 456.848 910.829 455.967 912.28 454.981 913.627 453.841 914.896 452.596 915.984 451.248 917.021 449.822 917.876 448.267 918.627 446.685 919.223 445 919.637 443.263 919.896 441.474 920 439.711 919.896 437.974 919.637 436.289 919.197 434.681 918.627 433.152 917.876 431.726 916.995 430.352 915.984 429.133 914.844 427.992 913.601 426.981 912.254 426.1 910.803 425.374 909.3 424.804 907.668 424.337 906.01 424.078 904.275 424 902.487 424.078 900.674 424.363 898.938 424.804 897.28 425.4 895.674 426.1 894.145 426.981 892.694 428.018 891.373 429.133 890.104 430.378 888.99 431.726 887.979 433.178 887.125 434.707 886.373 436.315 885.777 438 885.337 439.737 885.078 441.5 885Z" fill="#FFFFFF" fill-rule="evenodd"/><path d="M461.064 749.164C461.064 749.164 461.44 746 454.67 747.055 455.422 747.406 455.798 747.406 455.798 747.406 455.798 747.406 451.661 747.055 450.908 749.516 451.661 749.164 452.037 748.813 452.037 748.813 452.037 748.813 449.027 751.625 450.532 754.79 449.404 756.547 451.284 759.009 451.284 759.009 451.284 759.009 452.413 760.767 452.037 761.47 452.413 762.524 452.413 760.415 452.413 760.415 452.413 760.415 453.165 763.579 451.284 764.986 449.404 767.095 441.128 768.853 441.128 768.853 441.128 768.853 440 768.501 440.752 773.775 441.505 784.674 442.633 785.729 442.633 785.729 442.633 785.729 443.761 787.487 444.89 788.19 443.761 791.003 440 811.043 440 811.043 440 811.043 441.881 811.746 444.89 812.098 447.523 827.216 453.917 855.694 453.917 855.694 453.917 855.694 452.789 856.749 455.046 859.21 455.798 860.265 455.046 862.375 455.046 862.375 455.046 862.375 453.165 866.945 457.679 867.297 462.945 868 461.44 863.781 461.44 863.781 461.44 863.781 460.312 859.562 461.064 859.21 463.697 857.452 462.193 855.694 462.193 855.694 462.193 855.694 459.56 850.772 459.936 850.069 460.312 848.311 458.807 844.092 458.807 844.092 458.807 844.092 457.303 826.865 458.431 824.403 459.56 821.591 458.807 817.723 458.807 817.723 458.807 817.723 458.431 813.856 460.312 817.02 461.816 819.833 464.073 833.896 463.321 837.412 463.321 840.928 464.826 845.147 464.826 845.147 464.826 845.147 465.578 849.718 465.954 850.069 465.578 851.124 465.578 853.233 465.578 853.233 465.578 853.233 462.569 854.288 465.202 858.156 464.449 860.265 465.202 863.429 465.202 863.429 468.211 864.484 468.211 864.484 468.211 864.484 468.211 864.484 468.963 863.781 469.716 864.836 470.468 865.89 470.468 868 475.358 867.648 481 867.297 478.743 865.187 478.743 865.187 478.743 865.187 474.982 862.023 473.101 860.617 473.477 859.562 472.725 857.101 472.725 857.101 472.725 857.101 475.734 856.046 473.101 850.772 474.229 845.499 473.853 835.654 473.853 835.654 473.853 835.654 475.358 832.138 472.349 810.692 473.101 810.34 476.486 809.285 476.486 809.285 476.486 809.285 469.339 791.706 469.339 790.651 475.358 790.3 474.605 788.19 474.605 788.19 474.605 788.19 474.605 774.127 472.349 771.314 471.972 768.853 470.092 769.205 470.092 769.205 462.945 767.095 462.945 767.095 462.945 767.095 460.688 764.986 460.688 764.986 460.688 764.986 460.688 764.986 459.936 764.282 460.312 762.876 461.064 762.173 461.064 761.821 461.064 761.821 461.064 761.821 460.688 762.524 461.064 762.524 461.816 762.173 461.44 760.767 461.44 760.767 461.44 760.767 462.193 759.712 462.193 759.36 463.321 759.712 463.321 755.844 463.321 755.844 463.321 755.844 465.202 753.735 462.945 750.922 462.569 750.219 464.073 750.922 464.073 750.922 464.073 750.922 462.945 749.516 461.816 750.219 462.569 749.867 461.44 748.109 461.44 748.109 461.44 748.109 461.816 749.164 461.064 749.164Z" fill="#FFFFFF" fill-rule="evenodd"/><path d="M455.615 766.857C452.154 764 452.154 764 452.154 764 451 765.429 451 765.429 451 765.429 451 765.429 454.077 771.143 454.846 772.929 455.615 772.214 455.615 769.714 455.615 769.714 455.615 769.714 454.077 767.572 455.615 767.214 457.538 767.214 457.923 767.572 457.923 767.572 457.923 767.572 458.308 769.357 457.538 769.714 457.154 771.143 458.692 774 458.692 774 458.692 774 460.615 766.143 461 765.429 460.231 764.357 460.231 764.357 460.231 764.357 457.538 766.857 457.538 766.857 457.538 766.857L455.615 766.857Z" fill="#FFFFFF" fill-rule="evenodd"/><path d="M454 788.333C454 788.333 454.572 793 455.714 792.667 456 792 454.572 788 454.572 788L454 788.333Z" fill="#FFFFFF" fill-rule="evenodd"/><path d="M462.8 781.737C462.8 781.737 464 785.053 463.6 787.631 462.4 788 462.4 788 462.4 788 462.4 788 463.2 783.947 462 781.368 462.4 781 462.8 781.737 462.8 781.737Z" fill="#FFFFFF" fill-rule="evenodd"/><path d="M420.454 751.102C420.454 751.102 416.818 749 415 752.503 412.091 754.255 412.454 757.057 412.454 757.057 412.454 757.057 413.545 758.458 411.727 759.509 409.545 761.611 413.545 762.311 413.545 762.311 413.545 762.311 409.909 760.21 413.182 759.159 413.545 759.859 413.909 761.611 413.909 761.611 413.909 761.611 414.273 764.063 413.545 764.413 412.818 764.763 408.454 766.165 409.545 768.266 409.545 766.515 412.454 765.464 412.454 765.464 412.454 765.464 408.818 769.668 410.636 770.368 410.636 767.566 412.454 766.515 412.454 766.515 412.454 766.515 413.545 766.515 413.545 767.916 413.182 769.317 412.454 771.069 411.727 771.069 411 771.069 409.182 771.419 409.182 771.419 409.182 771.419 408.091 772.82 407 777.725 405.909 782.979 404.091 784.731 404.091 784.731 404.091 784.731 403 791.386 406.273 791.737 408.818 792.437 409.182 792.787 409.182 792.787 405.182 804.347 405.182 804.347 405.182 804.347 405.182 804.347 405.545 805.398 407.364 805.048 406.273 806.799 405.182 832.722 405.182 832.722 405.182 832.722 412.818 835.174 413.545 835.524 413.545 838.326 417.182 851.638 417.182 851.638 417.182 851.638 417.182 855.841 416.454 857.943 415.363 860.045 413.909 861.096 413.909 861.096 413.909 861.096 411.363 864.248 411.727 865.299 413.182 866 416.818 864.599 416.818 864.599 416.818 865.65 416.818 865.65 416.818 865.65 416.818 865.65 416.454 866 420.091 865.65 425.909 864.949 425.909 862.847 425.909 862.847 425.909 862.847 427 859.695 427.727 860.045 427.727 861.096 427.727 861.796 427.727 861.796 428.454 861.446 428.454 861.446 428.454 861.446 428.454 859.344 428.454 859.344 428.454 859.344 428.454 859.344 431 856.542 429.182 854.44 428.091 853.039 427.727 852.338 427.727 852.338 427.727 852.338 427 849.886 427.363 846.734 428.454 839.377 425.545 835.524 425.545 835.524 425.545 835.524 424.454 832.021 424.818 831.32 425.182 830.269 424.091 827.817 424.091 827.817 424.091 827.817 428.454 812.754 427.727 809.602 428.091 808.201 428.091 807.5 428.091 807.5 428.091 807.5 431.363 807.85 431.727 806.099 431.727 803.997 429.909 793.838 429.909 793.838 430.273 793.838 430.273 793.838 430.273 793.838 430.273 793.838 429.182 788.934 429.545 788.584 433.545 785.781 433.182 777.374 433.182 777.374 433.182 777.374 435 771.069 431.727 770.368 428.454 769.668 426.636 768.967 426.636 768.967 426.636 768.967 425.182 765.814 428.818 768.617 428.818 766.865 426.636 765.814 426.636 765.814 426.636 765.814 425.182 764.063 426.273 762.311 426.273 765.464 428.454 765.814 428.454 765.814 428.454 765.814 426.273 763.713 426.636 760.56 427 760.56 427.363 761.611 427.363 761.611 427.363 761.611 427.727 759.859 426.636 759.159 428.818 758.108 426.273 756.707 426.273 756.707 426.273 756.707 425.909 752.503 424.454 752.153 421.545 749 420.454 751.102 420.454 751.102Z" fill="#FFFFFF" fill-rule="evenodd"/><path d="M417.308 766.684C417.308 766.684 415 768.395 415 769.421 415 770.105 416.154 772.158 416.154 772.158 416.154 772.158 416.538 778.316 416.538 779 418.077 774.553 425 767.026 425 767.026 424.231 766 424.231 766 424.231 766 424.231 766 419.615 768.395 418.077 768.395 417.692 769.421 417.308 769.763 417.308 769.763L417.308 766.684Z" fill="#FFFFFF" fill-rule="evenodd"/><path d="M411.429 783.333C411.429 783.333 410 784.333 411.143 788 411.429 788 411.429 788 411.429 788 411.429 788 410 785.333 412 783 411.714 783.333 411.429 783.333 411.429 783.333Z" fill="#FFFFFF" fill-rule="evenodd"/><path d="M420.5 790 420 794 421 794 421 790 420.5 790Z" fill="#FFFFFF" fill-rule="evenodd"/><path d="M420.444 843C420.444 843 420 852 421.778 853.875 423.555 854.625 423.555 855 423.555 855 423.555 855 424 846.375 420.444 843Z" fill="#FFFFFF" fill-rule="evenodd"/><path d="M421.333 859C421.333 859 420 861.143 420 862 422 860.286 421.333 859 421.333 859Z" fill="#FFFFFF" fill-rule="evenodd"/><text font-family="Latha,Latha_MSFontService,sans-serif" font-weight="400" font-size="48" transform="translate(245.362 1126)">இலக்கமுறைக் <tspan font-size="48" x="-89.65" y="59">குறியொப்ப</tspan><tspan font-size="48" x="220.871" y="59">சான்</tspan><tspan font-size="48" x="342.902" y="59">றிதழ்</tspan></text><text font-family="Verdana,Verdana_MSFontService,sans-serif" font-weight="400" font-size="48" transform="matrix(1 0 0 1 228.473 1247)">(Digital Signature <tspan font-size="48" x="78.7646" y="57">Certificate)</tspan></text><path d="M1126.21 735C981.792 735 981.792 735 981.792 735 981.53 737.621 981.53 737.621 981.53 737.621 981.53 738.014 977.468 780.868 926.883 784.93 924 785.192 924 785.192 924 785.192 924 788.206 924 788.206 924 788.206 924 836.564 934.484 882.956 954.534 922.533 976.944 966.435 1010.75 1000.64 1052.56 1021.21 1054 1022 1054 1022 1054 1022 1055.31 1021.21 1055.31 1021.21 1055.31 1021.21 1097.25 1000.64 1131.06 966.435 1153.47 922.533 1173.52 882.956 1184 836.564 1184 788.206 1184 785.192 1184 785.192 1184 785.192 1181.12 785.192 1181.12 785.192 1181.12 785.192 1130.66 780.999 1126.6 739.456 1126.47 737.621 1126.21 735 1126.21 735 1126.21 735" fill="#BCBCBE" fill-rule="evenodd"/><path d="M1052.5 998C1017.3 979.02 989.578 949.969 970.108 911.75 953.346 878.696 943.676 839.703 942 799.29 974.492 792.059 990.094 770.109 995.896 751 1109.1 751 1109.1 751 1109.1 751 1114.91 770.109 1130.51 792.059 1163 799.29 1161.32 839.703 1151.65 878.438 1134.89 911.621 1115.42 949.839 1087.7 979.02 1052.5 998Z" fill="#FC9A05" fill-rule="evenodd"/><path d="M1054 751C996.628 751 996.628 751 996.628 751 990.747 770.419 974.933 792.724 942 800.072 943.699 841.14 953.5 880.633 970.49 914.353 990.224 953.06 1018.32 982.713 1054 1002L1054 751Z" fill="#FC9A05" fill-rule="evenodd"/><path d="M988 745.5C988 743.567 989.567 742 991.5 742 993.433 742 995 743.567 995 745.5 995 747.433 993.433 749 991.5 749 989.567 749 988 747.433 988 745.5Z" fill="#7F7F7F" fill-rule="evenodd"/><path d="M1114 745.5C1114 743.567 1115.57 742 1117.5 742 1119.43 742 1121 743.567 1121 745.5 1121 747.433 1119.43 749 1117.5 749 1115.57 749 1114 747.433 1114 745.5Z" fill="#7F7F7F" fill-rule="evenodd"/><path d="M1169 795.5C1169 793.567 1170.57 792 1172.5 792 1174.43 792 1176 793.567 1176 795.5 1176 797.433 1174.43 799 1172.5 799 1170.57 799 1169 797.433 1169 795.5Z" fill="#7F7F7F" fill-rule="evenodd"/><path d="M931 795.5C931 793.567 932.567 792 934.5 792 936.433 792 938 793.567 938 795.5 938 797.433 936.433 799 934.5 799 932.567 799 931 797.433 931 795.5Z" fill="#7F7F7F" fill-rule="evenodd"/><path d="M1051 1009.5C1051 1007.57 1052.57 1006 1054.5 1006 1056.43 1006 1058 1007.57 1058 1009.5 1058 1011.43 1056.43 1013 1054.5 1013 1052.57 1013 1051 1011.43 1051 1009.5Z" fill="#7F7F7F" fill-rule="evenodd"/><path d="M1144 911.5C1144 909.567 1145.57 908 1147.5 908 1149.43 908 1151 909.567 1151 911.5 1151 913.433 1149.43 915 1147.5 915 1145.57 915 1144 913.433 1144 911.5Z" fill="#7F7F7F" fill-rule="evenodd"/><path d="M957 911.5C957 909.567 958.567 908 960.5 908 962.433 908 964 909.567 964 911.5 964 913.433 962.433 915 960.5 915 958.567 915 957 913.433 957 911.5Z" fill="#7F7F7F" fill-rule="evenodd"/><g clip-path="url(#clip1)"><g clip-path="url(#clip2)"><g clip-path="url(#clip3)"><path d="M1079.69 792.808 1028.32 792.808C1026.67 792.808 1025.33 794.136 1025.33 795.783L1025.33 805.911C1025.33 807.558 1026.67 808.886 1028.32 808.886L1079.69 808.886C1081.33 808.886 1082.66 807.558 1082.66 805.911L1082.66 795.783C1082.66 794.136 1081.32 792.808 1079.69 792.808ZM1030.71 799.862C1029.69 799.862 1028.87 799.042 1028.87 798.026 1028.87 797.013 1029.69 796.19 1030.71 796.19 1031.72 796.19 1032.54 797.013 1032.54 798.026 1032.54 799.043 1031.72 799.862 1030.71 799.862ZM1074.83 805.158 1061.85 805.158 1061.85 800.848 1074.83 800.848 1074.83 805.158Z" fill="#FFFFFF"/><path d="M1079.69 810.522 1028.32 810.522C1026.67 810.522 1025.33 811.853 1025.33 813.499L1025.33 823.627C1025.33 825.271 1026.67 826.603 1028.32 826.603L1079.69 826.603C1081.33 826.603 1082.66 825.271 1082.66 823.627L1082.66 813.499C1082.66 811.853 1081.32 810.522 1079.69 810.522ZM1030.71 817.579C1029.69 817.579 1028.87 816.761 1028.87 815.742 1028.87 814.73 1029.69 813.903 1030.71 813.903 1031.72 813.903 1032.54 814.729 1032.54 815.742 1032.54 816.76 1031.72 817.579 1030.71 817.579ZM1074.83 822.873 1061.85 822.873 1061.85 818.562 1074.83 818.562 1074.83 822.873Z" fill="#FFFFFF"/><path d="M1079.69 828.237 1028.32 828.237C1026.67 828.237 1025.33 829.568 1025.33 831.213L1025.33 841.341C1025.33 842.986 1026.67 844.318 1028.32 844.318L1079.69 844.318C1081.33 844.318 1082.66 842.986 1082.66 841.341L1082.66 831.213C1082.66 829.568 1081.32 828.237 1079.69 828.237ZM1030.71 835.292C1029.69 835.292 1028.87 834.477 1028.87 833.455 1028.87 832.441 1029.69 831.621 1030.71 831.621 1031.72 831.621 1032.54 832.44 1032.54 833.455 1032.54 834.477 1031.72 835.292 1030.71 835.292ZM1074.83 840.587 1061.85 840.587 1061.85 836.276 1074.83 836.276 1074.83 840.587Z" fill="#FFFFFF"/><path d="M1062.87 854.005 1057.4 854.005 1057.4 846.04 1050.61 846.04 1050.61 854.005 1045.12 854.005 1045.12 856.103 1025.96 856.103 1025.96 862.898 1045.12 862.898 1045.12 865 1062.87 865 1062.87 862.898 1082.03 862.898 1082.03 856.103 1062.87 856.103Z" fill="#FFFFFF"/><path d="M1084.32 776.47C1083.59 776.408 1082.91 776.033 1082.47 775.441 1078.35 769.879 1071.75 766.448 1064.72 766.448 1064.28 766.448 1063.84 766.462 1063.4 766.488 1062.79 766.525 1062.19 766.343 1061.71 765.975 1057.43 762.748 1052.24 761 1046.82 761 1037.09 761 1028.46 766.632 1024.43 775.161 1024.06 775.942 1023.32 776.485 1022.47 776.605 1011.75 778.113 1003.48 787.341 1003.48 798.464 1003.48 809.069 1011 817.946 1020.98 820.057L1020.98 813.499C1020.98 812.682 1021.14 811.902 1021.39 811.169 1016.05 809.413 1012.17 804.386 1012.17 798.465 1012.17 791.09 1018.18 785.089 1025.55 785.089 1025.92 785.089 1026.29 785.119 1026.66 785.148 1028.78 785.313 1030.7 783.934 1031.22 781.872 1033.02 774.704 1039.43 769.698 1046.82 769.698 1051.03 769.698 1055.03 771.326 1058.06 774.284 1059.09 775.294 1060.56 775.725 1061.98 775.429 1062.88 775.241 1063.8 775.145 1064.72 775.145 1069.89 775.145 1074.5 778.048 1076.76 782.721 1077.55 784.365 1079.29 785.343 1081.1 785.156 1081.56 785.11 1082.01 785.088 1082.45 785.088 1089.82 785.088 1095.82 791.089 1095.82 798.464 1095.82 804.386 1091.95 809.412 1086.61 811.168 1086.86 811.902 1087.01 812.681 1087.01 813.498L1087.01 820.055C1097 817.945 1104.52 809.069 1104.52 798.463 1104.52 786.924 1095.62 777.424 1084.32 776.47Z" fill="#FFFFFF"/></g></g></g><path d="M1054 897.105 1052.16 897.157 1050.4 897.416 1048.67 897.804 1046.98 898.347 1045.37 899.045 1043.87 899.873 1042.41 900.83 1041.06 901.89 1039.81 903.054 1038.64 904.322 1037.59 905.718 1036.65 907.167 1035.83 908.745 1035.14 910.374 1034.61 912.081 1034.22 913.814 1033.97 915.625 1033.89 917.487 1033.97 919.324 1034.2 921.16 1034.58 922.893 1035.14 924.6 1035.83 926.23 1036.65 927.782 1037.57 929.23 1038.61 930.627 1039.79 931.92 1041.04 933.084 1042.39 934.17 1043.84 935.102 1045.35 935.929 1046.96 936.602 1048.64 937.171 1050.38 937.585 1052.14 937.818 1053.97 937.895 1055.79 937.818 1057.57 937.585 1059.33 937.171 1060.97 936.628 1062.57 935.929 1064.11 935.128 1065.59 934.17 1066.91 933.11 1068.19 931.92 1069.36 930.627 1070.41 929.256 1071.33 927.782 1072.14 926.256 1072.83 924.626 1073.37 922.919 1073.78 921.186 1074.01 919.35 1074.11 917.513 1074.01 915.651 1073.78 913.84 1073.37 912.107 1072.83 910.4 1072.17 908.771 1071.35 907.193 1070.43 905.744 1069.36 904.348 1068.21 903.08 1066.94 901.916 1065.59 900.83 1064.16 899.899 1062.6 899.071 1061.02 898.373 1059.36 897.804 1057.62 897.416 1055.81 897.183 1054 897.105ZM1054.03 885 1054.38 885.052 1054.71 885.207 1055.02 885.44 1057.8 888.233 1061.2 886.242 1061.53 886.112 1061.94 886.087 1062.29 886.112 1062.63 886.293 1062.93 886.5 1063.16 886.811 1065.13 890.277 1068.9 889.242 1069.29 889.19 1069.64 889.242 1070 889.371 1070.31 889.604 1070.54 889.915 1070.69 890.277 1071.68 894.105 1075.61 894.105 1076.07 894.182 1076.46 894.389 1076.76 894.7 1076.99 895.114 1077.04 895.579 1077.04 899.537 1080.82 900.597 1081.25 900.778 1081.59 901.089 1081.81 901.477 1081.89 901.916 1081.87 902.382 1080.82 906.21 1084.21 908.227 1084.52 908.46 1084.75 908.771 1084.9 909.107 1084.95 909.495 1084.9 909.857 1084.75 910.219 1082.78 913.659 1085.57 916.478 1085.8 916.763 1085.92 917.151 1086 917.513 1085.92 917.901 1085.8 918.263 1085.57 918.574 1082.78 921.393 1084.75 924.807 1084.9 925.169 1084.93 925.531 1084.9 925.919 1084.75 926.281 1084.52 926.566 1084.21 926.825 1080.79 928.816 1081.84 932.619 1081.89 933.11 1081.79 933.576 1081.56 933.938 1081.23 934.248 1080.79 934.455 1077.02 935.464 1077.02 939.421 1076.94 939.913 1076.74 940.301 1076.43 940.637 1076.05 940.818 1075.59 940.921 1071.66 940.921 1070.66 944.749 1070.48 945.086 1070.26 945.396 1069.95 945.629 1069.62 945.784 1069.26 945.836 1068.88 945.784 1065.1 944.749 1063.11 948.19 1062.88 948.5 1062.57 948.733 1062.24 948.888 1061.89 948.94 1061.5 948.888 1061.15 948.707 1057.75 946.741 1054.97 949.56 1054.69 949.793 1054.33 949.923 1053.97 950 1053.59 949.923 1053.23 949.793 1052.95 949.56 1050.17 946.741 1046.78 948.707 1046.42 948.862 1046.06 948.914 1045.71 948.862 1045.35 948.707 1045.04 948.474 1044.79 948.164 1042.87 944.724 1039.07 945.758 1038.61 945.81 1038.18 945.732 1037.8 945.5 1037.49 945.163 1037.29 944.724 1036.26 940.87 1032.39 940.87 1031.9 940.792 1031.52 940.585 1031.19 940.275 1031.01 939.887 1030.91 939.395 1030.91 935.438 1027.13 934.403 1026.8 934.248 1026.49 934.015 1026.26 933.705 1026.13 933.369 1026.06 932.981 1026.13 932.593 1027.13 928.765 1023.74 926.773 1023.45 926.54 1023.2 926.23 1023.1 925.868 1023.05 925.506 1023.07 925.118 1023.22 924.781 1025.16 921.315 1022.41 918.496 1022.2 918.186 1022.03 917.849 1022 917.461 1022.03 917.073 1022.2 916.737 1022.41 916.427 1025.19 913.607 1023.22 910.167 1023.1 909.831 1023.05 909.443 1023.1 909.081 1023.22 908.719 1023.45 908.408 1023.76 908.176 1027.15 906.184 1026.16 902.356 1026.08 901.968 1026.16 901.606 1026.29 901.218 1026.52 900.933 1026.82 900.675 1027.15 900.545 1030.96 899.511 1030.96 895.527 1031.03 895.088 1031.24 894.674 1031.54 894.363 1031.95 894.157 1032.41 894.079 1036.34 894.079 1037.34 890.251 1037.54 889.811 1037.85 889.475 1038.2 889.242 1038.66 889.165 1039.1 889.216 1042.9 890.251 1044.86 886.785 1045.07 886.474 1045.37 886.242 1045.73 886.112 1046.11 886.061 1046.47 886.112 1046.85 886.242 1050.2 888.233 1052.98 885.44 1053.29 885.207 1053.64 885.052 1054.03 885Z" fill="#FFFFFF" fill-rule="evenodd"/><path d="M1073.53 946 1084.84 970.253 1084.97 970.615 1085 971.027 1084.87 971.414 1084.69 971.75 1084.41 972.034 1084.04 972.24 1083.66 972.317 1083.27 972.292 1074.8 970.769 1070.51 978.252 1070.31 978.561 1070.02 978.794 1069.63 978.948 1069.27 979 1069.22 979 1068.78 978.923 1068.45 978.742 1068.14 978.484 1067.93 978.149 1056 952.528 1056.57 952.192 1057.06 951.78 1058.3 950.515 1059.77 951.367 1060.44 951.702 1061.22 951.909 1061.99 951.986 1062.74 951.909 1063.51 951.702 1064.19 951.393 1064.81 950.98 1065.32 950.438 1065.79 949.819 1066.64 948.296 1068.29 948.735 1068.86 948.864 1069.45 948.89 1070.23 948.838 1070.95 948.632 1071.6 948.322 1072.22 947.883 1072.76 947.342 1073.22 946.722 1073.53 946Z" fill="#FFFFFF" fill-rule="evenodd"/><path d="M1034.43 946 1034.79 946.697 1035.23 947.317 1035.75 947.859 1036.36 948.272 1037.06 948.608 1037.78 948.815 1038.56 948.866 1039.15 948.84 1039.69 948.737 1041.37 948.272 1042.22 949.77 1042.66 950.441 1043.2 950.958 1043.82 951.397 1044.52 951.707 1045.24 951.913 1046.01 951.965 1046.76 951.913 1047.51 951.707 1048.18 951.371 1049.7 950.519 1050.97 951.81 1051.46 952.197 1052 952.533 1040.03 978.148 1039.8 978.484 1039.49 978.742 1039.15 978.948 1038.76 979 1038.69 979 1038.33 978.948 1037.96 978.793 1037.65 978.561 1037.42 978.251 1033.19 970.763 1024.68 972.286 1024.29 972.286 1023.93 972.209 1023.59 972.002 1023.31 971.744 1023.1 971.383 1023 971.021 1023.03 970.608 1023.13 970.221 1034.43 946Z" fill="#FFFFFF" fill-rule="evenodd"/><path d="M1054 900 1055.84 900.078 1057.63 900.337 1059.36 900.777 1060.99 901.373 1062.59 902.124 1064.05 903.005 1065.41 903.99 1066.72 905.129 1067.89 906.399 1068.91 907.72 1069.81 909.197 1070.56 910.699 1071.17 912.332 1071.6 913.964 1071.87 915.725 1072 917.513 1071.87 919.3 1071.6 921.01 1071.17 922.694 1070.56 924.326 1069.79 925.829 1068.88 927.28 1067.87 928.627 1066.69 929.896 1065.41 930.984 1064.03 932.021 1062.56 932.876 1060.96 933.627 1059.33 934.223 1057.6 934.637 1055.81 934.896 1053.97 935 1052.16 934.896 1050.37 934.637 1048.64 934.197 1046.99 933.627 1045.41 932.876 1043.95 931.995 1042.53 930.984 1041.28 929.845 1040.11 928.601 1039.07 927.254 1038.16 925.803 1037.41 924.3 1036.83 922.668 1036.35 921.01 1036.08 919.275 1036 917.487 1036.08 915.674 1036.37 913.938 1036.83 912.28 1037.44 910.674 1038.16 909.145 1039.07 907.694 1040.13 906.373 1041.28 905.104 1042.56 903.99 1043.95 902.979 1045.44 902.124 1047.01 901.373 1048.67 900.777 1050.4 900.337 1052.19 900.078 1054 900Z" fill="#FFFFFF" fill-rule="evenodd"/><text font-family="Latha,Latha_MSFontService,sans-serif" font-weight="400" font-size="48" transform="translate(861.914 1126)">போக்குவரத்து <tspan font-size="48" x="-72.4625" y="58">அடுக்கு </tspan>பாதுகா<tspan font-size="48" x="334.308" y="58">ப்புச்</tspan><tspan font-size="48" x="440.298" y="58"> </tspan><tspan font-size="48" x="53.2812" y="116">சான்றிதழ்</tspan></text><text font-family="Verdana,Verdana_MSFontService,sans-serif" font-weight="400" font-size="48" transform="matrix(1 0 0 1 847.316 1304)">(TLS Certificate)</text><path d="M1738.21 727C1593.79 727 1593.79 727 1593.79 727 1593.53 729.612 1593.53 729.612 1593.53 729.612 1593.53 730.004 1589.47 772.708 1538.88 776.756 1536 777.017 1536 777.017 1536 777.017 1536 780.021 1536 780.021 1536 780.021 1536 828.21 1546.48 874.44 1566.53 913.88 1588.94 957.628 1622.75 991.713 1664.56 1012.22 1666 1013 1666 1013 1666 1013 1667.31 1012.22 1667.31 1012.22 1667.31 1012.22 1709.25 991.713 1743.06 957.628 1765.47 913.88 1785.52 874.44 1796 828.21 1796 780.021 1796 777.017 1796 777.017 1796 777.017 1793.12 777.017 1793.12 777.017 1793.12 777.017 1742.66 772.838 1738.6 731.44 1738.47 729.612 1738.21 727 1738.21 727 1738.21 727" fill="#BCBCBE" fill-rule="evenodd"/><path d="M1664.5 989C1629.3 970.097 1601.58 941.163 1582.11 903.099 1565.35 870.179 1555.68 831.344 1554 791.094 1586.49 783.893 1602.09 762.032 1607.9 743 1721.1 743 1721.1 743 1721.1 743 1726.91 762.032 1742.51 783.893 1775 791.094 1773.32 831.344 1763.65 869.922 1746.89 902.971 1727.42 941.034 1699.7 970.097 1664.5 989Z" fill="#01919A" fill-rule="evenodd"/><path d="M1666 743C1608.63 743 1608.63 743 1608.63 743 1602.75 762.341 1586.93 784.558 1554 791.876 1555.7 832.78 1565.5 872.117 1582.49 905.703 1602.22 944.255 1630.32 973.789 1666 993L1666 743Z" fill="#01919A" fill-rule="evenodd"/><path d="M1600 737C1600 734.791 1601.57 733 1603.5 733 1605.43 733 1607 734.791 1607 737 1607 739.209 1605.43 741 1603.5 741 1601.57 741 1600 739.209 1600 737Z" fill="#7F7F7F" fill-rule="evenodd"/><path d="M1726 737C1726 734.791 1727.57 733 1729.5 733 1731.43 733 1733 734.791 1733 737 1733 739.209 1731.43 741 1729.5 741 1727.57 741 1726 739.209 1726 737Z" fill="#7F7F7F" fill-rule="evenodd"/><path d="M1781 787.5C1781 785.567 1782.57 784 1784.5 784 1786.43 784 1788 785.567 1788 787.5 1788 789.433 1786.43 791 1784.5 791 1782.57 791 1781 789.433 1781 787.5Z" fill="#7F7F7F" fill-rule="evenodd"/><path d="M1543 787.5C1543 785.567 1544.57 784 1546.5 784 1548.43 784 1550 785.567 1550 787.5 1550 789.433 1548.43 791 1546.5 791 1544.57 791 1543 789.433 1543 787.5Z" fill="#7F7F7F" fill-rule="evenodd"/><path d="M1663 1001.5C1663 999.567 1664.57 998 1666.5 998 1668.43 998 1670 999.567 1670 1001.5 1670 1003.43 1668.43 1005 1666.5 1005 1664.57 1005 1663 1003.43 1663 1001.5Z" fill="#7F7F7F" fill-rule="evenodd"/><path d="M1756 902.5C1756 900.567 1757.57 899 1759.5 899 1761.43 899 1763 900.567 1763 902.5 1763 904.433 1761.43 906 1759.5 906 1757.57 906 1756 904.433 1756 902.5Z" fill="#7F7F7F" fill-rule="evenodd"/><path d="M1569 902.5C1569 900.567 1570.57 899 1572.5 899 1574.43 899 1576 900.567 1576 902.5 1576 904.433 1574.43 906 1572.5 906 1570.57 906 1569 904.433 1569 902.5Z" fill="#7F7F7F" fill-rule="evenodd"/><path d="M1629 779C1629 776.791 1630.79 775 1633 775 1635.21 775 1637 776.791 1637 779 1637 781.209 1635.21 783 1633 783 1630.79 783 1629 781.209 1629 779Z" fill="#FFFFFF" fill-rule="evenodd"/><path d="M1632.29 784C1630.14 784 1628 781.727 1628 779 1628 776.273 1630.14 774 1632.29 774 1634.86 774 1637 776.273 1637 779 1637 781.727 1634.86 784 1632.29 784ZM1632.29 775.818C1631 775.818 1629.71 777.182 1629.71 779 1629.71 780.818 1631 782.182 1632.29 782.182 1634 782.182 1635.29 780.818 1635.29 779 1635.29 777.182 1634 775.818 1632.29 775.818Z" fill="#FFFFFF" fill-rule="evenodd"/><path d="M1655 817 1641 823.111 1641 825.889 1655 832 1655 829.407 1644.59 825.333 1643.65 825.333 1643.65 823.667 1644.59 823.667 1655 819.593 1655 817 1655 817Z" fill="#FFFFFF" fill-rule="evenodd"/><path d="M1656 833 1640 826.2 1640 822.8 1656 816 1656 820.295 1644.57 824.411 1656 828.705 1656 833ZM1644.19 826.2 1654.29 830.495 1654.29 829.6 1644.19 826.2ZM1641.9 825.305 1642.86 825.842 1642.86 823.158 1641.9 823.695 1641.9 825.305ZM1644.57 824.411 1644.57 824.411 1644.57 824.411ZM1644.19 822.8 1644.57 822.8 1654.29 819.4 1654.29 818.505 1644.19 822.8Z" fill="#FFFFFF" fill-rule="evenodd"/><path d="M1703.99 767C1628.58 767 1628.58 767 1628.58 767 1625.07 767 1622 770.079 1622 773.597 1622 855.403 1622 855.403 1622 855.403 1622 858.921 1625.07 862 1628.58 862 1703.99 862 1703.99 862 1703.99 862 1707.93 862 1711 858.921 1711 855.403 1711 773.597 1711 773.597 1711 773.597 1711 770.079 1707.93 767 1703.99 767ZM1708.81 855.403C1708.81 857.602 1706.62 859.801 1703.99 859.801 1628.58 859.801 1628.58 859.801 1628.58 859.801 1625.95 859.801 1623.75 857.602 1623.75 855.403 1623.75 789.87 1623.75 789.87 1623.75 789.87 1708.81 789.87 1708.81 789.87 1708.81 789.87L1708.81 855.403ZM1708.81 787.671C1623.75 787.671 1623.75 787.671 1623.75 787.671 1623.75 773.597 1623.75 773.597 1623.75 773.597 1623.75 770.958 1625.95 769.199 1628.58 769.199 1703.99 769.199 1703.99 769.199 1703.99 769.199 1706.62 769.199 1708.81 770.958 1708.81 773.597L1708.81 787.671Z" fill="#FFFFFF" fill-rule="evenodd"/><path d="M1704.09 863C1628.47 863 1628.47 863 1628.47 863 1624.52 863 1621 859.509 1621 855.582 1621 774.418 1621 774.418 1621 774.418 1621 770.491 1624.52 767 1628.47 767 1704.09 767 1704.09 767 1704.09 767 1708.48 767 1712 770.491 1712 774.418 1712 855.582 1712 855.582 1712 855.582 1712 859.509 1708.48 863 1704.09 863ZM1622.76 855.582C1622.76 858.636 1625.4 861.255 1628.47 861.255 1704.09 861.255 1704.09 861.255 1704.09 861.255 1707.6 861.255 1710.24 858.636 1710.24 855.582 1710.24 774.418 1710.24 774.418 1710.24 774.418 1710.24 771.364 1707.6 768.745 1704.09 768.745 1628.47 768.745 1628.47 768.745 1628.47 768.745 1625.84 768.745 1623.64 770.491 1623.2 772.673 1623.64 770.491 1625.84 769.182 1628.47 769.182 1704.09 769.182 1704.09 769.182 1704.09 769.182 1707.16 769.182 1709.8 771.364 1709.8 774.418 1709.8 789.254 1709.8 789.254 1709.8 789.254 1622.76 789.254 1622.76 789.254 1622.76 789.254 1622.76 789.691 1622.76 789.691 1622.76 789.691 1709.8 789.691 1709.8 789.691 1709.8 789.691 1709.8 855.582 1709.8 855.582 1709.8 855.582 1709.8 858.2 1707.16 860.818 1704.09 860.818 1628.47 860.818 1628.47 860.818 1628.47 860.818 1625.4 860.818 1622.76 858.2 1622.76 855.582ZM1624.52 791.436C1624.52 855.582 1624.52 855.582 1624.52 855.582 1624.52 857.327 1626.28 859.073 1628.47 859.073 1704.09 859.073 1704.09 859.073 1704.09 859.073 1706.28 859.073 1708.04 857.327 1708.04 855.582 1708.04 791.436 1708.04 791.436 1708.04 791.436L1624.52 791.436ZM1624.52 787.509C1708.04 787.509 1708.04 787.509 1708.04 787.509 1708.04 774.418 1708.04 774.418 1708.04 774.418 1708.04 772.236 1705.85 770.927 1704.09 770.927 1628.47 770.927 1628.47 770.927 1628.47 770.927 1626.72 770.927 1624.52 772.236 1624.52 774.418L1624.52 787.509Z" fill="#FFFFFF" fill-rule="evenodd"/><path d="M1677 832 1691 825.889 1691 823.111 1677 817 1677 819.593 1687.91 823.667 1688.45 823.667 1688.45 825.333 1687.55 825.333 1677 829.407 1677 832 1677 832Z" fill="#FFFFFF" fill-rule="evenodd"/><path d="M1677 833 1677 828.705 1687.81 824.411 1687.81 824.411 1677 820.295 1677 816 1692 822.8 1692 826.2 1677 833ZM1678.57 829.6 1678.57 830.495 1688.16 826.2 1687.81 826.2 1678.57 829.6ZM1689.56 823.158 1689.56 825.842 1690.26 825.305 1690.26 823.695 1689.56 823.158ZM1678.57 819.4 1686.94 822.442 1678.57 818.505 1678.57 819.4Z" fill="#FFFFFF" fill-rule="evenodd"/><path d="M1662.15 836 1672 809 1669.85 809 1660 836 1662.15 836 1662.15 836Z" fill="#FFFFFF" fill-rule="evenodd"/><path d="M1662.02 837 1658 837 1668.98 808 1673 808 1662.02 837ZM1660.74 835.188 1661.11 835.188 1670.44 809.631 1669.89 809.631 1660.74 835.188Z" fill="#FFFFFF" fill-rule="evenodd"/><path d="M1660 779C1660 776.791 1661.57 775 1663.5 775 1665.43 775 1667 776.791 1667 779 1667 781.209 1665.43 783 1663.5 783 1661.57 783 1660 781.209 1660 779Z" fill="#FFFFFF" fill-rule="evenodd"/><path d="M1663.29 784C1660.71 784 1659 781.727 1659 779 1659 776.273 1660.71 774 1663.29 774 1665.86 774 1668 776.273 1668 779 1668 781.727 1665.86 784 1663.29 784ZM1663.29 775.818C1661.57 775.818 1660.71 777.636 1660.71 779 1660.71 780.364 1661.57 782.182 1663.29 782.182 1665 782.182 1666.29 780.818 1666.29 779 1666.29 777.182 1665 775.818 1663.29 775.818Z" fill="#FFFFFF" fill-rule="evenodd"/><path d="M1644 779C1644 776.791 1645.79 775 1648 775 1650.21 775 1652 776.791 1652 779 1652 781.209 1650.21 783 1648 783 1645.79 783 1644 781.209 1644 779Z" fill="#FFFFFF" fill-rule="evenodd"/><path d="M1648.29 784C1646.14 784 1644 781.727 1644 779 1644 776.273 1646.14 774 1648.29 774 1650.86 774 1653 776.273 1653 779 1653 781.727 1650.86 784 1648.29 784ZM1648.29 775.818C1647 775.818 1645.71 777.182 1645.71 779 1645.71 780.818 1647 782.182 1648.29 782.182 1650 782.182 1651.29 780.818 1651.29 779 1651.29 777.182 1650 775.818 1648.29 775.818Z" fill="#FFFFFF" fill-rule="evenodd"/><path d="M1666.5 897.105 1664.63 897.157 1662.85 897.416 1661.08 897.804 1659.37 898.347 1657.74 899.045 1656.21 899.873 1654.73 900.83 1653.36 901.89 1652.09 903.054 1650.9 904.322 1649.84 905.718 1648.88 907.167 1648.05 908.745 1647.35 910.374 1646.8 912.081 1646.41 913.814 1646.16 915.625 1646.08 917.487 1646.16 919.324 1646.39 921.16 1646.78 922.893 1647.35 924.6 1648.05 926.23 1648.88 927.782 1649.81 929.23 1650.87 930.627 1652.06 931.92 1653.33 933.084 1654.71 934.17 1656.19 935.102 1657.71 935.929 1659.35 936.602 1661.06 937.171 1662.82 937.585 1664.61 937.818 1666.47 937.895 1668.31 937.818 1670.13 937.585 1671.92 937.171 1673.58 936.628 1675.21 935.929 1676.76 935.128 1678.27 934.17 1679.61 933.11 1680.91 931.92 1682.1 930.627 1683.16 929.256 1684.1 927.782 1684.93 926.256 1685.63 924.626 1686.17 922.919 1686.59 921.186 1686.82 919.35 1686.92 917.513 1686.82 915.651 1686.59 913.84 1686.17 912.107 1685.63 910.4 1684.95 908.771 1684.12 907.193 1683.19 905.744 1682.1 904.348 1680.94 903.08 1679.64 901.916 1678.27 900.83 1676.82 899.899 1675.23 899.071 1673.63 898.373 1671.94 897.804 1670.18 897.416 1668.34 897.183 1666.5 897.105ZM1666.53 885 1666.89 885.052 1667.23 885.207 1667.54 885.44 1670.36 888.233 1673.81 886.242 1674.15 886.112 1674.56 886.087 1674.92 886.112 1675.26 886.293 1675.57 886.5 1675.8 886.811 1677.8 890.277 1681.64 889.242 1682.02 889.19 1682.39 889.242 1682.75 889.371 1683.06 889.604 1683.29 889.915 1683.45 890.277 1684.46 894.105 1688.45 894.105 1688.92 894.182 1689.31 894.389 1689.62 894.7 1689.85 895.114 1689.9 895.579 1689.9 899.537 1693.74 900.597 1694.18 900.778 1694.52 901.089 1694.75 901.477 1694.83 901.916 1694.8 902.382 1693.74 906.21 1697.19 908.227 1697.5 908.46 1697.73 908.771 1697.89 909.107 1697.94 909.495 1697.89 909.857 1697.73 910.219 1695.73 913.659 1698.56 916.478 1698.79 916.763 1698.92 917.151 1699 917.513 1698.92 917.901 1698.79 918.263 1698.56 918.574 1695.73 921.393 1697.73 924.807 1697.89 925.169 1697.91 925.531 1697.89 925.919 1697.73 926.281 1697.5 926.566 1697.19 926.825 1693.71 928.816 1694.78 932.619 1694.83 933.11 1694.72 933.576 1694.49 933.938 1694.15 934.248 1693.71 934.455 1689.88 935.464 1689.88 939.421 1689.8 939.913 1689.59 940.301 1689.28 940.637 1688.89 940.818 1688.43 940.921 1684.43 940.921 1683.42 944.749 1683.24 945.086 1683.01 945.396 1682.7 945.629 1682.36 945.784 1682 945.836 1681.61 945.784 1677.77 944.749 1675.75 948.19 1675.52 948.5 1675.21 948.733 1674.87 948.888 1674.51 948.94 1674.12 948.888 1673.76 948.707 1670.31 946.741 1667.48 949.56 1667.2 949.793 1666.84 949.923 1666.47 950 1666.09 949.923 1665.72 949.793 1665.44 949.56 1662.61 946.741 1659.17 948.707 1658.8 948.862 1658.44 948.914 1658.08 948.862 1657.71 948.707 1657.4 948.474 1657.14 948.164 1655.2 944.724 1651.34 945.758 1650.87 945.81 1650.43 945.732 1650.04 945.5 1649.73 945.163 1649.52 944.724 1648.49 940.87 1644.55 940.87 1644.06 940.792 1643.67 940.585 1643.33 940.275 1643.15 939.887 1643.04 939.395 1643.04 935.438 1639.21 934.403 1638.87 934.248 1638.56 934.015 1638.33 933.705 1638.2 933.369 1638.12 932.981 1638.2 932.593 1639.21 928.765 1635.76 926.773 1635.48 926.54 1635.22 926.23 1635.11 925.868 1635.06 925.506 1635.09 925.118 1635.24 924.781 1637.21 921.315 1634.41 918.496 1634.21 918.186 1634.03 917.849 1634 917.461 1634.03 917.073 1634.21 916.737 1634.41 916.427 1637.24 913.607 1635.24 910.167 1635.11 909.831 1635.06 909.443 1635.11 909.081 1635.24 908.719 1635.48 908.408 1635.79 908.176 1639.24 906.184 1638.22 902.356 1638.15 901.968 1638.22 901.606 1638.35 901.218 1638.59 900.933 1638.9 900.675 1639.24 900.545 1643.1 899.511 1643.1 895.527 1643.17 895.088 1643.38 894.674 1643.69 894.363 1644.11 894.157 1644.57 894.079 1648.57 894.079 1649.58 890.251 1649.78 889.811 1650.09 889.475 1650.46 889.242 1650.92 889.165 1651.36 889.216 1655.23 890.251 1657.22 886.785 1657.43 886.474 1657.74 886.242 1658.1 886.112 1658.49 886.061 1658.85 886.112 1659.24 886.242 1662.64 888.233 1665.46 885.44 1665.77 885.207 1666.14 885.052 1666.53 885Z" fill="#FFFFFF" fill-rule="evenodd"/><path d="M1685.53 946 1696.85 970.253 1696.97 970.615 1697 971.027 1696.87 971.414 1696.69 971.75 1696.41 972.034 1696.04 972.24 1695.66 972.317 1695.27 972.292 1686.8 970.769 1682.51 978.252 1682.31 978.561 1682.02 978.794 1681.63 978.948 1681.27 979 1681.22 979 1680.78 978.923 1680.45 978.742 1680.14 978.484 1679.93 978.149 1668 952.528 1668.57 952.192 1669.06 951.78 1670.3 950.515 1671.77 951.367 1672.44 951.702 1673.22 951.909 1673.99 951.986 1674.74 951.909 1675.51 951.702 1676.19 951.393 1676.81 950.98 1677.32 950.438 1677.79 949.819 1678.64 948.296 1680.29 948.735 1680.86 948.864 1681.45 948.89 1682.23 948.838 1682.95 948.632 1683.6 948.322 1684.22 947.883 1684.76 947.342 1685.22 946.722 1685.53 946Z" fill="#FFFFFF" fill-rule="evenodd"/><path d="M1646.43 946 1646.79 946.697 1647.23 947.317 1647.75 947.859 1648.36 948.272 1649.06 948.608 1649.78 948.815 1650.56 948.866 1651.15 948.84 1651.69 948.737 1653.37 948.272 1654.22 949.77 1654.66 950.441 1655.2 950.958 1655.82 951.397 1656.52 951.707 1657.24 951.913 1658.01 951.965 1658.76 951.913 1659.51 951.707 1660.18 951.371 1661.7 950.519 1662.97 951.81 1663.46 952.197 1664 952.533 1652.03 978.148 1651.8 978.484 1651.49 978.742 1651.15 978.948 1650.76 979 1650.69 979 1650.33 978.948 1649.96 978.793 1649.65 978.561 1649.42 978.251 1645.19 970.763 1636.68 972.286 1636.29 972.286 1635.93 972.209 1635.59 972.002 1635.31 971.744 1635.1 971.383 1635 971.021 1635.03 970.608 1635.13 970.221 1646.43 946Z" fill="#FFFFFF" fill-rule="evenodd"/><path d="M1666.5 900 1668.29 900.078 1670.03 900.337 1671.71 900.777 1673.29 901.373 1674.85 902.124 1676.27 903.005 1677.6 903.99 1678.87 905.129 1680.01 906.399 1680.99 907.72 1681.87 909.197 1682.6 910.699 1683.2 912.332 1683.61 913.964 1683.87 915.725 1684 917.513 1683.87 919.3 1683.61 921.01 1683.2 922.694 1682.6 924.326 1681.85 925.829 1680.97 927.28 1679.98 928.627 1678.84 929.896 1677.6 930.984 1676.25 932.021 1674.82 932.876 1673.27 933.627 1671.69 934.223 1670 934.637 1668.26 934.896 1666.47 935 1664.71 934.896 1662.97 934.637 1661.29 934.197 1659.68 933.627 1658.15 932.876 1656.73 931.995 1655.35 930.984 1654.13 929.845 1652.99 928.601 1651.98 927.254 1651.1 925.803 1650.37 924.3 1649.8 922.668 1649.34 921.01 1649.08 919.275 1649 917.487 1649.08 915.674 1649.36 913.938 1649.8 912.28 1650.4 910.674 1651.1 909.145 1651.98 907.694 1653.02 906.373 1654.13 905.104 1655.38 903.99 1656.73 902.979 1658.18 902.124 1659.71 901.373 1661.31 900.777 1663 900.337 1664.74 900.078 1666.5 900Z" fill="#FFFFFF" fill-rule="evenodd"/><text font-family="Latha,Latha_MSFontService,sans-serif" font-weight="400" font-size="48" transform="translate(1402.66 1125)">குறியீடு ஒப்பமி<tspan font-size="48" x="409.635" y="0">டல் </tspan><tspan font-size="48" x="123.177" y="58">சான்றிதழ்</tspan></text><text font-family="Verdana,Verdana_MSFontService,sans-serif" font-weight="400" font-size="48" transform="matrix(1 0 0 1 1486.61 1246)">(Code Signing <tspan font-size="48" x="35.5209" y="57">Certificate)</tspan></text><path d="M2908.43 743C2764.57 743 2764.57 743 2764.57 743 2764.31 745.621 2764.31 745.621 2764.31 745.621 2764.31 746.014 2760.26 788.867 2709.87 792.93 2707 793.192 2707 793.192 2707 793.192 2707 796.206 2707 796.206 2707 796.206 2707 844.564 2717.44 890.956 2737.42 930.533 2759.74 974.435 2793.42 1008.64 2835.06 1029.21 2836.5 1030 2836.5 1030 2836.5 1030 2837.81 1029.21 2837.81 1029.21 2837.81 1029.21 2879.58 1008.64 2913.26 974.435 2935.58 930.533 2955.56 890.956 2966 844.564 2966 796.206 2966 793.192 2966 793.192 2966 793.192 2963.13 793.192 2963.13 793.192 2963.13 793.192 2912.87 788.998 2908.82 747.456 2908.69 745.621 2908.43 743 2908.43 743 2908.43 743" fill="#BCBCBE" fill-rule="evenodd"/><path d="M2834.5 1006C2799.3 987.02 2771.58 957.969 2752.11 919.75 2735.35 886.696 2725.68 847.703 2724 807.29 2756.49 800.059 2772.09 778.109 2777.9 759 2891.1 759 2891.1 759 2891.1 759 2896.91 778.109 2912.51 800.059 2945 807.29 2943.32 847.703 2933.65 886.438 2916.89 919.621 2897.42 957.84 2869.7 987.02 2834.5 1006Z" fill="#AE5E0E" fill-rule="evenodd"/><path d="M2837 759C2779.12 759 2779.12 759 2779.12 759 2773.18 778.419 2757.23 800.724 2724 808.072 2725.71 849.14 2735.6 888.633 2752.74 922.353 2772.65 961.06 2801 990.712 2837 1010L2837 759Z" fill="#AE5E0E" fill-rule="evenodd"/><path d="M2770 753.5C2770 751.567 2771.57 750 2773.5 750 2775.43 750 2777 751.567 2777 753.5 2777 755.433 2775.43 757 2773.5 757 2771.57 757 2770 755.433 2770 753.5Z" fill="#7F7F7F" fill-rule="evenodd"/><path d="M2897 753.5C2897 751.567 2898.57 750 2900.5 750 2902.43 750 2904 751.567 2904 753.5 2904 755.433 2902.43 757 2900.5 757 2898.57 757 2897 755.433 2897 753.5Z" fill="#7F7F7F" fill-rule="evenodd"/><path d="M2951 803.5C2951 801.567 2952.79 800 2955 800 2957.21 800 2959 801.567 2959 803.5 2959 805.433 2957.21 807 2955 807 2952.79 807 2951 805.433 2951 803.5Z" fill="#7F7F7F" fill-rule="evenodd"/><path d="M2713 803.5C2713 801.567 2714.57 800 2716.5 800 2718.43 800 2720 801.567 2720 803.5 2720 805.433 2718.43 807 2716.5 807 2714.57 807 2713 805.433 2713 803.5Z" fill="#7F7F7F" fill-rule="evenodd"/><path d="M2833 1017.5C2833 1015.57 2834.79 1014 2837 1014 2839.21 1014 2841 1015.57 2841 1017.5 2841 1019.43 2839.21 1021 2837 1021 2834.79 1021 2833 1019.43 2833 1017.5Z" fill="#7F7F7F" fill-rule="evenodd"/><path d="M2926 919.5C2926 917.567 2927.57 916 2929.5 916 2931.43 916 2933 917.567 2933 919.5 2933 921.433 2931.43 923 2929.5 923 2927.57 923 2926 921.433 2926 919.5Z" fill="#7F7F7F" fill-rule="evenodd"/><path d="M2740 919.5C2740 917.567 2741.57 916 2743.5 916 2745.43 916 2747 917.567 2747 919.5 2747 921.433 2745.43 923 2743.5 923 2741.57 923 2740 921.433 2740 919.5Z" fill="#7F7F7F" fill-rule="evenodd"/><path d="M2888 785.124C2888 841.876 2888 841.876 2888 841.876 2888 844.155 2886.47 846 2884.58 846 2788.33 846 2788.33 846 2788.33 846 2786.44 846 2785 844.155 2785 841.876 2785 785.883 2785 785.883 2785 785.883 2821.79 821.367 2821.79 821.367 2821.79 821.367 2822.42 829.94 2828.36 836.668 2835.56 836.668 2843.02 836.668 2849.14 829.506 2849.41 820.499 2887.73 783.713 2887.73 783.713 2887.73 783.713 2887.91 784.147 2888 784.581 2888 785.124ZM2835.56 803.245C2842.03 803.245 2847.34 808.454 2848.96 815.616 2884.85 781.109 2884.85 781.109 2884.85 781.109 2884.76 781.109 2884.67 781 2884.58 781 2788.33 781 2788.33 781 2788.33 781 2787.61 781 2786.89 781.326 2786.35 781.868 2822.06 816.267 2822.06 816.267 2822.06 816.267 2823.5 808.78 2828.99 803.245 2835.56 803.245ZM2835.65 830.265C2829.8 830.265 2826.65 825.057 2826.65 820.174 2826.65 814.205 2830.79 809.539 2836.01 809.539 2840.5 809.539 2843.83 813.012 2843.83 817.895 2843.83 821.91 2841.58 825.165 2838.88 825.165 2837.98 825.165 2837.08 824.731 2836.72 823.646 2835.83 825.165 2834.57 825.382 2833.94 825.382 2831.87 825.382 2830.52 823.538 2830.52 820.825 2830.52 817.678 2832.5 813.988 2835.38 813.988 2836.27 813.988 2837.08 814.422 2837.62 815.182 2837.8 814.531 2837.8 814.531 2837.8 814.531 2840.68 814.531 2840.68 814.531 2840.68 814.531 2839.24 820.608 2839.24 820.608 2839.24 820.608 2839.15 821.15 2838.97 821.801 2838.97 822.018 2838.97 822.561 2839.33 822.669 2839.51 822.669 2840.32 822.669 2841.76 820.825 2841.76 817.786 2841.76 813.663 2838.88 811.818 2836.01 811.818 2831.78 811.818 2828.81 815.29 2828.81 820.174 2828.81 823.972 2830.97 827.987 2835.74 827.987 2837.8 827.987 2839.87 827.119 2841.58 825.491 2841.76 825.274 2841.76 825.274 2841.76 825.274 2842.93 827.119 2842.93 827.119 2842.93 827.119 2842.66 827.227 2842.66 827.227 2842.66 827.227 2840.23 829.397 2838.16 830.265 2835.65 830.265ZM2836.72 817.678C2836.72 816.918 2836.27 816.701 2836.01 816.701 2834.75 816.701 2833.85 819.631 2833.85 821.15 2833.85 822.127 2834.21 822.669 2834.66 822.669 2835.02 822.669 2835.38 822.561 2835.74 821.584 2836.01 820.933 2836.72 818.546 2836.72 817.678Z" fill="#FFFFFF" fill-rule="evenodd"/><path d="M2836.5 891.105 2834.63 891.157 2832.85 891.415 2831.08 891.803 2829.37 892.347 2827.74 893.045 2826.21 893.873 2824.73 894.83 2823.36 895.89 2822.09 897.054 2820.9 898.321 2819.84 899.718 2818.88 901.167 2818.05 902.744 2817.35 904.374 2816.8 906.081 2816.41 907.814 2816.16 909.625 2816.08 911.487 2816.16 913.323 2816.39 915.16 2816.78 916.893 2817.35 918.6 2818.05 920.229 2818.88 921.781 2819.81 923.23 2820.87 924.627 2822.06 925.92 2823.33 927.084 2824.71 928.17 2826.19 929.101 2827.71 929.929 2829.35 930.602 2831.06 931.171 2832.82 931.584 2834.61 931.817 2836.47 931.895 2838.31 931.817 2840.13 931.584 2841.92 931.171 2843.58 930.627 2845.21 929.929 2846.76 929.127 2848.27 928.17 2849.61 927.11 2850.91 925.92 2852.1 924.627 2853.16 923.256 2854.1 921.781 2854.93 920.255 2855.63 918.626 2856.17 916.919 2856.59 915.186 2856.82 913.349 2856.92 911.513 2856.82 909.651 2856.59 907.84 2856.17 906.107 2855.63 904.4 2854.95 902.77 2854.12 901.193 2853.19 899.744 2852.1 898.347 2850.94 897.08 2849.64 895.916 2848.27 894.83 2846.81 893.898 2845.23 893.071 2843.63 892.372 2841.94 891.803 2840.18 891.415 2838.34 891.183 2836.5 891.105ZM2836.53 879 2836.89 879.052 2837.23 879.207 2837.54 879.44 2840.36 882.233 2843.81 880.241 2844.15 880.112 2844.56 880.086 2844.92 880.112 2845.26 880.293 2845.57 880.5 2845.8 880.811 2847.8 884.276 2851.64 883.242 2852.02 883.19 2852.39 883.242 2852.75 883.371 2853.06 883.604 2853.29 883.914 2853.45 884.276 2854.46 888.105 2858.45 888.105 2858.92 888.182 2859.31 888.389 2859.62 888.7 2859.85 889.113 2859.9 889.579 2859.9 893.536 2863.74 894.597 2864.18 894.778 2864.52 895.088 2864.75 895.476 2864.83 895.916 2864.8 896.382 2863.74 900.21 2867.19 902.227 2867.5 902.46 2867.73 902.77 2867.89 903.107 2867.94 903.495 2867.89 903.857 2867.73 904.219 2865.73 907.659 2868.56 910.478 2868.79 910.763 2868.92 911.151 2869 911.513 2868.92 911.901 2868.79 912.263 2868.56 912.573 2865.73 915.393 2867.73 918.807 2867.89 919.169 2867.91 919.531 2867.89 919.919 2867.73 920.281 2867.5 920.566 2867.19 920.824 2863.71 922.816 2864.78 926.618 2864.83 927.11 2864.72 927.575 2864.49 927.937 2864.15 928.248 2863.71 928.455 2859.88 929.464 2859.88 933.421 2859.8 933.912 2859.59 934.3 2859.28 934.637 2858.89 934.818 2858.43 934.921 2854.43 934.921 2853.42 938.749 2853.24 939.085 2853.01 939.396 2852.7 939.629 2852.36 939.784 2852 939.836 2851.61 939.784 2847.77 938.749 2845.75 942.189 2845.52 942.5 2845.21 942.732 2844.87 942.888 2844.51 942.939 2844.12 942.888 2843.76 942.707 2840.31 940.741 2837.48 943.56 2837.2 943.793 2836.84 943.922 2836.47 944 2836.09 943.922 2835.72 943.793 2835.44 943.56 2832.61 940.741 2829.17 942.707 2828.8 942.862 2828.44 942.914 2828.08 942.862 2827.71 942.707 2827.4 942.474 2827.14 942.163 2825.2 938.723 2821.34 939.758 2820.87 939.81 2820.43 939.732 2820.04 939.499 2819.73 939.163 2819.52 938.723 2818.49 934.869 2814.55 934.869 2814.06 934.792 2813.67 934.585 2813.33 934.274 2813.15 933.886 2813.05 933.395 2813.05 929.438 2809.21 928.403 2808.87 928.248 2808.56 928.015 2808.33 927.705 2808.2 927.368 2808.12 926.98 2808.2 926.592 2809.21 922.764 2805.76 920.773 2805.48 920.54 2805.22 920.229 2805.11 919.867 2805.06 919.505 2805.09 919.117 2805.24 918.781 2807.21 915.315 2804.41 912.496 2804.21 912.185 2804.03 911.849 2804 911.461 2804.03 911.073 2804.21 910.737 2804.41 910.427 2807.24 907.607 2805.24 904.167 2805.11 903.831 2805.06 903.443 2805.11 903.081 2805.24 902.719 2805.48 902.408 2805.79 902.175 2809.24 900.184 2808.22 896.356 2808.15 895.968 2808.22 895.606 2808.35 895.218 2808.59 894.933 2808.9 894.674 2809.24 894.545 2813.1 893.51 2813.1 889.527 2813.17 889.087 2813.38 888.674 2813.69 888.363 2814.11 888.156 2814.57 888.079 2818.57 888.079 2819.58 884.251 2819.78 883.811 2820.09 883.475 2820.46 883.242 2820.92 883.164 2821.36 883.216 2825.23 884.251 2827.22 880.785 2827.43 880.474 2827.74 880.241 2828.1 880.112 2828.49 880.06 2828.85 880.112 2829.24 880.241 2832.64 882.233 2835.46 879.44 2835.77 879.207 2836.14 879.052 2836.53 879Z" fill="#FFFFFF" fill-rule="evenodd"/><path d="M2856.53 940 2867.84 964.253 2867.97 964.615 2868 965.028 2867.87 965.415 2867.69 965.75 2867.41 966.034 2867.04 966.24 2866.66 966.318 2866.27 966.292 2857.8 964.77 2853.51 972.252 2853.31 972.562 2853.02 972.794 2852.63 972.949 2852.27 973 2852.22 973 2851.78 972.923 2851.45 972.742 2851.14 972.484 2850.93 972.149 2839 946.528 2839.57 946.193 2840.06 945.78 2841.3 944.515 2842.77 945.367 2843.44 945.702 2844.22 945.909 2844.99 945.986 2845.74 945.909 2846.51 945.702 2847.19 945.393 2847.81 944.98 2848.32 944.438 2848.79 943.819 2849.64 942.297 2851.29 942.735 2851.86 942.864 2852.45 942.89 2853.23 942.838 2853.95 942.632 2854.6 942.322 2855.22 941.884 2855.76 941.342 2856.22 940.723 2856.53 940Z" fill="#FFFFFF" fill-rule="evenodd"/><path d="M2816.82 940 2817.2 940.697 2817.65 941.317 2818.19 941.859 2818.83 942.272 2819.55 942.608 2820.29 942.815 2821.09 942.866 2821.71 942.841 2822.27 942.737 2824 942.272 2824.88 943.77 2825.34 944.441 2825.9 944.958 2826.54 945.397 2827.26 945.707 2828.01 945.913 2828.81 945.965 2829.58 945.913 2830.36 945.707 2831.05 945.371 2832.62 944.519 2833.93 945.81 2834.44 946.197 2835 946.533 2822.62 972.148 2822.38 972.484 2822.06 972.742 2821.71 972.949 2821.31 973 2821.23 973 2820.85 972.949 2820.48 972.794 2820.16 972.561 2819.92 972.251 2815.54 964.763 2806.73 966.287 2806.33 966.287 2805.96 966.209 2805.61 966.003 2805.32 965.744 2805.11 965.383 2805 965.021 2805.03 964.608 2805.13 964.221 2816.82 940Z" fill="#FFFFFF" fill-rule="evenodd"/><path d="M2836.5 894 2838.29 894.078 2840.03 894.337 2841.71 894.777 2843.29 895.373 2844.85 896.124 2846.27 897.005 2847.6 897.99 2848.87 899.13 2850.01 900.399 2850.99 901.72 2851.87 903.197 2852.6 904.7 2853.2 906.332 2853.61 907.964 2853.87 909.726 2854 911.513 2853.87 913.301 2853.61 915.01 2853.2 916.694 2852.6 918.327 2851.85 919.829 2850.97 921.28 2849.98 922.627 2848.84 923.897 2847.6 924.985 2846.25 926.021 2844.82 926.876 2843.27 927.627 2841.69 928.223 2840 928.638 2838.26 928.897 2836.47 929 2834.71 928.897 2832.97 928.638 2831.29 928.197 2829.68 927.627 2828.15 926.876 2826.73 925.995 2825.35 924.985 2824.13 923.845 2822.99 922.601 2821.98 921.254 2821.1 919.803 2820.37 918.301 2819.8 916.669 2819.34 915.01 2819.08 913.275 2819 911.487 2819.08 909.674 2819.36 907.938 2819.8 906.28 2820.4 904.674 2821.1 903.145 2821.98 901.694 2823.02 900.373 2824.13 899.104 2825.38 897.99 2826.73 896.979 2828.18 896.124 2829.71 895.373 2831.31 894.777 2833 894.337 2834.74 894.078 2836.5 894Z" fill="#FFFFFF" fill-rule="evenodd"/><text font-family="Latha,Latha_MSFontService,sans-serif" font-weight="400" font-size="48" transform="translate(2660.68 1125)">மின்னஞ்சல் <tspan font-size="48" x="-155.26" y="58">மறையாக்கச்</tspan> <tspan font-size="48" x="211.406" y="58">சான்றி</tspan><tspan font-size="48" x="386.146" y="58">தழ்</tspan></text><text font-family="Verdana,Verdana_MSFontService,sans-serif" font-weight="400" font-size="48" transform="matrix(1 0 0 1 2605.38 1246)">(Email Encryption <tspan font-size="48" x="79.6353" y="57">Certificate)</tspan></text><path d="M2307.21 731C2162.79 731 2162.79 731 2162.79 731 2162.53 733.621 2162.53 733.621 2162.53 733.621 2162.53 734.014 2158.47 776.868 2107.88 780.93 2105 781.192 2105 781.192 2105 781.192 2105 784.207 2105 784.207 2105 784.207 2105 832.564 2115.48 878.956 2135.53 918.533 2157.94 962.435 2191.75 996.639 2233.56 1017.21 2235 1018 2235 1018 2235 1018 2236.31 1017.21 2236.31 1017.21 2236.31 1017.21 2278.25 996.639 2312.06 962.435 2334.47 918.533 2354.52 878.956 2365 832.564 2365 784.207 2365 781.192 2365 781.192 2365 781.192 2362.12 781.192 2362.12 781.192 2362.12 781.192 2311.66 776.999 2307.6 735.456 2307.47 733.621 2307.21 731 2307.21 731 2307.21 731" fill="#BCBCBE" fill-rule="evenodd"/><path d="M2232.5 994C2197.3 975.097 2169.58 946.163 2150.11 908.099 2133.35 875.179 2123.68 836.344 2122 796.094 2154.49 788.893 2170.09 767.032 2175.9 748 2289.1 748 2289.1 748 2289.1 748 2294.91 767.032 2310.51 788.893 2343 796.094 2341.32 836.344 2331.65 874.922 2314.89 907.971 2295.42 946.035 2267.7 975.097 2232.5 994Z" fill="#F2D552" fill-rule="evenodd"/><path d="M2235 748C2177.12 748 2177.12 748 2177.12 748 2171.18 767.341 2155.23 789.558 2122 796.876 2123.71 837.78 2133.6 877.117 2150.74 910.703 2170.65 949.255 2199 978.789 2235 998L2235 748Z" fill="#F2D552" fill-rule="evenodd"/><path d="M2168 741.5C2168 739.567 2169.57 738 2171.5 738 2173.43 738 2175 739.567 2175 741.5 2175 743.433 2173.43 745 2171.5 745 2169.57 745 2168 743.433 2168 741.5Z" fill="#7F7F7F" fill-rule="evenodd"/><path d="M2295 741.5C2295 739.567 2296.57 738 2298.5 738 2300.43 738 2302 739.567 2302 741.5 2302 743.433 2300.43 745 2298.5 745 2296.57 745 2295 743.433 2295 741.5Z" fill="#7F7F7F" fill-rule="evenodd"/><path d="M2350 792C2350 790.343 2351.57 789 2353.5 789 2355.43 789 2357 790.343 2357 792 2357 793.657 2355.43 795 2353.5 795 2351.57 795 2350 793.657 2350 792Z" fill="#7F7F7F" fill-rule="evenodd"/><path d="M2112 792C2112 790.343 2113.57 789 2115.5 789 2117.43 789 2119 790.343 2119 792 2119 793.657 2117.43 795 2115.5 795 2113.57 795 2112 793.657 2112 792Z" fill="#7F7F7F" fill-rule="evenodd"/><path d="M2232 1006C2232 1003.79 2233.57 1002 2235.5 1002 2237.43 1002 2239 1003.79 2239 1006 2239 1008.21 2237.43 1010 2235.5 1010 2233.57 1010 2232 1008.21 2232 1006Z" fill="#7F7F7F" fill-rule="evenodd"/><path d="M2324 907.5C2324 905.567 2325.57 904 2327.5 904 2329.43 904 2331 905.567 2331 907.5 2331 909.433 2329.43 911 2327.5 911 2325.57 911 2324 909.433 2324 907.5Z" fill="#7F7F7F" fill-rule="evenodd"/><path d="M2138 907.5C2138 905.567 2139.57 904 2141.5 904 2143.43 904 2145 905.567 2145 907.5 2145 909.433 2143.43 911 2141.5 911 2139.57 911 2138 909.433 2138 907.5Z" fill="#7F7F7F" fill-rule="evenodd"/><text font-family="Latha,Latha_MSFontService,sans-serif" font-weight="400" font-size="46" transform="translate(2189.16 1122)">நேர <tspan font-size="46" x="-144.375" y="55">முத்திரையி</tspan><tspan font-size="46" x="150.677" y="55">டல்</tspan></text><text font-family="Verdana,Verdana_MSFontService,sans-serif" font-weight="400" font-size="46" transform="matrix(1 0 0 1 2043.06 1237)">(Time Stamping)</text><g clip-path="url(#clip4)"><g clip-path="url(#clip5)"><g clip-path="url(#clip6)"><path d="M2211.1 794.88 2186.14 819.84 2177.04 810.74 2174.44 813.6 2186.14 825.3 2213.7 797.74Z" fill="#FFFFFF"/><path d="M2231.38 809.44C2231.38 788.9 2214.74 772 2194.2 772 2173.4 772 2156.76 788.9 2156.76 809.44 2156.76 829.98 2173.4 846.88 2194.2 846.88 2214.74 846.88 2231.38 829.98 2231.38 809.44ZM2160.66 809.44C2160.66 790.98 2175.48 775.9 2194.2 775.9 2212.92 775.9 2227.74 790.98 2227.74 809.44 2227.74 827.9 2212.66 842.98 2194.2 842.98 2175.74 842.98 2160.66 827.9 2160.66 809.44Z" fill="#FFFFFF"/><path d="M2300.02 801.38C2295.86 798.78 2291.18 797.48 2286.5 797.48 2277.4 797.48 2269.08 802.16 2264.4 809.96 2260.76 815.68 2259.98 822.44 2261.02 828.42L2256.34 835.96 2256.34 836.48C2256.08 842.46 2253.48 850 2249.06 857.02 2243.34 866.38 2235.8 873.14 2229.56 874.7 2222.02 870.8 2214.48 867.42 2206.68 864.3 2203.82 863.26 2200.18 864.04 2198.1 866.64 2194.46 871.06 2190.82 875.48 2187.18 879.9 2186.4 880.94 2186.14 881.98 2186.14 883.28 2186.4 884.58 2187.18 885.62 2188.22 886.14L2193.42 889.26 2191.6 894.46C2191.08 896.28 2191.86 897.84 2193.42 898.88L2261.02 940.22C2261.54 940.48 2262.32 940.74 2263.1 940.74 2264.14 940.74 2264.92 940.48 2265.7 939.7L2270.12 936.06 2275.32 939.18C2276.1 939.7 2276.88 939.7 2277.66 939.7 2279.48 939.7 2281.04 938.66 2281.56 937.1 2283.64 931.9 2285.98 926.7 2288.32 921.24 2289.62 918.12 2288.84 914.48 2286.5 912.4 2280.26 906.94 2273.5 901.74 2266.74 896.8 2265.18 890.82 2268.04 880.68 2273.5 871.58 2277.92 864.56 2283.38 858.84 2288.58 855.72L2289.1 855.46 2293.52 848.18C2299.76 846.36 2305.22 842.46 2308.6 836.74 2315.88 825.04 2312.24 808.92 2300.02 801.38ZM2263.1 937.1C2263.1 937.1 2263.1 937.1 2263.1 937.1L2195.24 895.76 2196.8 891.6 2214.74 902.52 2266.48 934.24 2263.1 937.1ZM2284.68 920.2C2282.34 925.66 2280 930.86 2277.92 936.06 2277.92 936.32 2277.66 936.32 2277.66 936.32L2190.3 883.02C2190.04 883.02 2190.04 882.76 2190.04 882.76 2190.04 882.76 2190.04 882.5 2190.04 882.5 2193.68 878.08 2197.32 873.66 2201.22 869.24 2202 868.46 2203.04 867.94 2204.34 867.94 2204.86 867.94 2205.12 867.94 2205.64 868.2 2234.24 879.9 2260.76 896.02 2283.9 916.3 2284.94 916.82 2285.2 918.64 2284.68 920.2ZM2285.98 853.12C2280.26 856.5 2274.54 862.74 2270.12 870.02 2264.92 878.6 2262.06 887.44 2262.32 894.46 2253.22 888.22 2243.86 882.5 2234.24 877.3 2240.48 874.44 2247.24 867.68 2252.44 859.36 2256.86 851.82 2259.72 844.02 2260.24 837.52L2262.58 833.88C2264.66 838.82 2268.04 843.24 2272.98 846.1 2277.14 848.7 2281.82 850 2286.5 850 2287.28 850 2287.8 850 2288.58 850L2285.98 853.12ZM2305.22 835.18C2301.06 841.68 2294.04 845.84 2286.24 845.84 2282.08 845.84 2278.18 844.8 2274.8 842.46 2264.4 835.96 2261.02 822.44 2267.52 812.04 2271.68 805.54 2278.7 801.38 2286.5 801.38 2290.66 801.38 2294.56 802.42 2297.94 804.76 2308.34 811.26 2311.46 824.78 2305.22 835.18Z" fill="#FFFFFF"/><path d="M2282.08 805.54C2276.88 806.84 2272.46 809.96 2269.6 814.64L2272.98 816.72C2275.32 813.08 2278.7 810.48 2283.12 809.44 2287.28 808.4 2291.7 809.18 2295.34 811.26L2297.42 807.88C2292.74 805.02 2287.28 804.24 2282.08 805.54Z" fill="#FFFFFF"/></g></g></g></g></svg>