<svg xmlns="http://www.w3.org/2000/svg" width="203.987" height="62.472" viewBox="0 0 203.987 62.472">
  <g id="corda-logo" transform="translate(0 0)">
    <path id="Path_7957" data-name="Path 7957" d="M85.239-853.131c-8.039,7.548-27.2,5.943-27.2-8.945,0-15.689,16.65-16.9,27.1-15.947v-.055c-.384-8.208-14.207-6.186-19.726-1.831-1.726-2.444-4.654-6.816-5.853-8.79,6.351-4.842,21.864-8.373,29.8-3.917a18.573,18.573,0,0,1,9.5,16.214v26.608H85.608ZM33.1-853.493c-14.1,11.048-28.559.558-30.361-13.654C.495-884.849,14.7-898.907,32.987-892.78v-18.41h13.94v61.4H33.512Zm-.114-14.912V-880.7c-6.041-2.715-15.368-2.82-16.216,9.524-.87,12.643,15.127,13.928,16.216,2.77m-53.51-20.372q6.122-7.388,17.411-4.258-1.7,9.237-2.336,12.48c-10.847-1.867-14.841,1.359-14.888,10.714v20.114H-34.272v-43.49h13.418Zm-48.69-1.035a22.635,22.635,0,0,0-8.2,11.25,8.694,8.694,0,0,0-12.142,1.926,8.69,8.69,0,0,0,1.929,12.14,8.688,8.688,0,0,0,10.213,0,22.635,22.635,0,0,0,8.2,11.25,22.61,22.61,0,0,1-31.589-4.978,22.61,22.61,0,0,1,4.978-31.589,22.613,22.613,0,0,1,26.611,0m154.3,21.066c-4.16.05-13.544-1.44-13.329,5.4s13.329,5.643,13.329-2.265v-3.13m-140.972,5.915a8.693,8.693,0,0,1-8.671-8.714,8.692,8.692,0,0,1,8.711-8.671,8.693,8.693,0,0,1,8.673,8.692,8.708,8.708,0,0,1-8.714,8.692" transform="translate(105.131 911.19)" fill="#e0081c"/>
  </g>
</svg>