<?xml version="1.0" encoding="utf-8"?>
<!-- Generator: Adobe Illustrator 25.2.0, SVG Export Plug-In . SVG Version: 6.00 Build 0)  -->
<svg version="1.1" id="Capa_1" xmlns="http://www.w3.org/2000/svg" xmlns:xlink="http://www.w3.org/1999/xlink" x="0px" y="0px"
	 viewBox="0 0 475 265" style="enable-background:new 0 0 475 265;" xml:space="preserve">
<style type="text/css">
	.st0{fill:#808080;}
	.st1{fill:#C32E1B;}
	.st2{fill:#F7A600;}
	.st3{fill:#009ACB;}
	.st4{fill:#FFE37E;}
</style>
<g>
	<g>
		<g>
			<path class="st0" d="M246.6,192.5v-37.4c0-13.7,1.3-20.2-13-20.2c-17.8,0-16.5,12.2-16.5,24.6v33.1h-16.4v-71.1H215v5.7
				c4.1-3.6,10.5-6.8,20.5-6.8c28.7,0,27.5,18.1,27.5,33.5v38.7L246.6,192.5L246.6,192.5z"/>
			<path class="st0" d="M81.2,120.3c-11.8,0-30.3,3.9-31.4,16.5c-0.6,3.1,0.7,5.8,4,7.7c4.3,2.5,8.2,1.4,10.7-2.9
				c0.2-0.4,0.4-0.7,0.6-1.1c4.1-6.5,9.3-6.2,15.3-6.2c14.4,0,15,4.2,15,13.7H77.1c-15.1,0-30.3,2.3-30.3,23
				c0,17.3,10.8,22.7,27.7,22.7c10.2,0,17.6-3.1,22.1-7v5.8h14.7v-46.3C111.3,127.8,100.3,120.3,81.2,120.3z M77.1,180.1
				c-11.2,0-13.8-3.4-13.8-9.5c0-7.6,3.2-9.3,13.2-9.3h19.1C95.6,173.7,94,180.1,77.1,180.1z"/>
			<path class="st0" d="M337.2,179.1c-14.9,0-16.6-5.8-16.6-22.1c0-16.3,1.8-22.1,16.6-22.1c5.8,0,14.1,0,14.3,7.9h0
				c0,4.9,2.8,7.7,7.8,7.7c5,0,7.8-2.9,7.8-7.8c0-0.4,0-0.8,0-1.1c-0.7-18.1-17.4-21.2-30.2-21.2c-29.6,0-32.6,16.3-32.6,36.4
				c0,20.1,3,37,32.6,37c13.1,0,30.3-3.2,30.3-22.4h-15.6C351.4,179.1,343.1,179.1,337.2,179.1z"/>
			<path class="st0" d="M275.3,192.7v-72.1H292v72.1H275.3z"/>
			<path class="st0" d="M158.1,179.1c-14.9,0-16.6-5.8-16.6-22.1c0-16.3,1.7-22.1,16.6-22.1c5.8,0,14.1,0,14.3,7.9h0
				c0,4.9,2.8,7.7,7.8,7.7c5,0,7.8-2.9,7.8-7.8c0-0.4,0-0.8-0.1-1.1c-0.7-18.1-17.4-21.2-30.2-21.2c-29.6,0-32.6,16.3-32.6,36.4
				c0,20.1,3.1,37,32.6,37c13.1,0,30.3-3.2,30.3-22.4h-15.6C172.2,179.1,163.9,179.1,158.1,179.1z"/>
			<g>
				<path class="st0" d="M27.2,171.3l0.1-75.4H10.8l0,70.7c0,13.6,5.9,21.5,16.4,24.7c3.1,1,6.6,1.5,10.5,1.7v-14.4
					C29.7,178.1,27.9,175.5,27.2,171.3z"/>
			</g>
		</g>
	</g>
	<path class="st1" d="M429.5,160.2c-25.6,0-39.8-14.8-39.8-39.8c0-25.6,14.8-39.1,39.8-39.1c25,0,39.7,13.5,39.7,39.1
		C469.2,145.4,455.1,160.2,429.5,160.2z"/>
	<path class="st2" d="M437.9,135.6c-15.4,0-23.9-8.8-23.9-23.9c0-15.4,8.9-23.5,23.9-23.5s23.8,8.1,23.8,23.5
		C461.7,126.8,453.2,135.6,437.9,135.6z"/>
	<path class="st3" d="M442.9,123.6c-9.2,0-14.3-5.3-14.3-14.3c0-9.2,5.3-14.1,14.3-14.1c9,0,14.3,4.9,14.3,14.1
		C457.2,118.3,452.1,123.6,442.9,123.6z"/>
	<g>
		<path class="st3" d="M418.9,217.2c-15.4,0-23.9-8.8-23.9-23.8c0-15.4,8.9-23.5,23.9-23.5c15,0,23.8,8.1,23.8,23.5
			C442.8,208.3,434.3,217.2,418.9,217.2z"/>
		<path class="st4" d="M415,211.4c-9.2,0-14.3-5.3-14.3-14.3c0-9.2,5.3-14.1,14.3-14.1c9,0,14.3,4.9,14.3,14.1
			C429.3,206.1,424.2,211.4,415,211.4z"/>
		<path class="st2" d="M413.4,206.7c-5.5,0-8.6-3.2-8.6-8.6c0-5.5,3.2-8.4,8.6-8.4s8.6,2.9,8.6,8.4
			C422,203.5,418.9,206.7,413.4,206.7z"/>
	</g>
	<g>
		<path class="st3" d="M381.6,84.1c-15.4,0-23.8-8.8-23.8-23.8c0-15.4,8.9-23.5,23.8-23.5c15,0,23.9,8.1,23.9,23.5
			C405.5,75.3,397,84.1,381.6,84.1z"/>
		<path class="st1" d="M384.2,79.6c-9.2,0-14.3-5.3-14.3-14.3c0-9.2,5.3-14.1,14.3-14.1c9,0,14.3,4.8,14.3,14.1
			C398.6,74.2,393.5,79.6,384.2,79.6z"/>
		<path class="st2" d="M386.4,75.7c-5.5,0-8.6-3.2-8.6-8.6c0-5.5,3.2-8.4,8.6-8.4s8.6,2.9,8.6,8.4C395,72.6,391.9,75.7,386.4,75.7z"
			/>
	</g>
	<g>
		<path class="st1" d="M416,37.1c-9.2,0-14.3-5.3-14.3-14.3c0-9.2,5.3-14.1,14.3-14.1c9,0,14.3,4.8,14.3,14.1
			C430.3,31.8,425.2,37.1,416,37.1z"/>
		<path class="st4" d="M413.6,33.7c-5.5,0-8.6-3.2-8.6-8.6c0-5.5,3.2-8.5,8.6-8.5s8.6,2.9,8.6,8.5C422.2,30.5,419.1,33.7,413.6,33.7
			z"/>
	</g>
	<g>
		<path class="st2" d="M409.3,255c-9.2,0-14.3-5.3-14.3-14.3c0-9.2,5.3-14.1,14.3-14.1c9,0,14.3,4.9,14.3,14.1
			C423.6,249.7,418.5,255,409.3,255z"/>
		<path class="st1" d="M406.9,251.5c-5.5,0-8.6-3.2-8.6-8.6c0-5.5,3.2-8.5,8.6-8.5c5.4,0,8.6,2.9,8.6,8.5
			C415.5,248.3,412.4,251.5,406.9,251.5z"/>
	</g>
</g>
<g>
	<path class="st1" d="M36.3,229.5c-0.6,3.1-1.6,5.5-3.7,7.2c-2.3,1.9-6.7,3-9.2,3.7c-6.1,1.5-7.5,2.4-8.4,7.4l-0.7,4h18.1l-0.5,2.7
		H10.8l1.3-7.7c1.1-6.6,5.4-7.7,10.9-9.2c2.2-0.6,6-1.6,7.7-3c1.9-1.5,2.8-4.5,2.8-7c0-3.8-1.6-5-6.6-5c-5.2,0-7.7,1.1-8.4,5h-2.9
		c1-6,4.6-7.8,11.2-7.8c6.1,0,9.7,1.8,9.7,7.2C36.6,227.8,36.5,228.6,36.3,229.5z"/>
	<path class="st1" d="M93.9,237.4c-1.6,9.2-1.8,17.6-13.5,17.6c-7.6,0-9.5-3.6-9.5-8.5c0-2.9,0.6-5.9,1.2-9.1
		c1.6-9,1.6-17.6,13.5-17.6c7.4,0,9.5,3.4,9.5,8.1C95.1,230.8,94.4,234,93.9,237.4z M85.6,222.6c-4.4,0-6.5,1.3-7.8,4
		c-0.8,1.5-1.5,4.4-2.6,10.8c-0.9,5.4-1.3,8.2-1.3,10c0,4.1,2.9,4.9,6.6,4.9c4.1,0,6.1-1.1,7.5-3.2c1-1.6,1.8-4.2,3-11.6
		c0.9-5.3,1.2-8.1,1.2-9.8C92.1,223.4,89.4,222.6,85.6,222.6z"/>
	<path class="st1" d="M193.6,240.3l-2.5,14.2h-2.9l0.5-2.8c-1.8,2.2-5.2,3.2-9.3,3.2c-5.1,0-8.4-1.8-8.4-6c0-0.6,0.1-1.2,0.1-1.9
		c1.2-6.8,5.7-7.3,11.2-7.3h8.3l0.1-0.8c0.3-1.4,0.4-2.5,0.4-3.4c0-2.5-1.3-3.4-5.9-3.4c-3.5,0-8,0.2-8.8,4.6h-2.8
		c1-5.8,5.5-7.4,12-7.4c4.8,0,8.7,1.2,8.7,6C194.3,236.8,193.9,238.6,193.6,240.3z M181.7,242.4c-4.2,0-6.6,0.6-7.4,5
		c-0.1,0.5-0.1,0.9-0.1,1.3c0,2.5,1.3,3.5,5.6,3.5c8.1,0,9.3-3.3,10.5-9.9H181.7z"/>
	<path class="st1" d="M251.1,241.8l-2.3,12.8h-3l2.2-12.5c0.4-2.3,0.8-4.2,0.8-5.8c0-2.5-1.1-4-5.4-4c-7.4,0-8.6,5.2-9.6,11l-2,11.3
		h-3l4.4-24.8h2.9l-0.5,2.9c2-2.2,5-3.3,8-3.3c4.4,0,8.2,1.5,8.2,6.1C251.9,237.6,251.5,239.7,251.1,241.8z M250.3,224.2
		c-1.1,0.6-2.2,0.8-3.2,0.8c-0.9,0-1.8-0.3-2.5-0.8c-1.1-0.7-2-1.5-3.4-1.5c-0.5,0-1,0.1-1.6,0.4l-3.8,1.8l-0.8-2.3
		c2.2-1.1,4.4-2.5,6.6-2.5c0.9,0,1.8,0.2,2.6,0.8c1.1,0.7,2,1.5,3.4,1.5c0.5,0,1.1-0.1,1.7-0.4l3.7-1.8l0.8,2.3L250.3,224.2z"/>
	<path class="st1" d="M309.6,242.2c-1.5,8.5-3.4,12.8-12.7,12.8c-7.5,0-9.8-2.8-9.8-7.9c0-1.4,0.2-3,0.5-4.9
		c1.5-8.6,3.4-12.8,12.7-12.8c7.3,0,9.7,2.7,9.7,7.7C310.1,238.6,309.9,240.3,309.6,242.2z M300.4,232.2c-7.7,0-8.5,3.6-9.6,10
		c-0.3,1.8-0.6,3.4-0.6,4.8c0,3.4,1.2,5.3,6.8,5.3c7.7,0,8.5-3.7,9.6-10c0.4-2,0.6-3.8,0.6-5.2C307.1,233.8,305.6,232.2,300.4,232.2
		z"/>
	<path class="st1" d="M367,236.8h-2.8c0.1-0.5,0.1-0.9,0.1-1.2c0-2.4-1.5-3.4-5.9-3.4c-4.6,0-8.4,0.5-8.4,5.7c0,2.8,2,2.5,6,2.7
		c4.6,0.2,9.3-0.2,9.3,4.8c0,0.6,0,1.4-0.2,2.2c-1,5.8-4.3,7.5-11.2,7.5c-5.9,0-9.3-1.5-9.3-5.7c0-0.5,0-1.1,0.1-1.8h2.8
		c-0.1,0.5-0.1,0.9-0.1,1.2c0,2.5,1.8,3.4,6.4,3.4c5.1,0,8.4-0.9,8.4-6.3c0-2.3-1.8-2.3-6.4-2.4c-4.6-0.1-9,0-9-4.6
		c0-0.6,0-1.3,0.2-2.2c1-5.8,4-7.3,11.2-7.3c5.2,0,8.9,1.4,8.9,5.5C367.1,235.5,367,236.2,367,236.8z"/>
</g>
</svg>
