<svg width="984" height="282" viewBox="0 0 984 282" fill="none" xmlns="http://www.w3.org/2000/svg">
<path d="M395.81 198C388.18 200.42 379.81 201.91 370.7 201.91C329.03 201.91 302.44 173.27 302.44 134.2V132.71C302.44 93.09 331.46 65 370.89 65C410.88 65 439.34 92.16 439.34 131.96V133.45C439.34 155.03 431.34 173.44 417.39 185.72L429.64 198.81C430.38 199.6 430.36 200.84 429.59 201.6L415.32 215.72C414.52 216.51 413.23 216.49 412.46 215.67L395.81 198ZM377.58 178.28L366.27 165.97C365.53 165.16 365.57 163.91 366.38 163.16L380.95 149.52C381.76 148.76 383.03 148.81 383.78 149.62L398.78 165.82C404.55 158.01 407.89 147.22 407.89 133.83V132.34C407.89 106.49 394.13 88.81 370.88 88.81C347.81 88.81 333.86 105.55 333.86 132.52V134.01C333.86 162.1 349.3 178.65 371.25 178.65C373.49 178.65 375.54 178.47 377.58 178.28Z" fill="#2C56DD"/>
<path d="M450.49 165.26V104.58C450.49 103.48 451.39 102.58 452.49 102.58H475.28C476.38 102.58 477.28 103.48 477.28 104.58V161.54C477.28 174.75 482.67 181.07 494.21 181.07C505.56 181.07 514.48 174 514.48 159.68V104.58C514.48 103.48 515.38 102.58 516.48 102.58H539.26C540.36 102.58 541.26 103.48 541.26 104.58V197.86C541.26 198.96 540.36 199.86 539.26 199.86H516.48C515.38 199.86 514.48 198.96 514.48 197.86V184.61C509.46 194.47 499.6 201.91 483.6 201.91C464.63 201.9 450.49 190.74 450.49 165.26Z" fill="#2C56DD"/>
<path d="M550.56 152.24V150.75C550.56 120.25 572.69 100.34 601.9 100.34C631.1 100.34 653.05 119.87 653.05 150.19V151.68C653.05 182.37 630.92 201.9 601.71 201.9C572.69 201.9 550.56 182.56 550.56 152.24ZM625.71 151.87V150.57C625.71 131.97 616.97 120.81 601.9 120.81C587.02 120.81 578.09 131.6 578.09 150.2V151.69C578.09 170.29 586.65 181.45 601.9 181.45C616.96 181.44 625.71 170.28 625.71 151.87Z" fill="#2C56DD"/>
<path d="M664.16 102.58H687.13C688.23 102.58 689.13 103.48 689.13 104.58V121.18C694.99 108.75 703.9 101.92 718.44 101.16C719.59 101.1 720.56 102.01 720.56 103.16V124.21C720.56 125.3 719.69 126.19 718.61 126.21C699.91 126.47 689.13 133.15 689.13 151.13V197.86C689.13 198.96 688.23 199.86 687.13 199.86H664.16C663.06 199.86 662.16 198.96 662.16 197.86V104.58C662.16 103.47 663.05 102.58 664.16 102.58Z" fill="#2C56DD"/>
<path d="M729.86 165.26V104.58C729.86 103.48 730.76 102.58 731.86 102.58H754.65C755.75 102.58 756.65 103.48 756.65 104.58V161.54C756.65 174.75 762.04 181.07 773.58 181.07C784.93 181.07 793.85 174 793.85 159.68V104.58C793.85 103.48 794.75 102.58 795.85 102.58H818.64C819.74 102.58 820.64 103.48 820.64 104.58V197.86C820.64 198.96 819.74 199.86 818.64 199.86H795.85C794.75 199.86 793.85 198.96 793.85 197.86V184.61C788.83 194.47 778.97 201.91 762.97 201.91C744 201.9 729.86 190.74 729.86 165.26Z" fill="#2C56DD"/>
<path d="M837.14 102.58H860.11C861.21 102.58 862.11 103.48 862.11 104.58V117.46C866.95 108.35 877.36 100.35 891.87 100.35C904.7 100.35 914.38 105.74 919.03 117.28C926.84 105.56 939.49 100.35 951.77 100.35C969.81 100.35 983.76 111.7 983.76 137.55V197.86C983.76 198.96 982.86 199.86 981.76 199.86H958.97C957.87 199.86 956.97 198.96 956.97 197.86V140.52C956.97 128.06 951.39 122.48 941.72 122.48C931.3 122.48 922.93 129.18 922.93 142.38V197.86C922.93 198.96 922.03 199.86 920.93 199.86H898.15C897.05 199.86 896.15 198.96 896.15 197.86V140.52C896.15 128.06 890.38 122.48 880.9 122.48C870.48 122.48 862.11 129.18 862.11 142.38V197.86C862.11 198.96 861.21 199.86 860.11 199.86H837.14C836.04 199.86 835.14 198.96 835.14 197.86V104.58C835.14 103.47 836.03 102.58 837.14 102.58Z" fill="#2C56DD"/>
<path fill-rule="evenodd" clip-rule="evenodd" d="M0 141C0 63.4 62.9 0.5 140.5 0.5C218.1 0.5 281 63.4 281 141C281 218.6 218.1 281.5 140.5 281.5C62.9 281.5 0 218.6 0 141ZM206.632 169.684C206.596 162.365 212.56 156.41 219.952 156.363H219.988C227.381 156.422 233.333 162.4 233.273 169.708C233.297 177.004 227.345 182.958 219.952 183.005C212.56 182.97 206.596 177.015 206.632 169.708V169.684ZM216.204 141.103C222.57 137.428 224.766 129.279 221.09 122.915C217.414 116.551 209.262 114.355 202.897 118.031C196.554 121.682 194.358 129.772 197.964 136.136L198.046 136.254C201.722 142.606 209.838 144.778 216.192 141.103C216.192 141.109 216.195 141.112 216.198 141.112C216.201 141.112 216.204 141.109 216.204 141.103ZM60.352 122.942C64.042 116.576 72.1978 114.415 78.5672 118.103C84.9132 121.779 87.0755 129.907 83.409 136.261V136.308C79.7189 142.673 71.5632 144.834 65.1937 141.146C58.8242 137.459 56.6619 129.308 60.352 122.942ZM100.395 114.426C107.761 114.414 113.726 108.435 113.714 101.081C113.714 98.7787 113.114 96.5232 111.973 94.5262C108.361 88.1476 100.242 85.8922 93.8418 89.5102C93.8388 89.5102 93.8366 89.511 93.8347 89.5121L93.8326 89.5136L93.83 89.5161C93.8271 89.5191 93.8241 89.522 93.8183 89.522L93.5947 89.6512C87.2648 93.4103 85.1823 101.586 88.9473 107.906C91.3475 111.935 95.689 114.414 100.395 114.426ZM127.064 90.2409C127.064 82.8873 133.032 76.9199 140.385 76.9199C147.739 76.9199 153.706 82.8873 153.706 90.2409C153.706 97.5945 147.739 103.562 140.385 103.562C133.032 103.562 127.064 97.5945 127.064 90.2409ZM97.8885 156.373C90.535 156.373 84.5675 162.34 84.5675 169.694C84.5675 177.047 90.535 183.015 97.8885 183.015C105.242 183.015 111.21 177.047 111.21 169.694C111.21 162.34 105.242 156.373 97.8885 156.373ZM149.335 133.338C149.335 125.984 155.303 120.017 162.656 120.017C170.01 120.017 175.977 125.984 175.977 133.338C175.977 140.691 170.01 146.659 162.656 146.659C155.303 146.659 149.335 140.691 149.335 133.338ZM173.788 113.125L173.96 113.221C180.823 116.632 189.197 113.932 192.672 107.196C195.876 100.979 193.801 93.387 187.846 89.5792C181.007 86.1208 172.609 88.7477 169.085 95.4596C165.819 101.665 167.845 109.281 173.788 113.125ZM47.7264 169.442C47.8796 162.09 53.957 156.245 61.3065 156.363C68.5383 156.505 74.3449 162.408 74.3684 169.642C74.392 177.006 68.4441 182.98 61.0828 183.004C53.7215 183.027 47.75 177.077 47.7264 169.713V169.442ZM182.428 156.333C175.074 156.333 169.107 162.301 169.107 169.654C169.107 177.008 175.074 182.975 182.428 182.975C189.781 182.975 195.749 177.008 195.749 169.654C195.749 162.301 189.781 156.333 182.428 156.333ZM129.808 125.969C133.866 132.094 132.201 140.355 126.078 144.415C125.608 144.732 125.116 145.025 124.6 145.272C118.019 148.534 110.031 145.847 106.77 139.264C103.51 132.681 106.196 124.69 112.776 121.427L112.858 121.38C118.852 118.435 126.113 120.395 129.808 125.969Z" fill="#2C56DD"/>
</svg>