<svg width="604" height="665" xmlns="http://www.w3.org/2000/svg" xmlns:xlink="http://www.w3.org/1999/xlink" xml:space="preserve" overflow="hidden"><defs><clipPath id="clip0"><rect x="1364" y="727" width="604" height="665"/></clipPath></defs><g clip-path="url(#clip0)" transform="translate(-1364 -727)"><path d="M1738.21 727C1593.79 727 1593.79 727 1593.79 727 1593.53 729.612 1593.53 729.612 1593.53 729.612 1593.53 730.004 1589.47 772.708 1538.88 776.756 1536 777.017 1536 777.017 1536 777.017 1536 780.021 1536 780.021 1536 780.021 1536 828.21 1546.48 874.44 1566.53 913.88 1588.94 957.628 1622.75 991.713 1664.56 1012.22 1666 1013 1666 1013 1666 1013 1667.31 1012.22 1667.31 1012.22 1667.31 1012.22 1709.25 991.713 1743.06 957.628 1765.47 913.88 1785.52 874.44 1796 828.21 1796 780.021 1796 777.017 1796 777.017 1796 777.017 1793.12 777.017 1793.12 777.017 1793.12 777.017 1742.66 772.838 1738.6 731.44 1738.47 729.612 1738.21 727 1738.21 727 1738.21 727" fill="#BCBCBE" fill-rule="evenodd"/><path d="M1664.5 989C1629.3 970.097 1601.58 941.163 1582.11 903.099 1565.35 870.179 1555.68 831.344 1554 791.094 1586.49 783.893 1602.09 762.032 1607.9 743 1721.1 743 1721.1 743 1721.1 743 1726.91 762.032 1742.51 783.893 1775 791.094 1773.32 831.344 1763.65 869.922 1746.89 902.971 1727.42 941.034 1699.7 970.097 1664.5 989Z" fill="#01919A" fill-rule="evenodd"/><path d="M1666 743C1608.63 743 1608.63 743 1608.63 743 1602.75 762.341 1586.93 784.558 1554 791.876 1555.7 832.78 1565.5 872.117 1582.49 905.703 1602.22 944.255 1630.32 973.789 1666 993L1666 743Z" fill="#01919A" fill-rule="evenodd"/><path d="M1600 737C1600 734.791 1601.57 733 1603.5 733 1605.43 733 1607 734.791 1607 737 1607 739.209 1605.43 741 1603.5 741 1601.57 741 1600 739.209 1600 737Z" fill="#7F7F7F" fill-rule="evenodd"/><path d="M1726 737C1726 734.791 1727.57 733 1729.5 733 1731.43 733 1733 734.791 1733 737 1733 739.209 1731.43 741 1729.5 741 1727.57 741 1726 739.209 1726 737Z" fill="#7F7F7F" fill-rule="evenodd"/><path d="M1781 787.5C1781 785.567 1782.57 784 1784.5 784 1786.43 784 1788 785.567 1788 787.5 1788 789.433 1786.43 791 1784.5 791 1782.57 791 1781 789.433 1781 787.5Z" fill="#7F7F7F" fill-rule="evenodd"/><path d="M1543 787.5C1543 785.567 1544.57 784 1546.5 784 1548.43 784 1550 785.567 1550 787.5 1550 789.433 1548.43 791 1546.5 791 1544.57 791 1543 789.433 1543 787.5Z" fill="#7F7F7F" fill-rule="evenodd"/><path d="M1663 1001.5C1663 999.567 1664.57 998 1666.5 998 1668.43 998 1670 999.567 1670 1001.5 1670 1003.43 1668.43 1005 1666.5 1005 1664.57 1005 1663 1003.43 1663 1001.5Z" fill="#7F7F7F" fill-rule="evenodd"/><path d="M1756 902.5C1756 900.567 1757.57 899 1759.5 899 1761.43 899 1763 900.567 1763 902.5 1763 904.433 1761.43 906 1759.5 906 1757.57 906 1756 904.433 1756 902.5Z" fill="#7F7F7F" fill-rule="evenodd"/><path d="M1569 902.5C1569 900.567 1570.57 899 1572.5 899 1574.43 899 1576 900.567 1576 902.5 1576 904.433 1574.43 906 1572.5 906 1570.57 906 1569 904.433 1569 902.5Z" fill="#7F7F7F" fill-rule="evenodd"/><path d="M1629 779C1629 776.791 1630.79 775 1633 775 1635.21 775 1637 776.791 1637 779 1637 781.209 1635.21 783 1633 783 1630.79 783 1629 781.209 1629 779Z" fill="#FFFFFF" fill-rule="evenodd"/><path d="M1632.29 784C1630.14 784 1628 781.727 1628 779 1628 776.273 1630.14 774 1632.29 774 1634.86 774 1637 776.273 1637 779 1637 781.727 1634.86 784 1632.29 784ZM1632.29 775.818C1631 775.818 1629.71 777.182 1629.71 779 1629.71 780.818 1631 782.182 1632.29 782.182 1634 782.182 1635.29 780.818 1635.29 779 1635.29 777.182 1634 775.818 1632.29 775.818Z" fill="#FFFFFF" fill-rule="evenodd"/><path d="M1655 817 1641 823.111 1641 825.889 1655 832 1655 829.407 1644.59 825.333 1643.65 825.333 1643.65 823.667 1644.59 823.667 1655 819.593 1655 817 1655 817Z" fill="#FFFFFF" fill-rule="evenodd"/><path d="M1656 833 1640 826.2 1640 822.8 1656 816 1656 820.295 1644.57 824.411 1656 828.705 1656 833ZM1644.19 826.2 1654.29 830.495 1654.29 829.6 1644.19 826.2ZM1641.9 825.305 1642.86 825.842 1642.86 823.158 1641.9 823.695 1641.9 825.305ZM1644.57 824.411 1644.57 824.411 1644.57 824.411ZM1644.19 822.8 1644.57 822.8 1654.29 819.4 1654.29 818.505 1644.19 822.8Z" fill="#FFFFFF" fill-rule="evenodd"/><path d="M1703.99 767C1628.58 767 1628.58 767 1628.58 767 1625.07 767 1622 770.079 1622 773.597 1622 855.403 1622 855.403 1622 855.403 1622 858.921 1625.07 862 1628.58 862 1703.99 862 1703.99 862 1703.99 862 1707.93 862 1711 858.921 1711 855.403 1711 773.597 1711 773.597 1711 773.597 1711 770.079 1707.93 767 1703.99 767ZM1708.81 855.403C1708.81 857.602 1706.62 859.801 1703.99 859.801 1628.58 859.801 1628.58 859.801 1628.58 859.801 1625.95 859.801 1623.75 857.602 1623.75 855.403 1623.75 789.87 1623.75 789.87 1623.75 789.87 1708.81 789.87 1708.81 789.87 1708.81 789.87L1708.81 855.403ZM1708.81 787.671C1623.75 787.671 1623.75 787.671 1623.75 787.671 1623.75 773.597 1623.75 773.597 1623.75 773.597 1623.75 770.958 1625.95 769.199 1628.58 769.199 1703.99 769.199 1703.99 769.199 1703.99 769.199 1706.62 769.199 1708.81 770.958 1708.81 773.597L1708.81 787.671Z" fill="#FFFFFF" fill-rule="evenodd"/><path d="M1704.09 863C1628.47 863 1628.47 863 1628.47 863 1624.52 863 1621 859.509 1621 855.582 1621 774.418 1621 774.418 1621 774.418 1621 770.491 1624.52 767 1628.47 767 1704.09 767 1704.09 767 1704.09 767 1708.48 767 1712 770.491 1712 774.418 1712 855.582 1712 855.582 1712 855.582 1712 859.509 1708.48 863 1704.09 863ZM1622.76 855.582C1622.76 858.636 1625.4 861.255 1628.47 861.255 1704.09 861.255 1704.09 861.255 1704.09 861.255 1707.6 861.255 1710.24 858.636 1710.24 855.582 1710.24 774.418 1710.24 774.418 1710.24 774.418 1710.24 771.364 1707.6 768.745 1704.09 768.745 1628.47 768.745 1628.47 768.745 1628.47 768.745 1625.84 768.745 1623.64 770.491 1623.2 772.673 1623.64 770.491 1625.84 769.182 1628.47 769.182 1704.09 769.182 1704.09 769.182 1704.09 769.182 1707.16 769.182 1709.8 771.364 1709.8 774.418 1709.8 789.254 1709.8 789.254 1709.8 789.254 1622.76 789.254 1622.76 789.254 1622.76 789.254 1622.76 789.691 1622.76 789.691 1622.76 789.691 1709.8 789.691 1709.8 789.691 1709.8 789.691 1709.8 855.582 1709.8 855.582 1709.8 855.582 1709.8 858.2 1707.16 860.818 1704.09 860.818 1628.47 860.818 1628.47 860.818 1628.47 860.818 1625.4 860.818 1622.76 858.2 1622.76 855.582ZM1624.52 791.436C1624.52 855.582 1624.52 855.582 1624.52 855.582 1624.52 857.327 1626.28 859.073 1628.47 859.073 1704.09 859.073 1704.09 859.073 1704.09 859.073 1706.28 859.073 1708.04 857.327 1708.04 855.582 1708.04 791.436 1708.04 791.436 1708.04 791.436L1624.52 791.436ZM1624.52 787.509C1708.04 787.509 1708.04 787.509 1708.04 787.509 1708.04 774.418 1708.04 774.418 1708.04 774.418 1708.04 772.236 1705.85 770.927 1704.09 770.927 1628.47 770.927 1628.47 770.927 1628.47 770.927 1626.72 770.927 1624.52 772.236 1624.52 774.418L1624.52 787.509Z" fill="#FFFFFF" fill-rule="evenodd"/><path d="M1677 832 1691 825.889 1691 823.111 1677 817 1677 819.593 1687.91 823.667 1688.45 823.667 1688.45 825.333 1687.55 825.333 1677 829.407 1677 832 1677 832Z" fill="#FFFFFF" fill-rule="evenodd"/><path d="M1677 833 1677 828.705 1687.81 824.411 1687.81 824.411 1677 820.295 1677 816 1692 822.8 1692 826.2 1677 833ZM1678.57 829.6 1678.57 830.495 1688.16 826.2 1687.81 826.2 1678.57 829.6ZM1689.56 823.158 1689.56 825.842 1690.26 825.305 1690.26 823.695 1689.56 823.158ZM1678.57 819.4 1686.94 822.442 1678.57 818.505 1678.57 819.4Z" fill="#FFFFFF" fill-rule="evenodd"/><path d="M1662.15 836 1672 809 1669.85 809 1660 836 1662.15 836 1662.15 836Z" fill="#FFFFFF" fill-rule="evenodd"/><path d="M1662.02 837 1658 837 1668.98 808 1673 808 1662.02 837ZM1660.74 835.188 1661.11 835.188 1670.44 809.631 1669.89 809.631 1660.74 835.188Z" fill="#FFFFFF" fill-rule="evenodd"/><path d="M1660 779C1660 776.791 1661.57 775 1663.5 775 1665.43 775 1667 776.791 1667 779 1667 781.209 1665.43 783 1663.5 783 1661.57 783 1660 781.209 1660 779Z" fill="#FFFFFF" fill-rule="evenodd"/><path d="M1663.29 784C1660.71 784 1659 781.727 1659 779 1659 776.273 1660.71 774 1663.29 774 1665.86 774 1668 776.273 1668 779 1668 781.727 1665.86 784 1663.29 784ZM1663.29 775.818C1661.57 775.818 1660.71 777.636 1660.71 779 1660.71 780.364 1661.57 782.182 1663.29 782.182 1665 782.182 1666.29 780.818 1666.29 779 1666.29 777.182 1665 775.818 1663.29 775.818Z" fill="#FFFFFF" fill-rule="evenodd"/><path d="M1644 779C1644 776.791 1645.79 775 1648 775 1650.21 775 1652 776.791 1652 779 1652 781.209 1650.21 783 1648 783 1645.79 783 1644 781.209 1644 779Z" fill="#FFFFFF" fill-rule="evenodd"/><path d="M1648.29 784C1646.14 784 1644 781.727 1644 779 1644 776.273 1646.14 774 1648.29 774 1650.86 774 1653 776.273 1653 779 1653 781.727 1650.86 784 1648.29 784ZM1648.29 775.818C1647 775.818 1645.71 777.182 1645.71 779 1645.71 780.818 1647 782.182 1648.29 782.182 1650 782.182 1651.29 780.818 1651.29 779 1651.29 777.182 1650 775.818 1648.29 775.818Z" fill="#FFFFFF" fill-rule="evenodd"/><path d="M1666.5 897.105 1664.63 897.157 1662.85 897.416 1661.08 897.804 1659.37 898.347 1657.74 899.045 1656.21 899.873 1654.73 900.83 1653.36 901.89 1652.09 903.054 1650.9 904.322 1649.84 905.718 1648.88 907.167 1648.05 908.745 1647.35 910.374 1646.8 912.081 1646.41 913.814 1646.16 915.625 1646.08 917.487 1646.16 919.324 1646.39 921.16 1646.78 922.893 1647.35 924.6 1648.05 926.23 1648.88 927.782 1649.81 929.23 1650.87 930.627 1652.06 931.92 1653.33 933.084 1654.71 934.17 1656.19 935.102 1657.71 935.929 1659.35 936.602 1661.06 937.171 1662.82 937.585 1664.61 937.818 1666.47 937.895 1668.31 937.818 1670.13 937.585 1671.92 937.171 1673.58 936.628 1675.21 935.929 1676.76 935.128 1678.27 934.17 1679.61 933.11 1680.91 931.92 1682.1 930.627 1683.16 929.256 1684.1 927.782 1684.93 926.256 1685.63 924.626 1686.17 922.919 1686.59 921.186 1686.82 919.35 1686.92 917.513 1686.82 915.651 1686.59 913.84 1686.17 912.107 1685.63 910.4 1684.95 908.771 1684.12 907.193 1683.19 905.744 1682.1 904.348 1680.94 903.08 1679.64 901.916 1678.27 900.83 1676.82 899.899 1675.23 899.071 1673.63 898.373 1671.94 897.804 1670.18 897.416 1668.34 897.183 1666.5 897.105ZM1666.53 885 1666.89 885.052 1667.23 885.207 1667.54 885.44 1670.36 888.233 1673.81 886.242 1674.15 886.112 1674.56 886.087 1674.92 886.112 1675.26 886.293 1675.57 886.5 1675.8 886.811 1677.8 890.277 1681.64 889.242 1682.02 889.19 1682.39 889.242 1682.75 889.371 1683.06 889.604 1683.29 889.915 1683.45 890.277 1684.46 894.105 1688.45 894.105 1688.92 894.182 1689.31 894.389 1689.62 894.7 1689.85 895.114 1689.9 895.579 1689.9 899.537 1693.74 900.597 1694.18 900.778 1694.52 901.089 1694.75 901.477 1694.83 901.916 1694.8 902.382 1693.74 906.21 1697.19 908.227 1697.5 908.46 1697.73 908.771 1697.89 909.107 1697.94 909.495 1697.89 909.857 1697.73 910.219 1695.73 913.659 1698.56 916.478 1698.79 916.763 1698.92 917.151 1699 917.513 1698.92 917.901 1698.79 918.263 1698.56 918.574 1695.73 921.393 1697.73 924.807 1697.89 925.169 1697.91 925.531 1697.89 925.919 1697.73 926.281 1697.5 926.566 1697.19 926.825 1693.71 928.816 1694.78 932.619 1694.83 933.11 1694.72 933.576 1694.49 933.938 1694.15 934.248 1693.71 934.455 1689.88 935.464 1689.88 939.421 1689.8 939.913 1689.59 940.301 1689.28 940.637 1688.89 940.818 1688.43 940.921 1684.43 940.921 1683.42 944.749 1683.24 945.086 1683.01 945.396 1682.7 945.629 1682.36 945.784 1682 945.836 1681.61 945.784 1677.77 944.749 1675.75 948.19 1675.52 948.5 1675.21 948.733 1674.87 948.888 1674.51 948.94 1674.12 948.888 1673.76 948.707 1670.31 946.741 1667.48 949.56 1667.2 949.793 1666.84 949.923 1666.47 950 1666.09 949.923 1665.72 949.793 1665.44 949.56 1662.61 946.741 1659.17 948.707 1658.8 948.862 1658.44 948.914 1658.08 948.862 1657.71 948.707 1657.4 948.474 1657.14 948.164 1655.2 944.724 1651.34 945.758 1650.87 945.81 1650.43 945.732 1650.04 945.5 1649.73 945.163 1649.52 944.724 1648.49 940.87 1644.55 940.87 1644.06 940.792 1643.67 940.585 1643.33 940.275 1643.15 939.887 1643.04 939.395 1643.04 935.438 1639.21 934.403 1638.87 934.248 1638.56 934.015 1638.33 933.705 1638.2 933.369 1638.12 932.981 1638.2 932.593 1639.21 928.765 1635.76 926.773 1635.48 926.54 1635.22 926.23 1635.11 925.868 1635.06 925.506 1635.09 925.118 1635.24 924.781 1637.21 921.315 1634.41 918.496 1634.21 918.186 1634.03 917.849 1634 917.461 1634.03 917.073 1634.21 916.737 1634.41 916.427 1637.24 913.607 1635.24 910.167 1635.11 909.831 1635.06 909.443 1635.11 909.081 1635.24 908.719 1635.48 908.408 1635.79 908.176 1639.24 906.184 1638.22 902.356 1638.15 901.968 1638.22 901.606 1638.35 901.218 1638.59 900.933 1638.9 900.675 1639.24 900.545 1643.1 899.511 1643.1 895.527 1643.17 895.088 1643.38 894.674 1643.69 894.363 1644.11 894.157 1644.57 894.079 1648.57 894.079 1649.58 890.251 1649.78 889.811 1650.09 889.475 1650.46 889.242 1650.92 889.165 1651.36 889.216 1655.23 890.251 1657.22 886.785 1657.43 886.474 1657.74 886.242 1658.1 886.112 1658.49 886.061 1658.85 886.112 1659.24 886.242 1662.64 888.233 1665.46 885.44 1665.77 885.207 1666.14 885.052 1666.53 885Z" fill="#FFFFFF" fill-rule="evenodd"/><path d="M1685.53 946 1696.85 970.253 1696.97 970.615 1697 971.027 1696.87 971.414 1696.69 971.75 1696.41 972.034 1696.04 972.24 1695.66 972.317 1695.27 972.292 1686.8 970.769 1682.51 978.252 1682.31 978.561 1682.02 978.794 1681.63 978.948 1681.27 979 1681.22 979 1680.78 978.923 1680.45 978.742 1680.14 978.484 1679.93 978.149 1668 952.528 1668.57 952.192 1669.06 951.78 1670.3 950.515 1671.77 951.367 1672.44 951.702 1673.22 951.909 1673.99 951.986 1674.74 951.909 1675.51 951.702 1676.19 951.393 1676.81 950.98 1677.32 950.438 1677.79 949.819 1678.64 948.296 1680.29 948.735 1680.86 948.864 1681.45 948.89 1682.23 948.838 1682.95 948.632 1683.6 948.322 1684.22 947.883 1684.76 947.342 1685.22 946.722 1685.53 946Z" fill="#FFFFFF" fill-rule="evenodd"/><path d="M1646.43 946 1646.79 946.697 1647.23 947.317 1647.75 947.859 1648.36 948.272 1649.06 948.608 1649.78 948.815 1650.56 948.866 1651.15 948.84 1651.69 948.737 1653.37 948.272 1654.22 949.77 1654.66 950.441 1655.2 950.958 1655.82 951.397 1656.52 951.707 1657.24 951.913 1658.01 951.965 1658.76 951.913 1659.51 951.707 1660.18 951.371 1661.7 950.519 1662.97 951.81 1663.46 952.197 1664 952.533 1652.03 978.148 1651.8 978.484 1651.49 978.742 1651.15 978.948 1650.76 979 1650.69 979 1650.33 978.948 1649.96 978.793 1649.65 978.561 1649.42 978.251 1645.19 970.763 1636.68 972.286 1636.29 972.286 1635.93 972.209 1635.59 972.002 1635.31 971.744 1635.1 971.383 1635 971.021 1635.03 970.608 1635.13 970.221 1646.43 946Z" fill="#FFFFFF" fill-rule="evenodd"/><path d="M1666.5 900 1668.29 900.078 1670.03 900.337 1671.71 900.777 1673.29 901.373 1674.85 902.124 1676.27 903.005 1677.6 903.99 1678.87 905.129 1680.01 906.399 1680.99 907.72 1681.87 909.197 1682.6 910.699 1683.2 912.332 1683.61 913.964 1683.87 915.725 1684 917.513 1683.87 919.3 1683.61 921.01 1683.2 922.694 1682.6 924.326 1681.85 925.829 1680.97 927.28 1679.98 928.627 1678.84 929.896 1677.6 930.984 1676.25 932.021 1674.82 932.876 1673.27 933.627 1671.69 934.223 1670 934.637 1668.26 934.896 1666.47 935 1664.71 934.896 1662.97 934.637 1661.29 934.197 1659.68 933.627 1658.15 932.876 1656.73 931.995 1655.35 930.984 1654.13 929.845 1652.99 928.601 1651.98 927.254 1651.1 925.803 1650.37 924.3 1649.8 922.668 1649.34 921.01 1649.08 919.275 1649 917.487 1649.08 915.674 1649.36 913.938 1649.8 912.28 1650.4 910.674 1651.1 909.145 1651.98 907.694 1653.02 906.373 1654.13 905.104 1655.38 903.99 1656.73 902.979 1658.18 902.124 1659.71 901.373 1661.31 900.777 1663 900.337 1664.74 900.078 1666.5 900Z" fill="#FFFFFF" fill-rule="evenodd"/><text font-family="Latha,Latha_MSFontService,sans-serif" font-weight="400" font-size="48" transform="translate(1402.66 1125)">குறியீடு ஒப்பமி<tspan font-size="48" x="409.635" y="0">டல் </tspan><tspan font-size="48" x="123.177" y="58">சான்றிதழ்</tspan></text><text font-family="Verdana,Verdana_MSFontService,sans-serif" font-weight="400" font-size="48" transform="matrix(1 0 0 1 1486.61 1246)">(Code Signing <tspan font-size="48" x="35.5209" y="57">Certificate)</tspan></text></g></svg>