<svg width="649" height="618" xmlns="http://www.w3.org/2000/svg" xmlns:xlink="http://www.w3.org/1999/xlink" xml:space="preserve" overflow="hidden"><defs><clipPath id="clip0"><rect x="117" y="725" width="649" height="618"/></clipPath></defs><g clip-path="url(#clip0)" transform="translate(-117 -725)"><path d="M514.208 725C369.792 725 369.792 725 369.792 725 369.53 727.612 369.53 727.612 369.53 727.612 369.53 728.004 365.468 770.708 314.883 774.756 312 775.017 312 775.017 312 775.017 312 778.021 312 778.021 312 778.021 312 826.21 322.484 872.44 342.534 911.879 364.944 955.628 398.754 989.713 440.559 1010.22 442 1011 442 1011 442 1011 443.311 1010.22 443.311 1010.22 443.311 1010.22 485.246 989.713 519.056 955.628 541.466 911.879 561.516 872.44 572 826.21 572 778.021 572 775.017 572 775.017 572 775.017 569.117 775.017 569.117 775.017 569.117 775.017 518.663 770.838 514.601 729.44 514.47 727.612 514.208 725 514.208 725 514.208 725" fill="#BCBCBE" fill-rule="evenodd"/><path d="M439.5 987C404.3 968.097 376.578 939.163 357.108 901.099 340.347 868.179 330.676 829.344 329 789.094 361.492 781.893 377.094 760.032 382.896 741 496.104 741 496.104 741 496.104 741 501.906 760.032 517.508 781.893 550 789.094 548.324 829.344 538.653 867.922 521.891 900.971 502.422 939.034 474.7 968.097 439.5 987Z" fill="#204497" fill-rule="evenodd"/><path d="M442 741C384.116 741 384.116 741 384.116 741 378.182 760.341 362.228 782.558 329 789.876 330.714 830.781 340.603 870.117 357.744 903.703 377.655 942.255 406.004 971.789 442 991L442 741Z" fill="#204497" fill-rule="evenodd"/><path d="M375 735.5C375 733.567 376.567 732 378.5 732 380.433 732 382 733.567 382 735.5 382 737.433 380.433 739 378.5 739 376.567 739 375 737.433 375 735.5Z" fill="#7F7F7F" fill-rule="evenodd"/><path d="M502 735.5C502 733.567 503.567 732 505.5 732 507.433 732 509 733.567 509 735.5 509 737.433 507.433 739 505.5 739 503.567 739 502 737.433 502 735.5Z" fill="#7F7F7F" fill-rule="evenodd"/><path d="M557 785.5C557 783.567 558.567 782 560.5 782 562.433 782 564 783.567 564 785.5 564 787.433 562.433 789 560.5 789 558.567 789 557 787.433 557 785.5Z" fill="#7F7F7F" fill-rule="evenodd"/><path d="M318 785.5C318 783.567 319.791 782 322 782 324.209 782 326 783.567 326 785.5 326 787.433 324.209 789 322 789 319.791 789 318 787.433 318 785.5Z" fill="#7F7F7F" fill-rule="evenodd"/><path d="M439 999.5C439 997.567 440.567 996 442.5 996 444.433 996 446 997.567 446 999.5 446 1001.43 444.433 1003 442.5 1003 440.567 1003 439 1001.43 439 999.5Z" fill="#7F7F7F" fill-rule="evenodd"/><path d="M531 900.5C531 898.567 532.567 897 534.5 897 536.433 897 538 898.567 538 900.5 538 902.433 536.433 904 534.5 904 532.567 904 531 902.433 531 900.5Z" fill="#7F7F7F" fill-rule="evenodd"/><path d="M345 900.5C345 898.567 346.567 897 348.5 897 350.433 897 352 898.567 352 900.5 352 902.433 350.433 904 348.5 904 346.567 904 345 902.433 345 900.5Z" fill="#7F7F7F" fill-rule="evenodd"/><path d="M441.5 882.105 439.634 882.157 437.846 882.415 436.083 882.803 434.373 883.347 432.74 884.045 431.211 884.873 429.734 885.83 428.36 886.89 427.09 888.054 425.898 889.322 424.835 890.718 423.876 892.167 423.047 893.745 422.347 895.374 421.803 897.081 421.414 898.814 421.155 900.625 421.077 902.487 421.155 904.324 421.388 906.16 421.777 907.893 422.347 909.6 423.047 911.23 423.876 912.782 424.809 914.23 425.872 915.627 427.064 916.92 428.334 918.084 429.708 919.17 431.185 920.102 432.714 920.929 434.347 921.602 436.057 922.171 437.82 922.585 439.608 922.817 441.474 922.895 443.314 922.817 445.128 922.585 446.917 922.171 448.575 921.628 450.208 920.929 451.763 920.127 453.266 919.17 454.614 918.11 455.91 916.92 457.102 915.627 458.165 914.256 459.098 912.782 459.927 911.255 460.627 909.626 461.171 907.919 461.586 906.186 461.819 904.349 461.923 902.513 461.819 900.651 461.586 898.84 461.171 897.107 460.627 895.4 459.953 893.77 459.124 892.193 458.191 890.744 457.102 889.347 455.936 888.08 454.64 886.916 453.266 885.83 451.815 884.899 450.234 884.071 448.627 883.372 446.943 882.803 445.18 882.415 443.34 882.183 441.5 882.105ZM441.526 870 441.889 870.052 442.226 870.207 442.537 870.44 445.362 873.233 448.809 871.242 449.146 871.112 449.56 871.086 449.923 871.112 450.26 871.293 450.571 871.5 450.804 871.811 452.8 875.277 456.636 874.242 457.024 874.19 457.387 874.242 457.75 874.371 458.061 874.604 458.294 874.914 458.45 875.277 459.461 879.105 463.452 879.105 463.918 879.182 464.307 879.389 464.618 879.7 464.851 880.113 464.903 880.579 464.903 884.536 468.739 885.597 469.179 885.778 469.516 886.088 469.75 886.476 469.827 886.916 469.801 887.382 468.739 891.21 472.186 893.227 472.497 893.46 472.73 893.77 472.886 894.107 472.937 894.495 472.886 894.857 472.73 895.219 470.734 898.659 473.559 901.478 473.793 901.763 473.922 902.151 474 902.513 473.922 902.901 473.793 903.263 473.559 903.573 470.734 906.393 472.73 909.807 472.886 910.169 472.911 910.531 472.886 910.919 472.73 911.281 472.497 911.566 472.186 911.825 468.713 913.816 469.776 917.618 469.827 918.11 469.724 918.575 469.49 918.938 469.154 919.248 468.713 919.455 464.877 920.464 464.877 924.421 464.799 924.912 464.592 925.3 464.281 925.637 463.892 925.818 463.426 925.921 459.435 925.921 458.424 929.749 458.242 930.086 458.009 930.396 457.698 930.629 457.361 930.784 456.998 930.836 456.61 930.784 452.774 929.749 450.752 933.189 450.519 933.5 450.208 933.733 449.871 933.888 449.508 933.94 449.12 933.888 448.757 933.707 445.31 931.741 442.485 934.56 442.2 934.793 441.837 934.922 441.474 935 441.085 934.922 440.723 934.793 440.437 934.56 437.612 931.741 434.166 933.707 433.803 933.862 433.44 933.914 433.077 933.862 432.714 933.707 432.403 933.474 432.144 933.164 430.2 929.723 426.339 930.758 425.872 930.81 425.431 930.732 425.043 930.499 424.732 930.163 424.524 929.723 423.488 925.87 419.548 925.87 419.056 925.792 418.667 925.585 418.33 925.275 418.149 924.887 418.045 924.395 418.045 920.438 414.209 919.403 413.872 919.248 413.561 919.015 413.328 918.705 413.199 918.369 413.121 917.981 413.199 917.593 414.209 913.764 410.762 911.773 410.477 911.54 410.218 911.23 410.115 910.868 410.063 910.505 410.089 910.117 410.244 909.781 412.214 906.315 409.415 903.496 409.207 903.185 409.026 902.849 409 902.461 409.026 902.073 409.207 901.737 409.415 901.427 412.24 898.607 410.244 895.167 410.115 894.831 410.063 894.443 410.115 894.081 410.244 893.719 410.477 893.408 410.788 893.176 414.235 891.184 413.225 887.356 413.147 886.968 413.225 886.606 413.354 886.218 413.587 885.933 413.898 885.675 414.235 885.545 418.097 884.511 418.097 880.527 418.175 880.088 418.382 879.674 418.693 879.363 419.108 879.156 419.574 879.079 423.565 879.079 424.576 875.251 424.784 874.811 425.095 874.475 425.457 874.242 425.924 874.164 426.364 874.216 430.226 875.251 432.222 871.785 432.429 871.474 432.74 871.242 433.103 871.112 433.492 871.061 433.855 871.112 434.243 871.242 437.638 873.233 440.463 870.44 440.774 870.207 441.137 870.052 441.526 870Z" fill="#FFFFFF" fill-rule="evenodd"/><path d="M461.534 931 472.845 955.253 472.974 955.614 473 956.027 472.871 956.414 472.69 956.75 472.406 957.034 472.045 957.24 471.657 957.317 471.27 957.292 462.8 955.769 458.513 963.252 458.306 963.561 458.022 963.793 457.635 963.948 457.273 964 457.222 964 456.783 963.922 456.447 963.742 456.137 963.484 455.931 963.148 444 937.528 444.568 937.192 445.059 936.779 446.298 935.515 447.77 936.367 448.442 936.702 449.216 936.908 449.991 936.986 450.74 936.908 451.515 936.702 452.186 936.392 452.806 935.98 453.322 935.438 453.787 934.818 454.639 933.296 456.292 933.735 456.86 933.864 457.454 933.89 458.229 933.838 458.952 933.632 459.598 933.322 460.217 932.883 460.76 932.342 461.224 931.722 461.534 931Z" fill="#FFFFFF" fill-rule="evenodd"/><path d="M421.824 931 422.198 931.697 422.651 932.317 423.185 932.859 423.826 933.272 424.546 933.608 425.294 933.814 426.094 933.866 426.708 933.84 427.269 933.737 429.004 933.272 429.884 934.77 430.338 935.441 430.899 935.958 431.539 936.397 432.26 936.706 433.007 936.913 433.808 936.965 434.582 936.913 435.356 936.706 436.05 936.371 437.625 935.519 438.932 936.81 439.439 937.197 440 937.533 427.616 963.148 427.375 963.483 427.055 963.742 426.708 963.948 426.308 964 426.228 964 425.854 963.948 425.48 963.793 425.16 963.561 424.92 963.251 420.543 955.763 411.735 957.286 411.335 957.286 410.961 957.209 410.614 957.002 410.32 956.744 410.107 956.383 410 956.021 410.027 955.608 410.134 955.221 421.824 931Z" fill="#FFFFFF" fill-rule="evenodd"/><path d="M441.5 885 443.289 885.078 445.026 885.337 446.711 885.777 448.292 886.373 449.848 887.125 451.274 888.005 452.596 888.99 453.867 890.13 455.007 891.399 455.992 892.72 456.874 894.197 457.6 895.7 458.196 897.332 458.611 898.964 458.87 900.725 459 902.513 458.87 904.301 458.611 906.01 458.196 907.694 457.6 909.326 456.848 910.829 455.967 912.28 454.981 913.627 453.841 914.896 452.596 915.984 451.248 917.021 449.822 917.876 448.267 918.627 446.685 919.223 445 919.637 443.263 919.896 441.474 920 439.711 919.896 437.974 919.637 436.289 919.197 434.681 918.627 433.152 917.876 431.726 916.995 430.352 915.984 429.133 914.844 427.992 913.601 426.981 912.254 426.1 910.803 425.374 909.3 424.804 907.668 424.337 906.01 424.078 904.275 424 902.487 424.078 900.674 424.363 898.938 424.804 897.28 425.4 895.674 426.1 894.145 426.981 892.694 428.018 891.373 429.133 890.104 430.378 888.99 431.726 887.979 433.178 887.125 434.707 886.373 436.315 885.777 438 885.337 439.737 885.078 441.5 885Z" fill="#FFFFFF" fill-rule="evenodd"/><path d="M461.064 749.164C461.064 749.164 461.44 746 454.67 747.055 455.422 747.406 455.798 747.406 455.798 747.406 455.798 747.406 451.661 747.055 450.908 749.516 451.661 749.164 452.037 748.813 452.037 748.813 452.037 748.813 449.027 751.625 450.532 754.79 449.404 756.547 451.284 759.009 451.284 759.009 451.284 759.009 452.413 760.767 452.037 761.47 452.413 762.524 452.413 760.415 452.413 760.415 452.413 760.415 453.165 763.579 451.284 764.986 449.404 767.095 441.128 768.853 441.128 768.853 441.128 768.853 440 768.501 440.752 773.775 441.505 784.674 442.633 785.729 442.633 785.729 442.633 785.729 443.761 787.487 444.89 788.19 443.761 791.003 440 811.043 440 811.043 440 811.043 441.881 811.746 444.89 812.098 447.523 827.216 453.917 855.694 453.917 855.694 453.917 855.694 452.789 856.749 455.046 859.21 455.798 860.265 455.046 862.375 455.046 862.375 455.046 862.375 453.165 866.945 457.679 867.297 462.945 868 461.44 863.781 461.44 863.781 461.44 863.781 460.312 859.562 461.064 859.21 463.697 857.452 462.193 855.694 462.193 855.694 462.193 855.694 459.56 850.772 459.936 850.069 460.312 848.311 458.807 844.092 458.807 844.092 458.807 844.092 457.303 826.865 458.431 824.403 459.56 821.591 458.807 817.723 458.807 817.723 458.807 817.723 458.431 813.856 460.312 817.02 461.816 819.833 464.073 833.896 463.321 837.412 463.321 840.928 464.826 845.147 464.826 845.147 464.826 845.147 465.578 849.718 465.954 850.069 465.578 851.124 465.578 853.233 465.578 853.233 465.578 853.233 462.569 854.288 465.202 858.156 464.449 860.265 465.202 863.429 465.202 863.429 468.211 864.484 468.211 864.484 468.211 864.484 468.211 864.484 468.963 863.781 469.716 864.836 470.468 865.89 470.468 868 475.358 867.648 481 867.297 478.743 865.187 478.743 865.187 478.743 865.187 474.982 862.023 473.101 860.617 473.477 859.562 472.725 857.101 472.725 857.101 472.725 857.101 475.734 856.046 473.101 850.772 474.229 845.499 473.853 835.654 473.853 835.654 473.853 835.654 475.358 832.138 472.349 810.692 473.101 810.34 476.486 809.285 476.486 809.285 476.486 809.285 469.339 791.706 469.339 790.651 475.358 790.3 474.605 788.19 474.605 788.19 474.605 788.19 474.605 774.127 472.349 771.314 471.972 768.853 470.092 769.205 470.092 769.205 462.945 767.095 462.945 767.095 462.945 767.095 460.688 764.986 460.688 764.986 460.688 764.986 460.688 764.986 459.936 764.282 460.312 762.876 461.064 762.173 461.064 761.821 461.064 761.821 461.064 761.821 460.688 762.524 461.064 762.524 461.816 762.173 461.44 760.767 461.44 760.767 461.44 760.767 462.193 759.712 462.193 759.36 463.321 759.712 463.321 755.844 463.321 755.844 463.321 755.844 465.202 753.735 462.945 750.922 462.569 750.219 464.073 750.922 464.073 750.922 464.073 750.922 462.945 749.516 461.816 750.219 462.569 749.867 461.44 748.109 461.44 748.109 461.44 748.109 461.816 749.164 461.064 749.164Z" fill="#FFFFFF" fill-rule="evenodd"/><path d="M455.615 766.857C452.154 764 452.154 764 452.154 764 451 765.429 451 765.429 451 765.429 451 765.429 454.077 771.143 454.846 772.929 455.615 772.214 455.615 769.714 455.615 769.714 455.615 769.714 454.077 767.572 455.615 767.214 457.538 767.214 457.923 767.572 457.923 767.572 457.923 767.572 458.308 769.357 457.538 769.714 457.154 771.143 458.692 774 458.692 774 458.692 774 460.615 766.143 461 765.429 460.231 764.357 460.231 764.357 460.231 764.357 457.538 766.857 457.538 766.857 457.538 766.857L455.615 766.857Z" fill="#FFFFFF" fill-rule="evenodd"/><path d="M454 788.333C454 788.333 454.572 793 455.714 792.667 456 792 454.572 788 454.572 788L454 788.333Z" fill="#FFFFFF" fill-rule="evenodd"/><path d="M462.8 781.737C462.8 781.737 464 785.053 463.6 787.631 462.4 788 462.4 788 462.4 788 462.4 788 463.2 783.947 462 781.368 462.4 781 462.8 781.737 462.8 781.737Z" fill="#FFFFFF" fill-rule="evenodd"/><path d="M420.454 751.102C420.454 751.102 416.818 749 415 752.503 412.091 754.255 412.454 757.057 412.454 757.057 412.454 757.057 413.545 758.458 411.727 759.509 409.545 761.611 413.545 762.311 413.545 762.311 413.545 762.311 409.909 760.21 413.182 759.159 413.545 759.859 413.909 761.611 413.909 761.611 413.909 761.611 414.273 764.063 413.545 764.413 412.818 764.763 408.454 766.165 409.545 768.266 409.545 766.515 412.454 765.464 412.454 765.464 412.454 765.464 408.818 769.668 410.636 770.368 410.636 767.566 412.454 766.515 412.454 766.515 412.454 766.515 413.545 766.515 413.545 767.916 413.182 769.317 412.454 771.069 411.727 771.069 411 771.069 409.182 771.419 409.182 771.419 409.182 771.419 408.091 772.82 407 777.725 405.909 782.979 404.091 784.731 404.091 784.731 404.091 784.731 403 791.386 406.273 791.737 408.818 792.437 409.182 792.787 409.182 792.787 405.182 804.347 405.182 804.347 405.182 804.347 405.182 804.347 405.545 805.398 407.364 805.048 406.273 806.799 405.182 832.722 405.182 832.722 405.182 832.722 412.818 835.174 413.545 835.524 413.545 838.326 417.182 851.638 417.182 851.638 417.182 851.638 417.182 855.841 416.454 857.943 415.363 860.045 413.909 861.096 413.909 861.096 413.909 861.096 411.363 864.248 411.727 865.299 413.182 866 416.818 864.599 416.818 864.599 416.818 865.65 416.818 865.65 416.818 865.65 416.818 865.65 416.454 866 420.091 865.65 425.909 864.949 425.909 862.847 425.909 862.847 425.909 862.847 427 859.695 427.727 860.045 427.727 861.096 427.727 861.796 427.727 861.796 428.454 861.446 428.454 861.446 428.454 861.446 428.454 859.344 428.454 859.344 428.454 859.344 428.454 859.344 431 856.542 429.182 854.44 428.091 853.039 427.727 852.338 427.727 852.338 427.727 852.338 427 849.886 427.363 846.734 428.454 839.377 425.545 835.524 425.545 835.524 425.545 835.524 424.454 832.021 424.818 831.32 425.182 830.269 424.091 827.817 424.091 827.817 424.091 827.817 428.454 812.754 427.727 809.602 428.091 808.201 428.091 807.5 428.091 807.5 428.091 807.5 431.363 807.85 431.727 806.099 431.727 803.997 429.909 793.838 429.909 793.838 430.273 793.838 430.273 793.838 430.273 793.838 430.273 793.838 429.182 788.934 429.545 788.584 433.545 785.781 433.182 777.374 433.182 777.374 433.182 777.374 435 771.069 431.727 770.368 428.454 769.668 426.636 768.967 426.636 768.967 426.636 768.967 425.182 765.814 428.818 768.617 428.818 766.865 426.636 765.814 426.636 765.814 426.636 765.814 425.182 764.063 426.273 762.311 426.273 765.464 428.454 765.814 428.454 765.814 428.454 765.814 426.273 763.713 426.636 760.56 427 760.56 427.363 761.611 427.363 761.611 427.363 761.611 427.727 759.859 426.636 759.159 428.818 758.108 426.273 756.707 426.273 756.707 426.273 756.707 425.909 752.503 424.454 752.153 421.545 749 420.454 751.102 420.454 751.102Z" fill="#FFFFFF" fill-rule="evenodd"/><path d="M417.308 766.684C417.308 766.684 415 768.395 415 769.421 415 770.105 416.154 772.158 416.154 772.158 416.154 772.158 416.538 778.316 416.538 779 418.077 774.553 425 767.026 425 767.026 424.231 766 424.231 766 424.231 766 424.231 766 419.615 768.395 418.077 768.395 417.692 769.421 417.308 769.763 417.308 769.763L417.308 766.684Z" fill="#FFFFFF" fill-rule="evenodd"/><path d="M411.429 783.333C411.429 783.333 410 784.333 411.143 788 411.429 788 411.429 788 411.429 788 411.429 788 410 785.333 412 783 411.714 783.333 411.429 783.333 411.429 783.333Z" fill="#FFFFFF" fill-rule="evenodd"/><path d="M420.5 790 420 794 421 794 421 790 420.5 790Z" fill="#FFFFFF" fill-rule="evenodd"/><path d="M420.444 843C420.444 843 420 852 421.778 853.875 423.555 854.625 423.555 855 423.555 855 423.555 855 424 846.375 420.444 843Z" fill="#FFFFFF" fill-rule="evenodd"/><path d="M421.333 859C421.333 859 420 861.143 420 862 422 860.286 421.333 859 421.333 859Z" fill="#FFFFFF" fill-rule="evenodd"/><text font-family="Latha,Latha_MSFontService,sans-serif" font-weight="400" font-size="48" transform="translate(245.362 1126)">இலக்கமுறைக் <tspan font-size="48" x="-89.65" y="59">குறியொப்ப</tspan><tspan font-size="48" x="220.871" y="59">சான்</tspan><tspan font-size="48" x="342.902" y="59">றிதழ்</tspan></text><text font-family="Verdana,Verdana_MSFontService,sans-serif" font-weight="400" font-size="48" transform="matrix(1 0 0 1 228.473 1247)">(Digital Signature <tspan font-size="48" x="78.7646" y="57">Certificate)</tspan></text></g></svg>