<svg width="727" height="649" xmlns="http://www.w3.org/2000/svg" xmlns:xlink="http://www.w3.org/1999/xlink" xml:space="preserve" overflow="hidden"><defs><clipPath id="clip0"><rect x="2456" y="743" width="727" height="649"/></clipPath></defs><g clip-path="url(#clip0)" transform="translate(-2456 -743)"><path d="M2908.43 743C2764.57 743 2764.57 743 2764.57 743 2764.31 745.621 2764.31 745.621 2764.31 745.621 2764.31 746.014 2760.26 788.867 2709.87 792.93 2707 793.192 2707 793.192 2707 793.192 2707 796.206 2707 796.206 2707 796.206 2707 844.564 2717.44 890.956 2737.42 930.533 2759.74 974.435 2793.42 1008.64 2835.06 1029.21 2836.5 1030 2836.5 1030 2836.5 1030 2837.81 1029.21 2837.81 1029.21 2837.81 1029.21 2879.58 1008.64 2913.26 974.435 2935.58 930.533 2955.56 890.956 2966 844.564 2966 796.206 2966 793.192 2966 793.192 2966 793.192 2963.13 793.192 2963.13 793.192 2963.13 793.192 2912.87 788.998 2908.82 747.456 2908.69 745.621 2908.43 743 2908.43 743 2908.43 743" fill="#BCBCBE" fill-rule="evenodd"/><path d="M2834.5 1006C2799.3 987.02 2771.58 957.969 2752.11 919.75 2735.35 886.696 2725.68 847.703 2724 807.29 2756.49 800.059 2772.09 778.109 2777.9 759 2891.1 759 2891.1 759 2891.1 759 2896.91 778.109 2912.51 800.059 2945 807.29 2943.32 847.703 2933.65 886.438 2916.89 919.621 2897.42 957.84 2869.7 987.02 2834.5 1006Z" fill="#AE5E0E" fill-rule="evenodd"/><path d="M2837 759C2779.12 759 2779.12 759 2779.12 759 2773.18 778.419 2757.23 800.724 2724 808.072 2725.71 849.14 2735.6 888.633 2752.74 922.353 2772.65 961.06 2801 990.712 2837 1010L2837 759Z" fill="#AE5E0E" fill-rule="evenodd"/><path d="M2770 753.5C2770 751.567 2771.57 750 2773.5 750 2775.43 750 2777 751.567 2777 753.5 2777 755.433 2775.43 757 2773.5 757 2771.57 757 2770 755.433 2770 753.5Z" fill="#7F7F7F" fill-rule="evenodd"/><path d="M2897 753.5C2897 751.567 2898.57 750 2900.5 750 2902.43 750 2904 751.567 2904 753.5 2904 755.433 2902.43 757 2900.5 757 2898.57 757 2897 755.433 2897 753.5Z" fill="#7F7F7F" fill-rule="evenodd"/><path d="M2951 803.5C2951 801.567 2952.79 800 2955 800 2957.21 800 2959 801.567 2959 803.5 2959 805.433 2957.21 807 2955 807 2952.79 807 2951 805.433 2951 803.5Z" fill="#7F7F7F" fill-rule="evenodd"/><path d="M2713 803.5C2713 801.567 2714.57 800 2716.5 800 2718.43 800 2720 801.567 2720 803.5 2720 805.433 2718.43 807 2716.5 807 2714.57 807 2713 805.433 2713 803.5Z" fill="#7F7F7F" fill-rule="evenodd"/><path d="M2833 1017.5C2833 1015.57 2834.79 1014 2837 1014 2839.21 1014 2841 1015.57 2841 1017.5 2841 1019.43 2839.21 1021 2837 1021 2834.79 1021 2833 1019.43 2833 1017.5Z" fill="#7F7F7F" fill-rule="evenodd"/><path d="M2926 919.5C2926 917.567 2927.57 916 2929.5 916 2931.43 916 2933 917.567 2933 919.5 2933 921.433 2931.43 923 2929.5 923 2927.57 923 2926 921.433 2926 919.5Z" fill="#7F7F7F" fill-rule="evenodd"/><path d="M2740 919.5C2740 917.567 2741.57 916 2743.5 916 2745.43 916 2747 917.567 2747 919.5 2747 921.433 2745.43 923 2743.5 923 2741.57 923 2740 921.433 2740 919.5Z" fill="#7F7F7F" fill-rule="evenodd"/><path d="M2888 785.124C2888 841.876 2888 841.876 2888 841.876 2888 844.155 2886.47 846 2884.58 846 2788.33 846 2788.33 846 2788.33 846 2786.44 846 2785 844.155 2785 841.876 2785 785.883 2785 785.883 2785 785.883 2821.79 821.367 2821.79 821.367 2821.79 821.367 2822.42 829.94 2828.36 836.668 2835.56 836.668 2843.02 836.668 2849.14 829.506 2849.41 820.499 2887.73 783.713 2887.73 783.713 2887.73 783.713 2887.91 784.147 2888 784.581 2888 785.124ZM2835.56 803.245C2842.03 803.245 2847.34 808.454 2848.96 815.616 2884.85 781.109 2884.85 781.109 2884.85 781.109 2884.76 781.109 2884.67 781 2884.58 781 2788.33 781 2788.33 781 2788.33 781 2787.61 781 2786.89 781.326 2786.35 781.868 2822.06 816.267 2822.06 816.267 2822.06 816.267 2823.5 808.78 2828.99 803.245 2835.56 803.245ZM2835.65 830.265C2829.8 830.265 2826.65 825.057 2826.65 820.174 2826.65 814.205 2830.79 809.539 2836.01 809.539 2840.5 809.539 2843.83 813.012 2843.83 817.895 2843.83 821.91 2841.58 825.165 2838.88 825.165 2837.98 825.165 2837.08 824.731 2836.72 823.646 2835.83 825.165 2834.57 825.382 2833.94 825.382 2831.87 825.382 2830.52 823.538 2830.52 820.825 2830.52 817.678 2832.5 813.988 2835.38 813.988 2836.27 813.988 2837.08 814.422 2837.62 815.182 2837.8 814.531 2837.8 814.531 2837.8 814.531 2840.68 814.531 2840.68 814.531 2840.68 814.531 2839.24 820.608 2839.24 820.608 2839.24 820.608 2839.15 821.15 2838.97 821.801 2838.97 822.018 2838.97 822.561 2839.33 822.669 2839.51 822.669 2840.32 822.669 2841.76 820.825 2841.76 817.786 2841.76 813.663 2838.88 811.818 2836.01 811.818 2831.78 811.818 2828.81 815.29 2828.81 820.174 2828.81 823.972 2830.97 827.987 2835.74 827.987 2837.8 827.987 2839.87 827.119 2841.58 825.491 2841.76 825.274 2841.76 825.274 2841.76 825.274 2842.93 827.119 2842.93 827.119 2842.93 827.119 2842.66 827.227 2842.66 827.227 2842.66 827.227 2840.23 829.397 2838.16 830.265 2835.65 830.265ZM2836.72 817.678C2836.72 816.918 2836.27 816.701 2836.01 816.701 2834.75 816.701 2833.85 819.631 2833.85 821.15 2833.85 822.127 2834.21 822.669 2834.66 822.669 2835.02 822.669 2835.38 822.561 2835.74 821.584 2836.01 820.933 2836.72 818.546 2836.72 817.678Z" fill="#FFFFFF" fill-rule="evenodd"/><path d="M2836.5 891.105 2834.63 891.157 2832.85 891.415 2831.08 891.803 2829.37 892.347 2827.74 893.045 2826.21 893.873 2824.73 894.83 2823.36 895.89 2822.09 897.054 2820.9 898.321 2819.84 899.718 2818.88 901.167 2818.05 902.744 2817.35 904.374 2816.8 906.081 2816.41 907.814 2816.16 909.625 2816.08 911.487 2816.16 913.323 2816.39 915.16 2816.78 916.893 2817.35 918.6 2818.05 920.229 2818.88 921.781 2819.81 923.23 2820.87 924.627 2822.06 925.92 2823.33 927.084 2824.71 928.17 2826.19 929.101 2827.71 929.929 2829.35 930.602 2831.06 931.171 2832.82 931.584 2834.61 931.817 2836.47 931.895 2838.31 931.817 2840.13 931.584 2841.92 931.171 2843.58 930.627 2845.21 929.929 2846.76 929.127 2848.27 928.17 2849.61 927.11 2850.91 925.92 2852.1 924.627 2853.16 923.256 2854.1 921.781 2854.93 920.255 2855.63 918.626 2856.17 916.919 2856.59 915.186 2856.82 913.349 2856.92 911.513 2856.82 909.651 2856.59 907.84 2856.17 906.107 2855.63 904.4 2854.95 902.77 2854.12 901.193 2853.19 899.744 2852.1 898.347 2850.94 897.08 2849.64 895.916 2848.27 894.83 2846.81 893.898 2845.23 893.071 2843.63 892.372 2841.94 891.803 2840.18 891.415 2838.34 891.183 2836.5 891.105ZM2836.53 879 2836.89 879.052 2837.23 879.207 2837.54 879.44 2840.36 882.233 2843.81 880.241 2844.15 880.112 2844.56 880.086 2844.92 880.112 2845.26 880.293 2845.57 880.5 2845.8 880.811 2847.8 884.276 2851.64 883.242 2852.02 883.19 2852.39 883.242 2852.75 883.371 2853.06 883.604 2853.29 883.914 2853.45 884.276 2854.46 888.105 2858.45 888.105 2858.92 888.182 2859.31 888.389 2859.62 888.7 2859.85 889.113 2859.9 889.579 2859.9 893.536 2863.74 894.597 2864.18 894.778 2864.52 895.088 2864.75 895.476 2864.83 895.916 2864.8 896.382 2863.74 900.21 2867.19 902.227 2867.5 902.46 2867.73 902.77 2867.89 903.107 2867.94 903.495 2867.89 903.857 2867.73 904.219 2865.73 907.659 2868.56 910.478 2868.79 910.763 2868.92 911.151 2869 911.513 2868.92 911.901 2868.79 912.263 2868.56 912.573 2865.73 915.393 2867.73 918.807 2867.89 919.169 2867.91 919.531 2867.89 919.919 2867.73 920.281 2867.5 920.566 2867.19 920.824 2863.71 922.816 2864.78 926.618 2864.83 927.11 2864.72 927.575 2864.49 927.937 2864.15 928.248 2863.71 928.455 2859.88 929.464 2859.88 933.421 2859.8 933.912 2859.59 934.3 2859.28 934.637 2858.89 934.818 2858.43 934.921 2854.43 934.921 2853.42 938.749 2853.24 939.085 2853.01 939.396 2852.7 939.629 2852.36 939.784 2852 939.836 2851.61 939.784 2847.77 938.749 2845.75 942.189 2845.52 942.5 2845.21 942.732 2844.87 942.888 2844.51 942.939 2844.12 942.888 2843.76 942.707 2840.31 940.741 2837.48 943.56 2837.2 943.793 2836.84 943.922 2836.47 944 2836.09 943.922 2835.72 943.793 2835.44 943.56 2832.61 940.741 2829.17 942.707 2828.8 942.862 2828.44 942.914 2828.08 942.862 2827.71 942.707 2827.4 942.474 2827.14 942.163 2825.2 938.723 2821.34 939.758 2820.87 939.81 2820.43 939.732 2820.04 939.499 2819.73 939.163 2819.52 938.723 2818.49 934.869 2814.55 934.869 2814.06 934.792 2813.67 934.585 2813.33 934.274 2813.15 933.886 2813.05 933.395 2813.05 929.438 2809.21 928.403 2808.87 928.248 2808.56 928.015 2808.33 927.705 2808.2 927.368 2808.12 926.98 2808.2 926.592 2809.21 922.764 2805.76 920.773 2805.48 920.54 2805.22 920.229 2805.11 919.867 2805.06 919.505 2805.09 919.117 2805.24 918.781 2807.21 915.315 2804.41 912.496 2804.21 912.185 2804.03 911.849 2804 911.461 2804.03 911.073 2804.21 910.737 2804.41 910.427 2807.24 907.607 2805.24 904.167 2805.11 903.831 2805.06 903.443 2805.11 903.081 2805.24 902.719 2805.48 902.408 2805.79 902.175 2809.24 900.184 2808.22 896.356 2808.15 895.968 2808.22 895.606 2808.35 895.218 2808.59 894.933 2808.9 894.674 2809.24 894.545 2813.1 893.51 2813.1 889.527 2813.17 889.087 2813.38 888.674 2813.69 888.363 2814.11 888.156 2814.57 888.079 2818.57 888.079 2819.58 884.251 2819.78 883.811 2820.09 883.475 2820.46 883.242 2820.92 883.164 2821.36 883.216 2825.23 884.251 2827.22 880.785 2827.43 880.474 2827.74 880.241 2828.1 880.112 2828.49 880.06 2828.85 880.112 2829.24 880.241 2832.64 882.233 2835.46 879.44 2835.77 879.207 2836.14 879.052 2836.53 879Z" fill="#FFFFFF" fill-rule="evenodd"/><path d="M2856.53 940 2867.84 964.253 2867.97 964.615 2868 965.028 2867.87 965.415 2867.69 965.75 2867.41 966.034 2867.04 966.24 2866.66 966.318 2866.27 966.292 2857.8 964.77 2853.51 972.252 2853.31 972.562 2853.02 972.794 2852.63 972.949 2852.27 973 2852.22 973 2851.78 972.923 2851.45 972.742 2851.14 972.484 2850.93 972.149 2839 946.528 2839.57 946.193 2840.06 945.78 2841.3 944.515 2842.77 945.367 2843.44 945.702 2844.22 945.909 2844.99 945.986 2845.74 945.909 2846.51 945.702 2847.19 945.393 2847.81 944.98 2848.32 944.438 2848.79 943.819 2849.64 942.297 2851.29 942.735 2851.86 942.864 2852.45 942.89 2853.23 942.838 2853.95 942.632 2854.6 942.322 2855.22 941.884 2855.76 941.342 2856.22 940.723 2856.53 940Z" fill="#FFFFFF" fill-rule="evenodd"/><path d="M2816.82 940 2817.2 940.697 2817.65 941.317 2818.19 941.859 2818.83 942.272 2819.55 942.608 2820.29 942.815 2821.09 942.866 2821.71 942.841 2822.27 942.737 2824 942.272 2824.88 943.77 2825.34 944.441 2825.9 944.958 2826.54 945.397 2827.26 945.707 2828.01 945.913 2828.81 945.965 2829.58 945.913 2830.36 945.707 2831.05 945.371 2832.62 944.519 2833.93 945.81 2834.44 946.197 2835 946.533 2822.62 972.148 2822.38 972.484 2822.06 972.742 2821.71 972.949 2821.31 973 2821.23 973 2820.85 972.949 2820.48 972.794 2820.16 972.561 2819.92 972.251 2815.54 964.763 2806.73 966.287 2806.33 966.287 2805.96 966.209 2805.61 966.003 2805.32 965.744 2805.11 965.383 2805 965.021 2805.03 964.608 2805.13 964.221 2816.82 940Z" fill="#FFFFFF" fill-rule="evenodd"/><path d="M2836.5 894 2838.29 894.078 2840.03 894.337 2841.71 894.777 2843.29 895.373 2844.85 896.124 2846.27 897.005 2847.6 897.99 2848.87 899.13 2850.01 900.399 2850.99 901.72 2851.87 903.197 2852.6 904.7 2853.2 906.332 2853.61 907.964 2853.87 909.726 2854 911.513 2853.87 913.301 2853.61 915.01 2853.2 916.694 2852.6 918.327 2851.85 919.829 2850.97 921.28 2849.98 922.627 2848.84 923.897 2847.6 924.985 2846.25 926.021 2844.82 926.876 2843.27 927.627 2841.69 928.223 2840 928.638 2838.26 928.897 2836.47 929 2834.71 928.897 2832.97 928.638 2831.29 928.197 2829.68 927.627 2828.15 926.876 2826.73 925.995 2825.35 924.985 2824.13 923.845 2822.99 922.601 2821.98 921.254 2821.1 919.803 2820.37 918.301 2819.8 916.669 2819.34 915.01 2819.08 913.275 2819 911.487 2819.08 909.674 2819.36 907.938 2819.8 906.28 2820.4 904.674 2821.1 903.145 2821.98 901.694 2823.02 900.373 2824.13 899.104 2825.38 897.99 2826.73 896.979 2828.18 896.124 2829.71 895.373 2831.31 894.777 2833 894.337 2834.74 894.078 2836.5 894Z" fill="#FFFFFF" fill-rule="evenodd"/><text font-family="Latha,Latha_MSFontService,sans-serif" font-weight="400" font-size="48" transform="translate(2660.68 1125)">மின்னஞ்சல் <tspan font-size="48" x="-155.26" y="58">மறையாக்கச்</tspan> <tspan font-size="48" x="211.406" y="58">சான்றி</tspan><tspan font-size="48" x="386.146" y="58">தழ்</tspan></text><text font-family="Verdana,Verdana_MSFontService,sans-serif" font-weight="400" font-size="48" transform="matrix(1 0 0 1 2605.38 1246)">(Email Encryption <tspan font-size="48" x="79.6353" y="57">Certificate)</tspan></text></g></svg>