<svg width="742" height="422" xmlns="http://www.w3.org/2000/svg" xmlns:xlink="http://www.w3.org/1999/xlink" xml:space="preserve" overflow="hidden"><defs><clipPath id="clip0"><rect x="2096" y="477" width="742" height="422"/></clipPath></defs><g clip-path="url(#clip0)" transform="translate(-2096 -477)"><text fill="#FC9A05" font-family="Latha,Latha_MSFontService,sans-serif" font-weight="700" font-size="46" transform="translate(2193.72 691)">நிலையான குறியீடு<tspan font-size="46" x="523.646" y="0"> </tspan><tspan font-size="46" x="-69.3228" y="56">ஒப்பமிடல் சான்றிதழ்</tspan><tspan font-size="46" x="500.156" y="56">கள் </tspan></text><text fill="#FC9A05" font-family="Verdana,Verdana_MSFontService,sans-serif" font-weight="700" font-size="46" transform="matrix(1 0 0 1 2163.06 806)">Standard Code Signing <tspan font-size="46" x="146.094" y="55">Certificates</tspan></text><path d="M2458.5 495.623 2455.66 495.703 2452.93 496.101 2450.25 496.698 2447.64 497.533 2445.16 498.608 2442.83 499.881 2440.58 501.353 2438.49 502.985 2436.55 504.776 2434.74 506.726 2433.12 508.874 2431.66 511.103 2430.39 513.53 2429.33 516.037 2428.5 518.664 2427.91 521.33 2427.51 524.115 2427.39 526.98 2427.51 529.806 2427.87 532.631 2428.46 535.297 2429.33 537.923 2430.39 540.43 2431.66 542.818 2433.08 545.046 2434.7 547.195 2436.51 549.185 2438.45 550.975 2440.54 552.647 2442.79 554.079 2445.12 555.353 2447.61 556.387 2450.21 557.263 2452.89 557.899 2455.62 558.258 2458.46 558.377 2461.26 558.258 2464.03 557.899 2466.75 557.263 2469.28 556.427 2471.76 555.353 2474.13 554.119 2476.42 552.647 2478.47 551.015 2480.45 549.185 2482.26 547.195 2483.88 545.086 2485.3 542.818 2486.57 540.47 2487.63 537.963 2488.46 535.337 2489.09 532.671 2489.45 529.845 2489.61 527.02 2489.45 524.155 2489.09 521.369 2488.46 518.703 2487.63 516.077 2486.61 513.57 2485.34 511.143 2483.92 508.914 2482.26 506.765 2480.49 504.815 2478.51 503.025 2476.42 501.353 2474.21 499.921 2471.8 498.648 2469.36 497.573 2466.79 496.698 2464.11 496.101 2461.3 495.743 2458.5 495.623ZM2458.54 477 2459.09 477.08 2459.61 477.318 2460.08 477.677 2464.38 481.974 2469.63 478.91 2470.14 478.711 2470.78 478.671 2471.33 478.711 2471.84 478.99 2472.32 479.308 2472.67 479.786 2475.71 485.118 2481.55 483.526 2482.14 483.447 2482.7 483.526 2483.25 483.725 2483.72 484.083 2484.08 484.561 2484.32 485.118 2485.86 491.007 2491.93 491.007 2492.64 491.127 2493.24 491.445 2493.71 491.923 2494.07 492.559 2494.14 493.275 2494.14 499.364 2499.99 500.995 2500.66 501.274 2501.17 501.751 2501.53 502.348 2501.64 503.025 2501.61 503.741 2499.99 509.63 2505.24 512.734 2505.71 513.092 2506.07 513.57 2506.3 514.087 2506.38 514.684 2506.3 515.241 2506.07 515.798 2503.03 521.091 2507.33 525.428 2507.68 525.866 2507.88 526.463 2508 527.02 2507.88 527.617 2507.68 528.174 2507.33 528.652 2503.03 532.989 2506.07 538.242 2506.3 538.799 2506.34 539.356 2506.3 539.953 2506.07 540.51 2505.71 540.948 2505.24 541.346 2499.95 544.41 2501.57 550.259 2501.64 551.015 2501.49 551.732 2501.13 552.289 2500.62 552.766 2499.95 553.085 2494.11 554.636 2494.11 560.725 2493.99 561.481 2493.67 562.078 2493.2 562.595 2492.61 562.874 2491.89 563.033 2485.82 563.033 2484.28 568.922 2484 569.439 2483.64 569.917 2483.17 570.275 2482.66 570.514 2482.11 570.593 2481.51 570.514 2475.67 568.922 2472.59 574.215 2472.24 574.692 2471.76 575.05 2471.25 575.289 2470.7 575.369 2470.11 575.289 2469.55 575.01 2464.3 571.986 2460 576.324 2459.57 576.682 2459.01 576.881 2458.46 577 2457.87 576.881 2457.32 576.682 2456.88 576.324 2452.58 571.986 2447.33 575.01 2446.78 575.249 2446.22 575.329 2445.67 575.249 2445.12 575.01 2444.64 574.652 2444.25 574.175 2441.29 568.882 2435.41 570.474 2434.7 570.554 2434.03 570.434 2433.43 570.076 2432.96 569.559 2432.64 568.882 2431.07 562.953 2425.07 562.953 2424.32 562.834 2423.72 562.515 2423.21 562.038 2422.93 561.441 2422.78 560.685 2422.78 554.597 2416.93 553.005 2416.42 552.766 2415.95 552.408 2415.59 551.931 2415.39 551.413 2415.28 550.816 2415.39 550.219 2416.93 544.33 2411.68 541.266 2411.25 540.908 2410.86 540.43 2410.7 539.873 2410.62 539.316 2410.66 538.719 2410.89 538.202 2413.89 532.87 2409.63 528.532 2409.32 528.055 2409.04 527.537 2409 526.94 2409.04 526.344 2409.32 525.826 2409.63 525.349 2413.93 521.011 2410.89 515.719 2410.7 515.201 2410.62 514.605 2410.7 514.047 2410.89 513.49 2411.25 513.013 2411.72 512.655 2416.97 509.591 2415.43 503.701 2415.32 503.104 2415.43 502.547 2415.63 501.95 2415.99 501.513 2416.46 501.115 2416.97 500.916 2422.86 499.324 2422.86 493.196 2422.97 492.519 2423.29 491.883 2423.76 491.405 2424.39 491.087 2425.11 490.967 2431.18 490.967 2432.72 485.078 2433.04 484.402 2433.51 483.884 2434.07 483.526 2434.78 483.407 2435.45 483.486 2441.33 485.078 2444.37 479.746 2444.68 479.268 2445.16 478.91 2445.71 478.711 2446.3 478.632 2446.86 478.711 2447.45 478.91 2452.62 481.974 2456.92 477.677 2457.39 477.318 2457.95 477.08 2458.54 477Z" fill="#FC9A05" fill-rule="evenodd"/><path d="M2488.6 571 2505.76 608.482 2505.96 609.041 2506 609.678 2505.8 610.277 2505.53 610.795 2505.1 611.234 2504.55 611.553 2503.96 611.672 2503.38 611.632 2490.52 609.28 2484.02 620.843 2483.71 621.322 2483.28 621.681 2482.69 621.92 2482.14 622 2482.06 622 2481.39 621.88 2480.89 621.601 2480.42 621.202 2480.1 620.684 2462 581.088 2462.86 580.57 2463.61 579.932 2465.49 577.978 2467.72 579.294 2468.74 579.812 2469.91 580.131 2471.09 580.251 2472.23 580.131 2473.4 579.812 2474.42 579.334 2475.36 578.696 2476.14 577.858 2476.85 576.901 2478.14 574.549 2480.65 575.227 2481.51 575.426 2482.41 575.466 2483.59 575.386 2484.69 575.067 2485.67 574.589 2486.61 573.911 2487.43 573.073 2488.13 572.116 2488.6 571Z" fill="#FC9A05" fill-rule="evenodd"/><path d="M2428.74 571 2429.3 572.077 2429.98 573.035 2430.78 573.873 2431.74 574.512 2432.82 575.03 2433.94 575.35 2435.14 575.43 2436.06 575.39 2436.9 575.23 2439.51 574.512 2440.83 576.826 2441.51 577.864 2442.35 578.662 2443.31 579.34 2444.39 579.819 2445.51 580.138 2446.71 580.218 2447.87 580.138 2449.03 579.819 2450.07 579.3 2452.44 577.983 2454.4 579.979 2455.16 580.577 2456 581.096 2437.42 620.683 2437.06 621.202 2436.58 621.601 2436.06 621.92 2435.46 622 2435.34 622 2434.78 621.92 2434.22 621.681 2433.74 621.321 2433.38 620.843 2426.81 609.27 2413.6 611.624 2413 611.624 2412.44 611.505 2411.92 611.185 2411.48 610.786 2411.16 610.228 2411 609.669 2411.04 609.03 2411.2 608.432 2428.74 571Z" fill="#FC9A05" fill-rule="evenodd"/><path d="M2458.5 501 2461.21 501.118 2463.84 501.51 2466.39 502.177 2468.79 503.079 2471.14 504.217 2473.3 505.551 2475.3 507.041 2477.23 508.767 2478.95 510.69 2480.45 512.69 2481.78 514.927 2482.88 517.202 2483.78 519.674 2484.41 522.145 2484.8 524.813 2485 527.52 2484.8 530.227 2484.41 532.816 2483.78 535.366 2482.88 537.837 2481.74 540.113 2480.41 542.309 2478.91 544.349 2477.19 546.272 2475.3 547.919 2473.26 549.489 2471.1 550.783 2468.75 551.921 2466.35 552.823 2463.8 553.451 2461.17 553.843 2458.46 554 2455.79 553.843 2453.16 553.451 2450.61 552.784 2448.17 551.921 2445.86 550.783 2443.7 549.449 2441.62 547.919 2439.77 546.193 2438.05 544.31 2436.51 542.27 2435.18 540.073 2434.08 537.798 2433.22 535.326 2432.51 532.816 2432.12 530.187 2432 527.48 2432.12 524.734 2432.55 522.106 2433.22 519.595 2434.12 517.163 2435.18 514.848 2436.51 512.651 2438.09 510.651 2439.77 508.728 2441.66 507.041 2443.7 505.511 2445.9 504.217 2448.21 503.079 2450.65 502.177 2453.2 501.51 2455.83 501.118 2458.5 501Z" fill="#FC9A05" fill-rule="evenodd"/></g></svg>