<svg width="468" height="544" xmlns="http://www.w3.org/2000/svg" xmlns:xlink="http://www.w3.org/1999/xlink" xml:space="preserve" overflow="hidden"><defs><clipPath id="clip0"><rect x="2005" y="731" width="468" height="544"/></clipPath><clipPath id="clip1"><rect x="2150" y="772" width="169" height="169"/></clipPath><clipPath id="clip2"><rect x="2150" y="772" width="169" height="169"/></clipPath><clipPath id="clip3"><rect x="2150" y="772" width="169" height="169"/></clipPath></defs><g clip-path="url(#clip0)" transform="translate(-2005 -731)"><path d="M2307.21 731C2162.79 731 2162.79 731 2162.79 731 2162.53 733.621 2162.53 733.621 2162.53 733.621 2162.53 734.014 2158.47 776.868 2107.88 780.93 2105 781.192 2105 781.192 2105 781.192 2105 784.207 2105 784.207 2105 784.207 2105 832.564 2115.48 878.956 2135.53 918.533 2157.94 962.435 2191.75 996.639 2233.56 1017.21 2235 1018 2235 1018 2235 1018 2236.31 1017.21 2236.31 1017.21 2236.31 1017.21 2278.25 996.639 2312.06 962.435 2334.47 918.533 2354.52 878.956 2365 832.564 2365 784.207 2365 781.192 2365 781.192 2365 781.192 2362.12 781.192 2362.12 781.192 2362.12 781.192 2311.66 776.999 2307.6 735.456 2307.47 733.621 2307.21 731 2307.21 731 2307.21 731" fill="#BCBCBE" fill-rule="evenodd"/><path d="M2232.5 994C2197.3 975.097 2169.58 946.163 2150.11 908.099 2133.35 875.179 2123.68 836.344 2122 796.094 2154.49 788.893 2170.09 767.032 2175.9 748 2289.1 748 2289.1 748 2289.1 748 2294.91 767.032 2310.51 788.893 2343 796.094 2341.32 836.344 2331.65 874.922 2314.89 907.971 2295.42 946.035 2267.7 975.097 2232.5 994Z" fill="#F2D552" fill-rule="evenodd"/><path d="M2235 748C2177.12 748 2177.12 748 2177.12 748 2171.18 767.341 2155.23 789.558 2122 796.876 2123.71 837.78 2133.6 877.117 2150.74 910.703 2170.65 949.255 2199 978.789 2235 998L2235 748Z" fill="#F2D552" fill-rule="evenodd"/><path d="M2168 741.5C2168 739.567 2169.57 738 2171.5 738 2173.43 738 2175 739.567 2175 741.5 2175 743.433 2173.43 745 2171.5 745 2169.57 745 2168 743.433 2168 741.5Z" fill="#7F7F7F" fill-rule="evenodd"/><path d="M2295 741.5C2295 739.567 2296.57 738 2298.5 738 2300.43 738 2302 739.567 2302 741.5 2302 743.433 2300.43 745 2298.5 745 2296.57 745 2295 743.433 2295 741.5Z" fill="#7F7F7F" fill-rule="evenodd"/><path d="M2350 792C2350 790.343 2351.57 789 2353.5 789 2355.43 789 2357 790.343 2357 792 2357 793.657 2355.43 795 2353.5 795 2351.57 795 2350 793.657 2350 792Z" fill="#7F7F7F" fill-rule="evenodd"/><path d="M2112 792C2112 790.343 2113.57 789 2115.5 789 2117.43 789 2119 790.343 2119 792 2119 793.657 2117.43 795 2115.5 795 2113.57 795 2112 793.657 2112 792Z" fill="#7F7F7F" fill-rule="evenodd"/><path d="M2232 1006C2232 1003.79 2233.57 1002 2235.5 1002 2237.43 1002 2239 1003.79 2239 1006 2239 1008.21 2237.43 1010 2235.5 1010 2233.57 1010 2232 1008.21 2232 1006Z" fill="#7F7F7F" fill-rule="evenodd"/><path d="M2324 907.5C2324 905.567 2325.57 904 2327.5 904 2329.43 904 2331 905.567 2331 907.5 2331 909.433 2329.43 911 2327.5 911 2325.57 911 2324 909.433 2324 907.5Z" fill="#7F7F7F" fill-rule="evenodd"/><path d="M2138 907.5C2138 905.567 2139.57 904 2141.5 904 2143.43 904 2145 905.567 2145 907.5 2145 909.433 2143.43 911 2141.5 911 2139.57 911 2138 909.433 2138 907.5Z" fill="#7F7F7F" fill-rule="evenodd"/><text font-family="Latha,Latha_MSFontService,sans-serif" font-weight="400" font-size="46" transform="translate(2189.16 1122)">நேர <tspan font-size="46" x="-144.375" y="55">முத்திரையி</tspan><tspan font-size="46" x="150.677" y="55">டல்</tspan></text><text font-family="Verdana,Verdana_MSFontService,sans-serif" font-weight="400" font-size="46" transform="matrix(1 0 0 1 2043.06 1237)">(Time Stamping)</text><g clip-path="url(#clip1)"><g clip-path="url(#clip2)"><g clip-path="url(#clip3)"><path d="M2211.1 794.88 2186.14 819.84 2177.04 810.74 2174.44 813.6 2186.14 825.3 2213.7 797.74Z" fill="#FFFFFF"/><path d="M2231.38 809.44C2231.38 788.9 2214.74 772 2194.2 772 2173.4 772 2156.76 788.9 2156.76 809.44 2156.76 829.98 2173.4 846.88 2194.2 846.88 2214.74 846.88 2231.38 829.98 2231.38 809.44ZM2160.66 809.44C2160.66 790.98 2175.48 775.9 2194.2 775.9 2212.92 775.9 2227.74 790.98 2227.74 809.44 2227.74 827.9 2212.66 842.98 2194.2 842.98 2175.74 842.98 2160.66 827.9 2160.66 809.44Z" fill="#FFFFFF"/><path d="M2300.02 801.38C2295.86 798.78 2291.18 797.48 2286.5 797.48 2277.4 797.48 2269.08 802.16 2264.4 809.96 2260.76 815.68 2259.98 822.44 2261.02 828.42L2256.34 835.96 2256.34 836.48C2256.08 842.46 2253.48 850 2249.06 857.02 2243.34 866.38 2235.8 873.14 2229.56 874.7 2222.02 870.8 2214.48 867.42 2206.68 864.3 2203.82 863.26 2200.18 864.04 2198.1 866.64 2194.46 871.06 2190.82 875.48 2187.18 879.9 2186.4 880.94 2186.14 881.98 2186.14 883.28 2186.4 884.58 2187.18 885.62 2188.22 886.14L2193.42 889.26 2191.6 894.46C2191.08 896.28 2191.86 897.84 2193.42 898.88L2261.02 940.22C2261.54 940.48 2262.32 940.74 2263.1 940.74 2264.14 940.74 2264.92 940.48 2265.7 939.7L2270.12 936.06 2275.32 939.18C2276.1 939.7 2276.88 939.7 2277.66 939.7 2279.48 939.7 2281.04 938.66 2281.56 937.1 2283.64 931.9 2285.98 926.7 2288.32 921.24 2289.62 918.12 2288.84 914.48 2286.5 912.4 2280.26 906.94 2273.5 901.74 2266.74 896.8 2265.18 890.82 2268.04 880.68 2273.5 871.58 2277.92 864.56 2283.38 858.84 2288.58 855.72L2289.1 855.46 2293.52 848.18C2299.76 846.36 2305.22 842.46 2308.6 836.74 2315.88 825.04 2312.24 808.92 2300.02 801.38ZM2263.1 937.1C2263.1 937.1 2263.1 937.1 2263.1 937.1L2195.24 895.76 2196.8 891.6 2214.74 902.52 2266.48 934.24 2263.1 937.1ZM2284.68 920.2C2282.34 925.66 2280 930.86 2277.92 936.06 2277.92 936.32 2277.66 936.32 2277.66 936.32L2190.3 883.02C2190.04 883.02 2190.04 882.76 2190.04 882.76 2190.04 882.76 2190.04 882.5 2190.04 882.5 2193.68 878.08 2197.32 873.66 2201.22 869.24 2202 868.46 2203.04 867.94 2204.34 867.94 2204.86 867.94 2205.12 867.94 2205.64 868.2 2234.24 879.9 2260.76 896.02 2283.9 916.3 2284.94 916.82 2285.2 918.64 2284.68 920.2ZM2285.98 853.12C2280.26 856.5 2274.54 862.74 2270.12 870.02 2264.92 878.6 2262.06 887.44 2262.32 894.46 2253.22 888.22 2243.86 882.5 2234.24 877.3 2240.48 874.44 2247.24 867.68 2252.44 859.36 2256.86 851.82 2259.72 844.02 2260.24 837.52L2262.58 833.88C2264.66 838.82 2268.04 843.24 2272.98 846.1 2277.14 848.7 2281.82 850 2286.5 850 2287.28 850 2287.8 850 2288.58 850L2285.98 853.12ZM2305.22 835.18C2301.06 841.68 2294.04 845.84 2286.24 845.84 2282.08 845.84 2278.18 844.8 2274.8 842.46 2264.4 835.96 2261.02 822.44 2267.52 812.04 2271.68 805.54 2278.7 801.38 2286.5 801.38 2290.66 801.38 2294.56 802.42 2297.94 804.76 2308.34 811.26 2311.46 824.78 2305.22 835.18Z" fill="#FFFFFF"/><path d="M2282.08 805.54C2276.88 806.84 2272.46 809.96 2269.6 814.64L2272.98 816.72C2275.32 813.08 2278.7 810.48 2283.12 809.44 2287.28 808.4 2291.7 809.18 2295.34 811.26L2297.42 807.88C2292.74 805.02 2287.28 804.24 2282.08 805.54Z" fill="#FFFFFF"/></g></g></g></g></svg>