<svg width="606" height="654" xmlns="http://www.w3.org/2000/svg" xmlns:xlink="http://www.w3.org/1999/xlink" xml:space="preserve" overflow="hidden"><defs><clipPath id="clip0"><rect x="754" y="735" width="606" height="654"/></clipPath><clipPath id="clip1"><rect x="1002" y="761" width="104" height="104"/></clipPath><clipPath id="clip2"><rect x="1002" y="761" width="104" height="104"/></clipPath><clipPath id="clip3"><rect x="1002" y="761" width="104" height="104"/></clipPath></defs><g clip-path="url(#clip0)" transform="translate(-754 -735)"><path d="M1126.21 735C981.792 735 981.792 735 981.792 735 981.53 737.621 981.53 737.621 981.53 737.621 981.53 738.014 977.468 780.868 926.883 784.93 924 785.192 924 785.192 924 785.192 924 788.206 924 788.206 924 788.206 924 836.564 934.484 882.956 954.534 922.533 976.944 966.435 1010.75 1000.64 1052.56 1021.21 1054 1022 1054 1022 1054 1022 1055.31 1021.21 1055.31 1021.21 1055.31 1021.21 1097.25 1000.64 1131.06 966.435 1153.47 922.533 1173.52 882.956 1184 836.564 1184 788.206 1184 785.192 1184 785.192 1184 785.192 1181.12 785.192 1181.12 785.192 1181.12 785.192 1130.66 780.999 1126.6 739.456 1126.47 737.621 1126.21 735 1126.21 735 1126.21 735" fill="#BCBCBE" fill-rule="evenodd"/><path d="M1052.5 998C1017.3 979.02 989.578 949.969 970.108 911.75 953.346 878.696 943.676 839.703 942 799.29 974.492 792.059 990.094 770.109 995.896 751 1109.1 751 1109.1 751 1109.1 751 1114.91 770.109 1130.51 792.059 1163 799.29 1161.32 839.703 1151.65 878.438 1134.89 911.621 1115.42 949.839 1087.7 979.02 1052.5 998Z" fill="#FC9A05" fill-rule="evenodd"/><path d="M1054 751C996.628 751 996.628 751 996.628 751 990.747 770.419 974.933 792.724 942 800.072 943.699 841.14 953.5 880.633 970.49 914.353 990.224 953.06 1018.32 982.713 1054 1002L1054 751Z" fill="#FC9A05" fill-rule="evenodd"/><path d="M988 745.5C988 743.567 989.567 742 991.5 742 993.433 742 995 743.567 995 745.5 995 747.433 993.433 749 991.5 749 989.567 749 988 747.433 988 745.5Z" fill="#7F7F7F" fill-rule="evenodd"/><path d="M1114 745.5C1114 743.567 1115.57 742 1117.5 742 1119.43 742 1121 743.567 1121 745.5 1121 747.433 1119.43 749 1117.5 749 1115.57 749 1114 747.433 1114 745.5Z" fill="#7F7F7F" fill-rule="evenodd"/><path d="M1169 795.5C1169 793.567 1170.57 792 1172.5 792 1174.43 792 1176 793.567 1176 795.5 1176 797.433 1174.43 799 1172.5 799 1170.57 799 1169 797.433 1169 795.5Z" fill="#7F7F7F" fill-rule="evenodd"/><path d="M931 795.5C931 793.567 932.567 792 934.5 792 936.433 792 938 793.567 938 795.5 938 797.433 936.433 799 934.5 799 932.567 799 931 797.433 931 795.5Z" fill="#7F7F7F" fill-rule="evenodd"/><path d="M1051 1009.5C1051 1007.57 1052.57 1006 1054.5 1006 1056.43 1006 1058 1007.57 1058 1009.5 1058 1011.43 1056.43 1013 1054.5 1013 1052.57 1013 1051 1011.43 1051 1009.5Z" fill="#7F7F7F" fill-rule="evenodd"/><path d="M1144 911.5C1144 909.567 1145.57 908 1147.5 908 1149.43 908 1151 909.567 1151 911.5 1151 913.433 1149.43 915 1147.5 915 1145.57 915 1144 913.433 1144 911.5Z" fill="#7F7F7F" fill-rule="evenodd"/><path d="M957 911.5C957 909.567 958.567 908 960.5 908 962.433 908 964 909.567 964 911.5 964 913.433 962.433 915 960.5 915 958.567 915 957 913.433 957 911.5Z" fill="#7F7F7F" fill-rule="evenodd"/><g clip-path="url(#clip1)"><g clip-path="url(#clip2)"><g clip-path="url(#clip3)"><path d="M1079.69 792.808 1028.32 792.808C1026.67 792.808 1025.33 794.136 1025.33 795.783L1025.33 805.911C1025.33 807.558 1026.67 808.886 1028.32 808.886L1079.69 808.886C1081.33 808.886 1082.66 807.558 1082.66 805.911L1082.66 795.783C1082.66 794.136 1081.32 792.808 1079.69 792.808ZM1030.71 799.862C1029.69 799.862 1028.87 799.042 1028.87 798.026 1028.87 797.013 1029.69 796.19 1030.71 796.19 1031.72 796.19 1032.54 797.013 1032.54 798.026 1032.54 799.043 1031.72 799.862 1030.71 799.862ZM1074.83 805.158 1061.85 805.158 1061.85 800.848 1074.83 800.848 1074.83 805.158Z" fill="#FFFFFF"/><path d="M1079.69 810.522 1028.32 810.522C1026.67 810.522 1025.33 811.853 1025.33 813.499L1025.33 823.627C1025.33 825.271 1026.67 826.603 1028.32 826.603L1079.69 826.603C1081.33 826.603 1082.66 825.271 1082.66 823.627L1082.66 813.499C1082.66 811.853 1081.32 810.522 1079.69 810.522ZM1030.71 817.579C1029.69 817.579 1028.87 816.761 1028.87 815.742 1028.87 814.73 1029.69 813.903 1030.71 813.903 1031.72 813.903 1032.54 814.729 1032.54 815.742 1032.54 816.76 1031.72 817.579 1030.71 817.579ZM1074.83 822.873 1061.85 822.873 1061.85 818.562 1074.83 818.562 1074.83 822.873Z" fill="#FFFFFF"/><path d="M1079.69 828.237 1028.32 828.237C1026.67 828.237 1025.33 829.568 1025.33 831.213L1025.33 841.341C1025.33 842.986 1026.67 844.318 1028.32 844.318L1079.69 844.318C1081.33 844.318 1082.66 842.986 1082.66 841.341L1082.66 831.213C1082.66 829.568 1081.32 828.237 1079.69 828.237ZM1030.71 835.292C1029.69 835.292 1028.87 834.477 1028.87 833.455 1028.87 832.441 1029.69 831.621 1030.71 831.621 1031.72 831.621 1032.54 832.44 1032.54 833.455 1032.54 834.477 1031.72 835.292 1030.71 835.292ZM1074.83 840.587 1061.85 840.587 1061.85 836.276 1074.83 836.276 1074.83 840.587Z" fill="#FFFFFF"/><path d="M1062.87 854.005 1057.4 854.005 1057.4 846.04 1050.61 846.04 1050.61 854.005 1045.12 854.005 1045.12 856.103 1025.96 856.103 1025.96 862.898 1045.12 862.898 1045.12 865 1062.87 865 1062.87 862.898 1082.03 862.898 1082.03 856.103 1062.87 856.103Z" fill="#FFFFFF"/><path d="M1084.32 776.47C1083.59 776.408 1082.91 776.033 1082.47 775.441 1078.35 769.879 1071.75 766.448 1064.72 766.448 1064.28 766.448 1063.84 766.462 1063.4 766.488 1062.79 766.525 1062.19 766.343 1061.71 765.975 1057.43 762.748 1052.24 761 1046.82 761 1037.09 761 1028.46 766.632 1024.43 775.161 1024.06 775.942 1023.32 776.485 1022.47 776.605 1011.75 778.113 1003.48 787.341 1003.48 798.464 1003.48 809.069 1011 817.946 1020.98 820.057L1020.98 813.499C1020.98 812.682 1021.14 811.902 1021.39 811.169 1016.05 809.413 1012.17 804.386 1012.17 798.465 1012.17 791.09 1018.18 785.089 1025.55 785.089 1025.92 785.089 1026.29 785.119 1026.66 785.148 1028.78 785.313 1030.7 783.934 1031.22 781.872 1033.02 774.704 1039.43 769.698 1046.82 769.698 1051.03 769.698 1055.03 771.326 1058.06 774.284 1059.09 775.294 1060.56 775.725 1061.98 775.429 1062.88 775.241 1063.8 775.145 1064.72 775.145 1069.89 775.145 1074.5 778.048 1076.76 782.721 1077.55 784.365 1079.29 785.343 1081.1 785.156 1081.56 785.11 1082.01 785.088 1082.45 785.088 1089.82 785.088 1095.82 791.089 1095.82 798.464 1095.82 804.386 1091.95 809.412 1086.61 811.168 1086.86 811.902 1087.01 812.681 1087.01 813.498L1087.01 820.055C1097 817.945 1104.52 809.069 1104.52 798.463 1104.52 786.924 1095.62 777.424 1084.32 776.47Z" fill="#FFFFFF"/></g></g></g><path d="M1054 897.105 1052.16 897.157 1050.4 897.416 1048.67 897.804 1046.98 898.347 1045.37 899.045 1043.87 899.873 1042.41 900.83 1041.06 901.89 1039.81 903.054 1038.64 904.322 1037.59 905.718 1036.65 907.167 1035.83 908.745 1035.14 910.374 1034.61 912.081 1034.22 913.814 1033.97 915.625 1033.89 917.487 1033.97 919.324 1034.2 921.16 1034.58 922.893 1035.14 924.6 1035.83 926.23 1036.65 927.782 1037.57 929.23 1038.61 930.627 1039.79 931.92 1041.04 933.084 1042.39 934.17 1043.84 935.102 1045.35 935.929 1046.96 936.602 1048.64 937.171 1050.38 937.585 1052.14 937.818 1053.97 937.895 1055.79 937.818 1057.57 937.585 1059.33 937.171 1060.97 936.628 1062.57 935.929 1064.11 935.128 1065.59 934.17 1066.91 933.11 1068.19 931.92 1069.36 930.627 1070.41 929.256 1071.33 927.782 1072.14 926.256 1072.83 924.626 1073.37 922.919 1073.78 921.186 1074.01 919.35 1074.11 917.513 1074.01 915.651 1073.78 913.84 1073.37 912.107 1072.83 910.4 1072.17 908.771 1071.35 907.193 1070.43 905.744 1069.36 904.348 1068.21 903.08 1066.94 901.916 1065.59 900.83 1064.16 899.899 1062.6 899.071 1061.02 898.373 1059.36 897.804 1057.62 897.416 1055.81 897.183 1054 897.105ZM1054.03 885 1054.38 885.052 1054.71 885.207 1055.02 885.44 1057.8 888.233 1061.2 886.242 1061.53 886.112 1061.94 886.087 1062.29 886.112 1062.63 886.293 1062.93 886.5 1063.16 886.811 1065.13 890.277 1068.9 889.242 1069.29 889.19 1069.64 889.242 1070 889.371 1070.31 889.604 1070.54 889.915 1070.69 890.277 1071.68 894.105 1075.61 894.105 1076.07 894.182 1076.46 894.389 1076.76 894.7 1076.99 895.114 1077.04 895.579 1077.04 899.537 1080.82 900.597 1081.25 900.778 1081.59 901.089 1081.81 901.477 1081.89 901.916 1081.87 902.382 1080.82 906.21 1084.21 908.227 1084.52 908.46 1084.75 908.771 1084.9 909.107 1084.95 909.495 1084.9 909.857 1084.75 910.219 1082.78 913.659 1085.57 916.478 1085.8 916.763 1085.92 917.151 1086 917.513 1085.92 917.901 1085.8 918.263 1085.57 918.574 1082.78 921.393 1084.75 924.807 1084.9 925.169 1084.93 925.531 1084.9 925.919 1084.75 926.281 1084.52 926.566 1084.21 926.825 1080.79 928.816 1081.84 932.619 1081.89 933.11 1081.79 933.576 1081.56 933.938 1081.23 934.248 1080.79 934.455 1077.02 935.464 1077.02 939.421 1076.94 939.913 1076.74 940.301 1076.43 940.637 1076.05 940.818 1075.59 940.921 1071.66 940.921 1070.66 944.749 1070.48 945.086 1070.26 945.396 1069.95 945.629 1069.62 945.784 1069.26 945.836 1068.88 945.784 1065.1 944.749 1063.11 948.19 1062.88 948.5 1062.57 948.733 1062.24 948.888 1061.89 948.94 1061.5 948.888 1061.15 948.707 1057.75 946.741 1054.97 949.56 1054.69 949.793 1054.33 949.923 1053.97 950 1053.59 949.923 1053.23 949.793 1052.95 949.56 1050.17 946.741 1046.78 948.707 1046.42 948.862 1046.06 948.914 1045.71 948.862 1045.35 948.707 1045.04 948.474 1044.79 948.164 1042.87 944.724 1039.07 945.758 1038.61 945.81 1038.18 945.732 1037.8 945.5 1037.49 945.163 1037.29 944.724 1036.26 940.87 1032.39 940.87 1031.9 940.792 1031.52 940.585 1031.19 940.275 1031.01 939.887 1030.91 939.395 1030.91 935.438 1027.13 934.403 1026.8 934.248 1026.49 934.015 1026.26 933.705 1026.13 933.369 1026.06 932.981 1026.13 932.593 1027.13 928.765 1023.74 926.773 1023.45 926.54 1023.2 926.23 1023.1 925.868 1023.05 925.506 1023.07 925.118 1023.22 924.781 1025.16 921.315 1022.41 918.496 1022.2 918.186 1022.03 917.849 1022 917.461 1022.03 917.073 1022.2 916.737 1022.41 916.427 1025.19 913.607 1023.22 910.167 1023.1 909.831 1023.05 909.443 1023.1 909.081 1023.22 908.719 1023.45 908.408 1023.76 908.176 1027.15 906.184 1026.16 902.356 1026.08 901.968 1026.16 901.606 1026.29 901.218 1026.52 900.933 1026.82 900.675 1027.15 900.545 1030.96 899.511 1030.96 895.527 1031.03 895.088 1031.24 894.674 1031.54 894.363 1031.95 894.157 1032.41 894.079 1036.34 894.079 1037.34 890.251 1037.54 889.811 1037.85 889.475 1038.2 889.242 1038.66 889.165 1039.1 889.216 1042.9 890.251 1044.86 886.785 1045.07 886.474 1045.37 886.242 1045.73 886.112 1046.11 886.061 1046.47 886.112 1046.85 886.242 1050.2 888.233 1052.98 885.44 1053.29 885.207 1053.64 885.052 1054.03 885Z" fill="#FFFFFF" fill-rule="evenodd"/><path d="M1073.53 946 1084.84 970.253 1084.97 970.615 1085 971.027 1084.87 971.414 1084.69 971.75 1084.41 972.034 1084.04 972.24 1083.66 972.317 1083.27 972.292 1074.8 970.769 1070.51 978.252 1070.31 978.561 1070.02 978.794 1069.63 978.948 1069.27 979 1069.22 979 1068.78 978.923 1068.45 978.742 1068.14 978.484 1067.93 978.149 1056 952.528 1056.57 952.192 1057.06 951.78 1058.3 950.515 1059.77 951.367 1060.44 951.702 1061.22 951.909 1061.99 951.986 1062.74 951.909 1063.51 951.702 1064.19 951.393 1064.81 950.98 1065.32 950.438 1065.79 949.819 1066.64 948.296 1068.29 948.735 1068.86 948.864 1069.45 948.89 1070.23 948.838 1070.95 948.632 1071.6 948.322 1072.22 947.883 1072.76 947.342 1073.22 946.722 1073.53 946Z" fill="#FFFFFF" fill-rule="evenodd"/><path d="M1034.43 946 1034.79 946.697 1035.23 947.317 1035.75 947.859 1036.36 948.272 1037.06 948.608 1037.78 948.815 1038.56 948.866 1039.15 948.84 1039.69 948.737 1041.37 948.272 1042.22 949.77 1042.66 950.441 1043.2 950.958 1043.82 951.397 1044.52 951.707 1045.24 951.913 1046.01 951.965 1046.76 951.913 1047.51 951.707 1048.18 951.371 1049.7 950.519 1050.97 951.81 1051.46 952.197 1052 952.533 1040.03 978.148 1039.8 978.484 1039.49 978.742 1039.15 978.948 1038.76 979 1038.69 979 1038.33 978.948 1037.96 978.793 1037.65 978.561 1037.42 978.251 1033.19 970.763 1024.68 972.286 1024.29 972.286 1023.93 972.209 1023.59 972.002 1023.31 971.744 1023.1 971.383 1023 971.021 1023.03 970.608 1023.13 970.221 1034.43 946Z" fill="#FFFFFF" fill-rule="evenodd"/><path d="M1054 900 1055.84 900.078 1057.63 900.337 1059.36 900.777 1060.99 901.373 1062.59 902.124 1064.05 903.005 1065.41 903.99 1066.72 905.129 1067.89 906.399 1068.91 907.72 1069.81 909.197 1070.56 910.699 1071.17 912.332 1071.6 913.964 1071.87 915.725 1072 917.513 1071.87 919.3 1071.6 921.01 1071.17 922.694 1070.56 924.326 1069.79 925.829 1068.88 927.28 1067.87 928.627 1066.69 929.896 1065.41 930.984 1064.03 932.021 1062.56 932.876 1060.96 933.627 1059.33 934.223 1057.6 934.637 1055.81 934.896 1053.97 935 1052.16 934.896 1050.37 934.637 1048.64 934.197 1046.99 933.627 1045.41 932.876 1043.95 931.995 1042.53 930.984 1041.28 929.845 1040.11 928.601 1039.07 927.254 1038.16 925.803 1037.41 924.3 1036.83 922.668 1036.35 921.01 1036.08 919.275 1036 917.487 1036.08 915.674 1036.37 913.938 1036.83 912.28 1037.44 910.674 1038.16 909.145 1039.07 907.694 1040.13 906.373 1041.28 905.104 1042.56 903.99 1043.95 902.979 1045.44 902.124 1047.01 901.373 1048.67 900.777 1050.4 900.337 1052.19 900.078 1054 900Z" fill="#FFFFFF" fill-rule="evenodd"/><text font-family="Latha,Latha_MSFontService,sans-serif" font-weight="400" font-size="48" transform="translate(861.914 1126)">போக்குவரத்து <tspan font-size="48" x="-72.4625" y="58">அடுக்கு </tspan>பாதுகா<tspan font-size="48" x="334.308" y="58">ப்புச்</tspan><tspan font-size="48" x="440.298" y="58"> </tspan><tspan font-size="48" x="53.2812" y="116">சான்றிதழ்</tspan></text><text font-family="Verdana,Verdana_MSFontService,sans-serif" font-weight="400" font-size="48" transform="matrix(1 0 0 1 847.316 1304)">(TLS Certificate)</text></g></svg>