<svg width="2767" height="1256" xmlns="http://www.w3.org/2000/svg" xmlns:xlink="http://www.w3.org/1999/xlink" xml:space="preserve" overflow="hidden"><defs><clipPath id="clip0"><rect x="143" y="388" width="2767" height="1256"/></clipPath></defs><g clip-path="url(#clip0)" transform="translate(-143 -388)"><path d="M143 714.167C143 705.79 149.791 699 158.167 699L724.833 699C733.209 699 740 705.79 740 714.167L740 774.833C740 783.209 733.209 790 724.833 790L158.167 790C149.791 790 143 783.209 143 774.833Z" fill="#01919A" fill-rule="evenodd"/><text fill="#FFFFFF" font-family="Latha,Latha_MSFontService,sans-serif" font-weight="400" font-size="48" transform="translate(379.183 758)">தரவு</text><path d="M143 834.167C143 825.791 149.791 819 158.167 819L724.833 819C733.209 819 740 825.791 740 834.167L740 894.833C740 903.21 733.209 910.001 724.833 910.001L158.167 910.001C149.791 910.001 143 903.21 143 894.833Z" fill="#01919A" fill-rule="evenodd"/><text fill="#FFFFFF" font-family="Latha,Latha_MSFontService,sans-serif" font-weight="400" font-size="48" transform="translate(180.954 878)">இயக்க நேரச் <tspan font-size="48" x="372.969" y="0">சூ</tspan><tspan font-size="48" x="421.667" y="0">ழல்</tspan></text><path d="M143 954.167C143 945.791 149.791 939 158.167 939L724.833 939C733.209 939 740 945.791 740 954.167L740 1014.83C740 1023.21 733.209 1030 724.833 1030L158.167 1030C149.791 1030 143 1023.21 143 1014.83Z" fill="#01919A" fill-rule="evenodd"/><text fill="#FFFFFF" font-family="Latha,Latha_MSFontService,sans-serif" font-weight="400" font-size="48" transform="translate(334.496 998)">நடுநிரல்</text><path d="M143 1074.17C143 1065.79 149.791 1059 158.167 1059L724.833 1059C733.209 1059 740 1065.79 740 1074.17L740 1134.83C740 1143.21 733.209 1150 724.833 1150L158.167 1150C149.791 1150 143 1143.21 143 1134.83Z" fill="#01919A" fill-rule="evenodd"/><text fill="#FFFFFF" font-family="Latha,Latha_MSFontService,sans-serif" font-weight="400" font-size="48" transform="translate(272.334 1118)">இயங்குதளம்</text><path d="M143 594.167C143 585.79 149.791 579 158.167 579L724.833 579C733.209 579 740 585.79 740 594.167L740 654.833C740 663.209 733.209 670 724.833 670L158.167 670C149.791 670 143 663.209 143 654.833Z" fill="#01919A" fill-rule="evenodd"/><text fill="#FFFFFF" font-family="Latha,Latha_MSFontService,sans-serif" font-weight="400" font-size="48" transform="translate(186.11 638)">பயன்பாடு <tspan font-size="48" x="284.167" y="0">/ </tspan><tspan font-size="48" x="324.271" y="0">செய</tspan><tspan font-size="48" x="448.594" y="0">லி</tspan></text><path d="M143 1194.17C143 1185.79 149.791 1179 158.167 1179L724.833 1179C733.209 1179 740 1185.79 740 1194.17L740 1254.83C740 1263.21 733.209 1270 724.833 1270L158.167 1270C149.791 1270 143 1263.21 143 1254.83Z" fill="#DC7476" fill-rule="evenodd"/><text fill="#FFFFFF" font-family="Latha,Latha_MSFontService,sans-serif" font-weight="400" font-size="48" transform="translate(240.824 1238)">மெய்நிகராக்கம்</text><path d="M143 1314.17C143 1305.79 149.791 1299 158.167 1299L724.833 1299C733.209 1299 740 1305.79 740 1314.17L740 1374.83C740 1383.21 733.209 1390 724.833 1390L158.167 1390C149.791 1390 143 1383.21 143 1374.83Z" fill="#DC7476" fill-rule="evenodd"/><text fill="#FFFFFF" font-family="Latha,Latha_MSFontService,sans-serif" font-weight="400" font-size="48" transform="translate(282.36 1358)">சேவையகம்</text><path d="M143 1434.17C143 1425.79 149.791 1419 158.167 1419L724.833 1419C733.209 1419 740 1425.79 740 1434.17L740 1494.83C740 1503.21 733.209 1510 724.833 1510L158.167 1510C149.791 1510 143 1503.21 143 1494.83Z" fill="#DC7476" fill-rule="evenodd"/><text fill="#FFFFFF" font-family="Latha,Latha_MSFontService,sans-serif" font-weight="400" font-size="48" transform="translate(299.261 1478)">சேமிப்பகம்</text><path d="M143 1554.17C143 1545.79 149.791 1539 158.167 1539L724.833 1539C733.209 1539 740 1545.79 740 1554.17L740 1614.83C740 1623.21 733.209 1630 724.833 1630L158.167 1630C149.791 1630 143 1623.21 143 1614.83Z" fill="#DC7476" fill-rule="evenodd"/><text fill="#FFFFFF" font-family="Latha,Latha_MSFontService,sans-serif" font-weight="400" font-size="48" transform="translate(303.845 1598)">பிணையம்</text><path d="M792 714.167C792 705.79 798.791 699 807.167 699L1374.83 699C1383.21 699 1390 705.79 1390 714.167L1390 774.833C1390 783.209 1383.21 790 1374.83 790L807.167 790C798.791 790 792 783.209 792 774.833Z" fill="#01919A" fill-rule="evenodd"/><text fill="#FFFFFF" font-family="Latha,Latha_MSFontService,sans-serif" font-weight="400" font-size="48" transform="translate(1028.8 758)">தரவு</text><path d="M792 594.167C792 585.79 798.791 579 807.167 579L1374.83 579C1383.21 579 1390 585.79 1390 594.167L1390 654.833C1390 663.209 1383.21 670 1374.83 670L807.167 670C798.791 670 792 663.209 792 654.833Z" fill="#01919A" fill-rule="evenodd"/><text fill="#FFFFFF" font-family="Latha,Latha_MSFontService,sans-serif" font-weight="400" font-size="48" transform="translate(835.722 638)">பயன்பாடு <tspan font-size="48" x="284.167" y="0">/ </tspan><tspan font-size="48" x="324.271" y="0">செய</tspan><tspan font-size="48" x="448.594" y="0">லி</tspan></text><path d="M792 834.167C792 825.791 798.791 819 807.167 819L1374.83 819C1383.21 819 1390 825.791 1390 834.167L1390 894.833C1390 903.209 1383.21 910 1374.83 910L807.167 910C798.791 910 792 903.209 792 894.833Z" fill="#DC7476" fill-rule="evenodd"/><text fill="#FFFFFF" font-family="Latha,Latha_MSFontService,sans-serif" font-weight="400" font-size="48" transform="translate(830.566 878)">இயக்க <tspan font-size="48" x="205.677" y="0">நேரச்</tspan> <tspan font-size="48" x="372.969" y="0">சூ</tspan><tspan font-size="48" x="421.667" y="0">ழல்</tspan></text><path d="M792 954.167C792 945.791 798.791 939 807.167 939L1374.83 939C1383.21 939 1390 945.791 1390 954.167L1390 1014.83C1390 1023.21 1383.21 1030 1374.83 1030L807.167 1030C798.791 1030 792 1023.21 792 1014.83Z" fill="#DC7476" fill-rule="evenodd"/><text fill="#FFFFFF" font-family="Latha,Latha_MSFontService,sans-serif" font-weight="400" font-size="48" transform="translate(984.108 998)">நடுநிரல்</text><path d="M792 1074.17C792 1065.79 798.791 1059 807.167 1059L1374.83 1059C1383.21 1059 1390 1065.79 1390 1074.17L1390 1134.83C1390 1143.21 1383.21 1150 1374.83 1150L807.167 1150C798.791 1150 792 1143.21 792 1134.83Z" fill="#DC7476" fill-rule="evenodd"/><text fill="#FFFFFF" font-family="Latha,Latha_MSFontService,sans-serif" font-weight="400" font-size="48" transform="translate(921.946 1118)">இயங்குதளம்</text><path d="M792 1194.17C792 1185.79 798.791 1179 807.167 1179L1374.83 1179C1383.21 1179 1390 1185.79 1390 1194.17L1390 1254.83C1390 1263.21 1383.21 1270 1374.83 1270L807.167 1270C798.791 1270 792 1263.21 792 1254.83Z" fill="#DC7476" fill-rule="evenodd"/><text fill="#FFFFFF" font-family="Latha,Latha_MSFontService,sans-serif" font-weight="400" font-size="48" transform="translate(890.436 1238)">மெய்நிகராக்கம்</text><path d="M792 1314.17C792 1305.79 798.791 1299 807.167 1299L1374.83 1299C1383.21 1299 1390 1305.79 1390 1314.17L1390 1374.83C1390 1383.21 1383.21 1390 1374.83 1390L807.167 1390C798.791 1390 792 1383.21 792 1374.83Z" fill="#DC7476" fill-rule="evenodd"/><text fill="#FFFFFF" font-family="Latha,Latha_MSFontService,sans-serif" font-weight="400" font-size="48" transform="translate(931.972 1358)">சேவையகம்</text><path d="M792 1434.17C792 1425.79 798.791 1419 807.167 1419L1374.83 1419C1383.21 1419 1390 1425.79 1390 1434.17L1390 1494.83C1390 1503.21 1383.21 1510 1374.83 1510L807.167 1510C798.791 1510 792 1503.21 792 1494.83Z" fill="#DC7476" fill-rule="evenodd"/><text fill="#FFFFFF" font-family="Latha,Latha_MSFontService,sans-serif" font-weight="400" font-size="48" transform="translate(948.873 1478)">சேமிப்பகம்</text><path d="M792 1554.17C792 1545.79 798.791 1539 807.167 1539L1374.83 1539C1383.21 1539 1390 1545.79 1390 1554.17L1390 1614.83C1390 1623.21 1383.21 1630 1374.83 1630L807.167 1630C798.791 1630 792 1623.21 792 1614.83Z" fill="#DC7476" fill-rule="evenodd"/><text fill="#FFFFFF" font-family="Latha,Latha_MSFontService,sans-serif" font-weight="400" font-size="48" transform="translate(953.457 1598)">பிணையம்</text><path d="M1442 714.167C1442 705.79 1448.79 699 1457.17 699L2024.83 699C2033.21 699 2040 705.79 2040 714.167L2040 774.833C2040 783.209 2033.21 790 2024.83 790L1457.17 790C1448.79 790 1442 783.209 1442 774.833Z" fill="#DC7476" fill-rule="evenodd"/><text fill="#FFFFFF" font-family="Latha,Latha_MSFontService,sans-serif" font-weight="400" font-size="48" transform="translate(1678.41 758)">தரவு</text><path d="M1442 834.167C1442 825.791 1448.79 819 1457.17 819L2024.83 819C2033.21 819 2040 825.791 2040 834.167L2040 894.833C2040 903.209 2033.21 910 2024.83 910L1457.17 910C1448.79 910 1442 903.209 1442 894.833Z" fill="#DC7476" fill-rule="evenodd"/><text fill="#FFFFFF" font-family="Latha,Latha_MSFontService,sans-serif" font-weight="400" font-size="48" transform="translate(1480.18 878)">இயக்க <tspan font-size="48" x="205.677" y="0">நேரச்</tspan> <tspan font-size="48" x="372.969" y="0">சூ</tspan><tspan font-size="48" x="421.667" y="0">ழல்</tspan></text><path d="M1442 954.167C1442 945.791 1448.79 939 1457.17 939L2024.83 939C2033.21 939 2040 945.791 2040 954.167L2040 1014.83C2040 1023.21 2033.21 1030 2024.83 1030L1457.17 1030C1448.79 1030 1442 1023.21 1442 1014.83Z" fill="#DC7476" fill-rule="evenodd"/><text fill="#FFFFFF" font-family="Latha,Latha_MSFontService,sans-serif" font-weight="400" font-size="48" transform="translate(1633.72 998)">நடுநிரல்</text><path d="M1442 1074.17C1442 1065.79 1448.79 1059 1457.17 1059L2024.83 1059C2033.21 1059 2040 1065.79 2040 1074.17L2040 1134.83C2040 1143.21 2033.21 1150 2024.83 1150L1457.17 1150C1448.79 1150 1442 1143.21 1442 1134.83Z" fill="#DC7476" fill-rule="evenodd"/><text fill="#FFFFFF" font-family="Latha,Latha_MSFontService,sans-serif" font-weight="400" font-size="48" transform="translate(1571.56 1118)">இயங்குதளம்</text><path d="M1442 594.167C1442 585.79 1448.79 579 1457.17 579L2024.83 579C2033.21 579 2040 585.79 2040 594.167L2040 654.833C2040 663.209 2033.21 670 2024.83 670L1457.17 670C1448.79 670 1442 663.209 1442 654.833Z" fill="#DC7476" fill-rule="evenodd"/><text fill="#FFFFFF" font-family="Latha,Latha_MSFontService,sans-serif" font-weight="400" font-size="48" transform="translate(1485.33 638)">பயன்பாடு <tspan font-size="48" x="284.167" y="0">/ </tspan><tspan font-size="48" x="324.271" y="0">செய</tspan><tspan font-size="48" x="448.594" y="0">லி</tspan></text><path d="M1442 1194.17C1442 1185.79 1448.79 1179 1457.17 1179L2024.83 1179C2033.21 1179 2040 1185.79 2040 1194.17L2040 1254.83C2040 1263.21 2033.21 1270 2024.83 1270L1457.17 1270C1448.79 1270 1442 1263.21 1442 1254.83Z" fill="#DC7476" fill-rule="evenodd"/><text fill="#FFFFFF" font-family="Latha,Latha_MSFontService,sans-serif" font-weight="400" font-size="48" transform="translate(1540.05 1238)">மெய்நிகராக்கம்</text><path d="M1442 1314.17C1442 1305.79 1448.79 1299 1457.17 1299L2024.83 1299C2033.21 1299 2040 1305.79 2040 1314.17L2040 1374.83C2040 1383.21 2033.21 1390 2024.83 1390L1457.17 1390C1448.79 1390 1442 1383.21 1442 1374.83Z" fill="#DC7476" fill-rule="evenodd"/><text fill="#FFFFFF" font-family="Latha,Latha_MSFontService,sans-serif" font-weight="400" font-size="48" transform="translate(1581.58 1358)">சேவையகம்</text><path d="M1442 1434.17C1442 1425.79 1448.79 1419 1457.17 1419L2024.83 1419C2033.21 1419 2040 1425.79 2040 1434.17L2040 1494.83C2040 1503.21 2033.21 1510 2024.83 1510L1457.17 1510C1448.79 1510 1442 1503.21 1442 1494.83Z" fill="#DC7476" fill-rule="evenodd"/><text fill="#FFFFFF" font-family="Latha,Latha_MSFontService,sans-serif" font-weight="400" font-size="48" transform="translate(1598.49 1478)">சேமிப்பகம்</text><path d="M1442 1554.17C1442 1545.79 1448.79 1539 1457.17 1539L2024.83 1539C2033.21 1539 2040 1545.79 2040 1554.17L2040 1614.83C2040 1623.21 2033.21 1630 2024.83 1630L1457.17 1630C1448.79 1630 1442 1623.21 1442 1614.83Z" fill="#DC7476" fill-rule="evenodd"/><text fill="#FFFFFF" font-family="Latha,Latha_MSFontService,sans-serif" font-weight="400" font-size="48" transform="translate(1603.07 1598)">பிணையம்</text><path d="M2300 886.667C2300 874.701 2309.7 865 2321.67 865L2875.33 865C2887.3 865 2897 874.701 2897 886.667L2897 973.333C2897 985.299 2887.3 995 2875.33 995L2321.67 995C2309.7 995 2300 985.299 2300 973.333Z" fill="#01919A" fill-rule="evenodd"/><text fill="#FFFFFF" font-family="Latha,Latha_MSFontService,sans-serif" font-weight="400" font-size="48" transform="translate(2345.84 914)">வாடிக்கையாள<tspan font-size="48" x="392.448" y="0">ரால்</tspan><tspan font-size="48" x="505.312" y="0"> </tspan><tspan font-size="48" x="-5.72925" y="59">நிர்வகிக்கப்படு</tspan><tspan font-size="48" x="368.385" y="59">கிறது</tspan></text><path d="M2300 1053.67C2300 1041.7 2309.7 1032 2321.67 1032L2888.33 1032C2900.3 1032 2910 1041.7 2910 1053.67L2910 1140.33C2910 1152.3 2900.3 1162 2888.33 1162L2321.67 1162C2309.7 1162 2300 1152.3 2300 1140.33Z" fill="#DC7476" fill-rule="evenodd"/><text fill="#FFFFFF" font-family="Latha,Latha_MSFontService,sans-serif" font-weight="400" font-size="48" transform="translate(2391.57 1081)">சேவையாளரால்<tspan font-size="48" x="426.823" y="0"> </tspan><tspan font-size="48" x="-44.9626" y="59">நிர்வகிக்கப்படு</tspan><tspan font-size="48" x="329.152" y="59">கிறது</tspan></text><path d="M1442 416.667C1442 404.701 1451.7 395 1463.67 395L2018.33 395C2030.3 395 2040 404.701 2040 416.667L2040 503.333C2040 515.299 2030.3 525 2018.33 525L1463.67 525C1451.7 525 1442 515.299 1442 503.333Z" fill="#79787A" fill-rule="evenodd"/><text fill="#FFFFFF" font-family="Latha,Latha_MSFontService,sans-serif" font-weight="400" font-size="48" transform="translate(1589.96 445)">சேவையாக <tspan font-size="48" x="-26.3541" y="59">மென்பொருள்</tspan></text><path d="M792 416.667C792 404.701 801.701 395 813.667 395L1368.33 395C1380.3 395 1390 404.701 1390 416.667L1390 503.333C1390 515.299 1380.3 525 1368.33 525L813.667 525C801.701 525 792 515.299 792 503.333Z" fill="#79787A" fill-rule="evenodd"/><text fill="#FFFFFF" font-family="Latha,Latha_MSFontService,sans-serif" font-weight="400" font-size="48" transform="translate(940.28 445)">சேவையாக <tspan font-size="48" x="1.14587" y="59">பணித்தளம்</tspan></text><path d="M143 416.667C143 404.701 152.701 395 164.667 395L718.333 395C730.3 395 740 404.701 740 416.667L740 503.333C740 515.299 730.3 525 718.333 525L164.667 525C152.701 525 143 515.299 143 503.333Z" fill="#79787A" fill-rule="evenodd"/><text fill="#FFFFFF" font-family="Latha,Latha_MSFontService,sans-serif" font-weight="400" font-size="48" transform="translate(290.679 445)">சேவையாக <tspan font-size="48" x="-51.2875" y="59">உள்கட்டமைப்பு</tspan></text></g></svg>