<?xml version="1.0" encoding="UTF-8"?>
<svg width="315.03" height="135.46" enable-background="new 0 0 841.89 595.28" overflow="visible" version="1.1" viewBox="0 0 315.03 135.46" xmlns="http://www.w3.org/2000/svg">
<path d="m134.58 48.894h5.894v33.825h-5.894zm-7.73 33.825h-8.663l-9.459-9.509h-12.728v-5.893h15.848c2.179 0 4.011-0.477 5.497-1.431 1.684-1.117 2.526-2.712 2.526-4.784 0-4.21-2.675-6.315-8.023-6.315h-19.315v27.932h-5.893v-33.825h24.267c4.358 0 7.874 0.943 10.548 2.828 3.071 2.15 4.606 5.31 4.606 9.477 0 2.845-0.896 5.293-2.687 7.344-1.659 1.919-3.915 3.259-6.768 4.02zm-46.054-27.932h-23.326v27.932h-5.893v-33.826h29.219zm-1.535 13.718h-19.315v-5.894h19.315zm-31.745 14.214-7.605-0.05-5.656-9.459h-16.058l3.555-5.893h8.936l-5.864-9.718-15.254 25.12h-7.567l18.374-30.605c0.462-0.793 1.106-1.52 1.931-2.18 0.991-0.759 1.883-1.139 2.675-1.139 0.857 0 1.749 0.363 2.674 1.089 0.792 0.627 1.436 1.37 1.931 2.229zm190.05 13.442c0.041-0.199 0.084-0.493 0.129-0.883 0.544-0.141 1.016-0.236 1.417-0.289 0.401-0.052 0.792-0.078 1.173-0.078 0.406 0 0.789 0.038 1.145 0.112 0.355 0.076 0.65 0.196 0.887 0.363 0.234 0.168 0.391 0.36 0.469 0.578 0.076 0.217 0.115 0.45 0.115 0.699 0 0.313-0.023 0.837-0.071 1.573-0.047 0.737-0.083 1.416-0.108 2.042-0.024 0.625-0.037 1.182-0.037 1.671-0.244-9e-3 -0.443-0.014-0.598-0.014-0.146 0-0.352 5e-3 -0.619 0.014l0.145-1.854 0.104-2.194c-0.159 0.122-0.278 0.208-0.357 0.258-0.08 0.05-0.169 0.096-0.27 0.14-0.1 0.043-0.208 0.083-0.329 0.122-0.12 0.038-0.354 0.105-0.7 0.2s-0.593 0.168-0.738 0.218c-0.313 0.1-0.559 0.199-0.74 0.299s-0.334 0.208-0.456 0.326c-0.122 0.117-0.208 0.235-0.259 0.353-0.059 0.146-0.088 0.297-0.088 0.456 0 0.244 0.072 0.457 0.217 0.639 0.146 0.181 0.328 0.307 0.548 0.377s0.483 0.105 0.792 0.105c0.189 0 0.389-0.014 0.598-0.04 0.208-0.026 0.486-0.095 0.836-0.205-0.064 0.175-0.137 0.444-0.219 0.809-0.33 0.063-0.6 0.103-0.809 0.119-0.207 0.016-0.404 0.023-0.59 0.023-0.621 0-1.104-0.072-1.455-0.218-0.348-0.145-0.609-0.365-0.781-0.662s-0.258-0.619-0.258-0.968c0-0.204 0.031-0.392 0.092-0.564s0.145-0.328 0.248-0.469c0.104-0.14 0.252-0.28 0.445-0.421 0.192-0.141 0.395-0.256 0.604-0.347s0.456-0.18 0.737-0.27c0.281-0.087 0.732-0.206 1.353-0.355 0.2-0.045 0.369-0.092 0.509-0.14 0.141-0.046 0.266-0.094 0.375-0.139 0.107-0.046 0.203-0.099 0.285-0.16 0.081-0.061 0.156-0.136 0.224-0.224 0.068-0.089 0.118-0.178 0.149-0.269s0.048-0.182 0.048-0.271c0-0.223-0.073-0.412-0.218-0.571-0.145-0.158-0.334-0.27-0.567-0.333s-0.509-0.095-0.825-0.095c-0.295 0-0.598 0.023-0.907 0.071-0.311 0.048-0.577 0.104-0.802 0.17s-0.507 0.165-0.843 0.296m-1.803 4.757c-9e-3 0.072-0.033 0.207-0.071 0.403-0.039 0.197-0.072 0.391-0.099 0.581-0.331 0.077-0.649 0.129-0.954 0.156-0.307 0.027-0.574 0.041-0.806 0.041-0.489 0-0.94-0.065-1.355-0.197-0.415-0.131-0.776-0.348-1.083-0.648-0.309-0.302-0.535-0.675-0.68-1.121-0.146-0.446-0.218-0.916-0.218-1.41 0-0.665 0.118-1.297 0.353-1.896 0.236-0.598 0.607-1.066 1.115-1.406 0.507-0.34 1.197-0.51 2.072-0.51 0.643 0 1.27 0.087 1.882 0.259 0.026 0.385 0.052 0.702 0.075 0.951-0.432-0.136-0.782-0.228-1.054-0.275-0.272-0.048-0.523-0.072-0.755-0.072-0.398 0-0.754 0.073-1.068 0.219-0.316 0.145-0.583 0.351-0.807 0.618-0.222 0.267-0.381 0.584-0.479 0.951-0.098 0.366-0.146 0.74-0.146 1.121 0 0.512 0.08 0.96 0.238 1.345 0.158 0.385 0.436 0.683 0.832 0.894s0.842 0.315 1.336 0.315c0.48-1e-3 1.038-0.106 1.672-0.319m-8.021 1.032 0.117-1.712 0.133-2.922 0.055-2.249 0.625 7e-3 0.611-7e-3c-0.05 0.708-0.096 1.446-0.137 2.219-0.043 0.772-0.076 1.616-0.102 2.53-0.025 0.916-0.037 1.627-0.037 2.134-0.286-9e-3 -0.49-0.014-0.613-0.014-0.113 1e-3 -0.33 6e-3 -0.652 0.014m0.313-8.363c0.014-0.426 0.021-0.748 0.021-0.965 0.249 9e-3 0.469 0.014 0.659 0.014 0.24 0 0.457-5e-3 0.652-0.014-0.01 0.141-0.023 0.462-0.041 0.965-0.244-5e-3 -0.455-7e-3 -0.632-7e-3s-0.397 2e-3 -0.659 7e-3m-5.092 8.363c0.162-2.613 0.244-4.699 0.244-6.258l-8e-3 -0.625c0.231 5e-3 0.422 7e-3 0.571 7e-3 0.172 0 0.364-2e-3 0.577-7e-3l-0.054 1.128c0.167-0.28 0.314-0.492 0.445-0.635 0.129-0.143 0.274-0.261 0.438-0.354 0.162-0.093 0.348-0.165 0.553-0.218 0.207-0.052 0.42-0.078 0.643-0.078 0.189 0 0.378 0.023 0.563 0.068 5e-3 0.299 0.021 0.634 0.047 1.006-0.28-0.077-0.531-0.116-0.753-0.116-0.268 0-0.508 0.045-0.721 0.133s-0.404 0.222-0.573 0.4c-0.17 0.18-0.31 0.394-0.418 0.643-0.091 0.199-0.16 0.457-0.207 0.774-0.048 0.318-0.085 0.895-0.112 1.732-0.018 0.611-0.027 1.26-0.027 1.943v0.455c-0.244-9e-3 -0.441-0.014-0.591-0.014-0.135 3e-3 -0.342 8e-3 -0.617 0.016m-3.762 0 0.074-1.249 0.184-4.777h-0.849c0.022-0.224 0.041-0.505 0.055-0.843h0.876c0.01-0.421 0.02-0.744 0.031-0.968 0.011-0.225 0.04-0.426 0.088-0.604 0.047-0.179 0.117-0.331 0.211-0.454 0.092-0.125 0.221-0.24 0.387-0.345 0.166-0.104 0.357-0.18 0.578-0.228 0.219-0.048 0.471-0.071 0.758-0.071 0.375 0 0.813 0.057 1.311 0.17 0.01 0.271 0.031 0.56 0.067 0.863-0.43-0.149-0.821-0.224-1.175-0.224-0.172 0-0.33 0.021-0.476 0.067-0.146 0.045-0.261 0.104-0.35 0.18-0.089 0.074-0.161 0.173-0.218 0.296s-0.095 0.267-0.116 0.435c-0.02 0.167-0.03 0.364-0.03 0.591l-6e-3 0.292h1.889c-0.023 0.196-0.043 0.478-0.062 0.843h-1.821l-0.121 3.468-0.061 2.559c-0.281-9e-3 -0.487-0.014-0.619-0.014-0.126 0-0.328 5e-3 -0.605 0.013m-10.812 0 1.236-2.337 3.152-6.162 0.367-0.775 0.789 6e-3c0.244 0 0.51-1e-3 0.795-6e-3l1.176 3.329 2.173 5.945-0.646-0.014c-0.123 0-0.365 5e-3 -0.727 0.014-0.123-0.435-0.325-1.064-0.607-1.889-0.283-0.824-0.521-1.492-0.717-2.005h-3.712l-0.983 2.032-0.869 1.861-0.697-0.014c-0.113 2e-3 -0.357 7e-3 -0.73 0.015m3.681-4.79h3.053l-1.262-3.594zm-10.68 4.79c0.162-2.613 0.244-4.699 0.244-6.258l-7e-3 -0.625c0.231 5e-3 0.421 7e-3 0.571 7e-3 0.172 0 0.364-2e-3 0.577-7e-3l-0.054 1.128c0.167-0.28 0.315-0.492 0.445-0.635 0.129-0.143 0.274-0.261 0.438-0.354s0.349-0.165 0.555-0.218c0.205-0.052 0.419-0.078 0.641-0.078 0.19 0 0.379 0.023 0.564 0.068 5e-3 0.299 0.02 0.634 0.047 1.006-0.28-0.077-0.531-0.116-0.754-0.116-0.268 0-0.507 0.045-0.72 0.133s-0.403 0.222-0.573 0.4c-0.17 0.18-0.31 0.394-0.418 0.643-0.091 0.199-0.16 0.457-0.207 0.774-0.049 0.318-0.086 0.895-0.113 1.732-0.018 0.611-0.026 1.26-0.026 1.943v0.455c-0.245-9e-3 -0.442-0.014-0.591-0.014-0.136 3e-3 -0.342 8e-3 -0.619 0.016m-4.61-7.039c0.476 0 0.929 0.068 1.358 0.204 0.431 0.136 0.803 0.352 1.118 0.646 0.315 0.295 0.554 0.666 0.717 1.114s0.245 0.922 0.245 1.421c0 0.538-0.088 1.055-0.262 1.548-0.175 0.494-0.42 0.913-0.734 1.257-0.314 0.345-0.699 0.597-1.154 0.758s-0.943 0.241-1.464 0.241c-0.485 0-0.942-0.072-1.373-0.218-0.431-0.145-0.804-0.371-1.118-0.679-0.314-0.309-0.553-0.686-0.717-1.132-0.162-0.445-0.244-0.913-0.244-1.401 0-0.739 0.149-1.404 0.448-1.995 0.299-0.592 0.738-1.033 1.318-1.325s1.201-0.439 1.862-0.439m-0.03 0.864c-0.462 0-0.886 0.115-1.271 0.347-0.388 0.23-0.674 0.578-0.859 1.043s-0.277 0.97-0.277 1.519c0 0.479 0.076 0.911 0.23 1.294 0.153 0.383 0.407 0.691 0.76 0.928 0.353 0.235 0.777 0.353 1.275 0.353 0.339 0 0.66-0.058 0.963-0.173s0.568-0.307 0.794-0.574 0.394-0.595 0.502-0.981c0.108-0.388 0.163-0.794 0.163-1.22 0-0.398-0.055-0.772-0.163-1.121s-0.274-0.629-0.499-0.839c-0.223-0.211-0.477-0.359-0.76-0.445-0.283-0.088-0.569-0.131-0.858-0.131m-7.175 6.175 0.074-1.249 0.183-4.777h-0.848c0.022-0.224 0.041-0.505 0.055-0.843h0.875c0.01-0.421 0.02-0.744 0.031-0.968 0.012-0.225 0.041-0.426 0.088-0.604 0.048-0.179 0.118-0.331 0.211-0.454 0.093-0.125 0.222-0.24 0.387-0.345 0.166-0.104 0.358-0.18 0.578-0.228 0.221-0.048 0.473-0.071 0.758-0.071 0.376 0 0.813 0.057 1.311 0.17 0.01 0.271 0.032 0.56 0.069 0.863-0.431-0.149-0.823-0.224-1.177-0.224-0.172 0-0.33 0.021-0.475 0.067-0.146 0.045-0.262 0.104-0.349 0.18-0.09 0.074-0.163 0.173-0.22 0.296s-0.094 0.267-0.114 0.435c-0.021 0.167-0.031 0.364-0.031 0.591l-7e-3 0.292h1.889c-0.022 0.196-0.043 0.478-0.061 0.843h-1.822l-0.121 3.468-0.06 2.559c-0.281-9e-3 -0.487-0.014-0.619-0.014-0.125 0-0.329 5e-3 -0.605 0.013m-11.333 3.146c-0.031-0.382-0.07-0.706-0.115-0.972 0.227 0.109 0.438 0.183 0.633 0.221 0.195 0.039 0.359 0.059 0.496 0.059 0.176 0 0.35-0.032 0.518-0.096 0.167-0.064 0.303-0.148 0.406-0.253 0.105-0.104 0.215-0.249 0.331-0.434s0.238-0.4 0.368-0.648c0.129-0.248 0.253-0.525 0.371-0.831l-1.449-4.125-1.063-2.949c0.33 0.01 0.55 0.014 0.658 0.014 0.127 0 0.333-4e-3 0.617-0.014 0.074 0.317 0.135 0.56 0.185 0.727 0.05 0.168 0.159 0.51 0.327 1.025l1.028 3.116c0.113 0.354 0.228 0.733 0.341 1.141l0.769-1.873 1.422-3.32c0.04-0.1 0.08-0.203 0.118-0.309 0.039-0.107 0.1-0.275 0.181-0.507 0.288 0.01 0.489 0.014 0.602 0.014 0.095 0 0.304-4e-3 0.629-0.014-0.177 0.403-0.604 1.343-1.283 2.818l-2.519 5.602c-0.177 0.375-0.338 0.66-0.482 0.855-0.118 0.153-0.245 0.287-0.381 0.4-0.109 0.095-0.231 0.177-0.367 0.244-0.168 0.081-0.35 0.145-0.545 0.19-0.213 0.045-0.43 0.067-0.652 0.067-0.351 1e-3 -0.732-0.049-1.144-0.148m-3.617-3.146c0.162-2.613 0.244-4.699 0.244-6.258l-8e-3 -0.625c0.231 5e-3 0.422 7e-3 0.571 7e-3 0.173 0 0.364-2e-3 0.577-7e-3l-0.054 1.128c0.167-0.28 0.315-0.492 0.445-0.635 0.129-0.143 0.274-0.261 0.438-0.354 0.162-0.093 0.349-0.165 0.553-0.218 0.207-0.052 0.421-0.078 0.643-0.078 0.189 0 0.378 0.023 0.563 0.068 6e-3 0.299 0.021 0.634 0.048 1.006-0.281-0.077-0.532-0.116-0.754-0.116-0.268 0-0.508 0.045-0.721 0.133s-0.404 0.222-0.573 0.4c-0.17 0.18-0.31 0.394-0.418 0.643-0.091 0.199-0.159 0.457-0.207 0.774-0.048 0.318-0.085 0.895-0.112 1.732-0.018 0.611-0.027 1.26-0.027 1.943v0.455c-0.244-9e-3 -0.441-0.014-0.591-0.014-0.135 3e-3 -0.342 8e-3 -0.617 0.016m-0.84-0.896c-0.051 0.222-0.104 0.516-0.163 0.883-0.308 0.072-0.553 0.118-0.733 0.136-0.182 0.019-0.354 0.027-0.518 0.027-0.402 0-0.728-0.051-0.975-0.152-0.246-0.103-0.436-0.266-0.566-0.489-0.132-0.225-0.197-0.529-0.197-0.914 0-0.05 2e-3 -0.139 6e-3 -0.265 6e-3 -0.127 0.028-0.568 0.07-1.325l0.166-3.044h-0.908c0.018-0.19 0.033-0.461 0.047-0.815h0.927c0.022-0.254 0.046-0.686 0.068-1.298 0.425-0.081 0.784-0.158 1.077-0.23-0.031 0.67-0.049 1.18-0.053 1.528h1.888c-0.022 0.285-0.036 0.558-0.041 0.815h-1.881l-0.181 3.825-8e-3 0.292c0 0.331 0.037 0.579 0.112 0.744s0.187 0.284 0.336 0.356 0.306 0.108 0.468 0.108c0.113 0 0.235-9e-3 0.367-0.026 0.131-0.018 0.362-0.07 0.692-0.156m-9.176 0.767-0.041-0.499c0-0.056-0.018-0.229-0.054-0.521 0.697 0.304 1.341 0.456 1.929 0.456 0.309 0 0.568-0.04 0.781-0.122s0.373-0.202 0.479-0.362 0.159-0.326 0.159-0.498c0-0.095-0.014-0.189-0.043-0.284-0.03-0.095-0.074-0.187-0.133-0.273-0.059-0.089-0.146-0.186-0.262-0.292s-0.355-0.307-0.721-0.601c-0.365-0.295-0.641-0.524-0.828-0.689-0.188-0.166-0.35-0.335-0.482-0.51-0.134-0.175-0.232-0.351-0.296-0.526-0.063-0.177-0.095-0.355-0.095-0.537 0-0.29 0.092-0.57 0.275-0.843 0.184-0.271 0.447-0.475 0.795-0.607 0.346-0.134 0.752-0.201 1.219-0.201 0.521 0 1.094 0.062 1.719 0.184 0.019 0.354 0.041 0.678 0.068 0.972-0.508-0.208-1.008-0.313-1.502-0.313-0.268 0-0.515 0.035-0.744 0.105s-0.396 0.176-0.502 0.316-0.161 0.294-0.161 0.461c0 0.109 0.02 0.214 0.056 0.313 0.036 0.101 0.101 0.207 0.193 0.322 0.094 0.115 0.205 0.229 0.335 0.343 0.133 0.113 0.395 0.326 0.786 0.639 0.393 0.313 0.66 0.544 0.805 0.693 0.146 0.149 0.27 0.304 0.375 0.462 0.104 0.158 0.18 0.316 0.227 0.474 0.048 0.155 0.072 0.314 0.072 0.478 0 0.317-0.095 0.611-0.283 0.883s-0.467 0.482-0.838 0.632c-0.372 0.15-0.789 0.225-1.25 0.225-0.195 0-0.424-0.013-0.688-0.037-0.262-0.025-0.485-0.054-0.668-0.089-0.182-0.034-0.411-0.086-0.682-0.154m-2.638 0.129 0.117-1.712 0.131-2.922 0.056-2.249 0.626 7e-3 0.611-7e-3c-0.051 0.708-0.097 1.446-0.139 2.219-0.041 0.772-0.074 1.616-0.1 2.53-0.026 0.916-0.039 1.627-0.039 2.134-0.285-9e-3 -0.489-0.014-0.611-0.014-0.113 1e-3 -0.332 6e-3 -0.652 0.014m0.311-8.363c0.014-0.426 0.021-0.748 0.021-0.965 0.249 9e-3 0.469 0.014 0.658 0.014 0.24 0 0.458-5e-3 0.652-0.014-9e-3 0.141-0.021 0.462-0.04 0.965-0.245-5e-3 -0.456-7e-3 -0.632-7e-3s-0.396 2e-3 -0.659 7e-3m-8.17 10.354c0.598 0.182 1.098 0.304 1.502 0.367 0.403 0.063 0.77 0.095 1.1 0.095 0.376 0 0.726-0.052 1.047-0.155 0.267-0.087 0.496-0.209 0.687-0.367 0.145-0.122 0.265-0.281 0.359-0.476 0.118-0.259 0.201-0.587 0.252-0.985 0.04-0.321 0.072-0.962 0.094-1.923-0.108 0.204-0.207 0.369-0.295 0.496-0.089 0.127-0.207 0.257-0.357 0.391-0.148 0.134-0.323 0.253-0.522 0.356-0.199 0.104-0.431 0.188-0.692 0.247-0.263 0.063-0.535 0.093-0.816 0.093-0.412 0-0.798-0.057-1.158-0.17s-0.682-0.301-0.964-0.563c-0.284-0.263-0.499-0.598-0.646-1.006-0.147-0.407-0.221-0.833-0.221-1.277 0-0.611 0.11-1.193 0.33-1.746s0.541-1.015 0.965-1.386c0.423-0.371 0.901-0.634 1.434-0.788 0.531-0.154 1.115-0.231 1.748-0.231 0.698 0 1.564 0.093 2.604 0.279l-0.076 0.835-0.204 3.812c0 0.077-0.011 0.539-0.034 1.387l-0.041 1.406c-0.022 0.299-0.063 0.562-0.122 0.788-0.054 0.186-0.127 0.362-0.218 0.529-0.081 0.154-0.183 0.295-0.305 0.422-0.118 0.131-0.256 0.249-0.414 0.354-0.159 0.104-0.329 0.188-0.51 0.251-0.254 0.091-0.517 0.156-0.789 0.197-0.307 0.05-0.616 0.074-0.924 0.074-0.444 0-0.879-0.022-1.307-0.067-0.428-0.046-0.907-0.132-1.437-0.259l-0.02-0.373c-7e-3 -0.093-0.022-0.295-0.05-0.607m5.222-8.017c-0.506-0.1-0.979-0.149-1.418-0.149-0.444 0-0.855 0.052-1.233 0.156s-0.724 0.294-1.039 0.57-0.56 0.635-0.737 1.074-0.265 0.895-0.265 1.365c0 0.439 0.081 0.84 0.241 1.202 0.161 0.363 0.409 0.635 0.744 0.819s0.715 0.274 1.141 0.274c0.366 0 0.693-0.064 0.981-0.193s0.542-0.327 0.765-0.595c0.23-0.275 0.402-0.593 0.516-0.951 0.086-0.253 0.151-0.629 0.197-1.127 0.035-0.398 0.072-1.213 0.107-2.445m-7.264 4.946c-0.054 0.249-0.108 0.566-0.163 0.951-0.435 0.108-0.812 0.182-1.131 0.221-0.319 0.038-0.638 0.058-0.954 0.058-0.567 0-1.075-0.068-1.526-0.204s-0.837-0.372-1.158-0.71c-0.322-0.337-0.553-0.724-0.693-1.158-0.141-0.435-0.211-0.895-0.211-1.379 0-0.675 0.129-1.301 0.387-1.879 0.259-0.577 0.647-1.031 1.165-1.363 0.519-0.329 1.177-0.495 1.974-0.495 0.412 0 0.806 0.061 1.183 0.181 0.375 0.12 0.688 0.302 0.937 0.547 0.249 0.244 0.442 0.547 0.577 0.907 0.137 0.359 0.204 0.753 0.204 1.179 0 0.163-0.013 0.321-0.041 0.476h-5.183c-0.018 0.249-0.028 0.439-0.028 0.57 0 0.476 0.1 0.914 0.299 1.314 0.2 0.401 0.494 0.705 0.884 0.911 0.389 0.206 0.837 0.309 1.345 0.309 0.584-1e-3 1.295-0.146 2.133-0.436m-4.579-3.234h4.049c-4e-3 -0.285-0.023-0.507-0.054-0.666-0.032-0.158-0.091-0.322-0.177-0.492s-0.202-0.317-0.35-0.441c-0.146-0.125-0.323-0.22-0.53-0.285-0.206-0.066-0.429-0.099-0.669-0.099-0.258 0-0.504 0.036-0.737 0.108s-0.439 0.172-0.618 0.299-0.331 0.275-0.456 0.445c-0.124 0.17-0.217 0.334-0.278 0.492-0.061 0.159-0.121 0.372-0.18 0.639m-8.652 4.314 0.135-1.827 0.156-3.377 0.068-2.84c9e-3 -0.575 0.014-0.985 0.014-1.23 0.543 0.01 0.994 0.014 1.352 0.014 0.308 0 0.649-4e-3 1.023-0.014 0.373-9e-3 0.68-0.013 0.92-0.013 0.421 0 0.805 0.029 1.152 0.088s0.657 0.193 0.931 0.404 0.476 0.455 0.604 0.733c0.13 0.279 0.194 0.595 0.194 0.948 0 0.34-0.05 0.654-0.153 0.944-0.102 0.29-0.251 0.553-0.448 0.788s-0.431 0.428-0.703 0.577c-0.208 0.113-0.468 0.206-0.781 0.279-0.208 0.046-0.493 0.088-0.856 0.129l1.196 1.909 1.236 1.896c0.086 0.131 0.21 0.328 0.374 0.591-0.352-9e-3 -0.586-0.014-0.704-0.014-0.126 0-0.367 5e-3 -0.723 0.014l-0.49-0.931c-0.101-0.182-0.201-0.36-0.3-0.537-0.1-0.177-0.209-0.366-0.327-0.57l-1.539-2.507c-0.063-0.1-0.168-0.274-0.313-0.523 0.348 0.063 0.656 0.095 0.924 0.095 0.453 0 0.864-0.074 1.233-0.224 0.369-0.149 0.654-0.382 0.856-0.696 0.201-0.315 0.302-0.665 0.302-1.05 0-0.209-0.032-0.402-0.095-0.581s-0.164-0.329-0.302-0.452c-0.139-0.122-0.274-0.21-0.408-0.265-0.133-0.055-0.306-0.095-0.516-0.122-0.211-0.027-0.434-0.041-0.67-0.041l-0.964 0.014c-0.417 0-0.682-2e-3 -0.795-7e-3 -0.14 3.044-0.226 5.843-0.257 8.397l-0.667-0.014c-0.099 2e-3 -0.319 7e-3 -0.659 0.015m-9.179-0.129-0.041-0.499c0-0.056-0.018-0.229-0.054-0.521 0.698 0.304 1.341 0.456 1.929 0.456 0.309 0 0.569-0.04 0.782-0.122s0.372-0.202 0.479-0.362c0.106-0.16 0.159-0.326 0.159-0.498 0-0.095-0.014-0.189-0.044-0.284-0.029-0.095-0.073-0.187-0.132-0.273-0.059-0.089-0.146-0.186-0.262-0.292-0.115-0.106-0.355-0.307-0.72-0.601-0.365-0.295-0.641-0.524-0.829-0.689-0.188-0.166-0.349-0.335-0.482-0.51-0.134-0.175-0.232-0.351-0.296-0.526-0.063-0.177-0.095-0.355-0.095-0.537 0-0.29 0.092-0.57 0.275-0.843 0.184-0.271 0.449-0.475 0.795-0.607 0.347-0.134 0.753-0.201 1.22-0.201 0.521 0 1.094 0.062 1.719 0.184 0.018 0.354 0.04 0.678 0.068 0.972-0.508-0.208-1.008-0.313-1.502-0.313-0.267 0-0.515 0.035-0.744 0.105-0.228 0.07-0.396 0.176-0.502 0.316-0.107 0.14-0.16 0.294-0.16 0.461 0 0.109 0.018 0.214 0.054 0.313 0.036 0.101 0.101 0.207 0.194 0.322s0.205 0.229 0.336 0.343 0.393 0.326 0.785 0.639 0.66 0.544 0.805 0.693 0.269 0.304 0.374 0.462c0.104 0.158 0.18 0.316 0.227 0.474 0.048 0.155 0.072 0.314 0.072 0.478 0 0.317-0.095 0.611-0.283 0.883s-0.467 0.482-0.838 0.632c-0.372 0.15-0.789 0.225-1.25 0.225-0.195 0-0.424-0.013-0.687-0.037-0.263-0.025-0.486-0.054-0.669-0.089-0.183-0.034-0.411-0.086-0.683-0.154m-4.427 0.129c0.163-2.613 0.244-4.699 0.244-6.258l-7e-3 -0.625c0.231 5e-3 0.422 7e-3 0.571 7e-3 0.172 0 0.365-2e-3 0.578-7e-3l-0.054 1.128c0.167-0.28 0.315-0.492 0.445-0.635 0.129-0.143 0.275-0.261 0.438-0.354s0.348-0.165 0.554-0.218c0.206-0.052 0.419-0.078 0.642-0.078 0.19 0 0.378 0.023 0.563 0.068 5e-3 0.299 0.021 0.634 0.048 1.006-0.281-0.077-0.532-0.116-0.754-0.116-0.268 0-0.507 0.045-0.72 0.133s-0.404 0.222-0.574 0.4c-0.17 0.18-0.309 0.394-0.418 0.643-0.09 0.199-0.16 0.457-0.207 0.774-0.048 0.318-0.085 0.895-0.112 1.732-0.018 0.611-0.027 1.26-0.027 1.943v0.455c-0.245-9e-3 -0.442-0.014-0.591-0.014-0.137 3e-3 -0.343 8e-3 -0.619 0.016m-1.593-1.08c-0.054 0.249-0.108 0.566-0.163 0.951-0.435 0.108-0.812 0.182-1.131 0.221-0.319 0.038-0.638 0.058-0.954 0.058-0.567 0-1.075-0.068-1.526-0.204s-0.837-0.372-1.158-0.71c-0.322-0.337-0.553-0.724-0.693-1.158-0.141-0.435-0.211-0.895-0.211-1.379 0-0.675 0.129-1.301 0.387-1.879 0.259-0.577 0.647-1.031 1.165-1.363 0.519-0.329 1.177-0.495 1.974-0.495 0.412 0 0.806 0.061 1.183 0.181 0.375 0.12 0.688 0.302 0.937 0.547 0.249 0.244 0.442 0.547 0.577 0.907 0.137 0.359 0.204 0.753 0.204 1.179 0 0.163-0.013 0.321-0.041 0.476h-5.183c-0.018 0.249-0.028 0.439-0.028 0.57 0 0.476 0.1 0.914 0.299 1.314 0.2 0.401 0.494 0.705 0.884 0.911 0.389 0.206 0.837 0.309 1.345 0.309 0.583-1e-3 1.295-0.146 2.133-0.436m-4.58-3.234h4.049c-4e-3 -0.285-0.023-0.507-0.054-0.666-0.032-0.158-0.091-0.322-0.177-0.492s-0.202-0.317-0.35-0.441c-0.147-0.125-0.323-0.22-0.53-0.285-0.206-0.066-0.429-0.099-0.669-0.099-0.258 0-0.504 0.036-0.737 0.108s-0.439 0.172-0.618 0.299-0.331 0.275-0.456 0.445c-0.124 0.17-0.217 0.334-0.278 0.492-0.06 0.159-0.121 0.372-0.18 0.639m-9.128 4.314 0.061-0.761c9e-3 -0.136 0.023-0.392 0.041-0.768l0.189-4.605 0.081-3.141c0.277 5e-3 0.493 7e-3 0.647 7e-3 0.159 0 0.36-2e-3 0.605-7e-3 -0.063 0.58-0.12 1.414-0.17 2.501 0.476-0.104 0.866-0.175 1.169-0.211 0.304-0.036 0.602-0.055 0.897-0.055 0.571 0 1.073 0.073 1.508 0.218 0.435 0.146 0.794 0.385 1.077 0.72 0.283 0.336 0.483 0.705 0.601 1.107 0.118 0.403 0.177 0.832 0.177 1.284 0 0.517-0.072 1.016-0.214 1.498-0.143 0.482-0.358 0.911-0.646 1.285-0.287 0.373-0.637 0.646-1.049 0.818s-0.863 0.258-1.352 0.258c-0.263 0-0.509-0.028-0.74-0.085s-0.44-0.135-0.625-0.234c-0.186-0.1-0.343-0.213-0.473-0.339-0.128-0.128-0.235-0.254-0.319-0.381-0.083-0.127-0.178-0.302-0.282-0.523l-0.02 1.413c-0.263-9e-3 -0.449-0.014-0.558-0.014-0.076 2e-3 -0.279 7e-3 -0.605 0.015m1.387-5.863c-0.032 0.753-0.055 1.25-0.068 1.49-0.014 0.24-0.02 0.528-0.02 0.864 0 0.711 0.081 1.258 0.244 1.639 0.162 0.381 0.406 0.669 0.732 0.864s0.695 0.292 1.106 0.292c0.475 0 0.884-0.119 1.228-0.359 0.343-0.24 0.61-0.606 0.8-1.098 0.19-0.492 0.285-1.002 0.285-1.532 0-0.747-0.198-1.349-0.594-1.806-0.396-0.458-0.991-0.688-1.787-0.688-0.276 0-0.562 0.023-0.858 0.07s-0.652 0.135-1.068 0.264m-13.233 5.863 0.075-0.985c0.013-0.208 0.031-0.535 0.054-0.985l0.163-4.138c4e-3 -0.339 6e-3 -0.598 6e-3 -0.774 0.214 5e-3 0.409 7e-3 0.585 7e-3 0.191 0 0.379-2e-3 0.564-7e-3l-0.06 1.264c0.154-0.253 0.293-0.455 0.417-0.604 0.125-0.149 0.289-0.287 0.493-0.414 0.203-0.127 0.436-0.226 0.696-0.296 0.261-0.07 0.531-0.105 0.812-0.105 0.195 0 0.387 0.023 0.577 0.068 0.191 0.045 0.366 0.108 0.527 0.19 0.161 0.081 0.299 0.174 0.414 0.278 0.116 0.104 0.209 0.218 0.279 0.34s0.142 0.299 0.214 0.529c0.276-0.521 0.621-0.885 1.036-1.094 0.415-0.208 0.877-0.313 1.39-0.313 0.326 0 0.642 0.053 0.947 0.156 0.306 0.104 0.549 0.254 0.73 0.449 0.182 0.194 0.303 0.397 0.364 0.607 0.061 0.211 0.092 0.423 0.092 0.636 0 0.217-0.016 0.543-0.047 0.979-0.032 0.435-0.068 1.097-0.108 1.987-0.041 0.89-0.063 1.631-0.068 2.225-0.24-9e-3 -0.428-0.014-0.564-0.014-0.146 0-0.361 5e-3 -0.647 0.014 0.05-0.611 0.093-1.277 0.129-1.997l0.089-1.686c0.022-0.407 0.033-0.759 0.033-1.053 0-0.264-0.026-0.47-0.081-0.618-0.054-0.147-0.142-0.281-0.261-0.399-0.121-0.118-0.269-0.208-0.446-0.27-0.176-0.062-0.378-0.092-0.604-0.092-0.181 0-0.349 0.021-0.503 0.061-0.145 0.041-0.285 0.103-0.421 0.185-0.149 0.086-0.283 0.192-0.401 0.319-0.118 0.123-0.218 0.262-0.299 0.416-0.086 0.159-0.156 0.348-0.211 0.565-0.068 0.272-0.115 0.606-0.142 1.001-0.031 0.422-0.056 0.977-0.074 1.665l-0.054 1.902c-0.263-9e-3 -0.46-0.014-0.591-0.014-0.123 0-0.33 5e-3 -0.62 0.014 0.045-0.562 0.082-1.139 0.109-1.732l0.081-1.645c0.023-0.507 0.034-0.939 0.034-1.298 0-0.23-0.022-0.427-0.068-0.587-0.045-0.161-0.13-0.309-0.255-0.442-0.124-0.133-0.275-0.234-0.451-0.306-0.177-0.069-0.371-0.104-0.584-0.104-0.227 0-0.442 0.039-0.646 0.118s-0.391 0.196-0.564 0.351c-0.172 0.153-0.317 0.343-0.434 0.567-0.118 0.225-0.21 0.519-0.276 0.883-0.065 0.364-0.117 1-0.155 1.905-0.039 0.906-0.058 1.67-0.058 2.29-0.29-9e-3 -0.489-0.014-0.598-0.014-0.118 2e-3 -0.324 7e-3 -0.619 0.015m-1.674 0c-0.222-9e-3 -0.412-0.014-0.571-0.014-0.181 0-0.369 5e-3 -0.564 0.014l0.033-1.312c-0.108 0.204-0.202 0.361-0.281 0.473-0.08 0.11-0.178 0.22-0.296 0.326s-0.239 0.195-0.363 0.269c-0.125 0.072-0.271 0.137-0.438 0.193-0.168 0.057-0.364 0.104-0.588 0.143-0.224 0.038-0.463 0.058-0.717 0.058-0.552 0-1.025-0.084-1.417-0.251-0.391-0.168-0.688-0.405-0.889-0.714-0.202-0.308-0.303-0.729-0.303-1.264 0-0.081 5e-3 -0.22 0.014-0.414 8e-3 -0.194 0.022-0.448 0.04-0.761l0.114-2.263 0.02-0.728c5e-3 -0.167 7e-3 -0.38 7e-3 -0.639l0.626 7e-3c0.127 0 0.323-2e-3 0.586-7e-3 -0.065 0.793-0.125 1.66-0.183 2.603-0.057 0.942-0.086 1.545-0.086 1.808 0 0.398 0.065 0.717 0.194 0.954 0.129 0.238 0.344 0.421 0.646 0.551 0.301 0.129 0.642 0.193 1.023 0.193 0.335 0 0.657-0.059 0.965-0.177 0.263-0.104 0.485-0.244 0.666-0.421 0.195-0.195 0.359-0.446 0.49-0.755 0.095-0.226 0.168-0.519 0.217-0.876 0.032-0.258 0.064-0.723 0.096-1.393 0.036-0.815 0.061-1.645 0.074-2.487l0.633 7e-3c0.135 0 0.326-2e-3 0.571-7e-3 -0.064 0.815-0.138 2.055-0.224 3.717-0.05 0.916-0.08 1.972-0.095 3.167m-16.683 0 0.136-1.889 0.232-5.517 0.027-1.073c5e-3 -0.34 7e-3 -0.605 7e-3 -0.796 0.339 5e-3 0.622 7e-3 0.848 7e-3 0.186 0 0.446-2e-3 0.781-7e-3l0.74 1.196 4.492 6.773 0.284-7.97 0.605 7e-3 0.598-7e-3 -0.148 2.379-0.183 4.191-0.081 2.704c-0.267-9e-3 -0.53-0.014-0.788-0.014-0.235 0-0.508 5e-3 -0.821 0.014l-0.625-0.999-4.603-6.896c-0.018 0.254-0.036 0.652-0.054 1.195l-0.189 4.804-0.041 1.896c-0.295-9e-3 -0.492-0.014-0.592-0.014-0.072 3e-3 -0.281 8e-3 -0.625 0.016m-4.342-0.896c-0.05 0.222-0.104 0.516-0.163 0.883-0.308 0.072-0.553 0.118-0.734 0.136-0.181 0.019-0.353 0.027-0.517 0.027-0.402 0-0.728-0.051-0.974-0.152-0.247-0.103-0.436-0.266-0.568-0.489-0.131-0.225-0.197-0.529-0.197-0.914 0-0.05 3e-3 -0.139 7e-3 -0.265 5e-3 -0.127 0.028-0.568 0.069-1.325l0.166-3.044h-0.907c0.018-0.19 0.033-0.461 0.047-0.815h0.926c0.023-0.254 0.046-0.686 0.069-1.298 0.424-0.081 0.784-0.158 1.077-0.23-0.031 0.67-0.049 1.18-0.053 1.528h1.888c-0.023 0.285-0.036 0.558-0.041 0.815h-1.881l-0.181 3.825-7e-3 0.292c0 0.331 0.037 0.579 0.112 0.744 0.074 0.165 0.186 0.284 0.336 0.356 0.149 0.072 0.305 0.108 0.467 0.108 0.114 0 0.236-9e-3 0.367-0.026 0.131-0.018 0.361-0.07 0.692-0.156m-5.086-0.184c-0.054 0.249-0.108 0.566-0.163 0.951-0.435 0.108-0.812 0.182-1.131 0.221-0.319 0.038-0.638 0.058-0.954 0.058-0.567 0-1.075-0.068-1.526-0.204s-0.837-0.372-1.158-0.71c-0.322-0.337-0.553-0.724-0.693-1.158-0.141-0.435-0.211-0.895-0.211-1.379 0-0.675 0.129-1.301 0.387-1.879 0.259-0.577 0.647-1.031 1.165-1.363 0.519-0.329 1.177-0.495 1.974-0.495 0.412 0 0.806 0.061 1.183 0.181 0.375 0.12 0.688 0.302 0.937 0.547 0.249 0.244 0.442 0.547 0.577 0.907 0.137 0.359 0.204 0.753 0.204 1.179 0 0.163-0.013 0.321-0.041 0.476h-5.183c-0.018 0.249-0.028 0.439-0.028 0.57 0 0.476 0.1 0.914 0.299 1.314 0.2 0.401 0.494 0.705 0.884 0.911 0.389 0.206 0.837 0.309 1.345 0.309 0.584-1e-3 1.295-0.146 2.133-0.436m-4.579-3.234h4.049c-4e-3 -0.285-0.023-0.507-0.054-0.666-0.032-0.158-0.091-0.322-0.177-0.492s-0.202-0.317-0.35-0.441c-0.147-0.125-0.323-0.22-0.53-0.285-0.206-0.066-0.429-0.099-0.669-0.099-0.258 0-0.504 0.036-0.737 0.108s-0.439 0.172-0.618 0.299-0.331 0.275-0.456 0.445c-0.124 0.17-0.217 0.334-0.278 0.492-0.061 0.159-0.121 0.372-0.18 0.639m-9.345 4.314c0.216-2.84 0.329-5.134 0.338-6.883l0.613 7e-3c0.149 0 0.346-2e-3 0.591-7e-3l-0.09 1.359c0.113-0.19 0.204-0.337 0.272-0.438s0.159-0.209 0.272-0.322 0.247-0.219 0.401-0.316 0.335-0.179 0.544-0.244c0.208-0.066 0.42-0.114 0.635-0.146 0.215-0.031 0.429-0.048 0.642-0.048 0.39 0 0.766 0.048 1.129 0.144 0.362 0.095 0.66 0.25 0.893 0.465 0.234 0.215 0.39 0.456 0.469 0.724 0.079 0.269 0.119 0.555 0.119 0.863 0 0.059-2e-3 0.172-7e-3 0.339-4e-3 0.168-0.013 0.388-0.027 0.659l-0.134 2.847c-0.01 0.272-0.016 0.604-0.02 0.999-0.204-9e-3 -0.397-0.014-0.579-0.014-0.222 0-0.431 5e-3 -0.626 0.014 0.046-0.548 0.08-1.076 0.103-1.583l0.089-1.583c0.028-0.544 0.041-0.953 0.041-1.229 0-0.398-0.068-0.717-0.204-0.955-0.136-0.237-0.354-0.42-0.652-0.55-0.3-0.13-0.636-0.194-1.007-0.194-0.527 0-0.978 0.125-1.354 0.374-0.345 0.231-0.612 0.56-0.803 0.985-0.131 0.304-0.224 0.752-0.278 1.345-0.07 0.712-0.118 1.842-0.146 3.391-0.252-9e-3 -0.449-0.014-0.588-0.014-0.14-2e-3 -0.352 3e-3 -0.636 0.011m-4.705 0c0.163-2.613 0.244-4.699 0.244-6.258l-7e-3 -0.625c0.231 5e-3 0.422 7e-3 0.571 7e-3 0.172 0 0.365-2e-3 0.578-7e-3l-0.054 1.128c0.167-0.28 0.315-0.492 0.445-0.635 0.129-0.143 0.275-0.261 0.438-0.354s0.348-0.165 0.554-0.218c0.206-0.052 0.419-0.078 0.642-0.078 0.19 0 0.378 0.023 0.563 0.068 5e-3 0.299 0.021 0.634 0.048 1.006-0.281-0.077-0.532-0.116-0.754-0.116-0.268 0-0.507 0.045-0.72 0.133s-0.404 0.222-0.574 0.4c-0.17 0.18-0.309 0.394-0.418 0.643-0.09 0.199-0.16 0.457-0.207 0.774-0.048 0.318-0.085 0.895-0.112 1.732-0.018 0.611-0.027 1.26-0.027 1.943v0.455c-0.245-9e-3 -0.442-0.014-0.591-0.014-0.137 3e-3 -0.343 8e-3 -0.619 0.016m-1.594-1.08c-0.054 0.249-0.108 0.566-0.163 0.951-0.435 0.108-0.812 0.182-1.131 0.221-0.319 0.038-0.638 0.058-0.954 0.058-0.567 0-1.075-0.068-1.526-0.204s-0.837-0.372-1.158-0.71c-0.322-0.337-0.553-0.724-0.693-1.158-0.141-0.435-0.211-0.895-0.211-1.379 0-0.675 0.129-1.301 0.387-1.879 0.259-0.577 0.647-1.031 1.165-1.363 0.519-0.329 1.177-0.495 1.974-0.495 0.412 0 0.806 0.061 1.183 0.181 0.375 0.12 0.688 0.302 0.937 0.547 0.249 0.244 0.442 0.547 0.577 0.907 0.137 0.359 0.204 0.753 0.204 1.179 0 0.163-0.013 0.321-0.041 0.476h-5.183c-0.018 0.249-0.028 0.439-0.028 0.57 0 0.476 0.1 0.914 0.299 1.314 0.2 0.401 0.494 0.705 0.884 0.911 0.389 0.206 0.837 0.309 1.345 0.309 0.584-1e-3 1.295-0.146 2.133-0.436m-4.579-3.234h4.049c-4e-3 -0.285-0.023-0.507-0.054-0.666-0.032-0.158-0.091-0.322-0.177-0.492s-0.202-0.317-0.35-0.441c-0.146-0.125-0.323-0.22-0.53-0.285-0.206-0.066-0.429-0.099-0.669-0.099-0.258 0-0.504 0.036-0.737 0.108s-0.439 0.172-0.618 0.299-0.331 0.275-0.456 0.445c-0.124 0.17-0.217 0.334-0.278 0.492-0.061 0.159-0.121 0.372-0.18 0.639m-1.912 3.418c-0.05 0.222-0.104 0.516-0.163 0.883-0.308 0.072-0.553 0.118-0.734 0.136-0.181 0.019-0.353 0.027-0.517 0.027-0.402 0-0.728-0.051-0.974-0.152-0.247-0.103-0.436-0.266-0.568-0.489-0.131-0.225-0.197-0.529-0.197-0.914 0-0.05 3e-3 -0.139 7e-3 -0.265 5e-3 -0.127 0.028-0.568 0.069-1.325l0.166-3.044h-0.907c0.018-0.19 0.033-0.461 0.047-0.815h0.926c0.023-0.254 0.046-0.686 0.069-1.298 0.424-0.081 0.784-0.158 1.077-0.23-0.031 0.67-0.049 1.18-0.053 1.528h1.888c-0.023 0.285-0.036 0.558-0.041 0.815h-1.881l-0.181 3.825-7e-3 0.292c0 0.331 0.037 0.579 0.112 0.744 0.074 0.165 0.186 0.284 0.336 0.356 0.149 0.072 0.305 0.108 0.467 0.108 0.114 0 0.236-9e-3 0.367-0.026 0.131-0.018 0.361-0.07 0.692-0.156m-11.765 0.896c0.216-2.84 0.329-5.134 0.338-6.883l0.613 7e-3c0.149 0 0.346-2e-3 0.591-7e-3l-0.09 1.359c0.113-0.19 0.204-0.337 0.272-0.438s0.159-0.209 0.272-0.322 0.247-0.219 0.401-0.316 0.335-0.179 0.544-0.244c0.208-0.066 0.42-0.114 0.635-0.146 0.215-0.031 0.429-0.048 0.642-0.048 0.39 0 0.766 0.048 1.129 0.144 0.362 0.095 0.66 0.25 0.893 0.465 0.234 0.215 0.39 0.456 0.469 0.724 0.079 0.269 0.119 0.555 0.119 0.863 0 0.059-2e-3 0.172-7e-3 0.339-4e-3 0.168-0.013 0.388-0.027 0.659l-0.134 2.847c-0.01 0.272-0.016 0.604-0.02 0.999-0.204-9e-3 -0.397-0.014-0.579-0.014-0.222 0-0.431 5e-3 -0.626 0.014 0.046-0.548 0.08-1.076 0.103-1.583l0.089-1.583c0.028-0.544 0.041-0.953 0.041-1.229 0-0.398-0.068-0.717-0.204-0.955-0.136-0.237-0.354-0.42-0.652-0.55-0.3-0.13-0.636-0.194-1.007-0.194-0.527 0-0.978 0.125-1.354 0.374-0.345 0.231-0.612 0.56-0.803 0.985-0.131 0.304-0.224 0.752-0.278 1.345-0.07 0.712-0.118 1.842-0.146 3.391-0.252-9e-3 -0.449-0.014-0.588-0.014-0.14-2e-3 -0.352 3e-3 -0.636 0.011m-3.136 0 0.102-1.562 0.142-3.256 0.095-3.206c4e-3 -0.187 7e-3 -0.372 7e-3 -0.558l-7e-3 -0.693 0.7 7e-3 0.66-7e-3c-0.082 1.133-0.143 2.315-0.183 3.547-0.073 1.975-0.124 3.884-0.156 5.728l-0.639-0.014c-0.081 1e-3 -0.322 6e-3 -0.721 0.014m-5.102-1.08c-0.054 0.249-0.108 0.566-0.163 0.951-0.435 0.108-0.812 0.182-1.131 0.221-0.319 0.038-0.638 0.058-0.954 0.058-0.567 0-1.075-0.068-1.526-0.204s-0.837-0.372-1.158-0.71c-0.322-0.337-0.553-0.724-0.693-1.158-0.141-0.435-0.211-0.895-0.211-1.379 0-0.675 0.129-1.301 0.387-1.879 0.259-0.577 0.647-1.031 1.165-1.363 0.519-0.329 1.177-0.495 1.974-0.495 0.412 0 0.806 0.061 1.183 0.181 0.375 0.12 0.688 0.302 0.937 0.547 0.249 0.244 0.442 0.547 0.577 0.907 0.137 0.359 0.204 0.753 0.204 1.179 0 0.163-0.013 0.321-0.041 0.476h-5.183c-0.018 0.249-0.028 0.439-0.028 0.57 0 0.476 0.1 0.914 0.299 1.314 0.2 0.401 0.494 0.705 0.884 0.911 0.389 0.206 0.837 0.309 1.345 0.309 0.584-1e-3 1.295-0.146 2.133-0.436m-4.579-3.234h4.049c-4e-3 -0.285-0.023-0.507-0.054-0.666-0.032-0.158-0.091-0.322-0.177-0.492s-0.202-0.317-0.35-0.441c-0.147-0.125-0.323-0.22-0.53-0.285-0.206-0.066-0.429-0.099-0.669-0.099-0.258 0-0.504 0.036-0.737 0.108s-0.439 0.172-0.618 0.299-0.331 0.275-0.456 0.445c-0.124 0.17-0.217 0.334-0.278 0.492-0.061 0.159-0.121 0.372-0.18 0.639m-9.339 4.314 0.169-2.955 0.156-4.029 0.041-2.29 0.618 7e-3c0.155 0 0.356-2e-3 0.606-7e-3l-0.149 2.361-0.054 1.408c0.108-0.194 0.202-0.349 0.281-0.465 0.08-0.115 0.182-0.23 0.306-0.346 0.125-0.116 0.255-0.214 0.391-0.296 0.135-0.081 0.287-0.152 0.455-0.214 0.167-0.061 0.369-0.111 0.604-0.152 0.236-0.041 0.483-0.062 0.741-0.062 0.385 0 0.753 0.043 1.104 0.129s0.652 0.229 0.903 0.428c0.252 0.199 0.424 0.438 0.517 0.713 0.093 0.276 0.139 0.557 0.139 0.842 0 0.114-2e-3 0.263-7e-3 0.449-0.013 0.279-0.031 0.607-0.053 0.983l-0.115 2.497c-0.013 0.271-0.022 0.604-0.027 0.998-0.263-9e-3 -0.465-0.014-0.605-0.014-0.155 0-0.37 5e-3 -0.647 0.014 0.05-0.488 0.108-1.258 0.174-2.308 0.066-1.05 0.099-1.778 0.099-2.186 0-0.361-0.065-0.661-0.197-0.899-0.131-0.237-0.348-0.419-0.652-0.545-0.303-0.126-0.641-0.19-1.012-0.19-0.34 0-0.658 0.052-0.952 0.155-0.267 0.096-0.495 0.229-0.683 0.4-0.188 0.173-0.339 0.384-0.452 0.632-0.122 0.267-0.208 0.536-0.258 0.808-0.077 0.43-0.131 1.026-0.163 1.791-0.018 0.457-0.043 1.238-0.074 2.342-0.254-9e-3 -0.445-0.014-0.572-0.014-0.117 2e-3 -0.327 7e-3 -0.632 0.015m-5.112 0 0.135-2.079 0.184-4.308 0.061-1.99c-1.109 4e-3 -2.08 0.024-2.913 0.061 0.027-0.362 0.043-0.682 0.048-0.958 1.15 5e-3 2.391 7e-3 3.722 7e-3l2.174-7e-3h1.154c-0.031 0.402-0.047 0.722-0.047 0.958-0.702-0.04-1.479-0.061-2.33-0.061h-0.558l-0.142 3.007-0.141 4.236v1.134l-0.654-0.014c-0.058 1e-3 -0.291 6e-3 -0.693 0.014m303.98-25.659c-2.083 6e-3 -3.701-2.347-3.621-5.26 0.082-2.902 1.833-5.262 3.914-5.267 2.086-4e-3 3.706 2.347 3.621 5.256-0.081 2.906-1.835 5.267-3.914 5.271m1.316-14.198c-2.075 0.229-4.033-1.925-4.373-4.81-0.344-2.88 1.057-5.403 3.125-5.632 2.076-0.227 4.031 1.925 4.372 4.81 0.347 2.883-1.059 5.404-3.124 5.632m-17.029 21.505c-3.049 7e-3 -5.418-3.438-5.297-7.695 0.116-4.254 2.684-7.706 5.727-7.712 3.053-8e-3 5.422 3.435 5.301 7.69s-2.686 7.71-5.731 7.717m1.924-20.781c-3.034 0.334-5.896-2.817-6.395-7.037-0.508-4.218 1.541-7.908 4.572-8.244 3.035-0.332 5.899 2.82 6.398 7.039 0.505 4.218-1.548 7.91-4.575 8.242m-23.267 28.793c-4.05 8e-3 -7.196-4.566-7.036-10.223 0.154-5.648 3.563-10.236 7.605-10.248 4.051-8e-3 7.203 4.568 7.041 10.22-0.156 5.652-3.566 10.24-7.61 10.251m2.553-27.604c-4.028 0.444-7.829-3.744-8.495-9.353-0.673-5.599 2.053-10.502 6.078-10.949 4.028-0.44 7.836 3.746 8.5 9.351 0.668 5.604-2.058 10.507-6.083 10.951"/>
<path d="m244.02 82.719h-19.117c-4.92 0-8.988-1.635-12.207-4.903s-4.829-7.396-4.829-12.381c0-4.952 1.593-8.947 4.779-11.986 3.187-3.037 7.271-4.555 12.257-4.555h19.117v5.893h-19.117c-3.235 0-5.901 1.04-7.998 3.12-2.097 2.081-3.145 4.754-3.145 8.023 0 3.236 1.048 5.861 3.145 7.875s4.763 3.02 7.998 3.02h19.117zm-50.416-33.825h5.895v33.825h-5.895zm-10.151 30.903c0 2.179-0.745 3.269-2.234 3.269-1.093 0-2.316-0.672-3.673-2.017l-21.678-21.797v23.467h-5.844v-30.903c0-0.793 0.214-1.478 0.643-2.056 0.429-0.577 1.04-0.866 1.833-0.866 1.089 0 2.211 0.577 3.368 1.733l21.691 21.74v-23.473h5.894zm122.04 9.379c-1.533-0.272-2.278-2.357-1.655-4.654 0.618-2.297 2.367-3.941 3.901-3.67 1.535 0.273 2.279 2.354 1.658 4.651-0.62 2.3-2.369 3.942-3.904 3.673m1.933-41.568c-1.625 0.406-3.507-1.089-4.206-3.339-0.697-2.252 0.051-4.406 1.674-4.813 1.625-0.402 3.509 1.092 4.205 3.344 0.701 2.25-0.048 4.403-1.673 4.808m-5.562 50.184c-1.104-0.202-1.65-1.63-1.216-3.182 0.431-1.558 1.683-2.654 2.788-2.45 1.108 0.204 1.654 1.63 1.218 3.186-0.433 1.552-1.684 2.649-2.79 2.446m1.598-62.021c-1.104 0.272-2.377-0.741-2.852-2.267-0.475-1.524 0.033-2.985 1.135-3.258 1.102-0.277 2.375 0.737 2.851 2.264 0.473 1.525-0.037 2.987-1.134 3.261m-15.088 66.68c-2.25-0.397-3.334-3.446-2.426-6.813 0.906-3.359 3.465-5.764 5.711-5.367 2.248 0.398 3.334 3.443 2.426 6.81-0.907 3.363-3.465 5.767-5.711 5.37m2.828-60.832c-2.379 0.593-5.133-1.596-6.155-4.892-1.022-3.291 0.075-6.444 2.448-7.038 2.377-0.592 5.135 1.6 6.156 4.891 1.024 3.296-0.076 6.447-2.449 7.039m-8.137 73.444c-1.621-0.296-2.418-2.386-1.782-4.661 0.632-2.274 2.458-3.878 4.081-3.58 1.619 0.298 2.419 2.383 1.781 4.66-0.634 2.275-2.461 3.877-4.08 3.581m2.333-90.769c-1.613 0.403-3.479-1.083-4.173-3.317-0.693-2.233 0.048-4.367 1.662-4.77 1.61-0.402 3.479 1.081 4.172 3.316 0.694 2.232-0.051 4.368-1.661 4.771m-19.829 92.358c-2.986-0.525-4.427-4.575-3.222-9.044 1.206-4.467 4.603-7.66 7.587-7.134 2.984 0.528 4.427 4.578 3.223 9.046-1.205 4.469-4.604 7.663-7.588 7.132m3.758-80.808c-3.16 0.788-6.818-2.12-8.18-6.5-1.359-4.371 0.102-8.558 3.256-9.348 3.156-0.787 6.819 2.122 8.178 6.499 1.359 4.374-0.102 8.563-3.254 9.349m-10.812 97.565c-2.151-0.396-3.212-3.166-2.366-6.192 0.839-3.02 3.266-5.152 5.419-4.755 2.153 0.392 3.215 3.165 2.37 6.188-0.842 3.024-3.271 5.152-5.423 4.759m3.1-120.58c-2.138 0.535-4.62-1.438-5.538-4.41-0.924-2.963 0.063-5.798 2.201-6.332 2.146-0.535 4.625 1.436 5.545 4.402 0.923 2.965-0.068 5.803-2.208 6.34" fill="#ce7147"/>
</svg>
