<svg width="906" height="256" xmlns="http://www.w3.org/2000/svg" xmlns:xlink="http://www.w3.org/1999/xlink" overflow="hidden"><defs><clipPath id="clip0"><rect x="38" y="206" width="906" height="256"/></clipPath></defs><g clip-path="url(#clip0)" transform="translate(-38 -206)"><rect x="42.5001" y="210.5" width="102" height="30" stroke="#7A797B" stroke-width="0.666667" stroke-linejoin="round" stroke-miterlimit="10" fill="none"/><text font-family="Latha,Latha_MSFontService,sans-serif" font-weight="400" font-size="12" transform="translate(48.471 221)">பரிவர்த்தனை<tspan font-size="12" x="88.8333" y="0"> </tspan><tspan font-size="12" x="38.4133" y="14">#</tspan>1</text><rect x="154.5" y="210.5" width="103" height="30" stroke="#7A797B" stroke-width="0.666667" stroke-linejoin="round" stroke-miterlimit="10" fill="none"/><text font-family="Latha,Latha_MSFontService,sans-serif" font-weight="400" font-size="12" transform="translate(161.249 221)">பரிவர்த்தனை<tspan font-size="12" x="88.8333" y="0"> </tspan><tspan font-size="12" x="37.58" y="14">#</tspan><tspan font-family="Verdana,Verdana_MSFontService,sans-serif" font-size="12" x="43.58" y="14">2</tspan></text><rect x="267.5" y="210.5" width="103" height="30" stroke="#7A797B" stroke-width="0.666667" stroke-linejoin="round" stroke-miterlimit="10" fill="none"/><text font-family="Latha,Latha_MSFontService,sans-serif" font-weight="400" font-size="12" transform="translate(274.026 221)">பரிவர்த்தனை<tspan font-size="12" x="88.8333" y="0"> </tspan><tspan font-size="12" x="37.58" y="14">#</tspan><tspan font-family="Verdana,Verdana_MSFontService,sans-serif" font-size="12" x="43.58" y="14">3</tspan></text><rect x="380.5" y="210.5" width="102" height="30" stroke="#7A797B" stroke-width="0.666667" stroke-linejoin="round" stroke-miterlimit="10" fill="none"/><text font-family="Latha,Latha_MSFontService,sans-serif" font-weight="400" font-size="12" transform="translate(386.804 221)">பரிவர்த்தனை<tspan font-size="12" x="88.8333" y="0"> </tspan><tspan font-size="12" x="37.58" y="14">#</tspan><tspan font-family="Verdana,Verdana_MSFontService,sans-serif" font-size="12" x="43.58" y="14">4</tspan></text><rect x="493.5" y="210.5" width="102" height="30" stroke="#7A797B" stroke-width="0.666667" stroke-linejoin="round" stroke-miterlimit="10" fill="none"/><text font-family="Latha,Latha_MSFontService,sans-serif" font-weight="400" font-size="12" transform="translate(499.581 221)">பரிவர்த்தனை<tspan font-size="12" x="88.8333" y="0"> </tspan><tspan font-size="12" x="37.58" y="14">#</tspan><tspan font-family="Verdana,Verdana_MSFontService,sans-serif" font-size="12" x="43.58" y="14">5</tspan></text><rect x="606.5" y="210.5" width="102" height="30" stroke="#7A797B" stroke-width="0.666667" stroke-linejoin="round" stroke-miterlimit="10" fill="none"/><text font-family="Latha,Latha_MSFontService,sans-serif" font-weight="400" font-size="12" transform="translate(612.359 221)">பரிவர்த்தனை<tspan font-size="12" x="88.8334" y="0"> </tspan><tspan font-size="12" x="37.58" y="14">#</tspan><tspan font-family="Verdana,Verdana_MSFontService,sans-serif" font-size="12" x="43.58" y="14">6</tspan></text><rect x="718.5" y="210.5" width="103" height="30" stroke="#7A797B" stroke-width="0.666667" stroke-linejoin="round" stroke-miterlimit="10" fill="none"/><text font-family="Latha,Latha_MSFontService,sans-serif" font-weight="400" font-size="12" transform="translate(725.137 221)">பரிவர்த்தனை<tspan font-size="12" x="88.8334" y="0"> </tspan><tspan font-size="12" x="37.58" y="14">#</tspan><tspan font-family="Verdana,Verdana_MSFontService,sans-serif" font-size="12" x="43.58" y="14">7</tspan></text><rect x="831.5" y="210.5" width="103" height="30" stroke="#7A797B" stroke-width="0.666667" stroke-linejoin="round" stroke-miterlimit="10" fill="none"/><text font-family="Latha,Latha_MSFontService,sans-serif" font-weight="400" font-size="12" transform="translate(837.914 221)">பரிவர்த்தனை<tspan font-size="12" x="88.8333" y="0"> </tspan><tspan font-size="12" x="37.58" y="14">#</tspan><tspan font-family="Verdana,Verdana_MSFontService,sans-serif" font-size="12" x="43.58" y="14">8</tspan></text><rect x="42.5001" y="254.5" width="102" height="30" stroke="#7A797B" stroke-width="0.666667" stroke-linejoin="round" stroke-miterlimit="10" fill="none"/><text font-family="Latha,Latha_MSFontService,sans-serif" font-weight="400" font-size="12" transform="translate(45.8877 265)">குறுக்க மதி<tspan font-size="12" x="76.5" y="0">ப்பு</tspan> <tspan font-size="12" x="41" y="14">#</tspan>1</text><rect x="154.5" y="254.5" width="103" height="30" stroke="#7A797B" stroke-width="0.666667" stroke-linejoin="round" stroke-miterlimit="10" fill="none"/><text font-family="Latha,Latha_MSFontService,sans-serif" font-weight="400" font-size="12" transform="translate(158.665 265)">குறுக்க மதி<tspan font-size="12" x="76.5" y="0">ப்பு</tspan> <tspan font-size="12" x="40.1667" y="14">#</tspan><tspan font-family="Verdana,Verdana_MSFontService,sans-serif" font-size="12" x="46.1667" y="14">2</tspan></text><rect x="267.5" y="254.5" width="103" height="30" stroke="#7A797B" stroke-width="0.666667" stroke-linejoin="round" stroke-miterlimit="10" fill="none"/><text font-family="Latha,Latha_MSFontService,sans-serif" font-weight="400" font-size="12" transform="translate(271.443 265)">குறுக்க மதி<tspan font-size="12" x="76.5" y="0">ப்பு</tspan> <tspan font-size="12" x="40.1667" y="14">#</tspan><tspan font-family="Verdana,Verdana_MSFontService,sans-serif" font-size="12" x="46.1667" y="14">3</tspan></text><rect x="380.5" y="254.5" width="102" height="30" stroke="#7A797B" stroke-width="0.666667" stroke-linejoin="round" stroke-miterlimit="10" fill="none"/><text font-family="Latha,Latha_MSFontService,sans-serif" font-weight="400" font-size="12" transform="translate(384.221 265)">குறுக்க மதி<tspan font-size="12" x="76.5" y="0">ப்பு</tspan> <tspan font-size="12" x="40.1667" y="14">#</tspan><tspan font-family="Verdana,Verdana_MSFontService,sans-serif" font-size="12" x="46.1667" y="14">4</tspan></text><rect x="493.5" y="254.5" width="102" height="30" stroke="#7A797B" stroke-width="0.666667" stroke-linejoin="round" stroke-miterlimit="10" fill="none"/><text font-family="Latha,Latha_MSFontService,sans-serif" font-weight="400" font-size="12" transform="translate(496.998 265)">குறுக்க மதி<tspan font-size="12" x="76.5" y="0">ப்பு</tspan> <tspan font-size="12" x="40.1667" y="14">#</tspan><tspan font-family="Verdana,Verdana_MSFontService,sans-serif" font-size="12" x="46.1667" y="14">5</tspan></text><rect x="606.5" y="254.5" width="102" height="30" stroke="#7A797B" stroke-width="0.666667" stroke-linejoin="round" stroke-miterlimit="10" fill="none"/><text font-family="Latha,Latha_MSFontService,sans-serif" font-weight="400" font-size="12" transform="translate(609.776 265)">குறுக்க மதி<tspan font-size="12" x="76.5" y="0">ப்பு</tspan> <tspan font-size="12" x="40.1666" y="14">#</tspan><tspan font-family="Verdana,Verdana_MSFontService,sans-serif" font-size="12" x="46.1666" y="14">6</tspan></text><rect x="718.5" y="254.5" width="103" height="30" stroke="#7A797B" stroke-width="0.666667" stroke-linejoin="round" stroke-miterlimit="10" fill="none"/><text font-family="Latha,Latha_MSFontService,sans-serif" font-weight="400" font-size="12" transform="translate(722.553 265)">குறுக்க மதி<tspan font-size="12" x="76.5" y="0">ப்பு</tspan> <tspan font-size="12" x="40.1666" y="14">#</tspan><tspan font-family="Verdana,Verdana_MSFontService,sans-serif" font-size="12" x="46.1666" y="14">7</tspan></text><rect x="831.5" y="254.5" width="103" height="30" stroke="#7A797B" stroke-width="0.666667" stroke-linejoin="round" stroke-miterlimit="10" fill="none"/><text font-family="Latha,Latha_MSFontService,sans-serif" font-weight="400" font-size="12" transform="translate(835.331 265)">குறுக்க மதி<tspan font-size="12" x="76.5" y="0">ப்பு</tspan> <tspan font-size="12" x="40.1667" y="14">#</tspan><tspan font-family="Verdana,Verdana_MSFontService,sans-serif" font-size="12" x="46.1667" y="14">8</tspan></text><rect x="98.5001" y="312.5" width="103" height="30" stroke="#7A797B" stroke-width="0.666667" stroke-linejoin="round" stroke-miterlimit="10" fill="none"/><text font-family="Latha,Latha_MSFontService,sans-serif" font-weight="400" font-size="12" transform="translate(102.276 323)">குறுக்க மதி<tspan font-size="12" x="76.5" y="0">ப்பு</tspan> <tspan font-size="12" x="36.3333" y="14">#</tspan><tspan font-family="Verdana,Verdana_MSFontService,sans-serif" font-size="12" x="42.3333" y="14">12</tspan></text><rect x="324.5" y="312.5" width="102" height="30" stroke="#7A797B" stroke-width="0.666667" stroke-linejoin="round" stroke-miterlimit="10" fill="none"/><text font-family="Latha,Latha_MSFontService,sans-serif" font-weight="400" font-size="12" transform="translate(327.832 323)">குறுக்க மதி<tspan font-size="12" x="76.5" y="0">ப்பு</tspan> <tspan font-size="12" x="36.3333" y="14">#</tspan><tspan font-family="Verdana,Verdana_MSFontService,sans-serif" font-size="12" x="42.3333" y="14">34</tspan></text><rect x="549.5" y="312.5" width="103" height="30" stroke="#7A797B" stroke-width="0.666667" stroke-linejoin="round" stroke-miterlimit="10" fill="none"/><text font-family="Latha,Latha_MSFontService,sans-serif" font-weight="400" font-size="12" transform="translate(553.387 323)">குறுக்க மதி<tspan font-size="12" x="76.5" y="0">ப்பு</tspan> <tspan font-size="12" x="36.3334" y="14">#</tspan><tspan font-family="Verdana,Verdana_MSFontService,sans-serif" font-size="12" x="42.3334" y="14">56</tspan></text><rect x="775.5" y="312.5" width="102" height="30" stroke="#7A797B" stroke-width="0.666667" stroke-linejoin="round" stroke-miterlimit="10" fill="none"/><text font-family="Latha,Latha_MSFontService,sans-serif" font-weight="400" font-size="12" transform="translate(778.942 323)">குறுக்க மதி<tspan font-size="12" x="76.5" y="0">ப்பு</tspan> <tspan font-size="12" x="36.3333" y="14">#</tspan><tspan font-family="Verdana,Verdana_MSFontService,sans-serif" font-size="12" x="42.3333" y="14">78</tspan></text><rect x="216.5" y="367.5" width="102" height="30" stroke="#7A797B" stroke-width="0.666667" stroke-linejoin="round" stroke-miterlimit="10" fill="none"/><text font-family="Latha,Latha_MSFontService,sans-serif" font-weight="400" font-size="12" transform="translate(220.18 378)">குறுக்க மதி<tspan font-size="12" x="76.5" y="0">ப்பு</tspan> <tspan font-size="12" x="28.6667" y="14">#</tspan><tspan font-family="Verdana,Verdana_MSFontService,sans-serif" font-size="12" x="34.6667" y="14">1234</tspan></text><rect x="657.5" y="367.5" width="102" height="30" stroke="#7A797B" stroke-width="0.666667" stroke-linejoin="round" stroke-miterlimit="10" fill="none"/><text font-family="Latha,Latha_MSFontService,sans-serif" font-weight="400" font-size="12" transform="translate(661.038 378)">குறுக்க மதி<tspan font-size="12" x="76.5" y="0">ப்பு</tspan> <tspan font-size="12" x="28.6667" y="14">#</tspan><tspan font-family="Verdana,Verdana_MSFontService,sans-serif" font-size="12" x="34.6667" y="14">5678</tspan></text><rect x="436.5" y="426.5" width="103" height="30" stroke="#7A797B" stroke-width="0.666667" stroke-linejoin="round" stroke-miterlimit="10" fill="none"/><text font-family="Latha,Latha_MSFontService,sans-serif" font-weight="400" font-size="12" transform="translate(440.609 437)">குறுக்க மதி<tspan font-size="12" x="76.5" y="0">ப்பு</tspan> <tspan font-size="12" x="13.3333" y="14">#</tspan><tspan font-family="Verdana,Verdana_MSFontService,sans-serif" font-size="12" x="19.3333" y="14">12345678</tspan></text><path d="M93.8334 240.5 93.8334 247.577 93.1668 247.577 93.1667 240.5ZM97.5001 246.244 93.5002 254.244 89.5001 246.244Z" fill="#7A797B"/><path d="M206.833 240.5 206.833 247.577 206.167 247.577 206.167 240.5ZM210.5 246.244 206.5 254.244 202.5 246.244Z" fill="#7A797B"/><path d="M318.833 240.5 318.833 247.577 318.167 247.577 318.167 240.5ZM322.5 246.244 318.5 254.244 314.5 246.244Z" fill="#7A797B"/><path d="M431.833 240.5 431.833 247.577 431.167 247.577 431.167 240.5ZM435.5 246.244 431.5 254.244 427.5 246.244Z" fill="#7A797B"/><path d="M544.833 240.5 544.833 247.577 544.167 247.577 544.167 240.5ZM548.5 246.244 544.5 254.244 540.5 246.244Z" fill="#7A797B"/><path d="M657.833 240.5 657.833 247.577 657.167 247.577 657.167 240.5ZM661.5 246.244 657.5 254.244 653.5 246.244Z" fill="#7A797B"/><path d="M770.833 240.5 770.833 247.577 770.167 247.577 770.167 240.5ZM774.5 246.244 770.5 254.244 766.5 246.244Z" fill="#7A797B"/><path d="M882.833 240.5 882.833 247.577 882.167 247.577 882.167 240.5ZM886.5 246.244 882.5 254.244 878.5 246.244Z" fill="#7A797B"/><path d="M595 431C595 428.239 597.239 426 600 426L738 426C740.761 426 743 428.239 743 431L743 451C743 453.761 740.761 456 738 456L600 456C597.239 456 595 453.761 595 451Z" fill="#204497" fill-rule="evenodd"/><text fill="#FFFFFF" font-family="Latha,Latha_MSFontService,sans-serif" font-weight="400" font-size="12" transform="translate(603.007 437)">மெர்கல்<tspan font-size="12" x="51.6667" y="0"> </tspan>மர வேரின்<tspan font-size="12" x="132.333" y="0"> </tspan><tspan font-size="12" x="19.1667" y="14">குறுக்க மதிப்பு</tspan></text><path d="M0-0.333333 14.2019-0.333333C14.386-0.333333 14.5352-0.184095 14.5352 0L14.5352 56.3887 14.2019 56.0553 21.7371 56.0553 21.7371 56.722 14.2019 56.722C14.0178 56.722 13.8686 56.5728 13.8686 56.3887L13.8686 0 14.2019 0.333333 0 0.333333ZM20.4038 52.3887 28.4038 56.3887 20.4038 60.3887Z" fill="#7A797B" transform="matrix(1.83697e-16 1 1 -1.83697e-16 93.5001 284.5)"/><path d="M206.222 284.5 206.222 298.702C206.222 298.886 206.073 299.035 205.889 299.035L149.5 299.035 149.833 298.702 149.833 306.237 149.167 306.237 149.167 298.702C149.167 298.518 149.316 298.369 149.5 298.369L205.889 298.369 205.556 298.702 205.556 284.5ZM153.5 304.904 149.5 312.904 145.5 304.904Z" fill="#7A797B"/><path d="M0-0.333333 14.2019-0.333333C14.386-0.333333 14.5352-0.184095 14.5352 0L14.5352 56.3887 14.2019 56.0553 21.7371 56.0553 21.7371 56.722 14.2019 56.722C14.0178 56.722 13.8686 56.5728 13.8686 56.3887L13.8686 0 14.2019 0.333333 0 0.333333ZM20.4038 52.3887 28.4038 56.3887 20.4038 60.3887Z" fill="#7A797B" transform="matrix(1.83697e-16 1 1 -1.83697e-16 318.5 284.5)"/><path d="M432.222 284.5 432.222 298.702C432.222 298.886 432.073 299.035 431.889 299.035L375.5 299.035 375.833 298.702 375.833 306.237 375.167 306.237 375.167 298.702C375.167 298.518 375.316 298.369 375.5 298.369L431.889 298.369 431.556 298.702 431.556 284.5ZM379.5 304.904 375.5 312.904 371.5 304.904Z" fill="#7A797B"/><path d="M0-0.333333 14.202-0.333333C14.386-0.333333 14.5353-0.184095 14.5353 0L14.5353 56.3889 14.202 56.0555 21.7372 56.0555 21.7372 56.7222 14.202 56.7222C14.0179 56.7222 13.8686 56.573 13.8686 56.3889L13.8686 0 14.202 0.333333 0 0.333333ZM20.4039 52.3889 28.4039 56.3889 20.4039 60.3889Z" fill="#7A797B" transform="matrix(1.83697e-16 1 1 -1.83697e-16 544.5 284.5)"/><path d="M657.222 284.5 657.222 298.702C657.222 298.886 657.073 299.035 656.889 299.035L600.5 299.035 600.833 298.702 600.833 306.237 600.167 306.237 600.167 298.702C600.167 298.518 600.316 298.369 600.5 298.369L656.889 298.369 656.556 298.702 656.556 284.5ZM604.5 304.904 600.5 312.904 596.5 304.904Z" fill="#7A797B"/><path d="M0-0.333333 14.202-0.333333C14.386-0.333333 14.5353-0.184095 14.5353 0L14.5353 56.3889 14.202 56.0555 21.7372 56.0555 21.7372 56.7222 14.202 56.7222C14.0179 56.7222 13.8686 56.573 13.8686 56.3889L13.8686 0 14.202 0.333333 0 0.333333ZM20.4039 52.3889 28.4039 56.3889 20.4039 60.3889Z" fill="#7A797B" transform="matrix(1.83697e-16 1 1 -1.83697e-16 770.5 284.5)"/><path d="M883.222 284.5 883.222 298.702C883.222 298.886 883.073 299.035 882.889 299.035L826.5 299.035 826.833 298.702 826.833 306.237 826.167 306.237 826.167 298.702C826.167 298.518 826.316 298.369 826.5 298.369L882.889 298.369 882.556 298.702 882.556 284.5ZM830.5 304.904 826.5 312.904 822.5 304.904Z" fill="#7A797B"/><path d="M0-0.333333 12.3708-0.333333C12.5549-0.333333 12.7041-0.184095 12.7041 0L12.7041 107.651 12.3708 107.318 18.0748 107.318 18.0748 107.985 12.3708 107.985C12.1867 107.985 12.0374 107.835 12.0374 107.651L12.0374 0 12.3708 0.333333 0 0.333333ZM16.7414 103.651 24.7414 107.651 16.7414 111.651Z" fill="#7A797B" transform="matrix(1.83697e-16 1 1 -1.83697e-16 600.5 342.5)"/><path d="M826.737 342.5 826.737 354.871C826.737 355.055 826.588 355.204 826.404 355.204L708.5 355.204 708.833 354.871 708.833 360.575 708.167 360.575 708.167 354.871C708.167 354.687 708.316 354.538 708.5 354.538L826.404 354.538 826.071 354.871 826.071 342.5ZM712.5 359.241 708.5 367.241 704.5 359.241Z" fill="#7A797B"/><path d="M0-0.333333 12.3708-0.333333C12.5549-0.333333 12.7041-0.184095 12.7041 0L12.7041 117.904 12.3708 117.571 18.0748 117.571 18.0748 118.237 12.3708 118.237C12.1867 118.237 12.0374 118.088 12.0374 117.904L12.0374 0 12.3708 0.333333 0 0.333333ZM16.7414 113.904 24.7414 117.904 16.7414 121.904Z" fill="#7A797B" transform="matrix(1.83697e-16 1 1 -1.83697e-16 149.5 342.5)"/><path d="M375.485 342.5 375.485 354.871C375.485 355.055 375.335 355.204 375.151 355.204L267.5 355.204 267.833 354.871 267.833 360.575 267.167 360.575 267.167 354.871C267.167 354.687 267.316 354.538 267.5 354.538L375.151 354.538 374.818 354.871 374.818 342.5ZM271.5 359.242 267.5 367.242 263.5 359.242Z" fill="#7A797B"/><path d="M0-0.333333 14.2019-0.333333C14.386-0.333333 14.5352-0.184095 14.5352 0L14.5352 220.429 14.2019 220.096 21.7371 220.096 21.7371 220.762 14.2019 220.762C14.0178 220.762 13.8686 220.613 13.8686 220.429L13.8686 0 14.2019 0.333333 0 0.333333ZM20.4038 216.429 28.4038 220.429 20.4038 224.429Z" fill="#7A797B" transform="matrix(1.83697e-16 1 1 -1.83697e-16 267.5 397.5)"/><path d="M709.262 397.5 709.262 411.702C709.262 411.886 709.113 412.035 708.929 412.035L488.5 412.035 488.833 411.702 488.833 419.237 488.167 419.237 488.167 411.702C488.167 411.518 488.316 411.369 488.5 411.369L708.929 411.369 708.595 411.702 708.595 397.5ZM492.5 417.904 488.5 425.904 484.5 417.904Z" fill="#7A797B"/></g></svg>