<svg width="379" height="384" xmlns="http://www.w3.org/2000/svg" xmlns:xlink="http://www.w3.org/1999/xlink" overflow="hidden"><defs><clipPath id="clip0"><rect x="576" y="78" width="379" height="384"/></clipPath><clipPath id="clip1"><rect x="648" y="322" width="42" height="42"/></clipPath><clipPath id="clip2"><rect x="648" y="322" width="42" height="42"/></clipPath><clipPath id="clip3"><rect x="648" y="322" width="42" height="42"/></clipPath></defs><g clip-path="url(#clip0)" transform="translate(-576 -78)"><path d="M0 168 94.5 0 189 168Z" fill="#204497" fill-rule="evenodd" transform="matrix(1 0 0 -1 671 415)"/><path d="M671 247 765.5 79 860 247Z" fill="#01919A" fill-rule="evenodd"/><path d="M766 415 860.5 247 955 415Z" fill="#DC7476" fill-rule="evenodd"/><path d="M577 415 671.5 247 766 415Z" fill="#AE5E0E" fill-rule="evenodd"/><path d="M770.998 315C756.002 315 756.002 315 756.002 315 755.974 315.283 755.974 315.283 755.974 315.283 755.974 315.326 755.552 319.954 750.299 320.393 750 320.421 750 320.421 750 320.421 750 320.747 750 320.747 750 320.747 750 325.97 751.089 330.981 753.171 335.256 755.498 339.998 759.009 343.693 763.35 345.915 763.5 346 763.5 346 763.5 346 763.636 345.915 763.636 345.915 763.636 345.915 767.991 343.693 771.502 339.998 773.829 335.256 775.911 330.981 777 325.97 777 320.747 777 320.421 777 320.421 777 320.421 776.701 320.421 776.701 320.421 776.701 320.421 771.461 319.969 771.039 315.481 771.026 315.283 770.998 315 770.998 315 770.998 315" fill="#BCBCBE" fill-rule="evenodd"/><path d="M763 343C759.177 341.002 756.167 337.944 754.052 333.921 752.232 330.442 751.182 326.337 751 322.083 754.529 321.322 756.223 319.012 756.853 317 769.147 317 769.147 317 769.147 317 769.777 319.012 771.471 321.322 775 322.083 774.818 326.337 773.768 330.415 771.948 333.907 769.833 337.93 766.823 341.002 763 343Z" fill="#FFFFFF" fill-rule="evenodd"/><path d="M763 317C756.853 317 756.853 317 756.853 317 756.223 319.012 754.529 321.322 751 322.083 751.182 326.337 752.232 330.428 754.052 333.921 756.167 337.93 759.177 341.002 763 343L763 317Z" fill="#FFFFFF" fill-rule="evenodd"/><path d="M756 316.5C756 316.224 756.224 316 756.5 316 756.776 316 757 316.224 757 316.5 757 316.776 756.776 317 756.5 317 756.224 317 756 316.776 756 316.5Z" fill="#7F7F7F" fill-rule="evenodd"/><path d="M770 316.5C770 316.224 770.224 316 770.5 316 770.776 316 771 316.224 771 316.5 771 316.776 770.776 317 770.5 317 770.224 317 770 316.776 770 316.5Z" fill="#7F7F7F" fill-rule="evenodd"/><path d="M776 321.5C776 321.224 776.224 321 776.5 321 776.776 321 777 321.224 777 321.5 777 321.776 776.776 322 776.5 322 776.224 322 776 321.776 776 321.5Z" fill="#7F7F7F" fill-rule="evenodd"/><path d="M750 321.5C750 321.224 750.224 321 750.5 321 750.776 321 751 321.224 751 321.5 751 321.776 750.776 322 750.5 322 750.224 322 750 321.776 750 321.5Z" fill="#7F7F7F" fill-rule="evenodd"/><path d="M763 344.5C763 344.224 763.224 344 763.5 344 763.776 344 764 344.224 764 344.5 764 344.776 763.776 345 763.5 345 763.224 345 763 344.776 763 344.5Z" fill="#7F7F7F" fill-rule="evenodd"/><path d="M773 333.5C773 333.224 773.224 333 773.5 333 773.776 333 774 333.224 774 333.5 774 333.776 773.776 334 773.5 334 773.224 334 773 333.776 773 333.5Z" fill="#7F7F7F" fill-rule="evenodd"/><path d="M753 333.5C753 333.224 753.224 333 753.5 333 753.776 333 754 333.224 754 333.5 754 333.776 753.776 334 753.5 334 753.224 334 753 333.776 753 333.5Z" fill="#7F7F7F" fill-rule="evenodd"/><path d="M766 326.619C766 325.176 764.889 324 763.507 324 762.125 324 761 325.176 761 326.619 761 327.497 761.442 328.286 762.068 328.762 762.068 332.512 762.068 332.512 762.068 332.512 762.068 333.33 762.709 334 763.493 334 764.276 334 764.917 333.33 764.917 332.512 764.917 328.777 764.917 328.777 764.917 328.777 765.601 328.301 766 327.512 766 326.619Z" fill="#0066A1" fill-rule="evenodd"/><path d="M767.552 168C762.859 168 759 171.511 759 175.781 759 181 759 181 759 181 761.607 181 761.607 181 761.607 181 761.607 175.781 761.607 175.781 761.607 175.781 761.607 172.839 764.319 170.467 767.552 170.467 770.681 170.467 773.393 172.839 773.393 175.781 773.393 181 773.393 181 773.393 181 776 181 776 181 776 181 776 175.781 776 175.781 776 175.781 776 171.511 772.141 168 767.552 168Z" fill="#FFFFFF" fill-rule="evenodd"/><path d="M777.397 181C757.703 181 757.703 181 757.703 181 757.301 181 757 181.305 757 181.611 757 197.287 757 197.287 757 197.287 757 197.695 757.301 198 757.703 198 777.397 198 777.397 198 777.397 198 777.699 198 778 197.695 778 197.287 778 181.611 778 181.611 778 181.611 778 181.305 777.699 181 777.397 181Z" fill="#FFFFFF" fill-rule="evenodd"/><path d="M772.721 185C763.279 185 763.279 185 763.279 185 762.59 185 762 185.562 762 186.219 762 186.781 762 186.781 762 186.781 762 187.438 762.59 188 763.279 188 772.721 188 772.721 188 772.721 188 773.41 188 774 187.438 774 186.781 774 186.219 774 186.219 774 186.219 774 185.562 773.41 185 772.721 185Z" fill="#01919A" fill-rule="evenodd"/><path d="M772.721 191C763.279 191 763.279 191 763.279 191 762.59 191 762 191.484 762 192.161 762 192.839 762 192.839 762 192.839 762 193.516 762.59 194 763.279 194 772.721 194 772.721 194 772.721 194 773.41 194 774 193.516 774 192.839 774 192.161 774 192.161 774 192.161 774 191.484 773.41 191 772.721 191Z" fill="#01919A" fill-rule="evenodd"/><g clip-path="url(#clip1)"><g clip-path="url(#clip2)"><g clip-path="url(#clip3)"><path d="M679.719 349.606C679.019 348.906 677.969 348.556 677.006 348.775L675.037 346.85C676.787 344.575 677.75 341.775 677.75 338.888 677.794 331.581 671.888 325.675 664.625 325.631 657.362 325.587 651.456 331.494 651.412 338.756 651.369 346.019 657.275 351.925 664.537 351.969 667.425 351.969 670.269 351.006 672.588 349.256L674.513 351.181C674.338 352.188 674.644 353.194 675.344 353.938L680.812 359.406C681.994 360.587 683.963 360.587 685.144 359.406 686.325 358.225 686.325 356.256 685.144 355.075L679.719 349.606ZM664.625 349.344C658.806 349.344 654.125 344.663 654.125 338.844 654.125 333.025 658.806 328.344 664.625 328.344 670.444 328.344 675.125 333.025 675.125 338.844 675.125 344.619 670.4 349.344 664.625 349.344Z" fill="#FFFFFF"/><path d="M674.031 338.188 671.537 338.188C671.319 338.231 671.1 338.362 670.969 338.538L669.306 340.331 667.906 335.475C667.775 335.081 667.338 334.819 666.944 334.95 666.725 335.038 666.506 335.169 666.419 335.431L663.794 342.388 662 332.763C661.912 332.325 661.519 332.062 661.125 332.15 660.862 332.194 660.644 332.413 660.513 332.675L658.631 338.188 655.219 338.188 655.219 339.938 659.2 339.938C659.55 339.894 659.856 339.631 659.944 339.281L661.037 335.956 662.787 345.362C662.831 345.712 663.138 345.975 663.487 345.975L663.575 345.975C663.881 345.975 664.188 345.8 664.319 345.494L667.119 338.144 668.256 342.081C668.388 342.475 668.781 342.737 669.219 342.606 669.35 342.562 669.481 342.475 669.569 342.388L671.931 339.938 674.075 339.938 674.075 338.188Z" fill="#FFFFFF"/></g></g></g><path d="M862.618 336.462C862.618 336.308 862.771 336 863.076 336 863.382 336 863.534 336.308 863.534 336.462 863.534 338 863.534 338 863.534 338 863.534 338.308 863.382 338.462 863.076 338.462 862.771 338.462 862.618 338.308 862.618 338 862.618 336.462 862.618 336.462 862.618 336.462ZM863.687 345.077C870.099 339.692 870.099 339.692 870.099 339.692 870.099 339.538 870.252 339.538 870.405 339.692 870.557 339.846 870.405 340 870.405 340 864.145 345.385 864.145 345.385 864.145 345.385 864.145 345.692 864.298 345.846 864.298 346.154 864.145 346.769 863.534 347.231 862.924 347.231 862.313 347.077 861.855 346.462 861.855 345.846 862.008 345.231 862.618 344.769 863.229 344.923 863.382 344.923 863.534 344.923 863.687 345.077ZM872.542 345.538C872.847 345.538 873 345.692 873 346 873 346.308 872.847 346.462 872.542 346.462 871.015 346.462 871.015 346.462 871.015 346.462 870.71 346.462 870.557 346.308 870.557 346 870.557 345.692 870.71 345.538 871.015 345.538 872.542 345.538 872.542 345.538 872.542 345.538ZM855.137 345.538C855.29 345.538 855.595 345.692 855.595 346 855.595 346.308 855.29 346.462 855.137 346.462 853.611 346.462 853.611 346.462 853.611 346.462 853.305 346.462 853 346.308 853 346 853 345.692 853.305 345.538 853.611 345.538 855.137 345.538 855.137 345.538 855.137 345.538ZM862.618 354C862.618 353.692 862.771 353.538 863.076 353.538 863.382 353.538 863.534 353.692 863.534 354 863.534 355.538 863.534 355.538 863.534 355.538 863.534 355.692 863.382 356 863.076 356 862.771 356 862.618 355.692 862.618 355.538 862.618 354 862.618 354 862.618 354ZM854.679 341.538C854.527 341.385 854.527 341.231 854.527 341.077 854.679 340.923 854.832 340.923 854.985 340.923 855.443 341.231 855.443 341.231 855.443 341.231 855.595 341.385 855.595 341.538 855.595 341.692 855.443 341.846 855.29 341.846 855.137 341.846 854.679 341.538 854.679 341.538 854.679 341.538ZM870.71 350.769C870.557 350.769 870.557 350.462 870.557 350.308 870.71 350.154 870.863 350.154 871.015 350.154 871.473 350.462 871.473 350.462 871.473 350.462 871.626 350.615 871.626 350.769 871.626 350.923 871.473 351.077 871.321 351.077 871.168 351.077 870.71 350.769 870.71 350.769 870.71 350.769ZM871.168 340.923C871.321 340.923 871.473 340.923 871.626 341.077 871.626 341.231 871.626 341.385 871.473 341.538 871.015 341.846 871.015 341.846 871.015 341.846 870.863 341.846 870.71 341.846 870.557 341.692 870.557 341.538 870.557 341.385 870.71 341.231 871.168 340.923 871.168 340.923 871.168 340.923ZM855.137 350.154C855.29 350.154 855.443 350.154 855.595 350.308 855.595 350.462 855.595 350.769 855.443 350.769 854.985 351.077 854.985 351.077 854.985 351.077 854.832 351.077 854.679 351.077 854.527 350.923 854.527 350.769 854.527 350.615 854.679 350.462 855.137 350.154 855.137 350.154 855.137 350.154ZM858.038 338C857.885 337.846 858.038 337.538 858.191 337.538 858.344 337.385 858.496 337.538 858.649 337.692 858.802 338 858.802 338 858.802 338 858.954 338.154 858.802 338.462 858.649 338.462 858.496 338.615 858.344 338.462 858.344 338.308 858.038 338 858.038 338 858.038 338ZM867.351 354C867.198 353.846 867.198 353.538 867.351 353.538 867.504 353.385 867.809 353.538 867.809 353.692 868.115 354 868.115 354 868.115 354 868.115 354.154 868.115 354.462 867.962 354.462 867.809 354.615 867.656 354.462 867.504 354.308 867.351 354 867.351 354 867.351 354ZM867.504 337.692C867.656 337.538 867.809 337.385 867.962 337.538 868.115 337.538 868.115 337.846 868.115 338 867.809 338.308 867.809 338.308 867.809 338.308 867.809 338.462 867.504 338.615 867.351 338.462 867.198 338.462 867.198 338.154 867.351 338 867.504 337.692 867.504 337.692 867.504 337.692ZM858.344 353.692C858.344 353.538 858.496 353.385 858.649 353.538 858.802 353.538 858.954 353.846 858.802 354 858.649 354.308 858.649 354.308 858.649 354.308 858.496 354.462 858.344 354.615 858.191 354.462 858.038 354.462 857.885 354.154 858.038 354 858.344 353.692 858.344 353.692 858.344 353.692Z" fill="#FFFFFF" fill-rule="evenodd"/><path d="M873.333 337C873.889 336.167 873.889 336.167 873.889 336.167 874 335.833 874 335.5 873.889 335.167 873.222 334.333 873.222 334.333 873.222 334.333 873.111 334 872.778 334 872.667 334.333 872 335.167 872 335.167 872 335.167 872.444 335.833 872.889 336.333 873.333 337Z" fill="#FFFFFF" fill-rule="evenodd"/><path d="M852.667 337C852.111 336.167 852.111 336.167 852.111 336.167 852 335.833 852 335.5 852.111 335.167 852.667 334.333 852.667 334.333 852.667 334.333 852.889 334 853.222 334 853.333 334.333 854 335.167 854 335.167 854 335.167 853.556 335.833 853.111 336.333 852.667 337Z" fill="#FFFFFF" fill-rule="evenodd"/><path d="M863 360C870.091 360 876 353.948 876 346.5 876 339.052 870.091 333 863 333 855.761 333 850 339.052 850 346.5 850 353.948 855.761 360 863 360ZM863 357.362C868.761 357.362 873.341 352.552 873.341 346.5 873.341 340.448 868.761 335.638 863 335.638 857.239 335.638 852.511 340.448 852.511 346.5 852.511 352.552 857.239 357.362 863 357.362ZM863 358.138C866.102 358.138 868.909 356.741 870.83 354.724 872.898 352.552 874.08 349.759 874.08 346.5 874.08 343.241 872.898 340.448 870.83 338.276 868.909 336.259 866.102 334.862 863 334.862 859.898 334.862 857.091 336.259 855.023 338.276 853.102 340.448 851.773 343.241 851.773 346.5 851.773 349.759 853.102 352.552 855.023 354.724 857.091 356.741 859.898 358.138 863 358.138ZM871.125 355.034C869.057 357.207 866.102 358.448 863 358.448 859.75 358.448 856.943 357.207 854.875 355.034 852.807 352.862 851.477 349.759 851.477 346.5 851.477 343.241 852.807 340.138 854.875 337.966 856.943 335.948 859.75 334.552 863 334.552 866.102 334.552 869.057 335.948 871.125 337.966 873.193 340.138 874.523 343.241 874.523 346.5 874.523 349.759 873.193 352.862 871.125 355.034Z" fill="#FFFFFF" fill-rule="evenodd"/><path d="M862.278 334C864.722 334 864.722 334 864.722 334 864.722 333.077 864.722 333.077 864.722 333.077 865.792 332.769 866.708 332.308 867.472 331.538 868.389 330.615 869 329.231 869 327.692 869 326 868.389 324.615 867.472 323.692 866.403 322.615 865.028 322 863.5 322 861.972 322 860.597 322.615 859.528 323.692 858.611 324.615 858 326 858 327.692 858 329.231 858.611 330.615 859.528 331.538 860.292 332.308 861.208 332.769 862.278 333.077 862.278 334 862.278 334 862.278 334ZM864.722 331.846C864.722 330.154 864.722 330.154 864.722 330.154 865.486 330.154 865.486 330.154 865.486 330.154 865.944 330.154 866.25 329.846 866.25 329.385 866.25 328.923 866.25 328.923 866.25 328.923 866.25 328.462 865.944 328.154 865.486 328.154 861.514 328.154 861.514 328.154 861.514 328.154 861.056 328.154 860.75 328.462 860.75 328.923 860.75 329.385 860.75 329.385 860.75 329.385 860.75 329.846 861.056 330.154 861.514 330.154 862.278 330.154 862.278 330.154 862.278 330.154 862.278 331.846 862.278 331.846 862.278 331.846 861.514 331.692 860.903 331.231 860.292 330.769 859.528 330 859.069 328.923 859.069 327.692 859.069 326.462 859.528 325.231 860.292 324.462 861.208 323.692 862.278 323.077 863.5 323.077 864.722 323.077 865.792 323.692 866.556 324.462 867.472 325.231 867.931 326.462 867.931 327.692 867.931 328.923 867.472 330 866.556 330.769 866.097 331.231 865.486 331.692 864.722 331.846Z" fill="#FFFFFF" fill-rule="evenodd"/><path d="M863 343.242C863.529 343.242 864.059 342.939 864.412 342.636 864.765 342.333 864.941 341.879 864.941 341.424 864.941 340.97 864.765 340.667 864.412 340.364 864.412 340.212 864.412 340.212 864.412 340.212 864.059 339.909 863.529 339.758 863 339.758 862.471 339.758 861.941 340.061 861.588 340.364 861.235 340.667 861.059 340.97 861.059 341.424 861.059 341.879 861.235 342.333 861.588 342.636 861.588 342.636 861.588 342.636 861.588 342.636 861.941 342.939 862.471 343.242 863 343.242ZM865.118 343.242C864.588 343.697 863.882 344 863 344 862.118 344 861.412 343.697 860.882 343.242 860.882 343.242 860.882 343.242 860.882 343.242 860.882 343.242 860.882 343.242 860.882 343.242 860.353 342.788 860 342.182 860 341.424 860 340.818 860.353 340.212 860.882 339.758 860.882 339.758 860.882 339.758 860.882 339.758 861.412 339.303 862.118 339 863 339 863.706 339 864.588 339.152 865.118 339.606 865.118 339.758 865.118 339.758 865.118 339.758 865.647 340.212 866 340.818 866 341.424 866 342.182 865.647 342.788 865.118 343.242Z" fill="#FFFFFF" fill-rule="evenodd"/><text fill="#FFFFFF" font-family="Latha,Latha_MSFontService,sans-serif" font-weight="700" font-size="13" transform="translate(703.1 222)">இரகசியத்தன்மை<tspan font-family="Verdana,Verdana_MSFontService,sans-serif" font-size="13" x="12.3333" y="17">Confidentiality</tspan><tspan font-size="13" x="-90.6877" y="157">நம்பகத்தன்மை</tspan><tspan font-family="Verdana,Verdana_MSFontService,sans-serif" font-size="13" x="-65.1877" y="174">Integrity</tspan><tspan font-size="13" x="84.8087" y="169">கிடைக்கும்தன்மை</tspan><tspan font-family="Verdana,Verdana_MSFontService,sans-serif" font-size="13" x="114.975" y="186">Availability</tspan><tspan font-size="13" x="30.1386" y="67">தகவல் </tspan><tspan font-size="13" x="22.0586" y="83">பாதுகாப்பு</tspan><tspan fill="#000000" font-weight="400" font-size="13" x="-19.4232" y="211">பாதுகாப்பு </tspan><tspan fill="#000000" font-weight="400" font-size="13" x="58.7435" y="211">முக்கோ</tspan><tspan fill="#000000" font-weight="400" font-size="13" x="118.244" y="211">ணம்</tspan><tspan fill="#000000" font-family="Verdana,Verdana_MSFontService,sans-serif" font-weight="400" font-size="13" x="13.2435" y="228">(Security Triad)</tspan></text></g></svg>