<svg width="3258" height="1220" xmlns="http://www.w3.org/2000/svg" xmlns:xlink="http://www.w3.org/1999/xlink" xml:space="preserve" overflow="hidden"><defs><clipPath id="clip0"><rect x="39" y="391" width="3258" height="1220"/></clipPath><clipPath id="clip1"><rect x="492" y="1045" width="196" height="195"/></clipPath><clipPath id="clip2"><rect x="492" y="1045" width="196" height="195"/></clipPath><clipPath id="clip3"><rect x="492" y="1045" width="196" height="195"/></clipPath><clipPath id="clip4"><rect x="401" y="694" width="196" height="195"/></clipPath><clipPath id="clip5"><rect x="401" y="694" width="196" height="195"/></clipPath><clipPath id="clip6"><rect x="401" y="694" width="196" height="195"/></clipPath><clipPath id="clip7"><rect x="1621" y="881" width="293" height="293"/></clipPath><clipPath id="clip8"><rect x="1621" y="881" width="293" height="293"/></clipPath><clipPath id="clip9"><rect x="1621" y="881" width="293" height="293"/></clipPath></defs><g clip-path="url(#clip0)" transform="translate(-39 -391)"><path d="M1072 1027C1072 964.592 1122.37 914 1184.5 914 1246.63 914 1297 964.592 1297 1027 1297 1089.41 1246.63 1140 1184.5 1140 1122.37 1140 1072 1089.41 1072 1027Z" fill="#01919A" fill-rule="evenodd"/><path d="M1250.5 972.209 1250.5 1092.23 1207.9 1092.23 1207.9 1092.23 1120.5 1092.5 1120.5 1084.88 1207.9 1084.34 1207.9 1070.18 1120.5 1071.82 1120.5 1063.92 1207.9 1062.02 1207.9 1044.6 1120.5 1048.41 1120.5 1041.88 1207.9 1036.16 1207.9 1019.29 1120.5 1026.37 1120.5 1019.29 1207.9 1010.85 1207.9 993.709 1120.5 1004.05 1120.5 997.247 1207.9 985.817 1207.9 971.665 1120.5 982.823 1120.5 978.196 1207.9 963.772 1207.9 963.5 1250.5 972.209Z" stroke="#FFFFFF" stroke-width="3.4375" stroke-linejoin="round" stroke-miterlimit="10" fill="#FFFFFF" fill-rule="evenodd"/><text font-family="Latha,Latha_MSFontService,sans-serif" font-weight="400" font-size="46" transform="translate(173.808 941)">புதிய மனித அடையாளம்</text><rect x="116" y="436" width="766" height="222" stroke="#79787A" stroke-width="2.29167" stroke-linejoin="round" stroke-miterlimit="10" fill="#FFFFFF"/><text font-family="Latha,Latha_MSFontService,sans-serif" font-weight="400" font-size="46" transform="translate(160.095 476)">அரசு வழங்கிய அடையாள <tspan font-size="46" x="45.2604" y="55">அட்டையை பணியாளர் </tspan><tspan font-size="46" x="-5.45418" y="111">நிறுவனத்திடம் கொடுத்</tspan>தல்<tspan font-size="46" x="671.733" y="111">.</tspan><tspan font-size="46" x="49.2708" y="166">எ</tspan>.<tspan font-size="46" x="98.5416" y="166">கா</tspan><tspan font-size="46" x="163.281" y="166">. </tspan>ஓட்டுனர் உரிமம்<tspan font-size="46" x="907.598" y="701">நிறுவனம்</tspan></text><rect x="1418" y="1362" width="689" height="222" stroke="#79787A" stroke-width="2.29167" stroke-linejoin="round" stroke-miterlimit="10" fill="#FFFFFF"/><text font-family="Latha,Latha_MSFontService,sans-serif" font-weight="400" font-size="46" transform="translate(1418.25 1402)">பயன்பாடு அல்லது <tspan font-size="46" x="0" y="55">சாதனத்தின் அடையாள</tspan><tspan font-size="46" x="592.969" y="55">ம் </tspan><tspan font-size="46" x="0" y="110">சொத்து விவரப்பட்டிய</tspan><tspan font-size="46" x="556.302" y="110">லில் </tspan><tspan font-size="46" x="0" y="166">உருவாக்கப்படுகிறது</tspan></text><path d="M1297 1025.85 1597.75 1025.85 1597.75 1028.15 1297 1028.15ZM1593.16 1013.25 1620.66 1027 1593.16 1040.75Z" fill="#79787A"/><path d="M1914 1025.85 2329.09 1025.85 2329.09 1028.15 1914 1028.15ZM2324.51 1013.25 2352.01 1027 2324.51 1040.75Z" fill="#79787A"/><g clip-path="url(#clip1)"><g clip-path="url(#clip2)"><g clip-path="url(#clip3)"><path d="M509.77 1190.86C509.77 1198.46 515.815 1204.51 523.42 1204.51L657.58 1204.51C665.185 1204.51 671.23 1198.46 671.23 1190.86L671.23 1110.52 509.77 1110.52 509.77 1190.86ZM616.24 1134.7C614.68 1133.14 614.68 1130.8 616.24 1129.24 617.8 1127.68 620.14 1127.68 621.7 1129.24L646.66 1154.2C648.22 1155.76 648.22 1158.1 646.66 1159.66L621.7 1184.62C620.92 1185.4 619.945 1185.79 618.97 1185.79 617.995 1185.79 617.02 1185.4 616.24 1184.62 614.68 1183.06 614.68 1180.72 616.24 1179.16L638.47 1156.93 616.24 1134.7ZM573.73 1179.94 600.64 1130.02C601.615 1128.07 603.955 1127.48 605.905 1128.46 607.855 1129.43 608.44 1131.77 607.465 1133.72L580.555 1183.64C579.775 1185.01 578.41 1185.79 577.045 1185.79 576.46 1185.79 575.875 1185.59 575.29 1185.4 573.34 1184.23 572.56 1181.89 573.73 1179.94ZM534.34 1154 559.3 1129.04C560.86 1127.48 563.2 1127.48 564.76 1129.04 566.32 1130.6 566.32 1132.94 564.76 1134.51L542.53 1156.73 564.76 1178.96C566.32 1180.52 566.32 1182.86 564.76 1184.42 563.98 1185.2 563.005 1185.59 562.03 1185.59 561.055 1185.59 560.08 1185.2 559.3 1184.42L534.34 1159.66C532.78 1158.1 532.78 1155.56 534.34 1154Z" fill="#79787A"/><path d="M657.58 1080.49 523.42 1080.49C515.815 1080.49 509.77 1086.54 509.77 1094.14L509.77 1102.72 671.23 1102.72 671.23 1094.14C671.23 1086.73 664.99 1080.49 657.58 1080.49ZM521.665 1098.43C517.96 1098.43 515.035 1095.51 515.035 1091.8 515.035 1088.09 517.96 1085.17 521.665 1085.17 525.37 1085.17 528.295 1088.09 528.295 1091.8 528.295 1095.51 525.37 1098.43 521.665 1098.43ZM541.75 1098.43C538.045 1098.43 535.12 1095.51 535.12 1091.8 535.12 1088.09 538.045 1085.17 541.75 1085.17 545.455 1085.17 548.38 1088.09 548.38 1091.8 548.38 1095.51 545.455 1098.43 541.75 1098.43ZM562.03 1098.43C558.325 1098.43 555.4 1095.51 555.4 1091.8 555.4 1088.09 558.325 1085.17 562.03 1085.17 565.735 1085.17 568.66 1088.09 568.66 1091.8 568.66 1095.51 565.735 1098.43 562.03 1098.43Z" fill="#79787A"/></g></g></g><g clip-path="url(#clip4)"><g clip-path="url(#clip5)"><g clip-path="url(#clip6)"><path d="M27.0425 117.87C28.8061 117.87 29.9819 116.694 29.9819 114.93L29.9819 95.2365 94.0607 95.2365 94.0607 117.87C94.0607 119.633 95.2365 120.809 97.0001 120.809 98.7637 120.809 99.9395 119.633 99.9395 117.87L99.9395 95.2365 164.018 95.2365 164.018 114.93C164.018 116.694 165.194 117.87 166.958 117.87 168.721 117.87 169.897 116.694 169.897 114.93L169.897 92.2971C169.897 90.5334 168.721 89.3577 166.958 89.3577L99.9395 89.3577 99.9395 75.8364C99.9395 74.0728 98.7637 72.897 97.0001 72.897 95.2365 72.897 94.0607 74.0728 94.0607 75.8364L94.0607 89.3577 27.0425 89.3577C25.2788 89.3577 24.1031 90.5334 24.1031 92.2971L24.1031 114.93C24.1031 116.4 25.5728 117.87 27.0425 117.87Z" fill="#79787A" transform="matrix(1 0 0 1.00515 402 694)"/><path d="M69.9577 66.1364 123.749 66.1364C125.218 66.1364 126.394 64.9607 126.394 63.491L126.394 48.5001C126.394 40.2697 120.809 33.8031 113.167 32.0394 109.64 37.0364 103.761 40.5637 97.0001 40.5637 90.2395 40.5637 84.3607 37.3303 80.8334 32.0394 73.191 33.5091 67.6061 40.2697 67.6061 48.5001L67.6061 63.491C67.6061 64.9607 68.7819 66.1364 69.9577 66.1364ZM97.0001 64.6667 93.1789 61.4334 94.3547 49.3819 99.3516 49.3819 100.527 61.4334 97.0001 64.6667ZM100.821 44.6788 99.3516 48.2061 94.9425 48.2061 93.4728 44.6788 100.821 44.6788Z" fill="#79787A" transform="matrix(1 0 0 1.00515 402 694)"/><path d="M97.0001 37.9182C106.406 37.9182 114.343 29.9819 113.755 19.9879 113.167 12.0515 106.994 5.58486 99.3516 4.4091 89.0637 2.9394 80.2455 10.8758 80.2455 21.1637 80.2455 30.5697 87.888 37.9182 97.0001 37.9182Z" fill="#79787A" transform="matrix(1 0 0 1.00515 402 694)"/><path d="M48.5001 155.788C44.9728 160.785 39.094 164.312 32.3334 164.312 25.5728 164.312 19.694 161.079 16.1667 155.788 8.81819 157.552 2.9394 164.312 2.9394 172.249L2.9394 187.24C2.9394 188.709 4.11516 189.885 5.58486 189.885L59.3758 189.885C60.8455 189.885 62.0213 188.709 62.0213 187.24L62.0213 172.249C61.7273 164.018 56.1425 157.552 48.5001 155.788ZM32.3334 188.121 28.5122 184.888 29.6879 172.837 34.6849 172.837 35.8606 184.888 32.3334 188.121ZM34.6849 171.367 30.2758 171.367 28.8061 167.84 36.4485 167.84 34.6849 171.367Z" fill="#79787A" transform="matrix(1 0 0 1.00515 402 694)"/><path d="M32.3334 161.373C41.4455 161.373 49.0879 154.024 49.0879 144.618 49.0879 134.624 40.5637 126.688 30.2758 127.864 22.9273 128.746 16.7546 134.33 15.5788 141.679 14.1091 152.261 22.3394 161.373 32.3334 161.373Z" fill="#79787A" transform="matrix(1 0 0 1.00515 402 694)"/><path d="M113.167 155.788C109.64 160.785 103.761 164.312 97.0001 164.312 90.2395 164.312 84.3607 161.079 80.8334 155.788 73.191 157.258 67.6061 164.018 67.6061 172.249L67.6061 187.24C67.6061 188.709 68.7819 189.885 70.2516 189.885L124.043 189.885C125.512 189.885 126.688 188.709 126.688 187.24L126.688 172.249C126.394 164.018 120.809 157.552 113.167 155.788ZM97.0001 188.121 93.1789 184.888 94.3547 172.837 99.3516 172.837 100.527 184.888 97.0001 188.121ZM99.3516 171.367 94.9425 171.367 93.4728 167.84 101.115 167.84 99.3516 171.367Z" fill="#79787A" transform="matrix(1 0 0 1.00515 402 694)"/><path d="M80.5395 141.679C78.7758 152.261 87.0062 161.373 97.0001 161.373 106.112 161.373 113.755 154.024 113.755 144.618 113.755 134.624 105.23 126.688 94.9425 127.864 87.888 128.746 81.7152 134.33 80.5395 141.679Z" fill="#79787A" transform="matrix(1 0 0 1.00515 402 694)"/><path d="M177.834 155.788C174.306 160.785 168.427 164.312 161.667 164.312 154.906 164.312 149.027 161.079 145.5 155.788 137.858 157.258 132.273 164.018 132.273 172.249L132.273 187.24C132.273 188.709 133.449 189.885 134.918 189.885L188.709 189.885C190.179 189.885 191.061 188.709 191.061 187.24L191.061 172.249C191.061 164.018 185.476 157.552 177.834 155.788ZM161.667 188.121 157.846 184.888 159.021 172.837 164.018 172.837 165.194 184.888 161.667 188.121ZM163.724 171.367 159.315 171.367 157.846 167.84 165.488 167.84 163.724 171.367Z" fill="#79787A" transform="matrix(1 0 0 1.00515 402 694)"/><path d="M144.912 141.679C143.149 152.261 151.379 161.373 161.373 161.373 170.485 161.373 178.127 154.024 178.127 144.618 178.127 134.624 169.603 126.688 159.315 127.864 152.261 128.746 146.088 134.33 144.912 141.679Z" fill="#79787A" transform="matrix(1 0 0 1.00515 402 694)"/></g></g></g><text font-family="Latha,Latha_MSFontService,sans-serif" font-weight="400" font-size="46" transform="translate(93.8248 1261)">புதிய மனிதரல்லாத அடையாளம்</text><rect x="67" y="1355" width="913" height="222" stroke="#79787A" stroke-width="2.29167" stroke-linejoin="round" stroke-miterlimit="10" fill="#FFFFFF"/><text font-family="Latha,Latha_MSFontService,sans-serif" font-weight="400" font-size="46" transform="translate(66.6438 1395)">சாதன வரிசை எண், தயாரிப்பு <tspan font-size="46" x="0" y="55">நிறுவனம்</tspan><tspan font-size="46" x="245.781" y="55">, </tspan>மாதிரி அல்லது <tspan font-size="46" x="0" y="110">பயன்பாட்டு அடையாளங்காட்</tspan>டிகள் <tspan font-size="46" x="0" y="165">நிறுவனத்துடன் பகிரப்படுகி</tspan>ன்றன</text><rect x="1328" y="436" width="879" height="222" stroke="#79787A" stroke-width="2.29167" stroke-linejoin="round" stroke-miterlimit="10" fill="#FFFFFF"/><text font-family="Latha,Latha_MSFontService,sans-serif" font-weight="400" font-size="46" transform="translate(1327.88 476)">அரசு வழங்கிய அடையாள <tspan font-size="46" x="0" y="55">அட்டையை அடிப்படையாக </tspan><tspan font-size="46" x="0" y="110">மனிதவள பயன்பாட்டில் புதி</tspan><tspan font-size="46" x="712.708" y="110">ய </tspan><tspan font-size="46" x="0" y="166">அடையாளம் உருவாக்கப்படு</tspan><tspan font-size="46" x="712.708" y="166">கிறது</tspan>.</text><g clip-path="url(#clip7)"><g clip-path="url(#clip8)"><g clip-path="url(#clip9)"><path d="M1665 930.215C1651.74 930.215 1640.92 941.047 1640.92 954.297L1640.92 1100.8C1640.92 1114.05 1651.74 1124.8 1665 1124.8L1870.1 1124.8C1883.35 1124.8 1894.08 1114.05 1894.08 1100.8L1894.08 954.297C1894.08 941.047 1883.34 930.215 1870.1 930.215L1665 930.215ZM1744.11 953.655 1790.99 953.655C1797.74 953.655 1803.25 959.26 1803.25 966.017 1803.25 972.773 1797.74 978.285 1790.99 978.285L1744.11 978.285C1737.35 978.285 1731.75 972.773 1731.75 966.017 1731.75 959.26 1737.34 953.655 1744.11 953.655ZM1744.11 960.705C1741.12 960.705 1738.79 963.034 1738.79 966.017 1738.79 969 1741.12 971.235 1744.11 971.235L1790.99 971.235C1793.97 971.235 1796.21 969 1796.21 966.017 1796.21 963.034 1793.96 960.705 1790.99 960.705L1744.11 960.705ZM1668.2 1002.55 1760.59 1002.55C1763.37 1002.55 1764.89 1004.96 1764.89 1007.04L1764.89 1095.03C1764.89 1097.11 1763.37 1099.6 1760.59 1099.6L1668.2 1099.6C1665.42 1099.6 1663.9 1097.11 1663.9 1095.03L1663.9 1007.04C1663.9 1004.96 1665.42 1002.55 1668.2 1002.55ZM1670.95 1009.6 1670.95 1092.57 1675.8 1092.57C1676.89 1075.75 1687.6 1061.04 1702.54 1055.74 1697.44 1051.96 1693.93 1046.1 1693.93 1039.18 1693.93 1027.79 1702.83 1018.3 1713.98 1018.3 1725.14 1018.3 1734.12 1027.79 1734.12 1039.18 1734.12 1045.95 1730.74 1051.75 1725.79 1055.56 1741.14 1060.69 1752.59 1075.52 1753.72 1092.57L1757.93 1092.57 1757.93 1009.6 1670.95 1009.6ZM1781.83 1012.26C1781.95 1012.25 1782.08 1012.25 1782.2 1012.26L1864.24 1012.26C1866.18 1012.26 1867.76 1013.83 1867.76 1015.78 1867.76 1017.73 1866.18 1019.3 1864.24 1019.3L1782.2 1019.3C1780.25 1019.41 1778.59 1017.92 1778.48 1015.97 1778.38 1014.02 1779.87 1012.36 1781.82 1012.26 1781.82 1012.26 1781.83 1012.26 1781.83 1012.26ZM1713.98 1025.36C1706.78 1025.36 1700.89 1031.45 1700.89 1039.18 1700.89 1046.92 1706.78 1052.9 1713.98 1052.9 1721.18 1052.9 1727.17 1046.92 1727.17 1039.18 1727.17 1031.45 1721.18 1025.36 1713.98 1025.36ZM1781.83 1047.42C1781.95 1047.42 1782.08 1047.42 1782.2 1047.42L1864.24 1047.42C1866.18 1047.42 1867.76 1049 1867.76 1050.93 1867.76 1052.9 1866.18 1054.48 1864.24 1054.48L1782.2 1054.48C1780.25 1054.57 1778.59 1053.07 1778.48 1051.14 1778.38 1049.18 1779.87 1047.51 1781.82 1047.42 1781.82 1047.42 1781.83 1047.42 1781.83 1047.42ZM1714.44 1060.52C1697.94 1060.52 1684.43 1075.22 1683.03 1092.57L1746.4 1092.57C1744.94 1075.28 1730.96 1060.52 1714.44 1060.52ZM1781.83 1082.58C1781.95 1082.58 1782.08 1082.58 1782.2 1082.58L1864.24 1082.58C1866.18 1082.58 1867.76 1084.16 1867.76 1086.09 1867.76 1088.06 1866.18 1089.64 1864.24 1089.64L1782.2 1089.64C1780.25 1089.73 1778.59 1088.23 1778.48 1086.3 1778.38 1084.34 1779.87 1082.67 1781.82 1082.58 1781.82 1082.58 1781.83 1082.58 1781.83 1082.58Z" fill="#01919A"/></g></g></g><rect x="2352" y="409" width="920" height="333" stroke="#79787A" stroke-width="2.29167" stroke-linejoin="round" stroke-miterlimit="10" fill="none"/><text font-family="Latha,Latha_MSFontService,sans-serif" font-weight="400" font-size="46" transform="translate(2351.65 450)">மனிதவளம்</text><text font-family="Verdana,Verdana_MSFontService,sans-serif" font-weight="400" font-size="46" transform="matrix(1 0 0 1 2642.69 450)">(</text><text font-family="Latha,Latha_MSFontService,sans-serif" font-weight="400" font-size="46" transform="translate(2663.32 450)">பணியாளர் எண்<tspan font-size="46" x="402.188" y="0">)</tspan><tspan font-size="46" x="-311.667" y="55">செயற்படு அடைவு</tspan></text><text font-family="Verdana,Verdana_MSFontService,sans-serif" font-weight="400" font-size="46" transform="matrix(1 0 0 1 2836.91 505)">(</text><text font-family="Latha,Latha_MSFontService,sans-serif" font-weight="400" font-size="46" transform="translate(2857.54 505)">பயனர் பெ<tspan font-size="46" x="260.677" y="0">யர்</tspan><tspan font-size="46" x="335.156" y="0">)</tspan><tspan font-size="46" x="-505.885" y="54">மின்னஞ்சல் முகவரி</tspan><tspan font-size="46" x="-505.885" y="109">ஊதியம் </tspan><tspan font-size="46" x="-279.583" y="109">(</tspan>பணியாளர் எண்<tspan font-size="46" x="136.354" y="109">)</tspan><tspan font-size="46" x="-505.885" y="164">ஒத்துழைப்பு </tspan><tspan font-size="46" x="-175.885" y="164">(</tspan>மின்னஞ்சல் மு<tspan font-size="46" x="233.75" y="164">கவரி</tspan><tspan font-size="46" x="362.083" y="164">)</tspan><tspan font-size="46" x="-505.885" y="220">இலக்கமுறைச் சான்றிதழ்</tspan></text><rect x="2479" y="1364" width="667" height="167" stroke="#79787A" stroke-width="2.29167" stroke-linejoin="round" stroke-miterlimit="10" fill="none"/><text font-family="Latha,Latha_MSFontService,sans-serif" font-weight="400" font-size="46" transform="translate(2478.99 1404)">செயற்படு அடைவில் <tspan font-size="46" x="0" y="55">சேவை கணக்கு</tspan><tspan font-size="46" x="0" y="111">இலக்கமுறைச் சான்றி</tspan><tspan font-size="46" x="564.323" y="111">தழ்</tspan></text><rect x="2352" y="944" width="920" height="167" stroke="#79787A" stroke-width="2.29167" stroke-linejoin="round" stroke-miterlimit="10" fill="#FFFFFF"/><text font-family="Latha,Latha_MSFontService,sans-serif" font-weight="400" font-size="46" transform="translate(2351.65 984)">அதிகாரம் வழங்கும் அமைப்பு<tspan font-size="46" x="742.5" y="0"> </tspan><tspan font-size="46" x="768.854" y="0">இந்த </tspan><tspan font-size="46" x="0" y="55">அடையாளத்திற்கு தேவையா</tspan><tspan font-size="46" x="728.75" y="55">ன </tspan><tspan font-size="46" x="0" y="111">கணக்குளை உருவாக்குகிறது</tspan></text><path d="M472.563 1080C430.872 1080 430.872 1080 430.872 1080 427.068 1080 423.265 1083.58 423.265 1087.16 423.265 1190.84 423.265 1190.84 423.265 1190.84 423.265 1194.42 427.068 1198 430.872 1198 472.563 1198 472.563 1198 472.563 1198 476.367 1198 479 1194.42 479 1190.84 479 1087.16 479 1087.16 479 1087.16 479 1083.58 476.367 1080 472.563 1080ZM451.059 1184.64C448.719 1184.64 446.671 1182.72 446.671 1180.38 446.671 1178.04 448.719 1176.25 451.059 1176.25 453.546 1176.25 455.594 1178.04 455.594 1180.38 455.594 1182.72 453.546 1184.64 451.059 1184.64ZM472.417 1109.19C472.417 1109.88 471.832 1110.43 471.1 1110.43 432.627 1110.43 432.627 1110.43 432.627 1110.43 431.749 1110.43 431.164 1109.88 431.164 1109.19 431.164 1103.96 431.164 1103.96 431.164 1103.96 431.164 1103.27 431.749 1102.58 432.627 1102.58 471.1 1102.58 471.1 1102.58 471.1 1102.58 471.832 1102.58 472.417 1103.27 472.417 1103.96L472.417 1109.19ZM472.417 1095.56C472.417 1096.39 471.832 1096.94 471.1 1096.94 432.627 1096.94 432.627 1096.94 432.627 1096.94 431.749 1096.94 431.164 1096.39 431.164 1095.56 431.164 1090.46 431.164 1090.46 431.164 1090.46 431.164 1089.78 431.749 1089.09 432.627 1089.09 471.1 1089.09 471.1 1089.09 471.1 1089.09 471.832 1089.09 472.417 1089.78 472.417 1090.46L472.417 1095.56ZM405.564 1080C290.29 1080 290.29 1080 290.29 1080 286.487 1080 284 1083.58 284 1087.16 284 1171.84 284 1171.84 284 1171.84 284 1175.42 286.487 1178.86 290.29 1178.86 334.615 1178.86 334.615 1178.86 334.615 1178.86 334.615 1189.6 334.615 1189.6 334.615 1189.6 316.914 1190.84 303.017 1194.42 303.017 1198 392.837 1198 392.837 1198 392.837 1198 392.837 1194.42 378.94 1190.84 361.239 1189.6 361.239 1178.86 361.239 1178.86 361.239 1178.86 405.564 1178.86 405.564 1178.86 405.564 1178.86 409.367 1178.86 411.854 1175.42 411.854 1171.84 411.854 1087.16 411.854 1087.16 411.854 1087.16 411.854 1083.58 409.367 1080 405.564 1080ZM401.761 1168.26C294.094 1168.26 294.094 1168.26 294.094 1168.26 294.094 1090.74 294.094 1090.74 294.094 1090.74 401.761 1090.74 401.761 1090.74 401.761 1090.74L401.761 1168.26Z" fill="#79787A" fill-rule="evenodd"/><path d="M1.14583-2.05242e-06 1.14615 178.563-1.14551 178.563-1.14583 2.05242e-06ZM13.7503 173.98 0.000360892 201.48-13.7497 173.98Z" fill="#79787A" transform="matrix(1 0 0 -1 2812 943.48)"/><path d="M2813.15 1111 2813.81 1341.86 2811.52 1341.87 2810.85 1111ZM2826.4 1337.24 2812.73 1364.78 2798.9 1337.32Z" fill="#79787A"/><path d="M596 790.854 833.61 790.854C834.243 790.854 834.756 791.367 834.756 792L834.756 1027.54 833.61 1026.39 1048.3 1026.39 1048.3 1028.68 833.61 1028.68C832.978 1028.68 832.464 1028.17 832.464 1027.54L832.464 792 833.61 793.146 596 793.146ZM1043.72 1013.79 1071.22 1027.54 1043.72 1041.29Z" fill="#79787A"/><path d="M0-1.14583 145.884-1.14583C146.517-1.14583 147.03-0.632826 147.03 0L147.03 114.886 145.884 113.74 360.513 113.74 360.513 116.032 145.884 116.032C145.251 116.032 144.738 115.519 144.738 114.886L144.738 0 145.884 1.14583 0 1.14583ZM355.93 101.136 383.43 114.886 355.93 128.636Z" fill="#79787A" transform="matrix(1 0 0 -1 688 1141.89)"/><text font-family="Latha,Latha_MSFontService,sans-serif" font-weight="400" font-size="46" transform="translate(1614.22 1177)">அடையாளம்</text></g></svg>