<svg width="1875" height="717" xmlns="http://www.w3.org/2000/svg" xmlns:xlink="http://www.w3.org/1999/xlink" xml:space="preserve" overflow="hidden"><defs><clipPath id="clip0"><rect x="1355" y="928" width="1875" height="717"/></clipPath></defs><g clip-path="url(#clip0)" transform="translate(-1355 -928)"><path d="M1376.5 932.5 1811.7 932.5 1920.5 1020.5 1811.7 1108.5 1376.5 1108.5 1376.5 932.5Z" stroke="#FFFFFF" stroke-width="9.16667" stroke-linejoin="round" stroke-miterlimit="10" fill="#FC9A05" fill-rule="evenodd"/><text fill="#FFFFFF" font-family="Latha,Latha_MSFontService,sans-serif" font-weight="400" font-size="46" transform="translate(1448.16 1032)">பதிவு செய்தல்</text><path d="M1811.5 932.5 2246.7 932.5 2355.5 1020.5 2246.7 1108.5 1811.5 1108.5 1920.3 1020.5 1811.5 932.5Z" stroke="#FFFFFF" stroke-width="9.16667" stroke-linejoin="round" stroke-miterlimit="10" fill="#FC9A05" fill-rule="evenodd"/><text fill="#FFFFFF" font-family="Latha,Latha_MSFontService,sans-serif" font-weight="400" font-size="46" transform="translate(1951.67 1032)">சான்றுறுதி</text><path d="M2246.5 932.5 2681.7 932.5 2790.5 1020.5 2681.7 1108.5 2246.5 1108.5 2355.3 1020.5 2246.5 932.5Z" stroke="#FFFFFF" stroke-width="9.16667" stroke-linejoin="round" stroke-miterlimit="10" fill="#FC9A05" fill-rule="evenodd"/><text fill="#FFFFFF" font-family="Latha,Latha_MSFontService,sans-serif" font-weight="400" font-size="46" transform="translate(2391.62 1032)">சுயசேவை</text><path d="M2681.5 932.5 3116.7 932.5 3225.5 1020.5 3116.7 1108.5 2681.5 1108.5 2790.3 1020.5 2681.5 932.5Z" stroke="#FFFFFF" stroke-width="9.16667" stroke-linejoin="round" stroke-miterlimit="10" fill="#FC9A05" fill-rule="evenodd"/><text fill="#FFFFFF" font-family="Latha,Latha_MSFontService,sans-serif" font-weight="400" font-size="46" transform="translate(2866.22 1032)">ஆதரவு</text><path d="M1378.5 1199.5 2001.5 1199.5 2089.5 1287.5 2001.5 1375.5 1378.5 1375.5Z" stroke="#FFFFFF" stroke-width="9.16667" stroke-linejoin="round" stroke-miterlimit="10" fill="#AE5E0E" fill-rule="evenodd"/><text fill="#FFFFFF" font-family="Latha,Latha_MSFontService,sans-serif" font-weight="400" font-size="46" transform="translate(1584.64 1298)">சுயசேவை</text><path d="M1946.5 1199.5 2515.3 1199.5 2657.5 1287.5 2515.3 1375.5 1946.5 1375.5 2088.7 1287.5 1946.5 1199.5Z" stroke="#FFFFFF" stroke-width="9.16667" stroke-linejoin="round" stroke-miterlimit="10" fill="#AE5E0E" fill-rule="evenodd"/><text fill="#FFFFFF" font-family="Latha,Latha_MSFontService,sans-serif" font-weight="400" font-size="46" transform="translate(2214.54 1298)">ஆதரவு</text><path d="M2515.5 1199.5 3083.5 1199.5 3225.5 1287.5 3083.5 1375.5 2515.5 1375.5 2657.5 1287.5 2515.5 1199.5Z" stroke="#FFFFFF" stroke-width="9.16667" stroke-linejoin="round" stroke-miterlimit="10" fill="#AE5E0E" fill-rule="evenodd"/><text fill="#FFFFFF" font-family="Latha,Latha_MSFontService,sans-serif" font-weight="400" font-size="46" transform="translate(2664.6 1298)">தனிப்பயனாக்கம்</text><path d="M1359.5 1464.5 1815.5 1464.5 1903.5 1552.5 1815.5 1640.5 1359.5 1640.5Z" stroke="#FFFFFF" stroke-width="9.16667" stroke-linejoin="round" stroke-miterlimit="10" fill="#204497" fill-rule="evenodd"/><text fill="#FFFFFF" font-family="Latha,Latha_MSFontService,sans-serif" font-weight="400" font-size="46" transform="translate(1464.12 1538)">பாதுகாப்<tspan font-size="46" x="209.115" y="0">பு </tspan><tspan font-size="46" x="268.698" y="0">&amp; </tspan><tspan font-size="46" x="2.29163" y="51">தனியுரிமை</tspan><tspan fill="#000000" font-size="46" x="414.585" y="-378">வாடிக்கையாளர் சேர்க்கை </tspan><tspan fill="#000000" font-size="46" x="1095.21" y="-378">&amp; </tspan><tspan fill="#000000" font-size="46" x="1149.06" y="-378">ஈ</tspan><tspan fill="#000000" font-size="46" x="1187.45" y="-378">டுபாடு</tspan><tspan fill="#000000" font-size="46" x="215.497" y="-112">இலச்சினை விசுவாசம் </tspan><tspan fill="#000000" font-size="46" x="812.476" y="-112">&amp; </tspan><tspan fill="#000000" font-size="46" x="866.33" y="-112">வாடிக்கையாளர்</tspan><tspan fill="#000000" font-size="46" x="1267.94" y="-112"> </tspan><tspan fill="#000000" font-size="46" x="1294.3" y="-112">அனுபவம்</tspan><tspan fill="#000000" font-size="46" x="480.794" y="33">வாடிக்கையாளர் நம்பிக்கை</tspan></text></g></svg>