<svg width="2925" height="857" xmlns="http://www.w3.org/2000/svg" xmlns:xlink="http://www.w3.org/1999/xlink" xml:space="preserve" overflow="hidden"><defs><clipPath id="clip0"><rect x="248" y="843" width="2925" height="857"/></clipPath></defs><g clip-path="url(#clip0)" transform="translate(-248 -843)"><rect x="249" y="1210" width="1160" height="200" stroke="#79787A" stroke-width="2.29167" stroke-linejoin="round" stroke-miterlimit="10" fill="none"/><text font-family="Latha,Latha_MSFontService,sans-serif" font-weight="400" font-size="46" transform="translate(281.886 1266)">புதிய அணுகல் <tspan font-size="46" x="399.896" y="0">/ </tspan>அணுகலில் <tspan font-size="46" x="0" y="55">மாற்றத்திற்கான கோரிக்கையை சு</tspan>ய <tspan font-size="46" x="0" y="110">சேவை அமைப்பில் பயனர் எழுப்பு</tspan>கிறார்</text><rect x="249" y="904" width="1160" height="200" stroke="#79787A" stroke-width="2.29167" stroke-linejoin="round" stroke-miterlimit="10" fill="none"/><text font-family="Latha,Latha_MSFontService,sans-serif" font-weight="400" font-size="46" transform="translate(281.886 961)">தேவையான அனுமதி நிலைகளின் <tspan font-size="46" x="0" y="55">அடிப்படையில் அனுமதியளிப்பவர்</tspan><tspan font-size="46" x="859.948" y="55">(</tspan>கள்<tspan font-size="46" x="958.49" y="55">) </tspan><tspan font-size="46" x="0" y="111">கோரிக்கைகளை மதிப்பாய்வு செய்</tspan>கிறார்கள்</text><rect x="1188" y="1490" width="1104" height="200" stroke="#79787A" stroke-width="2.29167" stroke-linejoin="round" stroke-miterlimit="10" fill="none"/><text font-family="Latha,Latha_MSFontService,sans-serif" font-weight="400" font-size="46" transform="translate(1307.91 1547)">சுயசேவை அமைப்பில் கோரிக்கை<tspan font-size="46" x="864.531" y="0"> </tspan><tspan font-size="46" x="-3.13965" y="55">நிலை புதுப்பிக்கப்படுகிறது ம</tspan>ற்றும் <tspan font-size="46" x="-49.5459" y="110">பயனருக்கு அறிவிப்பு அனுப்பபடு</tspan>கிறது</text><rect x="2129" y="849" width="1028" height="311" stroke="#79787A" stroke-width="2.29167" stroke-linejoin="round" stroke-miterlimit="10" fill="none"/><text font-family="Latha,Latha_MSFontService,sans-serif" font-weight="400" font-size="46" transform="translate(2161.74 905)">அடையாளம் மேலாண்மை குழு<tspan font-size="46" x="803.229" y="0">விற்கு </tspan><tspan font-size="46" x="0" y="55">கோரிக்கை அனுப்பபடுகிறது அ</tspan><tspan font-size="46" x="779.74" y="55">ல்லது </tspan><tspan font-size="46" x="0" y="110">தானியங்கி வழங்கல் அமைப்பு</tspan> <tspan font-size="46" x="0" y="165">அங்கீகரிக்கப்பட்ட கோரிக்கையை</tspan><tspan font-size="46" x="837.031" y="165"> </tspan><tspan font-size="46" x="0" y="221">செயலாக்கம் செய்கிறது</tspan></text><rect x="2138" y="1242" width="1010" height="200" stroke="#79787A" stroke-width="2.29167" stroke-linejoin="round" stroke-miterlimit="10" fill="none"/><text font-family="Latha,Latha_MSFontService,sans-serif" font-weight="400" font-size="46" transform="translate(2170.81 1298)">பயனர் கோரிக்கையின்படி புதிய <tspan font-size="46" x="0" y="55">அணுகல் அல்லது அணுகலில் </tspan><tspan font-size="46" x="0" y="110">மாற்றம் வழங்கப்படுகிறது</tspan></text><path d="M1962 1002.85 2105.98 1002.85 2105.98 1005.15 1962 1005.15ZM2101.39 990.25 2128.89 1004 2101.39 1017.75Z" fill="#79787A"/><path d="M1.14583-5.03451e-06 1.14609 59.221-1.14557 59.221-1.14583 5.03451e-06ZM13.7502 54.6376 0.000360892 82.1377-13.7498 54.6377Z" fill="#79787A" transform="matrix(-1 0 0 1 2643 1160)"/><path d="M2644.2 1442 2644.2 1590.48C2644.2 1591.11 2643.69 1591.63 2643.05 1591.63L2314.92 1591.63 2314.92 1589.33 2643.05 1589.33 2641.91 1590.48 2641.91 1442ZM2319.5 1604.23 2292 1590.48 2319.5 1576.73Z" fill="#79787A"/><path d="M1741.15 1164 1741.15 1326.93C1741.15 1327.56 1740.63 1328.07 1740 1328.07L1740 1328.07 1741.15 1326.93 1741.15 1466.94 1738.85 1466.94 1738.85 1326.93C1738.85 1326.29 1739.37 1325.78 1740 1325.78L1740 1325.78 1738.85 1326.93 1738.85 1164ZM1753.75 1462.35 1740 1489.85 1726.25 1462.35Z" fill="#79787A"/><path d="M827.854 1209.68 827.854 1156.84C827.854 1156.21 828.367 1155.69 829 1155.69L829.001 1155.69 827.855 1156.84 827.855 1126.92 830.147 1126.92 830.147 1156.84C830.147 1157.47 829.634 1157.99 829.001 1157.99L829 1157.99 830.146 1156.84 830.146 1209.68ZM815.251 1131.5 829.001 1104 842.751 1131.5Z" fill="#79787A"/><path d="M1519 1004 1740.5 844 1962 1004 1740.5 1164Z" stroke="#79787A" stroke-width="2.29167" stroke-linejoin="round" stroke-miterlimit="10" fill="none" fill-rule="evenodd"/><text font-family="Latha,Latha_MSFontService,sans-serif" font-weight="400" font-size="46" transform="translate(1637.07 962)">ஒப்புத<tspan font-size="46" x="155.833" y="0">ல் </tspan><tspan font-size="46" x="-6.0271" y="55">அளிக்க</tspan><tspan font-size="46" x="178.452" y="55">ப்</tspan><tspan font-size="46" x="19.4791" y="111">பட்டது</tspan></text><path d="M1409 1002.85 1495.97 1002.85 1495.97 1005.15 1409 1005.15ZM1491.39 990.25 1518.89 1004 1491.39 1017.75Z" fill="#79787A"/><text font-family="Latha,Latha_MSFontService,sans-serif" font-weight="400" font-size="46" transform="translate(1908.85 960)">ஆம்<tspan font-size="46" x="-157.881" y="248">இல்லை</tspan></text></g></svg>