<svg width="3116" height="1195" xmlns="http://www.w3.org/2000/svg" xmlns:xlink="http://www.w3.org/1999/xlink" xml:space="preserve" overflow="hidden"><defs><clipPath id="clip0"><rect x="120" y="500" width="3116" height="1195"/></clipPath><clipPath id="clip1"><rect x="1547" y="507" width="457" height="455"/></clipPath><clipPath id="clip2"><rect x="1547" y="507" width="457" height="455"/></clipPath><clipPath id="clip3"><rect x="1547" y="507" width="457" height="455"/></clipPath><clipPath id="clip4"><rect x="1712" y="986" width="131" height="131"/></clipPath><clipPath id="clip5"><rect x="1712" y="986" width="131" height="131"/></clipPath><clipPath id="clip6"><rect x="1712" y="986" width="131" height="131"/></clipPath><clipPath id="clip7"><rect x="1548" y="986" width="131" height="131"/></clipPath><clipPath id="clip8"><rect x="1548" y="986" width="131" height="131"/></clipPath><clipPath id="clip9"><rect x="1548" y="986" width="131" height="131"/></clipPath><clipPath id="clip10"><rect x="1877" y="986" width="131" height="131"/></clipPath><clipPath id="clip11"><rect x="1877" y="986" width="131" height="131"/></clipPath><clipPath id="clip12"><rect x="1877" y="986" width="131" height="131"/></clipPath><clipPath id="clip13"><rect x="905" y="510" width="455" height="455"/></clipPath><clipPath id="clip14"><rect x="905" y="510" width="455" height="455"/></clipPath><clipPath id="clip15"><rect x="905" y="510" width="455" height="455"/></clipPath><clipPath id="clip16"><rect x="933" y="991" width="131" height="130"/></clipPath><clipPath id="clip17"><rect x="933" y="991" width="131" height="130"/></clipPath><clipPath id="clip18"><rect x="933" y="991" width="131" height="130"/></clipPath><clipPath id="clip19"><rect x="1082" y="991" width="131" height="130"/></clipPath><clipPath id="clip20"><rect x="1082" y="991" width="131" height="130"/></clipPath><clipPath id="clip21"><rect x="1082" y="991" width="131" height="130"/></clipPath><clipPath id="clip22"><rect x="1229" y="991" width="131" height="130"/></clipPath><clipPath id="clip23"><rect x="1229" y="991" width="131" height="130"/></clipPath><clipPath id="clip24"><rect x="1229" y="991" width="131" height="130"/></clipPath><clipPath id="clip25"><rect x="2451" y="500" width="456" height="455"/></clipPath><clipPath id="clip26"><rect x="2451" y="500" width="456" height="455"/></clipPath><clipPath id="clip27"><rect x="2451" y="500" width="456" height="455"/></clipPath><clipPath id="clip28"><rect x="2776" y="981" width="131" height="130"/></clipPath><clipPath id="clip29"><rect x="2776" y="981" width="131" height="130"/></clipPath><clipPath id="clip30"><rect x="2776" y="981" width="131" height="130"/></clipPath><clipPath id="clip31"><rect x="2613" y="981" width="132" height="130"/></clipPath><clipPath id="clip32"><rect x="2613" y="981" width="132" height="130"/></clipPath><clipPath id="clip33"><rect x="2613" y="981" width="132" height="130"/></clipPath><clipPath id="clip34"><rect x="2451" y="981" width="131" height="130"/></clipPath><clipPath id="clip35"><rect x="2451" y="981" width="131" height="130"/></clipPath><clipPath id="clip36"><rect x="2451" y="981" width="131" height="130"/></clipPath><clipPath id="clip37"><rect x="203" y="510" width="455" height="455"/></clipPath><clipPath id="clip38"><rect x="203" y="510" width="455" height="455"/></clipPath><clipPath id="clip39"><rect x="203" y="510" width="455" height="455"/></clipPath><clipPath id="clip40"><rect x="203" y="991" width="132" height="130"/></clipPath><clipPath id="clip41"><rect x="203" y="991" width="132" height="130"/></clipPath><clipPath id="clip42"><rect x="203" y="991" width="132" height="130"/></clipPath><clipPath id="clip43"><rect x="530" y="991" width="130" height="130"/></clipPath><clipPath id="clip44"><rect x="530" y="991" width="130" height="130"/></clipPath><clipPath id="clip45"><rect x="530" y="991" width="130" height="130"/></clipPath><clipPath id="clip46"><rect x="367" y="991" width="131" height="130"/></clipPath><clipPath id="clip47"><rect x="367" y="991" width="131" height="130"/></clipPath><clipPath id="clip48"><rect x="367" y="991" width="131" height="130"/></clipPath></defs><g clip-path="url(#clip0)" transform="translate(-120 -500)"><path d="M121 1552.67C121 1537.39 133.387 1525 148.666 1525L3207.33 1525C3222.61 1525 3235 1537.39 3235 1552.67L3235 1663.33C3235 1678.61 3222.61 1691 3207.33 1691L148.666 1691C133.387 1691 121 1678.61 121 1663.33Z" fill="#204497" fill-rule="evenodd"/><text fill="#FFFFFF" font-family="Latha,Latha_MSFontService,sans-serif" font-weight="400" font-size="50" transform="translate(1120.13 1596)">இந்த தகவல் கைப்பற்றப்பட்ட சூழ்நிலை<tspan font-size="46" x="-527.083" y="56">எ</tspan><tspan font-size="46" x="-489.271" y="56">.</tspan><tspan font-size="46" x="-477.812" y="56">கா</tspan><tspan font-size="46" x="-413.073" y="56">.</tspan><tspan font-size="46" x="-385.573" y="56">இருப்பிடம்</tspan></text><text fill="#FFFFFF" font-family="Verdana,Verdana_MSFontService,sans-serif" font-weight="400" font-size="46" transform="matrix(1 0 0 1 1004.41 1652)">,</text><text fill="#FFFFFF" font-family="Latha,Latha_MSFontService,sans-serif" font-weight="400" font-size="46" transform="translate(1021.02 1652)"> <tspan font-size="46" x="26.3542" y="0">இ</tspan>.<tspan font-size="46" x="87.6562" y="0">நெறி</tspan><tspan font-size="46" x="210.26" y="0">. </tspan><tspan font-size="46" x="248.073" y="0">முகவரி</tspan></text><text fill="#FFFFFF" font-family="Verdana,Verdana_MSFontService,sans-serif" font-weight="400" font-size="46" transform="matrix(1 0 0 1 1464.46 1652)">, </text><text fill="#FFFFFF" font-family="Latha,Latha_MSFontService,sans-serif" font-weight="400" font-size="46" transform="translate(1497.11 1652)">அணுகும் சாதனம்</text><text fill="#FFFFFF" font-family="Verdana,Verdana_MSFontService,sans-serif" font-weight="400" font-size="46" transform="matrix(1 0 0 1 1948 1652)">, </text><text fill="#FFFFFF" font-family="Latha,Latha_MSFontService,sans-serif" font-weight="400" font-size="46" transform="translate(1980.66 1652)">இதர தொடர்புடைய தகவல்கள்</text><rect x="1549" y="1130" width="455" height="367" stroke="#79787A" stroke-width="2.29167" stroke-linejoin="round" stroke-miterlimit="10" fill="none"/><text font-family="Latha,Latha_MSFontService,sans-serif" font-weight="400" font-size="46" transform="translate(1582.27 1188)">வயது<tspan font-size="46" x="0" y="54">பாலினம்</tspan><tspan font-size="46" x="0" y="109">விழித்திரை</tspan><tspan font-size="46" x="0" y="165">கை ரேகை</tspan><tspan font-size="46" x="0" y="219">குரல்</tspan><tspan font-size="46" x="0" y="275">முகம்</tspan></text><g clip-path="url(#clip1)"><g clip-path="url(#clip2)"><g clip-path="url(#clip3)"><path d="M213.029 0C278.597 0 321.756 61.8613 321.756 123.335 321.756 184.865 278.597 246.671 213.029 246.671 147.46 246.671 104.356 184.865 104.356 123.335 104.356 61.8613 147.46 0 213.029 0ZM213.029 29.99C164.226 29.99 134.291 78.5163 134.291 123.335 134.291 168.21 164.226 216.736 213.029 216.736 261.832 216.736 291.766 168.21 291.766 123.335 291.766 78.5163 261.832 29.99 213.029 29.99Z" fill="#01919A" transform="matrix(1.0022 0 0 1 1562 507)"/><path d="M4.4819 435.519C16.9316 384.005 65.7899 254.306 130.639 253.974L131.69 253.974C184.145 257.516 241.912 257.516 294.367 253.974L295.418 253.974C360.212 254.306 409.126 384.06 421.575 435.519L426.057 454 0 454 4.4819 435.519ZM38.9538 424.01 387.104 424.01C376.59 391.253 336.641 285.458 296.082 283.854 242.299 287.45 183.813 287.45 130.031 283.854 89.3614 285.458 49.5223 391.253 38.9538 424.01Z" fill="#01919A" transform="matrix(1.0022 0 0 1 1562 507)"/></g></g></g><text fill="#01919A" font-family="Latha,Latha_MSFontService,sans-serif" font-weight="400" font-size="48" transform="translate(1622.86 903)">உயிரளவை</text><g clip-path="url(#clip4)"><g clip-path="url(#clip5)"><g clip-path="url(#clip6)"><path d="M1772.2 1001.57C1800.12 998.298 1825.43 1018.24 1828.78 1046.15 1828.99 1047.94 1830.62 1049.23 1832.41 1049.02 1834.21 1048.8 1835.49 1047.18 1835.28 1045.38 1831.54 1013.87 1802.97 991.362 1771.46 995.099 1739.95 998.836 1717.44 1027.41 1721.18 1058.92 1721.37 1060.55 1722.75 1061.79 1724.4 1061.79L1724.79 1061.79C1726.57 1061.58 1727.85 1059.96 1727.64 1058.18 1727.64 1058.18 1727.64 1058.18 1727.64 1058.17 1724.34 1030.25 1744.28 1004.92 1772.2 1001.57Z" fill="#01919A"/><path d="M1767.5 1108.46C1769.1 1109.26 1771.05 1108.61 1771.85 1107 1780.37 1089.92 1783.7 1070.72 1781.42 1051.77 1781.21 1049.97 1779.58 1048.69 1777.79 1048.9 1775.99 1049.11 1774.71 1050.74 1774.92 1052.53 1777.06 1070.22 1773.97 1088.14 1766.04 1104.09 1765.23 1105.69 1765.88 1107.65 1767.49 1108.45 1767.49 1108.46 1767.49 1108.46 1767.5 1108.46Z" fill="#01919A"/><path d="M1816.22 1093.3C1816.44 1093.32 1816.65 1093.32 1816.87 1093.3 1818.41 1093.3 1819.75 1092.21 1820.05 1090.7 1822.95 1076.3 1823.54 1061.52 1821.8 1046.93 1820.9 1039.37 1818.04 1032.17 1813.52 1026.04 1812.44 1024.6 1810.4 1024.31 1808.97 1025.39 1807.53 1026.47 1807.24 1028.5 1808.32 1029.94 1812.17 1035.16 1814.6 1041.29 1815.36 1047.74 1817.03 1061.65 1816.47 1075.73 1813.71 1089.47 1813.35 1091.22 1814.47 1092.93 1816.22 1093.3Z" fill="#01919A"/><path d="M1737.22 1085.03C1740.91 1076.02 1742.25 1066.22 1741.12 1056.55 1738.68 1036.05 1753.33 1017.46 1773.83 1015.03 1781.37 1014.13 1789.01 1015.56 1795.72 1019.11 1797.31 1019.95 1799.27 1019.34 1800.11 1017.76 1800.95 1016.17 1800.35 1014.2 1798.76 1013.36 1777.36 1002 1750.8 1010.14 1739.43 1031.54 1735.24 1039.44 1733.56 1048.43 1734.62 1057.32 1735.63 1065.89 1734.46 1074.57 1731.2 1082.56 1730.52 1084.22 1731.32 1086.12 1732.98 1086.8 1734.64 1087.48 1736.54 1086.68 1737.22 1085.02Z" fill="#01919A"/><path d="M1782.35 1109.04C1784 1109.76 1785.92 1109 1786.63 1107.35 1786.63 1107.35 1786.63 1107.34 1786.63 1107.34 1794.36 1089.33 1797.21 1069.6 1794.89 1050.14 1793.62 1040.95 1785.15 1034.52 1775.96 1035.79 1767.03 1037.01 1760.66 1045.07 1761.53 1054.04 1761.99 1057.95 1762.16 1061.89 1762.04 1065.82 1761.98 1067.61 1763.38 1069.11 1765.18 1069.17 1765.18 1069.17 1765.18 1069.17 1765.18 1069.17 1766.95 1069.25 1768.45 1067.88 1768.53 1066.11 1768.53 1066.08 1768.54 1066.05 1768.54 1066.03 1768.67 1061.78 1768.48 1057.52 1767.98 1053.3 1767.01 1047.7 1770.76 1042.37 1776.37 1041.4 1781.97 1040.43 1787.3 1044.18 1788.27 1049.79 1788.33 1050.17 1788.38 1050.55 1788.4 1050.93 1790.57 1069.25 1787.88 1087.82 1780.6 1104.77 1779.9 1106.42 1780.67 1108.33 1782.32 1109.03 1782.33 1109.03 1782.34 1109.04 1782.35 1109.04Z" fill="#01919A"/><path d="M1754.27 1104.35C1755.85 1105.2 1757.81 1104.62 1758.67 1103.05 1761.74 1097.28 1764.14 1091.17 1765.81 1084.85 1766.26 1083.11 1765.22 1081.34 1763.49 1080.88 1761.75 1080.42 1759.97 1081.46 1759.51 1083.2 1757.98 1089.07 1755.77 1094.74 1752.92 1100.1 1752.18 1101.65 1752.77 1103.52 1754.27 1104.35Z" fill="#01919A"/><path d="M1805.1 1052.22C1806.9 1052.22 1808.35 1050.77 1808.35 1048.97 1808.35 1048.87 1808.35 1048.78 1808.35 1048.67L1808.35 1048.57C1806.34 1031.92 1791.21 1020.05 1774.56 1022.07 1772.54 1022.31 1770.55 1022.76 1768.63 1023.4 1766.92 1023.96 1766 1025.8 1766.56 1027.51 1767.12 1029.21 1768.96 1030.14 1770.67 1029.57 1772.2 1029.05 1773.79 1028.68 1775.4 1028.47 1788.45 1026.93 1800.28 1036.23 1801.88 1049.27 1802.03 1050.94 1803.43 1052.21 1805.1 1052.22Z" fill="#01919A"/><path d="M1798.7 1104.97C1800.4 1105.54 1802.24 1104.62 1802.8 1102.92 1806.67 1091.39 1808.83 1079.35 1809.2 1067.2 1809.25 1065.41 1807.84 1063.91 1806.05 1063.86 1804.28 1063.78 1802.78 1065.15 1802.7 1066.92 1802.7 1066.95 1802.7 1066.97 1802.7 1067 1802.36 1078.5 1800.34 1089.89 1796.69 1100.8 1796.09 1102.49 1796.96 1104.35 1798.65 1104.96 1798.67 1104.96 1798.68 1104.97 1798.7 1104.97Z" fill="#01919A"/><path d="M1742.78 1097.19C1744.38 1098.01 1746.34 1097.38 1747.16 1095.79 1747.16 1095.79 1747.16 1095.79 1747.16 1095.78 1753.65 1083.22 1756.21 1068.99 1754.52 1054.95 1753.87 1049.42 1755.17 1043.84 1758.2 1039.17 1759.24 1037.71 1758.9 1035.68 1757.44 1034.64 1755.97 1033.6 1753.95 1033.94 1752.9 1035.4 1752.85 1035.48 1752.8 1035.55 1752.75 1035.63 1748.91 1041.58 1747.26 1048.68 1748.1 1055.72 1749.63 1068.48 1747.29 1081.4 1741.39 1092.82 1740.57 1094.41 1741.2 1096.36 1742.78 1097.19Z" fill="#01919A"/><path d="M1841.7 997.088C1841.69 992.359 1837.86 988.528 1833.13 988.521L1826.1 988.521C1824.3 988.521 1822.85 989.976 1822.85 991.771 1822.85 993.566 1824.3 995.021 1826.1 995.021L1833.09 995.021C1834.24 994.999 1835.18 995.907 1835.2 997.049 1835.2 997.062 1835.2 997.075 1835.2 997.088L1835.2 1004.08C1835.2 1005.88 1836.65 1007.33 1838.45 1007.33 1840.24 1007.33 1841.7 1005.88 1841.7 1004.08Z" fill="#01919A"/><path d="M1714.3 1004.08C1714.3 1005.88 1715.76 1007.33 1717.55 1007.33 1719.34 1007.33 1720.8 1005.88 1720.8 1004.08L1720.8 997.088C1720.8 995.946 1721.73 995.021 1722.87 995.021L1729.9 995.021C1731.69 995.021 1733.15 993.566 1733.15 991.771 1733.15 989.976 1731.69 988.521 1729.9 988.521L1722.87 988.521C1718.14 988.528 1714.31 992.359 1714.3 997.088Z" fill="#01919A"/><path d="M1714.3 1106.91C1714.31 1111.64 1718.14 1115.47 1722.87 1115.48L1729.9 1115.48C1731.69 1115.48 1733.15 1114.02 1733.15 1112.23 1733.15 1110.43 1731.69 1108.98 1729.9 1108.98L1722.87 1108.98C1721.73 1108.98 1720.8 1108.05 1720.8 1106.91L1720.8 1099.92C1720.8 1098.12 1719.34 1096.67 1717.55 1096.67 1715.76 1096.67 1714.3 1098.12 1714.3 1099.92Z" fill="#01919A"/><path d="M1841.7 1106.91 1841.7 1099.92C1841.7 1098.12 1840.24 1096.67 1838.45 1096.67 1836.65 1096.67 1835.2 1098.12 1835.2 1099.92L1835.2 1106.91C1835.2 1108.05 1834.27 1108.98 1833.13 1108.98L1826.1 1108.98C1824.3 1108.98 1822.85 1110.43 1822.85 1112.23 1822.85 1114.02 1824.3 1115.48 1826.1 1115.48L1833.09 1115.48C1837.83 1115.49 1841.69 1111.66 1841.7 1106.92 1841.7 1106.92 1841.7 1106.92 1841.7 1106.91Z" fill="#01919A"/></g></g></g><g clip-path="url(#clip7)"><g clip-path="url(#clip8)"><g clip-path="url(#clip9)"><path d="M8404.03 4107.13 8404.03 4104.53C8404.03 4100.89 8397.53 4099.33 8391.42 4099.33 8385.31 4099.33 8378.81 4101.02 8378.81 4104.53L8378.81 4107.13C8378.81 4109.47 8379.72 4111.81 8381.41 4113.5L8387.91 4119.87C8388.3 4120.26 8388.43 4120.65 8388.43 4121.17L8388.43 4129.49C8388.43 4130.01 8388.69 4130.4 8389.21 4130.53L8392.98 4131.7C8393.63 4131.83 8394.28 4131.44 8394.28 4130.66L8394.28 4121.3C8394.28 4120.78 8394.54 4120.39 8394.8 4120L8401.43 4113.5C8403.12 4111.81 8404.03 4109.47 8404.03 4107.13ZM8391.42 4107C8385.18 4107 8381.8 4105.31 8381.67 4104.66L8381.67 4104.66C8381.8 4104.01 8385.18 4102.32 8391.42 4102.32 8397.66 4102.32 8400.91 4104.01 8401.17 4104.66 8400.91 4105.31 8397.66 4107 8391.42 4107Z" fill="#01919A"/><path d="M8397.92 4120.39C8397.14 4120.39 8396.62 4120.91 8396.62 4121.69 8396.62 4122.47 8397.14 4122.99 8397.92 4122.99L8403.51 4122.99C8404.29 4122.99 8404.81 4122.47 8404.81 4121.69 8404.81 4120.91 8404.29 4120.39 8403.51 4120.39L8397.92 4120.39Z" fill="#01919A"/><path d="M8403.51 4124.81 8397.92 4124.81C8397.14 4124.81 8396.62 4125.33 8396.62 4126.11 8396.62 4126.89 8397.14 4127.41 8397.92 4127.41L8403.51 4127.41C8404.29 4127.41 8404.81 4126.89 8404.81 4126.11 8404.81 4125.33 8404.29 4124.81 8403.51 4124.81Z" fill="#01919A"/><path d="M8403.51 4129.1 8397.92 4129.1C8397.14 4129.1 8396.62 4129.62 8396.62 4130.4 8396.62 4131.18 8397.14 4131.7 8397.92 4131.7L8403.51 4131.7C8404.29 4131.7 8404.81 4131.18 8404.81 4130.4 8404.81 4129.75 8404.29 4129.1 8403.51 4129.1Z" fill="#01919A"/><path d="M1557.97 1033.54 1565.64 1033.54C1566.81 1033.54 1567.72 1032.63 1567.72 1031.46L1567.72 1008.19C1567.72 1004.94 1570.45 1002.21 1573.7 1002.21L1596.97 1002.21C1598.14 1002.21 1599.05 1001.3 1599.05 1000.13L1599.05 992.33C1599.05 991.16 1598.14 990.25 1596.97 990.25L1573.7 990.25C1563.82 990.25 1555.76 998.31 1555.76 1008.19L1555.76 1031.46C1555.89 1032.5 1556.8 1033.54 1557.97 1033.54Z" fill="#01919A"/><path d="M1654.3 990.25 1631.03 990.25C1629.86 990.25 1628.95 991.16 1628.95 992.33L1628.95 1000C1628.95 1001.17 1629.86 1002.08 1631.03 1002.08L1654.3 1002.08C1657.55 1002.08 1660.28 1004.81 1660.28 1008.06L1660.28 1031.33C1660.28 1032.5 1661.19 1033.41 1662.36 1033.41L1670.03 1033.41C1671.2 1033.41 1672.11 1032.5 1672.11 1031.33L1672.11 1008.19C1672.11 998.31 1664.18 990.25 1654.3 990.25Z" fill="#01919A"/><path d="M1670.03 1070.46 1662.36 1070.46C1661.19 1070.46 1660.28 1071.37 1660.28 1072.54L1660.28 1095.81C1660.28 1099.06 1657.55 1101.79 1654.3 1101.79L1631.03 1101.79C1629.86 1101.79 1628.95 1102.7 1628.95 1103.87L1628.95 1111.54C1628.95 1112.71 1629.86 1113.62 1631.03 1113.62L1654.3 1113.62C1664.18 1113.62 1672.24 1105.56 1672.24 1095.68L1672.24 1072.67C1672.11 1071.5 1671.2 1070.46 1670.03 1070.46Z" fill="#01919A"/><path d="M1596.97 1101.79 1573.7 1101.79C1570.45 1101.79 1567.72 1099.06 1567.72 1095.81L1567.72 1072.67C1567.72 1071.5 1566.81 1070.59 1565.64 1070.59L1557.97 1070.59C1556.8 1070.59 1555.89 1071.5 1555.89 1072.67L1555.89 1095.94C1555.89 1105.82 1563.95 1113.88 1573.83 1113.88L1597.1 1113.88C1598.27 1113.88 1599.18 1112.97 1599.18 1111.8L1599.18 1104.13C1599.05 1102.7 1598.14 1101.79 1596.97 1101.79Z" fill="#01919A"/><path d="M1660.02 1056.29C1661.97 1053.82 1661.97 1050.31 1660.02 1047.71 1655.86 1042.25 1639.87 1024.18 1614 1024.18 1588.13 1024.18 1572.14 1042.25 1567.98 1047.71 1566.03 1050.18 1566.03 1053.69 1567.98 1056.29 1572.27 1061.75 1588.13 1079.82 1614 1079.82 1639.87 1079.82 1655.86 1061.75 1660.02 1056.29ZM1589.04 1064.35C1582.15 1060.06 1577.47 1054.99 1575.13 1052 1577.47 1049.01 1582.15 1043.94 1589.04 1039.65 1587.22 1043.42 1586.18 1047.71 1586.18 1052 1586.18 1056.29 1587.22 1060.45 1589.04 1064.35ZM1614 1032.5C1624.79 1032.5 1633.5 1041.21 1633.5 1052 1633.5 1062.79 1624.79 1071.5 1614 1071.5 1603.21 1071.5 1594.5 1062.79 1594.5 1052 1594.5 1041.21 1603.21 1032.5 1614 1032.5ZM1638.96 1064.35C1640.78 1060.58 1641.82 1056.29 1641.82 1052 1641.82 1047.71 1640.78 1043.55 1638.96 1039.65 1645.85 1043.94 1650.53 1049.01 1652.87 1052 1650.53 1054.99 1645.85 1060.06 1638.96 1064.35Z" fill="#01919A"/><path d="M1614 1065.52C1621.54 1065.52 1627.52 1059.41 1627.52 1052 1627.52 1044.59 1621.41 1038.48 1614 1038.48 1612.18 1038.48 1610.36 1038.87 1608.67 1039.52L1607.24 1040.17 1608.8 1040.69C1610.88 1041.34 1612.18 1043.16 1612.18 1045.37 1612.18 1048.1 1609.97 1050.31 1607.24 1050.31 1605.16 1050.31 1603.21 1049.01 1602.56 1046.93L1602.04 1045.5 1601.39 1046.93C1600.74 1048.62 1600.35 1050.44 1600.35 1052.26 1600.48 1059.41 1606.59 1065.52 1614 1065.52Z" fill="#01919A"/></g></g></g><g clip-path="url(#clip10)"><g clip-path="url(#clip11)"><g clip-path="url(#clip12)"><path d="M2003.94 1028.37C2001.69 1028.37 1999.87 1026.55 1999.87 1024.31L1999.87 1013.22C1999.86 1003.23 1991.77 995.14 1981.78 995.125L1970.69 995.125C1968.45 995.125 1966.63 993.306 1966.63 991.062 1966.63 988.819 1968.45 987 1970.69 987L1981.78 987C1996.25 987.022 2007.98 998.747 2008 1013.22L2008 1024.31C2008 1026.55 2006.18 1028.37 2003.94 1028.37Z" fill="#01919A"/><path d="M1981.78 1117 1970.69 1117C1968.45 1117 1966.63 1115.18 1966.63 1112.94 1966.63 1110.69 1968.45 1108.87 1970.69 1108.87L1981.78 1108.87C1991.77 1108.86 1999.86 1100.77 1999.87 1090.78L1999.87 1079.69C1999.87 1077.45 2001.69 1075.63 2003.94 1075.63 2006.18 1075.63 2008 1077.45 2008 1079.69L2008 1090.78C2007.98 1105.25 1996.25 1116.98 1981.78 1117Z" fill="#01919A"/><path d="M1882.06 1028.37C1879.82 1028.37 1878 1026.55 1878 1024.31L1878 1013.22C1878.02 998.747 1889.75 987.022 1904.22 987L1915.31 987C1917.55 987 1919.37 988.819 1919.37 991.062 1919.37 993.306 1917.55 995.125 1915.31 995.125L1904.22 995.125C1894.23 995.14 1886.14 1003.23 1886.12 1013.22L1886.12 1024.31C1886.12 1026.55 1884.31 1028.37 1882.06 1028.37Z" fill="#01919A"/><path d="M1915.31 1117 1904.22 1117C1889.75 1116.98 1878.02 1105.25 1878 1090.78L1878 1079.69C1878 1077.45 1879.82 1075.63 1882.06 1075.63 1884.31 1075.63 1886.12 1077.45 1886.12 1079.69L1886.12 1090.78C1886.14 1100.77 1894.23 1108.86 1904.22 1108.87L1915.31 1108.87C1917.55 1108.87 1919.37 1110.69 1919.37 1112.94 1919.37 1115.18 1917.55 1117 1915.31 1117Z" fill="#01919A"/><path d="M1915.31 1035.26C1913.87 1035.26 1912.49 1034.69 1911.47 1033.68 1911.22 1033.42 1911 1033.15 1910.8 1032.85 1910.6 1032.56 1910.44 1032.24 1910.3 1031.92 1910.17 1031.59 1910.06 1031.25 1909.99 1030.9 1909.86 1030.2 1909.86 1029.48 1909.99 1028.78 1910.06 1028.43 1910.17 1028.1 1910.3 1027.77 1910.43 1027.45 1910.6 1027.13 1910.8 1026.84 1911.19 1026.24 1911.71 1025.73 1912.3 1025.34 1912.6 1025.14 1912.91 1024.97 1913.24 1024.84 1913.56 1024.7 1913.9 1024.6 1914.25 1024.54 1916.02 1024.19 1917.85 1024.74 1919.13 1026.01 1919.63 1026.52 1920.03 1027.12 1920.3 1027.77 1920.44 1028.1 1920.54 1028.43 1920.62 1028.78 1920.76 1029.48 1920.76 1030.2 1920.62 1030.9 1920.54 1031.25 1920.44 1031.59 1920.3 1031.92 1920.17 1032.25 1920 1032.56 1919.8 1032.85 1919.61 1033.15 1919.38 1033.43 1919.13 1033.68 1918.88 1033.93 1918.61 1034.15 1918.31 1034.34 1918.02 1034.54 1917.71 1034.71 1917.38 1034.84 1917.05 1034.98 1916.71 1035.08 1916.36 1035.15 1916.02 1035.22 1915.66 1035.26 1915.31 1035.26Z" fill="#01919A"/><path d="M1970.69 1035.26C1970.34 1035.26 1969.98 1035.22 1969.64 1035.15 1969.29 1035.08 1968.95 1034.98 1968.62 1034.84 1968.29 1034.71 1967.98 1034.54 1967.69 1034.34 1967.39 1034.15 1967.12 1033.93 1966.87 1033.68 1965.85 1032.66 1965.28 1031.28 1965.28 1029.85 1965.28 1029.49 1965.31 1029.13 1965.38 1028.78 1965.46 1028.43 1965.56 1028.1 1965.7 1027.77 1965.83 1027.45 1966 1027.13 1966.2 1026.84 1966.39 1026.54 1966.62 1026.26 1966.87 1026.01 1967.12 1025.76 1967.39 1025.53 1967.69 1025.34 1967.98 1025.14 1968.3 1024.98 1968.62 1024.84 1968.95 1024.7 1969.29 1024.6 1969.64 1024.52 1970.34 1024.39 1971.06 1024.39 1971.76 1024.52 1972.1 1024.6 1972.44 1024.7 1972.76 1024.84 1973.09 1024.97 1973.41 1025.14 1973.7 1025.34 1974 1025.53 1974.27 1025.76 1974.52 1026.01 1974.78 1026.27 1975 1026.54 1975.2 1026.84 1975.4 1027.13 1975.57 1027.45 1975.7 1027.77 1975.83 1028.1 1975.93 1028.43 1976 1028.78 1976.08 1029.13 1976.11 1029.49 1976.11 1029.85 1976.11 1032.84 1973.68 1035.26 1970.69 1035.26Z" fill="#01919A"/><path d="M1937.46 1061.6 1931.92 1061.6C1929.68 1061.6 1927.86 1059.78 1927.86 1057.54 1927.86 1055.29 1929.68 1053.48 1931.92 1053.48L1937.46 1053.48C1938.28 1053.48 1938.94 1052.82 1938.94 1052L1938.94 1029.85C1938.94 1027.6 1940.76 1025.78 1943 1025.78 1945.24 1025.78 1947.06 1027.6 1947.06 1029.85L1947.06 1052C1947.05 1057.3 1942.76 1061.59 1937.46 1061.6Z" fill="#01919A"/><path d="M1943 1088.9C1936.49 1088.92 1930.11 1087.03 1924.65 1083.48L1924.16 1083.15C1922.19 1082.07 1921.47 1079.61 1922.54 1077.64 1923.61 1075.66 1926.08 1074.94 1928.05 1076.01 1928.24 1076.12 1928.43 1076.24 1928.61 1076.37L1929.09 1076.7C1937.7 1082.32 1948.85 1082.19 1957.33 1076.37 1959.2 1075.11 1961.74 1075.6 1963 1077.47 1964.26 1079.34 1963.77 1081.88 1961.9 1083.15 1956.32 1086.92 1949.74 1088.93 1943 1088.9Z" fill="#01919A"/></g></g></g><rect x="757" y="1134" width="735" height="366" stroke="#79787A" stroke-width="2.29167" stroke-linejoin="round" stroke-miterlimit="10" fill="none"/><text font-family="Latha,Latha_MSFontService,sans-serif" font-weight="400" font-size="46" transform="translate(789.931 1191)">அணுகல் வில்லை<tspan font-size="46" x="0" y="54">திறன் அட்டை</tspan><tspan font-size="46" x="0" y="110">பாதுகாப்பு வில்லை</tspan><tspan font-size="46" x="0" y="165">அலைபேசி</tspan><tspan font-size="46" x="0" y="219">அடையாள அட்டை</tspan><tspan font-size="46" x="0" y="275">இலக்கமுறைச் சான்றி</tspan><tspan font-size="46" x="564.323" y="275">தழ்</tspan></text><g clip-path="url(#clip13)"><g clip-path="url(#clip14)"><g clip-path="url(#clip15)"><path d="M1132.5 510C1198.21 510 1241.47 571.998 1241.47 633.607 1241.47 695.272 1198.21 757.214 1132.5 757.214 1066.79 757.214 1023.59 695.272 1023.59 633.607 1023.59 571.998 1066.79 510 1132.5 510ZM1132.5 540.056C1083.59 540.056 1053.59 588.689 1053.59 633.607 1053.59 678.58 1083.59 727.213 1132.5 727.213 1181.41 727.213 1211.41 678.58 1211.41 633.607 1211.41 588.689 1181.41 540.056 1132.5 540.056Z" fill="#AE5E0E"/><path d="M923.494 946.478C935.971 894.851 984.937 764.867 1049.93 764.534L1050.98 764.534C1103.55 768.083 1161.45 768.083 1214.02 764.534L1215.07 764.534C1280.01 764.867 1329.03 894.906 1341.51 946.478L1346 965 919.002 965 923.494 946.478ZM958.042 934.944 1306.96 934.944C1296.42 902.115 1256.38 796.087 1215.74 794.479 1161.84 798.083 1103.22 798.083 1049.32 794.479 1008.56 796.087 968.633 902.115 958.042 934.944Z" fill="#AE5E0E"/></g></g></g><text fill="#AE5E0E" font-family="Latha,Latha_MSFontService,sans-serif" font-weight="400" font-size="50" transform="translate(1026.34 909)">இருப்பது</text><g clip-path="url(#clip16)"><g clip-path="url(#clip17)"><g clip-path="url(#clip18)"><path d="M1056.62 1013.98 941.401 1013.98C937.318 1013.98 934 1017.29 934 1021.37L934 1090.61C934 1094.7 937.318 1098.02 941.401 1098.02L1056.62 1098.02C1060.69 1098.02 1064 1094.69 1064 1090.61L1064 1021.37C1064 1017.29 1060.69 1013.98 1056.62 1013.98ZM953.222 1059.73 950.877 1059.73C948.362 1059.73 946.315 1057.68 946.315 1055.17L946.315 1053.91 953.22 1053.91 953.22 1059.73ZM953.222 1051.26 946.315 1051.26 946.315 1046.43 953.22 1046.43 953.22 1051.26ZM953.222 1043.78 946.315 1043.78 946.315 1042.52C946.315 1040 948.361 1037.96 950.877 1037.96L953.222 1037.96 953.222 1043.78ZM961.793 1059.73 955.869 1059.73 955.869 1037.96 961.793 1037.96 961.793 1059.73ZM971.345 1055.17C971.345 1057.68 969.299 1059.73 966.785 1059.73L964.439 1059.73 964.439 1053.91 971.345 1053.91 971.345 1055.17ZM971.345 1051.26 964.439 1051.26 964.439 1046.43 971.345 1046.43 971.345 1051.26ZM971.345 1043.78 964.439 1043.78 964.439 1037.96 966.785 1037.96C969.299 1037.96 971.345 1040 971.345 1042.52L971.345 1043.78Z" fill="#AE5E0E"/></g></g></g><g clip-path="url(#clip19)"><g clip-path="url(#clip20)"><g clip-path="url(#clip21)"><path d="M1082 1056C1082 1044.33 1091.45 1034.88 1103.14 1034.88L1190.86 1034.88C1202.54 1034.88 1212 1044.33 1212 1056 1212 1067.67 1202.55 1077.12 1190.86 1077.12L1103.14 1077.12C1091.46 1077.12 1082 1067.67 1082 1056ZM1124.25 1051.12 1124.25 1060.88C1124.25 1063.57 1126.43 1065.75 1129.12 1065.75L1153.34 1065.75C1156.03 1065.75 1160.39 1065.75 1163.08 1065.75L1187.62 1065.75C1190.3 1065.75 1192.5 1063.57 1192.5 1060.88L1192.5 1051.12C1192.5 1048.43 1190.31 1046.25 1187.62 1046.25L1129.13 1046.25C1126.44 1046.25 1124.25 1048.43 1124.25 1051.12ZM1103.13 1065.75C1108.51 1065.75 1112.88 1061.38 1112.88 1056 1112.88 1050.62 1108.51 1046.25 1103.13 1046.25 1097.74 1046.25 1093.38 1050.62 1093.38 1056 1093.38 1061.38 1097.74 1065.75 1103.13 1065.75Z" fill="#AE5E0E" fill-rule="evenodd"/><path d="M1109.63 1056C1109.63 1059.59 1106.71 1062.5 1103.13 1062.5 1099.54 1062.5 1096.63 1059.59 1096.63 1056 1096.63 1052.41 1099.54 1049.5 1103.13 1049.5 1106.71 1049.5 1109.63 1052.41 1109.63 1056Z" fill="#AE5E0E" fill-rule="evenodd"/></g></g></g><g clip-path="url(#clip22)"><g clip-path="url(#clip23)"><g clip-path="url(#clip24)"><path d="M1329.88 1002.09 1329.88 1109.91C1329.88 1116.01 1324.89 1121 1318.79 1121L1271.21 1121C1265.11 1121 1260.12 1116.02 1260.12 1109.91L1260.12 1002.09C1260.12 995.981 1265.1 991 1271.21 991L1318.79 991C1324.9 991 1329.88 995.991 1329.88 1002.09ZM1285.08 999.897 1304.92 999.897C1305.87 999.897 1306.65 1000.68 1306.65 1001.63 1306.65 1002.59 1305.86 1003.36 1304.92 1003.36L1285.08 1003.36C1284.13 1003.36 1283.35 1002.59 1283.35 1001.63 1283.35 1000.68 1284.13 999.897 1285.08 999.897ZM1295 1104.41C1298.37 1104.41 1301.1 1107.14 1301.1 1110.5 1301.1 1113.87 1298.37 1116.6 1295 1116.6 1291.64 1116.6 1288.9 1113.87 1288.9 1110.5 1288.9 1107.14 1291.64 1104.41 1295 1104.41ZM1265.65 1012.61 1265.65 1099.39 1324.34 1099.39 1324.34 1012.61 1265.65 1012.61ZM1313.11 998.879C1314.61 998.879 1315.83 1000.1 1315.83 1001.59 1315.83 1003.09 1314.61 1004.31 1313.11 1004.31 1311.62 1004.31 1310.4 1003.09 1310.4 1001.59 1310.4 1000.1 1311.62 998.879 1313.11 998.879Z" fill="#AE5E0E" fill-rule="evenodd"/></g></g></g><rect x="2079" y="1123" width="1156" height="367" stroke="#79787A" stroke-width="2.29167" stroke-linejoin="round" stroke-miterlimit="10" fill="none"/><text font-family="Latha,Latha_MSFontService,sans-serif" font-weight="400" font-size="46" transform="translate(2111.92 1181)">பெருந்தசை இயக்கத்திறன் </text><text font-family="Times New Roman,Times New Roman_MSFontService,sans-serif" font-weight="400" font-size="46" transform="matrix(1 0 0 1 2802.28 1181)">(<tspan font-family="Arial,Arial_MSFontService,sans-serif" font-size="46" x="15.4688" y="0">Motor skills)</tspan><tspan font-family="Calibri,Calibri_MSFontService,sans-serif" font-size="46" x="-690.365" y="55"> </tspan></text><text font-family="Latha,Latha_MSFontService,sans-serif" font-weight="400" font-size="46" transform="translate(2122.23 1236)">நடைப்பாங்கு பகுப்பாய்வு</text><text font-family="Arial,Arial_MSFontService,sans-serif" font-weight="400" font-size="46" transform="matrix(1 0 0 1 2760.46 1236)">(<tspan font-size="46" x="15.4688" y="0">Gait </tspan><tspan font-size="46" x="111.719" y="0">Ana</tspan><tspan font-size="46" x="192.5" y="0">lysis)</tspan></text><text font-family="Latha,Latha_MSFontService,sans-serif" font-weight="400" font-size="46" transform="translate(2111.92 1291)">தட்டச்சு முறை </text><text font-family="Arial,Arial_MSFontService,sans-serif" font-weight="400" font-size="46" transform="matrix(1 0 0 1 2523.27 1291)">(Keystrokes)</text><text font-family="Latha,Latha_MSFontService,sans-serif" font-weight="400" font-size="46" transform="translate(2111.92 1346)">செயலி பயன்பாட்டு விதம் </text><text font-family="Arial,Arial_MSFontService,sans-serif" font-weight="400" font-size="46" transform="matrix(1 0 0 1 2800.56 1346)">(Application u<tspan font-size="46" x="276.146" y="0">se)</tspan></text><text font-family="Latha,Latha_MSFontService,sans-serif" font-weight="400" font-size="46" transform="translate(2111.92 1401)">கையெழுத்து </text><text font-family="Arial,Arial_MSFontService,sans-serif" font-weight="400" font-size="46" transform="matrix(1 0 0 1 2459.1 1401)">(Handwriting)</text><text font-family="Latha,Latha_MSFontService,sans-serif" font-weight="400" font-size="46" transform="translate(2111.92 1456)">சைகை மொழி</text><text font-family="Arial,Arial_MSFontService,sans-serif" font-weight="400" font-size="46" transform="matrix(1 0 0 1 2481.45 1456)">(Gestures)</text><g clip-path="url(#clip25)"><g clip-path="url(#clip26)"><g clip-path="url(#clip27)"><path d="M213.029 0C278.597 0 321.756 61.8613 321.756 123.335 321.756 184.865 278.597 246.671 213.029 246.671 147.46 246.671 104.356 184.865 104.356 123.335 104.356 61.8613 147.46 0 213.029 0ZM213.029 29.99C164.226 29.99 134.291 78.5163 134.291 123.335 134.291 168.21 164.226 216.736 213.029 216.736 261.832 216.736 291.766 168.21 291.766 123.335 291.766 78.5163 261.832 29.99 213.029 29.99Z" fill="#DF7275" transform="matrix(1 0 0 1.0022 2465.97 500)"/><path d="M4.4819 435.519C16.9316 384.005 65.7899 254.306 130.639 253.974L131.69 253.974C184.145 257.516 241.912 257.516 294.367 253.974L295.418 253.974C360.212 254.306 409.126 384.06 421.575 435.519L426.057 454 0 454 4.4819 435.519ZM38.9538 424.01 387.104 424.01C376.59 391.253 336.641 285.458 296.082 283.854 242.299 287.45 183.813 287.45 130.031 283.854 89.3614 285.458 49.5223 391.253 38.9538 424.01Z" fill="#DF7275" transform="matrix(1 0 0 1.0022 2465.97 500)"/></g></g></g><text fill="#DF7275" font-family="Latha,Latha_MSFontService,sans-serif" font-weight="400" font-size="50" transform="translate(2562.67 899)">செய்வது</text><g clip-path="url(#clip28)"><g clip-path="url(#clip29)"><g clip-path="url(#clip30)"><path d="M2861.05 1003.07 2871.96 1011.09 2850.08 1040.85 2839.17 1032.83Z" fill="#DF7275"/><path d="M2833.07 1041.15 2843.23 1048.62C2848.77 1043.67 2846.92 1044.76 2848.54 1042.93L2837.64 1034.93 2833.07 1041.15Z" fill="#DF7275"/><path d="M2866.38 995.79 2877.3 1003.81 2873.49 1008.99 2862.58 1000.97Z" fill="#DF7275"/><path d="M2875.02 988.954 2881.24 993.525 2878.03 997.898 2871.81 993.328Z" fill="#DF7275"/><path d="M2864.33 1030.23 2850.89 1048.53C2843.69 1058.3 2821.55 1068.43 2821.29 1068.58 2818.76 1069.83 2820.88 1075.82 2825.73 1075.82 2830.86 1075.82 2836.89 1072.17 2842.35 1068.62 2845.62 1066.49 2848.91 1064.78 2854.17 1067.96 2854.65 1068.25 2861.56 1074.44 2872.61 1074.44L2886.49 1074.44 2886.49 1039.08 2864.33 1030.23Z" fill="#DF7275"/><path d="M2820.39 1090.08C2819.75 1090.93 2819.09 1091.73 2818.41 1092.52 2818.77 1092.58 2819.14 1092.62 2819.52 1092.62 2822.98 1092.62 2825.81 1089.79 2825.81 1086.33 2825.87 1083.28 2825.68 1083.35 2825.98 1082.47L2820.39 1090.08Z" fill="#DF7275"/><path d="M2806.66 1068.31C2818.75 1051.85 2826.83 1040.85 2838.86 1024.48 2836.66 1025.06 2834.55 1025.96 2832.67 1027.23 2820.34 1036.62 2810.64 1038.65 2807.63 1050.22L2803.98 1064.06C2803.52 1065.88 2804.65 1067.93 2806.66 1068.31Z" fill="#DF7275"/><path d="M2842.09 1074.88C2838.32 1076.8 2835.1 1079.72 2828.53 1080.73 2829.91 1080.8 2831.01 1081.92 2831.01 1083.31 2831.01 1091.58 2843.57 1091.62 2843.57 1083.31L2843.57 1080.27C2843.57 1076.83 2848.77 1076.83 2848.77 1080.27 2848.77 1083.77 2851.58 1086.56 2855.06 1086.56 2858.53 1086.56 2861.35 1083.74 2861.35 1080.27L2861.35 1077.74C2857.81 1076.52 2854.49 1074.72 2851.52 1072.41 2847.35 1070.44 2847.96 1071.55 2842.09 1074.88Z" fill="#DF7275"/><path d="M2815.02 1070.28C2815.02 1062 2824.48 1064.36 2841.23 1050.37L2831.53 1043.25C2830.52 1044.61 2830.54 1044.6 2830.41 1044.75 2806.1 1080.75 2803.35 1075.71 2797.34 1097.87L2797.88 1098.26 2795.78 1100.95C2795.34 1101.52 2795.44 1102.33 2796.01 1102.77 2796.57 1103.21 2797.39 1103.12 2797.84 1102.54L2799.97 1099.8 2800.54 1100.21C2804.44 1097.74 2808.69 1094.85 2812.26 1091.44 2815.7 1088.17 2816.93 1085.82 2821.31 1080.04 2817.61 1078.35 2815.02 1074.62 2815.02 1070.28Z" fill="#DF7275"/></g></g></g><g clip-path="url(#clip31)"><g clip-path="url(#clip32)"><g clip-path="url(#clip33)"><path d="M37.3282 93.9288 47.7711 71.3609C47.2368 68.6777 46.6466 63.0149 50.1202 59.4906L50.2086 59.007 50.5531 41.8977 44.4158 49.764 42.2552 63.6818 41.9692 63.6688 40.6991 69.6891 35.75 72.4776 34.9713 71.6339 35.75 69.1704 36.2895 63.4088 34.7334 63.336 36.3766 45.097C36.3766 45.097 44.6758 28.8457 47.0093 27.5483 49.3428 26.2522 56.9517 22.1026 56.9517 22.1026L56.9517 20.7194C56.9517 20.7194 57.1974 20.7987 57.5991 20.9326L57.5991 15.8808C57.5991 15.8808 54.9406 13.0273 56.5604 6.9992 58.1815 0.9698 67.6468 0.6461 70.629 4.4044 73.6112 8.1653 71.8601 9.7864 71.7314 10.9525 71.6638 11.5609 71.9719 12.6256 72.2111 13.5889L72.2124 13.5876C72.2124 13.5876 73.502 15.9393 71.2959 16.3033 71.0294 16.6972 70.8409 17.4486 70.889 19.0567 70.9761 21.9271 66.9344 20.8923 65.8983 20.7194L65.832 23.14 70.6082 27.2883 70.5991 27.2844C72.527 28.5051 73.9297 29.7154 74.4978 34.8959 75.2752 41.9835 76.2268 46.3918 76.2268 46.3918L87.3457 55.7141 91.1157 58.3089 91.7865 63.9509 90.7088 64.3435 88.7341 62.6782 84.149 60.2433 82.8815 61.9359 70.7798 52.0949 69.1366 48.6369 67.6663 64.8882 101.638 118.652 108.641 117.442 110.802 119.948 96.3663 128.16 60.58 81.5711 48.2196 103.871 28.8561 120.727 28.8561 124.186 33.6973 125.307 34.086 128.05 25.181 128.05 17.9647 115.713 37.3282 93.9288Z" fill="#DF7275" transform="matrix(1 0 0 1 2614 981)"/><path d="M-51.5593 91.9815-62.0022 69.4135C-61.4679 66.7303-60.8777 61.0675-64.3513 57.5432L-64.4397 57.0596-64.7842 39.9503-58.6469 47.8179-56.4863 61.7357-56.2003 61.7214-54.9302 67.7417-49.9811 70.5302-49.2024 69.6865-49.9811 67.223-50.5206 61.4614-48.9645 61.3873-50.6077 43.1496C-50.6077 43.1496-58.9069 26.897-61.2404 25.5996-63.5739 24.3048-71.1828 20.1552-71.1828 20.1552L-71.1828 18.7733C-71.1828 18.7733-71.4285 18.8526-71.8302 18.9852L-71.8302 13.9334C-71.8302 13.9334-69.1717 11.0799-70.7915 5.0518-72.4126-0.9789-81.8779-1.3026-84.8601 2.457-87.8423 6.2179-86.0912 7.8403-85.9625 9.0051-85.8949 9.61479-86.203 10.6782-86.4422 11.6415L-86.4435 11.6402C-86.4435 11.6402-87.7331 13.9919-85.527 14.3559-85.2605 14.7498-85.072 15.5025-85.1201 17.1093-85.2072 19.9784-81.1655 18.9449-80.1294 18.772L-80.0631 21.1913-84.8393 25.3396-84.8302 25.337C-86.7581 26.5564-88.1608 27.7667-88.7289 32.9472-89.5063 40.0348-90.4579 44.4431-90.4579 44.4431L-101.577 53.7667-105.347 56.3615-106.018 62.0035-104.94 62.3961-102.965 60.7308-98.3801 58.2972-97.1126 59.9898-85.0109 50.1501-83.3677 46.6921-81.9 62.9421-115.872 116.706-122.875 115.496-125.035 118.002-110.6 126.214-74.8124 79.6224-62.452 101.923-43.0885 118.778-43.0885 122.238-47.9297 123.358-48.3184 126.101-39.4134 126.101-32.1971 113.764-51.5593 91.9815Z" fill="#DF7275" transform="matrix(1 0 0 1 2614 981)"/></g></g></g><g clip-path="url(#clip34)"><g clip-path="url(#clip35)"><g clip-path="url(#clip36)"><path d="M2486.53 1011.47C2485.41 1011.47 2484.5 1010.56 2484.5 1009.44 2484.5 1009.44 2484.5 1009.44 2484.5 1009.44L2484.5 1007.41C2484.5 1000.68 2479.04 995.219 2472.31 995.219 2465.58 995.219 2460.12 1000.68 2460.12 1007.41L2460.12 1009.44C2460.12 1010.56 2459.22 1011.47 2458.09 1011.47 2456.97 1011.47 2456.06 1010.56 2456.06 1009.44L2456.06 1007.41C2456.06 998.432 2463.34 991.156 2472.31 991.156 2481.29 991.156 2488.56 998.432 2488.56 1007.41L2488.56 1009.44C2488.56 1010.56 2487.65 1011.47 2486.53 1011.47 2486.53 1011.47 2486.53 1011.47 2486.53 1011.47Z" fill="#DF7275"/><path d="M2478.41 1011.47C2477.28 1011.47 2476.38 1010.56 2476.38 1009.44 2476.38 1009.44 2476.38 1009.44 2476.38 1009.44L2476.38 1007.41C2476.38 1005.16 2474.56 1003.34 2472.31 1003.34 2470.07 1003.34 2468.25 1005.16 2468.25 1007.41L2468.25 1009.44C2468.25 1010.56 2467.34 1011.47 2466.22 1011.47 2465.1 1011.47 2464.19 1010.56 2464.19 1009.44L2464.19 1007.41C2464.19 1002.92 2467.83 999.281 2472.31 999.281 2476.8 999.281 2480.44 1002.92 2480.44 1007.41L2480.44 1009.44C2480.44 1010.56 2479.53 1011.47 2478.41 1011.47 2478.41 1011.47 2478.41 1011.47 2478.41 1011.47Z" fill="#DF7275"/><path d="M2490.59 1082.56 2488.56 1082.56C2479.59 1082.56 2472.31 1075.29 2472.31 1066.31 2472.31 1057.34 2479.59 1050.06 2488.56 1050.06L2490.59 1050.06C2491.72 1050.06 2492.62 1050.97 2492.62 1052.09 2492.62 1053.22 2491.72 1054.12 2490.59 1054.12L2488.56 1054.12C2481.83 1054.12 2476.38 1059.58 2476.38 1066.31 2476.38 1073.04 2481.83 1078.5 2488.56 1078.5L2490.59 1078.5C2491.72 1078.5 2492.62 1079.41 2492.62 1080.53 2492.62 1081.65 2491.72 1082.56 2490.59 1082.56Z" fill="#DF7275"/><path d="M2490.59 1074.44 2488.56 1074.44C2484.08 1074.44 2480.44 1070.8 2480.44 1066.31 2480.44 1061.83 2484.08 1058.19 2488.56 1058.19L2490.59 1058.19C2491.72 1058.19 2492.62 1059.1 2492.62 1060.22 2492.62 1061.34 2491.72 1062.25 2490.59 1062.25L2488.56 1062.25C2486.32 1062.25 2484.5 1064.07 2484.5 1066.31 2484.5 1068.56 2486.32 1070.38 2488.56 1070.38L2490.59 1070.38C2491.72 1070.38 2492.62 1071.28 2492.62 1072.41 2492.62 1073.53 2491.72 1074.44 2490.59 1074.44Z" fill="#DF7275"/><path d="M2575.91 1011.47C2574.78 1011.47 2573.88 1010.56 2573.88 1009.44 2573.88 1009.44 2573.88 1009.44 2573.88 1009.44L2573.88 1007.41C2573.88 1000.68 2568.42 995.219 2561.69 995.219 2554.96 995.219 2549.5 1000.68 2549.5 1007.41L2549.5 1009.44C2549.5 1010.56 2548.59 1011.47 2547.47 1011.47 2546.35 1011.47 2545.44 1010.56 2545.44 1009.44L2545.44 1007.41C2545.44 998.432 2552.71 991.156 2561.69 991.156 2570.66 991.156 2577.94 998.432 2577.94 1007.41L2577.94 1009.44C2577.94 1010.56 2577.03 1011.47 2575.91 1011.47 2575.91 1011.47 2575.91 1011.47 2575.91 1011.47Z" fill="#DF7275"/><path d="M2567.78 1011.47C2566.66 1011.47 2565.75 1010.56 2565.75 1009.44 2565.75 1009.44 2565.75 1009.44 2565.75 1009.44L2565.75 1007.41C2565.75 1005.16 2563.93 1003.34 2561.69 1003.34 2559.44 1003.34 2557.62 1005.16 2557.62 1007.41L2557.62 1009.44C2557.62 1010.56 2556.72 1011.47 2555.59 1011.47 2554.47 1011.47 2553.56 1010.56 2553.56 1009.44L2553.56 1007.41C2553.56 1002.92 2557.2 999.281 2561.69 999.281 2566.17 999.281 2569.81 1002.92 2569.81 1007.41L2569.81 1009.44C2569.81 1010.56 2568.9 1011.47 2567.78 1011.47 2567.78 1011.47 2567.78 1011.47 2567.78 1011.47Z" fill="#DF7275"/><path d="M2545.44 1082.56 2543.41 1082.56C2542.28 1082.56 2541.38 1081.65 2541.38 1080.53 2541.38 1079.41 2542.28 1078.5 2543.41 1078.5L2545.44 1078.5C2552.17 1078.5 2557.62 1073.04 2557.62 1066.31 2557.62 1059.58 2552.17 1054.12 2545.44 1054.12L2543.41 1054.12C2542.28 1054.12 2541.38 1053.22 2541.38 1052.09 2541.38 1050.97 2542.28 1050.06 2543.41 1050.06L2545.44 1050.06C2554.41 1050.06 2561.69 1057.34 2561.69 1066.31 2561.69 1075.29 2554.41 1082.56 2545.44 1082.56Z" fill="#DF7275"/><path d="M2545.44 1074.44 2543.41 1074.44C2542.28 1074.44 2541.38 1073.53 2541.38 1072.41 2541.38 1071.28 2542.28 1070.38 2543.41 1070.38L2545.44 1070.38C2547.68 1070.38 2549.5 1068.56 2549.5 1066.31 2549.5 1064.07 2547.68 1062.25 2545.44 1062.25L2543.41 1062.25C2542.28 1062.25 2541.38 1061.34 2541.38 1060.22 2541.38 1059.1 2542.28 1058.19 2543.41 1058.19L2545.44 1058.19C2549.92 1058.19 2553.56 1061.83 2553.56 1066.31 2553.56 1070.8 2549.92 1074.44 2545.44 1074.44Z" fill="#DF7275"/><path d="M2468.25 1029.75C2456.06 1029.75 2456.06 1021.63 2456.06 1021.63L2468.25 1021.63Z" fill="#DF7275"/><path d="M2472.31 1021.63 2480.44 1021.63 2480.44 1033.81 2472.31 1033.81Z" fill="#DF7275"/><path d="M2484.5 1017.56 2484.5 1033.81 2492.62 1033.81C2497.11 1033.81 2500.75 1030.17 2500.75 1025.69L2500.75 1017.56ZM2494.66 1027.72 2490.59 1027.72 2490.59 1023.66 2494.66 1023.66Z" fill="#DF7275"/><path d="M2565.75 1029.75C2577.94 1029.75 2577.94 1021.63 2577.94 1021.63L2565.75 1021.63Z" fill="#DF7275"/><path d="M2561.69 1033.81 2553.56 1033.81 2553.56 1021.62 2561.69 1021.62Z" fill="#DF7275"/><path d="M2533.25 1017.56 2533.25 1025.69C2533.25 1030.17 2536.89 1033.81 2541.38 1033.81L2549.5 1033.81 2549.5 1017.56ZM2543.41 1027.72 2539.34 1027.72 2539.34 1023.66 2543.41 1023.66Z" fill="#DF7275"/><path d="M2517 1019.59C2515.63 1019.59 2514.27 1019.45 2512.94 1019.16L2512.94 1019.59C2512.94 1021.84 2514.76 1023.66 2517 1023.66 2519.24 1023.66 2521.06 1021.84 2521.06 1019.59L2521.06 1019.16C2519.73 1019.45 2518.37 1019.59 2517 1019.59Z" fill="#DF7275"/><path d="M2525.12 1019.59C2525.12 1024.08 2521.49 1027.72 2517 1027.72 2512.51 1027.72 2508.88 1024.08 2508.88 1019.59L2502.78 1019.59 2506.84 1035.84 2527.16 1035.84 2531.22 1019.59Z" fill="#DF7275"/><path d="M2502.78 1039.91 2504.81 1054.12 2529.19 1054.12 2531.22 1039.91ZM2512.94 1048.03 2508.88 1048.03 2508.88 1043.97 2512.94 1043.97ZM2525.12 1048.03 2521.06 1048.03 2521.06 1043.97 2525.12 1043.97Z" fill="#DF7275"/><path d="M2506.84 1111 2486.53 1111C2486.53 1106.51 2490.17 1102.88 2494.66 1102.88L2506.84 1102.88Z" fill="#DF7275"/><path d="M2527.16 1111 2547.47 1111C2547.47 1106.51 2543.83 1102.88 2539.34 1102.88L2527.16 1102.88Z" fill="#DF7275"/><path d="M2504.81 1058.19 2500.75 1074.44 2512.94 1074.44 2517 1064.28 2521.06 1074.44 2533.25 1074.44 2529.19 1058.19 2504.81 1058.19Z" fill="#DF7275"/><path d="M2506.84 1098.81 2494.66 1098.81 2496.69 1094.75 2508.88 1094.75 2506.84 1098.81Z" fill="#DF7275"/><path d="M2527.16 1098.81 2539.34 1098.81 2537.31 1094.75 2525.12 1094.75 2527.16 1098.81Z" fill="#DF7275"/><path d="M2500.75 1078.5 2496.69 1090.69 2508.88 1090.69 2512.94 1078.5ZM2506.84 1086.62 2502.78 1086.62 2502.78 1082.56 2506.84 1082.56Z" fill="#DF7275"/><path d="M2533.25 1078.5 2521.06 1078.5 2525.12 1090.69 2537.31 1090.69ZM2531.22 1086.62 2527.16 1086.62 2527.16 1082.56 2531.22 1082.56Z" fill="#DF7275"/><path d="M2519.03 991.156 2528.97 991.156C2528.42 985.872 2524.3 981.663 2519.03 981Z" fill="#DF7275"/><path d="M2514.97 991.156 2514.97 981C2509.7 981.663 2505.58 985.872 2505.03 991.156Z" fill="#DF7275"/><path d="M2504.81 995.219 2504.81 1003.34C2504.81 1010.07 2508.88 1015.53 2517 1015.53 2525.12 1015.53 2529.19 1010.07 2529.19 1003.34L2529.19 995.219ZM2510.91 997.25 2514.97 997.25 2514.97 1001.31 2510.91 1001.31ZM2521.97 1009.22 2517.91 1011.25C2517.34 1011.54 2516.66 1011.54 2516.09 1011.25L2512.03 1009.22C2511.03 1008.72 2510.62 1007.5 2511.13 1006.5 2511.63 1005.5 2512.84 1005.09 2513.85 1005.59L2517 1007.17 2520.15 1005.59C2521.16 1005.09 2522.38 1005.5 2522.88 1006.5 2523.38 1007.5 2522.97 1008.72 2521.97 1009.22ZM2523.09 1001.31 2519.03 1001.31 2519.03 997.25 2523.09 997.25Z" fill="#DF7275"/></g></g></g><rect x="121" y="1134" width="598" height="367" stroke="#79787A" stroke-width="2.29167" stroke-linejoin="round" stroke-miterlimit="10" fill="none"/><text font-family="Latha,Latha_MSFontService,sans-serif" font-weight="400" font-size="46" transform="translate(154.095 1192)">கடவுச்சொல்<tspan font-size="46" x="0" y="54">அடையாளக்குறி </tspan><tspan font-size="46" x="0" y="110">எண் </tspan></text><text font-family="Arial,Arial_MSFontService,sans-serif" font-weight="400" font-size="46" transform="matrix(1 0 0 1 288.731 1302)">(PIN)</text><text font-family="Latha,Latha_MSFontService,sans-serif" font-weight="400" font-size="46" transform="translate(154.095 1356)">கடவுத்தொடர்<tspan font-size="46" x="0" y="56">உருவகை </tspan></text><text font-family="Arial,Arial_MSFontService,sans-serif" font-weight="400" font-size="46" transform="matrix(1 0 0 1 425.658 1412)">(Pattern)</text><text font-family="Latha,Latha_MSFontService,sans-serif" font-weight="400" font-size="46" transform="translate(154.095 1467)">படிமம்<tspan font-size="46" x="165.573" y="0">/</tspan><tspan font-size="46" x="177.031" y="0">நிழற்படம்</tspan></text><g clip-path="url(#clip37)"><g clip-path="url(#clip38)"><g clip-path="url(#clip39)"><path d="M213.029 0C278.597 0 321.756 61.8613 321.756 123.335 321.756 184.865 278.597 246.671 213.029 246.671 147.46 246.671 104.356 184.865 104.356 123.335 104.356 61.8613 147.46 0 213.029 0ZM213.029 29.99C164.226 29.99 134.291 78.5163 134.291 123.335 134.291 168.21 164.226 216.736 213.029 216.736 261.832 216.736 291.766 168.21 291.766 123.335 291.766 78.5163 261.832 29.99 213.029 29.99Z" fill="#FC9A05" transform="matrix(1 0 0 1.0022 217.971 510)"/><path d="M4.4819 435.519C16.9316 384.005 65.7899 254.306 130.639 253.974L131.69 253.974C184.145 257.516 241.912 257.516 294.367 253.974L295.418 253.974C360.212 254.306 409.126 384.06 421.575 435.519L426.057 454 0 454 4.4819 435.519ZM38.9538 424.01 387.104 424.01C376.59 391.253 336.641 285.458 296.082 283.854 242.299 287.45 183.813 287.45 130.031 283.854 89.3614 285.458 49.5223 391.253 38.9538 424.01Z" fill="#FC9A05" transform="matrix(1 0 0 1.0022 217.971 510)"/></g></g></g><text fill="#FC9A05" font-family="Latha,Latha_MSFontService,sans-serif" font-weight="400" font-size="50" transform="translate(304.986 909)">தெரிந்த<tspan font-size="50" x="209.115" y="0">து</tspan></text><g clip-path="url(#clip40)"><g clip-path="url(#clip41)"><g clip-path="url(#clip42)"><path d="M8.1258 4470.85 8.1258 4519.6 121.876 4519.6 121.876 4470.85ZM12.1883 4474.92 117.813 4474.92 117.813 4515.55 12.1883 4515.55Z" fill="#FC9A05" transform="matrix(1 0 0 1 204 -3439.23)"/><path d="M113.749 4503.36 113.749 4507.41 93.4369 4507.41 93.4369 4503.36Z" fill="#FC9A05" transform="matrix(1 0 0 1 204 -3439.23)"/><path d="M79.8606 4498.75 79.8606 4505.39C79.8606 4506.51 78.9511 4507.41 77.8292 4507.41 76.7074 4507.41 75.7978 4506.51 75.7978 4505.39L75.7978 4498.75 70.0492 4502.07C69.0696 4502.62 67.8323 4502.27 67.2855 4501.29 66.7503 4500.32 67.0746 4499.12 68.0178 4498.55L73.768 4495.24 68.0178 4491.92C67.0465 4491.35 66.7145 4490.11 67.2763 4489.14 67.8374 4488.17 69.0781 4487.84 70.0492 4488.39L75.7978 4491.72 75.7978 4485.07C75.7978 4483.95 76.7074 4483.05 77.8292 4483.05 78.9511 4483.05 79.8606 4483.95 79.8606 4485.07L79.8606 4491.72 85.6092 4488.39C86.5816 4487.84 87.8238 4488.17 88.3839 4489.14 88.9434 4490.11 88.6108 4491.35 87.6406 4491.92L81.8919 4495.24 87.6406 4498.55C88.6039 4499.12 88.919 4500.37 88.3441 4501.33 87.7808 4502.29 86.5689 4502.61 85.6092 4502.07Z" fill="#FC9A05" transform="matrix(1 0 0 1 204 -3439.23)"/><path d="M50.1392 4498.75 50.1392 4505.39C50.1675 4506.51 51.0995 4507.4 52.2208 4507.37 53.3027 4507.34 54.1733 4506.48 54.2004 4505.39L54.2004 4498.75 59.9506 4502.07C60.9356 4502.61 62.1693 4502.24 62.7064 4501.26 63.2254 4500.3 62.9059 4499.12 61.9805 4498.55L56.2318 4495.24 61.9805 4491.92C62.9519 4491.35 63.2844 4490.11 62.723 4489.14 62.1623 4488.17 60.9218 4487.84 59.9506 4488.39L54.2004 4491.72 54.2004 4485.07C54.1723 4483.95 53.2403 4483.06 52.1188 4483.09 51.037 4483.12 50.1664 4484 50.1392 4485.07L50.1392 4491.72 44.3906 4488.39C43.4183 4487.84 42.1762 4488.17 41.6159 4489.14 41.0562 4490.11 41.3889 4491.35 42.3592 4491.91L48.1078 4495.24 42.3592 4498.55C41.396 4499.12 41.0816 4500.37 41.6567 4501.33 42.2201 4502.29 43.4312 4502.61 44.3906 4502.07Z" fill="#FC9A05" transform="matrix(1 0 0 1 204 -3439.23)"/><path d="M18.7304 4488.39C17.7582 4487.84 16.516 4488.17 15.9557 4489.14 15.3961 4490.11 15.7288 4491.35 16.699 4491.91L22.4477 4495.24 16.699 4498.55C15.7359 4499.12 15.4214 4500.37 15.9966 4501.33 16.5599 4502.29 17.7711 4502.61 18.7304 4502.07L24.4791 4498.75 24.4791 4505.39C24.4791 4506.51 25.3887 4507.41 26.5105 4507.41 27.6324 4507.41 28.5418 4506.51 28.5418 4505.39L28.5418 4498.75 34.2905 4502.07C35.2699 4502.62 36.5073 4502.27 37.0544 4501.29 37.5904 4500.32 37.2658 4499.11 36.3219 4498.55L30.5732 4495.24 36.3219 4491.92C37.2933 4491.35 37.6254 4490.11 37.0638 4489.14 36.5026 4488.17 35.2618 4487.84 34.2905 4488.39L28.5418 4491.72 28.5418 4485.07C28.5418 4483.95 27.6324 4483.05 26.5105 4483.05 25.3887 4483.05 24.4791 4483.95 24.4791 4485.07L24.4791 4491.72Z" fill="#FC9A05" transform="matrix(1 0 0 1 204 -3439.23)"/></g></g></g><g clip-path="url(#clip43)"><g clip-path="url(#clip44)"><g clip-path="url(#clip45)"><path d="M553.4 1000.1C545.502 1000.1 539.1 1006.5 539.1 1014.4 539.1 1022.3 545.502 1028.7 553.4 1028.7 555.94 1028.7 558.32 1028.03 560.388 1026.87L553.075 1019.56C550.382 1019.39 548.2 1017.13 548.2 1014.4 548.2 1011.56 550.559 1009.2 553.4 1009.2 554.689 1009.2 555.857 1009.7 556.772 1010.5L567.131 1010.5C565.434 1004.5 559.946 1000.1 553.4 1000.1ZM595 1000.1C588.454 1000.1 582.966 1004.5 581.269 1010.5L591.628 1010.5C592.543 1009.7 593.711 1009.2 595 1009.2 596.289 1009.2 597.457 1009.7 598.372 1010.5L608.731 1010.5C607.034 1004.5 601.546 1000.1 595 1000.1ZM636.6 1000.1C630.054 1000.1 624.566 1004.5 622.869 1010.5L633.228 1010.5C634.143 1009.7 635.311 1009.2 636.6 1009.2 639.441 1009.2 641.8 1011.56 641.8 1014.4 641.8 1017.24 639.441 1019.6 636.6 1019.6 635.311 1019.6 634.143 1019.1 633.228 1018.3L622.869 1018.3C624.566 1024.3 630.054 1028.7 636.6 1028.7 644.498 1028.7 650.9 1022.3 650.9 1014.4 650.9 1006.5 644.498 1000.1 636.6 1000.1ZM557.869 1011.8C558.324 1012.57 558.6 1013.45 558.6 1014.4 558.6 1016.78 556.952 1018.8 554.741 1019.4L590.003 1054.66C590.489 1052.86 591.897 1051.48 593.7 1051L559.697 1017 590.531 1017C590.077 1016.23 589.8 1015.35 589.8 1014.4 589.8 1013.45 590.077 1012.57 590.531 1011.8L557.869 1011.8ZM599.469 1011.8C599.924 1012.57 600.2 1013.45 600.2 1014.4 600.2 1015.35 599.924 1016.23 599.469 1017L632.131 1017C631.677 1016.23 631.4 1015.35 631.4 1014.4 631.4 1013.45 631.677 1012.57 632.131 1011.8L599.469 1011.8ZM562.825 1018.3 565.913 1021.39C566.451 1020.43 566.825 1019.38 567.131 1018.3L562.825 1018.3ZM581.269 1018.3C582.966 1024.3 588.454 1028.7 595 1028.7 601.546 1028.7 607.034 1024.3 608.731 1018.3L598.372 1018.3C597.457 1019.1 596.289 1019.6 595 1019.6 593.711 1019.6 592.543 1019.1 591.628 1018.3L581.269 1018.3ZM553.4 1041.7C545.502 1041.7 539.1 1048.1 539.1 1056 539.1 1063.9 545.502 1070.3 553.4 1070.3 561.298 1070.3 567.7 1063.9 567.7 1056 567.7 1048.1 561.298 1041.7 553.4 1041.7ZM595 1041.7C592.468 1041.7 590.076 1042.33 588.013 1043.49L595.366 1050.84C597.92 1051.02 599.976 1053.09 600.159 1055.63L607.513 1062.99C608.667 1060.92 609.3 1058.53 609.3 1056 609.3 1048.1 602.898 1041.7 595 1041.7ZM636.6 1041.7C628.702 1041.7 622.3 1048.1 622.3 1056 622.3 1063.9 628.702 1070.3 636.6 1070.3 644.498 1070.3 650.9 1063.9 650.9 1056 650.9 1048.1 644.498 1041.7 636.6 1041.7ZM582.528 1049.01C581.367 1051.08 580.7 1053.46 580.7 1056 580.7 1063.9 587.102 1070.3 595 1070.3 597.54 1070.3 599.92 1069.63 601.988 1068.48L594.675 1061.16C592.09 1060.99 590.006 1058.91 589.841 1056.32L582.528 1049.01ZM599.997 1057.3C599.524 1059.1 598.139 1060.51 596.341 1061L630.344 1095 599.469 1095C599.924 1095.76 600.2 1096.65 600.2 1097.6 600.2 1098.55 599.924 1099.43 599.469 1100.2L632.131 1100.2C631.677 1099.43 631.4 1098.55 631.4 1097.6 631.4 1095.21 633.07 1093.19 635.3 1092.61L599.997 1057.3ZM553.4 1083.3C545.502 1083.3 539.1 1089.71 539.1 1097.6 539.1 1105.5 545.502 1111.9 553.4 1111.9 559.946 1111.9 565.434 1107.5 567.131 1101.5L556.772 1101.5C555.857 1102.29 554.689 1102.8 553.4 1102.8 550.559 1102.8 548.2 1100.44 548.2 1097.6 548.2 1094.76 550.559 1092.4 553.4 1092.4 554.689 1092.4 555.857 1092.9 556.772 1093.7L567.131 1093.7C565.434 1087.69 559.946 1083.3 553.4 1083.3ZM595 1083.3C588.454 1083.3 582.966 1087.69 581.269 1093.7L591.628 1093.7C592.543 1092.9 593.711 1092.4 595 1092.4 596.289 1092.4 597.457 1092.9 598.372 1093.7L608.731 1093.7C607.034 1087.69 601.546 1083.3 595 1083.3ZM636.6 1083.3C634.068 1083.3 631.676 1083.93 629.612 1085.09L636.966 1092.44C639.641 1092.63 641.8 1094.88 641.8 1097.6 641.8 1100.44 639.441 1102.8 636.6 1102.8 635.311 1102.8 634.143 1102.29 633.228 1101.5L622.869 1101.5C624.566 1107.5 630.054 1111.9 636.6 1111.9 644.498 1111.9 650.9 1105.5 650.9 1097.6 650.9 1089.71 644.498 1083.3 636.6 1083.3ZM624.128 1090.62C623.585 1091.58 623.177 1092.61 622.869 1093.7L627.216 1093.7 624.128 1090.62ZM557.869 1095C558.324 1095.76 558.6 1096.65 558.6 1097.6 558.6 1098.55 558.324 1099.43 557.869 1100.2L590.531 1100.2C590.077 1099.43 589.8 1098.55 589.8 1097.6 589.8 1096.65 590.077 1095.76 590.531 1095L557.869 1095ZM581.269 1101.5C582.966 1107.5 588.454 1111.9 595 1111.9 601.546 1111.9 607.034 1107.5 608.731 1101.5L598.372 1101.5C597.457 1102.29 596.289 1102.8 595 1102.8 593.711 1102.8 592.543 1102.29 591.628 1101.5L581.269 1101.5Z" fill="#FC9A05"/></g></g></g><g clip-path="url(#clip46)"><g clip-path="url(#clip47)"><g clip-path="url(#clip48)"><path d="M418.48 1030.13C416.4 1026.1 412.37 1023.76 407.43 1023.76 399.76 1023.76 395.73 1029.09 394.95 1034.55 394.82 1035.72 395.73 1036.63 396.9 1036.63L399.76 1036.63C400.67 1036.63 401.45 1035.98 401.58 1035.07 401.97 1032.99 403.27 1030.39 407.43 1030.39 410.68 1030.39 411.98 1032.08 412.5 1033.12 413.28 1034.68 413.15 1036.37 412.24 1037.67 411.33 1038.97 410.42 1039.49 409.38 1040.27 406.91 1041.96 404.96 1043.78 404.57 1048.85 404.44 1050.02 405.35 1050.93 406.39 1050.93L409.25 1050.93C410.16 1050.93 411.07 1050.15 411.2 1049.24 411.33 1047.16 411.85 1046.64 413.28 1045.73 414.45 1044.95 416.01 1043.78 417.57 1041.7 420.04 1038.19 420.43 1033.9 418.48 1030.13Z" fill="#FC9A05"/><path d="M407.95 1054.18C405.74 1054.18 403.92 1056 403.92 1058.21 403.92 1060.42 405.74 1062.24 407.95 1062.24 410.16 1062.24 411.98 1060.42 411.98 1058.21 411.98 1056 410.16 1054.18 407.95 1054.18Z" fill="#FC9A05"/><path d="M493.36 1095.91C493.36 1095.91 493.36 1095.91 493.36 1095.91L486.47 1080.96C489.85 1074.59 491.02 1067.31 489.85 1060.03 487.64 1045.99 476.2 1034.55 462.16 1032.21 454.36 1030.91 446.69 1032.34 440.19 1036.11 438.89 1029.74 435.77 1024.02 431.09 1019.21 423.42 1011.54 412.76 1008.16 401.84 1009.85 387.8 1012.19 376.36 1023.63 374.15 1037.67 372.98 1044.95 374.15 1052.1 377.53 1058.6L370.64 1073.55C369.86 1075.37 370.25 1077.45 371.55 1078.88 372.46 1079.79 373.63 1080.31 374.8 1080.31 375.45 1080.31 376.1 1080.18 376.75 1079.92 376.75 1079.92 376.75 1079.92 376.75 1079.92L391.83 1072.9C398.33 1076.28 405.48 1077.45 412.76 1076.28 416.66 1075.63 420.43 1074.33 423.68 1072.38 426.41 1085.77 437.46 1096.43 451.11 1098.64 458.39 1099.81 465.54 1098.64 472.04 1095.26L486.99 1102.15C487.64 1102.41 488.29 1102.54 488.94 1102.54 490.11 1102.54 491.28 1102.02 492.19 1101.11 493.75 1099.68 494.14 1097.6 493.36 1095.91ZM411.72 1069.78C405.35 1070.82 399.11 1069.65 393.65 1066.4 392.74 1065.88 391.57 1065.75 390.66 1066.27L378.7 1071.73 384.16 1059.77C384.55 1058.86 384.55 1057.69 384.03 1056.78 380.78 1051.32 379.61 1045.08 380.65 1038.71 382.47 1027.4 391.57 1018.17 402.88 1016.35 404.44 1016.09 405.87 1015.96 407.43 1015.96 414.58 1015.96 421.34 1018.69 426.54 1023.89 431.09 1028.44 433.69 1034.16 434.34 1040.4 433.95 1040.79 433.43 1041.18 433.04 1041.57 426.67 1047.94 423.29 1056.26 423.16 1065.1 419.78 1067.44 415.88 1069.13 411.72 1069.78ZM473.34 1088.63C472.95 1088.37 472.43 1088.37 472.04 1088.37 471.52 1088.37 470.87 1088.5 470.35 1088.76 464.89 1092.01 458.65 1093.18 452.28 1092.14 440.97 1090.32 431.74 1081.09 429.92 1069.78 428.49 1060.94 431.35 1052.36 437.59 1046.12 443.83 1039.88 452.41 1037.15 461.25 1038.58 472.56 1040.4 481.66 1049.63 483.48 1060.94 484.52 1067.31 483.35 1073.55 480.1 1079.01 479.58 1079.92 479.45 1081.09 479.97 1082L485.43 1093.96 473.34 1088.63Z" fill="#FC9A05"/><path d="M440.97 1060.16C438.11 1060.16 435.77 1062.5 435.77 1065.36 435.77 1068.22 438.11 1070.56 440.97 1070.56 443.83 1070.56 446.17 1068.22 446.17 1065.36 446.17 1062.5 443.83 1060.16 440.97 1060.16Z" fill="#FC9A05"/><path d="M456.7 1060.16C453.84 1060.16 451.5 1062.5 451.5 1065.36 451.5 1068.22 453.84 1070.56 456.7 1070.56 459.56 1070.56 461.9 1068.22 461.9 1065.36 461.9 1062.5 459.56 1060.16 456.7 1060.16Z" fill="#FC9A05"/><path d="M472.43 1060.16C469.57 1060.16 467.23 1062.5 467.23 1065.36 467.23 1068.22 469.57 1070.56 472.43 1070.56 475.29 1070.56 477.63 1068.22 477.63 1065.36 477.63 1062.5 475.29 1060.16 472.43 1060.16Z" fill="#FC9A05"/></g></g></g></g></svg>