<svg width="3191" height="880" xmlns="http://www.w3.org/2000/svg" xmlns:xlink="http://www.w3.org/1999/xlink" xml:space="preserve" overflow="hidden"><defs><clipPath id="clip0"><rect x="138" y="748" width="3191" height="880"/></clipPath><clipPath id="clip1"><rect x="210" y="797" width="391" height="176"/></clipPath><clipPath id="clip2"><rect x="210" y="797" width="391" height="176"/></clipPath><clipPath id="clip3"><rect x="210" y="797" width="391" height="176"/></clipPath><clipPath id="clip4"><rect x="2757" y="751" width="252" height="252"/></clipPath><clipPath id="clip5"><rect x="2757" y="751" width="252" height="252"/></clipPath><clipPath id="clip6"><rect x="2757" y="751" width="252" height="252"/></clipPath></defs><g clip-path="url(#clip0)" transform="translate(-138 -748)"><text font-family="Latha,Latha_MSFontService,sans-serif" font-weight="400" font-size="46" transform="translate(170.819 1089)">பயனர் தொலைபேசி எண், <tspan font-size="46" x="0" y="55">முகவரி</tspan>, புகைப்படம் போன்ற <tspan font-size="46" x="0" y="110">சுயவிவரத் தகவலை மாற்</tspan><tspan font-size="46" x="664.01" y="110">ற </tspan><tspan font-size="46" x="0" y="166">விரும்புகிறார்</tspan><tspan font-size="46" x="0" y="275">பெயர் மாற்றம் ஏற்பட்டா</tspan>ல், <tspan font-size="46" x="0" y="330">பணியாளர் அரசு வழங்கிய</tspan> <tspan font-size="46" x="0" y="385">அடையாள அட்டை அல்லது</tspan><tspan font-size="46" x="718.437" y="385"> </tspan><tspan font-size="46" x="0" y="440">திருமணச் சான்றிதழை </tspan><tspan font-size="46" x="0" y="496">சமர்ப்பிக்க வேண்டும்</tspan></text><path d="M1736 824.167C1736 807.506 1749.51 794 1766.17 794L2581.83 794C2598.49 794 2612 807.506 2612 824.167L2612 944.833C2612 961.494 2598.49 975 2581.83 975L1766.17 975C1749.51 975 1736 961.494 1736 944.833Z" stroke="#79787A" stroke-width="2.29167" stroke-linejoin="round" stroke-miterlimit="10" fill="#FFFFFF" fill-rule="evenodd"/><text font-family="Latha,Latha_MSFontService,sans-serif" font-weight="400" font-size="46" transform="translate(1801.46 842)">புதுப்பிக்கப்பட்ட தகவல் ம<tspan font-size="46" x="661.146" y="0">ற்ற </tspan><tspan font-size="46" x="-54.427" y="55">கீழ்நிலை அமைப்புகள் மு</tspan><tspan font-size="46" x="597.552" y="55">ழுவதும் </tspan><tspan font-size="46" x="29.2188" y="110">தானாகவே பிரதிபலிக்கிறது</tspan><tspan font-size="46" x="-795.608" y="247">பயனர் மனிதவள அமைப்பு </tspan><tspan font-size="46" x="-795.608" y="302">அல்லது பிற அதிகாரபூர்வமா</tspan><tspan font-size="46" x="-65.7118" y="302">ன </tspan><tspan font-size="46" x="-795.608" y="357">அமைப்பில் உள்நுழைந்து</tspan> <tspan font-size="46" x="-795.608" y="412">மாற்றங்களைச் செய்கிறா</tspan>ர்<tspan font-size="46" x="-795.608" y="522">பெயர் மாற்றம் ஏற்பட்டால்</tspan><tspan font-size="46" x="-120.139" y="522">, </tspan><tspan font-size="46" x="-795.608" y="577">மனித வளக் குழு அடையாள</tspan><tspan font-size="46" x="-54.8263" y="577"> </tspan><tspan font-size="46" x="-795.608" y="632">அட்டை </tspan><tspan font-size="46" x="-577.326" y="632">/ </tspan>திருமண சான்றிதழை <tspan font-size="46" x="-795.608" y="687">சரிபார்த்து பெயர் மாற்றத்</tspan>திற்கு <tspan font-size="46" x="-795.608" y="742">ஒப்புதல் அளிக்கும்</tspan></text><path d="M761 882.854 1127.85 882.855 1127.85 885.146 761 885.146ZM1123.26 870.25 1150.76 884 1123.26 897.75Z" fill="#79787A"/><path d="M1521 882.854 1692.97 882.855 1692.97 885.146 1521 885.146ZM1688.38 870.25 1715.88 884 1688.38 897.75Z" fill="#79787A"/><text font-family="Latha,Latha_MSFontService,sans-serif" font-weight="400" font-size="46" transform="translate(2592.55 1094)">கீழ்நிலை அமைப்புகள் <tspan font-size="46" x="0" y="55">புதுப்பிக்கப்பட்ட தகவ</tspan><tspan font-size="46" x="540.26" y="55">லைக் </tspan><tspan font-size="46" x="0" y="110">காண்பிக்கின்றன</tspan></text><path d="M1503 780C1299 780 1299 780 1299 780 1293.94 780 1290 783.939 1290 789.003 1290 937.172 1290 937.172 1290 937.172 1290 942.236 1293.94 946.175 1299 946.175 1370.81 946.175 1370.81 946.175 1370.81 946.175 1363.13 972.433 1363.13 972.433 1363.13 972.433 1353.75 972.433 1353.75 972.433 1353.75 972.433 1351.5 972.433 1349.63 974.308 1349.63 976.559 1349.63 983.686 1349.63 983.686 1349.63 983.686 1349.63 986.124 1351.5 988 1353.75 988 1448.25 988 1448.25 988 1448.25 988 1450.5 988 1452.38 986.124 1452.38 983.686 1452.38 976.559 1452.38 976.559 1452.38 976.559 1452.38 974.308 1450.5 972.433 1448.25 972.433 1438.88 972.433 1438.88 972.433 1438.88 972.433 1431.19 946.175 1431.19 946.175 1431.19 946.175 1503 946.175 1503 946.175 1503 946.175 1508.06 946.175 1512 942.236 1512 937.172 1512 789.003 1512 789.003 1512 789.003 1512 783.939 1508.06 780 1503 780ZM1494 913.165C1308 913.165 1308 913.165 1308 913.165 1308 798.005 1308 798.005 1308 798.005 1494 798.005 1494 798.005 1494 798.005L1494 913.165ZM1494 913.165C1494 913.165 1494 913.165 1494 913.165" fill="#FC9A05" fill-rule="evenodd"/><path d="M1390.43 872.984C1390.8 874.282 1392.1 875.21 1393.58 875.024 1394.88 875.024 1396.18 874.097 1396.55 872.613 1398.4 865.936 1398.4 865.936 1398.4 865.936 1414.17 881.702 1414.17 881.702 1414.17 881.702 1415.47 883 1417.51 883 1418.81 881.702 1422.89 877.807 1422.89 877.807 1422.89 877.807 1424 876.508 1424 874.468 1422.89 873.169 1406.94 857.403 1406.94 857.403 1406.94 857.403 1413.8 855.548 1413.8 855.548 1413.8 855.548 1415.1 855.177 1416.02 853.879 1416.02 852.581 1416.21 851.097 1415.28 849.798 1413.98 849.242 1382.64 837.371 1382.64 837.371 1382.64 837.371 1381.52 837 1380.04 837.186 1379.11 838.113 1378.37 839.04 1378 840.339 1378.56 841.637L1390.43 872.984ZM1390.43 872.984C1390.43 872.984 1390.43 872.984 1390.43 872.984" fill="#FC9A05" fill-rule="evenodd"/><g clip-path="url(#clip1)"><g clip-path="url(#clip2)"><g clip-path="url(#clip3)"><path d="M198.21 36.1676C200.135 35.8443 202.235 36.0501 203.906 37.1201 205.062 37.8522 205.863 39.1033 206.024 40.4646 206.324 42.9118 205.842 45.3734 205.223 47.7351 204.444 50.6577 203.431 53.5268 202.962 56.5234 202.056 57.4614 201.237 58.4776 200.34 59.4214 199.753 59.9564 199.116 60.4333 198.507 60.9437 196.876 59.6244 195.212 58.337 193.712 56.867 193.438 56.3088 193.253 55.7115 193.006 55.1418 192.858 54.862 192.927 54.5401 192.926 54.24 193.023 50.9303 192.041 47.7061 192.027 44.4021 192.018 42.5609 192.395 40.6806 193.343 39.0859 194.391 37.4114 196.321 36.5083 198.21 36.1676Z" stroke="#000000" stroke-width="0.0135986" fill="#FC9A05" transform="matrix(1.38367 0 0 1 212.926 764.969)"/><path d="M33.0548 39.4208C35.6745 38.7568 38.6305 39.515 40.55 41.433 41.9446 42.8001 42.6579 44.779 42.5898 46.7188 42.5999 47.3494 42.4347 47.9627 42.3883 48.589 42.4492 49.3718 43.7916 49.0384 43.7438 49.8966 43.7119 51.0202 43.709 52.2336 43.0696 53.2078 42.6318 53.8965 41.7982 54.2038 41.011 54.214 40.4703 56.203 40.0397 58.2602 40.1629 60.3333 40.205 61.1365 40.4094 61.9237 40.7327 62.6587 39.6497 64.6463 38.2971 66.5353 36.498 67.9401 36.1457 68.2141 35.776 68.4678 35.4353 68.7578 35.7687 69.055 35.9659 69.4638 36.2501 69.803 36.6371 70.28 37.059 70.7454 37.2924 71.3238 37.0518 71.7268 36.7604 72.1023 36.3588 72.356 36.2994 73.1664 36.7676 73.871 37.2315 74.49 37.8056 75.4005 37.3852 76.4834 37.3504 77.4693 37.6752 76.2181 37.6331 74.8771 38.1579 73.6811 38.8292 71.6051 39.886 69.6725 40.5123 67.5777 40.8791 66.4512 41.1125 65.2856 41.2589 64.1113 41.2618 63.9127 41.3764 63.7504 41.4822 63.5938 42.2056 63.9519 42.5014 64.771 43.1233 65.245 44.0149 65.7611 45.1123 65.7467 45.9923 66.2961 48.425 67.1399 51.0374 67.5516 53.2932 68.8563 54.1776 69.3826 54.9865 70.093 55.4693 71.0165 55.9912 71.9646 56.0738 73.0649 56.2855 74.1073 57.6642 81.6634 57.7439 89.3803 57.4554 97.0321 57.3525 100.891 57.18 104.751 57.2278 108.614 57.2322 111.467 57.4148 114.317 57.6613 117.159 57.8759 119.915 57.9817 122.729 57.3206 125.437 57.2423 125.421 57.0858 125.39 57.0075 125.376 56.9219 125.006 57.1031 124.4 56.6581 124.228 55.2765 123.794 53.8108 123.791 52.3755 123.752 51.8145 123.731 51.2694 123.896 50.7141 123.957 50.3184 124.522 50.5634 125.174 50.733 125.769 50.3126 125.45 49.5051 125.485 49.4326 124.844 49.2354 121.407 49.5456 117.961 49.4123 114.522 48.9599 114.9 48.6164 115.419 48.5555 116.018 48.3917 117.381 48.8541 118.714 48.9005 120.073 49.0324 123.064 49.1136 126.066 48.9411 129.058 48.8454 130.724 48.5903 132.387 48.0756 133.974 47.4667 146.008 46.4548 158.031 46.4519 170.087 46.462 172.366 46.9042 174.616 46.9767 176.892 47.0144 178.934 46.7839 181.15 47.89 182.979 48.2815 183.471 48.093 184.258 47.545 184.552 47.0535 184.886 46.2852 185.06 46.188 185.744 46.4461 188.556 47.7987 191.089 49.0527 193.567 50.1995 195.815 51.0432 198.277 51.0592 200.824 50.8446 201.115 50.8548 201.558 50.501 201.739 49.3354 202.612 47.7596 202.719 46.3968 202.309 44.2077 201.639 42.3274 200.067 41.1777 198.098 40.8559 197.562 40.3804 197.118 40.1557 196.527 39.8817 195.63 40.0875 194.644 39.7062 193.771 39.1727 192.55 38.1115 191.698 37.2446 190.727 36.8358 190.257 36.4197 189.735 36.3414 189.096 36.0732 187.575 36.424 186.035 36.9329 184.603 37.2344 183.639 37.6839 182.688 37.71 181.666 37.2388 180.323 37.2823 178.881 37.349 177.482 37.4722 175.593 37.7244 173.712 37.7447 171.819 37.681 168.415 37.0851 165.056 36.6632 161.687 35.789 154.49 34.3784 147.352 32.314 140.398 31.0121 143.907 30.2191 147.578 29.4899 151.241 28.2634 157.601 27.3805 164.041 25.6075 170.284 24.671 173.754 23.6446 177.2 22.679 180.662 21.9005 183.376 21.2438 186.138 20.1391 188.743 19.3519 190.631 18.2849 192.431 16.8235 193.878 17.0105 196.286 16.0595 198.776 14.2126 200.353 12.7904 201.61 10.7622 202.252 8.89783 201.758 8.11932 201.539 7.33211 201.205 6.73917 200.649 6.37673 199.229 6.5507 197.717 7.03346 196.349 7.88301 193.855 9.67779 191.756 10.2026 189.142 10.5302 187.669 9.9257 186.211 10.0083 184.735 10.1374 181.303 10.9623 177.956 11.5001 174.578 12.5178 168.653 13.5602 162.731 14.3329 156.769 14.5619 155.121 14.5518 153.444 14.8838 151.81 15.0882 150.792 15.5869 149.871 15.929 148.899 16.3654 147.753 16.4002 146.509 16.4089 145.3 16.435 142.77 15.9754 140.274 15.7333 137.763 15.4579 135.352 15.4492 132.897 15.9638 130.517 15.6797 129.395 14.4619 128.881 13.9922 127.862 13.6704 127.198 13.7385 126.434 13.8154 125.725 14.1459 123.38 14.9041 121.114 15.152 118.755 15.6202 114.004 16.0001 109.227 17.025 104.556 15.7406 107.125 15.5623 110.045 15.1955 112.846 14.949 114.771 14.7011 116.721 14.0183 118.551 13.0571 117.888 11.993 117.153 10.7738 117.201 10.2881 117.208 9.81262 117.096 9.32986 117.07 8.62818 117.215 7.9758 117.53 7.31471 117.798 6.71452 118.042 6.11433 118.326 5.65911 118.801 5.78959 115.199 6.05489 111.601 6.46372 108.018 6.71887 105.733 7.81488 103.641 8.07873 101.36 8.28459 99.933 7.20453 98.7167 7.28282 97.3046 7.38865 95.9317 8.58904 94.9357 8.68037 93.5628 9.03701 90.4386 7.90621 87.3029 8.54844 84.1932 9.15299 81.7416 10.4157 79.5206 11.1739 77.1184 12.0554 74.2421 12.3845 71.2252 13.2746 68.3518 14.8925 67.382 16.7974 67.0703 18.6009 66.5919 20.3232 66.1236 22.0846 65.8148 23.8098 65.3567 24.7841 65.0812 25.8163 64.8116 26.5774 64.1026 27.4139 63.3386 28.1243 62.3108 29.3043 62.0614 28.8839 65.5002 29.6958 68.9172 30.5062 72.2357 30.6657 72.6648 30.4815 73.1128 30.5555 73.5535 30.8976 75.9485 31.0571 78.3797 31.7515 80.7094 31.7718 78.79 31.7907 76.8691 31.7747 74.9511 32.011 73.9522 32.8591 73.2607 33.31 72.3633 32.8707 71.9965 32.359 71.7268 31.9182 71.3615 32.3517 70.6381 32.9186 70.006 33.4071 69.3203 33.6391 69.0289 33.829 68.6113 34.2654 68.6229 33.1607 66.5049 30.7135 65.4263 29.8132 63.1676 28.9753 61.164 30.3105 59.0387 29.7538 56.9946 29.487 56.0493 28.9245 55.2099 28.7477 54.2343 28.1475 54.2198 27.5603 53.966 27.1834 53.4891 26.3396 52.4525 26.199 51.0289 26.3367 49.7444 26.3643 49.4704 26.5397 49.1239 26.8644 49.1602 27.224 49.2008 27.5792 49.2776 27.9387 49.324 27.5473 47.219 27.569 44.9487 28.5113 42.9843 29.3623 41.1677 31.1397 39.9079 33.0548 39.4208M47.5378 101.525C47.487 102.342 47.4624 103.163 47.4986 103.984 47.6088 106.918 47.9944 109.899 49.1441 112.623 48.8701 108.894 48.4119 105.165 47.5378 101.525Z" stroke="#000000" stroke-width="0.0135986" fill="#FC9A05" transform="matrix(1.38367 0 0 1 212.926 764.969)"/><path d="M138.622 43.0727C140.278 42.8277 141.978 42.977 143.603 43.3525 145.157 43.8527 146.312 45.1705 146.995 46.6101 147.985 48.718 148.248 51.0811 148.297 53.3833 148.327 55.8232 148.066 58.2602 147.655 60.661 147.618 61.035 147.256 61.2351 147.002 61.4583 145.7 62.4296 144.292 63.2429 142.954 64.1592 142.889 64.4651 142.7 64.7173 142.544 64.9812 141.449 66.747 140.385 68.5331 139.289 70.2974 137.441 68.1054 135.604 65.9032 133.771 63.6996 134.015 63.2502 134.245 62.7341 134.119 62.2107 134.013 61.5728 133.59 61.0524 133.158 60.5972 133.009 60.4203 132.707 60.4812 132.603 60.6755 132.087 61.3438 131.879 62.1817 131.556 62.9486 130.231 62.5485 130.283 60.6929 128.951 60.313 129.216 57.5861 129.59 54.8576 130.314 52.2104 130.973 49.8691 131.924 47.5306 133.592 45.717 134.896 44.2905 136.704 43.3351 138.622 43.0727Z" stroke="#000000" stroke-width="0.0135986" fill="#FC9A05" transform="matrix(1.38367 0 0 1 212.926 764.969)"/><path d="M87.6492 44.5848C89.0279 43.8498 90.7082 43.786 92.1666 44.3195 94.4093 45.1284 96.265 46.7985 97.593 48.7484 98.4425 50.0401 99.092 51.5261 99.1283 53.0933 99.1761 54.1487 98.5208 55.0389 98.1961 56.0015 97.3668 58.453 96.0345 60.6972 94.5282 62.7892 94.1991 63.2821 93.7947 63.7272 93.5178 64.2534 93.454 64.7666 93.6033 65.3161 93.3684 65.8017 93.1901 66.3889 92.661 66.7455 92.2797 67.1935 92.0738 67.4472 91.7621 67.5617 91.478 67.698 90.0137 66.6063 88.5611 65.4973 87.0244 64.5129 86.3415 64.1128 85.7616 63.5749 85.1426 63.0907 84.612 62.6746 84.2235 62.1107 83.6871 61.7019 83.5696 61.4917 83.5348 61.2481 83.458 61.0234 82.9158 59.2257 81.5994 57.7397 81.2761 55.8652 81.063 54.5851 81.1326 53.202 81.743 52.0321 82.2562 51.0144 82.8622 50.0474 83.4333 49.0616 84.5018 47.3059 85.7805 45.5474 87.6492 44.5848Z" stroke="#000000" stroke-width="0.0135986" fill="#FC9A05" transform="matrix(1.38367 0 0 1 212.926 764.969)"/><path d="M246.037 44.0788C247.54 43.8092 249.15 43.77 250.585 44.3601 251.691 44.8008 252.613 45.617 253.313 46.5695 254.479 48.1308 255.213 49.9561 256.243 51.6015 256.804 52.4308 257.702 52.9585 258.279 53.7747 258.589 54.214 258.701 54.8344 258.428 55.3187 258.206 55.6666 257.861 55.9276 257.693 56.3088 257.426 57.0439 257.645 57.9586 258.312 58.4081 259.067 58.9952 260.21 59.3359 260.484 60.3507 260.181 63.2792 259.968 66.4193 261.341 69.1318 261.515 69.6044 262.041 69.745 262.473 69.8886 263.263 70.1307 264.199 70.2379 264.752 70.928 265.411 71.8356 265.746 72.9258 266.096 73.9797 266.876 76.5472 267.412 79.18 267.889 81.8185 268.243 83.6713 268.755 85.4892 269.191 87.3246 269.656 89.2731 269.639 91.3012 270.138 93.2439 270.467 94.4718 271.168 95.5533 271.568 96.7552 272.65 99.9026 273.478 103.149 273.871 106.458 274.222 109.211 274.064 112.022 273.491 114.735 273.186 116.005 272.818 117.368 271.834 118.29 271.437 118.683 270.907 118.901 270.362 118.981 270.064 120.041 269.058 120.669 268.662 121.669 268.183 123.38 268.681 125.15 268.61 126.889 268.469 130.752 268.378 134.614 268.278 138.477 268.208 141.912 268.04 145.344 267.948 148.777 267.876 153.612 268.002 158.451 267.746 163.283 266.958 174.131 266.378 185.026 264.484 195.754 264.204 197.165 263.898 198.593 263.266 199.896 263.001 200.482 262.541 200.97 261.949 201.233 261.842 201.637 261.761 202.048 261.61 202.44 260.108 202.812 258.525 202.851 257 202.607 256.49 202.556 256.095 202.165 255.895 201.717 255.568 200.991 255.537 200.148 255.085 199.476 254.624 198.764 254.008 198.093 253.909 197.214 253.555 194.844 253.873 192.443 254.174 190.086 255.091 183.647 255.068 177.125 255.788 170.668 256.094 168.113 256.452 165.563 256.551 162.989 256.791 158.302 256.554 153.609 256.275 148.928 255.987 142.563 254.134 136.419 252.351 130.347 251.568 131.258 251.116 132.387 250.794 133.531 249.022 139.573 247.697 145.735 246.062 151.815 245.259 154.832 244.332 157.816 243.512 160.829 241.737 167.219 240.108 173.649 238.535 180.093 237.761 183.355 236.911 186.601 235.908 189.802 235.216 192.089 234.891 194.492 233.945 196.699 233.407 197.967 232.543 199.128 231.337 199.824 231.055 200.649 231.037 201.617 230.42 202.287 228.894 202.645 227.243 202.778 225.728 202.297 225.301 202.19 225.001 201.842 224.816 201.463 224.469 200.776 224.408 199.992 224.133 199.279 223.843 198.486 223.366 197.755 223.243 196.908 223.124 195.969 223.498 195.073 223.681 194.168 224.018 192.63 223.759 191.032 224.076 189.491 224.591 186.619 225.412 183.814 226.113 180.986 226.97 177.514 227.653 174.002 228.42 170.511 229.053 167.499 229.923 164.546 230.635 161.552 231.416 158.376 231.669 155.076 232.737 151.971 233.146 150.777 233.764 149.65 233.988 148.4 234.162 146.994 233.472 145.695 233.052 144.395 232.169 141.584 231.19 138.805 230.32 135.991 229.962 134.843 229.493 133.718 229.336 132.519 229.208 131.524 229.372 130.505 229.778 129.59 229.306 128.855 228.804 128.077 228.781 127.174 228.747 126.043 229.072 124.945 229.229 123.833 229.8 120.337 230.842 116.84 230.486 113.265 230.368 111.621 230.177 109.98 230.171 108.33 230.158 100.498 230.254 92.6611 230.763 84.8441 230.905 82.4346 230.932 80.0164 231.219 77.6171 231.367 76.4834 231.528 75.328 232.005 74.2784 232.375 73.4448 233.234 73.0026 234.027 72.6532 235.3 72.0791 236.702 71.7471 237.855 70.9338 238.072 70.1365 237.966 69.2884 237.85 68.4809 237.526 66.5759 236.605 64.8435 236.143 62.9762 235.776 61.5873 235.715 60.1144 236.027 58.7096 236.409 56.5654 238.274 55.1157 238.925 53.0788 239.177 52.2481 239.494 51.4392 239.854 50.649 240.64 48.8833 241.489 47.0798 242.897 45.7156 243.751 44.8733 244.853 44.2818 246.037 44.0788M243.458 69.9364C243.522 71.0411 243.699 72.1357 243.697 73.2447 243.716 75.1424 244.02 77.0198 244.174 78.9089 244.348 80.8892 244.621 82.8623 244.854 84.8368 245.235 85.653 245.705 86.4287 246.108 87.2362 246.903 88.8541 247.962 90.3198 248.884 91.8637 249.415 92.7814 250.054 93.6281 250.637 94.5139 250.818 93.5585 250.91 92.5872 251.13 91.6405 251.516 90.4416 251.859 89.2296 252.23 88.0263 252.5 87.1173 252.918 86.2416 253.009 85.2877 253.239 83.7858 253.419 82.2665 253.899 80.8182 254.225 79.8193 254.362 78.774 254.495 77.736 254.525 76.5269 254.459 75.3149 254.562 74.1073 254.707 72.6692 254.319 71.2557 254.186 69.8306 253.644 70.5612 253.109 71.2992 252.38 71.8559 251.142 72.2705 249.834 72.3908 248.542 72.4995 247.813 72.4401 247.09 72.3169 246.373 72.1792 245.888 71.966 245.424 71.7007 244.972 71.4296 244.439 70.9599 243.967 70.4293 243.458 69.9364M261.37 87.9523C261.067 88.9237 261.072 89.9443 261.01 90.949 260.788 91.8971 260.71 92.8699 260.626 93.8383 260.661 94.6284 260.769 95.4229 260.974 96.1898 261.415 97.3409 261.96 98.4499 262.497 99.559 263.762 101.952 264.549 104.555 265.591 107.045 266.315 108.765 266.729 110.602 267.57 112.275 267.951 111.934 268.291 111.548 268.62 111.157 268.866 110.52 269.063 109.81 268.852 109.136 268.465 106.782 267.332 104.656 266.389 102.492 265.68 100.536 265.409 98.4557 264.746 96.487 264.529 95.7215 264.099 95.0372 263.923 94.2587 263.692 93.3599 263.219 92.5408 263.05 91.6245 262.857 90.8881 262.748 90.1284 262.515 89.4035 262.267 88.9005 262.023 88.3931 261.903 87.8422 261.722 87.877 261.544 87.9146 261.37 87.9523M237.775 91.9957C237.694 93.038 237.653 94.0833 237.601 95.1271 237.478 98.4195 237.244 101.707 237.053 104.997 236.854 108.723 236.304 112.423 236.148 116.151 236.063 118.182 235.934 120.211 235.829 122.242 235.844 123.983 235.877 125.753 235.409 127.446 235.194 128.319 235.451 129.334 234.864 130.086 234.941 130.347 234.983 130.625 235.118 130.868 235.374 131.098 235.667 131.285 235.944 131.495 235.96 130.676 235.896 129.85 236.04 129.039 236.322 127.013 236.559 124.974 237.015 122.98 237.246 122.455 237.603 121.998 237.887 121.502 237.629 121.499 237.379 121.501 237.128 121.504 237.347 119.963 237.575 118.423 237.787 116.882 238.103 115.016 238.117 113.12 238.278 111.24 238.468 107.693 238.778 104.149 239.442 100.656 239.523 99.5923 239.528 98.5065 239.277 97.4626 238.839 95.6215 238.14 93.8557 237.775 91.9957M249.022 118.841C250.505 118.801 251.99 118.778 253.473 118.707 254.963 118.575 256.456 118.442 257.947 118.294 255.955 114.185 254.012 110.052 252.019 105.942 251.05 110.249 250.015 114.541 249.022 118.841Z" stroke="#000000" stroke-width="0.0135986" fill="#FC9A05" transform="matrix(1.38367 0 0 1 212.926 764.969)"/><path d="M187.656 60.1028C189.193 59.1924 190.769 58.3501 192.336 57.4933 192.917 58.9285 193.452 60.3855 194.16 61.7657 194.835 63.0385 195.196 64.4419 195.722 65.7756 195.93 66.2367 196.182 66.6759 196.385 67.1399 196.746 66.0424 197.094 64.9406 197.427 63.8344 197.178 63.6677 196.918 63.5155 196.699 63.314 196.559 63.0762 196.469 62.8167 196.365 62.5645 197.074 62.0136 197.801 61.4888 198.517 60.9451 199.01 61.4177 199.512 61.8831 200.018 62.3441 200.021 62.6688 200.019 62.9936 200.022 63.3183 199.737 63.3894 199.453 63.4604 199.168 63.5271 199.574 64.8536 199.856 66.2149 200.111 67.5777 200.17 68.6461 200.092 69.7189 200.166 70.7889 200.505 68.7882 200.95 66.8079 201.475 64.8493 201.778 63.4619 202.242 62.1223 202.723 60.7885 203.015 59.8419 203.5 58.9358 203.536 57.9267 206.095 58.8299 208.031 60.848 210.456 62.0078 212.673 62.9979 215.156 63.4546 217.144 64.9188 217.912 65.4741 218.517 66.2584 218.792 67.1717 219.974 70.6613 220.055 74.3828 220.204 78.0274 220.33 82.5723 220.333 87.1231 220.059 91.6622 219.946 92.98 219.945 94.3385 219.453 95.5867 218.585 97.9135 216.884 99.7721 215.423 101.735 213.993 103.668 212.51 105.564 211.197 107.579 211.59 108.879 212.789 109.639 213.624 110.632 213.941 111.01 214.234 111.528 214.089 112.034 213.299 113.14 213.179 114.552 213.167 115.871 213.121 118.404 213.501 120.921 213.98 123.4 214.581 126.121 214.797 128.905 215.25 131.65 216.313 139.021 216.942 146.444 217.635 153.857 217.806 155.743 218.386 157.591 218.277 159.501 217.94 166.803 216.876 174.07 216.961 181.393 217.009 184.062 217.174 186.738 217.66 189.367 217.721 189.58 217.64 189.79 217.564 189.99 217.199 190.116 216.796 190.163 216.464 190.363 216.271 190.463 216.432 190.683 216.493 190.816 217.902 193.368 220.043 195.387 221.802 197.685 222.812 199.015 223.711 200.498 224.001 202.168 221.609 203.232 218.846 202.93 216.457 202.021 215.179 201.529 213.941 200.92 212.793 200.177 212.062 199.141 212.11 197.795 211.78 196.634 210.255 195.873 208.428 195.479 207.322 194.081 207.89 186.902 206.319 179.756 206.743 172.577 206.917 170.829 207.329 169.104 207.328 167.339 207.309 164.618 206.771 161.935 206.684 159.219 206.622 157.22 207.267 155.248 207.01 153.251 206.787 152.04 205.711 151.279 205.172 150.229 204.576 149.062 204.901 147.649 204.285 146.491 203.86 145.629 203.036 145.006 202.767 144.065 202.261 142.389 202.496 140.61 202.148 138.908 201.168 133.616 198.539 128.862 196.386 123.991 194.909 127.366 195.19 131.136 195.422 134.718 195.886 141.454 194.065 148.046 193.632 154.731 193.456 156.8 193.525 158.877 193.48 160.95 193.416 164.475 193.358 168.002 193.43 171.526 193.551 175.652 193.806 179.806 194.777 183.83 194.886 184.32 195.069 184.794 195.141 185.294 195.202 185.503 195.071 185.67 194.928 185.803 194.56 185.683 194.191 185.555 193.814 185.48 194.009 188.459 195.573 191.105 196.16 193.997 196.383 195.079 196.396 196.215 196.101 197.284 194.65 198.113 192.901 198.536 191.246 198.162 189.79 197.852 188.523 196.895 187.71 195.663 187.533 195.38 187.289 195.108 187.281 194.76 187.141 193.05 186.779 191.37 186.543 189.675 186.393 188.661 186.44 187.55 187.069 186.696 186.667 186.546 186.127 186.617 185.86 186.227 184.852 184.944 184.516 183.288 184.41 181.698 184.298 179.711 184.406 177.718 184.197 175.739 183.284 168.472 182.87 161.155 182.547 153.842 182.256 147.907 182.135 141.964 181.779 136.033 181.181 128.883 179.63 121.77 180.123 114.562 180.2 112.746 180.425 110.926 180.978 109.19 181.166 108.427 181.479 107.685 181.541 106.899 180.819 105.809 179.858 104.907 178.959 103.968 177.34 102.337 175.72 100.671 174.513 98.7022 173.412 96.932 172.716 94.9082 172.545 92.8293 172.297 89.5369 172.679 86.2416 172.966 82.9652 173.315 79.6308 173.467 76.2718 174.024 72.9606 174.3 71.4064 174.626 69.8161 175.439 68.4403 176.425 66.7948 177.995 65.6104 179.617 64.6361 181.147 63.7243 182.759 62.9646 184.317 62.1063 185.461 61.4917 186.53 60.7479 187.656 60.1028M196.782 97.1901C196.499 99.0008 195.973 100.764 195.614 102.561 197.529 102.917 199.479 102.738 201.414 102.775 201.22 101.792 200.979 100.82 200.791 99.8388 200.682 98.9979 200.64 98.1498 200.557 97.3061 199.877 97.9512 199.196 98.5934 198.515 99.2342 197.93 98.5586 197.361 97.87 196.782 97.1901Z" stroke="#000000" stroke-width="0.0135986" fill="#FC9A05" transform="matrix(1.38367 0 0 1 212.926 764.969)"/><path d="M77.4445 66.4396C79.5292 65.664 81.7458 64.8855 83.284 63.1966 83.4783 64.1215 84.1727 64.8362 84.6004 65.6626 85.447 66.8354 86.227 68.059 86.8591 69.3638 87.8986 71.6138 88.8641 73.9015 89.6832 76.2413 90.1355 77.5519 90.7458 78.8001 91.2011 80.1092 91.2243 77.6287 91.1068 75.1482 91.1083 72.6663 91.0735 72.4271 91.1634 72.1139 90.9561 71.937 90.3109 71.3731 89.5745 70.9048 89.0497 70.2162 89.8296 69.4319 90.6197 68.6563 91.3953 67.8662 91.9143 67.9952 92.4232 68.1764 92.9074 68.4069 93.2742 68.7534 93.6091 69.1361 93.9338 69.5247 94.0933 69.8509 94.102 70.2365 94.1368 70.596 94.044 70.8193 93.9106 71.0237 93.7889 71.2339 94.6341 73.9072 95.3763 76.6125 96.1882 79.2959 96.5564 80.8776 96.8696 82.4723 97.2001 84.0627 97.606 87.2681 97.9569 90.4807 98.357 93.6875 98.8296 96.4348 99.2587 99.1878 99.6429 101.948 99.7937 102.732 99.8241 103.53 99.8502 104.327 100.043 104.271 100.237 104.213 100.433 104.16 100.455 103.133 100.501 102.106 100.54 101.08 100.378 97.6018 100.195 94.1239 100.014 90.646 99.8879 88.812 99.8923 86.9767 99.8879 85.1398 99.7676 84.0351 99.7966 82.9043 99.4689 81.8344 98.6977 78.9176 97.9772 75.9833 97.0377 73.1157 96.4709 71.75 96.1534 70.264 95.3154 69.026 95.024 68.5345 94.7312 68.0445 94.4325 67.5603 94.1078 67.0848 94.2093 66.4759 94.1426 65.9351 94.5195 66.6136 95.1067 67.1457 95.7591 67.553 97.1378 68.4229 98.7223 68.8926 100.12 69.7262 100.893 70.1872 101.726 70.6004 102.338 71.276 103.032 72.2154 103.214 73.4187 103.321 74.5524 103.549 78.342 102.619 82.0751 102.584 85.856 102.637 88.683 102.889 91.5158 103.488 94.2805 104.052 96.99 105.427 99.4241 106.703 101.85 107.725 103.801 108.781 105.806 109.071 108.021 109.292 110.016 109.203 112.125 108.305 113.958 107.689 115.245 106.629 116.288 105.369 116.946 105.117 118.235 104.843 119.605 103.976 120.638 103.741 120.924 103.389 121.224 102.992 121.122 102.503 120.853 102.261 120.229 101.661 120.144 100.952 121.463 101.016 123.016 101.303 124.442 101.561 125.952 101.984 127.569 101.357 129.048 100.936 130.022 100.868 131.087 100.756 132.129 100.419 135.781 100.566 139.452 100.582 143.114 100.648 146.796 100.429 150.473 100.266 154.151 100.147 155.946 100.053 157.749 99.7328 159.522 99.3589 161.629 98.9093 163.735 98.8456 165.881 98.7528 169.053 99.495 172.163 99.9763 175.278 100.291 177.253 100.572 179.242 100.585 181.247 100.633 183.181 100.497 185.119 100.643 187.05 100.762 188.374 101.03 189.783 101.957 190.796 102.286 191.122 102.644 191.491 103.128 191.556 104.732 191.869 106.368 192.34 107.673 193.365 108.53 194.023 109.124 194.951 109.567 195.925 109.179 196.623 108.346 196.844 107.637 197.066 105.274 197.684 102.79 197.719 100.371 197.491 98.5224 197.242 96.5116 196.855 95.1574 195.463 94.1485 195.882 93.0424 196.041 91.9564 195.92 90.6924 195.788 89.4615 195.451 88.216 195.212 88.7714 191.894 88.8468 188.507 88.5728 185.158 88.1885 179.817 86.9796 174.584 86.3649 169.272 85.4385 169.273 84.512 169.269 83.5856 169.275 84.2641 174.227 85.5703 179.121 85.5442 184.152 85.5371 186.308 85.2848 188.559 84.1771 190.454 84.0031 190.782 83.7002 191.038 83.5769 191.392 83.6162 192.141 84.1031 192.8 84.0525 193.567 83.9902 195.374 83.3232 197.113 83.358 198.932 82.4941 199.999 81.1081 200.469 79.7874 200.636 78.0766 200.843 76.2413 200.591 74.7814 199.627 74.6349 198.301 74.2275 196.942 74.6118 195.621 74.9045 194.573 75.9135 193.832 75.9514 192.698 75.9702 191.607 75.541 190.58 75.3119 189.529 74.9335 187.95 75.054 186.293 74.5957 184.73 74.0435 182.773 73.046 180.955 72.6808 178.942 72.0529 175.365 72.7721 171.683 71.9891 168.119 66.5092 168.113 61.0277 168.118 55.5463 168.118 55.5463 157.617 55.5463 147.117 55.5463 136.617 58.8602 136.616 62.1729 136.61 65.4857 136.62 66.2394 134.805 67.608 133.293 68.1489 131.387 68.4735 130.299 68.3647 129.144 68.0806 128.064 68.2083 122.888 68.3127 117.711 68.298 112.534 68.2996 108.427 68.2547 104.316 67.9849 100.216 67.6328 93.0148 67.8936 85.7777 68.8504 78.6305 69.107 76.6125 69.294 74.5698 69.8944 72.617 70.2769 71.3644 70.8961 70.1437 71.8878 69.2623 73.4925 67.901 75.5018 67.1732 77.4445 66.4396M68.0907 134.024C68.1183 134.673 67.7848 135.234 67.5297 135.807 67.3035 136.274 67.3644 136.803 67.3775 137.306 68.6387 137.122 69.9131 137.396 71.1801 137.273 71.2193 136.49 71.1917 135.705 71.2019 134.923 70.796 134.894 70.4277 134.737 70.1653 134.422 69.8855 134.589 69.5666 134.918 69.2201 134.72 68.7373 134.592 68.6822 133.802 68.0907 134.024Z" stroke="#000000" stroke-width="0.0135986" fill="#FC9A05" transform="matrix(1.38367 0 0 1 212.926 764.969)"/><path d="M129.221 66.5368C130.606 66.0859 131.914 65.3886 133.057 64.481 133.139 67.1138 133.348 69.745 133.294 72.3807 133.268 74.5074 133.275 76.6342 133.235 78.7595 133.119 80.7007 133.168 82.655 132.867 84.5802 132.553 86.6983 132.414 88.8381 132.072 90.9519 131.753 93.4396 131.471 95.9419 131.559 98.4543 136.056 97.2249 140.555 95.9999 145.055 94.7806 144.902 91.3244 144.839 87.861 144.505 84.415 144.296 82.1954 144.231 79.9672 144.067 77.7447 143.89 75.7441 144.018 73.7333 143.963 71.7283 143.912 70.6352 143.84 69.545 143.805 68.4533 143.753 67.3675 143.886 66.2657 143.627 65.1972 144.685 66.4295 146.212 67.1181 147.713 67.6502 150.158 68.5026 152.709 69.1245 155.018 70.3191 158.712 74.6031 162.391 78.906 166.124 83.1581 167.696 84.8209 169.526 86.2895 170.695 88.2872 171.351 89.4021 171.735 90.7402 171.457 92.029 171.185 93.0235 170.535 93.8542 169.869 94.6197 168.817 95.7882 167.621 96.8132 166.488 97.9005 164.485 99.9127 162.818 102.293 160.465 103.934 159.95 104.263 159.438 104.678 158.803 104.716 158.173 104.81 157.498 104.724 156.966 104.359 156.375 103.962 155.991 103.343 155.469 102.87 155.902 105.62 157.904 107.702 158.961 110.196 159.129 110.565 159.26 110.957 159.29 111.366 160.378 121.15 162.354 130.815 163.281 140.619 161.981 140.726 160.705 141.08 159.551 141.691 157.807 142.595 156.15 143.786 154.168 144.108 154.874 145.247 155.254 146.56 155.406 147.884 155.627 149.677 155.575 151.499 155.899 153.281 156.469 156.139 158.144 158.608 158.915 161.4 160.273 166.404 160.131 171.641 160.924 176.737 161.214 178.383 161.495 180.065 162.233 181.583 163.402 184.055 165.252 186.216 165.907 188.917 166.978 193.148 166.996 197.542 167.183 201.875 166.316 202.736 165.057 203.073 163.861 203.032 162.336 202.999 160.721 202.401 159.821 201.114 159.17 200.189 159.147 199.005 159.211 197.92 159.367 195.882 159.757 193.868 159.876 191.827 160.066 189.158 159.306 186.528 158.299 184.087 156.949 180.855 155.031 177.905 153.57 174.729 152.374 172.221 151.771 169.421 150.15 167.126 150.031 167 149.96 166.787 149.773 166.765 148.554 169.253 147.017 171.571 145.782 174.052 144.459 176.655 143.437 179.458 143.179 182.385 142.764 186.295 143.222 190.248 142.677 194.148 142.473 195.743 142.062 197.323 141.366 198.777 141.248 199.019 141.136 199.296 140.874 199.418 139.563 200.157 137.954 200.233 136.519 199.853 135.596 199.577 134.666 199.044 134.24 198.142 134.119 197.952 134.218 197.737 134.253 197.545 135.863 191.122 137.823 184.793 139.428 178.369 141.864 168.812 143.363 158.935 142.855 149.052 142.866 148.672 142.389 148.691 142.126 148.71 140.874 148.896 139.76 149.586 138.505 149.77 134.64 139.452 131.025 129.028 128.065 118.411 127.884 118.323 127.695 118.216 127.488 118.242 126.466 118.281 125.457 118.701 124.432 118.495 124.139 118.42 123.736 118.266 123.733 117.91 123.453 113.488 124.081 109.079 124.155 104.662 123.219 108.333 122.671 112.099 122.498 115.883 122.336 119.977 122.558 124.206 124.139 128.036 123.87 128.441 123.181 128.605 122.836 128.199 122.255 127.58 122.041 126.518 121.115 126.298 120.261 128.383 120.931 130.792 119.874 132.816 118.787 132.731 118.033 131.756 117.827 130.747 117.302 128.299 117.897 125.792 117.656 123.323 117.633 123.106 117.423 122.98 117.246 122.901 116.67 122.677 116.022 122.764 115.451 122.529 115.177 122.411 115.015 122.11 115.054 121.818 115.228 118.088 115.505 114.365 115.779 110.642 116.508 101.754 116.973 92.8438 117.892 83.9699 118.203 81.0603 118.552 78.1521 119.064 75.27 119.433 73.3752 119.791 71.4543 120.574 69.6784 120.88 69.039 121.264 68.2808 122.021 68.1126 124.407 67.5298 126.875 67.2906 129.221 66.5368M154.329 84.4556C154.018 84.8427 153.864 85.3254 153.644 85.7661 153.358 86.3765 152.901 86.8868 152.601 87.4884 152.275 88.2292 152.058 89.0194 151.621 89.708 151.109 90.4517 151.008 91.5086 151.472 92.2987 151.581 92.5176 151.669 92.7524 151.811 92.9568 152.707 93.7687 153.778 94.3457 154.828 94.9285 155.572 95.4939 156.387 95.9636 157.082 96.5899 158.078 95.9158 158.932 95.0619 159.898 94.3457 160.533 93.8687 161.072 93.2685 161.771 92.8786 162.41 92.461 163.231 92.1291 163.511 91.3549 163.695 90.6503 163.393 89.9573 163.192 89.2948 162.647 88.7294 162.093 88.1698 161.542 87.6116 160.599 86.9825 159.577 86.4809 158.609 85.8923 157.529 85.2819 156.487 84.5744 155.305 84.1714 154.972 84.1598 154.545 84.1569 154.329 84.4556Z" stroke="#000000" stroke-width="0.0135986" fill="#FC9A05" transform="matrix(1.38367 0 0 1 212.926 764.969)"/><path d="M5.80553 121.496C6.8392 120.492 8.36723 120.277 9.74738 120.374 10.6317 120.414 11.532 120.693 12.1612 121.34 11.0623 123.069 11.5581 125.283 10.6636 127.088 10.4273 127.582 9.98369 127.935 9.48498 128.145 9.3632 127.53 8.97612 126.959 9.0544 126.317 9.12544 125.88 9.61835 125.775 9.96484 125.65 9.27911 125.302 9.44583 124.409 9.42989 123.778 8.61658 124.148 7.93085 124.929 8.01059 125.873 8.2237 128.138 9.96339 129.843 10.5607 131.98 9.57921 132.298 8.56584 131.887 7.72644 131.388 6.87834 130.868 6.08388 130.228 5.48369 129.429 5.04007 128.87 5.02557 128.126 4.82261 127.468 4.63269 126.6 4.3065 125.744 4.2949 124.848 4.35434 123.541 5.88092 122.836 5.80553 121.496Z" stroke="#000000" stroke-width="0.0135986" fill="#FC9A05" transform="matrix(1.38367 0 0 1 212.926 764.969)"/><path d="M52.4002 126.305C53.6629 126.479 54.9604 126.395 56.2014 126.72 56.5276 127.761 57.2351 128.676 57.3293 129.786 57.4337 131.476 56.9292 133.229 55.8274 134.533 54.7459 135.871 53.0381 136.522 51.3665 136.693 50.717 136.73 49.9762 136.761 49.4514 136.307 49.1905 135.771 49.1905 135.025 49.6732 134.612 50.3894 133.953 51.4129 133.789 52.1552 133.167 52.7322 132.707 52.9192 131.938 52.9873 131.237 53.0047 129.947 52.1581 128.902 51.5666 127.827 51.5144 127.687 51.3564 127.549 51.4231 127.394 51.6594 126.961 52.0204 126.613 52.4002 126.305Z" stroke="#000000" stroke-width="0.0135986" fill="#FC9A05" transform="matrix(1.38367 0 0 1 212.926 764.969)"/></g></g></g><path d="M2739 884C2739 808.889 2803.69 748 2883.5 748 2963.31 748 3028 808.889 3028 884 3028 959.111 2963.31 1020 2883.5 1020 2803.69 1020 2739 959.111 2739 884Z" fill="#FC9A05" fill-rule="evenodd"/><g clip-path="url(#clip4)"><g clip-path="url(#clip5)"><g clip-path="url(#clip6)"><path d="M2955.51 927.955 2925.69 899.592C2938.46 894.737 2944.86 880.455 2940.01 867.693 2936.94 859.635 2929.9 853.756 2921.43 852.178L2893.39 823.539C2905.92 818.07 2911.64 803.482 2906.17 790.956 2900.7 778.429 2886.11 772.708 2873.59 778.176 2861.06 783.645 2855.34 798.233 2860.81 810.76 2863.3 816.478 2867.87 821.043 2873.59 823.539L2845.6 852.178C2832.17 854.658 2823.3 867.553 2825.78 880.981 2827.34 889.465 2833.22 896.519 2841.28 899.592L2811.49 927.955C2798.1 930.848 2789.59 944.045 2792.49 957.432 2795.38 970.819 2808.58 979.326 2821.96 976.434 2835.35 973.541 2843.86 960.344 2840.97 946.957 2839.16 938.594 2833.17 931.754 2825.12 928.859L2849.04 906.118 2873.46 929.461C2860.94 934.937 2855.22 949.528 2860.7 962.051 2866.17 974.575 2880.77 980.289 2893.29 974.813 2905.81 969.337 2911.53 954.746 2906.05 942.222 2903.55 936.514 2899 931.957 2893.29 929.461L2917.84 906.093 2941.76 928.834C2928.91 933.465 2922.25 947.633 2926.89 960.478 2931.52 973.323 2945.69 979.981 2958.53 975.349 2971.38 970.717 2978.03 956.549 2973.4 943.705 2970.51 935.695 2963.71 929.735 2955.39 927.93ZM2858.58 853.258 2883.5 827.781 2908.42 853.258C2895.58 857.892 2888.93 872.061 2893.56 884.905 2896.21 892.243 2902.16 897.902 2909.63 900.169L2883.5 925.043 2857.35 900.169C2870.41 896.208 2877.79 882.404 2873.83 869.336 2871.57 861.87 2865.91 855.909 2858.58 853.258ZM2931.59 876.5C2931.59 884.623 2925.01 891.209 2916.88 891.209 2908.76 891.209 2902.17 884.623 2902.17 876.5 2902.17 868.377 2908.76 861.792 2916.88 861.792 2925 861.805 2931.58 868.383 2931.59 876.5ZM2868.84 800.874C2868.84 792.75 2875.43 786.165 2883.55 786.165 2891.67 786.165 2898.26 792.751 2898.26 800.874 2898.26 808.997 2891.67 815.583 2883.55 815.582 2883.53 815.582 2883.52 815.582 2883.5 815.582 2875.38 815.569 2868.81 808.991 2868.79 800.874ZM2835.41 876.5C2835.41 868.377 2841.99 861.792 2850.12 861.792 2858.24 861.792 2864.83 868.377 2864.83 876.5 2864.83 884.623 2858.24 891.209 2850.12 891.209 2842 891.195 2835.42 884.618 2835.41 876.5ZM2831.49 952.126C2831.49 960.25 2824.91 966.835 2816.78 966.835 2808.66 966.835 2802.08 960.25 2802.08 952.126 2802.08 944.003 2808.66 937.418 2816.78 937.418 2824.9 937.432 2831.48 944.009 2831.49 952.126ZM2898.23 952.126C2898.23 960.25 2891.65 966.835 2883.53 966.835 2875.4 966.835 2868.82 960.25 2868.82 952.126 2868.82 944.013 2875.39 937.432 2883.5 937.418 2891.62 937.432 2898.19 944.009 2898.21 952.126ZM2950.24 966.86C2942.12 966.86 2935.53 960.275 2935.53 952.151 2935.53 944.028 2942.12 937.443 2950.24 937.443 2958.36 937.443 2964.95 944.028 2964.95 952.151 2964.94 960.269 2958.36 966.846 2950.24 966.86Z" fill="#FFFFFF"/></g></g></g><path d="M2612 882.854 2716.28 882.855 2716.28 885.146 2612 885.146ZM2711.69 870.25 2739.19 884 2711.69 897.75Z" fill="#79787A"/></g></svg>