<svg width="3123" height="915" xmlns="http://www.w3.org/2000/svg" xmlns:xlink="http://www.w3.org/1999/xlink" xml:space="preserve" overflow="hidden"><defs><clipPath id="clip0"><rect x="115" y="824" width="3123" height="915"/></clipPath><clipPath id="clip1"><rect x="1459" y="837" width="131" height="130"/></clipPath><clipPath id="clip2"><rect x="1459" y="837" width="131" height="130"/></clipPath><clipPath id="clip3"><rect x="1459" y="837" width="131" height="130"/></clipPath><clipPath id="clip4"><rect x="141" y="866" width="131" height="131"/></clipPath><clipPath id="clip5"><rect x="141" y="866" width="131" height="131"/></clipPath><clipPath id="clip6"><rect x="141" y="866" width="131" height="131"/></clipPath><clipPath id="clip7"><rect x="3078" y="823" width="131" height="131"/></clipPath><clipPath id="clip8"><rect x="3078" y="823" width="131" height="131"/></clipPath><clipPath id="clip9"><rect x="3078" y="823" width="131" height="131"/></clipPath><clipPath id="clip10"><rect x="3067" y="823" width="74" height="74"/></clipPath><clipPath id="clip11"><rect x="3067" y="823" width="74" height="74"/></clipPath><clipPath id="clip12"><rect x="3067" y="823" width="74" height="74"/></clipPath></defs><g clip-path="url(#clip0)" transform="translate(-115 -824)"><text font-family="Verdana,Verdana_MSFontService,sans-serif" font-weight="400" font-size="41" transform="matrix(1 0 0 1 256.249 1037)">1<tspan font-size="41" x="26.3542" y="0">.</tspan></text><text font-family="Latha,Latha_MSFontService,sans-serif" font-weight="400" font-size="41" transform="translate(297.499 1037)"> <tspan font-size="41" x="24.0625" y="0">சேவையில் பயனரின் உள்நுழைவு கோரிக்கை</tspan></text><text font-family="Verdana,Verdana_MSFontService,sans-serif" font-weight="400" font-size="41" transform="matrix(1 0 0 1 1495.15 1017)">2<tspan font-size="41" x="26.3541" y="0">. </tspan></text><text font-family="Latha,Latha_MSFontService,sans-serif" font-weight="400" font-size="41" transform="translate(1550.73 1017)">சேவை வழங்குநர் பயனரின் உலாவியை அடையாள<tspan font-size="41" x="1198.54" y="0"> </tspan><tspan font-size="41" x="-55.5729" y="50">வழங்குநரை நோக்கி திருப்பிவிடுதல்</tspan></text><text font-family="Verdana,Verdana_MSFontService,sans-serif" font-weight="400" font-size="41" transform="matrix(1 0 0 1 1495.15 1135)">3<tspan font-size="41" x="26.3541" y="0">. </tspan></text><text font-family="Latha,Latha_MSFontService,sans-serif" font-weight="400" font-size="41" transform="translate(1550.73 1135)">பயனர் அடையாள வழங்குநர் தளத்தில் உள்நுழைவு</text><text font-family="Verdana,Verdana_MSFontService,sans-serif" font-weight="400" font-size="41" transform="matrix(1 0 0 1 1495.15 1218)">4<tspan font-size="41" x="26.3541" y="0">. </tspan></text><text font-family="Latha,Latha_MSFontService,sans-serif" font-weight="400" font-size="41" transform="translate(1550.73 1218)">அடையாள வழங்குநர் சான்றுறுதியின் வெற்றி நிலையை <tspan font-size="41" x="-55.5729" y="50">அனுப்புதல் </tspan></text><text font-family="Verdana,Verdana_MSFontService,sans-serif" font-weight="400" font-size="41" transform="matrix(1 0 0 1 1495.15 1378)">5<tspan font-size="41" x="26.3541" y="0">. SAML </tspan></text><text font-family="Latha,Latha_MSFontService,sans-serif" font-weight="400" font-size="41" transform="translate(1679.06 1378)">பாதுகாப்பு குறி</text><text font-family="Verdana,Verdana_MSFontService,sans-serif" font-weight="400" font-size="41" transform="matrix(1 0 0 1 2024.53 1378)">(Security Token) </text><text font-family="Latha,Latha_MSFontService,sans-serif" font-weight="400" font-size="41" transform="translate(2387.76 1378)">பயனரின் உலாவிக்கு<tspan font-size="41" x="478.385" y="0"> </tspan><tspan font-size="41" x="-892.604" y="50">அனுப்பப்படுகிறது</tspan></text><text font-family="Verdana,Verdana_MSFontService,sans-serif" font-weight="400" font-size="41" transform="matrix(1 0 0 1 1890.47 1428)">.</text><text font-family="Latha,Latha_MSFontService,sans-serif" font-weight="400" font-size="41" transform="translate(1905.36 1428)"> <tspan font-size="41" x="24.0625" y="0">சான்றுறுதி நிலை</tspan><tspan font-size="41" x="425.677" y="0">, </tspan>வழங்கப்பட்ட அதிகாரம் <tspan font-size="41" x="-410.208" y="48">மற்றும் பயனரின் சுயவிவரம் போன்ற தகவல்கள் இந்த பா</tspan>துகாப்பு <tspan font-size="41" x="-410.208" y="99">குறியில் அனுப்பப்படும்</tspan><tspan font-size="41" x="114.01" y="99">.</tspan></text><text font-family="Verdana,Verdana_MSFontService,sans-serif" font-weight="400" font-size="41" transform="matrix(1 0 0 1 206.358 1351)">6<tspan font-size="41" x="26.3542" y="0">. </tspan></text><text font-family="Latha,Latha_MSFontService,sans-serif" font-weight="400" font-size="41" transform="translate(261.931 1351)">பயனரின் உலாவி </text><text font-family="Verdana,Verdana_MSFontService,sans-serif" font-weight="400" font-size="41" transform="matrix(1 0 0 1 688.181 1351)">SAML </text><text font-family="Latha,Latha_MSFontService,sans-serif" font-weight="400" font-size="41" transform="translate(816.514 1351)">பாதுகாப்பு குறியை சே<tspan font-size="41" x="509.896" y="0">வை </tspan><tspan font-size="41" x="-318.542" y="50">வழங்குநரிடம் அனுப்புகிறது</tspan></text><text font-family="Verdana,Verdana_MSFontService,sans-serif" font-weight="400" font-size="41" transform="matrix(1 0 0 1 174.137 1483)">7<tspan font-size="41" x="26.3542" y="0">. </tspan></text><text font-family="Latha,Latha_MSFontService,sans-serif" font-weight="400" font-size="41" transform="translate(229.71 1483)">சேவை வழங்குநர் இந்த குறியை ஆராய்ந்து பயனரை <tspan font-size="41" x="424.531" y="50">சரிபார்க்கிறது</tspan>.</text><text font-family="Verdana,Verdana_MSFontService,sans-serif" font-weight="400" font-size="41" transform="matrix(1 0 0 1 151.844 1602)">8<tspan font-size="41" x="26.3542" y="0">. </tspan></text><text font-family="Latha,Latha_MSFontService,sans-serif" font-weight="400" font-size="41" transform="translate(207.417 1602)">வழங்கப்பட்ட அதிகாரம் மற்றும் பயனரின் சுயவிவரம் <tspan font-size="41" x="-55.5729" y="49">ஆகியவற்றின் அடிப்படையில் சேவை</tspan><tspan font-size="41" x="800.938" y="49">/</tspan>பயன்பாட்டிற்கு<tspan font-size="41" x="1146.41" y="49"> </tspan><tspan font-size="41" x="-55.5729" y="99">அனுமதி</tspan><tspan font-size="41" x="134.635" y="99">/</tspan>அணுகல் வழங்கப்படுகிறது</text><g clip-path="url(#clip1)"><g clip-path="url(#clip2)"><g clip-path="url(#clip3)"><path d="M1581.81 893.29 1563.48 893.29C1562.57 893.29 1561.79 894.07 1561.79 894.98L1561.79 930.73C1561.79 931.64 1562.57 932.42 1563.48 932.42L1581.81 932.42C1582.72 932.42 1583.5 931.64 1583.5 930.73L1583.5 895.11C1583.5 894.07 1582.72 893.29 1581.81 893.29ZM1572.58 931.64C1571.8 931.64 1571.28 930.99 1571.28 930.34 1571.28 929.56 1571.93 929.04 1572.58 929.04 1573.36 929.04 1573.88 929.69 1573.88 930.34 1573.88 931.12 1573.36 931.64 1572.58 931.64ZM1575.44 895.89 1569.72 895.89C1569.46 895.89 1569.33 895.63 1569.33 895.5 1569.33 895.37 1569.59 895.11 1569.72 895.11L1575.44 895.11C1575.7 895.11 1575.83 895.37 1575.83 895.5 1575.83 895.63 1575.7 895.89 1575.44 895.89Z" fill="#AE5E0E"/><path d="M1548.14 876.78 1548.14 874.31C1548.14 872.75 1546.84 871.45 1545.28 871.45L1469.36 871.45C1467.8 871.45 1466.5 872.75 1466.5 874.31L1466.5 914.09C1466.5 915.65 1467.8 916.95 1469.36 916.95L1502.77 916.95 1501.99 920.59C1501.34 921.11 1500.69 921.76 1500.17 922.41L1494.84 929.95C1494.45 930.6 1494.84 931.51 1495.62 931.51L1519.15 931.51C1519.93 931.51 1520.32 930.6 1519.93 929.95L1514.6 922.41C1514.08 921.63 1513.43 921.11 1512.78 920.59L1512 916.95 1530.46 916.95 1530.46 878.21C1530.46 877.43 1531.11 876.91 1531.76 876.91L1548.14 876.78ZM1507.32 912.27C1506.28 912.27 1505.5 911.49 1505.5 910.45 1505.5 909.41 1506.28 908.63 1507.32 908.63 1508.36 908.63 1509.14 909.41 1509.14 910.45 1509.14 911.49 1508.36 912.27 1507.32 912.27Z" fill="#AE5E0E"/><path d="M1569.59 889.78 1570.11 889.78 1570.11 881.59C1570.11 880.81 1569.46 880.16 1568.68 880.16L1535.27 880.16C1534.49 880.16 1533.84 880.81 1533.84 881.59L1533.84 930.99C1533.84 931.77 1534.49 932.42 1535.27 932.42L1554.38 932.42 1558.54 932.42 1558.54 891.21C1558.54 890.43 1559.19 889.91 1559.84 889.91L1569.59 889.78 1569.59 889.78ZM1552.04 930.73C1551.26 930.73 1550.61 930.08 1550.61 929.3 1550.61 928.52 1551.26 927.87 1552.04 927.87 1552.82 927.87 1553.47 928.52 1553.47 929.3 1553.47 930.08 1552.82 930.73 1552.04 930.73Z" fill="#AE5E0E"/></g></g></g><g clip-path="url(#clip4)"><g clip-path="url(#clip5)"><g clip-path="url(#clip6)"><path d="M253.15 956.83C249.9 958 244.7 959.43 238.98 960.73 236.9 964.11 233.13 966.84 227.28 968.01 225.85 968.27 224.42 968.4 222.73 968.4 218.7 968.53 213.89 968.14 208.56 967.62 208.17 967.62 207.78 967.62 207.52 967.49 206.22 967.36 205.05 966.45 205.05 965.15 204.92 963.46 206.22 962.16 207.91 962.29 208.3 962.29 208.69 962.42 209.21 962.42 216.1 963.07 222.47 963.59 226.63 962.81 234.17 961.38 236.38 956.83 235.86 952.93 235.47 949.81 233.13 946.69 229.36 947.08 224.03 947.47 217.79 947.08 211.81 946.56 204.92 946.04 197.77 945.91 192.7 946.43 187.11 947.08 175.67 951.24 165.53 958.13 160.59 961.51 155.13 965.54 151.75 967.88 150.06 969.18 149.67 971.52 150.97 973.21L165.4 992.32C166.7 994.01 169.04 994.27 170.6 992.97L176.06 988.81C177.36 987.77 179.05 987.51 180.61 988.03 190.49 991.15 201.02 993.23 207.91 993.62 222.99 994.4 251.85 976.59 260.17 970.87 268.36 965.02 262.38 953.45 253.15 956.83Z" fill="#DF7275"/><path d="M190.23 911.72 195.56 911.72C196.21 913.93 196.99 916.01 198.16 917.96L194.39 921.6C193.48 922.51 193.48 923.94 194.39 924.85L201.54 932C202.45 932.91 203.88 932.91 204.79 932L208.56 928.23C210.51 929.27 212.59 930.18 214.8 930.83L214.8 936.03C214.8 937.33 215.84 938.37 217.14 938.37L227.15 938.37C228.45 938.37 229.49 937.33 229.49 936.03L229.49 930.7C231.7 930.05 233.78 929.27 235.73 928.1L239.37 931.87C240.28 932.78 241.71 932.78 242.62 931.87L249.77 924.72C250.68 923.81 250.68 922.38 249.77 921.47L246 917.83C247.04 915.88 247.95 913.8 248.6 911.59L253.8 911.59C255.1 911.59 256.14 910.55 256.14 909.25L256.14 899.24C256.14 897.94 255.1 896.9 253.8 896.9L248.47 896.9C247.82 894.69 247.04 892.61 245.87 890.66L249.64 886.89C250.55 885.98 250.55 884.55 249.64 883.64L242.49 876.49C241.58 875.58 240.15 875.58 239.24 876.49L235.6 880.39C233.65 879.35 231.57 878.44 229.36 877.79L229.36 872.59C229.36 871.29 228.32 870.25 227.02 870.25L217.01 870.25C215.71 870.25 214.67 871.29 214.67 872.59L214.67 877.92C212.46 878.57 210.38 879.35 208.43 880.52L204.66 876.88C203.75 875.97 202.32 875.97 201.41 876.88L194.26 884.03C193.35 884.94 193.35 886.37 194.26 887.28L198.03 891.05C196.99 893 196.08 895.08 195.43 897.29L190.23 897.29C188.93 897.29 187.89 898.33 187.89 899.63L187.89 909.64C187.89 910.68 188.93 911.72 190.23 911.72ZM221.95 887.28C231.31 887.28 238.98 894.95 238.98 904.31 238.98 913.67 231.31 921.34 221.95 921.34 212.59 921.34 204.92 913.67 204.92 904.31 204.92 894.95 212.59 887.28 221.95 887.28Z" fill="#DF7275"/><path d="M217.53 911.59C218.05 912.24 218.83 912.5 219.74 912.5 220.52 912.5 221.3 912.11 221.95 911.59L231.7 901.06C232.87 899.89 232.74 897.94 231.57 896.9 230.4 895.73 228.45 895.86 227.41 897.03L219.87 905.22 216.88 901.97C215.71 900.8 213.89 900.67 212.72 901.84 211.55 903.01 211.42 904.83 212.59 906L217.53 911.59Z" fill="#DF7275"/></g></g></g><g clip-path="url(#clip7)"><g clip-path="url(#clip8)"><g clip-path="url(#clip9)"><path d="M3132.07 843.682C3132.07 852.136 3137.41 859.351 3144.91 862.135L3144.91 880.21 3148.73 880.21 3148.73 886.386 3144.91 886.386 3144.91 892.702 3148.75 892.702 3148.73 897.436 3144.91 897.436 3144.91 903.283 3151.75 908.308 3158.61 903.283 3158.61 862.135C3166.09 859.351 3171.43 852.136 3171.43 843.682 3171.43 832.809 3162.62 824 3151.75 824 3140.89 824 3132.07 832.809 3132.07 843.682ZM3143.07 843.682C3143.07 848.479 3146.96 852.364 3151.75 852.364 3156.55 852.364 3160.45 848.479 3160.45 843.682 3160.45 838.872 3156.55 834.986 3151.75 834.986 3146.96 834.986 3143.07 838.872 3143.07 843.682ZM3104.55 915.89C3116.62 912.27 3125.92 911.51 3143.11 922.813L3164.76 918.105C3170.9 916.763 3172.16 921.13 3173.13 924.307L3146.53 937.774C3144.41 939.141 3145.87 941.381 3147.56 940.621L3176.12 926.281 3176.86 923.37 3200.92 906.511C3206.42 902.663 3207.71 907.017 3209 909.954L3182.6 936.685 3154.42 951.177C3150.7 953.101 3147.01 953.772 3142.84 953.304L3104.55 948.962 3104.55 915.89ZM3079 915.523 3101.24 915.523 3101.24 954 3079 954 3079 915.523ZM3172.42 871.033 3179.65 875.982 3192.79 857.503 3197.63 861.098 3182.65 881.994 3180.86 884.273 3178.51 882.614 3168.92 876.008 3172.42 871.033Z" fill="#01919A" fill-rule="evenodd"/></g></g></g><g clip-path="url(#clip10)"><g clip-path="url(#clip11)"><g clip-path="url(#clip12)"><path d="M3104 824C3114.4 824 3121.24 833.811 3121.24 843.56 3121.24 853.318 3114.4 863.12 3104 863.12 3093.6 863.12 3086.77 853.318 3086.77 843.56 3086.77 833.811 3093.6 824 3104 824ZM3104 828.756C3096.26 828.756 3091.51 836.452 3091.51 843.56 3091.51 850.676 3096.26 858.372 3104 858.372 3111.74 858.372 3116.49 850.676 3116.49 843.56 3116.49 836.452 3111.74 828.756 3104 828.756Z" fill="#01919A"/><path d="M3070.93 893.069C3072.9 884.9 3080.65 864.331 3090.93 864.278L3091.1 864.278C3099.42 864.84 3108.58 864.84 3116.9 864.278L3117.07 864.278C3127.34 864.331 3135.1 884.908 3137.07 893.069L3137.78 896 3070.22 896 3070.93 893.069ZM3076.39 891.244 3131.61 891.244C3129.94 886.049 3123.6 869.271 3117.17 869.017 3108.64 869.587 3099.37 869.587 3090.84 869.017 3084.39 869.271 3078.07 886.049 3076.39 891.244Z" fill="#01919A"/></g></g></g><path d="M1481.5 921.5 1481.5 1704.25" stroke="#79787A" stroke-width="3.4375" stroke-linejoin="round" stroke-miterlimit="10" fill="none" fill-rule="evenodd"/><text font-family="Latha,Latha_MSFontService,sans-serif" font-weight="400" font-size="46" transform="translate(281.186 947)">சேவை வழங்குநர் </text><text font-family="Verdana,Verdana_MSFontService,sans-serif" font-weight="400" font-size="46" transform="matrix(1 0 0 1 763.009 947)">(SP)</text><text font-family="Latha,Latha_MSFontService,sans-serif" font-weight="400" font-size="46" transform="translate(2362.24 929)">அடையாள வழங்குநர்</text><text font-family="Verdana,Verdana_MSFontService,sans-serif" font-weight="400" font-size="46" transform="matrix(1 0 0 1 2930 929)">(IDP<tspan font-size="46" x="103.125" y="0">) </tspan></text><path d="M133.5 921.5 133.5 1704.25" stroke="#79787A" stroke-width="3.4375" stroke-linejoin="round" stroke-miterlimit="10" fill="none" fill-rule="evenodd"/><path d="M3209.5 921.5 3209.5 1704.25" stroke="#79787A" stroke-width="3.4375" stroke-linejoin="round" stroke-miterlimit="10" fill="none" fill-rule="evenodd"/><path d="M133.5 1079.78 147.25 1079.78 147.25 1083.22 133.5 1083.22ZM157.562 1079.78 171.312 1079.78 171.312 1083.22 157.562 1083.22ZM181.625 1079.78 195.375 1079.78 195.375 1083.22 181.625 1083.22ZM205.687 1079.78 219.437 1079.78 219.437 1083.22 205.687 1083.22ZM229.75 1079.78 243.5 1079.78 243.5 1083.22 229.75 1083.22ZM253.812 1079.78 267.562 1079.78 267.562 1083.22 253.812 1083.22ZM277.875 1079.78 291.625 1079.78 291.625 1083.22 277.875 1083.22ZM301.937 1079.78 315.687 1079.78 315.687 1083.22 301.937 1083.22ZM326 1079.78 339.75 1079.78 339.75 1083.22 326 1083.22ZM350.062 1079.78 363.812 1079.78 363.812 1083.22 350.062 1083.22ZM374.125 1079.78 387.875 1079.78 387.875 1083.22 374.125 1083.22ZM398.187 1079.78 411.937 1079.78 411.937 1083.22 398.187 1083.22ZM422.25 1079.78 436 1079.78 436 1083.22 422.25 1083.22ZM446.312 1079.78 460.062 1079.78 460.062 1083.22 446.312 1083.22ZM470.375 1079.78 484.125 1079.78 484.125 1083.22 470.375 1083.22ZM494.437 1079.78 508.187 1079.78 508.187 1083.22 494.437 1083.22ZM518.5 1079.78 532.25 1079.78 532.25 1083.22 518.5 1083.22ZM542.562 1079.78 556.312 1079.78 556.312 1083.22 542.562 1083.22ZM566.625 1079.78 580.375 1079.78 580.375 1083.22 566.625 1083.22ZM590.687 1079.78 604.437 1079.78 604.437 1083.22 590.687 1083.22ZM614.75 1079.78 628.5 1079.78 628.5 1083.22 614.75 1083.22ZM638.812 1079.78 652.562 1079.78 652.562 1083.22 638.812 1083.22ZM662.875 1079.78 676.625 1079.78 676.625 1083.22 662.875 1083.22ZM686.937 1079.78 700.687 1079.78 700.687 1083.22 686.937 1083.22ZM711 1079.78 724.75 1079.78 724.75 1083.22 711 1083.22ZM735.062 1079.78 748.812 1079.78 748.812 1083.22 735.062 1083.22ZM759.125 1079.78 772.875 1079.78 772.875 1083.22 759.125 1083.22ZM783.187 1079.78 796.937 1079.78 796.937 1083.22 783.187 1083.22ZM807.25 1079.78 821 1079.78 821 1083.22 807.25 1083.22ZM831.312 1079.78 845.062 1079.78 845.062 1083.22 831.312 1083.22ZM855.375 1079.78 869.125 1079.78 869.125 1083.22 855.375 1083.22ZM879.437 1079.78 893.187 1079.78 893.187 1083.22 879.437 1083.22ZM903.5 1079.78 917.25 1079.78 917.25 1083.22 903.5 1083.22ZM927.562 1079.78 941.312 1079.78 941.312 1083.22 927.562 1083.22ZM951.625 1079.78 965.375 1079.78 965.375 1083.22 951.625 1083.22ZM975.687 1079.78 989.437 1079.78 989.437 1083.22 975.687 1083.22ZM999.75 1079.78 1013.5 1079.78 1013.5 1083.22 999.75 1083.22ZM1023.81 1079.78 1037.56 1079.78 1037.56 1083.22 1023.81 1083.22ZM1047.87 1079.78 1061.62 1079.78 1061.62 1083.22 1047.87 1083.22ZM1071.94 1079.78 1085.69 1079.78 1085.69 1083.22 1071.94 1083.22ZM1096 1079.78 1109.75 1079.78 1109.75 1083.22 1096 1083.22ZM1120.06 1079.78 1133.81 1079.78 1133.81 1083.22 1120.06 1083.22ZM1144.12 1079.78 1157.87 1079.78 1157.87 1083.22 1144.12 1083.22ZM1168.19 1079.78 1181.94 1079.78 1181.94 1083.22 1168.19 1083.22ZM1192.25 1079.78 1206 1079.78 1206 1083.22 1192.25 1083.22ZM1216.31 1079.78 1230.06 1079.78 1230.06 1083.22 1216.31 1083.22ZM1240.37 1079.78 1254.12 1079.78 1254.12 1083.22 1240.37 1083.22ZM1264.44 1079.78 1278.19 1079.78 1278.19 1083.22 1264.44 1083.22ZM1288.5 1079.78 1302.25 1079.78 1302.25 1083.22 1288.5 1083.22ZM1312.56 1079.78 1326.31 1079.78 1326.31 1083.22 1312.56 1083.22ZM1336.62 1079.78 1350.37 1079.78 1350.37 1083.22 1336.62 1083.22ZM1360.69 1079.78 1374.44 1079.78 1374.44 1083.22 1360.69 1083.22ZM1384.75 1079.78 1398.5 1079.78 1398.5 1083.22 1384.75 1083.22ZM1408.81 1079.78 1422.56 1079.78 1422.56 1083.22 1408.81 1083.22ZM1432.87 1079.78 1446.62 1079.78 1446.62 1083.22 1432.87 1083.22ZM1447.87 1067.75 1475.37 1081.5 1447.87 1095.25Z" fill="#79787A"/><path d="M1487.5 1079.78 1501.25 1079.78 1501.25 1083.22 1487.5 1083.22ZM1511.56 1079.78 1525.31 1079.78 1525.31 1083.22 1511.56 1083.22ZM1535.62 1079.78 1549.37 1079.78 1549.37 1083.22 1535.62 1083.22ZM1559.69 1079.78 1573.44 1079.78 1573.44 1083.22 1559.69 1083.22ZM1583.75 1079.78 1597.5 1079.78 1597.5 1083.22 1583.75 1083.22ZM1607.81 1079.78 1621.56 1079.78 1621.56 1083.22 1607.81 1083.22ZM1631.87 1079.78 1645.62 1079.78 1645.62 1083.22 1631.87 1083.22ZM1655.94 1079.78 1669.69 1079.78 1669.69 1083.22 1655.94 1083.22ZM1680 1079.78 1693.75 1079.78 1693.75 1083.22 1680 1083.22ZM1704.06 1079.78 1717.81 1079.78 1717.81 1083.22 1704.06 1083.22ZM1728.12 1079.78 1741.87 1079.78 1741.87 1083.22 1728.12 1083.22ZM1752.19 1079.78 1765.94 1079.78 1765.94 1083.22 1752.19 1083.22ZM1776.25 1079.78 1790 1079.78 1790 1083.22 1776.25 1083.22ZM1800.31 1079.78 1814.06 1079.78 1814.06 1083.22 1800.31 1083.22ZM1824.37 1079.78 1838.12 1079.78 1838.12 1083.22 1824.37 1083.22ZM1848.44 1079.78 1862.19 1079.78 1862.19 1083.22 1848.44 1083.22ZM1872.5 1079.78 1886.25 1079.78 1886.25 1083.22 1872.5 1083.22ZM1896.56 1079.78 1910.31 1079.78 1910.31 1083.22 1896.56 1083.22ZM1920.62 1079.78 1934.37 1079.78 1934.37 1083.22 1920.62 1083.22ZM1944.69 1079.78 1958.44 1079.78 1958.44 1083.22 1944.69 1083.22ZM1968.75 1079.78 1982.5 1079.78 1982.5 1083.22 1968.75 1083.22ZM1992.81 1079.78 2006.56 1079.78 2006.56 1083.22 1992.81 1083.22ZM2016.87 1079.78 2030.62 1079.78 2030.62 1083.22 2016.87 1083.22ZM2040.94 1079.78 2054.69 1079.78 2054.69 1083.22 2040.94 1083.22ZM2065 1079.78 2078.75 1079.78 2078.75 1083.22 2065 1083.22ZM2089.06 1079.78 2102.81 1079.78 2102.81 1083.22 2089.06 1083.22ZM2113.12 1079.78 2126.88 1079.78 2126.88 1083.22 2113.12 1083.22ZM2137.19 1079.78 2150.94 1079.78 2150.94 1083.22 2137.19 1083.22ZM2161.25 1079.78 2175 1079.78 2175 1083.22 2161.25 1083.22ZM2185.31 1079.78 2199.06 1079.78 2199.06 1083.22 2185.31 1083.22ZM2209.38 1079.78 2223.12 1079.78 2223.12 1083.22 2209.38 1083.22ZM2233.44 1079.78 2247.19 1079.78 2247.19 1083.22 2233.44 1083.22ZM2257.5 1079.78 2271.25 1079.78 2271.25 1083.22 2257.5 1083.22ZM2281.56 1079.78 2295.31 1079.78 2295.31 1083.22 2281.56 1083.22ZM2305.62 1079.78 2319.38 1079.78 2319.38 1083.22 2305.62 1083.22ZM2329.69 1079.78 2343.44 1079.78 2343.44 1083.22 2329.69 1083.22ZM2353.75 1079.78 2367.5 1079.78 2367.5 1083.22 2353.75 1083.22ZM2377.81 1079.78 2391.56 1079.78 2391.56 1083.22 2377.81 1083.22ZM2401.88 1079.78 2415.62 1079.78 2415.62 1083.22 2401.88 1083.22ZM2425.94 1079.78 2439.69 1079.78 2439.69 1083.22 2425.94 1083.22ZM2450 1079.78 2463.75 1079.78 2463.75 1083.22 2450 1083.22ZM2474.06 1079.78 2487.81 1079.78 2487.81 1083.22 2474.06 1083.22ZM2498.12 1079.78 2511.88 1079.78 2511.88 1083.22 2498.12 1083.22ZM2522.19 1079.78 2535.94 1079.78 2535.94 1083.22 2522.19 1083.22ZM2546.25 1079.78 2560 1079.78 2560 1083.22 2546.25 1083.22ZM2570.31 1079.78 2584.06 1079.78 2584.06 1083.22 2570.31 1083.22ZM2594.38 1079.78 2608.12 1079.78 2608.12 1083.22 2594.38 1083.22ZM2618.44 1079.78 2632.19 1079.78 2632.19 1083.22 2618.44 1083.22ZM2642.5 1079.78 2656.25 1079.78 2656.25 1083.22 2642.5 1083.22ZM2666.56 1079.78 2680.31 1079.78 2680.31 1083.22 2666.56 1083.22ZM2690.62 1079.78 2704.38 1079.78 2704.38 1083.22 2690.62 1083.22ZM2714.69 1079.78 2728.44 1079.78 2728.44 1083.22 2714.69 1083.22ZM2738.75 1079.78 2752.5 1079.78 2752.5 1083.22 2738.75 1083.22ZM2762.81 1079.78 2776.56 1079.78 2776.56 1083.22 2762.81 1083.22ZM2786.88 1079.78 2800.62 1079.78 2800.62 1083.22 2786.88 1083.22ZM2810.94 1079.78 2824.69 1079.78 2824.69 1083.22 2810.94 1083.22ZM2835 1079.78 2848.75 1079.78 2848.75 1083.22 2835 1083.22ZM2859.06 1079.78 2872.81 1079.78 2872.81 1083.22 2859.06 1083.22ZM2883.12 1079.78 2896.88 1079.78 2896.88 1083.22 2883.12 1083.22ZM2907.19 1079.78 2920.94 1079.78 2920.94 1083.22 2907.19 1083.22ZM2931.25 1079.78 2945 1079.78 2945 1083.22 2931.25 1083.22ZM2955.31 1079.78 2969.06 1079.78 2969.06 1083.22 2955.31 1083.22ZM2979.38 1079.78 2993.12 1079.78 2993.12 1083.22 2979.38 1083.22ZM3003.44 1079.78 3017.19 1079.78 3017.19 1083.22 3003.44 1083.22ZM3027.5 1079.78 3041.25 1079.78 3041.25 1083.22 3027.5 1083.22ZM3051.56 1079.78 3065.31 1079.78 3065.31 1083.22 3051.56 1083.22ZM3075.62 1079.78 3089.38 1079.78 3089.38 1083.22 3075.62 1083.22ZM3099.69 1079.78 3113.44 1079.78 3113.44 1083.22 3099.69 1083.22ZM3123.75 1079.78 3137.5 1079.78 3137.5 1083.22 3123.75 1083.22ZM3147.81 1079.78 3161.56 1079.78 3161.56 1083.22 3147.81 1083.22ZM3171.88 1079.78 3185.62 1079.78 3185.62 1083.22 3171.88 1083.22ZM3182.15 1067.75 3209.65 1081.5 3182.15 1095.25Z" fill="#79787A"/><path d="M3.61544e-07-1.71875 13.75-1.71875 13.75 1.71875-3.61544e-07 1.71875ZM24.0625-1.71874 37.8125-1.71874 37.8125 1.71876 24.0625 1.71876ZM48.125-1.71874 61.875-1.71874 61.875 1.71876 48.125 1.71876ZM72.1875-1.71873 85.9375-1.71873 85.9375 1.71877 72.1875 1.71877ZM96.25-1.71873 110-1.71873 110 1.71877 96.25 1.71877ZM120.312-1.71872 134.062-1.71872 134.062 1.71878 120.312 1.71878ZM144.375-1.71872 158.125-1.71872 158.125 1.71878 144.375 1.71878ZM168.438-1.71871 182.188-1.71871 182.188 1.71879 168.438 1.71879ZM192.5-1.71871 206.25-1.71871 206.25 1.71879 192.5 1.71879ZM216.562-1.7187 230.312-1.7187 230.312 1.7188 216.562 1.7188ZM240.625-1.7187 254.375-1.7187 254.375 1.7188 240.625 1.7188ZM264.688-1.71869 278.438-1.71869 278.438 1.71881 264.688 1.71881ZM288.75-1.71869 302.5-1.71869 302.5 1.71881 288.75 1.71881ZM312.812-1.71868 326.562-1.71868 326.562 1.71882 312.812 1.71882ZM336.875-1.71868 350.625-1.71868 350.625 1.71882 336.875 1.71882ZM360.938-1.71867 374.688-1.71867 374.688 1.71883 360.938 1.71883ZM385-1.71867 398.75-1.71867 398.75 1.71883 385 1.71883ZM409.062-1.71866 422.812-1.71866 422.812 1.71884 409.062 1.71884ZM433.125-1.71866 446.875-1.71866 446.875 1.71884 433.125 1.71884ZM457.188-1.71865 470.938-1.71865 470.938 1.71885 457.188 1.71885ZM481.25-1.71865 495-1.71865 495 1.71885 481.25 1.71885ZM505.312-1.71864 519.062-1.71864 519.062 1.71886 505.312 1.71886ZM529.375-1.71864 543.125-1.71864 543.125 1.71886 529.375 1.71886ZM553.438-1.71863 567.188-1.71863 567.188 1.71887 553.438 1.71887ZM577.5-1.71863 591.25-1.71863 591.25 1.71887 577.5 1.71887ZM601.562-1.71862 615.312-1.71862 615.312 1.71888 601.562 1.71888ZM625.625-1.71862 639.375-1.71862 639.375 1.71888 625.625 1.71888ZM649.688-1.71861 663.438-1.71861 663.438 1.71889 649.688 1.71889ZM673.75-1.71861 687.5-1.71861 687.5 1.71889 673.75 1.71889ZM697.812-1.7186 711.562-1.7186 711.562 1.7189 697.812 1.7189ZM721.875-1.7186 735.625-1.7186 735.625 1.7189 721.875 1.7189ZM745.938-1.71859 759.688-1.71859 759.688 1.71891 745.938 1.71891ZM770-1.71859 783.75-1.71859 783.75 1.71891 770 1.71891ZM794.062-1.71858 807.812-1.71858 807.812 1.71892 794.062 1.71892ZM818.125-1.71858 831.875-1.71858 831.875 1.71892 818.125 1.71892ZM842.188-1.71857 855.938-1.71857 855.938 1.71893 842.188 1.71893ZM866.25-1.71857 880-1.71856 880 1.71894 866.25 1.71893ZM890.312-1.71856 904.062-1.71856 904.062 1.71894 890.312 1.71894ZM914.375-1.71856 928.125-1.71855 928.125 1.71895 914.375 1.71894ZM938.438-1.71855 952.188-1.71855 952.188 1.71895 938.438 1.71895ZM962.5-1.71855 976.25-1.71854 976.25 1.71896 962.5 1.71895ZM986.562-1.71854 1000.31-1.71854 1000.31 1.71896 986.562 1.71896ZM1010.62-1.71854 1024.38-1.71853 1024.38 1.71897 1010.62 1.71896ZM1034.69-1.71853 1048.44-1.71853 1048.44 1.71897 1034.69 1.71897ZM1058.75-1.71853 1072.5-1.71852 1072.5 1.71898 1058.75 1.71897ZM1082.81-1.71852 1096.56-1.71852 1096.56 1.71898 1082.81 1.71898ZM1106.88-1.71852 1120.62-1.71851 1120.62 1.71899 1106.88 1.71898ZM1130.94-1.71851 1144.69-1.71851 1144.69 1.71899 1130.94 1.71899ZM1155-1.71851 1168.75-1.7185 1168.75 1.719 1155 1.71899ZM1179.06-1.7185 1192.81-1.7185 1192.81 1.719 1179.06 1.719ZM1203.12-1.7185 1216.88-1.71849 1216.88 1.71901 1203.12 1.719ZM1227.19-1.71849 1240.94-1.71849 1240.94 1.71901 1227.19 1.71901ZM1251.25-1.71849 1265-1.71848 1265 1.71902 1251.25 1.71901ZM1275.31-1.71848 1289.06-1.71848 1289.06 1.71902 1275.31 1.71902ZM1299.38-1.71848 1313.12-1.71847 1313.12 1.71903 1299.38 1.71902ZM1323.44-1.71847 1337.19-1.71847 1337.19 1.71903 1323.44 1.71903ZM1347.5-1.71847 1361.25-1.71846 1361.25 1.71904 1347.5 1.71903ZM1371.56-1.71846 1385.31-1.71846 1385.31 1.71904 1371.56 1.71904ZM1395.62-1.71846 1409.38-1.71845 1409.38 1.71905 1395.62 1.71904ZM1419.69-1.71845 1433.44-1.71845 1433.44 1.71905 1419.69 1.71905ZM1443.75-1.71845 1457.5-1.71844 1457.5 1.71906 1443.75 1.71905ZM1467.81-1.71844 1481.56-1.71844 1481.56 1.71906 1467.81 1.71906ZM1491.88-1.71844 1505.62-1.71843 1505.62 1.71907 1491.88 1.71906ZM1515.94-1.71843 1529.69-1.71843 1529.69 1.71907 1515.94 1.71907ZM1540-1.71843 1553.75-1.71842 1553.75 1.71908 1540 1.71907ZM1564.06-1.71842 1577.81-1.71842 1577.81 1.71908 1564.06 1.71908ZM1588.12-1.71842 1601.88-1.71841 1601.88 1.71909 1588.12 1.71908ZM1612.19-1.71841 1625.94-1.71841 1625.94 1.71909 1612.19 1.71909ZM1636.25-1.71841 1650-1.7184 1650 1.7191 1636.25 1.71909ZM1660.31-1.7184 1674.06-1.7184 1674.06 1.7191 1660.31 1.7191ZM1684.38-1.7184 1692.74-1.71839 1692.74 1.71911 1684.38 1.7191ZM1688.15-13.7496 1715.65 0.000360892 1688.15 13.7504Z" fill="#79787A" transform="matrix(-1 0 0 1 3194.15 1289.5)"/><path d="M143.5 1555.78 157.25 1555.78 157.25 1559.22 143.5 1559.22ZM167.562 1555.78 181.312 1555.78 181.312 1559.22 167.562 1559.22ZM191.625 1555.78 205.375 1555.78 205.375 1559.22 191.625 1559.22ZM215.687 1555.78 229.437 1555.78 229.437 1559.22 215.687 1559.22ZM239.75 1555.78 253.5 1555.78 253.5 1559.22 239.75 1559.22ZM263.812 1555.78 277.562 1555.78 277.562 1559.22 263.812 1559.22ZM287.875 1555.78 301.625 1555.78 301.625 1559.22 287.875 1559.22ZM311.937 1555.78 325.687 1555.78 325.687 1559.22 311.937 1559.22ZM336 1555.78 349.75 1555.78 349.75 1559.22 336 1559.22ZM360.062 1555.78 373.812 1555.78 373.812 1559.22 360.062 1559.22ZM384.125 1555.78 397.875 1555.78 397.875 1559.22 384.125 1559.22ZM408.187 1555.78 421.937 1555.78 421.937 1559.22 408.187 1559.22ZM432.25 1555.78 446 1555.78 446 1559.22 432.25 1559.22ZM456.312 1555.78 470.062 1555.78 470.062 1559.22 456.312 1559.22ZM480.375 1555.78 494.125 1555.78 494.125 1559.22 480.375 1559.22ZM504.437 1555.78 518.187 1555.78 518.187 1559.22 504.437 1559.22ZM528.5 1555.78 542.25 1555.78 542.25 1559.22 528.5 1559.22ZM552.562 1555.78 566.312 1555.78 566.312 1559.22 552.562 1559.22ZM576.625 1555.78 590.375 1555.78 590.375 1559.22 576.625 1559.22ZM600.687 1555.78 614.437 1555.78 614.437 1559.22 600.687 1559.22ZM624.75 1555.78 638.5 1555.78 638.5 1559.22 624.75 1559.22ZM648.812 1555.78 662.562 1555.78 662.562 1559.22 648.812 1559.22ZM672.875 1555.78 686.625 1555.78 686.625 1559.22 672.875 1559.22ZM696.937 1555.78 710.687 1555.78 710.687 1559.22 696.937 1559.22ZM721 1555.78 734.75 1555.78 734.75 1559.22 721 1559.22ZM745.062 1555.78 758.812 1555.78 758.812 1559.22 745.062 1559.22ZM769.125 1555.78 782.875 1555.78 782.875 1559.22 769.125 1559.22ZM793.187 1555.78 806.937 1555.78 806.937 1559.22 793.187 1559.22ZM817.25 1555.78 831 1555.78 831 1559.22 817.25 1559.22ZM841.312 1555.78 855.062 1555.78 855.062 1559.22 841.312 1559.22ZM865.375 1555.78 879.125 1555.78 879.125 1559.22 865.375 1559.22ZM889.437 1555.78 903.187 1555.78 903.187 1559.22 889.437 1559.22ZM913.5 1555.78 927.25 1555.78 927.25 1559.22 913.5 1559.22ZM937.562 1555.78 951.312 1555.78 951.312 1559.22 937.562 1559.22ZM961.625 1555.78 975.375 1555.78 975.375 1559.22 961.625 1559.22ZM985.687 1555.78 999.437 1555.78 999.437 1559.22 985.687 1559.22ZM1009.75 1555.78 1023.5 1555.78 1023.5 1559.22 1009.75 1559.22ZM1033.81 1555.78 1047.56 1555.78 1047.56 1559.22 1033.81 1559.22ZM1057.87 1555.78 1071.62 1555.78 1071.62 1559.22 1057.87 1559.22ZM1081.94 1555.78 1095.69 1555.78 1095.69 1559.22 1081.94 1559.22ZM1106 1555.78 1119.75 1555.78 1119.75 1559.22 1106 1559.22ZM1130.06 1555.78 1143.81 1555.78 1143.81 1559.22 1130.06 1559.22ZM1154.12 1555.78 1167.87 1555.78 1167.87 1559.22 1154.12 1559.22ZM1178.19 1555.78 1191.94 1555.78 1191.94 1559.22 1178.19 1559.22ZM1202.25 1555.78 1216 1555.78 1216 1559.22 1202.25 1559.22ZM1226.31 1555.78 1240.06 1555.78 1240.06 1559.22 1226.31 1559.22ZM1250.37 1555.78 1264.12 1555.78 1264.12 1559.22 1250.37 1559.22ZM1274.44 1555.78 1288.19 1555.78 1288.19 1559.22 1274.44 1559.22ZM1298.5 1555.78 1312.25 1555.78 1312.25 1559.22 1298.5 1559.22ZM1322.56 1555.78 1336.31 1555.78 1336.31 1559.22 1322.56 1559.22ZM1346.62 1555.78 1360.37 1555.78 1360.37 1559.22 1346.62 1559.22ZM1370.69 1555.78 1384.44 1555.78 1384.44 1559.22 1370.69 1559.22ZM1394.75 1555.78 1408.5 1555.78 1408.5 1559.22 1394.75 1559.22ZM1418.81 1555.78 1432.56 1555.78 1432.56 1559.22 1418.81 1559.22ZM1442.87 1555.78 1456.62 1555.78 1456.62 1559.22 1442.87 1559.22ZM1454.24 1543.75 1481.74 1557.5 1454.24 1571.25Z" fill="#79787A"/><path d="M4.68017e-07-1.71875 13.75-1.71875 13.75 1.71875-4.68017e-07 1.71875ZM24.0625-1.71874 37.8125-1.71874 37.8125 1.71876 24.0625 1.71876ZM48.125-1.71874 61.875-1.71873 61.875 1.71877 48.125 1.71876ZM72.1875-1.71873 85.9375-1.71873 85.9375 1.71877 72.1875 1.71877ZM96.25-1.71872 110-1.71872 110 1.71878 96.25 1.71878ZM120.312-1.71872 134.062-1.71871 134.062 1.71879 120.312 1.71878ZM144.375-1.71871 158.125-1.71871 158.125 1.71879 144.375 1.71879ZM168.438-1.7187 182.188-1.7187 182.188 1.7188 168.438 1.7188ZM192.5-1.7187 206.25-1.71869 206.25 1.71881 192.5 1.7188ZM216.562-1.71869 230.312-1.71869 230.312 1.71881 216.562 1.71881ZM240.625-1.71868 254.375-1.71868 254.375 1.71882 240.625 1.71882ZM264.688-1.71868 278.438-1.71867 278.438 1.71883 264.688 1.71882ZM288.75-1.71867 302.5-1.71867 302.5 1.71883 288.75 1.71883ZM312.812-1.71866 326.562-1.71866 326.562 1.71884 312.812 1.71884ZM336.875-1.71866 350.625-1.71865 350.625 1.71885 336.875 1.71884ZM360.938-1.71865 374.688-1.71865 374.688 1.71885 360.938 1.71885ZM385-1.71865 398.75-1.71864 398.75 1.71886 385 1.71885ZM409.062-1.71864 422.812-1.71863 422.812 1.71887 409.062 1.71886ZM433.125-1.71863 446.875-1.71863 446.875 1.71887 433.125 1.71887ZM457.188-1.71863 470.938-1.71862 470.938 1.71888 457.188 1.71887ZM481.25-1.71862 495-1.71862 495 1.71888 481.25 1.71888ZM505.312-1.71861 519.062-1.71861 519.062 1.71889 505.312 1.71889ZM529.375-1.71861 543.125-1.7186 543.125 1.7189 529.375 1.71889ZM553.438-1.7186 567.188-1.7186 567.188 1.7189 553.438 1.7189ZM577.5-1.71859 591.25-1.71859 591.25 1.71891 577.5 1.71891ZM601.562-1.71859 615.312-1.71858 615.312 1.71892 601.562 1.71891ZM625.625-1.71858 639.375-1.71858 639.375 1.71892 625.625 1.71892ZM649.688-1.71857 663.438-1.71857 663.438 1.71893 649.688 1.71893ZM673.75-1.71857 687.5-1.71856 687.5 1.71894 673.75 1.71893ZM697.812-1.71856 711.562-1.71856 711.562 1.71894 697.812 1.71894ZM721.875-1.71855 735.625-1.71855 735.625 1.71895 721.875 1.71895ZM745.938-1.71855 759.688-1.71854 759.688 1.71896 745.938 1.71895ZM770-1.71854 783.75-1.71854 783.75 1.71896 770 1.71896ZM794.062-1.71853 807.812-1.71853 807.812 1.71897 794.062 1.71897ZM818.125-1.71853 831.875-1.71852 831.875 1.71898 818.125 1.71897ZM842.188-1.71852 855.938-1.71852 855.938 1.71898 842.188 1.71898ZM866.25-1.71851 880-1.71851 880 1.71899 866.25 1.71899ZM890.312-1.71851 904.062-1.7185 904.062 1.719 890.312 1.71899ZM914.375-1.7185 928.125-1.7185 928.125 1.719 914.375 1.719ZM938.438-1.71849 952.188-1.71849 952.188 1.71901 938.438 1.71901ZM962.5-1.71849 976.25-1.71848 976.25 1.71902 962.5 1.71901ZM986.562-1.71848 1000.31-1.71848 1000.31 1.71902 986.562 1.71902ZM1010.62-1.71847 1024.38-1.71847 1024.38 1.71903 1010.62 1.71903ZM1034.69-1.71847 1048.44-1.71846 1048.44 1.71904 1034.69 1.71903ZM1058.75-1.71846 1072.5-1.71846 1072.5 1.71904 1058.75 1.71904ZM1082.81-1.71846 1096.56-1.71845 1096.56 1.71905 1082.81 1.71904ZM1106.88-1.71845 1120.62-1.71844 1120.62 1.71906 1106.88 1.71905ZM1130.94-1.71844 1144.69-1.71844 1144.69 1.71906 1130.94 1.71906ZM1155-1.71844 1168.75-1.71843 1168.75 1.71907 1155 1.71906ZM1179.06-1.71843 1192.81-1.71843 1192.81 1.71907 1179.06 1.71907ZM1203.12-1.71842 1216.88-1.71842 1216.88 1.71908 1203.12 1.71908ZM1227.19-1.71842 1240.94-1.71841 1240.94 1.71909 1227.19 1.71908ZM1251.25-1.71841 1265-1.71841 1265 1.71909 1251.25 1.71909ZM1275.31-1.7184 1289.06-1.7184 1289.06 1.7191 1275.31 1.7191ZM1299.38-1.7184 1302.43-1.7184 1302.43 1.7191 1299.38 1.7191ZM1297.84-13.7496 1325.34 0.000360892 1297.84 13.7504Z" fill="#79787A" transform="matrix(-1 0 0 1 1468.84 1298.5)"/><text font-family="Latha,Latha_MSFontService,sans-serif" font-weight="400" font-size="46" transform="translate(1596.1 913)">பயனர் சாதனம்</text></g></svg>