<svg width="3092" height="1225" xmlns="http://www.w3.org/2000/svg" xmlns:xlink="http://www.w3.org/1999/xlink" xml:space="preserve" overflow="hidden"><defs><clipPath id="clip0"><rect x="66" y="492" width="3092" height="1225"/></clipPath><clipPath id="clip1"><rect x="2792" y="786" width="131" height="131"/></clipPath><clipPath id="clip2"><rect x="2792" y="786" width="131" height="131"/></clipPath><clipPath id="clip3"><rect x="2792" y="786" width="131" height="131"/></clipPath><clipPath id="clip4"><rect x="2819" y="1464" width="131" height="130"/></clipPath><clipPath id="clip5"><rect x="2819" y="1464" width="131" height="130"/></clipPath><clipPath id="clip6"><rect x="2819" y="1464" width="131" height="130"/></clipPath><clipPath id="clip7"><rect x="2821" y="1123" width="132" height="130"/></clipPath><clipPath id="clip8"><rect x="2821" y="1123" width="132" height="130"/></clipPath><clipPath id="clip9"><rect x="2821" y="1123" width="132" height="130"/></clipPath><clipPath id="clip10"><rect x="2673" y="1123" width="130" height="130"/></clipPath><clipPath id="clip11"><rect x="2673" y="1123" width="130" height="130"/></clipPath><clipPath id="clip12"><rect x="2673" y="1123" width="130" height="130"/></clipPath><clipPath id="clip13"><rect x="2975" y="1123" width="131" height="130"/></clipPath><clipPath id="clip14"><rect x="2975" y="1123" width="131" height="130"/></clipPath><clipPath id="clip15"><rect x="2975" y="1123" width="131" height="130"/></clipPath><clipPath id="clip16"><rect x="1219" y="1058" width="196" height="195"/></clipPath><clipPath id="clip17"><rect x="1219" y="1058" width="196" height="195"/></clipPath><clipPath id="clip18"><rect x="1219" y="1058" width="196" height="195"/></clipPath></defs><g clip-path="url(#clip0)" transform="translate(-66 -492)"><rect x="87" y="1271" width="772" height="111" stroke="#79787A" stroke-width="2.29167" stroke-linejoin="round" stroke-miterlimit="10" fill="none"/><text fill="#191919" font-family="Latha,Latha_MSFontService,sans-serif" font-weight="400" font-size="46" transform="translate(329.526 1311)">பயன்பாட்டு <tspan font-size="46" x="71.9125" y="56">வகை</tspan></text><rect x="87" y="965" width="772" height="111" stroke="#79787A" stroke-width="2.29167" stroke-linejoin="round" stroke-miterlimit="10" fill="none"/><text fill="#191919" font-family="Latha,Latha_MSFontService,sans-serif" font-weight="400" font-size="46" transform="translate(207.793 1006)">சான்றிதழ்கள்<tspan font-size="46" x="346.615" y="0">மற்றும் </tspan><tspan font-size="46" x="-14.0479" y="55">சான்றுறுதி செயலிகள்</tspan></text><rect x="87" y="505" width="772" height="111" stroke="#79787A" stroke-width="2.29167" stroke-linejoin="round" stroke-miterlimit="10" fill="none"/><text fill="#191919" font-family="Latha,Latha_MSFontService,sans-serif" font-weight="400" font-size="46" transform="translate(265.933 547)">அமர்வு விரைவி<tspan font-size="46" x="82.7979" y="54">கைரேகை</tspan></text><rect x="87" y="1578" width="772" height="111" stroke="#79787A" stroke-width="2.29167" stroke-linejoin="round" stroke-miterlimit="10" fill="none"/><text fill="#191919" font-family="Latha,Latha_MSFontService,sans-serif" font-weight="400" font-size="46" transform="translate(97.2087 1619)">தற்போதய <tspan font-size="46" x="301.927" y="0">மற்றும்</tspan><tspan font-size="46" x="497.865" y="0">வரலா</tspan><tspan font-size="46" x="655.99" y="0">ற்று </tspan><tspan font-size="46" x="271.265" y="55">நடத்தை</tspan></text><rect x="87" y="1425" width="772" height="111" stroke="#79787A" stroke-width="2.29167" stroke-linejoin="round" stroke-miterlimit="10" fill="none"/><text fill="#191919" font-family="Arial,Arial_MSFontService,sans-serif" font-weight="400" font-size="46" transform="matrix(1 0 0 1 412.897 1470)">HTTP </text><text fill="#191919" font-family="Latha,Latha_MSFontService,sans-serif" font-weight="400" font-size="46" transform="translate(324.943 1521)">தலைப்புகள்</text><rect x="87" y="1118" width="772" height="111" stroke="#79787A" stroke-width="2.29167" stroke-linejoin="round" stroke-miterlimit="10" fill="none"/><text fill="#191919" font-family="Latha,Latha_MSFontService,sans-serif" font-weight="400" font-size="46" transform="translate(93.7712 1160)">இருப்பிடம்</text><text fill="#191919" font-family="Arial,Arial_MSFontService,sans-serif" font-weight="400" font-size="46" transform="matrix(1 0 0 1 363.615 1160)">, </text><text fill="#191919" font-family="Latha,Latha_MSFontService,sans-serif" font-weight="400" font-size="46" transform="translate(388.823 1160)">இருப்பிட வேகம்</text><text fill="#191919" font-family="Arial,Arial_MSFontService,sans-serif" font-weight="400" font-size="46" transform="matrix(1 0 0 1 821.375 1160)">&amp; </text><text fill="#191919" font-family="Latha,Latha_MSFontService,sans-serif" font-weight="400" font-size="46" transform="translate(139.88 1215)">இ<tspan font-size="46" x="49.8438" y="0">.</tspan><tspan font-size="46" x="61.3021" y="0">நெறி முகுவரி நற்பெய</tspan>ர்</text><rect x="87" y="658" width="772" height="112" stroke="#79787A" stroke-width="2.29167" stroke-linejoin="round" stroke-miterlimit="10" fill="none"/><text fill="#191919" font-family="Latha,Latha_MSFontService,sans-serif" font-weight="400" font-size="46" transform="translate(325.516 699)">உள்நுழைவு<tspan font-size="46" x="47.85" y="56">சாதனம்</tspan></text><rect x="87" y="812" width="772" height="111" stroke="#79787A" stroke-width="2.29167" stroke-linejoin="round" stroke-miterlimit="10" fill="none"/><text fill="#191919" font-family="Latha,Latha_MSFontService,sans-serif" font-weight="400" font-size="46" transform="translate(179.709 852)">பயனர் விவரம் மற்றும் <tspan font-size="46" x="56.7187" y="56">அணுகல் படிநிலை</tspan></text><path d="M0 0 232.538 105.233" stroke="#79787A" stroke-width="2.29167" stroke-linejoin="round" stroke-miterlimit="10" fill="none" fill-rule="evenodd" transform="matrix(1 0 0 -1 859 1173.23)"/><path d="M859 1020 1091.54 1068" stroke="#79787A" stroke-width="2.29167" stroke-linejoin="round" stroke-miterlimit="10" fill="none" fill-rule="evenodd"/><path d="M859 867 1091.54 1068.22" stroke="#79787A" stroke-width="2.29167" stroke-linejoin="round" stroke-miterlimit="10" fill="none" fill-rule="evenodd"/><path d="M0 0 232.538 564.918" stroke="#79787A" stroke-width="2.29167" stroke-linejoin="round" stroke-miterlimit="10" fill="none" fill-rule="evenodd" transform="matrix(1 0 0 -1 859 1632.92)"/><path d="M859 714 1091.54 1068.45" stroke="#79787A" stroke-width="2.29167" stroke-linejoin="round" stroke-miterlimit="10" fill="none" fill-rule="evenodd"/><path d="M859 561 1091.54 1068.68" stroke="#79787A" stroke-width="2.29167" stroke-linejoin="round" stroke-miterlimit="10" fill="none" fill-rule="evenodd"/><path d="M0 0 232.538 258.461" stroke="#79787A" stroke-width="2.29167" stroke-linejoin="round" stroke-miterlimit="10" fill="none" fill-rule="evenodd" transform="matrix(1 0 0 -1 859 1326.46)"/><path d="M0 0 232.538 411.69" stroke="#79787A" stroke-width="2.29167" stroke-linejoin="round" stroke-miterlimit="10" fill="none" fill-rule="evenodd" transform="matrix(1 0 0 -1 859 1479.69)"/><path d="M0-1.14583 236.051-1.14583C236.684-1.14583 237.197-0.632826 237.197 0L237.197 360.505 236.051 359.359 480.123 359.359 480.123 361.651 236.051 361.651C235.418 361.651 234.905 361.138 234.905 360.505L234.905 0 236.051 1.14583 0 1.14583ZM475.539 346.755 503.039 360.505 475.539 374.255Z" fill="#79787A" transform="matrix(1 0 0 -1 1546 1068.51)"/><path d="M2049 664.667C2049 652.701 2058.7 643 2070.67 643L2417.33 643C2429.3 643 2439 652.701 2439 664.667L2439 751.333C2439 763.299 2429.3 773 2417.33 773L2070.67 773C2058.7 773 2049 763.299 2049 751.333Z" stroke="#79787A" stroke-width="2.29167" stroke-linejoin="round" stroke-miterlimit="10" fill="none" fill-rule="evenodd"/><text fill="#01919A" font-family="Latha,Latha_MSFontService,sans-serif" font-weight="700" font-size="46" transform="translate(2127.38 693)">குறைந்த<tspan font-size="46" x="233.177" y="0"> </tspan><tspan font-size="46" x="-25.2083" y="53">மறையிடர்</tspan></text><path d="M2439 706.854 2554.97 706.855 2554.97 709.146 2439 709.146ZM2550.39 694.25 2577.89 708 2550.39 721.75Z" fill="#79787A"/><path d="M2578 664.667C2578 652.701 2587.7 643 2599.67 643L3109.33 643C3121.3 643 3131 652.701 3131 664.667L3131 751.333C3131 763.299 3121.3 773 3109.33 773L2599.67 773C2587.7 773 2578 763.299 2578 751.333Z" stroke="#79787A" stroke-width="2.29167" stroke-linejoin="round" stroke-miterlimit="10" fill="none" fill-rule="evenodd"/><text fill="#01919A" font-family="Latha,Latha_MSFontService,sans-serif" font-weight="700" font-size="46" transform="translate(2622.47 720)">அணுகல் வழங்கு</text><g clip-path="url(#clip1)"><g clip-path="url(#clip2)"><g clip-path="url(#clip3)"><path d="M2858 787.912C2823.16 787.912 2794.91 816.157 2794.91 851 2794.91 885.843 2823.16 914.088 2858 914.088 2892.84 914.088 2921.09 885.843 2921.09 851 2921.09 816.157 2892.84 787.912 2858 787.912ZM2901.47 830.2 2846.38 885.412C2846.02 885.77 2845.53 885.969 2845.02 885.966 2844.51 885.969 2844.02 885.77 2843.66 885.412L2814.53 856.181C2814.19 855.811 2814.01 855.324 2814.03 854.824 2814.03 854.313 2814.24 853.824 2814.6 853.466L2825.4 842.646C2826.15 841.896 2827.36 841.891 2828.11 842.635 2828.11 842.638 2828.12 842.642 2828.12 842.646L2845.1 859.641 2887.96 816.684C2888.7 815.934 2889.91 815.929 2890.66 816.673 2890.66 816.677 2890.67 816.68 2890.67 816.684L2901.47 827.505C2902.21 828.25 2902.21 829.455 2901.47 830.2Z" fill="#01919A"/></g></g></g><path d="M1546 1066.85 1779.47 1066.85C1780.1 1066.85 1780.62 1067.37 1780.62 1068L1780.62 1389.11 1779.47 1387.96 2026.12 1387.96 2026.12 1390.25 1779.47 1390.25C1778.84 1390.25 1778.32 1389.74 1778.32 1389.11L1778.32 1068 1779.47 1069.15 1546 1069.15ZM2021.54 1375.36 2049.04 1389.11 2021.54 1402.86Z" fill="#79787A"/><path d="M2049 1346.5C2049 1334.63 2058.63 1325 2070.5 1325L2417.5 1325C2429.37 1325 2439 1334.63 2439 1346.5L2439 1432.5C2439 1444.37 2429.37 1454 2417.5 1454L2070.5 1454C2058.63 1454 2049 1444.37 2049 1432.5Z" stroke="#79787A" stroke-width="2.29167" stroke-linejoin="round" stroke-miterlimit="10" fill="none" fill-rule="evenodd"/><text fill="#FC3205" font-family="Latha,Latha_MSFontService,sans-serif" font-weight="700" font-size="46" transform="translate(2171.22 1376)">அதிக<tspan font-size="46" x="-69.0479" y="52">மறையிடர்</tspan></text><path d="M0.015514-1.14573 115.987 0.424602 115.956 2.71606-0.015514 1.14573ZM111.575-12.2405 138.886 1.88061 111.202 15.257Z" fill="#79787A" transform="matrix(1 0 0 -1 2439 1389.88)"/><path d="M2578 1345.17C2578 1333.48 2587.48 1324 2599.17 1324L3135.83 1324C3147.52 1324 3157 1333.48 3157 1345.17L3157 1429.83C3157 1441.52 3147.52 1451 3135.83 1451L2599.17 1451C2587.48 1451 2578 1441.52 2578 1429.83Z" stroke="#79787A" stroke-width="2.29167" stroke-linejoin="round" stroke-miterlimit="10" fill="none" fill-rule="evenodd"/><text fill="#FC3205" font-family="Latha,Latha_MSFontService,sans-serif" font-weight="700" font-size="46" transform="translate(2639.48 1400)">அணுகல் நிறுத்<tspan font-size="46" x="404.479" y="0">து</tspan></text><g clip-path="url(#clip4)"><g clip-path="url(#clip5)"><g clip-path="url(#clip6)"><path d="M2883.92 1467.07C2918.15 1467.07 2945.93 1494.7 2945.93 1528.92 2945.93 1563.15 2918.15 1590.93 2883.92 1590.93 2849.7 1590.93 2822.07 1563.15 2822.07 1528.92 2822.07 1494.7 2849.7 1467.07 2883.92 1467.07ZM2883.92 1518.49 2907.25 1495.31C2914.16 1488.4 2924.44 1498.84 2917.69 1505.75L2894.36 1528.92 2917.69 1552.25C2924.44 1559.16 2914.16 1569.44 2907.25 1562.69L2883.92 1539.36 2860.75 1562.69C2853.84 1569.44 2843.4 1559.16 2850.31 1552.25L2873.49 1528.92 2850.31 1505.75C2843.4 1498.84 2853.84 1488.4 2860.75 1495.31L2883.92 1518.49Z" fill="#FC3205" fill-rule="evenodd"/></g></g></g><path d="M1546.01 1066.85 2026.13 1069.61 2026.12 1071.9 1545.99 1069.15ZM2021.62 1056.98 2049.04 1070.89 2021.46 1084.48Z" fill="#79787A"/><path d="M2049 1027.67C2049 1015.7 2058.7 1006 2070.67 1006L2417.33 1006C2429.3 1006 2439 1015.7 2439 1027.67L2439 1114.33C2439 1126.3 2429.3 1136 2417.33 1136L2070.67 1136C2058.7 1136 2049 1126.3 2049 1114.33Z" stroke="#79787A" stroke-width="2.29167" stroke-linejoin="round" stroke-miterlimit="10" fill="none" fill-rule="evenodd"/><text fill="#FC9A05" font-family="Latha,Latha_MSFontService,sans-serif" font-weight="700" font-size="46" transform="translate(2127.68 1057)">மிதமான<tspan font-size="46" x="-25.5061" y="55">மறையிடர்</tspan></text><path d="M2439 1069.85 2554.97 1069.85 2554.97 1072.15 2439 1072.15ZM2550.39 1057.25 2577.89 1071 2550.39 1084.75Z" fill="#79787A"/><path d="M2578 1029.17C2578 1017.48 2587.48 1008 2599.17 1008L3135.83 1008C3147.52 1008 3157 1017.48 3157 1029.17L3157 1113.83C3157 1125.52 3147.52 1135 3135.83 1135L2599.17 1135C2587.48 1135 2578 1125.52 2578 1113.83Z" stroke="#79787A" stroke-width="2.29167" stroke-linejoin="round" stroke-miterlimit="10" fill="none" fill-rule="evenodd"/><text fill="#FC9A05" font-family="Latha,Latha_MSFontService,sans-serif" font-weight="700" font-size="46" transform="translate(2723.69 1056)">சான்றுறுதி <tspan font-size="46" x="-99.1147" y="56">படிநிலை உயர்த்</tspan><tspan font-size="46" x="335.156" y="56">து</tspan></text><g clip-path="url(#clip7)"><g clip-path="url(#clip8)"><g clip-path="url(#clip9)"><path d="M51.48 39.13C49.4 35.1 45.37 32.76 40.43 32.76 32.76 32.76 28.73 38.09 27.95 43.55 27.82 44.72 28.73 45.63 29.9 45.63L32.76 45.63C33.67 45.63 34.45 44.98 34.58 44.07 34.97 41.99 36.27 39.39 40.43 39.39 43.68 39.39 44.98 41.08 45.5 42.12 46.28 43.68 46.15 45.37 45.24 46.67 44.33 47.97 43.42 48.49 42.38 49.27 39.91 50.96 37.96 52.78 37.57 57.85 37.44 59.02 38.35 59.93 39.39 59.93L42.25 59.93C43.16 59.93 44.07 59.15 44.2 58.24 44.33 56.16 44.85 55.64 46.28 54.73 47.45 53.95 49.01 52.78 50.57 50.7 53.04 47.19 53.43 42.9 51.48 39.13Z" fill="#FC9A05" transform="matrix(1 0 0 1 2822 1123)"/><path d="M40.95 63.18C38.74 63.18 36.92 65 36.92 67.21 36.92 69.42 38.74 71.24 40.95 71.24 43.16 71.24 44.98 69.42 44.98 67.21 44.98 65 43.16 63.18 40.95 63.18Z" fill="#FC9A05" transform="matrix(1 0 0 1 2822 1123)"/><path d="M126.36 104.91C126.36 104.91 126.36 104.91 126.36 104.91L119.47 89.96C122.85 83.59 124.02 76.31 122.85 69.03 120.64 54.99 109.2 43.55 95.16 41.21 87.36 39.91 79.69 41.34 73.19 45.11 71.89 38.74 68.77 33.02 64.09 28.21 56.42 20.54 45.76 17.16 34.84 18.85 20.8 21.19 9.35999 32.63 7.15 46.67 5.98 53.95 7.15 61.1 10.53 67.6L3.64 82.55C2.86 84.37 3.25 86.45 4.55 87.88 5.46 88.79 6.63 89.31 7.8 89.31 8.45 89.31 9.1 89.18 9.75 88.92 9.75 88.92 9.75 88.92 9.75 88.92L24.83 81.9C31.33 85.28 38.48 86.45 45.76 85.28 49.66 84.63 53.43 83.33 56.68 81.38 59.41 94.77 70.46 105.43 84.11 107.64 91.39 108.81 98.54 107.64 105.04 104.26L119.99 111.15C120.64 111.41 121.29 111.54 121.94 111.54 123.11 111.54 124.28 111.02 125.19 110.11 126.75 108.68 127.14 106.6 126.36 104.91ZM44.72 78.78C38.35 79.82 32.11 78.65 26.65 75.4 25.74 74.88 24.57 74.75 23.66 75.27L11.7 80.73 17.16 68.77C17.55 67.86 17.55 66.69 17.03 65.78 13.78 60.32 12.61 54.08 13.65 47.71 15.47 36.4 24.57 27.17 35.88 25.35 37.44 25.09 38.87 24.96 40.43 24.96 47.58 24.96 54.34 27.69 59.54 32.89 64.09 37.44 66.69 43.16 67.34 49.4 66.95 49.79 66.43 50.18 66.04 50.57 59.67 56.94 56.29 65.26 56.16 74.1 52.78 76.44 48.88 78.13 44.72 78.78ZM106.34 97.63C105.95 97.37 105.43 97.37 105.04 97.37 104.52 97.37 103.87 97.5 103.35 97.7599 97.89 101.01 91.65 102.18 85.28 101.14 73.97 99.32 64.74 90.09 62.92 78.78 61.49 69.94 64.35 61.36 70.59 55.12 76.83 48.88 85.41 46.15 94.25 47.58 105.56 49.4 114.66 58.63 116.48 69.94 117.52 76.31 116.35 82.55 113.1 88.0099 112.58 88.92 112.45 90.09 112.97 91L118.43 102.96 106.34 97.63Z" fill="#FC9A05" transform="matrix(1 0 0 1 2822 1123)"/><path d="M73.97 69.16C71.11 69.16 68.77 71.5 68.77 74.36 68.77 77.22 71.11 79.56 73.97 79.56 76.83 79.56 79.17 77.22 79.17 74.36 79.17 71.5 76.83 69.16 73.97 69.16Z" fill="#FC9A05" transform="matrix(1 0 0 1 2822 1123)"/><path d="M89.7 69.16C86.84 69.16 84.5 71.5 84.5 74.36 84.5 77.22 86.84 79.56 89.7 79.56 92.56 79.56 94.9 77.22 94.9 74.36 94.9 71.5 92.56 69.16 89.7 69.16Z" fill="#FC9A05" transform="matrix(1 0 0 1 2822 1123)"/><path d="M105.43 69.16C102.57 69.16 100.23 71.5 100.23 74.36 100.23 77.22 102.57 79.56 105.43 79.56 108.29 79.56 110.63 77.22 110.63 74.36 110.63 71.5 108.29 69.16 105.43 69.16Z" fill="#FC9A05" transform="matrix(1 0 0 1 2822 1123)"/></g></g></g><g clip-path="url(#clip10)"><g clip-path="url(#clip11)"><g clip-path="url(#clip12)"><path d="M2684.16 1168.5C2681.58 1168.5 2679.5 1170.58 2679.5 1173.17L2679.5 1202.83C2679.5 1205.42 2681.58 1207.5 2684.16 1207.5L2758.49 1207.5C2760.72 1207.5 2762.57 1205.94 2763.03 1203.85 2765.82 1203.87 2768.77 1203.89 2774.65 1203.89 2795.1 1203.91 2793.7 1204 2795.16 1202.55 2796.59 1201.12 2796.53 1201.75 2796.48 1187.8 2796.43 1174.42 2796.49 1175.22 2795.36 1173.93 2795.06 1173.59 2794.44 1173.13 2793.99 1172.93L2793.18 1172.55 2774.71 1172.55 2763.09 1172.55C2762.79 1170.26 2760.86 1168.5 2758.49 1168.5ZM2774.88 1173.85C2791.85 1173.85 2792.72 1173.87 2793.34 1174.15 2794.1 1174.5 2794.63 1175.03 2794.88 1175.68 2795 1175.99 2795.05 1180.06 2795.05 1188.21L2795.05 1200.28 2794.68 1200.99C2794.42 1201.47 2794.08 1201.81 2793.59 1202.07L2792.89 1202.44 2774.73 1202.44C2769.49 1202.44 2765.89 1202.43 2763.15 1202.42L2763.15 1173.88C2766.09 1173.86 2769.57 1173.85 2774.88 1173.85ZM2731.83 1174.59C2731.84 1174.59 2731.85 1174.59 2731.87 1174.59 2739.27 1174.59 2745.26 1180.6 2745.26 1188 2745.26 1188 2745.26 1188 2745.26 1188 2745.26 1195.4 2739.27 1201.41 2731.87 1201.41 2731.87 1201.41 2731.87 1201.41 2731.87 1201.41 2724.47 1201.41 2718.47 1195.4 2718.47 1188 2718.47 1188 2718.47 1188 2718.47 1188 2718.47 1180.61 2724.44 1174.62 2731.83 1174.59ZM2769.93 1175.91C2769.59 1175.91 2769.32 1176.18 2769.32 1176.52L2769.32 1180.43C2769.32 1180.77 2769.59 1181.04 2769.93 1181.04L2791.05 1181.04C2791.39 1181.04 2791.66 1180.77 2791.66 1180.43L2791.66 1176.52C2791.66 1176.18 2791.39 1175.91 2791.05 1175.91ZM2769.93 1182.44C2769.59 1182.44 2769.32 1182.72 2769.32 1183.06L2769.32 1186.96C2769.32 1187.3 2769.59 1187.58 2769.93 1187.58L2786.81 1187.58C2787.15 1187.58 2787.43 1187.3 2787.43 1186.96L2787.43 1183.06C2787.43 1182.72 2787.15 1182.44 2786.81 1182.44ZM2687.96 1184.34C2687.98 1184.34 2688 1184.34 2688.02 1184.34 2690.04 1184.34 2691.68 1185.98 2691.68 1188 2691.68 1188 2691.68 1188 2691.68 1188 2691.68 1190.02 2690.04 1191.66 2688.03 1191.66 2688.03 1191.66 2688.02 1191.66 2688.02 1191.66 2686.01 1191.66 2684.37 1190.02 2684.37 1188 2684.37 1186.01 2685.97 1184.38 2687.96 1184.34ZM2769.93 1188.78C2769.59 1188.78 2769.32 1189.06 2769.32 1189.4L2769.32 1193.3C2769.32 1193.64 2769.59 1193.92 2769.93 1193.92L2786.81 1193.92C2787.15 1193.92 2787.43 1193.64 2787.43 1193.3L2787.43 1189.4C2787.43 1189.06 2787.15 1188.78 2786.81 1188.78ZM2769.93 1195.36C2769.59 1195.36 2769.32 1195.64 2769.32 1195.98L2769.32 1199.88C2769.32 1200.22 2769.59 1200.5 2769.93 1200.5L2791.05 1200.5C2791.39 1200.5 2791.66 1200.22 2791.66 1199.88L2791.66 1195.98C2791.66 1195.64 2791.39 1195.36 2791.05 1195.36Z" fill="#FC9A05"/><path d="M2735.47 1188C2735.47 1190.02 2733.83 1191.66 2731.82 1191.66 2729.8 1191.66 2728.17 1190.02 2728.17 1188 2728.17 1185.98 2729.8 1184.34 2731.82 1184.34 2733.83 1184.34 2735.47 1185.98 2735.47 1188Z" fill="#FC9A05"/></g></g></g><g clip-path="url(#clip13)"><g clip-path="url(#clip14)"><g clip-path="url(#clip15)"><path d="M2975 1188C2975 1176.33 2984.45 1166.88 2996.14 1166.88L3083.86 1166.88C3095.54 1166.88 3105 1176.33 3105 1188 3105 1199.67 3095.55 1209.12 3083.86 1209.12L2996.14 1209.12C2984.46 1209.12 2975 1199.67 2975 1188ZM3017.25 1183.12 3017.25 1192.88C3017.25 1195.57 3019.43 1197.75 3022.12 1197.75L3046.34 1197.75C3049.03 1197.75 3053.39 1197.75 3056.08 1197.75L3080.62 1197.75C3083.3 1197.75 3085.5 1195.57 3085.5 1192.88L3085.5 1183.12C3085.5 1180.43 3083.31 1178.25 3080.62 1178.25L3022.13 1178.25C3019.44 1178.25 3017.25 1180.43 3017.25 1183.12ZM2996.13 1197.75C3001.51 1197.75 3005.88 1193.38 3005.88 1188 3005.88 1182.62 3001.51 1178.25 2996.13 1178.25 2990.74 1178.25 2986.38 1182.62 2986.38 1188 2986.38 1193.38 2990.74 1197.75 2996.13 1197.75Z" fill="#FC9A05" fill-rule="evenodd"/><path d="M3002.63 1188C3002.63 1191.59 2999.72 1194.5 2996.13 1194.5 2992.54 1194.5 2989.63 1191.59 2989.63 1188 2989.63 1184.41 2992.54 1181.5 2996.13 1181.5 2999.72 1181.5 3002.63 1184.41 3002.63 1188Z" fill="#FC9A05" fill-rule="evenodd"/></g></g></g><path d="M1589 1065 1784 903 1979 1065 1784 1227Z" fill="#79787A" fill-rule="evenodd"/><text fill="#FFFFFF" font-family="Latha,Latha_MSFontService,sans-serif" font-weight="700" font-size="46" transform="translate(1636.89 1053)">மறையிடர்<tspan font-size="46" x="-2.29163" y="53">மதிப்பெண்</tspan></text><path d="M1091 1068.5C1091 942.855 1192.86 841 1318.5 841 1444.14 841 1546 942.855 1546 1068.5 1546 1194.14 1444.14 1296 1318.5 1296 1192.86 1296 1091 1194.14 1091 1068.5Z" fill="#79787A" fill-rule="evenodd"/><text fill="#FFFFFF" font-family="Latha,Latha_MSFontService,sans-serif" font-weight="700" font-size="46" transform="translate(1165.74 937)">மறையிடர்  <tspan font-size="46" x="-24.0625" y="55">பகுப்பாய்வு</tspan><tspan font-size="46" x="270.99" y="55">ப் </tspan><tspan font-size="46" x="59.8812" y="111">பொறி</tspan></text><g clip-path="url(#clip16)"><g clip-path="url(#clip17)"><g clip-path="url(#clip18)"><path d="M1328.43 1141.91 1306.86 1141.91C1305.09 1141.91 1303.91 1143.09 1303.91 1144.86L1303.91 1166.43C1303.91 1168.2 1305.09 1169.39 1306.86 1169.39L1328.43 1169.39C1330.2 1169.39 1331.39 1168.2 1331.39 1166.43L1331.39 1144.86C1331.39 1143.09 1329.91 1141.91 1328.43 1141.91ZM1325.48 1163.48 1309.82 1163.48 1309.82 1147.82 1325.48 1147.82 1325.48 1163.48Z" fill="#FFFFFF"/><path d="M1347.34 1146.34C1349.11 1146.34 1350.3 1145.16 1350.3 1143.39 1350.3 1141.61 1349.11 1140.43 1347.34 1140.43L1342.02 1140.43 1342.02 1133.93C1342.02 1132.16 1340.84 1130.98 1339.07 1130.98L1332.57 1130.98 1332.57 1125.66C1332.57 1123.89 1331.39 1122.7 1329.61 1122.7 1327.84 1122.7 1326.66 1123.89 1326.66 1125.66L1326.66 1130.98 1320.45 1130.98 1320.45 1125.66C1320.45 1123.89 1319.27 1122.7 1317.5 1122.7 1315.73 1122.7 1314.55 1123.89 1314.55 1125.66L1314.55 1130.98 1308.34 1130.98 1308.34 1125.66C1308.34 1123.89 1307.16 1122.7 1305.39 1122.7 1303.61 1122.7 1302.43 1123.89 1302.43 1125.66L1302.43 1130.98 1295.93 1130.98C1294.16 1130.98 1292.98 1132.16 1292.98 1133.93L1292.98 1140.43 1287.66 1140.43C1285.89 1140.43 1284.7 1141.61 1284.7 1143.39 1284.7 1145.16 1285.89 1146.34 1287.66 1146.34L1292.98 1146.34 1292.98 1152.55 1287.66 1152.55C1285.89 1152.55 1284.7 1153.73 1284.7 1155.5 1284.7 1157.27 1285.89 1158.45 1287.66 1158.45L1292.98 1158.45 1292.98 1164.66 1287.66 1164.66C1285.89 1164.66 1284.7 1165.84 1284.7 1167.61 1284.7 1169.39 1285.89 1170.57 1287.66 1170.57L1292.98 1170.57 1292.98 1177.07C1292.98 1178.84 1294.16 1180.02 1295.93 1180.02L1302.43 1180.02 1302.43 1185.34C1302.43 1187.11 1303.61 1188.3 1305.39 1188.3 1307.16 1188.3 1308.34 1187.11 1308.34 1185.34L1308.34 1180.02 1314.55 1180.02 1314.55 1185.34C1314.55 1187.11 1315.73 1188.3 1317.5 1188.3 1319.27 1188.3 1320.45 1187.11 1320.45 1185.34L1320.45 1180.02 1326.66 1180.02 1326.66 1185.34C1326.66 1187.11 1327.84 1188.3 1329.61 1188.3 1331.39 1188.3 1332.57 1187.11 1332.57 1185.34L1332.57 1180.02 1339.07 1180.02C1340.84 1180.02 1342.02 1178.84 1342.02 1177.07L1342.02 1170.57 1347.34 1170.57C1349.11 1170.57 1350.3 1169.39 1350.3 1167.61 1350.3 1165.84 1349.11 1164.66 1347.34 1164.66L1342.02 1164.66 1342.02 1158.45 1347.34 1158.45C1349.11 1158.45 1350.3 1157.27 1350.3 1155.5 1350.3 1153.73 1349.11 1152.55 1347.34 1152.55L1342.02 1152.55 1342.02 1146.34 1347.34 1146.34ZM1336.11 1174.11 1298.89 1174.11 1298.89 1136.89 1336.11 1136.89 1336.11 1174.11Z" fill="#FFFFFF"/><path d="M1411.45 1124.48C1411.45 1118.27 1406.43 1113.55 1400.52 1113.55 1394.61 1113.55 1389.59 1118.57 1389.59 1124.48 1389.59 1129.5 1393.14 1133.64 1397.57 1135.11L1397.57 1169.68 1386.64 1169.68C1386.34 1162 1382.5 1154.32 1373.93 1150.18 1376.89 1142.2 1374.23 1132.75 1367.14 1127.43 1378.36 1115.32 1368.02 1094.64 1351.48 1096.7 1350 1089.91 1344.09 1083.11 1335.82 1081.64L1335.82 1074.84 1381.02 1074.84C1382.2 1079.57 1386.64 1082.82 1391.66 1082.82 1397.86 1082.82 1402.59 1077.8 1402.59 1071.89 1402.59 1065.68 1397.57 1060.95 1391.66 1060.95 1386.64 1060.95 1382.5 1064.5 1381.02 1068.93L1332.86 1068.93C1331.09 1068.93 1329.91 1070.11 1329.91 1071.89L1329.91 1081.64C1324.59 1082.52 1320.16 1085.48 1317.5 1089.61 1314.25 1084.59 1308.64 1081.34 1302.14 1081.34L1302.14 1071.89C1302.14 1070.11 1300.95 1068.93 1299.18 1068.93L1251.32 1068.93C1249.84 1064.5 1245.7 1060.95 1240.68 1060.95 1234.48 1060.95 1229.45 1065.98 1229.45 1071.89 1229.45 1078.09 1234.48 1082.82 1240.39 1082.82 1245.41 1082.82 1249.55 1079.27 1251.02 1074.84L1296.23 1074.84 1296.23 1082.23C1289.43 1084.59 1284.7 1090.5 1283.82 1096.7 1267.57 1094.34 1256.93 1115.32 1268.16 1127.43 1261.07 1132.75 1258.41 1141.91 1261.36 1150.18 1252.8 1154.32 1248.95 1162 1248.66 1169.68L1237.73 1169.68 1237.73 1135.11C1250.14 1131.57 1247.48 1113.55 1234.77 1113.55 1228.57 1113.55 1223.84 1118.57 1223.84 1124.48 1223.84 1129.5 1227.39 1133.64 1231.82 1135.11L1231.82 1172.64C1231.82 1174.41 1233 1175.59 1234.77 1175.59L1249.25 1175.59C1251.02 1183.57 1256.93 1191.55 1267.27 1193.32 1266.39 1198.34 1267.86 1203.36 1271.11 1207.5 1274.36 1211.64 1279.09 1214.3 1284.11 1214.3 1285.3 1221.09 1290.02 1226.41 1296.23 1228.48L1296.23 1235.86 1251.32 1235.86C1250.14 1231.14 1245.7 1227.89 1240.68 1227.89 1234.48 1227.89 1229.75 1232.91 1229.75 1238.82 1229.45 1245.02 1234.48 1250.05 1240.68 1250.05 1245.7 1250.05 1249.84 1246.5 1251.32 1242.07L1299.48 1242.07C1301.25 1242.07 1302.43 1240.89 1302.43 1239.11L1302.43 1229.66C1308.93 1229.66 1314.55 1226.41 1317.8 1221.39 1320.45 1225.52 1324.89 1228.77 1330.2 1229.36L1330.2 1239.11C1330.2 1240.89 1331.39 1242.07 1333.16 1242.07L1381.32 1242.07C1382.5 1246.8 1386.93 1250.05 1391.95 1250.05 1398.16 1250.05 1402.89 1245.02 1402.89 1239.11 1402.89 1232.91 1397.86 1228.18 1391.95 1228.18 1386.93 1228.18 1382.8 1231.73 1381.32 1236.16L1335.82 1236.16 1335.82 1229.36C1343.5 1228.18 1349.7 1221.98 1350.89 1214.3 1361.23 1213.7 1369.5 1203.95 1367.73 1193.32 1378.07 1191.55 1383.98 1183.86 1385.75 1175.59L1400.23 1175.59C1402 1175.59 1403.18 1174.41 1403.18 1172.64L1403.18 1135.11C1407.91 1133.64 1411.45 1129.5 1411.45 1124.48ZM1391.66 1066.86C1394.61 1066.86 1396.68 1069.23 1396.68 1071.89 1396.68 1074.84 1394.32 1076.91 1391.66 1076.91 1388.7 1076.91 1386.64 1074.55 1386.64 1071.89 1386.34 1069.23 1388.7 1066.86 1391.66 1066.86ZM1240.68 1077.2C1237.73 1077.2 1235.66 1074.84 1235.66 1072.18 1235.36 1069.23 1237.73 1066.86 1240.68 1066.86 1243.64 1066.86 1245.7 1069.23 1245.7 1071.89 1245.7 1074.84 1243.34 1077.2 1240.68 1077.2ZM1229.45 1124.48C1229.45 1121.52 1231.82 1119.45 1234.48 1119.45 1237.43 1119.45 1239.5 1121.82 1239.5 1124.48 1239.5 1127.43 1237.14 1129.5 1234.48 1129.5 1231.82 1129.5 1229.45 1127.43 1229.45 1124.48ZM1240.68 1244.14C1237.73 1244.14 1235.66 1241.77 1235.66 1239.11 1235.66 1236.16 1238.02 1234.09 1240.68 1234.09 1243.64 1234.09 1245.7 1236.45 1245.7 1239.11 1245.7 1241.77 1243.34 1244.14 1240.68 1244.14ZM1391.66 1233.8C1394.61 1233.8 1396.68 1236.16 1396.68 1238.82 1396.68 1241.77 1394.32 1243.84 1391.66 1243.84 1388.7 1243.84 1386.64 1241.48 1386.64 1238.82 1386.34 1236.16 1388.7 1233.8 1391.66 1233.8ZM1364.48 1187.41C1360.93 1185.93 1356.2 1183.57 1354.73 1181.5 1353.84 1180.02 1352.07 1179.73 1350.59 1180.91 1349.11 1181.8 1348.82 1183.57 1350 1185.05 1352.36 1188.3 1358.57 1191.55 1361.52 1192.73 1363.89 1200.7 1357.09 1208.68 1349.11 1208.39 1346.75 1206.32 1343.5 1203.07 1342.91 1201.3 1342.32 1199.82 1340.55 1198.93 1339.07 1199.52 1337.59 1200.11 1336.7 1201.89 1337.3 1203.36 1338.48 1206.91 1342.61 1210.75 1344.68 1212.52 1343.2 1228.18 1320.16 1227 1320.16 1211.34 1320.16 1211.05 1320.16 1207.8 1320.16 1208.09 1320.16 1206.32 1318.98 1205.14 1317.2 1205.14 1317.2 1205.14 1317.2 1205.14 1317.2 1205.14 1317.2 1205.14 1317.2 1205.14 1317.2 1205.14 1315.43 1205.14 1314.25 1206.32 1314.25 1208.09 1314.25 1208.98 1314.25 1210.45 1314.25 1211.34 1314.25 1218.14 1308.64 1223.75 1301.84 1223.75 1295.34 1223.75 1290.32 1218.73 1289.43 1212.52 1291.5 1210.75 1295.64 1206.61 1296.82 1203.36 1297.41 1201.89 1296.52 1200.11 1295.05 1199.52 1293.57 1198.93 1291.8 1199.82 1291.2 1201.3 1290.61 1203.07 1287.36 1206.32 1285 1208.39 1281.16 1208.68 1277.61 1206.91 1274.95 1203.66 1272.59 1200.41 1271.7 1196.57 1272.59 1192.73 1275.55 1191.55 1281.75 1188.59 1284.11 1185.05 1285 1183.57 1284.7 1181.8 1283.52 1180.91 1282.05 1180.02 1280.27 1180.32 1279.39 1181.5 1278.2 1183.27 1273.18 1185.93 1269.64 1187.41 1251.91 1186.52 1247.77 1162 1263.73 1155.2 1266.98 1158.75 1271.11 1160.82 1276.14 1160.52 1277.91 1160.52 1279.09 1159.05 1279.09 1157.57 1279.09 1155.8 1277.61 1154.61 1276.14 1154.61 1270.82 1154.91 1267.86 1150.48 1267.57 1150.18 1265.5 1146.93 1265.2 1142.8 1266.39 1138.95 1267.57 1135.11 1270.23 1132.45 1273.77 1130.68 1276.43 1130.39 1285 1128.61 1287.95 1122.11 1288.55 1120.64 1287.95 1118.86 1286.48 1118.27 1285 1117.68 1283.23 1118.27 1282.64 1119.75 1281.45 1122.7 1276.73 1124.18 1274.07 1124.48 1263.73 1116.5 1272 1099.66 1284.41 1102.61 1285.3 1104.98 1287.36 1108.52 1292.68 1111.77 1294.16 1112.66 1295.93 1112.36 1296.82 1110.89 1297.7 1109.41 1297.41 1107.64 1295.93 1106.75 1293.27 1105.27 1290.32 1102.32 1289.73 1099.66 1289.73 1099.36 1288.84 1095.82 1292.39 1091.39 1300.07 1082.23 1314.25 1087.55 1314.55 1099.07 1314.55 1099.36 1314.55 1102.61 1314.55 1102.32 1314.55 1104.09 1315.73 1105.27 1317.5 1105.27L1317.5 1105.27C1317.5 1105.27 1317.5 1105.27 1317.5 1105.27 1319.27 1105.27 1320.45 1104.09 1320.45 1102.32 1320.45 1101.43 1320.45 1099.95 1320.45 1099.07 1320.45 1092.27 1326.07 1086.66 1332.86 1086.66 1340.55 1086.66 1346.16 1094.05 1345.27 1099.36 1345.27 1099.36 1345.27 1099.36 1345.27 1099.36 1345.27 1099.36 1345.27 1099.36 1345.27 1099.36 1345.27 1099.36 1344.68 1102.91 1339.07 1106.45 1337.59 1107.34 1337.3 1109.11 1338.18 1110.59 1339.07 1112.07 1340.84 1112.36 1342.32 1111.48 1347.64 1108.23 1349.7 1104.39 1350.59 1102.32 1363 1099.07 1371.27 1115.91 1360.93 1124.18 1358.27 1123.59 1353.55 1122.41 1352.36 1119.45 1351.77 1117.98 1350 1117.09 1348.52 1117.98 1347.05 1118.57 1346.16 1120.34 1347.05 1121.82 1349.7 1128.32 1358.57 1130.09 1361.23 1130.39 1373.34 1136 1370.98 1154.61 1358.86 1154.32 1357.09 1154.32 1355.91 1155.5 1355.91 1157.27 1355.91 1158.75 1357.09 1160.23 1359.45 1160.23 1365.36 1160.23 1369.2 1156.98 1370.98 1154.91 1386.34 1162 1382.2 1186.52 1364.48 1187.41ZM1400.23 1129.5C1397.27 1129.5 1395.2 1127.14 1395.2 1124.48 1395.2 1121.52 1397.57 1119.45 1400.23 1119.45 1403.18 1119.45 1405.25 1121.82 1405.25 1124.48 1405.55 1127.43 1403.18 1129.5 1400.23 1129.5Z" fill="#FFFFFF"/></g></g></g></g></svg>