<svg width="3017" height="1276" xmlns="http://www.w3.org/2000/svg" xmlns:xlink="http://www.w3.org/1999/xlink" xml:space="preserve" overflow="hidden"><defs><clipPath id="clip0"><rect x="108" y="317" width="3017" height="1276"/></clipPath><clipPath id="clip1"><rect x="2439" y="316" width="196" height="196"/></clipPath><clipPath id="clip2"><rect x="2439" y="316" width="196" height="196"/></clipPath><clipPath id="clip3"><rect x="2439" y="316" width="196" height="196"/></clipPath><clipPath id="clip4"><rect x="860" y="323" width="195" height="196"/></clipPath><clipPath id="clip5"><rect x="860" y="323" width="195" height="196"/></clipPath><clipPath id="clip6"><rect x="860" y="323" width="195" height="196"/></clipPath><clipPath id="clip7"><rect x="847" y="1027" width="195" height="196"/></clipPath><clipPath id="clip8"><rect x="847" y="1027" width="195" height="196"/></clipPath><clipPath id="clip9"><rect x="847" y="1027" width="195" height="196"/></clipPath><clipPath id="clip10"><rect x="2390" y="1030" width="195" height="197"/></clipPath><clipPath id="clip11"><rect x="2390" y="1030" width="195" height="197"/></clipPath><clipPath id="clip12"><rect x="2390" y="1030" width="195" height="197"/></clipPath></defs><g clip-path="url(#clip0)" transform="translate(-108 -317)"><path d="M2010 896.5C2010 886.283 2018.28 878 2028.5 878L2338.5 878C2348.72 878 2357 886.283 2357 896.5L2357 970.5C2357 980.717 2348.72 989 2338.5 989L2028.5 989C2018.28 989 2010 980.717 2010 970.5Z" stroke="#7A797B" stroke-width="2.29167" stroke-linejoin="round" stroke-miterlimit="10" fill="none" fill-rule="evenodd"/><text font-family="Latha,Latha_MSFontService,sans-serif" font-weight="400" font-size="41" transform="translate(2104.44 920)">பாத்திர <tspan font-size="41" x="-69.025" y="51">மேலாண்மை</tspan></text><path d="M2010 599.5C2010 589.283 2018.28 581 2028.5 581L2319.5 581C2329.72 581 2338 589.283 2338 599.5L2338 673.5C2338 683.717 2329.72 692 2319.5 692L2028.5 692C2018.28 692 2010 683.717 2010 673.5Z" stroke="#7A797B" stroke-width="2.29167" stroke-linejoin="round" stroke-miterlimit="10" fill="none" fill-rule="evenodd"/><text font-family="Latha,Latha_MSFontService,sans-serif" font-weight="400" font-size="41" transform="translate(2078.87 623)">அனுமதி <tspan font-size="41" x="-33.8021" y="51">மறுசீராய்வு</tspan></text><path d="M2010 755.334C2010 745.208 2018.21 737 2028.33 737L2339.67 737C2349.79 737 2358 745.208 2358 755.334L2358 828.666C2358 838.792 2349.79 847 2339.67 847L2028.33 847C2018.21 847 2010 838.792 2010 828.666Z" stroke="#7A797B" stroke-width="2.29167" stroke-linejoin="round" stroke-miterlimit="10" fill="none" fill-rule="evenodd"/><text font-family="Latha,Latha_MSFontService,sans-serif" font-weight="400" font-size="41" transform="translate(2040.85 779)">கடமைகளை <tspan font-size="41" x="46.9791" y="51">பிரித்தல்</tspan><tspan fill="#01919A" font-weight="700" font-size="46" x="222.055" y="-216">அடையாள ஆளுகை</tspan></text><path d="M2381 901.334C2381 891.208 2389.21 883 2399.33 883L2933.67 883C2943.79 883 2952 891.208 2952 901.334L2952 974.666C2952 984.792 2943.79 993 2933.67 993L2399.33 993C2389.21 993 2381 984.792 2381 974.666Z" stroke="#7A797B" stroke-width="2.29167" stroke-linejoin="round" stroke-miterlimit="10" fill="none" fill-rule="evenodd"/><text font-family="Latha,Latha_MSFontService,sans-serif" font-weight="400" font-size="41" transform="translate(2407.11 924)">அடையாள பகுப்பாய்<tspan font-size="41" x="471.51" y="0">வு </tspan><tspan font-size="41" x="104.271" y="50">&amp; </tspan><tspan font-size="41" x="152.969" y="50">நுண்ணறிவு</tspan></text><path d="M2388 601.501C2388 591.283 2396.28 583 2406.5 583L2941.5 583C2951.72 583 2960 591.283 2960 601.501L2960 675.499C2960 685.717 2951.72 694 2941.5 694L2406.5 694C2396.28 694 2388 685.717 2388 675.499Z" stroke="#7A797B" stroke-width="2.29167" stroke-linejoin="round" stroke-miterlimit="10" fill="none" fill-rule="evenodd"/><text font-family="Latha,Latha_MSFontService,sans-serif" font-weight="400" font-size="41" transform="translate(2399.16 625)">இணக்கக் கட்டுப்பா<tspan font-size="41" x="430.26" y="0">டுகள் </tspan><tspan font-size="41" x="25.2085" y="51">மற்றும் சான்றளித்</tspan><tspan font-size="41" x="444.01" y="51">தல்</tspan></text><path d="M2385 752.5C2385 742.283 2393.28 734 2403.5 734L2937.5 734C2947.72 734 2956 742.283 2956 752.5L2956 826.5C2956 836.717 2947.72 845 2937.5 845L2403.5 845C2393.28 845 2385 836.717 2385 826.5Z" stroke="#7A797B" stroke-width="2.29167" stroke-linejoin="round" stroke-miterlimit="10" fill="none" fill-rule="evenodd"/><text font-family="Latha,Latha_MSFontService,sans-serif" font-weight="400" font-size="41" transform="translate(2413.41 776)">மேகக்கணிமை <tspan font-size="41" x="358.073" y="0">&amp; </tspan><tspan font-size="41" x="406.771" y="0">தரவு</tspan><tspan font-size="41" x="513.906" y="0"> </tspan><tspan font-size="41" x="46.7041" y="51">அணுகல் ஆளுகை</tspan></text><g clip-path="url(#clip1)"><g clip-path="url(#clip2)"><g clip-path="url(#clip3)"><path d="M27.0425 117.87C28.8061 117.87 29.9819 116.694 29.9819 114.93L29.9819 95.2365 94.0607 95.2365 94.0607 117.87C94.0607 119.633 95.2365 120.809 97.0001 120.809 98.7637 120.809 99.9395 119.633 99.9395 117.87L99.9395 95.2365 164.018 95.2365 164.018 114.93C164.018 116.694 165.194 117.87 166.958 117.87 168.721 117.87 169.897 116.694 169.897 114.93L169.897 92.2971C169.897 90.5334 168.721 89.3577 166.958 89.3577L99.9395 89.3577 99.9395 75.8364C99.9395 74.0728 98.7637 72.897 97.0001 72.897 95.2365 72.897 94.0607 74.0728 94.0607 75.8364L94.0607 89.3577 27.0425 89.3577C25.2788 89.3577 24.1031 90.5334 24.1031 92.2971L24.1031 114.93C24.1031 116.4 25.5728 117.87 27.0425 117.87Z" fill="#01919A" transform="matrix(1 0 0 1.00515 2440 317)"/><path d="M69.9577 66.1364 123.749 66.1364C125.218 66.1364 126.394 64.9607 126.394 63.491L126.394 48.5001C126.394 40.2697 120.809 33.8031 113.167 32.0394 109.64 37.0364 103.761 40.5637 97.0001 40.5637 90.2395 40.5637 84.3607 37.3303 80.8334 32.0394 73.191 33.5091 67.6061 40.2697 67.6061 48.5001L67.6061 63.491C67.6061 64.9607 68.7819 66.1364 69.9577 66.1364ZM97.0001 64.6667 93.1789 61.4334 94.3547 49.3819 99.3516 49.3819 100.527 61.4334 97.0001 64.6667ZM100.821 44.6788 99.3516 48.2061 94.9425 48.2061 93.4728 44.6788 100.821 44.6788Z" fill="#01919A" transform="matrix(1 0 0 1.00515 2440 317)"/><path d="M97.0001 37.9182C106.406 37.9182 114.343 29.9819 113.755 19.9879 113.167 12.0515 106.994 5.58486 99.3516 4.4091 89.0637 2.9394 80.2455 10.8758 80.2455 21.1637 80.2455 30.5697 87.888 37.9182 97.0001 37.9182Z" fill="#01919A" transform="matrix(1 0 0 1.00515 2440 317)"/><path d="M48.5001 155.788C44.9728 160.785 39.094 164.312 32.3334 164.312 25.5728 164.312 19.694 161.079 16.1667 155.788 8.81819 157.552 2.9394 164.312 2.9394 172.249L2.9394 187.24C2.9394 188.709 4.11516 189.885 5.58486 189.885L59.3758 189.885C60.8455 189.885 62.0213 188.709 62.0213 187.24L62.0213 172.249C61.7273 164.018 56.1425 157.552 48.5001 155.788ZM32.3334 188.121 28.5122 184.888 29.6879 172.837 34.6849 172.837 35.8606 184.888 32.3334 188.121ZM34.6849 171.367 30.2758 171.367 28.8061 167.84 36.4485 167.84 34.6849 171.367Z" fill="#01919A" transform="matrix(1 0 0 1.00515 2440 317)"/><path d="M32.3334 161.373C41.4455 161.373 49.0879 154.024 49.0879 144.618 49.0879 134.624 40.5637 126.688 30.2758 127.864 22.9273 128.746 16.7546 134.33 15.5788 141.679 14.1091 152.261 22.3394 161.373 32.3334 161.373Z" fill="#01919A" transform="matrix(1 0 0 1.00515 2440 317)"/><path d="M113.167 155.788C109.64 160.785 103.761 164.312 97.0001 164.312 90.2395 164.312 84.3607 161.079 80.8334 155.788 73.191 157.258 67.6061 164.018 67.6061 172.249L67.6061 187.24C67.6061 188.709 68.7819 189.885 70.2516 189.885L124.043 189.885C125.512 189.885 126.688 188.709 126.688 187.24L126.688 172.249C126.394 164.018 120.809 157.552 113.167 155.788ZM97.0001 188.121 93.1789 184.888 94.3547 172.837 99.3516 172.837 100.527 184.888 97.0001 188.121ZM99.3516 171.367 94.9425 171.367 93.4728 167.84 101.115 167.84 99.3516 171.367Z" fill="#01919A" transform="matrix(1 0 0 1.00515 2440 317)"/><path d="M80.5395 141.679C78.7758 152.261 87.0062 161.373 97.0001 161.373 106.112 161.373 113.755 154.024 113.755 144.618 113.755 134.624 105.23 126.688 94.9425 127.864 87.888 128.746 81.7152 134.33 80.5395 141.679Z" fill="#01919A" transform="matrix(1 0 0 1.00515 2440 317)"/><path d="M177.834 155.788C174.306 160.785 168.427 164.312 161.667 164.312 154.906 164.312 149.027 161.079 145.5 155.788 137.858 157.258 132.273 164.018 132.273 172.249L132.273 187.24C132.273 188.709 133.449 189.885 134.918 189.885L188.709 189.885C190.179 189.885 191.061 188.709 191.061 187.24L191.061 172.249C191.061 164.018 185.476 157.552 177.834 155.788ZM161.667 188.121 157.846 184.888 159.021 172.837 164.018 172.837 165.194 184.888 161.667 188.121ZM163.724 171.367 159.315 171.367 157.846 167.84 165.488 167.84 163.724 171.367Z" fill="#01919A" transform="matrix(1 0 0 1.00515 2440 317)"/><path d="M144.912 141.679C143.149 152.261 151.379 161.373 161.373 161.373 170.485 161.373 178.127 154.024 178.127 144.618 178.127 134.624 169.603 126.688 159.315 127.864 152.261 128.746 146.088 134.33 144.912 141.679Z" fill="#01919A" transform="matrix(1 0 0 1.00515 2440 317)"/></g></g></g><path d="M1290 642.667C1290 627.387 1302.39 615 1317.67 615L1752.33 615C1767.61 615 1780 627.387 1780 642.667L1780 753.333C1780 768.613 1767.61 781 1752.33 781L1317.67 781C1302.39 781 1290 768.613 1290 753.333Z" stroke="#7A797B" stroke-width="2.29167" stroke-linejoin="round" stroke-miterlimit="10" fill="none" fill-rule="evenodd"/><text font-family="Latha,Latha_MSFontService,sans-serif" font-weight="400" font-size="41" transform="translate(1305.91 660)">சுயசேவை அணுக<tspan font-size="41" x="411.927" y="0">ல் </tspan><tspan font-size="41" x="107.708" y="50">கோரிக்கை </tspan><tspan font-size="41" x="80.7812" y="99">மேலாண்மை</tspan></text><path d="M851 642.667C851 627.387 863.387 615 878.667 615L1205.33 615C1220.61 615 1233 627.387 1233 642.667L1233 753.333C1233 768.613 1220.61 781 1205.33 781L878.667 781C863.387 781 851 768.613 851 753.333Z" stroke="#7A797B" stroke-width="2.29167" stroke-linejoin="round" stroke-miterlimit="10" fill="none" fill-rule="evenodd"/><text font-family="Latha,Latha_MSFontService,sans-serif" font-weight="400" font-size="41" transform="translate(924.28 660)">சுயசேவை <tspan font-size="41" x="-24.6354" y="50">கடவுச்சொல்</tspan><tspan font-size="41" x="259.531" y="50"> </tspan><tspan font-size="41" x="-30.6625" y="100">மேலாண்மை</tspan></text><path d="M118 834.667C118 819.387 130.387 807 145.667 807L761.333 807C776.613 807 789 819.387 789 834.667L789 945.333C789 960.613 776.613 973 761.333 973L145.667 973C130.387 973 118 960.613 118 945.333Z" stroke="#7A797B" stroke-width="2.29167" stroke-linejoin="round" stroke-miterlimit="10" fill="none" fill-rule="evenodd"/><text font-family="Latha,Latha_MSFontService,sans-serif" font-weight="400" font-size="41" transform="translate(133.56 851)">கொள்கை<tspan font-size="41" x="218.281" y="0">, </tspan>பாத்திரம் மற்<tspan font-size="41" x="551.719" y="0">றும் </tspan><tspan font-size="41" x="42.0979" y="50">பண்பு அடிப்படையிலா</tspan><tspan font-size="41" x="548.556" y="50">ன </tspan><tspan font-size="41" x="86.7854" y="99">அணுகல் கட்டுப்பாடு</tspan></text><path d="M848 834.667C848 819.387 860.387 807 875.667 807L1202.33 807C1217.61 807 1230 819.387 1230 834.667L1230 945.333C1230 960.613 1217.61 973 1202.33 973L875.667 973C860.387 973 848 960.613 848 945.333Z" stroke="#7A797B" stroke-width="2.29167" stroke-linejoin="round" stroke-miterlimit="10" fill="none" fill-rule="evenodd"/><text font-family="Latha,Latha_MSFontService,sans-serif" font-weight="400" font-size="41" transform="translate(929.549 851)">பயன்பாடு <tspan font-size="41" x="-54.1292" y="50">உள்ளேற்றம் </tspan><tspan font-size="41" x="248.944" y="50">&amp;</tspan><tspan font-size="41" x="273.579" y="50"> </tspan><tspan font-size="41" x="-65.5875" y="100">ஒருங்கிணை</tspan><tspan font-size="41" x="224.881" y="100">ப்பு</tspan></text><path d="M1290 834.667C1290 819.387 1302.39 807 1317.67 807L1752.33 807C1767.61 807 1780 819.387 1780 834.667L1780 945.333C1780 960.613 1767.61 973 1752.33 973L1317.67 973C1302.39 973 1290 960.613 1290 945.333Z" stroke="#7A797B" stroke-width="2.29167" stroke-linejoin="round" stroke-miterlimit="10" fill="none" fill-rule="evenodd"/><text font-family="Latha,Latha_MSFontService,sans-serif" font-weight="400" font-size="41" transform="translate(1318.51 851)">தானியங்கி மற்று<tspan font-size="41" x="393.021" y="0">ம் </tspan><tspan font-size="41" x="48.125" y="50">தேவைக்கேற்ற </tspan><tspan font-size="41" x="5.72913" y="100">அனுமதி வழங்கல்</tspan><tspan fill="#FC9A05" font-weight="700" font-size="46" x="-705.148" y="-305">அடையாள மேலாண்மை</tspan></text><path d="M118 642.667C118 627.387 130.387 615 145.667 615L766.333 615C781.613 615 794 627.387 794 642.667L794 753.333C794 768.613 781.613 781 766.333 781L145.667 781C130.387 781 118 768.613 118 753.333Z" stroke="#7A797B" stroke-width="2.29167" stroke-linejoin="round" stroke-miterlimit="10" fill="none" fill-rule="evenodd"/><text font-family="Latha,Latha_MSFontService,sans-serif" font-weight="400" font-size="41" transform="translate(333.945 660)">தானியங்கி <tspan font-size="41" x="-103.125" y="50">வாழ்நிலைச் சுழற்சி </tspan><tspan font-size="41" x="-26.3542" y="100">மேலாண்மை</tspan></text><g clip-path="url(#clip4)"><g clip-path="url(#clip5)"><g clip-path="url(#clip6)"><path d="M889.281 355.754C880.461 355.754 873.254 362.963 873.254 371.781L873.254 469.285C873.254 478.099 880.461 485.255 889.281 485.255L1025.78 485.255C1034.6 485.255 1041.75 478.099 1041.75 469.285L1041.75 371.781C1041.75 362.963 1034.6 355.754 1025.78 355.754L889.281 355.754ZM941.931 371.354 973.131 371.354C977.628 371.354 981.296 375.085 981.296 379.581 981.296 384.078 977.628 387.746 973.131 387.746L941.931 387.746C937.433 387.746 933.704 384.078 933.704 379.581 933.704 375.085 937.431 371.354 941.931 371.354ZM941.931 376.046C939.944 376.046 938.396 377.596 938.396 379.581 938.396 381.566 939.944 383.054 941.931 383.054L973.131 383.054C975.114 383.054 976.604 381.566 976.604 379.581 976.604 377.596 975.112 376.046 973.131 376.046L941.931 376.046ZM891.413 403.896 952.9 403.896C954.754 403.896 955.763 405.501 955.763 406.881L955.763 465.444C955.763 466.828 954.754 468.485 952.9 468.485L891.413 468.485C889.56 468.485 888.55 466.828 888.55 465.444L888.55 406.881C888.55 405.501 889.56 403.896 891.413 403.896ZM893.242 408.587 893.242 463.806 896.471 463.806C897.194 452.613 904.322 442.824 914.265 439.294 910.874 436.779 908.537 432.879 908.537 428.277 908.537 420.691 914.458 414.377 921.883 414.377 929.307 414.377 935.288 420.691 935.288 428.277 935.288 432.781 933.035 436.642 929.744 439.177 939.956 442.59 947.575 452.457 948.329 463.806L951.133 463.806 951.133 408.587 893.242 408.587ZM967.037 410.354C967.119 410.35 967.2 410.35 967.281 410.354L1021.88 410.354C1023.18 410.354 1024.23 411.405 1024.23 412.7 1024.23 413.997 1023.18 415.046 1021.88 415.046L967.281 415.046C965.986 415.116 964.879 414.122 964.81 412.825 964.741 411.53 965.736 410.424 967.031 410.354 967.033 410.354 967.035 410.354 967.037 410.354ZM921.883 419.073C917.092 419.073 913.169 423.129 913.169 428.277 913.169 433.425 917.092 437.403 921.883 437.403 926.672 437.403 930.658 433.425 930.658 428.277 930.658 423.129 926.672 419.073 921.883 419.073ZM967.037 433.756C967.119 433.756 967.2 433.756 967.281 433.756L1021.88 433.756C1023.18 433.756 1024.23 434.809 1024.23 436.096 1024.23 437.403 1023.18 438.456 1021.88 438.456L967.281 438.456C965.986 438.514 964.879 437.52 964.81 436.233 964.741 434.926 965.736 433.815 967.031 433.756 967.033 433.756 967.035 433.756 967.037 433.756ZM922.188 442.473C911.205 442.473 902.216 452.262 901.285 463.806L943.454 463.806C942.489 452.301 933.18 442.473 922.188 442.473ZM967.037 457.156C967.119 457.156 967.2 457.156 967.281 457.156L1021.88 457.156C1023.18 457.156 1024.23 458.209 1024.23 459.496 1024.23 460.803 1023.18 461.856 1021.88 461.856L967.281 461.856C965.986 461.914 964.879 460.92 964.81 459.633 964.741 458.326 965.736 457.215 967.031 457.156 967.033 457.156 967.035 457.156 967.037 457.156Z" fill="#FC9A05"/></g></g></g><path d="M220 1320.33C220 1310.21 228.208 1302 238.334 1302L597.666 1302C607.792 1302 616 1310.21 616 1320.33L616 1393.67C616 1403.79 607.792 1412 597.666 1412L238.334 1412C228.208 1412 220 1403.79 220 1393.67Z" stroke="#7A797B" stroke-width="2.29167" stroke-linejoin="round" stroke-miterlimit="10" fill="none" fill-rule="evenodd"/><text font-family="Latha,Latha_MSFontService,sans-serif" font-weight="400" font-size="41" transform="translate(276.121 1343)">கடவுச்சொல் <tspan font-size="41" x="35.2229" y="50">பெட்டகம்</tspan></text><path d="M1233 1314.5C1233 1304.28 1241.28 1296 1251.5 1296L1612.5 1296C1622.72 1296 1631 1304.28 1631 1314.5L1631 1388.5C1631 1398.72 1622.72 1407 1612.5 1407L1251.5 1407C1241.28 1407 1233 1398.72 1233 1388.5Z" stroke="#7A797B" stroke-width="2.29167" stroke-linejoin="round" stroke-miterlimit="10" fill="none" fill-rule="evenodd"/><text font-family="Latha,Latha_MSFontService,sans-serif" font-weight="400" font-size="41" transform="translate(1352.73 1338)">அமர்வு<tspan font-size="41" x="-26.6293" y="51">மேலாளர்</tspan></text><path d="M218 1474.5C218 1464.28 226.283 1456 236.5 1456L596.5 1456C606.717 1456 615 1464.28 615 1474.5L615 1548.5C615 1558.72 606.717 1567 596.5 1567L236.5 1567C226.283 1567 218 1558.72 218 1548.5Z" stroke="#7A797B" stroke-width="2.29167" stroke-linejoin="round" stroke-miterlimit="10" fill="none" fill-rule="evenodd"/><text font-family="Latha,Latha_MSFontService,sans-serif" font-weight="400" font-size="41" transform="translate(316.838 1499)">அணுகல்<tspan font-size="41" x="-6.57706" y="50">மேலாளர்</tspan></text><path d="M1235 1462.33C1235 1452.21 1243.21 1444 1253.33 1444L1614.67 1444C1624.79 1444 1633 1452.21 1633 1462.33L1633 1535.67C1633 1545.79 1624.79 1554 1614.67 1554L1253.33 1554C1243.21 1554 1235 1545.79 1235 1535.67Z" stroke="#7A797B" stroke-width="2.29167" stroke-linejoin="round" stroke-miterlimit="10" fill="none" fill-rule="evenodd"/><text font-family="Latha,Latha_MSFontService,sans-serif" font-weight="400" font-size="41" transform="translate(1330.66 1486)">இணக்கக் <tspan font-size="41" x="-56.4437" y="51">கட்டுப்பாடுக</tspan>ள்<tspan fill="#FC6605" font-weight="700" font-size="46" x="-951.192" y="-228">சிறப்புரிமை பெற்ற அணுகல் மேலா</tspan><tspan fill="#FC6605" font-weight="700" font-size="46" x="-1.29639" y="-228">ண்மை</tspan></text><path d="M643 1317.5C643 1307.28 651.283 1299 661.501 1299L1186.5 1299C1196.72 1299 1205 1307.28 1205 1317.5L1205 1391.5C1205 1401.72 1196.72 1410 1186.5 1410L661.501 1410C651.283 1410 643 1401.72 643 1391.5Z" stroke="#7A797B" stroke-width="2.29167" stroke-linejoin="round" stroke-miterlimit="10" fill="none" fill-rule="evenodd"/><text font-family="Latha,Latha_MSFontService,sans-serif" font-weight="400" font-size="41" transform="translate(782.089 1342)">கடவுச்சொல்<tspan font-size="41" x="36.0938" y="50">மேலாளர்</tspan></text><path d="M643 1462.33C643 1452.21 651.208 1444 661.334 1444L1186.67 1444C1196.79 1444 1205 1452.21 1205 1462.33L1205 1535.67C1205 1545.79 1196.79 1554 1186.67 1554L661.334 1554C651.208 1554 643 1545.79 643 1535.67Z" stroke="#7A797B" stroke-width="2.29167" stroke-linejoin="round" stroke-miterlimit="10" fill="none" fill-rule="evenodd"/><text font-family="Latha,Latha_MSFontService,sans-serif" font-weight="400" font-size="41" transform="translate(792.963 1486)">சிறப்புரிமை <tspan font-size="41" x="-142.358" y="51">அச்சுறுத்தல் பகுப்</tspan><tspan font-size="41" x="260.402" y="51">பாய்வு</tspan></text><g clip-path="url(#clip7)"><g clip-path="url(#clip8)"><g clip-path="url(#clip9)"><path d="M898.797 1142.78C898.797 1137.73 894.705 1133.64 889.656 1133.64 884.608 1133.64 880.516 1137.73 880.516 1142.78L880.516 1151.92 898.797 1151.92Z" fill="#FC6605"/><path d="M889.656 1127.55C893.022 1127.55 895.75 1124.82 895.75 1121.45L895.75 1115.36C895.75 1111.99 893.022 1109.27 889.656 1109.27 886.291 1109.27 883.562 1111.99 883.562 1115.36L883.562 1121.45C883.562 1124.82 886.291 1127.55 889.656 1127.55Z" fill="#FC6605"/><path d="M1008.48 1090.98 971.483 1090.98C970.651 1090.99 969.854 1091.33 969.28 1091.93L903.998 1157.13C903.955 1157.17 903.894 1157.19 903.852 1157.23 903.31 1157.74 902.59 1158.03 901.844 1158.02L880.516 1158.02C868.736 1158.02 859.188 1167.56 859.188 1179.34 859.188 1191.12 868.736 1200.67 880.516 1200.67L920.564 1200.67C921.396 1200.67 922.192 1200.33 922.767 1199.73L988.049 1134.52C988.622 1133.96 989.396 1133.64 990.203 1133.64L1008.48 1133.64C1020.26 1133.64 1029.81 1124.09 1029.81 1112.31 1029.81 1100.53 1020.26 1090.98 1008.48 1090.98ZM962.781 1148.88 956.687 1148.88 956.687 1141 934.467 1163.22 930.158 1158.91 952.379 1136.69 944.5 1136.69 944.5 1130.59 959.734 1130.59C961.417 1130.59 962.781 1131.96 962.781 1133.64Z" fill="#FC6605"/><path d="M1017.94 1072.7 1019.73 1056.62 1010.64 1065.72C1009.45 1066.91 1007.52 1066.91 1006.33 1065.72 1006.15 1065.54 1006 1065.34 1005.87 1065.13L999.344 1054.25 992.814 1065.13C991.947 1066.57 990.075 1067.04 988.633 1066.17 988.42 1066.05 988.224 1065.89 988.049 1065.72L978.957 1056.62 980.758 1072.7Z" fill="#FC6605"/><path d="M1002.39 1048.33C1002.39 1050.01 1001.03 1051.38 999.344 1051.38 997.661 1051.38 996.297 1050.01 996.297 1048.33 996.297 1046.65 997.661 1045.28 999.344 1045.28 1001.03 1045.28 1002.39 1046.65 1002.39 1048.33Z" fill="#FC6605"/><path d="M1026.77 1048.33C1026.77 1050.01 1025.4 1051.38 1023.72 1051.38 1022.04 1051.38 1020.67 1050.01 1020.67 1048.33 1020.67 1046.65 1022.04 1045.28 1023.72 1045.28 1025.4 1045.28 1026.77 1046.65 1026.77 1048.33Z" fill="#FC6605"/><path d="M978.016 1048.33C978.016 1050.01 976.651 1051.38 974.969 1051.38 973.286 1051.38 971.922 1050.01 971.922 1048.33 971.922 1046.65 973.286 1045.28 974.969 1045.28 976.651 1045.28 978.016 1046.65 978.016 1048.33Z" fill="#FC6605"/></g></g></g><path d="M1888 1354.17C1888 1349.1 1892.1 1345 1897.17 1345L2228.83 1345C2233.9 1345 2238 1349.1 2238 1354.17L2238 1390.83C2238 1395.9 2233.9 1400 2228.83 1400L1897.17 1400C1892.1 1400 1888 1395.9 1888 1390.83Z" stroke="#7A797B" stroke-width="2.29167" stroke-linejoin="round" stroke-miterlimit="10" fill="none" fill-rule="evenodd"/><text font-family="Latha,Latha_MSFontService,sans-serif" font-weight="400" font-size="41" transform="translate(1941.5 1385)">சான்றுறுதி</text><path d="M2662 1342.5C2662 1332.28 2670.28 1324 2680.5 1324L3063.5 1324C3073.72 1324 3082 1332.28 3082 1342.5L3082 1416.5C3082 1426.72 3073.72 1435 3063.5 1435L2680.5 1435C2670.28 1435 2662 1426.72 2662 1416.5Z" stroke="#7A797B" stroke-width="2.29167" stroke-linejoin="round" stroke-miterlimit="10" fill="none" fill-rule="evenodd"/><text font-family="Latha,Latha_MSFontService,sans-serif" font-weight="400" font-size="41" transform="translate(2743 1366)">பல காரணி <tspan font-size="41" x="7.72314" y="51">சான்றுறுதி</tspan></text><path d="M2326 1479.5C2326 1469.28 2334.28 1461 2344.5 1461L2556.5 1461C2566.72 1461 2575 1469.28 2575 1479.5L2575 1553.5C2575 1563.72 2566.72 1572 2556.5 1572L2344.5 1572C2334.28 1572 2326 1563.72 2326 1553.5Z" stroke="#7A797B" stroke-width="2.29167" stroke-linejoin="round" stroke-miterlimit="10" fill="none" fill-rule="evenodd"/><text font-family="Latha,Latha_MSFontService,sans-serif" font-weight="400" font-size="41" transform="translate(2364.77 1503)">ஒற்றை <tspan font-size="41" x="-3.4375" y="51">நுழைவு</tspan></text><path d="M2662 1479.5C2662 1469.28 2670.28 1461 2680.5 1461L3063.5 1461C3073.72 1461 3082 1469.28 3082 1479.5L3082 1553.5C3082 1563.72 3073.72 1572 3063.5 1572L2680.5 1572C2670.28 1572 2662 1563.72 2662 1553.5Z" stroke="#7A797B" stroke-width="2.29167" stroke-linejoin="round" stroke-miterlimit="10" fill="none" fill-rule="evenodd"/><text font-family="Latha,Latha_MSFontService,sans-serif" font-weight="400" font-size="41" transform="translate(2669.38 1503)">கடவுச்சொல்லற்ற <tspan font-size="41" x="81.354" y="51">சான்றுறுதி</tspan><tspan fill="#DF7275" font-weight="700" font-size="46" x="-479.182" y="-220">அணுகல் மேலாண்மை</tspan></text><path d="M2326 1335.5C2326 1325.28 2334.28 1317 2344.5 1317L2556.5 1317C2566.72 1317 2575 1325.28 2575 1335.5L2575 1409.5C2575 1419.72 2566.72 1428 2556.5 1428L2344.5 1428C2334.28 1428 2326 1419.72 2326 1409.5Z" stroke="#7A797B" stroke-width="2.29167" stroke-linejoin="round" stroke-miterlimit="10" fill="none" fill-rule="evenodd"/><text font-family="Latha,Latha_MSFontService,sans-serif" font-weight="400" font-size="41" transform="translate(2343.86 1359)">அதிகாரம்<tspan font-size="41" x="212.552" y="0"> </tspan><tspan font-size="41" x="2.86475" y="51">வழங்கல்</tspan></text><path d="M1888 1498.17C1888 1493.1 1892.1 1489 1897.17 1489L2228.83 1489C2233.9 1489 2238 1493.1 2238 1498.17L2238 1534.83C2238 1539.9 2233.9 1544 2228.83 1544L1897.17 1544C1892.1 1544 1888 1539.9 1888 1534.83Z" stroke="#7A797B" stroke-width="2.29167" stroke-linejoin="round" stroke-miterlimit="10" fill="none" fill-rule="evenodd"/><text font-family="Latha,Latha_MSFontService,sans-serif" font-weight="400" font-size="41" transform="translate(1895.1 1529)">கூட்டமைத்<tspan font-size="41" x="255.521" y="0">தல்</tspan></text><g clip-path="url(#clip10)"><g clip-path="url(#clip11)"><g clip-path="url(#clip12)"><path d="M29.25 114.562C17.1541 114.562 7.3125 124.404 7.3125 136.5 7.3125 148.596 17.1541 158.437 29.25 158.437 41.3458 158.437 51.1875 148.596 51.1875 136.5 51.1875 133.411 50.5381 130.472 49.3818 127.805L75.5508 112.852C79.9636 119.145 86.9992 123.46 95.0644 124.192L95.0644 143.959C84.1132 145.175 75.5644 154.481 75.5644 165.752 75.5644 177.848 85.4061 187.689 97.5019 187.689 109.598 187.689 119.437 177.846 119.437 165.75 119.437 154.479 110.889 145.174 99.9374 143.957L99.9374 124.19C108.003 123.458 115.036 119.143 119.451 112.85L145.62 127.803C144.462 130.472 143.812 133.411 143.812 136.5 143.812 148.596 153.654 158.437 165.75 158.437 177.846 158.437 187.687 148.596 187.687 136.5 187.687 124.404 177.846 114.562 165.75 114.562 158.486 114.562 152.053 118.127 148.058 123.583L121.867 108.617C123.421 105.224 124.31 101.468 124.31 97.4999 124.31 93.5317 123.421 89.774 121.867 86.383L148.058 71.4168C152.053 76.8729 158.484 80.4375 165.75 80.4375 177.846 80.4375 187.687 70.5958 187.687 58.5 187.687 46.4041 177.846 36.5625 165.75 36.5625 153.654 36.5625 143.812 46.4041 143.812 58.5 143.812 61.5888 144.462 64.5274 145.618 67.195L119.449 82.1476C115.036 75.855 108.001 71.5396 99.9355 70.8084L99.9355 51.0432C110.887 49.8264 119.435 40.521 119.435 29.25 119.435 17.1541 109.594 7.3125 97.498 7.3125 85.4022 7.3125 75.5625 17.1541 75.5625 29.25 75.5625 40.521 84.1113 49.8264 95.0624 51.0432L95.0624 70.8103C86.9973 71.5416 79.9636 75.8569 75.5488 82.1496L49.3798 67.197C50.5381 64.5274 51.1855 61.5907 51.1855 58.5019 51.1855 46.4061 41.3439 36.5644 29.248 36.5644 17.1522 36.5644 7.3125 46.4041 7.3125 58.5 7.3125 70.5958 17.1541 80.4375 29.25 80.4375 36.5137 80.4375 42.9468 76.8729 46.9423 71.4168L73.1328 86.383C71.5786 89.776 70.6894 93.5317 70.6894 97.4999 70.6894 101.468 71.5786 105.226 73.1328 108.617L46.9443 123.583C42.9468 118.127 36.5137 114.562 29.25 114.562Z" fill="#DF7275" transform="matrix(1 0 0 1 2390 1031)"/></g></g></g></g></svg>