<svg width="126" height="125" xmlns="http://www.w3.org/2000/svg" xmlns:xlink="http://www.w3.org/1999/xlink" xml:space="preserve" overflow="hidden"><defs><clipPath id="clip0"><rect x="79" y="360" width="126" height="125"/></clipPath></defs><g clip-path="url(#clip0)" transform="translate(-79 -360)"><path d="M118.266 22.1712 7.48125 22.1712C3.555 22.1712 0.365 25.3588 0.365 29.2812L0.365 95.855C0.365 99.785 3.555 102.984 7.48125 102.984L118.266 102.984C122.184 102.984 125.366 99.7838 125.366 95.855L125.366 29.2825C125.368 25.36 122.184 22.1712 118.266 22.1712ZM18.8475 66.1625 16.5925 66.1625C14.175 66.1625 12.2063 64.195 12.2063 61.7763L12.2063 60.5675 18.8462 60.5675 18.8462 66.1625ZM18.8475 58.0212 12.2063 58.0212 12.2063 53.3712 18.8462 53.3712 18.8462 58.0212ZM18.8475 50.8262 12.2063 50.8262 12.2063 49.615C12.2063 47.1975 14.1737 45.2287 16.5925 45.2287L18.8475 45.2287 18.8475 50.8262ZM27.0887 66.1625 21.3925 66.1625 21.3925 45.2287 27.0887 45.2287 27.0887 66.1625ZM36.2738 61.7763C36.2738 64.195 34.3063 66.1625 31.8888 66.1625L29.6338 66.1625 29.6338 60.5662 36.2738 60.5662 36.2738 61.7763ZM36.2738 58.0212 29.6338 58.0212 29.6338 53.3712 36.2738 53.3712 36.2738 58.0212ZM36.2738 50.8262 29.6338 50.8262 29.6338 45.2287 31.8888 45.2287C34.3063 45.2287 36.2738 47.1963 36.2738 49.615L36.2738 50.8262Z" fill="#F2D552" transform="matrix(1.008 0 0 1 78.6321 359.922)"/></g></svg>