<svg width="3061" height="865" xmlns="http://www.w3.org/2000/svg" xmlns:xlink="http://www.w3.org/1999/xlink" xml:space="preserve" overflow="hidden"><defs><clipPath id="clip0"><rect x="183" y="860" width="3061" height="865"/></clipPath><clipPath id="clip1"><rect x="272" y="908" width="618" height="277"/></clipPath><clipPath id="clip2"><rect x="272" y="908" width="618" height="277"/></clipPath><clipPath id="clip3"><rect x="272" y="908" width="618" height="277"/></clipPath><clipPath id="clip4"><rect x="2269" y="936" width="131" height="130"/></clipPath><clipPath id="clip5"><rect x="2269" y="936" width="131" height="130"/></clipPath><clipPath id="clip6"><rect x="2269" y="936" width="131" height="130"/></clipPath><clipPath id="clip7"><rect x="2766" y="1357" width="132" height="131"/></clipPath><clipPath id="clip8"><rect x="2766" y="1357" width="132" height="131"/></clipPath><clipPath id="clip9"><rect x="2766" y="1357" width="132" height="131"/></clipPath><clipPath id="clip10"><rect x="2766" y="1552" width="132" height="130"/></clipPath><clipPath id="clip11"><rect x="2766" y="1552" width="132" height="130"/></clipPath><clipPath id="clip12"><rect x="2766" y="1552" width="132" height="130"/></clipPath></defs><g clip-path="url(#clip0)" transform="translate(-183 -860)"><rect x="1260" y="1337" width="452" height="170" stroke="#79787A" stroke-width="2.29167" stroke-linejoin="round" stroke-miterlimit="10" fill="#FFFFFF"/><text font-family="Latha,Latha_MSFontService,sans-serif" font-weight="700" font-size="46" transform="translate(1423.53 1380)">தரவு <tspan font-size="46" x="-147.812" y="55">ஒருங்கிணைப்</tspan><tspan font-size="46" x="236.615" y="55">பு </tspan><tspan font-size="46" x="-63.8688" y="111">கருவிகள்</tspan></text><rect x="1836" y="1321" width="665" height="199" stroke="#79787A" stroke-width="2.29167" stroke-linejoin="round" stroke-miterlimit="10" fill="#FFFFFF"/><text font-family="Latha,Latha_MSFontService,sans-serif" font-weight="400" font-size="46" transform="translate(1966.08 1378)">விதிகள் மற்றும் <tspan font-size="46" x="28.3479" y="55">சேமிக்கப்பட்ட </tspan><tspan font-size="46" x="12.3063" y="110">நடைமுறைகள்</tspan><tspan font-size="37" x="-158.265" y="180">அடையாள மேலாண்மை </tspan><tspan font-size="37" x="366.527" y="180">/ </tspan><tspan font-size="37" x="396.892" y="180">ஆளு</tspan><tspan font-size="37" x="500.017" y="180">கை </tspan><tspan font-size="37" x="-148.525" y="224">அமைப்புகள் இதனை பெரும்பா</tspan><tspan font-size="37" x="479.965" y="224">லும் </tspan><tspan font-size="37" x="-108.719" y="268">செய்கின்றன</tspan><tspan font-size="37" x="142.792" y="268">. </tspan><tspan font-size="37" x="173.156" y="268">சொந்த கருவிகள்</tspan><tspan font-size="37" x="523.781" y="268"> </tspan><tspan font-size="37" x="-100.4" y="313">மூலமும் இதனை செய்யலாம்</tspan><tspan font-size="46" x="948.363" y="221">அனாதை </tspan><tspan font-size="46" x="948.363" y="277">கணக்குகள்</tspan><tspan font-size="46" x="-94.2448" y="-461">அதிகாரப்பூர்வ அமை</tspan><tspan font-size="46" x="432.266" y="-461">ப்பு</tspan><tspan font-size="46" x="951.806" y="29">அடையாள</tspan><tspan font-size="46" x="1223.94" y="29"> </tspan><tspan font-size="46" x="951.806" y="85">இணைப்பு</tspan><tspan font-size="46" x="-73.9122" y="-242">மனிதவள</tspan><tspan font-size="46" x="-59.5894" y="-186">அமைப்பு</tspan></text><path d="M1947 1012.5C1947 973.564 1980.58 942 2022 942 2063.42 942 2097 973.564 2097 1012.5 2097 1051.44 2063.42 1083 2022 1083 1980.58 1083 1947 1051.44 1947 1012.5Z" fill="#204497" fill-rule="evenodd"/><path d="M2004.94 1018.83C2005.66 1021.69 2007.83 1022.06 2008.17 1022.06 2008.54 1022.06 2011.06 1021.69 2011.43 1018.83 2011.77 1018.83 2012.14 1018.49 2012.14 1018.12 2012.14 1017.07 2012.14 1017.07 2012.14 1017.07 2012.48 1016.7 2012.14 1016.37 2011.77 1016 2012.14 1015.63 2012.14 1014.58 2012.14 1013.87 2012.14 1012.43 2010.72 1011.01 2008.91 1010.64 2008.54 1009.93 2008.54 1009.93 2008.54 1009.93 2004.23 1010.3 2004.23 1013.5 2004.23 1013.5 2004.23 1013.87 2004.23 1013.87 2004.23 1013.87 2004.23 1014.92 2004.6 1015.63 2004.6 1016 2004.23 1016.37 2004.23 1016.7 2004.23 1017.07 2004.23 1018.12 2004.23 1018.12 2004.23 1018.12 2004.23 1018.49 2004.6 1018.83 2004.94 1018.83ZM2061.34 978.559C2014.66 978.559 2014.66 978.559 2014.66 978.559 2012.48 978.559 2010.34 977.512 2009.63 975.357 2008.17 973.233 2008.17 973.233 2008.17 973.233 2007.46 971.078 2005.31 970 2003.17 970 1978 970 1978 970 1978 970 1978 1038.44 1978 1038.44 1978 1038.44 1986.63 1038.44 1986.63 1038.44 1986.63 1038.44 1986.63 1001.74 1986.63 1001.74 1986.63 1001.74 1986.63 999.248 1988.77 997.093 1991.28 997.093 2056.65 997.093 2056.65 997.093 2056.65 997.093 2059.2 997.093 2061.34 999.248 2061.34 1001.74 2061.34 1038.44 2061.34 1038.44 2061.34 1038.44 2069.97 1038.44 2069.97 1038.44 2069.97 1038.44 2069.97 987.118 2069.97 987.118 2069.97 987.118 2069.97 982.5 2066 978.559 2061.34 978.559ZM2056.65 999.956C1991.28 999.956 1991.28 999.956 1991.28 999.956 1990.23 999.956 1989.48 1000.66 1989.48 1001.74 1989.48 1045.18 1989.48 1045.18 1989.48 1045.18 1989.48 1046.26 1990.23 1046.97 1991.28 1046.97 2056.65 1046.97 2056.65 1046.97 2056.65 1046.97 2057.74 1046.97 2058.45 1046.26 2058.45 1045.18 2058.45 1001.74 2058.45 1001.74 2058.45 1001.74 2058.45 1000.66 2057.74 999.956 2056.65 999.956ZM1998.11 1008.52C2018.26 1008.52 2018.26 1008.52 2018.26 1008.52 2018.26 1025.97 2018.26 1025.97 2018.26 1025.97 2011.43 1022.77 2011.43 1022.77 2011.43 1022.77 2011.43 1022.77 2010.72 1025.26 2008.17 1026.68 2005.66 1025.26 2004.94 1022.77 2004.94 1022.77 1998.11 1025.97 1998.11 1025.97 1998.11 1025.97L1998.11 1008.52ZM2049.82 1037.02C1998.11 1037.02 1998.11 1037.02 1998.11 1037.02 1998.11 1034.16 1998.11 1034.16 1998.11 1034.16 2049.82 1034.16 2049.82 1034.16 2049.82 1034.16L2049.82 1037.02ZM2049.82 1028.47C2025.43 1028.47 2025.43 1028.47 2025.43 1028.47 2025.43 1025.63 2025.43 1025.63 2025.43 1025.63 2049.82 1025.63 2049.82 1025.63 2049.82 1025.63L2049.82 1028.47ZM2049.82 1019.91C2025.43 1019.91 2025.43 1019.91 2025.43 1019.91 2025.43 1017.07 2025.43 1017.07 2025.43 1017.07 2049.82 1017.07 2049.82 1017.07 2049.82 1017.07L2049.82 1019.91ZM2049.82 1011.35C2025.43 1011.35 2025.43 1011.35 2025.43 1011.35 2025.43 1008.52 2025.43 1008.52 2025.43 1008.52 2049.82 1008.52 2049.82 1008.52 2049.82 1008.52L2049.82 1011.35Z" fill="#FFFFFF" fill-rule="evenodd"/><path d="M1836 929.501C1836 896.64 1862.64 870 1895.5 870L2441.5 870C2474.36 870 2501 896.64 2501 929.501L2501 1167.5C2501 1200.36 2474.36 1227 2441.5 1227L1895.5 1227C1862.64 1227 1836 1200.36 1836 1167.5Z" stroke="#79787A" stroke-width="2.29167" stroke-linejoin="round" stroke-miterlimit="10" fill="none" fill-rule="evenodd"/><g clip-path="url(#clip1)"><g clip-path="url(#clip2)"><g clip-path="url(#clip3)"><path d="M312.606 57.0414C315.642 56.5316 318.953 56.8562 321.589 58.5436 323.412 59.6983 324.676 61.6715 324.93 63.8185 325.403 67.678 324.642 71.5604 323.665 75.285 322.438 79.8945 320.839 84.4194 320.101 89.1455 318.672 90.6248 317.38 92.2276 315.965 93.7161 315.039 94.5598 314.035 95.312 313.074 96.1169 310.502 94.0362 307.877 92.0058 305.511 89.6874 305.079 88.8071 304.788 87.8651 304.397 86.9665 304.164 86.5252 304.274 86.0176 304.272 85.5443 304.425 80.3244 302.877 75.2393 302.854 70.0285 302.84 67.1247 303.435 64.1592 304.93 61.6441 306.583 59.0032 309.627 57.5788 312.606 57.0414Z" stroke="#000000" stroke-width="0.0214469" fill="#01919A" transform="matrix(1.38443 0 0 1 277.618 858.482)"/><path d="M52.1322 62.1722C56.2638 61.125 60.9259 62.3209 63.9532 65.3458 66.1527 67.502 67.2777 70.623 67.1702 73.6822 67.1862 74.6768 66.9255 75.644 66.8524 76.6318 66.9484 77.8664 69.0657 77.3406 68.9902 78.6941 68.9399 80.4661 68.9353 82.3799 67.927 83.9164 67.2365 85.0024 65.9218 85.4872 64.6803 85.5032 63.8274 88.6402 63.1483 91.8847 63.3427 95.1543 63.409 96.421 63.7314 97.6625 64.2412 98.8218 62.5333 101.956 60.4 104.936 57.5625 107.151 57.0069 107.583 56.4239 107.984 55.8866 108.441 56.4124 108.91 56.7234 109.554 57.1715 110.089 57.782 110.842 58.4474 111.576 58.8155 112.488 58.436 113.124 57.9764 113.716 57.343 114.116 57.2493 115.394 57.9878 116.505 58.7195 117.481 59.6249 118.917 58.9618 120.625 58.907 122.18 59.4191 120.207 59.3528 118.092 60.1805 116.206 61.2391 112.931 62.906 109.884 63.8937 106.58 64.4722 104.803 64.8403 102.965 65.0712 101.113 65.0758 100.8 65.2564 100.543 65.4233 100.297 66.5643 100.861 67.0307 102.153 68.0116 102.901 69.4178 103.715 71.1486 103.692 72.5365 104.558 76.3732 105.889 80.4933 106.539 84.0511 108.596 85.4458 109.426 86.7216 110.547 87.483 112.003 88.3061 113.498 88.4365 115.234 88.7703 116.878 90.9447 128.795 91.0705 140.966 90.6155 153.033 90.4531 159.12 90.181 165.207 90.2565 171.3 90.2633 175.8 90.5514 180.295 90.9401 184.776 91.2785 189.123 91.4454 193.561 90.4028 197.832 90.2793 197.807 90.0324 197.759 89.9089 197.736 89.774 197.153 90.0598 196.197 89.3579 195.925 87.1789 195.241 84.8673 195.237 82.6037 195.175 81.7189 195.141 80.8592 195.401 79.9835 195.497 79.3593 196.389 79.7457 197.418 80.0132 198.355 79.3501 197.852 78.0766 197.907 77.9622 196.897 77.6513 191.476 78.1406 186.041 77.9302 180.617 77.2169 181.214 76.675 182.033 76.5789 182.977 76.3206 185.126 77.0499 187.23 77.1231 189.372 77.3312 194.089 77.4592 198.824 77.1871 203.543 77.0362 206.171 76.6338 208.793 75.8221 211.297 74.8618 230.275 73.2659 249.237 73.2613 268.251 73.2773 271.845 73.9747 275.394 74.089 278.984 74.1484 282.205 73.7849 285.699 75.5294 288.584 76.1468 289.359 75.8496 290.601 74.9853 291.065 74.2102 291.591 72.9984 291.865 72.8452 292.945 73.2522 297.38 75.3854 301.375 77.3632 305.282 79.1718 308.829 80.5025 312.711 80.5276 316.728 80.1892 317.188 80.2052 317.885 79.6474 318.171 77.809 319.547 75.3237 319.717 73.1744 319.07 69.7219 318.013 66.7563 315.535 64.9432 312.43 64.4356 311.584 63.6856 310.884 63.3312 309.951 62.8991 308.536 63.2238 306.981 62.6224 305.605 61.781 303.679 60.1073 302.335 58.7401 300.803 58.0953 300.062 57.4391 299.239 57.3156 298.231 56.8926 295.832 57.4459 293.404 58.2485 291.145 58.724 289.625 59.4328 288.125 59.474 286.513 58.7309 284.396 58.7995 282.121 58.9047 279.914 59.099 276.935 59.4969 273.969 59.5289 270.983 59.4283 265.615 58.4885 260.317 57.8232 255.003 56.4445 243.653 54.2197 232.395 50.9638 221.428 48.9106 226.961 47.6599 232.751 46.5098 238.529 44.5755 248.56 43.183 258.716 40.3867 268.562 38.9097 274.036 37.2909 279.471 35.7681 284.931 34.5403 289.211 33.5045 293.566 31.7622 297.675 30.5207 300.652 28.8379 303.492 26.5331 305.774 26.8281 309.572 25.3282 313.497 22.4153 315.985 20.1723 317.967 16.9735 318.98 14.0332 318.201 12.8053 317.855 11.5638 317.33 10.6286 316.452 10.057 314.213 10.3314 311.828 11.0928 309.67 12.4326 305.737 15.2633 302.426 16.091 298.304 16.6077 295.981 15.6543 293.681 15.7846 291.353 15.9881 285.941 17.2891 280.662 18.1373 275.334 19.7424 265.99 21.3864 256.649 22.6051 247.248 22.9662 244.648 22.9502 242.002 23.4738 239.426 23.7962 237.821 24.5828 236.369 25.1224 234.834 25.8106 233.028 25.8655 231.066 25.8792 229.159 25.9203 225.169 25.1955 221.231 24.8137 217.271 24.3793 213.469 24.3656 209.598 25.1772 205.844 24.7291 204.074 22.8086 203.265 22.0677 201.657 21.5602 200.61 21.6676 199.405 21.7888 198.287 22.3101 194.587 23.5059 191.014 23.8968 187.294 24.6354 179.801 25.2344 172.267 26.8509 164.9 24.8251 168.952 24.5439 173.557 23.9654 177.974 23.5767 181.01 23.1857 184.086 22.1089 186.971 20.593 185.926 18.9147 184.767 16.9918 184.843 16.2259 184.854 15.4759 184.678 14.7145 184.637 13.6079 184.865 12.579 185.362 11.5364 185.785 10.5898 186.169 9.64317 186.617 8.92523 187.367 9.13101 181.685 9.54943 176.01 10.1942 170.36 10.5966 166.757 12.3252 163.457 12.7413 159.859 13.066 157.609 11.3626 155.69 11.4861 153.463 11.653 151.298 13.5461 149.727 13.6902 147.562 14.2527 142.635 12.4692 137.689 13.4821 132.785 14.4356 128.918 16.4271 125.415 17.6229 121.627 19.013 117.09 19.5321 112.332 20.936 107.801 23.4876 106.271 26.492 105.779 29.3363 105.025 32.0526 104.286 34.8306 103.799 37.5515 103.077 39.088 102.642 40.716 102.217 41.9163 101.099 43.2356 99.8941 44.356 98.273 46.2172 97.8797 45.5541 103.303 46.8345 108.692 48.1126 113.926 48.3641 114.603 48.0738 115.309 48.1904 116.004 48.73 119.782 48.9815 123.616 50.0767 127.29 50.1087 124.263 50.1384 121.234 50.1133 118.209 50.486 116.633 51.8235 115.543 52.5346 114.127 51.8418 113.549 51.0347 113.124 50.3396 112.547 51.0233 111.406 51.9173 110.409 52.6878 109.328 53.0536 108.868 53.3532 108.21 54.0414 108.228 52.2991 104.888 48.4396 103.187 47.0197 99.6243 45.6981 96.4644 47.804 93.1125 46.926 89.8886 46.5053 88.3978 45.6181 87.074 45.3392 85.5352 44.3926 85.5123 43.4666 85.1122 42.8721 84.36 41.5414 82.7251 41.3196 80.4798 41.5368 78.4541 41.5802 78.0219 41.8569 77.4755 42.3691 77.5326 42.9361 77.5966 43.4963 77.7178 44.0633 77.791 43.446 74.4711 43.4803 70.8905 44.9665 67.7923 46.3086 64.9274 49.1118 62.9405 52.1322 62.1722M74.9738 160.119C74.8938 161.409 74.855 162.703 74.9121 163.997 75.0859 168.625 75.6941 173.326 77.5072 177.622 77.0751 171.741 76.3526 165.86 74.9738 160.119Z" stroke="#000000" stroke-width="0.0214469" fill="#01919A" transform="matrix(1.38443 0 0 1 277.618 858.482)"/><path d="M218.627 67.9318C221.238 67.5454 223.92 67.7809 226.483 68.3731 228.933 69.1619 230.755 71.2403 231.832 73.5107 233.394 76.8352 233.808 80.5622 233.886 84.193 233.934 88.0411 233.522 91.8847 232.873 95.671 232.816 96.2609 232.244 96.5765 231.844 96.9286 229.791 98.4605 227.569 99.7432 225.459 101.188 225.356 101.671 225.059 102.069 224.812 102.485 223.086 105.27 221.407 108.086 219.679 110.869 216.763 107.412 213.867 103.939 210.976 100.463 211.361 99.7546 211.724 98.9407 211.525 98.1152 211.358 97.1092 210.691 96.2884 210.009 95.5704 209.774 95.2915 209.298 95.3875 209.134 95.6939 208.32 96.7479 207.993 98.0695 207.483 99.279 205.393 98.648 205.475 95.7213 203.374 95.1223 203.792 90.8215 204.382 86.5184 205.523 82.3433 206.564 78.6507 208.064 74.9626 210.693 72.1023 212.751 69.8524 215.602 68.3456 218.627 67.9318Z" stroke="#000000" stroke-width="0.0214469" fill="#01919A" transform="matrix(1.38443 0 0 1 277.618 858.482)"/><path d="M138.235 70.3166C140.41 69.1573 143.06 69.0567 145.36 69.8982 148.897 71.174 151.824 73.808 153.918 76.8833 155.258 78.9205 156.282 81.2641 156.339 83.7358 156.415 85.4003 155.381 86.8042 154.869 88.3224 153.561 92.1888 151.46 95.7282 149.085 99.0275 148.566 99.8049 147.928 100.507 147.491 101.337 147.39 102.146 147.626 103.013 147.255 103.779 146.974 104.705 146.14 105.267 145.538 105.974 145.214 106.374 144.722 106.555 144.274 106.769 141.965 105.048 139.674 103.299 137.25 101.746 136.173 101.115 135.258 100.267 134.282 99.5031 133.445 98.8469 132.832 97.9575 131.986 97.3127 131.801 96.9812 131.746 96.597 131.625 96.2426 130.77 93.4074 128.694 91.0638 128.184 88.1074 127.848 86.0885 127.958 83.9072 128.92 82.0621 129.73 80.457 130.686 78.9319 131.586 77.3771 133.271 74.6082 135.288 71.8348 138.235 70.3166Z" stroke="#000000" stroke-width="0.0214469" fill="#01919A" transform="matrix(1.38443 0 0 1 277.618 858.482)"/><path d="M388.036 69.5186C390.407 69.0933 392.945 69.0316 395.208 69.9622 396.953 70.6573 398.407 71.9445 399.511 73.4467 401.35 75.9092 402.507 78.7879 404.132 81.383 405.017 82.6908 406.433 83.5231 407.343 84.8104 407.832 85.5032 408.008 86.4818 407.578 87.2455 407.228 87.7942 406.684 88.2058 406.419 88.8071 405.998 89.9663 406.343 91.4091 407.395 92.1179 408.586 93.0439 410.388 93.5812 410.82 95.1817 410.342 99.8004 410.006 104.753 412.172 109.031 412.446 109.776 413.276 109.998 413.957 110.224 415.203 110.606 416.68 110.775 417.552 111.864 418.592 113.295 419.12 115.014 419.671 116.677 420.901 120.726 421.747 124.878 422.499 129.039 423.057 131.962 423.864 134.829 424.553 137.723 425.287 140.796 425.259 143.995 426.046 147.059 426.565 148.996 427.671 150.701 428.302 152.597 430.008 157.561 431.314 162.68 431.933 167.9 432.487 172.242 432.237 176.675 431.334 180.953 430.854 182.956 430.273 185.106 428.721 186.56 428.094 187.179 427.26 187.525 426.4 187.65 425.929 189.322 424.342 190.312 423.718 191.889 422.964 194.587 423.748 197.379 423.636 200.123 423.414 206.214 423.27 212.305 423.112 218.399 423.002 223.815 422.737 229.228 422.593 234.642 422.479 242.268 422.678 249.9 422.273 257.521 421.032 274.63 420.117 291.813 417.129 308.733 416.687 310.957 416.205 313.209 415.208 315.265 414.79 316.189 414.065 316.959 413.132 317.373 412.963 318.011 412.835 318.658 412.597 319.278 410.228 319.863 407.731 319.925 405.326 319.541 404.521 319.461 403.899 318.843 403.584 318.137 403.067 316.991 403.019 315.663 402.306 314.602 401.578 313.479 400.607 312.421 400.451 311.035 399.893 307.297 400.394 303.51 400.87 299.793 402.315 289.638 402.278 279.352 403.414 269.168 403.897 265.139 404.462 261.117 404.617 257.056 404.997 249.664 404.622 242.263 404.183 234.88 403.728 224.842 400.806 215.152 397.993 205.576 396.759 207.012 396.045 208.793 395.538 210.597 392.744 220.127 390.654 229.845 388.075 239.435 386.808 244.193 385.347 248.898 384.053 253.65 381.254 263.728 378.684 273.869 376.203 284.032 374.982 289.177 373.643 294.296 372.06 299.344 370.97 302.952 370.458 306.741 368.964 310.223 368.116 312.222 366.753 314.053 364.851 315.151 364.408 316.452 364.378 317.979 363.406 319.035 360.998 319.6 358.394 319.81 356.005 319.051 355.333 318.882 354.859 318.333 354.567 317.737 354.02 316.653 353.924 315.416 353.49 314.291 353.033 313.04 352.28 311.888 352.086 310.553 351.898 309.071 352.488 307.658 352.776 306.231 353.309 303.805 352.9 301.286 353.401 298.855 354.212 294.326 355.506 289.901 356.613 285.44 357.964 279.964 359.041 274.427 360.251 268.921 361.25 264.17 362.622 259.512 363.745 254.791 364.977 249.781 365.375 244.577 367.06 239.679 367.705 237.798 368.679 236.019 369.033 234.048 369.307 231.83 368.219 229.781 367.556 227.732 366.164 223.298 364.62 218.915 363.248 214.477 362.684 212.666 361.943 210.892 361.696 209.001 361.495 207.433 361.753 205.825 362.393 204.383 361.648 203.223 360.857 201.996 360.82 200.571 360.768 198.788 361.28 197.057 361.527 195.303 362.428 189.788 364.071 184.273 363.509 178.635 363.324 176.042 363.022 173.454 363.013 170.852 362.992 158.5 363.143 146.14 363.946 133.811 364.17 130.011 364.213 126.197 364.666 122.413 364.899 120.625 365.153 118.803 365.905 117.148 366.488 115.833 367.844 115.136 369.095 114.585 371.102 113.679 373.313 113.156 375.131 111.873 375.474 110.615 375.307 109.278 375.124 108.004 374.612 105 373.16 102.267 372.431 99.3225 371.852 97.1321 371.756 94.809 372.248 92.5935 372.851 89.2118 375.792 86.9254 376.818 83.7129 377.216 82.4028 377.717 81.1269 378.284 79.8808 379.523 77.0959 380.863 74.2516 383.083 72.1 384.43 70.7716 386.168 69.8387 388.036 69.5186M383.968 110.3C384.069 112.042 384.348 113.768 384.345 115.517 384.375 118.51 384.855 121.471 385.098 124.451 385.372 127.574 385.802 130.686 386.17 133.8 386.771 135.087 387.512 136.31 388.148 137.584 389.401 140.136 391.072 142.447 392.526 144.882 393.363 146.33 394.371 147.665 395.291 149.062 395.576 147.555 395.721 146.023 396.068 144.53 396.676 142.639 397.218 140.728 397.803 138.83 398.229 137.396 398.887 136.015 399.031 134.511 399.395 132.142 399.678 129.746 400.435 127.462 400.95 125.886 401.165 124.238 401.375 122.601 401.423 120.694 401.318 118.782 401.48 116.878 401.709 114.61 401.098 112.38 400.888 110.133 400.033 111.285 399.189 112.449 398.039 113.327 396.086 113.981 394.024 114.171 391.987 114.342 390.837 114.248 389.696 114.054 388.566 113.837 387.8 113.501 387.069 113.082 386.355 112.655 385.516 111.914 384.771 111.077 383.968 110.3M412.217 138.713C411.739 140.245 411.749 141.855 411.65 143.44 411.3 144.935 411.177 146.469 411.044 147.996 411.099 149.243 411.271 150.496 411.593 151.705 412.288 153.52 413.148 155.27 413.996 157.019 415.99 160.794 417.231 164.898 418.875 168.826 420.016 171.538 420.67 174.435 421.996 177.073 422.598 176.536 423.133 175.928 423.652 175.31 424.04 174.307 424.351 173.186 424.018 172.123 423.407 168.41 421.621 165.058 420.133 161.644 419.015 158.56 418.587 155.279 417.542 152.174 417.199 150.967 416.523 149.887 416.244 148.66 415.88 147.242 415.135 145.95 414.867 144.505 414.563 143.344 414.392 142.145 414.024 141.002 413.633 140.209 413.248 139.409 413.059 138.54 412.773 138.595 412.492 138.654 412.217 138.713M375.005 145.09C374.877 146.734 374.813 148.383 374.731 150.029 374.537 155.222 374.168 160.407 373.867 165.595 373.553 171.471 372.685 177.306 372.44 183.187 372.305 186.391 372.102 189.589 371.937 192.793 371.96 195.539 372.012 198.33 371.274 201.001 370.935 202.377 371.34 203.978 370.414 205.165 370.535 205.576 370.602 206.015 370.814 206.397 371.219 206.76 371.681 207.055 372.117 207.387 372.143 206.095 372.042 204.792 372.268 203.514 372.714 200.317 373.087 197.103 373.807 193.956 374.171 193.129 374.733 192.408 375.181 191.626 374.774 191.622 374.381 191.624 373.986 191.629 374.331 189.198 374.69 186.77 375.024 184.34 375.522 181.397 375.545 178.406 375.799 175.441 376.098 169.848 376.588 164.258 377.635 158.75 377.763 157.071 377.77 155.359 377.374 153.713 376.684 150.809 375.581 148.024 375.005 145.09M392.744 187.429C395.083 187.367 397.424 187.33 399.763 187.218 402.113 187.01 404.468 186.8 406.819 186.567 403.677 180.087 400.614 173.568 397.47 167.086 395.942 173.879 394.31 180.647 392.744 187.429Z" stroke="#000000" stroke-width="0.0214469" fill="#01919A" transform="matrix(1.38443 0 0 1 277.618 858.482)"/><path d="M295.96 94.7907C298.384 93.3549 300.869 92.0264 303.341 90.6751 304.258 92.9387 305.102 95.2366 306.217 97.4133 307.283 99.4208 307.852 101.634 308.682 103.738 309.009 104.465 309.407 105.158 309.727 105.889 310.296 104.158 310.845 102.421 311.371 100.676 310.978 100.413 310.569 100.173 310.223 99.8552 310.001 99.4802 309.86 99.071 309.695 98.6731 310.813 97.8043 311.961 96.9766 313.09 96.1192 313.868 96.8645 314.659 97.5985 315.457 98.3256 315.462 98.8378 315.459 99.3499 315.464 99.8621 315.013 99.9741 314.565 100.086 314.117 100.191 314.757 102.283 315.201 104.43 315.603 106.58 315.697 108.265 315.574 109.957 315.69 111.644 316.225 108.489 316.927 105.366 317.755 102.277 318.233 100.088 318.964 97.9758 319.723 95.8722 320.183 94.3792 320.949 92.9501 321.006 91.3588 325.042 92.7832 328.094 95.966 331.919 97.7951 335.415 99.3568 339.332 100.077 342.467 102.386 343.679 103.262 344.632 104.499 345.067 105.939 346.93 111.443 347.058 117.312 347.294 123.06 347.492 130.228 347.497 137.406 347.065 144.564 346.887 146.643 346.884 148.785 346.109 150.754 344.74 154.424 342.058 157.355 339.753 160.451 337.498 163.499 335.159 166.489 333.088 169.667 333.707 171.718 335.598 172.916 336.915 174.483 337.416 175.079 337.878 175.896 337.649 176.694 336.403 178.438 336.213 180.665 336.195 182.746 336.122 186.74 336.721 190.71 337.478 194.619 338.424 198.911 338.765 203.301 339.481 207.632 341.157 219.256 342.149 230.963 343.242 242.654 343.512 245.629 344.426 248.544 344.255 251.555 343.722 263.072 342.044 274.534 342.179 286.083 342.254 290.292 342.515 294.513 343.281 298.658 343.377 298.995 343.249 299.326 343.13 299.642 342.554 299.841 341.918 299.914 341.394 300.229 341.09 300.387 341.344 300.735 341.44 300.945 343.663 304.969 347.04 308.154 349.813 311.778 351.407 313.875 352.824 316.214 353.282 318.848 349.509 320.526 345.151 320.05 341.383 318.617 339.369 317.839 337.416 316.879 335.605 315.708 334.453 314.074 334.528 311.952 334.007 310.12 331.602 308.92 328.721 308.298 326.976 306.094 327.872 294.771 325.394 283.502 326.064 272.179 326.338 269.422 326.988 266.701 326.985 263.918 326.956 259.626 326.107 255.394 325.97 251.112 325.872 247.959 326.889 244.849 326.485 241.698 326.132 239.789 324.436 238.589 323.585 236.933 322.646 235.093 323.158 232.864 322.186 231.037 321.516 229.679 320.217 228.695 319.792 227.211 318.994 224.567 319.365 221.762 318.816 219.078 317.27 210.732 313.125 203.235 309.729 195.552 307.4 200.875 307.843 206.82 308.209 212.47 308.941 223.093 306.069 233.49 305.385 244.033 305.109 247.296 305.216 250.572 305.145 253.842 305.044 259.4 304.953 264.963 305.067 270.521 305.257 277.029 305.66 283.579 307.191 289.926 307.363 290.699 307.651 291.447 307.765 292.236 307.861 292.565 307.656 292.828 307.429 293.038 306.848 292.849 306.268 292.647 305.673 292.528 305.98 297.227 308.447 301.4 309.373 305.961 309.725 307.667 309.745 309.46 309.279 311.145 306.99 312.453 304.233 313.12 301.622 312.53 299.326 312.041 297.328 310.532 296.045 308.588 295.766 308.143 295.382 307.713 295.368 307.164 295.149 304.468 294.577 301.818 294.204 299.145 293.969 297.545 294.042 295.794 295.034 294.447 294.401 294.209 293.548 294.321 293.128 293.706 291.538 291.682 291.008 289.071 290.841 286.563 290.665 283.431 290.834 280.287 290.505 277.166 289.064 265.704 288.413 254.164 287.903 242.631 287.443 233.271 287.254 223.897 286.691 214.544 285.749 203.267 283.303 192.049 284.08 180.681 284.201 177.816 284.556 174.947 285.429 172.208 285.724 171.005 286.218 169.834 286.316 168.595 285.178 166.876 283.662 165.453 282.244 163.972 279.69 161.4 277.136 158.772 275.231 155.667 273.496 152.876 272.399 149.684 272.129 146.405 271.738 141.213 272.339 136.015 272.792 130.848 273.343 125.589 273.583 120.292 274.461 115.069 274.895 112.618 275.41 110.11 276.693 107.94 278.247 105.345 280.724 103.477 283.282 101.94 285.694 100.502 288.237 99.3042 290.695 97.9506 292.499 96.9812 294.184 95.8082 295.96 94.7907M310.354 153.283C309.908 156.138 309.078 158.919 308.511 161.754 311.531 162.314 314.606 162.033 317.659 162.09 317.352 160.54 316.973 159.008 316.676 157.46 316.504 156.134 316.438 154.796 316.308 153.466 315.235 154.483 314.161 155.496 313.086 156.507 312.164 155.441 311.266 154.355 310.354 153.283Z" stroke="#000000" stroke-width="0.0214469" fill="#01919A" transform="matrix(1.38443 0 0 1 277.618 858.482)"/><path d="M122.141 104.785C125.429 103.562 128.925 102.334 131.351 99.67 131.657 101.129 132.752 102.256 133.427 103.559 134.762 105.409 135.992 107.339 136.989 109.397 138.629 112.945 140.151 116.553 141.443 120.244 142.157 122.31 143.119 124.279 143.837 126.344 143.874 122.432 143.689 118.52 143.691 114.605 143.636 114.228 143.778 113.734 143.451 113.455 142.433 112.566 141.272 111.827 140.444 110.741 141.674 109.504 142.92 108.281 144.144 107.035 144.962 107.238 145.765 107.524 146.528 107.888 147.107 108.434 147.635 109.038 148.147 109.65 148.399 110.165 148.412 110.773 148.467 111.34 148.321 111.692 148.111 112.015 147.918 112.346 149.251 116.562 150.422 120.829 151.703 125.061 152.283 127.556 152.777 130.071 153.298 132.579 153.939 137.634 154.492 142.701 155.123 147.759 155.868 152.091 156.545 156.433 157.151 160.787 157.389 162.024 157.437 163.281 157.478 164.539 157.782 164.45 158.089 164.358 158.397 164.276 158.432 162.655 158.505 161.036 158.566 159.417 158.31 153.932 158.022 148.447 157.736 142.962 157.538 140.069 157.544 137.175 157.538 134.278 157.348 132.535 157.394 130.752 156.877 129.065 155.66 124.464 154.524 119.837 153.042 115.314 152.148 113.16 151.648 110.816 150.326 108.864 149.867 108.089 149.405 107.316 148.934 106.552 148.421 105.802 148.582 104.842 148.476 103.989 149.071 105.059 149.997 105.898 151.026 106.541 153.2 107.913 155.699 108.653 157.903 109.968 159.122 110.695 160.437 111.347 161.402 112.412 162.497 113.894 162.783 115.792 162.952 117.58 163.311 123.557 161.845 129.444 161.79 135.407 161.873 139.866 162.271 144.334 163.215 148.694 164.104 152.967 166.274 156.806 168.286 160.631 169.898 163.709 171.563 166.871 172.02 170.365 172.37 173.511 172.228 176.838 170.813 179.728 169.841 181.758 168.17 183.402 166.183 184.44 165.785 186.473 165.353 188.634 163.985 190.264 163.615 190.714 163.059 191.187 162.433 191.027 161.662 190.602 161.28 189.619 160.334 189.484 159.216 191.565 159.316 194.014 159.769 196.263 160.176 198.644 160.844 201.195 159.854 203.527 159.191 205.064 159.083 206.742 158.907 208.386 158.375 214.146 158.608 219.935 158.633 225.711 158.736 231.519 158.39 237.318 158.134 243.118 157.947 245.949 157.798 248.793 157.293 251.59 156.703 254.912 155.994 258.234 155.894 261.618 155.747 266.621 156.918 271.525 157.677 276.439 158.173 279.553 158.617 282.69 158.637 285.852 158.713 288.902 158.498 291.959 158.729 295.005 158.917 297.092 159.339 299.315 160.801 300.913 161.319 301.427 161.884 302.008 162.648 302.111 165.177 302.605 167.758 303.348 169.816 304.964 171.167 306.003 172.105 307.466 172.802 309.002 172.192 310.102 170.877 310.452 169.759 310.802 166.032 311.776 162.115 311.831 158.299 311.472 155.384 311.078 152.213 310.468 150.077 308.273 148.486 308.934 146.741 309.185 145.028 308.993 143.035 308.785 141.094 308.255 139.129 307.877 140.005 302.644 140.124 297.303 139.692 292.021 139.086 283.598 137.179 275.343 136.21 266.966 134.749 266.968 133.287 266.961 131.826 266.971 132.896 274.781 134.957 282.5 134.915 290.434 134.904 293.834 134.506 297.385 132.759 300.373 132.485 300.89 132.007 301.295 131.813 301.853 131.875 303.035 132.643 304.073 132.563 305.282 132.465 308.133 131.413 310.875 131.467 313.744 130.105 315.427 127.919 316.168 125.836 316.431 123.138 316.758 120.244 316.36 117.941 314.84 117.71 312.75 117.067 310.605 117.674 308.522 118.135 306.869 119.727 305.701 119.786 303.913 119.816 302.191 119.139 300.572 118.778 298.914 118.181 296.425 118.371 293.811 117.648 291.346 116.777 288.26 115.204 285.392 114.628 282.217 113.638 276.576 114.772 270.768 113.537 265.148 104.895 265.139 96.2495 265.146 87.6044 265.146 87.6044 248.585 87.6044 232.024 87.6044 215.465 92.831 215.463 98.0556 215.454 103.28 215.47 104.469 212.607 106.627 210.222 107.481 207.215 107.992 205.501 107.821 203.678 107.373 201.975 107.574 193.812 107.739 185.647 107.716 177.483 107.718 171.005 107.647 164.521 107.222 158.055 106.667 146.698 107.078 135.284 108.587 124.012 108.992 120.829 109.287 117.607 110.233 114.527 110.837 112.552 111.813 110.627 113.377 109.237 115.908 107.09 119.077 105.942 122.141 104.785M107.389 211.375C107.432 212.399 106.906 213.284 106.504 214.187 106.147 214.923 106.243 215.758 106.264 216.551 108.253 216.261 110.263 216.693 112.261 216.498 112.323 215.264 112.28 214.027 112.296 212.792 111.655 212.746 111.075 212.499 110.661 212.003 110.219 212.266 109.716 212.785 109.17 212.472 108.409 212.271 108.322 211.025 107.389 211.375Z" stroke="#000000" stroke-width="0.0214469" fill="#01919A" transform="matrix(1.38443 0 0 1 277.618 858.482)"/><path d="M203.799 104.938C205.985 104.227 208.048 103.127 209.849 101.696 209.98 105.848 210.309 109.998 210.224 114.155 210.183 117.509 210.195 120.863 210.131 124.215 209.948 127.277 210.025 130.359 209.55 133.395 209.056 136.736 208.836 140.11 208.297 143.444 207.794 147.368 207.348 151.314 207.487 155.277 214.58 153.338 221.675 151.406 228.773 149.483 228.532 144.032 228.431 138.569 227.905 133.135 227.576 129.634 227.473 126.12 227.215 122.615 226.936 119.459 227.137 116.288 227.05 113.126 226.97 111.402 226.856 109.682 226.801 107.961 226.719 106.248 226.929 104.51 226.52 102.825 228.189 104.769 230.598 105.855 232.964 106.694 236.821 108.038 240.843 109.019 244.486 110.903 250.311 117.66 256.114 124.446 262.002 131.152 264.481 133.775 267.366 136.091 269.211 139.242 270.245 141 270.851 143.11 270.412 145.143 269.984 146.711 268.957 148.022 267.908 149.229 266.248 151.072 264.362 152.688 262.576 154.403 259.416 157.577 256.787 161.331 253.076 163.919 252.264 164.438 251.457 165.092 250.455 165.152 249.461 165.3 248.398 165.165 247.559 164.589 246.626 163.963 246.02 162.986 245.197 162.241 245.88 166.578 249.038 169.862 250.705 173.794 250.97 174.378 251.176 174.995 251.224 175.64 252.939 191.071 256.055 206.315 257.518 221.776 255.467 221.945 253.455 222.503 251.635 223.468 248.885 224.892 246.271 226.772 243.146 227.279 244.259 229.075 244.858 231.146 245.098 233.234 245.446 236.062 245.364 238.936 245.876 241.746 246.774 246.253 249.415 250.147 250.632 254.551 252.774 262.443 252.55 270.702 253.801 278.739 254.258 281.336 254.701 283.989 255.865 286.382 257.708 290.281 260.626 293.69 261.659 297.95 263.349 304.621 263.376 311.552 263.671 318.386 262.304 319.744 260.319 320.275 258.433 320.21 256.028 320.158 253.48 319.216 252.061 317.186 251.034 315.727 250.997 313.859 251.098 312.148 251.345 308.934 251.96 305.758 252.147 302.539 252.447 298.329 251.249 294.182 249.66 290.331 247.531 285.235 244.506 280.582 242.201 275.572 240.315 271.617 239.364 267.201 236.808 263.582 236.62 263.383 236.508 263.047 236.213 263.013 234.29 266.936 231.867 270.592 229.919 274.504 227.832 278.611 226.22 283.031 225.813 287.647 225.159 293.813 225.882 300.049 225.022 306.199 224.7 308.714 224.053 311.206 222.955 313.5 222.768 313.882 222.592 314.318 222.178 314.51 220.111 315.676 217.573 315.795 215.309 315.196 213.855 314.762 212.387 313.92 211.715 312.498 211.525 312.199 211.681 311.86 211.736 311.556 214.276 301.427 217.367 291.445 219.898 281.313 223.739 266.241 226.104 250.664 225.303 235.077 225.319 234.478 224.567 234.507 224.153 234.537 222.178 234.83 220.422 235.918 218.442 236.209 212.346 219.935 206.646 203.495 201.977 186.752 201.691 186.612 201.394 186.443 201.067 186.484 199.455 186.546 197.864 187.209 196.247 186.884 195.785 186.765 195.15 186.523 195.145 185.961 194.704 178.987 195.694 172.034 195.81 165.067 194.333 170.856 193.469 176.797 193.197 182.764 192.941 189.221 193.291 195.891 195.785 201.932 195.36 202.569 194.274 202.828 193.73 202.188 192.813 201.211 192.477 199.538 191.016 199.19 189.669 202.478 190.725 206.278 189.059 209.47 187.344 209.335 186.155 207.799 185.83 206.207 185.002 202.345 185.94 198.392 185.56 194.498 185.524 194.155 185.192 193.956 184.913 193.833 184.006 193.479 182.983 193.616 182.083 193.245 181.65 193.06 181.394 192.585 181.456 192.125 181.73 186.242 182.167 180.37 182.599 174.499 183.749 160.48 184.483 146.428 185.933 132.433 186.422 127.844 186.973 123.257 187.78 118.712 188.363 115.723 188.928 112.694 190.163 109.893 190.645 108.884 191.251 107.689 192.445 107.423 196.208 106.504 200.1 106.127 203.799 104.938M243.399 133.199C242.908 133.809 242.666 134.57 242.318 135.265 241.868 136.228 241.147 137.033 240.674 137.982 240.16 139.15 239.817 140.396 239.128 141.482 238.321 142.655 238.161 144.322 238.893 145.568 239.064 145.913 239.204 146.284 239.428 146.606 240.841 147.887 242.531 148.797 244.186 149.716 245.359 150.608 246.644 151.348 247.741 152.336 249.312 151.273 250.659 149.926 252.182 148.797 253.183 148.044 254.034 147.098 255.136 146.483 256.144 145.824 257.438 145.301 257.88 144.08 258.17 142.969 257.694 141.876 257.377 140.831 256.517 139.939 255.643 139.056 254.775 138.176 253.288 137.184 251.676 136.393 250.149 135.464 248.446 134.502 246.802 133.386 244.938 132.75 244.412 132.732 243.74 132.728 243.399 133.199Z" stroke="#000000" stroke-width="0.0214469" fill="#01919A" transform="matrix(1.38443 0 0 1 277.618 858.482)"/><path d="M9.15616 191.617C10.7864 190.033 13.1963 189.694 15.373 189.848 16.7678 189.909 18.1876 190.351 19.18 191.37 17.4468 194.098 18.2288 197.59 16.8181 200.436 16.4454 201.216 15.7457 201.771 14.9592 202.103 14.7671 201.134 14.1566 200.233 14.2801 199.22 14.3921 198.532 15.1695 198.365 15.716 198.168 14.6345 197.619 14.8974 196.211 14.8723 195.216 13.5896 195.799 12.5081 197.032 12.6338 198.52 12.97 202.092 15.7137 204.78 16.6557 208.151 15.1078 208.654 13.5096 208.004 12.1857 207.218 10.8481 206.397 9.59516 205.389 8.64857 204.129 7.94891 203.246 7.92605 202.073 7.60595 201.035 7.30642 199.666 6.79197 198.317 6.77368 196.904 6.86742 194.841 9.27505 193.73 9.15616 191.617Z" stroke="#000000" stroke-width="0.0214469" fill="#01919A" transform="matrix(1.38443 0 0 1 277.618 858.482)"/><path d="M82.6426 199.201C84.6341 199.476 86.6805 199.343 88.6377 199.855 89.1521 201.497 90.2679 202.94 90.4165 204.691 90.5812 207.357 89.7855 210.122 88.0478 212.177 86.3421 214.287 83.6486 215.314 81.0124 215.584 79.988 215.643 78.8197 215.691 77.992 214.976 77.5804 214.13 77.5804 212.954 78.3418 212.303 79.4713 211.263 81.0855 211.004 82.2562 210.023 83.1662 209.298 83.4612 208.084 83.5686 206.98 83.596 204.945 82.2608 203.297 81.3279 201.602 81.2456 201.38 80.9964 201.163 81.1015 200.919 81.4742 200.235 82.0436 199.686 82.6426 199.201Z" stroke="#000000" stroke-width="0.0214469" fill="#01919A" transform="matrix(1.38443 0 0 1 277.618 858.482)"/></g></g></g><path d="M0.0116729-1.14577 101.364-0.113222 101.34 2.17833-0.0116729 1.14577ZM96.909-12.7634 124.268 1.26601 96.6289 14.7351Z" fill="#79787A" transform="matrix(1 0 0 -1 1712 1422.27)"/><path d="M2259 1005.5C2259 966.564 2292.58 935 2334 935 2375.42 935 2409 966.564 2409 1005.5 2409 1044.44 2375.42 1076 2334 1076 2292.58 1076 2259 1044.44 2259 1005.5Z" fill="#204497" fill-rule="evenodd"/><text font-family="Latha,Latha_MSFontService,sans-serif" font-weight="400" font-size="46" transform="translate(2178.17 1138)">செயற்பாட்டு<tspan font-size="46" x="55" y="56">அடைவு</tspan></text><g clip-path="url(#clip4)"><g clip-path="url(#clip5)"><g clip-path="url(#clip6)"><path d="M2371.3 1027.65 2355.85 1012.96C2362.46 1010.45 2365.78 1003.05 2363.27 996.439 2361.68 992.265 2358.03 989.22 2353.64 988.403L2339.12 973.57C2345.61 970.738 2348.57 963.182 2345.74 956.694 2342.91 950.206 2335.35 947.243 2328.86 950.075 2322.38 952.908 2319.41 960.463 2322.25 966.951 2323.54 969.913 2325.9 972.277 2328.86 973.57L2314.37 988.403C2307.42 989.687 2302.82 996.366 2304.1 1003.32 2304.92 1007.71 2307.96 1011.37 2312.13 1012.96L2296.7 1027.65C2289.77 1029.15 2285.36 1035.98 2286.86 1042.92 2288.36 1049.85 2295.19 1054.26 2302.13 1052.76 2309.06 1051.26 2313.47 1044.43 2311.97 1037.49 2311.03 1033.16 2307.93 1029.62 2303.76 1028.12L2316.15 1016.34 2328.8 1028.43C2322.31 1031.27 2319.35 1038.82 2322.19 1045.31 2325.03 1051.8 2332.58 1054.76 2339.07 1051.92 2345.56 1049.08 2348.52 1041.53 2345.68 1035.04 2344.39 1032.08 2342.03 1029.72 2339.07 1028.43L2351.78 1016.33 2364.17 1028.1C2357.52 1030.5 2354.07 1037.84 2356.47 1044.49 2358.87 1051.15 2366.21 1054.6 2372.86 1052.2 2379.51 1049.8 2382.96 1042.46 2380.56 1035.81 2379.07 1031.66 2375.54 1028.57 2371.23 1027.64ZM2321.09 988.962 2334 975.767 2346.91 988.962C2340.26 991.362 2336.81 998.701 2339.21 1005.35 2340.58 1009.15 2343.67 1012.08 2347.53 1013.26L2334 1026.14 2320.45 1013.26C2327.22 1011.21 2331.04 1004.06 2328.99 997.29 2327.82 993.422 2324.89 990.336 2321.09 988.962ZM2358.91 1001C2358.91 1005.21 2355.5 1008.62 2351.29 1008.62 2347.08 1008.62 2343.67 1005.21 2343.67 1001 2343.67 996.793 2347.08 993.382 2351.29 993.382 2355.49 993.389 2358.9 996.796 2358.91 1001ZM2326.41 961.831C2326.41 957.624 2329.82 954.213 2334.03 954.213 2338.23 954.213 2341.64 957.624 2341.64 961.831 2341.64 966.039 2338.23 969.449 2334.03 969.449 2334.02 969.449 2334.01 969.449 2334 969.449 2329.8 969.442 2326.39 966.035 2326.38 961.831ZM2309.09 1001C2309.09 996.793 2312.5 993.382 2316.71 993.382 2320.92 993.382 2324.33 996.793 2324.33 1001 2324.33 1005.21 2320.92 1008.62 2316.71 1008.62 2312.51 1008.61 2309.1 1005.2 2309.09 1001ZM2307.06 1040.17C2307.06 1044.38 2303.65 1047.79 2299.45 1047.79 2295.24 1047.79 2291.83 1044.38 2291.83 1040.17 2291.83 1035.96 2295.24 1032.55 2299.45 1032.55 2303.65 1032.56 2307.06 1035.96 2307.06 1040.17ZM2341.63 1040.17C2341.63 1044.38 2338.22 1047.79 2334.01 1047.79 2329.81 1047.79 2326.4 1044.38 2326.4 1040.17 2326.4 1035.97 2329.8 1032.56 2334 1032.55 2338.2 1032.56 2341.61 1035.96 2341.62 1040.17ZM2368.57 1047.8C2364.36 1047.8 2360.95 1044.39 2360.95 1040.18 2360.95 1035.97 2364.36 1032.56 2368.57 1032.56 2372.77 1032.56 2376.19 1035.97 2376.19 1040.18 2376.18 1044.39 2372.77 1047.79 2368.57 1047.8Z" fill="#FFFFFF"/></g></g></g><g clip-path="url(#clip7)"><g clip-path="url(#clip8)"><g clip-path="url(#clip9)"><path d="M45.1973 36.7453 8.125 36.7453C7.00375 36.7453 6.09375 35.8353 6.09375 34.714L6.09375 19.3883C6.09375 18.267 7.00375 17.357 8.125 17.357L45.1973 17.357C46.3186 17.357 47.2286 18.267 47.2286 19.3883L47.2286 34.714C47.2286 35.8353 46.3186 36.7453 45.1973 36.7453ZM10.1562 32.6828 43.1661 32.6828 43.1661 21.4195 10.1562 21.4195 10.1562 32.6828Z" fill="#204497" transform="matrix(1 0 0 1 2767 1357)"/><path d="M45.1973 21.4195 8.125 21.4195C7.00375 21.4195 6.09375 20.5095 6.09375 19.3883L6.09375 4.0625C6.09375 2.94125 7.00375 2.03125 8.125 2.03125L45.1973 2.03125C46.3186 2.03125 47.2286 2.94125 47.2286 4.0625L47.2286 19.3883C47.2286 20.5095 46.3186 21.4195 45.1973 21.4195ZM10.1562 17.357 43.1661 17.357 43.1661 6.09375 10.1562 6.09375 10.1562 17.357Z" fill="#204497" transform="matrix(1 0 0 1 2767 1357)"/><path d="M84.8026 36.7453 45.1973 36.7453C44.0761 36.7453 43.1661 35.8353 43.1661 34.714L43.1661 19.3883C43.1661 18.267 44.0761 17.357 45.1973 17.357L84.8026 17.357C85.9239 17.357 86.8339 18.267 86.8339 19.3883L86.8339 34.714C86.8339 35.8353 85.9249 36.7453 84.8026 36.7453ZM47.2286 32.6828 82.7714 32.6828 82.7714 21.4195 47.2286 21.4195 47.2286 32.6828Z" fill="#204497" transform="matrix(1 0 0 1 2767 1357)"/><path d="M84.8026 21.4195 45.1973 21.4195C44.0761 21.4195 43.1661 20.5095 43.1661 19.3883L43.1661 4.0625C43.1661 2.94125 44.0761 2.03125 45.1973 2.03125L84.8026 2.03125C85.9239 2.03125 86.8339 2.94125 86.8339 4.0625L86.8339 19.3883C86.8339 20.5095 85.9249 21.4195 84.8026 21.4195ZM47.2286 17.357 82.7714 17.357 82.7714 6.09375 47.2286 6.09375 47.2286 17.357Z" fill="#204497" transform="matrix(1 0 0 1 2767 1357)"/><path d="M45.1973 52.0711 8.125 52.0711C7.00375 52.0711 6.09375 51.1611 6.09375 50.0398L6.09375 34.714C6.09375 33.5928 7.00375 32.6828 8.125 32.6828L45.1973 32.6828C46.3186 32.6828 47.2286 33.5928 47.2286 34.714L47.2286 50.0398C47.2286 51.1611 46.3186 52.0711 45.1973 52.0711ZM10.1562 48.0086 43.1661 48.0086 43.1661 36.7453 10.1562 36.7453 10.1562 48.0086Z" fill="#204497" transform="matrix(1 0 0 1 2767 1357)"/><path d="M45.1973 82.7216 8.125 82.7216C7.00375 82.7216 6.09375 81.8116 6.09375 80.6904L6.09375 65.3646C6.09375 64.2433 7.00375 63.3333 8.125 63.3333L45.1973 63.3333C46.3186 63.3333 47.2286 64.2433 47.2286 65.3646L47.2286 80.6904C47.2286 81.8116 46.3186 82.7216 45.1973 82.7216ZM10.1562 78.6591 43.1661 78.6591 43.1661 67.3958 10.1562 67.3958 10.1562 78.6591Z" fill="#204497" transform="matrix(1 0 0 1 2767 1357)"/><path d="M45.1973 67.3958 8.125 67.3958C7.00375 67.3958 6.09375 66.4858 6.09375 65.3646L6.09375 50.0398C6.09375 48.9186 7.00375 48.0086 8.125 48.0086L45.1973 48.0086C46.3186 48.0086 47.2286 48.9186 47.2286 50.0398L47.2286 65.3646C47.2286 66.4858 46.3186 67.3958 45.1973 67.3958ZM10.1562 63.3333 43.1661 63.3333 43.1661 52.0711 10.1562 52.0711 10.1562 63.3333Z" fill="#204497" transform="matrix(1 0 0 1 2767 1357)"/><path d="M84.8026 52.0711 45.1973 52.0711C44.0761 52.0711 43.1661 51.1611 43.1661 50.0398L43.1661 34.714C43.1661 33.5928 44.0761 32.6828 45.1973 32.6828L84.8026 32.6828C85.9239 32.6828 86.8339 33.5928 86.8339 34.714L86.8339 50.0398C86.8339 51.1611 85.9249 52.0711 84.8026 52.0711ZM47.2286 48.0086 82.7714 48.0086 82.7714 36.7453 47.2286 36.7453 47.2286 48.0086Z" fill="#204497" transform="matrix(1 0 0 1 2767 1357)"/><path d="M84.8026 98.0474 45.1973 98.0474C44.0761 98.0474 43.1661 97.1374 43.1661 96.0161L43.1661 80.6904C43.1661 79.5691 44.0761 78.6591 45.1973 78.6591L84.8026 78.6591C85.9239 78.6591 86.8339 79.5691 86.8339 80.6904L86.8339 96.0161C86.8339 97.1374 85.9249 98.0474 84.8026 98.0474ZM47.2286 93.9849 82.7714 93.9849 82.7714 82.7216 47.2286 82.7216 47.2286 93.9849Z" fill="#204497" transform="matrix(1 0 0 1 2767 1357)"/><path d="M84.8026 113.372 45.1973 113.372C44.0761 113.372 43.1661 112.462 43.1661 111.341L43.1661 96.0151C43.1661 94.8939 44.0761 93.9839 45.1973 93.9839L84.8026 93.9839C85.9239 93.9839 86.8339 94.8939 86.8339 96.0151L86.8339 111.341C86.8339 112.463 85.9249 113.372 84.8026 113.372ZM47.2286 109.31 82.7714 109.31 82.7714 98.0464 47.2286 98.0464 47.2286 109.31Z" fill="#204497" transform="matrix(1 0 0 1 2767 1357)"/><path d="M84.8026 67.3958 45.1973 67.3958C44.0761 67.3958 43.1661 66.4858 43.1661 65.3646L43.1661 50.0398C43.1661 48.9186 44.0761 48.0086 45.1973 48.0086L84.8026 48.0086C85.9239 48.0086 86.8339 48.9186 86.8339 50.0398L86.8339 65.3646C86.8339 66.4858 85.9249 67.3958 84.8026 67.3958ZM47.2286 63.3333 82.7714 63.3333 82.7714 52.0711 47.2286 52.0711 47.2286 63.3333Z" fill="#204497" transform="matrix(1 0 0 1 2767 1357)"/><path d="M84.8026 82.7216 45.1973 82.7216C44.0761 82.7216 43.1661 81.8116 43.1661 80.6904L43.1661 65.3646C43.1661 64.2433 44.0761 63.3333 45.1973 63.3333L84.8026 63.3333C85.9239 63.3333 86.8339 64.2433 86.8339 65.3646L86.8339 80.6904C86.8339 81.8116 85.9249 82.7216 84.8026 82.7216ZM47.2286 78.6591 82.7714 78.6591 82.7714 67.3958 47.2286 67.3958 47.2286 78.6591Z" fill="#204497" transform="matrix(1 0 0 1 2767 1357)"/><path d="M121.875 36.7453 84.8026 36.7453C83.6814 36.7453 82.7714 35.8353 82.7714 34.714L82.7714 19.3883C82.7714 18.267 83.6814 17.357 84.8026 17.357L121.875 17.357C122.996 17.357 123.906 18.267 123.906 19.3883L123.906 34.714C123.906 35.8353 122.996 36.7453 121.875 36.7453ZM86.8339 32.6828 119.844 32.6828 119.844 21.4195 86.8339 21.4195 86.8339 32.6828Z" fill="#204497" transform="matrix(1 0 0 1 2767 1357)"/><path d="M121.875 67.3958 84.8026 67.3958C83.6814 67.3958 82.7714 66.4858 82.7714 65.3646L82.7714 50.0398C82.7714 48.9186 83.6814 48.0086 84.8026 48.0086L121.875 48.0086C122.996 48.0086 123.906 48.9186 123.906 50.0398L123.906 65.3646C123.906 66.4858 122.996 67.3958 121.875 67.3958ZM86.8339 63.3333 119.844 63.3333 119.844 52.0711 86.8339 52.0711 86.8339 63.3333Z" fill="#204497" transform="matrix(1 0 0 1 2767 1357)"/><path d="M45.1973 98.0474 8.125 98.0474C7.00375 98.0474 6.09375 97.1374 6.09375 96.0161L6.09375 80.6904C6.09375 79.5691 7.00375 78.6591 8.125 78.6591L45.1973 78.6591C46.3186 78.6591 47.2286 79.5691 47.2286 80.6904L47.2286 96.0161C47.2286 97.1374 46.3186 98.0474 45.1973 98.0474ZM10.1562 93.9849 43.1661 93.9849 43.1661 82.7216 10.1562 82.7216 10.1562 93.9849Z" fill="#204497" transform="matrix(1 0 0 1 2767 1357)"/><path d="M121.875 52.0711 84.8026 52.0711C83.6814 52.0711 82.7714 51.1611 82.7714 50.0398L82.7714 34.714C82.7714 33.5928 83.6814 32.6828 84.8026 32.6828L121.875 32.6828C122.996 32.6828 123.906 33.5928 123.906 34.714L123.906 50.0398C123.906 51.1611 122.996 52.0711 121.875 52.0711ZM86.8339 48.0086 119.844 48.0086 119.844 36.7453 86.8339 36.7453 86.8339 48.0086Z" fill="#204497" transform="matrix(1 0 0 1 2767 1357)"/><path d="M121.875 21.4195 84.8026 21.4195C83.6814 21.4195 82.7714 20.5095 82.7714 19.3883L82.7714 4.0625C82.7714 2.94125 83.6814 2.03125 84.8026 2.03125L121.875 2.03125C122.996 2.03125 123.906 2.94125 123.906 4.0625L123.906 19.3883C123.906 20.5095 122.996 21.4195 121.875 21.4195ZM86.8339 17.357 119.844 17.357 119.844 6.09375 86.8339 6.09375 86.8339 17.357Z" fill="#204497" transform="matrix(1 0 0 1 2767 1357)"/><path d="M121.875 98.0474 84.8026 98.0474C83.6814 98.0474 82.7714 97.1374 82.7714 96.0161L82.7714 80.6904C82.7714 79.5691 83.6814 78.6591 84.8026 78.6591L121.875 78.6591C122.996 78.6591 123.906 79.5691 123.906 80.6904L123.906 96.0161C123.906 97.1374 122.996 98.0474 121.875 98.0474ZM86.8339 93.9849 119.844 93.9849 119.844 82.7216 86.8339 82.7216 86.8339 93.9849Z" fill="#204497" transform="matrix(1 0 0 1 2767 1357)"/><path d="M121.875 82.7216 84.8026 82.7216C83.6814 82.7216 82.7714 81.8116 82.7714 80.6904L82.7714 65.3646C82.7714 64.2433 83.6814 63.3333 84.8026 63.3333L121.875 63.3333C122.996 63.3333 123.906 64.2433 123.906 65.3646L123.906 80.6904C123.906 81.8116 122.996 82.7216 121.875 82.7216ZM86.8339 78.6591 119.844 78.6591 119.844 67.3958 86.8339 67.3958 86.8339 78.6591Z" fill="#204497" transform="matrix(1 0 0 1 2767 1357)"/><path d="M45.1973 113.372 8.125 113.372C7.00375 113.372 6.09375 112.462 6.09375 111.341L6.09375 96.0151C6.09375 94.8939 7.00375 93.9839 8.125 93.9839L45.1973 93.9839C46.3186 93.9839 47.2286 94.8939 47.2286 96.0151L47.2286 111.341C47.2286 112.463 46.3186 113.372 45.1973 113.372ZM10.1562 109.31 43.1661 109.31 43.1661 98.0464 10.1562 98.0464 10.1562 109.31Z" fill="#204497" transform="matrix(1 0 0 1 2767 1357)"/><path d="M45.1973 127.969 8.125 127.969C7.00375 127.969 6.09375 127.059 6.09375 125.937L6.09375 111.341C6.09375 110.22 7.00375 109.31 8.125 109.31L45.1973 109.31C46.3186 109.31 47.2286 110.22 47.2286 111.341L47.2286 125.937C47.2286 127.059 46.3186 127.969 45.1973 127.969ZM10.1562 123.906 43.1661 123.906 43.1661 113.372 10.1562 113.372 10.1562 123.906Z" fill="#204497" transform="matrix(1 0 0 1 2767 1357)"/><path d="M121.875 127.969 84.8026 127.969C83.6814 127.969 82.7714 127.059 82.7714 125.937L82.7714 111.341C82.7714 110.22 83.6814 109.31 84.8026 109.31L121.875 109.31C122.996 109.31 123.906 110.22 123.906 111.341L123.906 125.937C123.906 127.059 122.996 127.969 121.875 127.969ZM86.8339 123.906 119.844 123.906 119.844 113.372 86.8339 113.372 86.8339 123.906Z" fill="#204497" transform="matrix(1 0 0 1 2767 1357)"/><path d="M121.875 113.372 84.8026 113.372C83.6814 113.372 82.7714 112.462 82.7714 111.341L82.7714 96.0151C82.7714 94.8939 83.6814 93.9839 84.8026 93.9839L121.875 93.9839C122.996 93.9839 123.906 94.8939 123.906 96.0151L123.906 111.341C123.906 112.463 122.996 113.372 121.875 113.372ZM86.8339 109.31 119.844 109.31 119.844 98.0464 86.8339 98.0464 86.8339 109.31Z" fill="#204497" transform="matrix(1 0 0 1 2767 1357)"/><path d="M84.8026 127.969 45.1973 127.969C44.0761 127.969 43.1661 127.059 43.1661 125.937L43.1661 111.341C43.1661 110.22 44.0761 109.31 45.1973 109.31L84.8026 109.31C85.9239 109.31 86.8339 110.22 86.8339 111.341L86.8339 125.937C86.8339 127.059 85.9249 127.969 84.8026 127.969ZM47.2286 123.906 82.7714 123.906 82.7714 113.372 47.2286 113.372 47.2286 123.906Z" fill="#204497" transform="matrix(1 0 0 1 2767 1357)"/></g></g></g><path d="M2170.15 1227 2170.15 1298.05 2167.85 1298.05 2167.85 1227ZM2182.75 1293.47 2169 1320.97 2155.25 1293.47Z" fill="#79787A"/><g clip-path="url(#clip10)"><g clip-path="url(#clip11)"><g clip-path="url(#clip12)"><path d="M45.1973 36.7453 8.125 36.7453C7.00375 36.7453 6.09375 35.8353 6.09375 34.714L6.09375 19.3883C6.09375 18.267 7.00375 17.357 8.125 17.357L45.1973 17.357C46.3186 17.357 47.2286 18.267 47.2286 19.3883L47.2286 34.714C47.2286 35.8353 46.3186 36.7453 45.1973 36.7453ZM10.1562 32.6828 43.1661 32.6828 43.1661 21.4195 10.1562 21.4195 10.1562 32.6828Z" fill="#FC3205" transform="matrix(1 0 0 1 2767 1552)"/><path d="M45.1973 21.4195 8.125 21.4195C7.00375 21.4195 6.09375 20.5095 6.09375 19.3883L6.09375 4.0625C6.09375 2.94125 7.00375 2.03125 8.125 2.03125L45.1973 2.03125C46.3186 2.03125 47.2286 2.94125 47.2286 4.0625L47.2286 19.3883C47.2286 20.5095 46.3186 21.4195 45.1973 21.4195ZM10.1562 17.357 43.1661 17.357 43.1661 6.09375 10.1562 6.09375 10.1562 17.357Z" fill="#FC3205" transform="matrix(1 0 0 1 2767 1552)"/><path d="M84.8026 36.7453 45.1973 36.7453C44.0761 36.7453 43.1661 35.8353 43.1661 34.714L43.1661 19.3883C43.1661 18.267 44.0761 17.357 45.1973 17.357L84.8026 17.357C85.9239 17.357 86.8339 18.267 86.8339 19.3883L86.8339 34.714C86.8339 35.8353 85.9249 36.7453 84.8026 36.7453ZM47.2286 32.6828 82.7714 32.6828 82.7714 21.4195 47.2286 21.4195 47.2286 32.6828Z" fill="#FC3205" transform="matrix(1 0 0 1 2767 1552)"/><path d="M84.8026 21.4195 45.1973 21.4195C44.0761 21.4195 43.1661 20.5095 43.1661 19.3883L43.1661 4.0625C43.1661 2.94125 44.0761 2.03125 45.1973 2.03125L84.8026 2.03125C85.9239 2.03125 86.8339 2.94125 86.8339 4.0625L86.8339 19.3883C86.8339 20.5095 85.9249 21.4195 84.8026 21.4195ZM47.2286 17.357 82.7714 17.357 82.7714 6.09375 47.2286 6.09375 47.2286 17.357Z" fill="#FC3205" transform="matrix(1 0 0 1 2767 1552)"/><path d="M45.1973 52.0711 8.125 52.0711C7.00375 52.0711 6.09375 51.1611 6.09375 50.0398L6.09375 34.714C6.09375 33.5928 7.00375 32.6828 8.125 32.6828L45.1973 32.6828C46.3186 32.6828 47.2286 33.5928 47.2286 34.714L47.2286 50.0398C47.2286 51.1611 46.3186 52.0711 45.1973 52.0711ZM10.1562 48.0086 43.1661 48.0086 43.1661 36.7453 10.1562 36.7453 10.1562 48.0086Z" fill="#FC3205" transform="matrix(1 0 0 1 2767 1552)"/><path d="M45.1973 82.7216 8.125 82.7216C7.00375 82.7216 6.09375 81.8116 6.09375 80.6904L6.09375 65.3646C6.09375 64.2433 7.00375 63.3333 8.125 63.3333L45.1973 63.3333C46.3186 63.3333 47.2286 64.2433 47.2286 65.3646L47.2286 80.6904C47.2286 81.8116 46.3186 82.7216 45.1973 82.7216ZM10.1562 78.6591 43.1661 78.6591 43.1661 67.3958 10.1562 67.3958 10.1562 78.6591Z" fill="#FC3205" transform="matrix(1 0 0 1 2767 1552)"/><path d="M45.1973 67.3958 8.125 67.3958C7.00375 67.3958 6.09375 66.4858 6.09375 65.3646L6.09375 50.0398C6.09375 48.9186 7.00375 48.0086 8.125 48.0086L45.1973 48.0086C46.3186 48.0086 47.2286 48.9186 47.2286 50.0398L47.2286 65.3646C47.2286 66.4858 46.3186 67.3958 45.1973 67.3958ZM10.1562 63.3333 43.1661 63.3333 43.1661 52.0711 10.1562 52.0711 10.1562 63.3333Z" fill="#FC3205" transform="matrix(1 0 0 1 2767 1552)"/><path d="M84.8026 52.0711 45.1973 52.0711C44.0761 52.0711 43.1661 51.1611 43.1661 50.0398L43.1661 34.714C43.1661 33.5928 44.0761 32.6828 45.1973 32.6828L84.8026 32.6828C85.9239 32.6828 86.8339 33.5928 86.8339 34.714L86.8339 50.0398C86.8339 51.1611 85.9249 52.0711 84.8026 52.0711ZM47.2286 48.0086 82.7714 48.0086 82.7714 36.7453 47.2286 36.7453 47.2286 48.0086Z" fill="#FC3205" transform="matrix(1 0 0 1 2767 1552)"/><path d="M84.8026 98.0474 45.1973 98.0474C44.0761 98.0474 43.1661 97.1374 43.1661 96.0161L43.1661 80.6904C43.1661 79.5691 44.0761 78.6591 45.1973 78.6591L84.8026 78.6591C85.9239 78.6591 86.8339 79.5691 86.8339 80.6904L86.8339 96.0161C86.8339 97.1374 85.9249 98.0474 84.8026 98.0474ZM47.2286 93.9849 82.7714 93.9849 82.7714 82.7216 47.2286 82.7216 47.2286 93.9849Z" fill="#FC3205" transform="matrix(1 0 0 1 2767 1552)"/><path d="M84.8026 113.372 45.1973 113.372C44.0761 113.372 43.1661 112.462 43.1661 111.341L43.1661 96.0151C43.1661 94.8939 44.0761 93.9839 45.1973 93.9839L84.8026 93.9839C85.9239 93.9839 86.8339 94.8939 86.8339 96.0151L86.8339 111.341C86.8339 112.463 85.9249 113.372 84.8026 113.372ZM47.2286 109.31 82.7714 109.31 82.7714 98.0464 47.2286 98.0464 47.2286 109.31Z" fill="#FC3205" transform="matrix(1 0 0 1 2767 1552)"/><path d="M84.8026 67.3958 45.1973 67.3958C44.0761 67.3958 43.1661 66.4858 43.1661 65.3646L43.1661 50.0398C43.1661 48.9186 44.0761 48.0086 45.1973 48.0086L84.8026 48.0086C85.9239 48.0086 86.8339 48.9186 86.8339 50.0398L86.8339 65.3646C86.8339 66.4858 85.9249 67.3958 84.8026 67.3958ZM47.2286 63.3333 82.7714 63.3333 82.7714 52.0711 47.2286 52.0711 47.2286 63.3333Z" fill="#FC3205" transform="matrix(1 0 0 1 2767 1552)"/><path d="M84.8026 82.7216 45.1973 82.7216C44.0761 82.7216 43.1661 81.8116 43.1661 80.6904L43.1661 65.3646C43.1661 64.2433 44.0761 63.3333 45.1973 63.3333L84.8026 63.3333C85.9239 63.3333 86.8339 64.2433 86.8339 65.3646L86.8339 80.6904C86.8339 81.8116 85.9249 82.7216 84.8026 82.7216ZM47.2286 78.6591 82.7714 78.6591 82.7714 67.3958 47.2286 67.3958 47.2286 78.6591Z" fill="#FC3205" transform="matrix(1 0 0 1 2767 1552)"/><path d="M121.875 36.7453 84.8026 36.7453C83.6814 36.7453 82.7714 35.8353 82.7714 34.714L82.7714 19.3883C82.7714 18.267 83.6814 17.357 84.8026 17.357L121.875 17.357C122.996 17.357 123.906 18.267 123.906 19.3883L123.906 34.714C123.906 35.8353 122.996 36.7453 121.875 36.7453ZM86.8339 32.6828 119.844 32.6828 119.844 21.4195 86.8339 21.4195 86.8339 32.6828Z" fill="#FC3205" transform="matrix(1 0 0 1 2767 1552)"/><path d="M121.875 67.3958 84.8026 67.3958C83.6814 67.3958 82.7714 66.4858 82.7714 65.3646L82.7714 50.0398C82.7714 48.9186 83.6814 48.0086 84.8026 48.0086L121.875 48.0086C122.996 48.0086 123.906 48.9186 123.906 50.0398L123.906 65.3646C123.906 66.4858 122.996 67.3958 121.875 67.3958ZM86.8339 63.3333 119.844 63.3333 119.844 52.0711 86.8339 52.0711 86.8339 63.3333Z" fill="#FC3205" transform="matrix(1 0 0 1 2767 1552)"/><path d="M45.1973 98.0474 8.125 98.0474C7.00375 98.0474 6.09375 97.1374 6.09375 96.0161L6.09375 80.6904C6.09375 79.5691 7.00375 78.6591 8.125 78.6591L45.1973 78.6591C46.3186 78.6591 47.2286 79.5691 47.2286 80.6904L47.2286 96.0161C47.2286 97.1374 46.3186 98.0474 45.1973 98.0474ZM10.1562 93.9849 43.1661 93.9849 43.1661 82.7216 10.1562 82.7216 10.1562 93.9849Z" fill="#FC3205" transform="matrix(1 0 0 1 2767 1552)"/><path d="M121.875 52.0711 84.8026 52.0711C83.6814 52.0711 82.7714 51.1611 82.7714 50.0398L82.7714 34.714C82.7714 33.5928 83.6814 32.6828 84.8026 32.6828L121.875 32.6828C122.996 32.6828 123.906 33.5928 123.906 34.714L123.906 50.0398C123.906 51.1611 122.996 52.0711 121.875 52.0711ZM86.8339 48.0086 119.844 48.0086 119.844 36.7453 86.8339 36.7453 86.8339 48.0086Z" fill="#FC3205" transform="matrix(1 0 0 1 2767 1552)"/><path d="M121.875 21.4195 84.8026 21.4195C83.6814 21.4195 82.7714 20.5095 82.7714 19.3883L82.7714 4.0625C82.7714 2.94125 83.6814 2.03125 84.8026 2.03125L121.875 2.03125C122.996 2.03125 123.906 2.94125 123.906 4.0625L123.906 19.3883C123.906 20.5095 122.996 21.4195 121.875 21.4195ZM86.8339 17.357 119.844 17.357 119.844 6.09375 86.8339 6.09375 86.8339 17.357Z" fill="#FC3205" transform="matrix(1 0 0 1 2767 1552)"/><path d="M121.875 98.0474 84.8026 98.0474C83.6814 98.0474 82.7714 97.1374 82.7714 96.0161L82.7714 80.6904C82.7714 79.5691 83.6814 78.6591 84.8026 78.6591L121.875 78.6591C122.996 78.6591 123.906 79.5691 123.906 80.6904L123.906 96.0161C123.906 97.1374 122.996 98.0474 121.875 98.0474ZM86.8339 93.9849 119.844 93.9849 119.844 82.7216 86.8339 82.7216 86.8339 93.9849Z" fill="#FC3205" transform="matrix(1 0 0 1 2767 1552)"/><path d="M121.875 82.7216 84.8026 82.7216C83.6814 82.7216 82.7714 81.8116 82.7714 80.6904L82.7714 65.3646C82.7714 64.2433 83.6814 63.3333 84.8026 63.3333L121.875 63.3333C122.996 63.3333 123.906 64.2433 123.906 65.3646L123.906 80.6904C123.906 81.8116 122.996 82.7216 121.875 82.7216ZM86.8339 78.6591 119.844 78.6591 119.844 67.3958 86.8339 67.3958 86.8339 78.6591Z" fill="#FC3205" transform="matrix(1 0 0 1 2767 1552)"/><path d="M45.1973 113.372 8.125 113.372C7.00375 113.372 6.09375 112.462 6.09375 111.341L6.09375 96.0151C6.09375 94.8939 7.00375 93.9839 8.125 93.9839L45.1973 93.9839C46.3186 93.9839 47.2286 94.8939 47.2286 96.0151L47.2286 111.341C47.2286 112.463 46.3186 113.372 45.1973 113.372ZM10.1562 109.31 43.1661 109.31 43.1661 98.0464 10.1562 98.0464 10.1562 109.31Z" fill="#FC3205" transform="matrix(1 0 0 1 2767 1552)"/><path d="M45.1973 127.969 8.125 127.969C7.00375 127.969 6.09375 127.059 6.09375 125.937L6.09375 111.341C6.09375 110.22 7.00375 109.31 8.125 109.31L45.1973 109.31C46.3186 109.31 47.2286 110.22 47.2286 111.341L47.2286 125.937C47.2286 127.059 46.3186 127.969 45.1973 127.969ZM10.1562 123.906 43.1661 123.906 43.1661 113.372 10.1562 113.372 10.1562 123.906Z" fill="#FC3205" transform="matrix(1 0 0 1 2767 1552)"/><path d="M121.875 127.969 84.8026 127.969C83.6814 127.969 82.7714 127.059 82.7714 125.937L82.7714 111.341C82.7714 110.22 83.6814 109.31 84.8026 109.31L121.875 109.31C122.996 109.31 123.906 110.22 123.906 111.341L123.906 125.937C123.906 127.059 122.996 127.969 121.875 127.969ZM86.8339 123.906 119.844 123.906 119.844 113.372 86.8339 113.372 86.8339 123.906Z" fill="#FC3205" transform="matrix(1 0 0 1 2767 1552)"/><path d="M121.875 113.372 84.8026 113.372C83.6814 113.372 82.7714 112.462 82.7714 111.341L82.7714 96.0151C82.7714 94.8939 83.6814 93.9839 84.8026 93.9839L121.875 93.9839C122.996 93.9839 123.906 94.8939 123.906 96.0151L123.906 111.341C123.906 112.463 122.996 113.372 121.875 113.372ZM86.8339 109.31 119.844 109.31 119.844 98.0464 86.8339 98.0464 86.8339 109.31Z" fill="#FC3205" transform="matrix(1 0 0 1 2767 1552)"/><path d="M84.8026 127.969 45.1973 127.969C44.0761 127.969 43.1661 127.059 43.1661 125.937L43.1661 111.341C43.1661 110.22 44.0761 109.31 45.1973 109.31L84.8026 109.31C85.9239 109.31 86.8339 110.22 86.8339 111.341L86.8339 125.937C86.8339 127.059 85.9249 127.969 84.8026 127.969ZM47.2286 123.906 82.7714 123.906 82.7714 113.372 47.2286 113.372 47.2286 123.906Z" fill="#FC3205" transform="matrix(1 0 0 1 2767 1552)"/></g></g></g><path d="M2501 1419.85 2634.29 1419.85C2634.92 1419.85 2635.43 1420.37 2635.43 1421L2635.43 1617.14 2634.29 1616 2744.66 1616 2744.66 1618.29 2634.29 1618.29C2633.65 1618.29 2633.14 1617.78 2633.14 1617.14L2633.14 1421 2634.29 1422.15 2501 1422.15ZM2740.07 1603.39 2767.57 1617.14 2740.07 1630.89Z" fill="#79787A"/><path d="M2501.01 1419.85 2744.66 1421.01 2744.65 1423.3 2500.99 1422.15ZM2740.14 1408.39 2767.57 1422.27 2740.01 1435.89Z" fill="#79787A"/><text font-family="Latha,Latha_MSFontService,sans-serif" font-weight="400" font-size="46" transform="translate(1253.45 1557)">எ<tspan font-size="46" x="37.8125" y="0">.</tspan><tspan font-size="46" x="49.2708" y="0">கா</tspan><tspan font-size="46" x="114.01" y="0">.</tspan></text><text font-family="Verdana,Verdana_MSFontService,sans-serif" font-weight="400" font-size="46" transform="matrix(1 0 0 1 1394.96 1557)">SSIS or ODI</text><rect x="211" y="1255" width="920" height="334" stroke="#79787A" stroke-width="2.29167" stroke-linejoin="round" stroke-miterlimit="10" fill="none"/><text font-family="Latha,Latha_MSFontService,sans-serif" font-weight="400" font-size="46" transform="translate(210.629 1296)">மனிதவளம்</text><text font-family="Verdana,Verdana_MSFontService,sans-serif" font-weight="400" font-size="46" transform="matrix(1 0 0 1 501.67 1296)">(</text><text font-family="Latha,Latha_MSFontService,sans-serif" font-weight="400" font-size="46" transform="translate(522.295 1296)">பணியாளர் எண்<tspan font-size="46" x="402.188" y="0">)</tspan><tspan font-size="46" x="-311.667" y="55">செயற்படு அடைவு</tspan></text><text font-family="Verdana,Verdana_MSFontService,sans-serif" font-weight="400" font-size="46" transform="matrix(1 0 0 1 695.889 1351)">(</text><text font-family="Latha,Latha_MSFontService,sans-serif" font-weight="400" font-size="46" transform="translate(716.514 1351)">பயனர் பெ<tspan font-size="46" x="260.677" y="0">யர்</tspan><tspan font-size="46" x="335.156" y="0">)</tspan><tspan font-size="46" x="-505.885" y="54">மின்னஞ்சல் முகவரி</tspan><tspan font-size="46" x="-505.885" y="109">ஊதியம் </tspan>(<tspan font-size="46" x="-265.833" y="109">பணியாளர் எண்</tspan><tspan font-size="46" x="136.354" y="109">)</tspan><tspan font-size="46" x="-505.885" y="164">ஒத்துழைப்பு </tspan>(மின்னஞ்சல் மு<tspan font-size="46" x="233.75" y="164">கவரி</tspan>)<tspan font-size="46" x="-505.885" y="220">இலக்கமுறைச் சான்றிதழ்</tspan></text><path d="M1131 1420.85 1238 1420.85 1238 1423.15 1131 1423.15ZM1233.42 1408.25 1260.92 1422 1233.42 1435.75Z" fill="#79787A"/></g></svg>