<svg width="1299" height="1299" xmlns="http://www.w3.org/2000/svg" xmlns:xlink="http://www.w3.org/1999/xlink" xml:space="preserve" overflow="hidden"><defs><clipPath id="clip0"><rect x="169" y="315" width="1299" height="1299"/></clipPath></defs><g clip-path="url(#clip0)" transform="translate(-169 -315)"><path d="M169 964.5C169 605.791 459.791 315 818.5 315 1177.21 315 1468 605.791 1468 964.5 1468 1323.21 1177.21 1614 818.5 1614 459.791 1614 169 1323.21 169 964.5Z" fill="#79787A" fill-rule="evenodd" fill-opacity="0.701961"/><path d="M558 964.5C558 713.487 761.71 510 1013 510 1264.29 510 1468 713.487 1468 964.5 1468 1215.51 1264.29 1419 1013 1419 761.71 1419 558 1215.51 558 964.5Z" fill="#DF7275" fill-rule="evenodd" fill-opacity="0.4"/><path d="M169 964.5C169 785.284 314.284 640 493.5 640 672.717 640 818 785.284 818 964.5 818 1143.72 672.717 1289 493.5 1289 314.284 1289 169 1143.72 169 964.5Z" fill="#01919A" fill-rule="evenodd" fill-opacity="0.4"/><path d="M1117 964C1117 892.203 1175.2 834 1247 834 1318.8 834 1377 892.203 1377 964 1377 1035.8 1318.8 1094 1247 1094 1175.2 1094 1117 1035.8 1117 964Z" fill="#AE5E0E" fill-rule="evenodd" fill-opacity="0.701961"/><text font-family="Verdana,Verdana_MSFontService,sans-serif" font-weight="700" font-size="46" transform="matrix(1 0 0 1 1176.39 982)">SAML</text><path d="M560 964C560 892.203 618.203 834 690 834 761.797 834 820 892.203 820 964 820 1035.8 761.797 1094 690 1094 618.203 1094 560 1035.8 560 964Z" fill="#FC9A05" fill-rule="evenodd" fill-opacity="0.701961"/><text font-family="Verdana,Verdana_MSFontService,sans-serif" font-weight="700" font-size="46" transform="matrix(1 0 0 1 622.406 982)">OIDC</text><text font-family="Latha,Latha_MSFontService,sans-serif" font-weight="700" font-size="46" transform="translate(480.199 439)">கூட்டமைத்த அடையா<tspan font-size="46" x="595.26" y="0">ள </tspan><tspan font-size="46" x="86.5104" y="56">மேலாண்மை</tspan></text><text font-family="Arial,Arial_MSFontService,sans-serif" font-weight="700" font-size="46" transform="matrix(1 0 0 1 931.084 495)">(FIM)</text><text font-family="Latha,Latha_MSFontService,sans-serif" font-weight="700" font-size="46" transform="translate(796.658 636)">ஒற்றை நுழை<tspan font-size="46" x="379.271" y="0">வு </tspan></text><text font-family="Arial,Arial_MSFontService,sans-serif" font-weight="700" font-size="46" transform="matrix(1 0 0 1 949.627 696)">(SSO)<tspan font-size="46" x="-712.313" y="286">OAUTH </tspan>2.0</text></g></svg>