<svg width="1430" height="646" xmlns="http://www.w3.org/2000/svg" xmlns:xlink="http://www.w3.org/1999/xlink" xml:space="preserve" overflow="hidden"><defs><clipPath id="clip0"><rect x="174" y="616" width="1430" height="646"/></clipPath><clipPath id="clip1"><rect x="173" y="616" width="548" height="169"/></clipPath><clipPath id="clip2"><rect x="173" y="616" width="548" height="169"/></clipPath><clipPath id="clip3"><rect x="173" y="616" width="548" height="169"/></clipPath><clipPath id="clip4"><rect x="646" y="969" width="346" height="142"/></clipPath><clipPath id="clip5"><rect x="646" y="969" width="346" height="142"/></clipPath><clipPath id="clip6"><rect x="646" y="866" width="346" height="343"/></clipPath><clipPath id="clip7"><rect x="1078" y="666" width="391" height="67"/></clipPath><clipPath id="clip8"><rect x="1078" y="666" width="391" height="67"/></clipPath><clipPath id="clip9"><rect x="1078" y="666" width="391" height="67"/></clipPath></defs><g clip-path="url(#clip0)" transform="translate(-174 -616)"><g clip-path="url(#clip1)"><g clip-path="url(#clip2)"><g clip-path="url(#clip3)"><path d="M435.288 683.816 435.288 685.504 436.589 685.504C437.434 685.504 438.257 685.879 439.057 686.63 439.612 687.155 439.979 687.793 440.157 688.543 440.379 689.557 440.49 691.62 440.49 694.733L440.509 699.068 445.659 699.07 445.659 694.734C445.659 691.02 445.882 688.694 446.326 687.756 447.015 686.256 448.093 685.505 449.561 685.505L450.894 685.505 450.894 683.818 435.288 683.818ZM456.531 684.223 456.531 685.91 457.832 685.91C458.676 685.91 459.498 686.286 460.298 687.036 460.855 687.561 461.221 688.199 461.399 688.949 461.622 689.962 461.732 692.025 461.732 695.139L461.732 699.664 466.863 700.218 466.901 695.139C466.929 691.425 467.124 689.099 467.568 688.161 468.257 686.661 469.336 685.91 470.803 685.91L472.137 685.91 472.137 684.223 456.531 684.223ZM420.978 700.778 420.978 702.829 423.781 702.829C426.606 702.829 428.747 703.65 430.206 705.289 431.253 706.475 431.777 709.39 431.777 714.038L431.777 762.224C431.777 766.416 431.368 769.151 430.547 770.427 429.18 772.386 426.925 773.366 423.781 773.366L420.978 773.366 420.978 775.416 456.247 775.416C464.631 775.416 470.852 774.641 474.907 773.092 479.008 771.544 482.22 769.082 484.544 765.711 486.913 762.293 488.098 758.716 488.098 754.98 488.098 750.104 486.321 745.981 482.766 742.609 480.215 740.194 476.364 738.439 471.215 737.345 475.636 735.933 478.985 733.745 481.263 730.784 483.541 727.822 484.68 724.473 484.68 720.736 484.68 716.363 483.222 712.512 480.306 709.185 477.435 705.814 473.243 703.467 467.73 702.145 464.084 701.234 459.254 700.778 453.239 700.778L420.978 700.778ZM452.283 704.469C459.072 704.469 464.244 706.019 467.798 709.117 471.398 712.215 473.198 715.929 473.198 720.258 473.198 723.083 472.469 725.703 471.011 728.118 469.598 730.488 467.524 732.265 464.79 733.449 462.102 734.588 458.092 735.159 452.761 735.159 450.664 735.159 448.729 735.09 446.952 734.954 445.22 734.817 443.694 734.611 442.372 734.338L442.372 705.7C445.289 704.88 448.591 704.469 452.283 704.469ZM452.078 738.917C457.318 738.917 461.715 739.692 465.269 741.242 468.823 742.791 471.398 744.91 472.993 747.598 474.588 750.241 475.385 753.02 475.385 755.937 475.385 760.357 473.63 764.071 470.122 767.078 466.659 770.04 461.601 771.52 454.948 771.52 450.801 771.52 446.61 771.019 442.372 770.017L442.372 739.464C443.329 739.282 444.605 739.145 446.2 739.054 447.84 738.963 449.799 738.917 452.078 738.917ZM465.025 776.338 459.894 776.626 459.855 781.018C459.855 784.131 459.745 786.195 459.522 787.208 459.345 787.958 458.977 788.596 458.421 789.121 457.621 789.872 456.799 790.247 455.954 790.247L454.654 790.247 454.654 791.935 470.26 791.935 470.26 790.247 468.925 790.247C467.459 790.247 466.38 789.497 465.691 787.996 465.246 787.058 465.025 784.731 465.025 781.018L465.025 776.338ZM443.996 776.681 438.903 776.721 438.827 781.018C438.827 784.131 438.715 786.195 438.494 787.208 438.315 787.958 437.949 788.596 437.393 789.121 436.593 789.872 435.77 790.247 434.925 790.247L433.625 790.247 433.625 791.935 449.231 791.935 449.231 790.247 447.897 790.247C446.43 790.247 445.352 789.496 444.663 787.996 444.218 787.058 443.996 784.731 443.996 781.018L443.996 776.681Z" fill="#AE5E0E" transform="matrix(1 0 0 1.00321 186.868 -43.8513)"/><path d="M453.632 657.751C446.968 657.751 441.571 663.147 441.571 669.811 441.571 671.148 441.837 672.415 442.24 673.615 419.48 677.666 400.832 693.582 392.969 714.766L379.622 714.766 379.622 724.084 369.755 724.084 369.755 730.663 367.94 730.663 367.604 743.807 369.765 743.807 369.765 750.386 379.632 750.386 379.632 759.706 393.217 759.706C401.081 780.848 419.515 796.813 442.25 800.856 441.847 802.055 441.581 803.324 441.581 804.661 441.581 811.325 446.978 816.721 453.642 816.721 460.307 816.721 465.701 811.325 465.701 804.661 465.701 803.324 465.436 802.055 465.034 800.856 492.137 796.034 513.337 774.37 517.509 747.044 518.641 747.396 519.822 747.646 521.073 747.646 527.737 747.646 533.132 742.249 533.132 735.584 533.116 728.929 527.719 723.531 521.055 723.531L521.064 723.537C519.642 723.537 518.288 723.828 517.02 724.282 511.762 698.439 491.083 678.25 465.025 673.615 465.427 672.415 465.694 671.148 465.694 669.812 465.694 663.148 460.297 657.751 453.633 657.751ZM453.304 682.223C483.963 682.224 508.816 707.077 508.816 737.735 508.816 768.394 483.963 793.248 453.304 793.248 422.646 793.248 397.792 768.394 397.792 737.735 397.792 707.077 422.646 682.224 453.304 682.223Z" fill="#AE5E0E" transform="matrix(1 0 0 1.00321 186.868 -43.8513)"/><path d="M-12.7924 738.786-9.95073 738.786-9.95073 730.721-12.8677 731.323-12.8677 729.132-9.96748 728.531-6.9084 728.531-6.9084 738.786-4.06666 738.786-4.06666 741.01-12.7924 741.01-12.7924 738.786Z" fill="#AE5E0E" transform="matrix(1 0 0 1.00321 186.868 -43.8513)"/><path d="M2.03472 738.644 7.52596 738.644 7.52596 741.01-1.54252 741.01-1.54252 738.644 3.01262 734.624C3.41937 734.256 3.72026 733.897 3.91529 733.546 4.11031 733.194 4.20782 732.829 4.20782 732.451 4.20782 731.865 4.01001 731.395 3.6144 731.038 3.22435 730.682 2.70337 730.503 2.05144 730.503 1.54995 730.503 1.00111 730.612 0.404902 730.83-0.191305 731.041-0.829303 731.358-1.50909 731.783L-1.50909 729.04C-0.784728 728.801-0.0687208 728.62 0.638928 728.498 1.34658 728.369 2.04029 728.305 2.72008 728.305 4.21339 728.305 5.37237 728.634 6.19704 729.292 7.02727 729.949 7.44238 730.866 7.44238 732.041 7.44238 732.721 7.26686 733.356 6.91582 733.947 6.56479 734.532 5.8265 735.318 4.70094 736.304L2.03472 738.644Z" fill="#AE5E0E" transform="matrix(1 0 0 1.00321 186.868 -43.8513)"/><path d="M18.007 731.941 18.007 734.382C17.6002 734.103 17.1906 733.897 16.7783 733.763 16.3716 733.63 15.9481 733.563 15.5079 733.563 14.6721 733.563 14.0202 733.807 13.5521 734.298 13.0896 734.783 12.8584 735.463 12.8584 736.338 12.8584 737.212 13.0896 737.894 13.5521 738.385 14.0202 738.87 14.6721 739.113 15.5079 739.113 15.976 739.113 16.4189 739.043 16.8368 738.903 17.2603 738.764 17.6503 738.558 18.007 738.284L18.007 740.734C17.5389 740.907 17.0625 741.035 16.5778 741.118 16.0985 741.207 15.6165 741.252 15.1318 741.252 13.4434 741.252 12.1229 740.82 11.1701 739.956 10.2172 739.087 9.74081 737.88 9.74081 736.338 9.74081 734.794 10.2172 733.591 11.1701 732.726 12.1229 731.857 13.4434 731.422 15.1318 731.422 15.6221 731.422 16.1041 731.467 16.5778 731.557 17.0569 731.64 17.5333 731.769 18.007 731.941Z" fill="#AE5E0E" transform="matrix(1 0 0 1.00321 186.868 -43.8513)"/><path d="M25.3621 734.85C24.7993 734.85 24.3758 735.034 24.0916 735.401 23.813 735.763 23.6737 736.31 23.6737 737.039 23.6737 737.77 23.813 738.318 24.0916 738.686 24.3758 739.048 24.7993 739.229 25.3621 739.229 25.9303 739.229 26.3538 739.048 26.6324 738.686 26.9166 738.318 27.0587 737.77 27.0587 737.039 27.0587 736.31 26.9166 735.763 26.6324 735.401 26.3538 735.034 25.9303 734.85 25.3621 734.85ZM29.3405 728.857 29.3405 731.164C28.8111 730.913 28.3124 730.729 27.8444 730.612 27.3763 730.489 26.9194 730.429 26.4737 730.429 25.5152 730.429 24.7687 730.696 24.2337 731.231 23.6988 731.76 23.3867 732.548 23.2976 733.596 23.6653 733.323 24.0638 733.12 24.4928 732.986 24.9218 732.846 25.3899 732.776 25.8969 732.776 27.173 732.776 28.201 733.151 28.9811 733.897 29.7668 734.643 30.1596 735.621 30.1596 736.831 30.1596 738.168 29.7222 739.24 28.8473 740.049 27.9725 740.851 26.7997 741.252 25.3286 741.252 23.7072 741.252 22.4507 740.706 21.5591 739.614 20.6732 738.516 20.2302 736.961 20.2302 734.95 20.2302 732.888 20.7484 731.27 21.7848 730.094 22.8268 728.913 24.2532 728.322 26.0642 728.322 26.638 728.322 27.1952 728.367 27.7357 728.456 28.2762 728.545 28.8111 728.678 29.3405 728.857Z" fill="#AE5E0E" transform="matrix(1 0 0 1.00321 186.868 -43.8513)"/><path d="M35.8598 730.963 35.8598 738.577 37.0132 738.577C38.3281 738.577 39.3312 738.252 40.0221 737.599 40.7186 736.947 41.0668 736 41.0668 734.758 41.0668 733.521 40.7214 732.579 40.0305 731.932 39.3395 731.287 38.3337 730.963 37.0132 730.963L35.8598 730.963ZM32.6419 728.531 36.0353 728.531C37.9298 728.531 39.3395 728.667 40.2645 728.941 41.195 729.208 41.9918 729.665 42.6549 730.311 43.2399 730.874 43.6745 731.523 43.9587 732.258 44.2429 732.994 44.385 733.827 44.385 734.758 44.385 735.699 44.2429 736.54 43.9587 737.282 43.6745 738.017 43.2399 738.667 42.6549 739.229 41.9862 739.876 41.1839 740.335 40.2477 740.608 39.3116 740.876 37.9075 741.01 36.0353 741.01L32.6419 741.01 32.6419 728.531Z" fill="#AE5E0E" transform="matrix(1 0 0 1.00321 186.868 -43.8513)"/><path d="M55.5347 728.924 55.5347 731.565C54.8492 731.259 54.1806 731.027 53.5287 730.872 52.8768 730.715 52.261 730.637 51.6816 730.637 50.9126 730.637 50.3443 730.743 49.9765 730.954 49.6088 731.167 49.4249 731.495 49.4249 731.941 49.4249 732.275 49.5475 732.537 49.7927 732.726 50.0434 732.91 50.4948 733.07 51.1466 733.203L52.5174 733.479C53.9048 733.757 54.891 734.181 55.4761 734.749 56.0612 735.318 56.3537 736.125 56.3537 737.173 56.3537 738.549 55.9442 739.575 55.125 740.249 54.3116 740.918 53.0662 741.252 51.389 741.252 50.5978 741.252 49.8037 741.176 49.007 741.027 48.2102 740.876 47.4134 740.653 46.6165 740.358L46.6165 737.641C47.4134 738.065 48.1823 738.385 48.9234 738.603 49.67 738.814 50.3889 738.92 51.0798 738.92 51.7819 738.92 52.3195 738.803 52.6929 738.569 53.0662 738.335 53.2529 738 53.2529 737.566 53.2529 737.176 53.1247 736.875 52.8684 736.663 52.6177 736.451 52.1133 736.262 51.3556 736.095L50.1103 735.819C48.8621 735.551 47.9483 735.125 47.3688 734.541 46.7948 733.955 46.5079 733.167 46.5079 732.175 46.5079 730.932 46.9091 729.977 47.7115 729.308 48.5138 728.639 49.6672 728.305 51.1717 728.305 51.8571 728.305 52.562 728.358 53.2863 728.464 54.0106 728.565 54.7601 728.717 55.5347 728.924Z" fill="#AE5E0E" transform="matrix(1 0 0 1.00321 186.868 -43.8513)"/><path d="M59.0533 731.649 62.0456 731.649 62.0456 741.01 59.0533 741.01 59.0533 731.649ZM59.0533 728.005 62.0456 728.005 62.0456 730.445 59.0533 730.445 59.0533 728.005Z" fill="#AE5E0E" transform="matrix(1 0 0 1.00321 186.868 -43.8513)"/><path d="M65.0711 728.531 68.289 728.531 68.289 736.011C68.289 737.042 68.4561 737.781 68.7905 738.227 69.1304 738.667 69.682 738.886 70.4454 738.886 71.2144 738.886 71.766 738.667 72.1002 738.227 72.4402 737.781 72.6101 737.042 72.6101 736.011L72.6101 728.531 75.828 728.531 75.828 736.011C75.828 737.778 75.3849 739.093 74.4991 739.956 73.6131 740.82 72.2619 741.252 70.4454 741.252 68.6344 741.252 67.286 740.82 66.4001 739.956 65.5142 739.093 65.0711 737.778 65.0711 736.011L65.0711 728.531Z" fill="#AE5E0E" transform="matrix(1 0 0 1.00321 186.868 -43.8513)"/><path d="M83.7097 731.181 80.1825 736.405 83.7097 736.405 83.7097 731.181ZM83.1747 728.531 86.752 728.531 86.752 736.405 88.5322 736.405 88.5322 738.737 86.752 738.737 86.752 741.01 83.7097 741.01 83.7097 738.737 78.1766 738.737 78.1766 735.978 83.1747 728.531Z" fill="#AE5E0E" transform="matrix(1 0 0 1.00321 186.868 -43.8513)"/><path d="M95.453 734.064C96.1267 734.064 96.6087 733.939 96.899 733.687 97.194 733.437 97.342 733.025 97.342 732.451 97.342 731.882 97.194 731.476 96.899 731.231 96.6087 730.985 96.1267 730.863 95.453 730.863L94.099 730.863 94.099 734.064 95.453 734.064ZM94.099 736.287 94.099 741.01 90.8809 741.01 90.8809 728.531 95.7954 728.531C97.4388 728.531 98.6429 728.807 99.4059 729.359 100.175 729.91 100.56 730.782 100.56 731.974 100.56 732.799 100.359 733.476 99.9577 734.006 99.5623 734.535 98.963 734.925 98.1609 735.175 98.601 735.276 98.9937 735.505 99.3389 735.861 99.6907 736.212 100.044 736.747 100.401 737.465L102.147 741.01 98.721 741.01 97.1996 737.908C96.8935 737.285 96.5808 736.859 96.2635 736.63 95.9518 736.402 95.533 736.287 95.01 736.287L94.099 736.287Z" fill="#AE5E0E" transform="matrix(1 0 0 1.00321 186.868 -43.8513)"/><path d="M108.316 733.596C107.68 733.596 107.193 733.83 106.853 734.298 106.519 734.766 106.351 735.446 106.351 736.338 106.351 737.229 106.519 737.908 106.853 738.376 107.193 738.844 107.68 739.079 108.316 739.079 108.956 739.079 109.444 738.844 109.779 738.376 110.118 737.908 110.289 737.229 110.289 736.338 110.289 735.446 110.118 734.766 109.779 734.298 109.444 733.83 108.956 733.596 108.316 733.596ZM110.289 739.656C109.875 740.207 109.421 740.611 108.926 740.867 108.43 741.123 107.856 741.252 107.204 741.252 106.051 741.252 105.104 740.795 104.362 739.881 103.621 738.962 103.251 737.781 103.251 736.338 103.251 734.894 103.621 733.718 104.362 732.81 105.104 731.896 106.051 731.439 107.204 731.439 107.856 731.439 108.43 731.568 108.926 731.824 109.421 732.08 109.875 732.484 110.289 733.036L110.289 731.649 113.297 731.649 113.297 744.57 110.289 744.57 110.289 739.656Z" fill="#AE5E0E" transform="matrix(1 0 0 1.00321 186.868 -43.8513)"/><path d="M122.725 734.281C123.566 734.499 124.205 734.878 124.639 735.418 125.08 735.953 125.299 736.635 125.299 737.465 125.299 738.703 124.826 739.645 123.878 740.291 122.931 740.932 121.549 741.252 119.733 741.252 119.092 741.252 118.449 741.199 117.802 741.093 117.162 740.993 116.526 740.84 115.896 740.633L115.896 738.151C116.498 738.452 117.095 738.681 117.685 738.836 118.281 738.987 118.866 739.062 119.44 739.062 120.293 739.062 120.945 738.914 121.396 738.619 121.853 738.323 122.081 737.9 122.081 737.349 122.081 736.781 121.848 736.352 121.38 736.061 120.917 735.766 120.231 735.618 119.323 735.618L118.036 735.618 118.036 733.546 119.39 733.546C120.198 733.546 120.8 733.42 121.195 733.17 121.591 732.913 121.789 732.526 121.789 732.008 121.789 731.529 121.597 731.158 121.212 730.896 120.828 730.634 120.284 730.503 119.582 730.503 119.065 730.503 118.541 730.562 118.011 730.679 117.482 730.796 116.955 730.968 116.431 731.197L116.431 728.84C117.067 728.662 117.697 728.529 118.32 728.439 118.944 728.35 119.558 728.305 120.159 728.305 121.781 728.305 122.992 728.572 123.794 729.107 124.603 729.637 125.007 730.436 125.007 731.506 125.007 732.237 124.814 732.835 124.43 733.303 124.046 733.766 123.477 734.092 122.725 734.281Z" fill="#AE5E0E" transform="matrix(1 0 0 1.00321 186.868 -43.8513)"/><path d="M128.225 728.531 133.565 728.531C135.154 728.531 136.371 728.885 137.218 729.592 138.071 730.295 138.497 731.298 138.497 732.602 138.497 733.911 138.071 734.919 137.218 735.627 136.371 736.329 135.154 736.68 133.565 736.68L131.443 736.68 131.443 741.01 128.225 741.01 128.225 728.531ZM131.443 730.863 131.443 734.348 133.223 734.348C133.847 734.348 134.329 734.197 134.669 733.897 135.008 733.591 135.179 733.159 135.179 732.602 135.179 732.044 135.008 731.615 134.669 731.315 134.329 731.013 133.847 730.863 133.223 730.863L131.443 730.863Z" fill="#AE5E0E" transform="matrix(1 0 0 1.00321 186.868 -43.8513)"/><path d="M145.493 731.181 141.965 736.405 145.493 736.405 145.493 731.181ZM144.958 728.531 148.535 728.531 148.535 736.405 150.315 736.405 150.315 738.737 148.535 738.737 148.535 741.01 145.493 741.01 145.493 738.737 139.959 738.737 139.959 735.978 144.958 728.531Z" fill="#AE5E0E" transform="matrix(1 0 0 1.00321 186.868 -43.8513)"/><path d="M152.053 728.531 162.543 728.531 162.543 730.478 155.848 738.577 162.735 738.577 162.735 741.01 151.861 741.01 151.861 739.062 158.556 730.963 152.053 730.963 152.053 728.531Z" fill="#AE5E0E" transform="matrix(1 0 0 1.00321 186.868 -43.8513)"/><path d="M167.298 736.22 163.922 731.649 167.09 731.649 169.004 734.424 170.942 731.649 174.111 731.649 170.734 736.204 174.277 741.01 171.11 741.01 169.004 738.051 166.922 741.01 163.755 741.01 167.298 736.22Z" fill="#AE5E0E" transform="matrix(1 0 0 1.00321 186.868 -43.8513)"/><path d="M175.506 731.649 183.672 731.649 183.672 733.738 178.741 738.87 183.672 738.87 183.672 741.01 175.297 741.01 175.297 738.92 180.228 733.788 175.506 733.788 175.506 731.649Z" fill="#AE5E0E" transform="matrix(1 0 0 1.00321 186.868 -43.8513)"/><path d="M185.929 731.649 188.921 731.649 188.921 741.01 185.929 741.01 185.929 731.649ZM185.929 728.005 188.921 728.005 188.921 730.445 185.929 730.445 185.929 728.005Z" fill="#AE5E0E" transform="matrix(1 0 0 1.00321 186.868 -43.8513)"/><path d="M191.946 728.531 195.164 728.531 195.164 733.086 199.803 728.531 203.539 728.531 197.53 734.44 204.158 741.01 200.129 741.01 195.164 736.095 195.164 741.01 191.946 741.01 191.946 728.531Z" fill="#AE5E0E" transform="matrix(1 0 0 1.00321 186.868 -43.8513)"/><path d="M207.451 736.22 204.074 731.649 207.242 731.649 209.156 734.424 211.095 731.649 214.263 731.649 210.886 736.204 214.429 741.01 211.262 741.01 209.156 738.051 207.074 741.01 203.907 741.01 207.451 736.22Z" fill="#AE5E0E" transform="matrix(1 0 0 1.00321 186.868 -43.8513)"/><path d="M215.658 731.649 223.824 731.649 223.824 733.738 218.893 738.87 223.824 738.87 223.824 741.01 215.449 741.01 215.449 738.92 220.381 733.788 215.658 733.788 215.658 731.649Z" fill="#AE5E0E" transform="matrix(1 0 0 1.00321 186.868 -43.8513)"/><path d="M233.034 734.197C232.773 734.076 232.51 733.986 232.249 733.93 231.993 733.869 231.733 733.838 231.472 733.838 230.702 733.838 230.11 734.087 229.692 734.582 229.279 735.072 229.073 735.777 229.073 736.697L229.073 741.01 226.08 741.01 226.08 731.649 229.073 731.649 229.073 733.186C229.457 732.574 229.897 732.128 230.393 731.849 230.895 731.565 231.494 731.422 232.19 731.422 232.291 731.422 232.4 731.428 232.516 731.439 232.633 731.445 232.804 731.462 233.026 731.49L233.034 734.197Z" fill="#AE5E0E" transform="matrix(1 0 0 1.00321 186.868 -43.8513)"/><path d="M234.673 728.531 237.891 728.531 237.891 738.577 243.541 738.577 243.541 741.01 234.673 741.01 234.673 728.531Z" fill="#AE5E0E" transform="matrix(1 0 0 1.00321 186.868 -43.8513)"/><path d="M245.814 728.531 253.812 728.531 253.812 730.896 248.38 730.896 248.38 732.827C248.626 732.76 248.87 732.71 249.116 732.677 249.366 732.638 249.625 732.618 249.893 732.618 251.414 732.618 252.598 733 253.445 733.763 254.292 734.521 254.715 735.579 254.715 736.939 254.715 738.287 254.253 739.343 253.328 740.107 252.408 740.87 251.13 741.252 249.492 741.252 248.784 741.252 248.082 741.182 247.385 741.042 246.695 740.909 246.006 740.703 245.321 740.425L245.321 737.892C246 738.282 246.644 738.575 247.252 738.769 247.864 738.965 248.441 739.062 248.982 739.062 249.762 739.062 250.375 738.872 250.821 738.494 251.272 738.109 251.497 737.591 251.497 736.939 251.497 736.282 251.272 735.763 250.821 735.385 250.375 735.006 249.762 734.816 248.982 734.816 248.519 734.816 248.026 734.878 247.502 735 246.978 735.117 246.415 735.301 245.814 735.551L245.814 728.531Z" fill="#AE5E0E" transform="matrix(1 0 0 1.00321 186.868 -43.8513)"/><path d="M257.473 728.531 260.691 728.531 260.691 738.577 266.341 738.577 266.341 741.01 257.473 741.01 257.473 728.531Z" fill="#AE5E0E" transform="matrix(1 0 0 1.00321 186.868 -43.8513)"/><path d="M276.914 733.203C277.294 732.624 277.742 732.184 278.26 731.882 278.783 731.576 279.358 731.422 279.982 731.422 281.057 731.422 281.877 731.755 282.439 732.417 283.002 733.081 283.284 734.045 283.284 735.309L283.284 741.01 280.274 741.01 280.274 736.128C280.28 736.056 280.283 735.98 280.283 735.903 280.288 735.825 280.291 735.713 280.291 735.568 280.291 734.906 280.193 734.426 279.999 734.13 279.803 733.83 279.489 733.679 279.054 733.679 278.486 733.679 278.046 733.914 277.734 734.382 277.427 734.85 277.268 735.526 277.257 736.413L277.257 741.01 274.248 741.01 274.248 736.128C274.248 735.092 274.159 734.426 273.981 734.13 273.802 733.83 273.485 733.679 273.028 733.679 272.454 733.679 272.011 733.916 271.699 734.39 271.387 734.858 271.231 735.529 271.231 736.405L271.231 741.01 268.222 741.01 268.222 731.649 271.231 731.649 271.231 733.019C271.599 732.49 272.019 732.092 272.493 731.824 272.972 731.557 273.499 731.422 274.073 731.422 274.719 731.422 275.29 731.579 275.786 731.891 276.282 732.203 276.658 732.641 276.914 733.203Z" fill="#AE5E0E" transform="matrix(1 0 0 1.00321 186.868 -43.8513)"/><path d="M286.225 728.531 290.32 728.531 293.162 735.209 296.021 728.531 300.108 728.531 300.108 741.01 297.066 741.01 297.066 731.882 294.19 738.611 292.151 738.611 289.276 731.882 289.276 741.01 286.225 741.01 286.225 728.531Z" fill="#AE5E0E" transform="matrix(1 0 0 1.00321 186.868 -43.8513)"/><path d="M308.274 733.362C308.781 733.362 309.166 733.25 309.427 733.028 309.689 732.804 309.82 732.476 309.82 732.041 309.82 731.612 309.689 731.287 309.427 731.063 309.166 730.835 308.781 730.721 308.274 730.721L306.493 730.721 306.493 733.362 308.274 733.362ZM308.382 738.819C309.029 738.819 309.514 738.684 309.836 738.41 310.166 738.137 310.33 737.725 310.33 737.173 310.33 736.633 310.169 736.229 309.845 735.961 309.522 735.688 309.034 735.551 308.382 735.551L306.493 735.551 306.493 738.819 308.382 738.819ZM311.375 734.331C312.065 734.532 312.6 734.903 312.979 735.443 313.359 735.983 313.547 736.647 313.547 737.432 313.547 738.636 313.141 739.533 312.328 740.124 311.514 740.714 310.277 741.01 308.617 741.01L303.275 741.01 303.275 728.531 308.107 728.531C309.839 728.531 311.094 728.793 311.868 729.317 312.648 729.841 313.038 730.679 313.038 731.832 313.038 732.44 312.896 732.958 312.611 733.387 312.328 733.81 311.915 734.125 311.375 734.331Z" fill="#AE5E0E" transform="matrix(1 0 0 1.00321 186.868 -43.8513)"/><path d="M323.134 734.197C322.872 734.076 322.611 733.986 322.349 733.93 322.093 733.869 321.833 733.838 321.572 733.838 320.803 733.838 320.209 734.087 319.791 734.582 319.379 735.072 319.173 735.777 319.173 736.697L319.173 741.01 316.181 741.01 316.181 731.649 319.173 731.649 319.173 733.186C319.557 732.574 319.997 732.128 320.493 731.849 320.995 731.565 321.594 731.422 322.29 731.422 322.39 731.422 322.499 731.428 322.617 731.439 322.733 731.445 322.903 731.462 323.126 731.49L323.135 734.197Z" fill="#AE5E0E" transform="matrix(1 0 0 1.00321 186.868 -43.8513)"/><path d="M324.179 731.649 332.345 731.649 332.345 733.738 327.413 738.87 332.345 738.87 332.345 741.01 323.97 741.01 323.97 738.92 328.901 733.788 324.179 733.788 324.179 731.649Z" fill="#AE5E0E" transform="matrix(1 0 0 1.00321 186.868 -43.8513)"/><path d="M334.602 731.649 337.594 731.649 337.594 740.842C337.594 742.096 337.293 743.051 336.691 743.709 336.089 744.372 335.217 744.704 334.075 744.704L332.596 744.704 332.596 742.74 333.114 742.74C333.683 742.74 334.072 742.611 334.284 742.355 334.496 742.099 334.602 741.594 334.602 740.842L334.602 731.649ZM334.602 728.005 337.594 728.005 337.594 730.445 334.602 730.445 334.602 728.005Z" fill="#AE5E0E" transform="matrix(1 0 0 1.00321 186.868 -43.8513)"/><path d="M347.44 734.197C347.178 734.076 346.916 733.986 346.654 733.93 346.397 733.869 346.139 733.838 345.876 733.838 345.108 733.838 344.514 734.087 344.096 734.582 343.684 735.072 343.478 735.777 343.478 736.697L343.478 741.01 340.486 741.01 340.486 731.649 343.478 731.649 343.478 733.186C343.863 732.574 344.303 732.128 344.799 731.849 345.3 731.565 345.899 731.422 346.596 731.422 346.696 731.422 346.804 731.428 346.921 731.439 347.039 731.445 347.208 731.462 347.431 731.49L347.44 734.197Z" fill="#AE5E0E" transform="matrix(1 0 0 1.00321 186.868 -43.8513)"/><path d="M349.077 728.531 352.295 728.531 352.295 739.797C352.295 741.352 351.872 742.514 351.025 743.283 350.184 744.052 348.908 744.436 347.197 744.436L346.545 744.436 346.545 742.004 347.047 742.004C347.715 742.004 348.219 741.818 348.56 741.444 348.905 741.07 349.077 740.522 349.077 739.797L349.077 728.531Z" fill="#AE5E0E" transform="matrix(1 0 0 1.00321 186.868 -43.8513)"/><path d="M362.418 734.64 366.746 741.01 363.395 741.01 360.478 736.747 357.586 741.01 354.218 741.01 358.547 734.64 354.385 728.531 357.745 728.531 360.478 732.551 363.203 728.531 366.58 728.531 362.418 734.64Z" fill="#AE5E0E" transform="matrix(1 0 0 1.00321 186.868 -43.8513)"/><path d="M31.8848 744.793 35.1026 744.793 35.1026 754.839 40.7527 754.839 40.7527 757.271 31.8848 757.271 31.8848 744.793Z" fill="#AE5E0E" transform="matrix(1 0 0 1.00321 186.868 -43.8513)"/><path d="M43.0261 744.793 51.0247 744.793 51.0247 747.158 45.5919 747.158 45.5919 749.088C45.8371 749.022 46.0823 748.972 46.3274 748.938 46.5782 748.899 46.8373 748.879 47.1048 748.879 48.626 748.879 49.81 749.261 50.657 750.024 51.5038 750.782 51.9273 751.84 51.9273 753.2 51.9273 754.549 51.4648 755.604 50.5399 756.368 49.6205 757.131 48.3418 757.513 46.7035 757.513 45.996 757.513 45.2939 757.443 44.5974 757.305 43.9064 757.171 43.2183 756.964 42.5329 756.686L42.5329 754.153C43.2127 754.544 43.8563 754.836 44.4636 755.03 45.0765 755.226 45.6532 755.323 46.1937 755.323 46.9738 755.323 47.5867 755.134 48.0325 754.755 48.4839 754.371 48.7095 753.852 48.7095 753.2 48.7095 752.543 48.4839 752.025 48.0325 751.646 47.5867 751.267 46.9738 751.077 46.1937 751.077 45.7312 751.077 45.2381 751.139 44.7143 751.262 44.1906 751.378 43.6278 751.562 43.0261 751.813L43.0261 744.793Z" fill="#AE5E0E" transform="matrix(1 0 0 1.00321 186.868 -43.8513)"/><path d="M54.6855 744.793 57.9033 744.793 57.9033 754.839 63.5534 754.839 63.5534 757.271 54.6855 757.271 54.6855 744.793Z" fill="#AE5E0E" transform="matrix(1 0 0 1.00321 186.868 -43.8513)"/><path d="M74.1264 749.465C74.5052 748.885 74.9538 748.445 75.472 748.143 75.9958 747.837 76.5697 747.684 77.1937 747.684 78.2692 747.684 79.0882 748.016 79.651 748.678 80.2138 749.342 80.4952 750.306 80.4952 751.571L80.4952 757.271 77.4863 757.271 77.4863 752.389C77.4919 752.317 77.4947 752.242 77.4947 752.164 77.5003 752.086 77.503 751.974 77.503 751.829 77.503 751.167 77.4055 750.688 77.2105 750.393 77.0155 750.091 76.7006 749.94 76.2661 749.94 75.6977 749.94 75.2575 750.175 74.9455 750.643 74.639 751.111 74.4802 751.787 74.469 752.674L74.469 757.271 71.4602 757.271 71.4602 752.389C71.4602 751.353 71.371 750.688 71.1927 750.393 71.0144 750.091 70.6968 749.94 70.2399 749.94 69.6659 749.94 69.223 750.178 68.911 750.651 68.5989 751.119 68.4429 751.791 68.4429 752.666L68.4429 757.271 65.434 757.271 65.434 747.91 68.4429 747.91 68.4429 749.281C68.8107 748.751 69.2314 748.353 69.705 748.086 70.1842 747.818 70.7107 747.684 71.2846 747.684 71.931 747.684 72.5021 747.84 72.998 748.152 73.494 748.464 73.87 748.902 74.1264 749.465Z" fill="#AE5E0E" transform="matrix(1 0 0 1.00321 186.868 -43.8513)"/><path d="M83.4372 744.793 87.5327 744.793 90.3744 751.47 93.2327 744.793 97.3196 744.793 97.3196 757.271 94.2777 757.271 94.2777 748.143 91.4024 754.872 89.3631 754.872 86.4879 748.143 86.4879 757.271 83.4372 757.271 83.4372 744.793Z" fill="#AE5E0E" transform="matrix(1 0 0 1.00321 186.868 -43.8513)"/><path d="M105.486 749.623C105.993 749.623 106.378 749.511 106.639 749.289 106.901 749.066 107.032 748.737 107.032 748.302 107.032 747.874 106.901 747.548 106.639 747.325 106.378 747.096 105.993 746.982 105.486 746.982L103.706 746.982 103.706 749.623 105.486 749.623ZM105.594 755.081C106.241 755.081 106.726 754.945 107.048 754.671 107.378 754.398 107.542 753.986 107.542 753.434 107.542 752.894 107.381 752.49 107.057 752.223 106.734 751.949 106.246 751.813 105.594 751.813L103.706 751.813 103.706 755.081 105.594 755.081ZM108.587 750.593C109.277 750.794 109.812 751.164 110.191 751.705 110.571 752.245 110.759 752.908 110.759 753.693 110.759 754.897 110.353 755.794 109.54 756.385 108.726 756.975 107.489 757.271 105.829 757.271L100.487 757.271 100.487 744.793 105.319 744.793C107.051 744.793 108.306 745.054 109.08 745.578 109.86 746.102 110.25 746.94 110.25 748.094 110.25 748.701 110.108 749.219 109.823 749.648 109.54 750.071 109.127 750.387 108.587 750.593Z" fill="#AE5E0E" transform="matrix(1 0 0 1.00321 186.868 -43.8513)"/><path d="M120.347 750.459C120.084 750.337 119.823 750.247 119.56 750.192 119.305 750.13 119.045 750.099 118.783 750.099 118.015 750.099 117.421 750.348 117.003 750.844 116.591 751.334 116.385 752.039 116.385 752.958L116.385 757.271 113.393 757.271 113.393 747.91 116.385 747.91 116.385 749.448C116.769 748.835 117.209 748.389 117.705 748.11 118.207 747.826 118.806 747.684 119.502 747.684 119.602 747.684 119.711 747.689 119.828 747.701 119.945 747.706 120.115 747.723 120.338 747.751L120.347 750.459Z" fill="#AE5E0E" transform="matrix(1 0 0 1.00321 186.868 -43.8513)"/><path d="M121.391 747.91 129.557 747.91 129.557 749.999 124.625 755.131 129.557 755.131 129.557 757.271 121.182 757.271 121.182 755.181 126.113 750.049 121.391 750.049 121.391 747.91Z" fill="#AE5E0E" transform="matrix(1 0 0 1.00321 186.868 -43.8513)"/><path d="M131.814 747.91 134.806 747.91 134.806 757.104C134.806 758.357 134.505 759.313 133.903 759.971 133.302 760.633 132.429 760.965 131.287 760.965L129.808 760.965 129.808 759.001 130.326 759.001C130.894 759.001 131.284 758.873 131.496 758.617 131.708 758.36 131.814 757.855 131.814 757.104L131.814 747.91ZM131.814 744.266 134.806 744.266 134.806 746.706 131.814 746.706 131.814 744.266Z" fill="#AE5E0E" transform="matrix(1 0 0 1.00321 186.868 -43.8513)"/><path d="M144.652 750.459C144.39 750.337 144.128 750.247 143.866 750.192 143.609 750.13 143.351 750.099 143.088 750.099 142.32 750.099 141.726 750.348 141.308 750.844 140.896 751.334 140.69 752.039 140.69 752.958L140.69 757.271 137.698 757.271 137.698 747.91 140.69 747.91 140.69 749.448C141.075 748.835 141.515 748.389 142.011 748.11 142.512 747.826 143.111 747.684 143.808 747.684 143.908 747.684 144.016 747.689 144.133 747.701 144.251 747.706 144.421 747.723 144.643 747.751L144.652 750.459Z" fill="#AE5E0E" transform="matrix(1 0 0 1.00321 186.868 -43.8513)"/><path d="M146.289 744.793 149.507 744.793 149.507 756.059C149.507 757.613 149.084 758.775 148.237 759.544 147.396 760.313 146.12 760.697 144.41 760.697L143.757 760.697 143.757 758.265 144.259 758.265C144.927 758.265 145.431 758.079 145.772 757.706 146.117 757.332 146.289 756.783 146.289 756.059L146.289 744.793Z" fill="#AE5E0E" transform="matrix(1 0 0 1.00321 186.868 -43.8513)"/><path d="M136.299 801.545 140.629 807.915 137.277 807.915 134.36 803.652 131.468 807.915 128.1 807.915 132.429 801.545 128.267 795.435 131.627 795.435 134.36 799.456 137.084 795.435 140.461 795.435 136.299 801.545Z" fill="#AE5E0E" transform="matrix(1 0 0 1.00321 186.868 -43.8513)"/><path d="M70.5067 765.861 70.5067 768.302C70.0999 768.023 69.6904 767.817 69.2781 767.683 68.8713 767.549 68.4479 767.483 68.0076 767.483 67.1718 767.483 66.5199 767.728 66.0519 768.218 65.5894 768.703 65.3582 769.383 65.3582 770.258 65.3582 771.132 65.5894 771.815 66.0519 772.305 66.5199 772.79 67.1718 773.033 68.0076 773.033 68.4757 773.033 68.9187 772.963 69.3366 772.823 69.76 772.684 70.1501 772.478 70.5067 772.204L70.5067 774.654C70.0386 774.827 69.5623 774.954 69.0775 775.038 68.5983 775.127 68.1163 775.172 67.6315 775.172 65.9432 775.172 64.6227 774.74 63.6698 773.877 62.717 773.007 62.2406 771.801 62.2406 770.258 62.2406 768.714 62.717 767.511 63.6698 766.646 64.6227 765.777 65.9432 765.343 67.6315 765.343 68.1219 765.343 68.6038 765.387 69.0775 765.477 69.5567 765.56 70.0331 765.689 70.5067 765.861Z" fill="#AE5E0E" transform="matrix(1 0 0 1.00321 186.868 -43.8513)"/><path d="M77.8618 768.77C77.299 768.77 76.8756 768.953 76.5914 769.322 76.3128 769.684 76.1735 770.23 76.1735 770.959 76.1735 771.69 76.3128 772.238 76.5914 772.606 76.8756 772.968 77.299 773.149 77.8618 773.149 78.4301 773.149 78.8536 772.968 79.1322 772.606 79.4164 772.238 79.5585 771.69 79.5585 770.959 79.5585 770.23 79.4164 769.684 79.1322 769.322 78.8536 768.953 78.4301 768.77 77.8618 768.77ZM81.8402 762.777 81.8402 765.084C81.3109 764.833 80.8122 764.649 80.3442 764.532 79.8761 764.409 79.4192 764.348 78.9734 764.348 78.015 764.348 77.2684 764.616 76.7335 765.151 76.1985 765.68 75.8865 766.469 75.7974 767.516 76.1651 767.243 76.5635 767.04 76.9926 766.906 77.4216 766.766 77.8897 766.697 78.3967 766.697 79.6727 766.697 80.7008 767.071 81.4808 767.817 82.2665 768.563 82.6594 769.541 82.6594 770.751 82.6594 772.088 82.2219 773.16 81.3471 773.969 80.4723 774.771 79.2994 775.172 77.8284 775.172 76.2069 775.172 74.9504 774.626 74.0589 773.534 73.173 772.436 72.7299 770.881 72.7299 768.87 72.7299 766.808 73.2481 765.19 74.2846 764.014 75.3265 762.833 76.7529 762.242 78.5639 762.242 79.1378 762.242 79.695 762.287 80.2355 762.376 80.7759 762.464 81.3109 762.598 81.8402 762.777Z" fill="#AE5E0E" transform="matrix(1 0 0 1.00321 186.868 -43.8513)"/><path d="M88.3595 764.883 88.3595 772.497 89.5129 772.497C90.8279 772.497 91.8309 772.172 92.5218 771.52 93.2188 770.867 93.5668 769.92 93.5668 768.678 93.5668 767.441 93.2215 766.499 92.5302 765.852 91.8392 765.207 90.8335 764.883 89.5129 764.883L88.3595 764.883ZM85.1417 762.451 88.5351 762.451C90.4296 762.451 91.8392 762.587 92.7642 762.861 93.6943 763.128 94.4917 763.585 95.1543 764.232 95.7396 764.794 96.1741 765.443 96.4589 766.178 96.7427 766.914 96.8851 767.747 96.8851 768.678 96.8851 769.619 96.7427 770.461 96.4589 771.202 96.1741 771.937 95.7396 772.587 95.1543 773.149 94.4862 773.796 93.684 774.255 92.7474 774.528 91.8114 774.796 90.4072 774.93 88.5351 774.93L85.1417 774.93 85.1417 762.451Z" fill="#AE5E0E" transform="matrix(1 0 0 1.00321 186.868 -43.8513)"/><path d="M108.035 762.844 108.035 765.485C107.349 765.179 106.68 764.947 106.029 764.791 105.376 764.635 104.761 764.557 104.181 764.557 103.413 764.557 102.844 764.663 102.477 764.875 102.108 765.087 101.925 765.415 101.925 765.861 101.925 766.195 102.047 766.457 102.292 766.646 102.543 766.831 102.994 766.99 103.646 767.123L105.017 767.399C106.405 767.677 107.391 768.101 107.976 768.669 108.561 769.238 108.854 770.046 108.854 771.093 108.854 772.47 108.444 773.495 107.624 774.169 106.811 774.838 105.566 775.172 103.888 775.172 103.097 775.172 102.304 775.096 101.507 774.947 100.71 774.796 99.9131 774.573 99.1165 774.278L99.1165 771.561C99.9131 771.985 100.682 772.305 101.423 772.523 102.17 772.734 102.889 772.84 103.579 772.84 104.282 772.84 104.819 772.723 105.193 772.489 105.566 772.255 105.752 771.921 105.752 771.486 105.752 771.096 105.625 770.796 105.368 770.583 105.118 770.371 104.613 770.182 103.856 770.015L102.61 769.739C101.362 769.471 100.448 769.045 99.8684 768.461 99.2943 767.875 99.0077 767.087 99.0077 766.095 99.0077 764.852 99.4087 763.896 100.211 763.228 101.014 762.559 102.167 762.225 103.672 762.225 104.356 762.225 105.062 762.278 105.786 762.384 106.511 762.484 107.26 762.638 108.035 762.844Z" fill="#AE5E0E" transform="matrix(1 0 0 1.00321 186.868 -43.8513)"/><path d="M111.553 765.569 114.545 765.569 114.545 774.93 111.553 774.93 111.553 765.569ZM111.553 761.925 114.545 761.925 114.545 764.365 111.553 764.365 111.553 761.925Z" fill="#AE5E0E" transform="matrix(1 0 0 1.00321 186.868 -43.8513)"/><path d="M117.571 762.451 120.789 762.451 120.789 769.931C120.789 770.962 120.956 771.701 121.29 772.147 121.63 772.587 122.182 772.806 122.945 772.806 123.714 772.806 124.265 772.587 124.6 772.147 124.94 771.701 125.11 770.962 125.11 769.931L125.11 762.451 128.328 762.451 128.328 769.931C128.328 771.698 127.885 773.013 126.999 773.877 126.112 774.74 124.761 775.172 122.945 775.172 121.134 775.172 119.786 774.74 118.9 773.877 118.014 773.013 117.571 771.698 117.571 769.931L117.571 762.451Z" fill="#AE5E0E" transform="matrix(1 0 0 1.00321 186.868 -43.8513)"/><path d="M46.9359 779.277 52.2766 779.277C53.8647 779.277 55.0822 779.631 55.9291 780.339 56.7817 781.041 57.208 782.044 57.208 783.348 57.208 784.658 56.7817 785.666 55.9291 786.374 55.0822 787.075 53.8647 787.427 52.2766 787.427L50.1537 787.427 50.1537 791.756 46.9359 791.756 46.9359 779.277ZM50.1537 781.609 50.1537 785.095 51.934 785.095C52.558 785.095 53.0401 784.944 53.38 784.644 53.7198 784.337 53.8897 783.905 53.8897 783.348 53.8897 782.791 53.7198 782.361 53.38 782.061 53.0401 781.76 52.558 781.609 51.934 781.609L50.1537 781.609Z" fill="#AE5E0E" transform="matrix(1 0 0 1.00321 186.868 -43.8513)"/><path d="M62.8187 781.602 59.2916 786.826 62.8187 786.826 62.8187 781.602ZM62.2839 778.953 65.8611 778.953 65.8611 786.826 67.6414 786.826 67.6414 789.158 65.8611 789.158 65.8611 791.431 62.8187 791.431 62.8187 789.158 57.2857 789.158 57.2857 786.4 62.2839 778.953Z" fill="#AE5E0E" transform="matrix(1 0 0 1.00321 186.868 -43.8513)"/><path d="M70.3543 779.522 80.8436 779.522 80.8436 781.469 74.1487 789.568 81.0358 789.568 81.0358 792.001 70.162 792.001 70.162 790.053 76.8568 781.954 70.3543 781.954 70.3543 779.522Z" fill="#AE5E0E" transform="matrix(1 0 0 1.00321 186.868 -43.8513)"/><path d="M105.284 779.522 108.502 779.522 108.502 784.077 113.141 779.522 116.877 779.522 110.867 785.431 117.496 792.001 113.467 792.001 108.502 787.086 108.502 792.001 105.284 792.001 105.284 779.522Z" fill="#AE5E0E" transform="matrix(1 0 0 1.00321 186.868 -43.8513)"/><path d="M120.789 787.211 117.412 782.639 120.579 782.639 122.494 785.414 124.433 782.639 127.6 782.639 124.223 787.194 127.768 792.001 124.6 792.001 122.494 789.042 120.413 792.001 117.244 792.001 120.789 787.211Z" fill="#AE5E0E" transform="matrix(1 0 0 1.00321 186.868 -43.8513)"/><path d="M128.996 782.639 137.162 782.639 137.162 784.729 132.231 789.86 137.162 789.86 137.162 792.001 128.788 792.001 128.788 789.911 133.719 784.779 128.996 784.779 128.996 782.639Z" fill="#AE5E0E" transform="matrix(1 0 0 1.00321 186.868 -43.8513)"/><path d="M47.8617 793.747 51.0795 793.747 51.0795 803.793 56.7296 803.793 56.7296 806.226 47.8617 806.226 47.8617 793.747Z" fill="#AE5E0E" transform="matrix(1 0 0 1.00321 186.868 -43.8513)"/><path d="M49.3768 811.591 49.3768 819.206 50.5302 819.206C51.8452 819.206 52.8482 818.879 53.5391 818.228 54.2356 817.576 54.5838 816.628 54.5838 815.386 54.5838 814.149 54.2384 813.208 53.5475 812.561 52.8566 811.914 51.8507 811.591 50.5302 811.591L49.3768 811.591ZM46.1589 809.159 49.5523 809.159C51.4468 809.159 52.8566 809.296 53.7815 809.569 54.712 809.836 55.5088 810.293 56.1719 810.94 56.7569 811.502 57.1916 812.152 57.4758 812.887 57.76 813.623 57.902 814.456 57.902 815.386 57.902 816.328 57.76 817.169 57.4758 817.911 57.1916 818.646 56.7569 819.295 56.1719 819.857 55.5032 820.504 54.7009 820.964 53.7648 821.236 52.8286 821.504 51.4246 821.638 49.5523 821.638L46.1589 821.638 46.1589 809.159Z" fill="#AE5E0E" transform="matrix(1 0 0 1.00321 186.868 -43.8513)"/><path d="M69.0516 809.553 69.0516 812.193C68.3662 811.887 67.6977 811.656 67.0457 811.499 66.3938 811.344 65.7781 811.266 65.1986 811.266 64.4296 811.266 63.8613 811.372 63.4936 811.583 63.1258 811.795 62.9419 812.124 62.9419 812.569 62.9419 812.903 63.0645 813.166 63.3097 813.355 63.5604 813.539 64.0117 813.698 64.6636 813.831L66.0344 814.108C67.4218 814.386 68.4081 814.809 68.9932 815.378 69.5782 815.946 69.8708 816.754 69.8708 817.802 69.8708 819.178 69.4612 820.204 68.6421 820.877 67.8286 821.546 66.5832 821.88 64.906 821.88 64.1148 821.88 63.3208 821.805 62.524 821.654 61.7272 821.504 60.9304 821.281 60.1336 820.986L60.1336 818.27C60.9304 818.693 61.6993 819.013 62.4404 819.231 63.1871 819.442 63.9059 819.548 64.5968 819.548 65.2989 819.548 65.8366 819.431 66.2099 819.198 66.5832 818.963 66.7699 818.629 66.7699 818.195 66.7699 817.805 66.6418 817.503 66.3854 817.292 66.1347 817.08 65.6305 816.891 64.8726 816.723L63.6273 816.448C62.3792 816.18 61.4653 815.754 60.8858 815.168 60.3119 814.584 60.025 813.795 60.025 812.804 60.025 811.561 60.4261 810.605 61.2285 809.937 62.0309 809.268 63.1843 808.934 64.6888 808.934 65.3741 808.934 66.079 808.987 66.8033 809.093 67.5276 809.192 68.2771 809.346 69.0516 809.553Z" fill="#AE5E0E" transform="matrix(1 0 0 1.00321 186.868 -43.8513)"/><path d="M72.5704 812.277 75.5626 812.277 75.5626 821.638 72.5704 821.638 72.5704 812.277ZM72.5704 808.633 75.5626 808.633 75.5626 811.073 72.5704 811.073 72.5704 808.633Z" fill="#AE5E0E" transform="matrix(1 0 0 1.00321 186.868 -43.8513)"/><path d="M78.5882 809.159 81.806 809.159 81.806 816.64C81.806 817.671 81.9732 818.409 82.3075 818.854 82.6474 819.295 83.1991 819.515 83.9624 819.515 84.7314 819.515 85.283 819.295 85.6173 818.854 85.9572 818.409 86.1271 817.671 86.1271 816.64L86.1271 809.159 89.345 809.159 89.345 816.64C89.345 818.406 88.902 819.721 88.0161 820.585 87.1301 821.449 85.7789 821.88 83.9624 821.88 82.1515 821.88 80.803 821.449 79.9171 820.585 79.0312 819.721 78.5882 818.406 78.5882 816.64L78.5882 809.159Z" fill="#AE5E0E" transform="matrix(1 0 0 1.00321 186.868 -43.8513)"/><path d="M108.97 814.692C109.644 814.692 110.126 814.567 110.416 814.316 110.711 814.066 110.859 813.653 110.859 813.079 110.859 812.511 110.711 812.104 110.416 811.859 110.126 811.614 109.644 811.491 108.97 811.491L107.616 811.491 107.616 814.692 108.97 814.692ZM107.616 816.916 107.616 821.638 104.398 821.638 104.398 809.159 109.312 809.159C110.956 809.159 112.16 809.435 112.923 809.987 113.692 810.538 114.077 811.411 114.077 812.603 114.077 813.427 113.876 814.105 113.475 814.634 113.079 815.163 112.48 815.554 111.678 815.804 112.118 815.904 112.511 816.132 112.856 816.49 113.208 816.841 113.561 817.376 113.918 818.094L115.664 821.638 112.238 821.638 110.717 818.537C110.41 817.913 110.098 817.486 109.781 817.258 109.469 817.029 109.05 816.916 108.527 816.916L107.616 816.916Z" fill="#AE5E0E" transform="matrix(1 0 0 1.00321 186.868 -43.8513)"/><path d="M121.833 814.224C121.197 814.224 120.71 814.458 120.37 814.926 120.036 815.394 119.868 816.075 119.868 816.966 119.868 817.858 120.036 818.537 120.37 819.005 120.71 819.473 121.197 819.708 121.833 819.708 122.473 819.708 122.961 819.473 123.296 819.005 123.635 818.537 123.806 817.858 123.806 816.966 123.806 816.075 123.635 815.394 123.296 814.926 122.961 814.458 122.473 814.224 121.833 814.224ZM123.806 820.284C123.393 820.835 122.938 821.239 122.443 821.496 121.947 821.752 121.373 821.88 120.721 821.88 119.568 821.88 118.621 821.423 117.879 820.51 117.138 819.59 116.768 818.409 116.768 816.966 116.768 815.523 117.138 814.347 117.879 813.438 118.621 812.525 119.568 812.068 120.721 812.068 121.373 812.068 121.947 812.196 122.443 812.452 122.938 812.709 123.393 813.113 123.806 813.665L123.806 812.277 126.814 812.277 126.814 825.199 123.806 825.199 123.806 820.284Z" fill="#AE5E0E" transform="matrix(1 0 0 1.00321 186.868 -43.8513)"/><path d="M136.242 814.91C137.083 815.127 137.722 815.506 138.156 816.047 138.597 816.581 138.816 817.264 138.816 818.094 138.816 819.331 138.343 820.272 137.395 820.919 136.448 821.56 135.066 821.88 133.25 821.88 132.609 821.88 131.966 821.827 131.319 821.721 130.679 821.622 130.043 821.468 129.413 821.262L129.413 818.78C130.015 819.08 130.612 819.309 131.202 819.465 131.798 819.615 132.383 819.691 132.957 819.691 133.81 819.691 134.462 819.543 134.913 819.248 135.37 818.952 135.598 818.529 135.598 817.977 135.598 817.409 135.365 816.98 134.897 816.69 134.434 816.395 133.748 816.247 132.84 816.247L131.553 816.247 131.553 814.175 132.907 814.175C133.715 814.175 134.317 814.049 134.712 813.798 135.108 813.542 135.306 813.155 135.306 812.636 135.306 812.157 135.114 811.787 134.729 811.524 134.345 811.263 133.801 811.132 133.1 811.132 132.582 811.132 132.058 811.19 131.528 811.308 130.999 811.425 130.472 811.597 129.948 811.826L129.948 809.469C130.584 809.29 131.214 809.156 131.837 809.068 132.462 808.978 133.075 808.934 133.676 808.934 135.298 808.934 136.509 809.201 137.311 809.736 138.12 810.265 138.524 811.065 138.524 812.135 138.524 812.864 138.331 813.464 137.947 813.932 137.563 814.394 136.994 814.72 136.242 814.91Z" fill="#AE5E0E" transform="matrix(1 0 0 1.00321 186.868 -43.8513)"/><path d="M121.438 794.629 124.656 794.629 124.656 805.896C124.656 807.45 124.233 808.613 123.386 809.381 122.544 810.15 121.268 810.534 119.558 810.534L118.905 810.534 118.905 808.103 119.407 808.103C120.076 808.103 120.58 807.916 120.92 807.543 121.265 807.169 121.438 806.62 121.438 805.896L121.438 794.629Z" fill="#AE5E0E" transform="matrix(1 0 0 1.00321 186.868 -43.8513)"/><path d="M62.8376 799.78 59.461 795.208 62.6287 795.208 64.5427 797.983 66.4817 795.208 69.6495 795.208 66.2728 799.763 69.8166 804.57 66.6489 804.57 64.5427 801.61 62.4615 804.57 59.2939 804.57 62.8376 799.78Z" fill="#AE5E0E" transform="matrix(1 0 0 1.00321 186.868 -43.8513)"/></g></g></g><g clip-path="url(#clip4)"><g clip-path="url(#clip5)"><g clip-path="url(#clip6)"><path d="M29.389 119.779C22.588 119.779 17.1114 125.259 17.1114 132.064L17.1114 210.162C17.1114 216.968 22.588 222.447 29.389 222.447L225.048 222.447C230.923 222.447 235.789 218.35 237.011 212.848 244.347 212.903 252.107 212.945 267.589 212.956 321.421 212.989 317.746 213.235 321.576 209.414 325.345 205.654 325.202 207.312 325.062 170.586 324.929 135.37 325.096 137.474 322.105 134.071 321.312 133.168 319.698 131.979 318.519 131.431L316.378 130.435 267.749 130.428 237.165 130.428C236.362 124.41 231.288 119.779 225.048 119.779ZM268.204 133.856C312.878 133.862 315.174 133.905 316.806 134.658 318.788 135.572 320.197 136.976 320.847 138.688 321.156 139.502 321.302 150.2 321.302 171.669L321.302 203.437 320.313 205.302C319.639 206.576 318.736 207.477 317.462 208.151L315.602 209.139 267.816 209.118C254.013 209.114 244.521 209.101 237.326 209.065L237.326 133.949C245.072 133.895 254.212 133.853 268.204 133.856ZM154.862 135.822C154.898 135.821 154.933 135.821 154.969 135.822 174.446 135.821 190.236 151.621 190.236 171.113 190.236 171.113 190.236 171.113 190.236 171.114 190.236 190.605 174.447 206.406 154.97 206.406 154.97 206.406 154.969 206.406 154.969 206.406 135.492 206.406 119.702 190.606 119.702 171.115 119.702 171.114 119.702 171.114 119.702 171.114 119.702 151.663 135.426 135.88 154.862 135.822ZM255.17 139.277C254.274 139.277 253.551 139.998 253.551 140.895L253.551 151.175C253.551 152.07 254.274 152.792 255.17 152.792L310.758 152.792C311.654 152.792 312.377 152.07 312.377 151.175L312.377 140.895C312.377 139.998 311.654 139.277 310.758 139.277ZM255.17 156.489C254.274 156.489 253.551 157.21 253.551 158.106L253.551 168.386C253.551 169.282 254.274 170.004 255.17 170.004L299.617 170.004C300.514 170.004 301.237 169.282 301.237 168.386L301.237 158.106C301.237 157.21 300.514 156.489 299.617 156.489ZM39.3851 161.488C39.4408 161.488 39.4966 161.488 39.5523 161.488 44.8641 161.487 49.1719 165.794 49.1737 171.11 49.1737 171.111 49.1737 171.113 49.1737 171.114 49.1737 176.429 44.8676 180.738 39.5557 180.738 39.5545 180.738 39.5535 180.738 39.5523 180.738 34.2418 180.737 29.9375 176.427 29.9377 171.114 29.9368 165.864 34.1399 161.581 39.3851 161.488ZM255.17 173.172C254.274 173.172 253.551 173.893 253.551 174.79L253.551 185.07C253.551 185.965 254.274 186.687 255.17 186.687L299.617 186.687C300.514 186.687 301.237 185.965 301.237 185.07L301.237 174.79C301.237 173.893 300.514 173.172 299.617 173.172ZM255.17 190.498C254.275 190.498 253.551 191.219 253.551 192.114L253.551 202.395C253.551 203.291 254.275 204.013 255.17 204.013L310.758 204.013C311.653 204.013 312.377 203.291 312.377 202.395L312.377 192.114C312.377 191.219 311.653 190.498 310.758 190.498Z" fill="#01919A" transform="matrix(1.00518 0 0 1 647 866.294)"/><path d="M164.44 171.114C164.44 176.43 160.138 180.739 154.832 180.739 149.525 180.739 145.223 176.43 145.223 171.114 145.223 165.798 149.525 161.489 154.832 161.489 160.138 161.489 164.44 165.798 164.44 171.114Z" fill="#01919A" transform="matrix(1.00518 0 0 1 647 866.294)"/></g></g></g><g clip-path="url(#clip7)"><g clip-path="url(#clip8)"><g clip-path="url(#clip9)"><path d="M-190.578-29.3439 193.202-29.3439 193.202 33.9057-190.578 33.9057Z" fill="#B2B2B2" fill-rule="evenodd" transform="matrix(1.00898 0 0 1 1271.67 697.72)"/><path d="M-190.578-29.3439 193.202-29.3439 193.202 33.9057-190.578 33.9057Z" stroke="#000000" stroke-width="2.75166" stroke-linecap="round" stroke-linejoin="round" fill="none" transform="matrix(1.00898 0 0 1 1271.67 697.72)"/><path d="M-135.753-24.284-92.9623-24.284-92.9623 27.5798-135.753 27.5798Z" fill="#FFFFFF" fill-rule="evenodd" transform="matrix(1.00898 0 0 1 1271.67 697.72)"/><path d="M-135.753-24.284-92.9623-24.284-92.9623 27.5798-135.753 27.5798Z" stroke="#000000" stroke-width="2.75166" stroke-linecap="round" stroke-linejoin="round" fill="none" transform="matrix(1.00898 0 0 1 1271.67 697.72)"/><path d="M-181.217-24.284-138.426-24.284-138.426 27.5798-181.217 27.5798Z" fill="#FFFFFF" fill-rule="evenodd" transform="matrix(1.00898 0 0 1 1271.67 697.72)"/><path d="M-181.217-24.284-138.426-24.284-138.426 27.5798-181.217 27.5798Z" stroke="#000000" stroke-width="2.75166" stroke-linecap="round" stroke-linejoin="round" fill="none" transform="matrix(1.00898 0 0 1 1271.67 697.72)"/><path d="M-43.4848-24.284-0.693923-24.284-0.693923 27.5798-43.4848 27.5798Z" fill="#FFFFFF" fill-rule="evenodd" transform="matrix(1.00898 0 0 1 1271.67 697.72)"/><path d="M-43.4848-24.284-0.693923-24.284-0.693923 27.5798-43.4848 27.5798Z" stroke="#000000" stroke-width="2.75166" stroke-linecap="round" stroke-linejoin="round" fill="none" transform="matrix(1.00898 0 0 1 1271.67 697.72)"/><path d="M-88.9496-24.284-46.1588-24.284-46.1588 27.5798-88.9496 27.5798Z" fill="#FFFFFF" fill-rule="evenodd" transform="matrix(1.00898 0 0 1 1271.67 697.72)"/><path d="M-88.9496-24.284-46.1588-24.284-46.1588 27.5798-88.9496 27.5798Z" stroke="#000000" stroke-width="2.75166" stroke-linecap="round" stroke-linejoin="round" fill="none" transform="matrix(1.00898 0 0 1 1271.67 697.72)"/><path d="M1.98056-24.284 46.1086-24.284 46.1086 27.5798 1.98056 27.5798Z" fill="#FFFFFF" fill-rule="evenodd" transform="matrix(1.00898 0 0 1 1271.67 697.72)"/><path d="M1.98056-24.284 46.1086-24.284 46.1086 27.5798 1.98056 27.5798Z" stroke="#000000" stroke-width="2.75166" stroke-linecap="round" stroke-linejoin="round" fill="none" transform="matrix(1.00898 0 0 1 1271.67 697.72)"/><path d="M48.7808-24.284 91.5716-24.284 91.5716 27.5798 48.7808 27.5798Z" fill="#FFFFFF" fill-rule="evenodd" transform="matrix(1.00898 0 0 1 1271.67 697.72)"/><path d="M48.7808-24.284 91.5716-24.284 91.5716 27.5798 48.7808 27.5798Z" stroke="#000000" stroke-width="2.75166" stroke-linecap="round" stroke-linejoin="round" fill="none" transform="matrix(1.00898 0 0 1 1271.67 697.72)"/><path d="M94.2489-24.284 137.04-24.284 137.04 27.5798 94.2489 27.5798Z" fill="#FFFFFF" fill-rule="evenodd" transform="matrix(1.00898 0 0 1 1271.67 697.72)"/><path d="M94.2489-24.284 137.04-24.284 137.04 27.5798 94.2489 27.5798Z" stroke="#000000" stroke-width="2.75166" stroke-linecap="round" stroke-linejoin="round" fill="none" transform="matrix(1.00898 0 0 1 1271.67 697.72)"/><path d="M141.052-24.284 183.843-24.284 183.843 27.5798 141.052 27.5798Z" fill="#FFFFFF" fill-rule="evenodd" transform="matrix(1.00898 0 0 1 1271.67 697.72)"/><path d="M141.052-24.284 183.843-24.284 183.843 27.5798 141.052 27.5798Z" stroke="#000000" stroke-width="2.75166" stroke-linecap="round" stroke-linejoin="round" fill="none" transform="matrix(1.00898 0 0 1 1271.67 697.72)"/><text font-family="Arial,Arial_MSFontService,sans-serif" font-weight="400" font-size="11744" transform="matrix(0.00472756 0 0 0.0046855 1094.92 719)">0<tspan font-size="11744" x="9739.01" y="0">0</tspan><tspan font-size="11744" x="20050.9" y="0">0</tspan><tspan font-size="11744" x="29217" y="0">1</tspan><tspan font-size="11744" x="38956" y="0">2</tspan><tspan font-size="11744" x="49267.9" y="0">3</tspan><tspan font-size="11744" x="58434" y="0">4</tspan><tspan font-size="11744" x="68745.8" y="0">5</tspan></text><path d="M-190.578-29.3439 193.202-29.3439 193.202 33.9057-190.578 33.9057Z" fill="#B2B2B2" fill-rule="evenodd" transform="matrix(1.00898 0 0 1 1271.67 697.72)"/><path d="M-190.578-29.3439 193.202-29.3439 193.202 33.9057-190.578 33.9057Z" stroke="#000000" stroke-width="2.75166" stroke-linecap="round" stroke-linejoin="round" fill="none" transform="matrix(1.00898 0 0 1 1271.67 697.72)"/><path d="M-135.753-24.284-92.9623-24.284-92.9623 27.5798-135.753 27.5798Z" fill="#FFFFFF" fill-rule="evenodd" transform="matrix(1.00898 0 0 1 1271.67 697.72)"/><path d="M-135.753-24.284-92.9623-24.284-92.9623 27.5798-135.753 27.5798Z" stroke="#000000" stroke-width="2.75166" stroke-linecap="round" stroke-linejoin="round" fill="none" transform="matrix(1.00898 0 0 1 1271.67 697.72)"/><path d="M-181.217-24.284-138.426-24.284-138.426 27.5798-181.217 27.5798Z" fill="#FFFFFF" fill-rule="evenodd" transform="matrix(1.00898 0 0 1 1271.67 697.72)"/><path d="M-181.217-24.284-138.426-24.284-138.426 27.5798-181.217 27.5798Z" stroke="#000000" stroke-width="2.75166" stroke-linecap="round" stroke-linejoin="round" fill="none" transform="matrix(1.00898 0 0 1 1271.67 697.72)"/><path d="M-43.4848-24.284-0.693923-24.284-0.693923 27.5798-43.4848 27.5798Z" fill="#FFFFFF" fill-rule="evenodd" transform="matrix(1.00898 0 0 1 1271.67 697.72)"/><path d="M-43.4848-24.284-0.693923-24.284-0.693923 27.5798-43.4848 27.5798Z" stroke="#000000" stroke-width="2.75166" stroke-linecap="round" stroke-linejoin="round" fill="none" transform="matrix(1.00898 0 0 1 1271.67 697.72)"/><path d="M-88.9496-24.284-46.1588-24.284-46.1588 27.5798-88.9496 27.5798Z" fill="#FFFFFF" fill-rule="evenodd" transform="matrix(1.00898 0 0 1 1271.67 697.72)"/><path d="M-88.9496-24.284-46.1588-24.284-46.1588 27.5798-88.9496 27.5798Z" stroke="#000000" stroke-width="2.75166" stroke-linecap="round" stroke-linejoin="round" fill="none" transform="matrix(1.00898 0 0 1 1271.67 697.72)"/><path d="M1.98056-24.284 46.1086-24.284 46.1086 27.5798 1.98056 27.5798Z" fill="#FFFFFF" fill-rule="evenodd" transform="matrix(1.00898 0 0 1 1271.67 697.72)"/><path d="M1.98056-24.284 46.1086-24.284 46.1086 27.5798 1.98056 27.5798Z" stroke="#000000" stroke-width="2.75166" stroke-linecap="round" stroke-linejoin="round" fill="none" transform="matrix(1.00898 0 0 1 1271.67 697.72)"/><path d="M48.7808-24.284 91.5716-24.284 91.5716 27.5798 48.7808 27.5798Z" fill="#FFFFFF" fill-rule="evenodd" transform="matrix(1.00898 0 0 1 1271.67 697.72)"/><path d="M48.7808-24.284 91.5716-24.284 91.5716 27.5798 48.7808 27.5798Z" stroke="#000000" stroke-width="2.75166" stroke-linecap="round" stroke-linejoin="round" fill="none" transform="matrix(1.00898 0 0 1 1271.67 697.72)"/><path d="M94.2489-24.284 137.04-24.284 137.04 27.5798 94.2489 27.5798Z" fill="#FFFFFF" fill-rule="evenodd" transform="matrix(1.00898 0 0 1 1271.67 697.72)"/><path d="M94.2489-24.284 137.04-24.284 137.04 27.5798 94.2489 27.5798Z" stroke="#000000" stroke-width="2.75166" stroke-linecap="round" stroke-linejoin="round" fill="none" transform="matrix(1.00898 0 0 1 1271.67 697.72)"/><path d="M141.052-24.284 183.843-24.284 183.843 27.5798 141.052 27.5798Z" fill="#FFFFFF" fill-rule="evenodd" transform="matrix(1.00898 0 0 1 1271.67 697.72)"/><path d="M141.052-24.284 183.843-24.284 183.843 27.5798 141.052 27.5798Z" stroke="#000000" stroke-width="2.75166" stroke-linecap="round" stroke-linejoin="round" fill="none" transform="matrix(1.00898 0 0 1 1271.67 697.72)"/><text font-family="Arial,Arial_MSFontService,sans-serif" font-weight="400" font-size="11744" transform="matrix(0.00472756 0 0 0.0046855 1094.92 719)">0<tspan font-size="11744" x="9739.01" y="0">0</tspan><tspan font-size="11744" x="20050.9" y="0">0</tspan><tspan font-size="11744" x="29217" y="0">1</tspan><tspan font-size="11744" x="38956" y="0">2</tspan><tspan font-size="11744" x="49267.9" y="0">3</tspan><tspan font-size="11744" x="58434" y="0">4</tspan><tspan font-size="11744" x="68745.8" y="0">5</tspan></text></g></g></g><path d="M720.5 698.781 819.753 698.781C820.703 698.781 821.472 699.551 821.472 700.5L821.472 946.43 818.035 946.43 818.035 700.5 819.753 702.219 720.5 702.219ZM833.503 941.846 819.753 969.346 806.003 941.846Z" fill="#79787A"/><path d="M0-1.71875 259.18-1.71875C260.129-1.71875 260.899-0.949239 260.899 0L260.899 245.93 257.461 245.93 257.461 0 259.18 1.71875 0 1.71875ZM272.93 241.347 259.18 268.847 245.43 241.347Z" fill="#79787A" transform="matrix(-1 1.22465e-16 1.22465e-16 1 1078.68 700.5)"/><path d="M1130 1005.33C1130 995.76 1137.76 988 1147.33 988L1398.67 988C1408.24 988 1416 995.76 1416 1005.33L1416 1074.67C1416 1084.24 1408.24 1092 1398.67 1092L1147.33 1092C1137.76 1092 1130 1084.24 1130 1074.67Z" fill="#204497" fill-rule="evenodd"/><text fill="#FFFFFF" font-family="Verdana,Verdana_MSFontService,sans-serif" font-weight="400" font-size="46" transform="matrix(1 0 0 1 1156.05 1058)">12345678</text><path d="M4.45422e-06-1.71875 116.341-1.71845 116.341 1.71905-4.45422e-06 1.71875ZM111.758-13.7497 139.258 0.000360892 111.758 13.7503Z" fill="#79787A" transform="matrix(1 0 0 -1 991.5 1040.5)"/><text font-family="Latha,Latha_MSFontService,sans-serif" font-weight="400" font-size="46" transform="translate(224.826 834)"> <tspan font-size="46" x="745.025" y="-6"> </tspan></text><text font-family="Arial,Arial_MSFontService,sans-serif" font-weight="400" font-size="46" transform="matrix(1 0 0 1 1353.7 828)">(</text><text font-family="Latha,Latha_MSFontService,sans-serif" font-weight="400" font-size="46" transform="translate(1369.17 828)"></text><text font-family="Arial,Arial_MSFontService,sans-serif" font-weight="400" font-size="46" transform="matrix(1 0 0 1 1560.53 828)">)<tspan font-size="46" x="-905.807" y="337">HOTP </tspan></text><text font-family="Latha,Latha_MSFontService,sans-serif" font-weight="400" font-size="46" transform="translate(794.512 1165)"></text><text font-family="Arial,Arial_MSFontService,sans-serif" font-weight="400" font-size="46" transform="matrix(1 0 0 1 737.793 1224)">Yubikey</text><text font-family="Latha,Latha_MSFontService,sans-serif" font-weight="400" font-size="46" transform="translate(1140.59 1162)">  <tspan font-size="46" x="-10.5875" y="56"></tspan></text></g></svg>