<svg width="1429" height="645" xmlns="http://www.w3.org/2000/svg" xmlns:xlink="http://www.w3.org/1999/xlink" xml:space="preserve" overflow="hidden"><defs><clipPath id="clip0"><rect x="1780" y="616" width="1429" height="645"/></clipPath><clipPath id="clip1"><rect x="2794" y="616" width="170" height="170"/></clipPath><clipPath id="clip2"><rect x="2794" y="616" width="170" height="170"/></clipPath><clipPath id="clip3"><rect x="2794" y="616" width="170" height="170"/></clipPath><clipPath id="clip4"><rect x="2368" y="975" width="131" height="131"/></clipPath><clipPath id="clip5"><rect x="2368" y="975" width="131" height="131"/></clipPath><clipPath id="clip6"><rect x="2368" y="975" width="131" height="131"/></clipPath><clipPath id="clip7"><rect x="1779" y="617" width="548" height="168"/></clipPath><clipPath id="clip8"><rect x="1779" y="617" width="548" height="168"/></clipPath><clipPath id="clip9"><rect x="1779" y="617" width="548" height="168"/></clipPath></defs><g clip-path="url(#clip0)" transform="translate(-1780 -616)"><g clip-path="url(#clip1)"><g clip-path="url(#clip2)"><g clip-path="url(#clip3)"><path d="M2830.12 678.674 2820.97 673.392 2826.25 664.233 2835.4 669.514 2830.12 678.674ZM2856.66 652.123 2851.38 642.974 2842.23 648.255 2847.51 657.404 2856.66 652.123ZM2963 700.5C2963 747.165 2925.16 785 2878.5 785 2831.84 785 2794 747.165 2794 700.5 2794 653.835 2831.84 616 2878.5 616 2925.16 616 2963 653.835 2963 700.5ZM2952.44 700.5C2952.44 659.735 2919.26 626.562 2878.5 626.562 2837.74 626.562 2804.56 659.735 2804.56 700.5 2804.56 741.265 2837.74 774.438 2878.5 774.438 2919.26 774.438 2952.44 741.265 2952.44 700.5ZM2878.5 637.135 2878.5 700.5 2815.12 700.5C2815.12 735.499 2843.5 763.875 2878.5 763.875L2878.5 763.885C2913.5 763.885 2941.88 735.509 2941.88 700.51 2941.88 665.512 2913.5 637.135 2878.5 637.135Z" fill="#DF7275"/></g></g></g><g clip-path="url(#clip4)"><g clip-path="url(#clip5)"><g clip-path="url(#clip6)"><path d="M2409.6 976 2420 976 2420 981.2 2409.6 981.2Z" fill="#DF7275"/><path d="M2430.4 976 2435.6 976 2435.6 981.2 2446 981.2 2446 986.4 2430.4 986.4Z" fill="#DF7275"/><path d="M2451.2 976 2456.4 976 2456.4 1033.2 2451.2 1033.2 2451.2 1022.8 2446 1022.8 2446 1028 2440.8 1028 2440.8 1022.8 2435.6 1022.8 2435.6 1017.6 2430.4 1017.6 2430.4 1002 2425.2 1002 2425.2 991.6 2409.6 991.6 2409.6 986.4 2420 986.4 2420 981.2 2425.2 981.2 2425.2 986.4 2430.4 986.4 2430.4 991.6 2446 991.6 2446 996.8 2435.6 996.8 2435.6 1012.4 2440.8 1012.4 2440.8 1007.2 2446 1007.2 2446 1017.6 2451.2 1017.6 2451.2 1002 2446 1002 2446 996.8 2451.2 996.8Z" fill="#DF7275"/><path d="M2368 976 2368 1012.4 2404.4 1012.4 2404.4 976 2368 976ZM2399.2 1007.2 2373.2 1007.2 2373.2 981.2 2399.2 981.2 2399.2 1007.2Z" fill="#DF7275"/><path d="M2461.6 976 2461.6 1012.4 2498 1012.4 2498 976 2461.6 976ZM2492.8 1007.2 2466.8 1007.2 2466.8 981.2 2492.8 981.2 2492.8 1007.2Z" fill="#DF7275"/><path d="M2378.4 986.4 2394 986.4 2394 1002 2378.4 1002Z" fill="#DF7275"/><path d="M2472 986.4 2487.6 986.4 2487.6 1002 2472 1002Z" fill="#DF7275"/><path d="M2409.6 996.8 2420 996.8 2420 1007.2 2414.8 1007.2 2414.8 1002 2409.6 1002Z" fill="#DF7275"/><path d="M2409.6 1007.2 2414.8 1007.2 2414.8 1012.4 2420 1012.4 2420 1007.2 2425.2 1007.2 2425.2 1017.6 2430.4 1017.6 2430.4 1022.8 2435.6 1022.8 2435.6 1028 2430.4 1028 2430.4 1033.2 2425.2 1033.2 2425.2 1022.8 2420 1022.8 2420 1017.6 2409.6 1017.6Z" fill="#DF7275"/><path d="M2394 1017.6 2404.4 1017.6 2404.4 1022.8 2394 1022.8Z" fill="#DF7275"/><path d="M2472 1017.6 2477.2 1017.6 2477.2 1022.8 2472 1022.8Z" fill="#DF7275"/><path d="M2482.4 1017.6 2487.6 1017.6 2487.6 1028 2498 1028 2498 1043.6 2487.6 1043.6 2487.6 1033.2 2482.4 1033.2Z" fill="#DF7275"/><path d="M2492.8 1017.6 2498 1017.6 2498 1022.8 2492.8 1022.8Z" fill="#DF7275"/><path d="M2373.2 1022.8 2383.6 1022.8 2383.6 1028 2373.2 1028Z" fill="#DF7275"/><path d="M2388.8 1022.8 2394 1022.8 2394 1028 2388.8 1028Z" fill="#DF7275"/><path d="M2368 1028 2373.2 1028 2373.2 1033.2 2368 1033.2Z" fill="#DF7275"/><path d="M2399.2 1028 2404.4 1028 2404.4 1033.2 2399.2 1033.2Z" fill="#DF7275"/><path d="M2378.4 1033.2 2388.8 1033.2 2388.8 1043.6 2383.6 1043.6 2383.6 1048.8 2378.4 1048.8 2378.4 1043.6 2373.2 1043.6 2373.2 1038.4 2378.4 1038.4Z" fill="#DF7275"/><path d="M2394 1033.2 2399.2 1033.2 2399.2 1038.4 2394 1038.4Z" fill="#DF7275"/><path d="M2446 1033.2 2451.2 1033.2 2451.2 1038.4 2446 1038.4Z" fill="#DF7275"/><path d="M2399.2 1038.4 2404.4 1038.4 2404.4 1043.6 2399.2 1043.6Z" fill="#DF7275"/><path d="M2368 1043.6 2373.2 1043.6 2373.2 1064.4 2368 1064.4Z" fill="#DF7275"/><path d="M2388.8 1043.6 2394 1043.6 2394 1048.8 2388.8 1048.8Z" fill="#DF7275"/><path d="M2383.6 1048.8 2388.8 1048.8 2388.8 1054 2383.6 1054Z" fill="#DF7275"/><path d="M2399.2 1048.8 2404.4 1048.8 2404.4 1054 2399.2 1054Z" fill="#DF7275"/><path d="M2409.6 1048.8 2414.8 1048.8 2414.8 1054 2420 1054 2420 1064.4 2414.8 1064.4 2414.8 1069.6 2409.6 1069.6Z" fill="#DF7275"/><path d="M2466.8 1048.8 2477.2 1048.8 2477.2 1054 2466.8 1054Z" fill="#DF7275"/><path d="M2487.6 1048.8 2498 1048.8 2498 1054 2487.6 1054Z" fill="#DF7275"/><path d="M2388.8 1054 2394 1054 2394 1059.2 2388.8 1059.2Z" fill="#DF7275"/><path d="M2378.4 1059.2 2383.6 1059.2 2383.6 1064.4 2378.4 1064.4Z" fill="#DF7275"/><path d="M2394 1059.2 2404.4 1059.2 2404.4 1064.4 2394 1064.4Z" fill="#DF7275"/><path d="M2420 1064.4 2425.2 1064.4 2425.2 1069.6 2420 1069.6Z" fill="#DF7275"/><path d="M2498 1064.4 2498 1059.2 2487.6 1059.2 2487.6 1054 2477.2 1054 2477.2 1059.2 2456.4 1059.2 2456.4 1054 2461.6 1054 2461.6 1048.8 2466.8 1048.8 2466.8 1043.6 2477.2 1043.6 2477.2 1048.8 2482.4 1048.8 2482.4 1033.2 2477.2 1033.2 2477.2 1028 2472 1028 2472 1033.2 2466.8 1033.2 2466.8 1028 2472 1028 2472 1022.8 2466.8 1022.8 2466.8 1017.6 2461.6 1017.6 2461.6 1033.2 2456.4 1033.2 2456.4 1048.8 2446 1048.8 2446 1038.4 2440.8 1038.4 2440.8 1048.8 2435.6 1048.8 2435.6 1033.2 2430.4 1033.2 2430.4 1043.6 2425.2 1043.6 2425.2 1033.2 2409.6 1033.2 2409.6 1038.4 2414.8 1038.4 2414.8 1048.8 2420 1048.8 2420 1054 2425.2 1054 2425.2 1048.8 2430.4 1048.8 2430.4 1054 2425.2 1054 2425.2 1064.4 2430.4 1064.4 2430.4 1069.6 2435.6 1069.6 2435.6 1059.2 2440.8 1059.2 2440.8 1069.6 2446 1069.6 2446 1064.4 2451.2 1064.4 2451.2 1069.6 2446 1069.6 2446 1074.8 2440.8 1074.8 2440.8 1090.4 2430.4 1090.4 2430.4 1095.6 2440.8 1095.6 2440.8 1100.8 2430.4 1100.8 2430.4 1106 2456.4 1106 2456.4 1100.8 2451.2 1100.8 2451.2 1095.6 2446 1095.6 2446 1080 2451.2 1080 2451.2 1085.2 2456.4 1085.2 2456.4 1090.4 2461.6 1090.4 2461.6 1085.2 2477.2 1085.2 2477.2 1090.4 2482.4 1090.4 2482.4 1085.2 2487.6 1085.2 2487.6 1080 2482.4 1080 2482.4 1069.6 2477.2 1069.6 2477.2 1064.4 2498 1064.4ZM2451.2 1059.2 2446 1059.2 2446 1054 2451.2 1054 2451.2 1059.2ZM2472 1080 2456.4 1080 2456.4 1064.4 2472 1064.4 2472 1080Z" fill="#DF7275"/><path d="M2425.2 1069.6 2430.4 1069.6 2430.4 1080 2425.2 1080Z" fill="#DF7275"/><path d="M2461.6 1069.6 2466.8 1069.6 2466.8 1074.8 2461.6 1074.8Z" fill="#DF7275"/><path d="M2492.8 1069.6 2498 1069.6 2498 1080 2492.8 1080Z" fill="#DF7275"/><path d="M2368 1069.6 2368 1106 2404.4 1106 2404.4 1069.6 2368 1069.6ZM2399.2 1100.8 2373.2 1100.8 2373.2 1074.8 2399.2 1074.8 2399.2 1100.8Z" fill="#DF7275"/><path d="M2409.6 1074.8 2420 1074.8 2420 1085.2 2425.2 1085.2 2425.2 1090.4 2420 1090.4 2420 1095.6 2414.8 1095.6 2414.8 1080 2409.6 1080Z" fill="#DF7275"/><path d="M2378.4 1080 2394 1080 2394 1095.6 2378.4 1095.6Z" fill="#DF7275"/><path d="M2430.4 1080 2435.6 1080 2435.6 1085.2 2430.4 1085.2Z" fill="#DF7275"/><path d="M2492.8 1085.2 2498 1085.2 2498 1106 2492.8 1106Z" fill="#DF7275"/><path d="M2451.2 1090.4 2456.4 1090.4 2456.4 1095.6 2451.2 1095.6Z" fill="#DF7275"/><path d="M2461.6 1090.4 2472 1090.4 2472 1095.6 2482.4 1095.6 2482.4 1106 2477.2 1106 2477.2 1100.8 2466.8 1100.8 2466.8 1106 2461.6 1106Z" fill="#DF7275"/><path d="M2482.4 1090.4 2487.6 1090.4 2487.6 1095.6 2482.4 1095.6Z" fill="#DF7275"/><path d="M2425.2 1095.6 2430.4 1095.6 2430.4 1100.8 2425.2 1100.8Z" fill="#DF7275"/><path d="M2414.8 1100.8 2420 1100.8 2420 1106 2414.8 1106Z" fill="#DF7275"/></g></g></g><g clip-path="url(#clip7)"><g clip-path="url(#clip8)"><g clip-path="url(#clip9)"><path d="M434.084 681.924 434.084 683.608 435.381 683.608C436.224 683.608 437.044 683.982 437.842 684.731 438.396 685.254 438.762 685.891 438.939 686.638 439.161 687.649 439.271 689.706 439.271 692.811L439.291 697.134 444.426 697.137 444.426 692.812C444.426 689.109 444.648 686.789 445.092 685.853 445.778 684.358 446.854 683.609 448.317 683.609L449.647 683.609 449.647 681.926 434.084 681.926ZM455.268 682.33 455.268 684.012 456.565 684.012C457.407 684.012 458.227 684.387 459.025 685.135 459.58 685.659 459.946 686.295 460.123 687.043 460.345 688.054 460.455 690.111 460.455 693.216L460.455 697.729 465.572 698.281 465.61 693.216C465.638 689.512 465.832 687.192 466.274 686.257 466.962 684.761 468.037 684.012 469.501 684.012L470.831 684.012 470.831 682.33 455.268 682.33ZM419.814 698.839 419.814 700.885 422.609 700.885C425.426 700.885 427.561 701.703 429.016 703.338 430.06 704.52 430.583 707.428 430.583 712.063L430.583 760.116C430.583 764.296 430.175 767.024 429.356 768.296 427.993 770.249 425.743 771.226 422.609 771.226L419.814 771.226 419.814 773.271 454.985 773.271C463.346 773.271 469.549 772.499 473.593 770.953 477.683 769.409 480.886 766.955 483.203 763.593 485.566 760.184 486.748 756.617 486.748 752.892 486.748 748.029 484.976 743.917 481.431 740.554 478.886 738.146 475.046 736.396 469.912 735.306 474.32 733.897 477.659 731.715 479.932 728.763 482.204 725.809 483.34 722.469 483.34 718.742 483.34 714.381 481.885 710.541 478.977 707.224 476.114 703.862 471.934 701.521 466.436 700.203 462.8 699.294 457.984 698.839 451.985 698.839L419.814 698.839ZM451.032 702.521C457.802 702.521 462.96 704.066 466.504 707.156 470.094 710.245 471.889 713.949 471.889 718.265 471.889 721.083 471.162 723.696 469.708 726.104 468.299 728.467 466.231 730.239 463.504 731.42 460.823 732.556 456.825 733.125 451.509 733.125 449.418 733.125 447.488 733.056 445.715 732.921 443.988 732.784 442.466 732.579 441.149 732.306L441.149 703.747C444.057 702.93 447.35 702.521 451.032 702.521ZM450.827 736.873C456.053 736.873 460.437 737.646 463.982 739.191 467.526 740.736 470.094 742.849 471.684 745.53 473.275 748.165 474.07 750.937 474.07 753.845 474.07 758.253 472.32 761.957 468.822 764.956 465.368 767.91 460.324 769.386 453.689 769.386 449.554 769.386 445.375 768.886 441.149 767.887L441.149 737.419C442.103 737.237 443.375 737.1 444.965 737.009 446.601 736.918 448.555 736.873 450.827 736.873ZM463.738 774.19 458.621 774.478 458.583 778.857C458.583 781.962 458.473 784.02 458.251 785.03 458.074 785.778 457.707 786.414 457.153 786.938 456.355 787.687 455.535 788.061 454.692 788.061L453.396 788.061 453.396 789.744 468.959 789.744 468.959 788.061 467.628 788.061C466.166 788.061 465.09 787.313 464.403 785.816 463.959 784.88 463.738 782.56 463.738 778.857L463.738 774.19ZM442.768 774.533 437.689 774.573 437.613 778.857C437.613 781.962 437.502 784.02 437.281 785.03 437.103 785.778 436.737 786.414 436.183 786.938 435.385 787.687 434.565 788.061 433.722 788.061L432.426 788.061 432.426 789.744 447.989 789.744 447.989 788.061 446.658 788.061C445.195 788.061 444.12 787.312 443.432 785.816 442.989 784.88 442.768 782.56 442.768 778.857L442.768 774.533Z" fill="#AE5E0E" transform="matrix(1.00277 0 0 1 1792.87 -38.9234)"/><path d="M452.377 655.931C445.732 655.931 440.35 661.312 440.35 667.958 440.35 669.291 440.615 670.555 441.017 671.751 418.32 675.791 399.723 691.663 391.882 712.789L378.572 712.789 378.572 722.081 368.732 722.081 368.732 728.642 366.923 728.642 366.588 741.749 368.742 741.749 368.742 748.31 378.581 748.31 378.581 757.605 392.129 757.605C399.971 778.688 418.354 794.609 441.026 798.64 440.624 799.836 440.359 801.102 440.359 802.435 440.359 809.081 445.741 814.461 452.387 814.461 459.033 814.461 464.413 809.081 464.413 802.435 464.413 801.102 464.148 799.836 463.747 798.64 490.775 793.832 511.917 772.228 516.077 744.978 517.206 745.329 518.384 745.577 519.631 745.577 526.278 745.577 531.657 740.196 531.657 733.549 531.641 726.912 526.259 721.529 519.614 721.529L519.622 721.536C518.204 721.536 516.854 721.826 515.59 722.279 510.346 696.506 489.724 676.373 463.738 671.752 464.139 670.555 464.405 669.291 464.405 667.959 464.405 661.313 459.024 655.931 452.378 655.931ZM452.05 680.336C482.624 680.337 507.408 705.121 507.408 735.694 507.408 766.268 482.624 791.053 452.05 791.053 421.477 791.053 396.692 766.268 396.692 735.694 396.692 705.121 421.477 680.337 452.05 680.336Z" fill="#AE5E0E" transform="matrix(1.00277 0 0 1 1792.87 -38.9234)"/><path d="M-12.757 736.742-9.92321 736.742-9.92321 728.699-12.8321 729.3-12.8321 727.115-9.93991 726.516-6.88929 726.516-6.88929 736.742-4.05541 736.742-4.05541 738.96-12.757 738.96-12.757 736.742Z" fill="#AE5E0E" transform="matrix(1.00277 0 0 1 1792.87 -38.9234)"/><path d="M2.02909 736.601 7.50514 736.601 7.50514 738.96-1.53825 738.96-1.53825 736.601 3.00428 732.591C3.40991 732.225 3.70997 731.867 3.90446 731.517 4.09894 731.166 4.19618 730.802 4.19618 730.425 4.19618 729.841 3.99891 729.371 3.6044 729.016 3.21543 728.661 2.69589 728.482 2.04577 728.482 1.54567 728.482 0.998343 728.591 0.403782 728.808-0.190776 729.019-0.827009 729.335-1.50492 729.758L-1.50492 727.024C-0.782557 726.785-0.0685307 726.604 0.63716 726.483 1.34285 726.354 2.03465 726.29 2.71256 726.29 4.20173 726.29 5.35751 726.618 6.17989 727.274 7.00782 727.929 7.42179 728.844 7.42179 730.016 7.42179 730.694 7.24676 731.327 6.89669 731.917 6.54663 732.5 5.81038 733.284 4.68794 734.267L2.02909 736.601Z" fill="#AE5E0E" transform="matrix(1.00277 0 0 1 1792.87 -38.9234)"/><path d="M17.9572 729.916 17.9572 732.35C17.5516 732.073 17.1431 731.867 16.7319 731.733 16.3263 731.6 15.904 731.533 15.465 731.533 14.6315 731.533 13.9814 731.777 13.5146 732.267 13.0534 732.75 12.8228 733.428 12.8228 734.301 12.8228 735.173 13.0534 735.853 13.5146 736.342 13.9814 736.826 14.6315 737.068 15.465 737.068 15.9318 737.068 16.3735 736.998 16.7903 736.859 17.2126 736.72 17.6015 736.515 17.9572 736.242L17.9572 738.684C17.4904 738.857 17.0153 738.985 16.5319 739.068 16.054 739.157 15.5733 739.201 15.0899 739.201 13.4062 739.201 12.0894 738.771 11.1392 737.91 10.189 737.043 9.71386 735.839 9.71386 734.301 9.71386 732.761 10.189 731.561 11.1392 730.699 12.0894 729.833 13.4062 729.399 15.0899 729.399 15.5789 729.399 16.0596 729.444 16.5319 729.533 17.0097 729.616 17.4848 729.744 17.9572 729.916Z" fill="#AE5E0E" transform="matrix(1.00277 0 0 1 1792.87 -38.9234)"/><path d="M25.2919 732.817C24.7307 732.817 24.3084 733.001 24.025 733.367 23.7471 733.728 23.6082 734.273 23.6082 735 23.6082 735.729 23.7471 736.275 24.025 736.643 24.3084 737.004 24.7307 737.184 25.2919 737.184 25.8586 737.184 26.2809 737.004 26.5588 736.643 26.8422 736.275 26.9839 735.729 26.9839 735 26.9839 734.273 26.8422 733.728 26.5588 733.367 26.2809 733.001 25.8586 732.817 25.2919 732.817ZM29.2593 726.841 29.2593 729.141C28.7314 728.891 28.2341 728.708 27.7673 728.591 27.3006 728.468 26.845 728.408 26.4005 728.408 25.4447 728.408 24.7001 728.674 24.1667 729.208 23.6333 729.736 23.322 730.522 23.2331 731.567 23.5999 731.294 23.9972 731.092 24.4251 730.958 24.8529 730.819 25.3197 730.749 25.8253 730.749 27.0978 730.749 28.1229 731.122 28.901 731.867 29.6844 732.611 30.0761 733.586 30.0761 734.792 30.0761 736.126 29.64 737.195 28.7675 738.001 27.8951 738.801 26.7255 739.201 25.2585 739.201 23.6416 739.201 22.3886 738.657 21.4995 737.568 20.616 736.473 20.1743 734.922 20.1743 732.917 20.1743 730.861 20.691 729.247 21.7245 728.074 22.7637 726.896 24.1861 726.307 25.9921 726.307 26.5643 726.307 27.12 726.352 27.659 726.441 28.198 726.53 28.7314 726.663 29.2593 726.841Z" fill="#AE5E0E" transform="matrix(1.00277 0 0 1 1792.87 -38.9234)"/><path d="M35.7606 728.941 35.7606 736.534 36.9108 736.534C38.2221 736.534 39.2224 736.209 39.9114 735.559 40.6059 734.908 40.9532 733.964 40.9532 732.725 40.9532 731.492 40.6087 730.553 39.9197 729.908 39.2307 729.264 38.2277 728.941 36.9108 728.941L35.7606 728.941ZM32.5516 726.516 35.9356 726.516C37.8248 726.516 39.2307 726.651 40.1531 726.924 41.0811 727.191 41.8756 727.646 42.5369 728.291 43.1203 728.853 43.5537 729.499 43.8371 730.232 44.1205 730.966 44.2622 731.797 44.2622 732.725 44.2622 733.664 44.1205 734.503 43.8371 735.243 43.5537 735.976 43.1203 736.623 42.5369 737.184 41.87 737.829 41.0699 738.287 40.1364 738.559 39.2029 738.826 37.8027 738.96 35.9356 738.96L32.5516 738.96 32.5516 726.516Z" fill="#AE5E0E" transform="matrix(1.00277 0 0 1 1792.87 -38.9234)"/><path d="M55.381 726.908 55.381 729.541C54.6975 729.236 54.0307 729.005 53.3806 728.85 52.7305 728.694 52.1164 728.616 51.5386 728.616 50.7717 728.616 50.205 728.722 49.8383 728.932 49.4715 729.144 49.2882 729.471 49.2882 729.916 49.2882 730.249 49.4104 730.511 49.6549 730.699 49.9049 730.883 50.3551 731.042 51.0051 731.174L52.3721 731.45C53.7557 731.727 54.7392 732.15 55.3227 732.717 55.9061 733.284 56.1978 734.089 56.1978 735.134 56.1978 736.506 55.7894 737.529 54.9725 738.201 54.1613 738.868 52.9194 739.201 51.2468 739.201 50.4578 739.201 49.666 739.126 48.8714 738.977 48.0768 738.826 47.2822 738.604 46.4876 738.309L46.4876 735.601C47.2822 736.023 48.049 736.342 48.788 736.559 49.5326 736.77 50.2495 736.876 50.9385 736.876 51.6386 736.876 52.1748 736.759 52.5471 736.526 52.9194 736.292 53.1056 735.959 53.1056 735.526 53.1056 735.137 52.9778 734.837 52.7221 734.625 52.4721 734.414 51.9692 734.225 51.2135 734.058L49.9716 733.784C48.727 733.517 47.8157 733.091 47.2378 732.509 46.6654 731.925 46.3793 731.139 46.3793 730.15 46.3793 728.91 46.7793 727.957 47.5795 727.291 48.3796 726.624 49.5298 726.29 51.0302 726.29 51.7136 726.29 52.4165 726.343 53.1389 726.449 53.8612 726.549 54.6086 726.702 55.381 726.908Z" fill="#AE5E0E" transform="matrix(1.00277 0 0 1 1792.87 -38.9234)"/><path d="M58.8899 729.625 61.8739 729.625 61.8739 738.96 58.8899 738.96 58.8899 729.625ZM58.8899 725.991 61.8739 725.991 61.8739 728.424 58.8899 728.424 58.8899 725.991Z" fill="#AE5E0E" transform="matrix(1.00277 0 0 1 1792.87 -38.9234)"/><path d="M64.8911 726.516 68.1001 726.516 68.1001 733.975C68.1001 735.003 68.2668 735.74 68.6002 736.184 68.9392 736.623 69.4893 736.842 70.2505 736.842 71.0173 736.842 71.5675 736.623 71.9008 736.184 72.2398 735.74 72.4092 735.003 72.4092 733.975L72.4092 726.516 75.6182 726.516 75.6182 733.975C75.6182 735.737 75.1764 737.048 74.293 737.91 73.4095 738.771 72.062 739.201 70.2505 739.201 68.4446 739.201 67.0999 738.771 66.2164 737.91 65.3329 737.048 64.8911 735.737 64.8911 733.975L64.8911 726.516Z" fill="#AE5E0E" transform="matrix(1.00277 0 0 1 1792.87 -38.9234)"/><path d="M83.4781 729.158 79.9607 734.367 83.4781 734.367 83.4781 729.158ZM82.9446 726.516 86.512 726.516 86.512 734.367 88.2873 734.367 88.2873 736.693 86.512 736.693 86.512 738.96 83.4781 738.96 83.4781 736.693 77.9603 736.693 77.9603 733.942 82.9446 726.516Z" fill="#AE5E0E" transform="matrix(1.00277 0 0 1 1792.87 -38.9234)"/><path d="M95.1889 732.034C95.8608 732.034 96.3415 731.908 96.631 731.658 96.9251 731.408 97.0727 730.997 97.0727 730.425 97.0727 729.858 96.9251 729.452 96.631 729.208 96.3415 728.963 95.8608 728.841 95.1889 728.841L93.8387 728.841 93.8387 732.034 95.1889 732.034ZM93.8387 734.251 93.8387 738.96 90.6295 738.96 90.6295 726.516 95.5304 726.516C97.1692 726.516 98.37 726.791 99.1309 727.341 99.8974 727.891 100.282 728.761 100.282 729.949 100.282 730.772 100.081 731.447 99.6812 731.975 99.2868 732.503 98.6892 732.892 97.8893 733.142 98.3282 733.242 98.7198 733.47 99.0641 733.826 99.4149 734.175 99.7675 734.709 100.123 735.425L101.865 738.96 98.4479 738.96 96.9307 735.867C96.6254 735.245 96.3136 734.82 95.9972 734.592 95.6863 734.365 95.2687 734.251 94.7472 734.251L93.8387 734.251Z" fill="#AE5E0E" transform="matrix(1.00277 0 0 1 1792.87 -38.9234)"/><path d="M108.016 731.567C107.382 731.567 106.896 731.8 106.557 732.267 106.224 732.733 106.057 733.412 106.057 734.301 106.057 735.19 106.224 735.867 106.557 736.334 106.896 736.801 107.382 737.034 108.016 737.034 108.655 737.034 109.141 736.801 109.475 736.334 109.814 735.867 109.983 735.19 109.983 734.301 109.983 733.412 109.814 732.733 109.475 732.267 109.141 731.8 108.655 731.567 108.016 731.567ZM109.983 737.61C109.571 738.159 109.119 738.562 108.625 738.818 108.13 739.073 107.558 739.201 106.907 739.201 105.758 739.201 104.813 738.746 104.073 737.834 103.335 736.917 102.965 735.74 102.965 734.301 102.965 732.861 103.335 731.688 104.073 730.783 104.813 729.871 105.758 729.416 106.907 729.416 107.558 729.416 108.13 729.544 108.625 729.799 109.119 730.055 109.571 730.458 109.983 731.008L109.983 729.625 112.984 729.625 112.984 742.51 109.983 742.51 109.983 737.61Z" fill="#AE5E0E" transform="matrix(1.00277 0 0 1 1792.87 -38.9234)"/><path d="M122.386 732.25C123.225 732.467 123.861 732.845 124.295 733.384 124.734 733.917 124.953 734.598 124.953 735.425 124.953 736.66 124.48 737.599 123.536 738.243 122.591 738.882 121.213 739.201 119.401 739.201 118.763 739.201 118.121 739.148 117.476 739.043 116.837 738.943 116.204 738.79 115.575 738.584L115.575 736.109C116.176 736.409 116.771 736.637 117.36 736.792 117.954 736.943 118.537 737.018 119.11 737.018 119.96 737.018 120.611 736.87 121.061 736.576 121.516 736.281 121.744 735.859 121.744 735.309 121.744 734.742 121.511 734.315 121.044 734.025 120.583 733.731 119.899 733.583 118.993 733.583L117.71 733.583 117.71 731.517 119.06 731.517C119.865 731.517 120.466 731.391 120.86 731.142 121.255 730.886 121.452 730.5 121.452 729.983 121.452 729.505 121.26 729.136 120.877 728.874 120.494 728.613 119.952 728.482 119.251 728.482 118.735 728.482 118.213 728.541 117.685 728.658 117.157 728.775 116.631 728.946 116.109 729.175L116.109 726.824C116.743 726.646 117.371 726.513 117.993 726.424 118.615 726.335 119.227 726.29 119.826 726.29 121.444 726.29 122.652 726.557 123.452 727.09 124.258 727.618 124.661 728.415 124.661 729.483 124.661 730.211 124.469 730.808 124.086 731.275 123.703 731.736 123.136 732.061 122.386 732.25Z" fill="#AE5E0E" transform="matrix(1.00277 0 0 1 1792.87 -38.9234)"/><path d="M127.87 726.516 133.196 726.516C134.78 726.516 135.993 726.869 136.838 727.574 137.689 728.274 138.114 729.275 138.114 730.575 138.114 731.88 137.689 732.886 136.838 733.592 135.993 734.292 134.78 734.642 133.196 734.642L131.079 734.642 131.079 738.96 127.87 738.96 127.87 726.516ZM131.079 728.841 131.079 732.317 132.854 732.317C133.477 732.317 133.958 732.166 134.296 731.867 134.635 731.561 134.805 731.131 134.805 730.575 134.805 730.019 134.635 729.591 134.296 729.292 133.958 728.991 133.477 728.841 132.854 728.841L131.079 728.841Z" fill="#AE5E0E" transform="matrix(1.00277 0 0 1 1792.87 -38.9234)"/><path d="M145.09 729.158 141.572 734.367 145.09 734.367 145.09 729.158ZM144.557 726.516 148.124 726.516 148.124 734.367 149.899 734.367 149.899 736.693 148.124 736.693 148.124 738.96 145.09 738.96 145.09 736.693 139.572 736.693 139.572 733.942 144.557 726.516Z" fill="#AE5E0E" transform="matrix(1.00277 0 0 1 1792.87 -38.9234)"/><path d="M151.632 726.516 162.093 726.516 162.093 728.457 155.417 736.534 162.285 736.534 162.285 738.96 151.441 738.96 151.441 737.018 158.117 728.941 151.632 728.941 151.632 726.516Z" fill="#AE5E0E" transform="matrix(1.00277 0 0 1 1792.87 -38.9234)"/><path d="M166.835 734.184 163.469 729.625 166.627 729.625 168.536 732.392 170.469 729.625 173.629 729.625 170.261 734.167 173.795 738.96 170.636 738.96 168.536 736.009 166.46 738.96 163.302 738.96 166.835 734.184Z" fill="#AE5E0E" transform="matrix(1.00277 0 0 1 1792.87 -38.9234)"/><path d="M175.021 729.625 183.164 729.625 183.164 731.708 178.247 736.826 183.164 736.826 183.164 738.96 174.812 738.96 174.812 736.876 179.729 731.758 175.021 731.758 175.021 729.625Z" fill="#AE5E0E" transform="matrix(1.00277 0 0 1 1792.87 -38.9234)"/><path d="M185.414 729.625 188.398 729.625 188.398 738.96 185.414 738.96 185.414 729.625ZM185.414 725.991 188.398 725.991 188.398 728.424 185.414 728.424 185.414 725.991Z" fill="#AE5E0E" transform="matrix(1.00277 0 0 1 1792.87 -38.9234)"/><path d="M191.415 726.516 194.624 726.516 194.624 731.058 199.25 726.516 202.976 726.516 196.983 732.409 203.593 738.96 199.575 738.96 194.624 734.058 194.624 738.96 191.415 738.96 191.415 726.516Z" fill="#AE5E0E" transform="matrix(1.00277 0 0 1 1792.87 -38.9234)"/><path d="M206.877 734.184 203.51 729.625 206.668 729.625 208.577 732.392 210.511 729.625 213.67 729.625 210.302 734.167 213.836 738.96 210.677 738.96 208.577 736.009 206.501 738.96 203.342 738.96 206.877 734.184Z" fill="#AE5E0E" transform="matrix(1.00277 0 0 1 1792.87 -38.9234)"/><path d="M215.062 729.625 223.205 729.625 223.205 731.708 218.287 736.826 223.205 736.826 223.205 738.96 214.853 738.96 214.853 736.876 219.771 731.758 215.062 731.758 215.062 729.625Z" fill="#AE5E0E" transform="matrix(1.00277 0 0 1 1792.87 -38.9234)"/><path d="M232.39 732.166C232.129 732.045 231.867 731.956 231.606 731.9 231.351 731.839 231.092 731.808 230.832 731.808 230.064 731.808 229.473 732.056 229.056 732.55 228.644 733.039 228.439 733.742 228.439 734.659L228.439 738.96 225.455 738.96 225.455 729.625 228.439 729.625 228.439 731.158C228.823 730.547 229.261 730.103 229.756 729.824 230.256 729.541 230.854 729.399 231.548 729.399 231.648 729.399 231.757 729.405 231.873 729.416 231.99 729.421 232.16 729.438 232.381 729.466L232.39 732.166Z" fill="#AE5E0E" transform="matrix(1.00277 0 0 1 1792.87 -38.9234)"/><path d="M234.024 726.516 237.233 726.516 237.233 736.534 242.867 736.534 242.867 738.96 234.024 738.96 234.024 726.516Z" fill="#AE5E0E" transform="matrix(1.00277 0 0 1 1792.87 -38.9234)"/><path d="M245.134 726.516 253.11 726.516 253.11 728.874 247.693 728.874 247.693 730.799C247.938 730.733 248.182 730.683 248.427 730.65 248.676 730.611 248.934 730.592 249.202 730.592 250.719 730.592 251.899 730.972 252.744 731.733 253.588 732.489 254.01 733.544 254.01 734.9 254.01 736.245 253.549 737.298 252.627 738.06 251.71 738.821 250.435 739.201 248.802 739.201 248.096 739.201 247.396 739.132 246.701 738.992 246.012 738.86 245.326 738.654 244.643 738.376L244.643 735.85C245.32 736.239 245.962 736.531 246.568 736.725 247.179 736.92 247.754 737.018 248.293 737.018 249.071 737.018 249.682 736.828 250.127 736.451 250.577 736.068 250.801 735.551 250.801 734.9 250.801 734.245 250.577 733.728 250.127 733.35 249.682 732.973 249.071 732.783 248.293 732.783 247.832 732.783 247.34 732.845 246.818 732.967 246.295 733.083 245.734 733.267 245.134 733.517L245.134 726.516Z" fill="#AE5E0E" transform="matrix(1.00277 0 0 1 1792.87 -38.9234)"/><path d="M256.761 726.516 259.97 726.516 259.97 736.534 265.604 736.534 265.604 738.96 256.761 738.96 256.761 726.516Z" fill="#AE5E0E" transform="matrix(1.00277 0 0 1 1792.87 -38.9234)"/><path d="M276.148 731.174C276.527 730.597 276.974 730.158 277.491 729.858 278.012 729.552 278.585 729.399 279.207 729.399 280.279 729.399 281.097 729.73 281.657 730.391 282.219 731.053 282.5 732.014 282.5 733.275L282.5 738.96 279.499 738.96 279.499 734.092C279.504 734.019 279.507 733.944 279.507 733.867 279.513 733.789 279.516 733.678 279.516 733.533 279.516 732.873 279.418 732.395 279.224 732.1 279.029 731.8 278.716 731.649 278.282 731.649 277.715 731.649 277.276 731.883 276.965 732.35 276.659 732.817 276.501 733.492 276.49 734.376L276.49 738.96 273.489 738.96 273.489 734.092C273.489 733.058 273.4 732.395 273.223 732.1 273.045 731.8 272.728 731.649 272.273 731.649 271.7 731.649 271.258 731.886 270.948 732.358 270.636 732.825 270.481 733.494 270.481 734.367L270.481 738.96 267.48 738.96 267.48 729.625 270.481 729.625 270.481 730.992C270.847 730.464 271.267 730.066 271.739 729.799 272.217 729.533 272.742 729.399 273.315 729.399 273.959 729.399 274.529 729.555 275.023 729.866 275.518 730.178 275.893 730.614 276.148 731.174Z" fill="#AE5E0E" transform="matrix(1.00277 0 0 1 1792.87 -38.9234)"/><path d="M285.433 726.516 289.517 726.516 292.351 733.175 295.202 726.516 299.277 726.516 299.277 738.96 296.244 738.96 296.244 729.858 293.377 736.568 291.342 736.568 288.476 729.858 288.476 738.96 285.433 738.96 285.433 726.516Z" fill="#AE5E0E" transform="matrix(1.00277 0 0 1 1792.87 -38.9234)"/><path d="M307.421 731.333C307.927 731.333 308.31 731.222 308.571 731 308.833 730.777 308.963 730.45 308.963 730.016 308.963 729.588 308.833 729.264 308.571 729.041 308.31 728.814 307.927 728.699 307.421 728.699L305.645 728.699 305.645 731.333 307.421 731.333ZM307.529 736.776C308.174 736.776 308.657 736.64 308.979 736.367 309.308 736.095 309.471 735.684 309.471 735.134 309.471 734.595 309.311 734.192 308.988 733.925 308.666 733.653 308.179 733.517 307.529 733.517L305.645 733.517 305.645 736.776 307.529 736.776ZM310.513 732.3C311.202 732.5 311.735 732.87 312.113 733.409 312.492 733.947 312.68 734.609 312.68 735.392 312.68 736.593 312.275 737.487 311.464 738.077 310.652 738.665 309.418 738.96 307.763 738.96L302.436 738.96 302.436 726.516 307.254 726.516C308.982 726.516 310.233 726.777 311.005 727.299 311.783 727.822 312.172 728.658 312.172 729.807 312.172 730.413 312.031 730.93 311.747 731.358 311.464 731.78 311.052 732.094 310.513 732.3Z" fill="#AE5E0E" transform="matrix(1.00277 0 0 1 1792.87 -38.9234)"/><path d="M322.24 732.166C321.979 732.045 321.718 731.956 321.457 731.9 321.202 731.839 320.943 731.808 320.682 731.808 319.915 731.808 319.323 732.056 318.907 732.55 318.496 733.039 318.29 733.742 318.29 734.659L318.29 738.96 315.306 738.96 315.306 729.625 318.29 729.625 318.29 731.158C318.673 730.547 319.112 730.103 319.606 729.824 320.107 729.541 320.704 729.399 321.398 729.399 321.499 729.399 321.607 729.405 321.724 729.416 321.84 729.421 322.01 729.438 322.233 729.466L322.241 732.166Z" fill="#AE5E0E" transform="matrix(1.00277 0 0 1 1792.87 -38.9234)"/><path d="M323.282 729.625 331.426 729.625 331.426 731.708 326.508 736.826 331.426 736.826 331.426 738.96 323.074 738.96 323.074 736.876 327.992 731.758 323.282 731.758 323.282 729.625Z" fill="#AE5E0E" transform="matrix(1.00277 0 0 1 1792.87 -38.9234)"/><path d="M333.676 729.625 336.66 729.625 336.66 738.793C336.66 740.043 336.36 740.996 335.76 741.652 335.159 742.313 334.29 742.644 333.151 742.644L331.676 742.644 331.676 740.685 332.192 740.685C332.759 740.685 333.148 740.557 333.359 740.302 333.57 740.046 333.676 739.543 333.676 738.793L333.676 729.625ZM333.676 725.991 336.66 725.991 336.66 728.424 333.676 728.424 333.676 725.991Z" fill="#AE5E0E" transform="matrix(1.00277 0 0 1 1792.87 -38.9234)"/><path d="M346.478 732.166C346.218 732.045 345.956 731.956 345.695 731.9 345.439 731.839 345.181 731.808 344.919 731.808 344.153 731.808 343.561 732.056 343.144 732.55 342.733 733.039 342.528 733.742 342.528 734.659L342.528 738.96 339.544 738.96 339.544 729.625 342.528 729.625 342.528 731.158C342.911 730.547 343.35 730.103 343.845 729.824 344.345 729.541 344.942 729.399 345.637 729.399 345.737 729.399 345.845 729.405 345.962 729.416 346.079 729.421 346.247 729.438 346.47 729.466L346.478 732.166Z" fill="#AE5E0E" transform="matrix(1.00277 0 0 1 1792.87 -38.9234)"/><path d="M348.112 726.516 351.321 726.516 351.321 737.751C351.321 739.301 350.898 740.46 350.054 741.227 349.215 741.994 347.943 742.377 346.236 742.377L345.587 742.377 345.587 739.951 346.087 739.951C346.753 739.951 347.256 739.765 347.596 739.393 347.94 739.02 348.112 738.474 348.112 737.751L348.112 726.516Z" fill="#AE5E0E" transform="matrix(1.00277 0 0 1 1792.87 -38.9234)"/><path d="M361.415 732.608 365.732 738.96 362.389 738.96 359.481 734.709 356.597 738.96 353.238 738.96 357.556 732.608 353.405 726.516 356.756 726.516 359.481 730.525 362.198 726.516 365.566 726.516 361.415 732.608Z" fill="#AE5E0E" transform="matrix(1.00277 0 0 1 1792.87 -38.9234)"/><path d="M31.7966 742.732 35.0055 742.732 35.0055 752.75 40.6399 752.75 40.6399 755.176 31.7966 755.176 31.7966 742.732Z" fill="#AE5E0E" transform="matrix(1.00277 0 0 1 1792.87 -38.9234)"/><path d="M42.907 742.732 50.8835 742.732 50.8835 745.091 45.4658 745.091 45.4658 747.016C45.7103 746.95 45.9548 746.9 46.1993 746.866 46.4494 746.827 46.7077 746.808 46.9745 746.808 48.4914 746.808 49.6722 747.188 50.5168 747.949 51.3614 748.705 51.7837 749.761 51.7837 751.116 51.7837 752.462 51.3225 753.514 50.4001 754.276 49.4832 755.037 48.208 755.417 46.5744 755.417 45.8687 755.417 45.1686 755.348 44.474 755.21 43.785 755.076 43.0987 754.87 42.4152 754.593L42.4152 752.067C43.0932 752.456 43.735 752.748 44.3406 752.942 44.9518 753.137 45.527 753.234 46.0659 753.234 46.8438 753.234 47.4551 753.045 47.8997 752.667 48.3497 752.284 48.5748 751.767 48.5748 751.116 48.5748 750.461 48.3497 749.944 47.8997 749.567 47.4551 749.189 46.8438 749 46.0659 749 45.6047 749 45.113 749.061 44.5906 749.183 44.0684 749.299 43.5071 749.483 42.907 749.733L42.907 742.732Z" fill="#AE5E0E" transform="matrix(1.00277 0 0 1 1792.87 -38.9234)"/><path d="M54.5343 742.732 57.7432 742.732 57.7432 752.75 63.3776 752.75 63.3776 755.176 54.5343 755.176 54.5343 742.732Z" fill="#AE5E0E" transform="matrix(1.00277 0 0 1 1792.87 -38.9234)"/><path d="M73.9213 747.391C74.2991 746.813 74.7465 746.374 75.2632 746.074 75.7855 745.768 76.3579 745.615 76.9802 745.615 78.0526 745.615 78.8694 745.947 79.4307 746.607 79.9919 747.269 80.2725 748.23 80.2725 749.492L80.2725 755.176 77.2719 755.176 77.2719 750.308C77.2775 750.236 77.2803 750.161 77.2803 750.084 77.2859 750.006 77.2886 749.894 77.2886 749.749 77.2886 749.089 77.1914 748.611 76.9969 748.317 76.8025 748.016 76.4885 747.866 76.0551 747.866 75.4883 747.866 75.0493 748.1 74.7381 748.566 74.4325 749.033 74.2741 749.708 74.263 750.592L74.263 755.176 71.2625 755.176 71.2625 750.308C71.2625 749.274 71.1735 748.611 70.9957 748.317 70.8179 748.016 70.5012 747.866 70.0456 747.866 69.4732 747.866 69.0315 748.102 68.7204 748.575 68.4091 749.041 68.2536 749.711 68.2536 750.584L68.2536 755.176 65.253 755.176 65.253 745.841 68.2536 745.841 68.2536 747.208C68.6203 746.68 69.0399 746.283 69.5122 746.016 69.99 745.749 70.5151 745.615 71.0874 745.615 71.732 745.615 72.3016 745.771 72.7961 746.082 73.2907 746.394 73.6657 746.83 73.9213 747.391Z" fill="#AE5E0E" transform="matrix(1.00277 0 0 1 1792.87 -38.9234)"/><path d="M83.2064 742.732 87.2905 742.732 90.1244 749.391 92.9748 742.732 97.0504 742.732 97.0504 755.176 94.0169 755.176 94.0169 746.074 91.1496 752.784 89.1159 752.784 86.2486 746.074 86.2486 755.176 83.2064 755.176 83.2064 742.732Z" fill="#AE5E0E" transform="matrix(1.00277 0 0 1 1792.87 -38.9234)"/><path d="M105.194 747.549C105.7 747.549 106.083 747.438 106.344 747.216 106.606 746.993 106.736 746.666 106.736 746.232 106.736 745.805 106.606 745.48 106.344 745.257 106.083 745.03 105.7 744.916 105.194 744.916L103.419 744.916 103.419 747.549 105.194 747.549ZM105.302 752.992C105.947 752.992 106.43 752.856 106.752 752.583 107.081 752.312 107.244 751.901 107.244 751.35 107.244 750.811 107.084 750.408 106.761 750.142 106.439 749.869 105.952 749.733 105.302 749.733L103.419 749.733 103.419 752.992 105.302 752.992ZM108.286 748.516C108.975 748.717 109.508 749.086 109.886 749.625 110.265 750.164 110.453 750.825 110.453 751.608 110.453 752.809 110.048 753.704 109.236 754.293 108.425 754.881 107.191 755.176 105.536 755.176L100.209 755.176 100.209 742.732 105.027 742.732C106.755 742.732 108.006 742.993 108.778 743.515 109.556 744.038 109.945 744.874 109.945 746.025 109.945 746.63 109.803 747.146 109.52 747.574 109.236 747.997 108.825 748.311 108.286 748.516Z" fill="#AE5E0E" transform="matrix(1.00277 0 0 1 1792.87 -38.9234)"/><path d="M120.014 748.383C119.752 748.261 119.491 748.172 119.23 748.116 118.975 748.055 118.716 748.024 118.455 748.024 117.688 748.024 117.096 748.272 116.68 748.767 116.269 749.256 116.063 749.958 116.063 750.875L116.063 755.176 113.079 755.176 113.079 745.841 116.063 745.841 116.063 747.375C116.446 746.763 116.885 746.319 117.379 746.04 117.88 745.757 118.477 745.615 119.171 745.615 119.272 745.615 119.38 745.621 119.497 745.632 119.613 745.638 119.783 745.654 120.006 745.682L120.014 748.383Z" fill="#AE5E0E" transform="matrix(1.00277 0 0 1 1792.87 -38.9234)"/><path d="M121.055 745.841 129.199 745.841 129.199 747.924 124.281 753.042 129.199 753.042 129.199 755.176 120.847 755.176 120.847 753.092 125.764 747.974 121.055 747.974 121.055 745.841Z" fill="#AE5E0E" transform="matrix(1.00277 0 0 1 1792.87 -38.9234)"/><path d="M131.449 745.841 134.433 745.841 134.433 755.009C134.433 756.259 134.133 757.212 133.532 757.868 132.933 758.529 132.063 758.86 130.924 758.86L129.449 758.86 129.449 756.901 129.965 756.901C130.532 756.901 130.921 756.773 131.132 756.518 131.343 756.262 131.449 755.759 131.449 755.009L131.449 745.841ZM131.449 742.207 134.433 742.207 134.433 744.64 131.449 744.64 131.449 742.207Z" fill="#AE5E0E" transform="matrix(1.00277 0 0 1 1792.87 -38.9234)"/><path d="M144.251 748.383C143.991 748.261 143.729 748.172 143.468 748.116 143.212 748.055 142.954 748.024 142.692 748.024 141.926 748.024 141.334 748.272 140.917 748.767 140.506 749.256 140.301 749.958 140.301 750.875L140.301 755.176 137.317 755.176 137.317 745.841 140.301 745.841 140.301 747.375C140.684 746.763 141.123 746.319 141.618 746.04 142.118 745.757 142.715 745.615 143.41 745.615 143.51 745.615 143.618 745.621 143.735 745.632 143.851 745.638 144.021 745.654 144.243 745.682L144.251 748.383Z" fill="#AE5E0E" transform="matrix(1.00277 0 0 1 1792.87 -38.9234)"/><path d="M145.885 742.732 149.094 742.732 149.094 753.967C149.094 755.518 148.671 756.676 147.827 757.443 146.988 758.21 145.716 758.593 144.01 758.593L143.36 758.593 143.36 756.167 143.86 756.167C144.526 756.167 145.029 755.982 145.369 755.609 145.713 755.237 145.885 754.69 145.885 753.967L145.885 742.732Z" fill="#AE5E0E" transform="matrix(1.00277 0 0 1 1792.87 -38.9234)"/><path d="M135.922 799.328 140.24 805.68 136.897 805.68 133.988 801.429 131.104 805.68 127.746 805.68 132.063 799.328 127.912 793.235 131.263 793.235 133.988 797.245 136.705 793.235 140.073 793.235 135.922 799.328Z" fill="#AE5E0E" transform="matrix(1.00277 0 0 1 1792.87 -38.9234)"/><path d="M70.3116 763.742 70.3116 766.176C69.906 765.899 69.4976 765.693 69.0864 765.559 68.6808 765.426 68.2585 765.36 67.8195 765.36 66.986 765.36 66.3359 765.604 65.8692 766.093 65.408 766.576 65.1774 767.255 65.1774 768.127 65.1774 768.999 65.408 769.679 65.8692 770.168 66.3359 770.652 66.986 770.894 67.8195 770.894 68.2863 770.894 68.7281 770.824 69.1448 770.685 69.567 770.546 69.956 770.341 70.3116 770.068L70.3116 772.511C69.8449 772.683 69.3698 772.81 68.8864 772.894 68.4086 772.983 67.9279 773.027 67.4444 773.027 65.7608 773.027 64.4439 772.597 63.4937 771.736 62.5435 770.869 62.0684 769.665 62.0684 768.127 62.0684 766.587 62.5435 765.388 63.4937 764.525 64.4439 763.659 65.7608 763.225 67.4444 763.225 67.9334 763.225 68.414 763.27 68.8864 763.359 69.3643 763.443 69.8394 763.571 70.3116 763.742Z" fill="#AE5E0E" transform="matrix(1.00277 0 0 1 1792.87 -38.9234)"/><path d="M77.6464 766.643C77.0851 766.643 76.6629 766.826 76.3795 767.193 76.1017 767.554 75.9628 768.099 75.9628 768.827 75.9628 769.555 76.1017 770.102 76.3795 770.469 76.6629 770.83 77.0851 771.01 77.6464 771.01 78.2132 771.01 78.6355 770.83 78.9133 770.469 79.1967 770.102 79.3384 769.555 79.3384 768.827 79.3384 768.099 79.1967 767.554 78.9133 767.193 78.6355 766.826 78.2132 766.643 77.6464 766.643ZM81.6138 760.667 81.6138 762.967C81.086 762.717 80.5887 762.534 80.1219 762.417 79.6551 762.295 79.1995 762.233 78.7549 762.233 77.7992 762.233 77.0546 762.501 76.5212 763.034 75.9877 763.562 75.6766 764.348 75.5877 765.393 75.9544 765.12 76.3517 764.918 76.7796 764.784 77.2074 764.645 77.6742 764.576 78.1799 764.576 79.4523 764.576 80.4775 764.949 81.2554 765.693 82.0389 766.437 82.4307 767.412 82.4307 768.619 82.4307 769.952 81.9945 771.021 81.1221 771.828 80.2497 772.628 79.08 773.027 77.6131 773.027 75.9961 773.027 74.743 772.483 73.854 771.394 72.9705 770.299 72.5287 768.749 72.5287 766.743 72.5287 764.687 73.0455 763.073 74.0791 761.9 75.1181 760.723 76.5406 760.133 78.3465 760.133 78.9189 760.133 79.4746 760.178 80.0135 760.267 80.5525 760.355 81.086 760.489 81.6138 760.667Z" fill="#AE5E0E" transform="matrix(1.00277 0 0 1 1792.87 -38.9234)"/><path d="M88.115 762.767 88.115 770.36 89.2653 770.36C90.5767 770.36 91.5768 770.036 92.2658 769.385 92.9609 768.735 93.3079 767.79 93.3079 766.551 93.3079 765.318 92.9637 764.379 92.2742 763.734 91.5852 763.09 90.5822 762.767 89.2653 762.767L88.115 762.767ZM84.9061 760.342 88.2901 760.342C90.1794 760.342 91.5852 760.478 92.5076 760.75 93.4351 761.017 94.2303 761.472 94.8911 762.117 95.4747 762.678 95.9081 763.326 96.1921 764.059 96.4751 764.793 96.6171 765.623 96.6171 766.551 96.6171 767.49 96.4751 768.329 96.1921 769.069 95.9081 769.802 95.4747 770.45 94.8911 771.01 94.2248 771.655 93.4249 772.113 92.4909 772.385 91.5574 772.653 90.1571 772.786 88.2901 772.786L84.9061 772.786 84.9061 760.342Z" fill="#AE5E0E" transform="matrix(1.00277 0 0 1 1792.87 -38.9234)"/><path d="M107.736 760.734 107.736 763.367C107.052 763.062 106.385 762.831 105.735 762.675 105.085 762.52 104.471 762.442 103.893 762.442 103.127 762.442 102.56 762.548 102.193 762.759 101.826 762.97 101.643 763.298 101.643 763.742 101.643 764.075 101.764 764.337 102.009 764.525 102.259 764.709 102.709 764.868 103.36 765.001L104.727 765.276C106.11 765.554 107.094 765.976 107.677 766.543 108.26 767.11 108.553 767.915 108.553 768.96 108.553 770.333 108.144 771.355 107.327 772.027 106.516 772.694 105.274 773.027 103.601 773.027 102.812 773.027 102.021 772.952 101.226 772.803 100.431 772.653 99.6367 772.43 98.8423 772.136L98.8423 769.427C99.6367 769.849 100.403 770.168 101.143 770.386 101.887 770.596 102.604 770.702 103.293 770.702 103.993 770.702 104.529 770.585 104.902 770.352 105.274 770.118 105.46 769.785 105.46 769.352 105.46 768.963 105.333 768.663 105.076 768.452 104.827 768.24 104.324 768.052 103.568 767.885L102.326 767.61C101.082 767.343 100.17 766.918 99.5921 766.335 99.0196 765.751 98.7338 764.965 98.7338 763.976 98.7338 762.736 99.1337 761.783 99.9336 761.117 100.734 760.45 101.884 760.117 103.385 760.117 104.068 760.117 104.771 760.17 105.493 760.275 106.216 760.375 106.963 760.528 107.736 760.734Z" fill="#AE5E0E" transform="matrix(1.00277 0 0 1 1792.87 -38.9234)"/><path d="M111.245 763.451 114.228 763.451 114.228 772.786 111.245 772.786 111.245 763.451ZM111.245 759.817 114.228 759.817 114.228 762.25 111.245 762.25 111.245 759.817Z" fill="#AE5E0E" transform="matrix(1.00277 0 0 1 1792.87 -38.9234)"/><path d="M117.246 760.342 120.455 760.342 120.455 767.801C120.455 768.829 120.622 769.566 120.955 770.011 121.294 770.45 121.844 770.669 122.605 770.669 123.372 770.669 123.922 770.45 124.256 770.011 124.594 769.566 124.764 768.829 124.764 767.801L124.764 760.342 127.973 760.342 127.973 767.801C127.973 769.563 127.531 770.875 126.648 771.736 125.764 772.597 124.416 773.027 122.605 773.027 120.799 773.027 119.454 772.597 118.571 771.736 117.687 770.875 117.246 769.563 117.246 767.801L117.246 760.342Z" fill="#AE5E0E" transform="matrix(1.00277 0 0 1 1792.87 -38.9234)"/><path d="M46.8061 777.122 52.132 777.122C53.7157 777.122 54.9299 777.474 55.7744 778.18 56.6246 778.88 57.0497 779.88 57.0497 781.181 57.0497 782.487 56.6246 783.492 55.7744 784.198 54.9299 784.898 53.7157 785.249 52.132 785.249L50.015 785.249 50.015 789.566 46.8061 789.566 46.8061 777.122ZM50.015 779.447 50.015 782.923 51.7904 782.923C52.4127 782.923 52.8933 782.773 53.2323 782.473 53.5712 782.167 53.7407 781.736 53.7407 781.181 53.7407 780.626 53.5712 780.197 53.2323 779.897 52.8933 779.597 52.4127 779.447 51.7904 779.447L50.015 779.447Z" fill="#AE5E0E" transform="matrix(1.00277 0 0 1 1792.87 -38.9234)"/><path d="M62.645 779.44 59.1276 784.649 62.645 784.649 62.645 779.44ZM62.1116 776.798 65.6789 776.798 65.6789 784.649 67.4542 784.649 67.4542 786.975 65.6789 786.975 65.6789 789.242 62.645 789.242 62.645 786.975 57.1273 786.975 57.1273 784.224 62.1116 776.798Z" fill="#AE5E0E" transform="matrix(1.00277 0 0 1 1792.87 -38.9234)"/><path d="M70.1596 777.366 80.6199 777.366 80.6199 779.307 73.9436 787.384 80.8117 787.384 80.8117 789.81 69.9679 789.81 69.9679 787.867 76.6442 779.791 70.1596 779.791 70.1596 777.366Z" fill="#AE5E0E" transform="matrix(1.00277 0 0 1 1792.87 -38.9234)"/><path d="M104.993 777.366 108.202 777.366 108.202 781.908 112.828 777.366 116.553 777.366 110.561 783.258 117.171 789.81 113.153 789.81 108.202 784.908 108.202 789.81 104.993 789.81 104.993 777.366Z" fill="#AE5E0E" transform="matrix(1.00277 0 0 1 1792.87 -38.9234)"/><path d="M120.455 785.034 117.087 780.474 120.246 780.474 122.155 783.242 124.089 780.474 127.247 780.474 123.88 785.017 127.414 789.81 124.256 789.81 122.155 786.859 120.08 789.81 116.92 789.81 120.455 785.034Z" fill="#AE5E0E" transform="matrix(1.00277 0 0 1 1792.87 -38.9234)"/><path d="M128.639 780.474 136.782 780.474 136.782 782.558 131.865 787.675 136.782 787.675 136.782 789.81 128.431 789.81 128.431 787.726 133.349 782.608 128.639 782.608 128.639 780.474Z" fill="#AE5E0E" transform="matrix(1.00277 0 0 1 1792.87 -38.9234)"/><path d="M47.7293 791.552 50.9382 791.552 50.9382 801.57 56.5726 801.57 56.5726 803.996 47.7293 803.996 47.7293 791.552Z" fill="#AE5E0E" transform="matrix(1.00277 0 0 1 1792.87 -38.9234)"/><path d="M49.2402 809.346 49.2402 816.94 50.3904 816.94C51.7017 816.94 52.702 816.614 53.391 815.964 54.0856 815.314 54.4328 814.369 54.4328 813.13 54.4328 811.897 54.0884 810.958 53.3994 810.313 52.7103 809.668 51.7073 809.346 50.3904 809.346L49.2402 809.346ZM46.0312 806.92 49.4152 806.92C51.3045 806.92 52.7103 807.057 53.6327 807.33 54.5606 807.596 55.3552 808.052 56.0165 808.697 56.5999 809.257 57.0334 809.905 57.3168 810.638 57.6002 811.372 57.7419 812.203 57.7419 813.13 57.7419 814.07 57.6002 814.908 57.3168 815.648 57.0334 816.381 56.5999 817.029 56.0165 817.589 55.3497 818.234 54.5496 818.693 53.616 818.965 52.6825 819.232 51.2823 819.365 49.4152 819.365L46.0312 819.365 46.0312 806.92Z" fill="#AE5E0E" transform="matrix(1.00277 0 0 1 1792.87 -38.9234)"/><path d="M68.8606 807.313 68.8606 809.947C68.1771 809.641 67.5104 809.41 66.8603 809.254 66.2101 809.099 65.5961 809.021 65.0182 809.021 64.2514 809.021 63.6847 809.127 63.3179 809.338 62.9512 809.549 62.7678 809.877 62.7678 810.322 62.7678 810.655 62.89 810.916 63.1346 811.105 63.3846 811.288 63.8346 811.447 64.4847 811.58L65.8517 811.855C67.2353 812.133 68.2189 812.555 68.8023 813.122 69.3857 813.689 69.6775 814.495 69.6775 815.539 69.6775 816.912 69.2691 817.935 68.4522 818.606 67.641 819.274 66.399 819.607 64.7265 819.607 63.9374 819.607 63.1456 819.532 62.3511 819.381 61.5565 819.232 60.7618 819.009 59.9672 818.715L59.9672 816.006C60.7618 816.428 61.5286 816.748 62.2676 816.965 63.0123 817.175 63.7291 817.281 64.4181 817.281 65.1183 817.281 65.6544 817.164 66.0267 816.931 66.399 816.698 66.5852 816.364 66.5852 815.931 66.5852 815.542 66.4574 815.242 66.2018 815.031 65.9518 814.819 65.4489 814.631 64.6932 814.464L63.4513 814.189C62.2066 813.922 61.2952 813.497 60.7174 812.913 60.145 812.331 59.8589 811.544 59.8589 810.555 59.8589 809.316 60.259 808.363 61.0592 807.696 61.8593 807.029 63.0095 806.696 64.5098 806.696 65.1933 806.696 65.8962 806.749 66.6185 806.855 67.3408 806.954 68.0882 807.107 68.8606 807.313Z" fill="#AE5E0E" transform="matrix(1.00277 0 0 1 1792.87 -38.9234)"/><path d="M72.3697 810.03 75.3536 810.03 75.3536 819.365 72.3697 819.365 72.3697 810.03ZM72.3697 806.396 75.3536 806.396 75.3536 808.829 72.3697 808.829 72.3697 806.396Z" fill="#AE5E0E" transform="matrix(1.00277 0 0 1 1792.87 -38.9234)"/><path d="M78.3707 806.92 81.5797 806.92 81.5797 814.38C81.5797 815.409 81.7464 816.144 82.0798 816.589 82.4188 817.029 82.9689 817.248 83.7301 817.248 84.497 817.248 85.0471 817.029 85.3804 816.589 85.7194 816.144 85.8888 815.409 85.8888 814.38L85.8888 806.92 89.0978 806.92 89.0978 814.38C89.0978 816.142 88.656 817.454 87.7726 818.315 86.8891 819.176 85.5416 819.607 83.7301 819.607 81.9242 819.607 80.5795 819.176 79.6961 818.315 78.8125 817.454 78.3707 816.142 78.3707 814.38L78.3707 806.92Z" fill="#AE5E0E" transform="matrix(1.00277 0 0 1 1792.87 -38.9234)"/><path d="M108.669 812.438C109.34 812.438 109.821 812.314 110.111 812.063 110.405 811.814 110.552 811.403 110.552 810.83 110.552 810.263 110.405 809.858 110.111 809.614 109.821 809.368 109.34 809.246 108.669 809.246L107.318 809.246 107.318 812.438 108.669 812.438ZM107.318 814.656 107.318 819.365 104.109 819.365 104.109 806.92 109.01 806.92C110.649 806.92 111.85 807.196 112.611 807.746 113.377 808.296 113.761 809.166 113.761 810.355 113.761 811.177 113.561 811.853 113.161 812.381 112.766 812.908 112.169 813.297 111.369 813.547 111.808 813.647 112.199 813.875 112.544 814.231 112.895 814.581 113.247 815.114 113.603 815.831L115.344 819.365 111.928 819.365 110.41 816.273C110.105 815.651 109.793 815.225 109.477 814.998 109.166 814.769 108.748 814.656 108.227 814.656L107.318 814.656Z" fill="#AE5E0E" transform="matrix(1.00277 0 0 1 1792.87 -38.9234)"/><path d="M121.496 811.971C120.862 811.971 120.376 812.205 120.037 812.672 119.704 813.139 119.537 813.817 119.537 814.706 119.537 815.595 119.704 816.273 120.037 816.739 120.376 817.206 120.862 817.44 121.496 817.44 122.134 817.44 122.621 817.206 122.955 816.739 123.293 816.273 123.463 815.595 123.463 814.706 123.463 813.817 123.293 813.139 122.955 812.672 122.621 812.205 122.134 811.971 121.496 811.971ZM123.463 818.014C123.052 818.565 122.598 818.967 122.105 819.223 121.61 819.479 121.037 819.607 120.387 819.607 119.237 819.607 118.293 819.151 117.553 818.24 116.814 817.323 116.445 816.144 116.445 814.706 116.445 813.267 116.814 812.094 117.553 811.188 118.293 810.277 119.237 809.821 120.387 809.821 121.037 809.821 121.61 809.949 122.105 810.205 122.598 810.461 123.052 810.863 123.463 811.414L123.463 810.03 126.463 810.03 126.463 822.916 123.463 822.916 123.463 818.014Z" fill="#AE5E0E" transform="matrix(1.00277 0 0 1 1792.87 -38.9234)"/><path d="M135.865 812.655C136.704 812.872 137.341 813.25 137.774 813.789 138.213 814.322 138.432 815.003 138.432 815.831 138.432 817.064 137.96 818.003 137.015 818.648 136.07 819.288 134.692 819.607 132.881 819.607 132.243 819.607 131.6 819.554 130.956 819.448 130.317 819.349 129.683 819.196 129.055 818.99L129.055 816.515C129.655 816.814 130.25 817.043 130.84 817.198 131.433 817.348 132.017 817.423 132.59 817.423 133.44 817.423 134.09 817.276 134.54 816.982 134.996 816.686 135.223 816.264 135.223 815.714 135.223 815.148 134.99 814.72 134.524 814.431 134.062 814.136 133.378 813.989 132.473 813.989L131.189 813.989 131.189 811.922 132.54 811.922C133.345 811.922 133.945 811.797 134.34 811.546 134.734 811.291 134.932 810.905 134.932 810.388 134.932 809.91 134.74 809.541 134.357 809.279 133.973 809.019 133.431 808.888 132.732 808.888 132.215 808.888 131.692 808.946 131.164 809.063 130.636 809.18 130.111 809.352 129.589 809.58L129.589 807.229C130.222 807.051 130.851 806.918 131.472 806.83 132.095 806.74 132.707 806.696 133.306 806.696 134.924 806.696 136.132 806.962 136.932 807.496 137.738 808.024 138.141 808.821 138.141 809.888 138.141 810.616 137.949 811.213 137.565 811.68 137.182 812.141 136.615 812.466 135.865 812.655Z" fill="#AE5E0E" transform="matrix(1.00277 0 0 1 1792.87 -38.9234)"/><path d="M121.102 792.431 124.311 792.431 124.311 803.666C124.311 805.217 123.889 806.376 123.045 807.142 122.205 807.909 120.933 808.292 119.227 808.292L118.576 808.292 118.576 805.867 119.077 805.867C119.744 805.867 120.247 805.681 120.586 805.309 120.93 804.937 121.102 804.389 121.102 803.666L121.102 792.431Z" fill="#AE5E0E" transform="matrix(1.00277 0 0 1 1792.87 -38.9234)"/><path d="M62.6638 797.568 59.2965 793.008 62.4555 793.008 64.3641 795.776 66.2978 793.008 69.4568 793.008 66.0895 797.551 69.6235 802.344 66.4646 802.344 64.3641 799.393 62.2887 802.344 59.1298 802.344 62.6638 797.568Z" fill="#AE5E0E" transform="matrix(1.00277 0 0 1 1792.87 -38.9234)"/></g></g></g><path d="M2736 1006.33C2736 996.76 2743.76 989 2753.33 989L3004.67 989C3014.24 989 3022 996.76 3022 1006.33L3022 1075.67C3022 1085.24 3014.24 1093 3004.67 1093L2753.33 1093C2743.76 1093 2736 1085.24 2736 1075.67Z" fill="#204497" fill-rule="evenodd"/><text fill="#FFFFFF" font-family="Verdana,Verdana_MSFontService,sans-serif" font-weight="400" font-size="46" transform="matrix(1 0 0 1 2762.04 1058)">12345678</text><path d="M2498.5 1039.78 2713.18 1039.78 2713.18 1043.22 2498.5 1043.22ZM2708.59 1027.75 2736.09 1041.5 2708.59 1055.25Z" fill="#79787A"/><text font-family="Latha,Latha_MSFontService,sans-serif" font-weight="400" font-size="46" transform="translate(2731.96 1162)">  <tspan font-size="46" x="-10.5876" y="56"></tspan></text><path d="M2326.5 699.781 2434.33 699.781C2435.28 699.781 2436.05 700.551 2436.05 701.5L2436.05 953.785 2432.61 953.785 2432.61 701.5 2434.33 703.219 2326.5 703.219ZM2448.08 949.201 2434.33 976.701 2420.58 949.201Z" fill="#79787A"/><path d="M0-1.71875 361.036-1.71875C361.985-1.71875 362.755-0.949239 362.755 0L362.755 252.285 359.317 252.285 359.317 0 361.036 1.71875 0 1.71875ZM374.786 247.701 361.036 275.201 347.286 247.701Z" fill="#79787A" transform="matrix(-1 1.22465e-16 1.22465e-16 1 2794.54 701.5)"/><text font-family="Latha,Latha_MSFontService,sans-serif" font-weight="400" font-size="46" transform="translate(1868.17 835)"> <tspan font-size="46" x="731.737" y="-6"> </tspan></text><text font-family="Arial,Arial_MSFontService,sans-serif" font-weight="400" font-size="46" transform="matrix(1 0 0 1 2983.76 829)">(</text><text font-family="Latha,Latha_MSFontService,sans-serif" font-weight="400" font-size="46" transform="translate(2999.23 829)"></text><text font-family="Arial,Arial_MSFontService,sans-serif" font-weight="400" font-size="46" transform="matrix(1 0 0 1 3142.46 829)">)<tspan font-size="46" x="-850.852" y="329">TOTP </tspan></text><text font-family="Latha,Latha_MSFontService,sans-serif" font-weight="400" font-size="46" transform="translate(2426.25 1158)"><tspan font-size="46" x="-202.812" y="55"></tspan><tspan font-size="46" x="79.6353" y="55"></tspan><tspan font-size="46" x="151.25" y="55"></tspan></text></g></svg>