<svg width="1319" height="1246" xmlns="http://www.w3.org/2000/svg" xmlns:xlink="http://www.w3.org/1999/xlink" xml:space="preserve" overflow="hidden"><defs><clipPath id="clip0"><rect x="66" y="352" width="1319" height="1246"/></clipPath></defs><g clip-path="url(#clip0)" transform="translate(-66 -352)"><path d="M239.814 858.328C307.688 649.432 502.354 508 722 508L722 555.049C522.737 555.049 346.136 683.357 284.561 872.868Z" fill="#D9D9D9" fill-rule="evenodd"/><path d="M423.993 1425.17C246.296 1296.07 171.94 1067.22 239.815 858.329L284.562 872.867C222.986 1062.38 290.441 1269.98 451.648 1387.11Z" fill="#D9D9D9" fill-rule="evenodd"/><path d="M1020.01 1425.17C842.309 1554.28 601.689 1554.28 423.992 1425.17L451.648 1387.11C612.854 1504.23 831.145 1504.23 992.352 1387.11Z" fill="#D9D9D9" fill-rule="evenodd"/><path d="M1204.19 858.328C1272.06 1067.22 1197.7 1296.07 1020.01 1425.17L992.352 1387.11C1153.56 1269.98 1221.01 1062.38 1159.44 872.867Z" fill="#D9D9D9" fill-rule="evenodd"/><path d="M722 508C941.646 508 1136.31 649.433 1204.19 858.328L1159.44 872.867C1097.86 683.357 921.262 555.049 721.999 555.049Z" fill="#D9D9D9" fill-rule="evenodd"/><path d="M488.5 1016C488.5 887.041 593.041 782.5 722 782.5 850.959 782.5 955.501 887.041 955.501 1016 955.501 1144.96 850.959 1249.5 722 1249.5 593.041 1249.5 488.5 1144.96 488.5 1016Z" stroke="#FFFFFF" stroke-width="9.16667" stroke-linejoin="round" stroke-miterlimit="10" fill="#01919A" fill-rule="evenodd"/><path d="M552.5 520C552.5 429.701 625.701 356.5 716 356.5 806.299 356.5 879.501 429.701 879.501 520 879.501 610.299 806.299 683.5 716 683.5 625.701 683.5 552.5 610.299 552.5 520Z" stroke="#FFFFFF" stroke-width="9.16667" stroke-linejoin="round" stroke-miterlimit="10" fill="#01919A" fill-rule="evenodd"/><path d="M1032.5 862.5C1032.5 772.478 1105.7 699.5 1196 699.5 1286.3 699.5 1359.5 772.478 1359.5 862.5 1359.5 952.523 1286.3 1025.5 1196 1025.5 1105.7 1025.5 1032.5 952.523 1032.5 862.5Z" stroke="#FFFFFF" stroke-width="9.16667" stroke-linejoin="round" stroke-miterlimit="10" fill="#01919A" fill-rule="evenodd"/><path d="M849.5 1416C849.5 1325.7 922.701 1252.5 1013 1252.5 1103.3 1252.5 1176.5 1325.7 1176.5 1416 1176.5 1506.3 1103.3 1579.5 1013 1579.5 922.701 1579.5 849.5 1506.3 849.5 1416Z" stroke="#FFFFFF" stroke-width="9.16667" stroke-linejoin="round" stroke-miterlimit="10" fill="#01919A" fill-rule="evenodd"/><path d="M271.5 1416C271.5 1325.7 344.701 1252.5 435 1252.5 525.299 1252.5 598.5 1325.7 598.5 1416 598.5 1506.3 525.299 1579.5 435 1579.5 344.701 1579.5 271.5 1506.3 271.5 1416Z" stroke="#FFFFFF" stroke-width="9.16667" stroke-linejoin="round" stroke-miterlimit="10" fill="#01919A" fill-rule="evenodd"/><path d="M94.5 862.5C94.5 772.478 167.701 699.5 258 699.5 348.299 699.5 421.5 772.478 421.5 862.5 421.5 952.523 348.299 1025.5 258 1025.5 167.701 1025.5 94.5 952.523 94.5 862.5Z" stroke="#FFFFFF" stroke-width="9.16667" stroke-linejoin="round" stroke-miterlimit="10" fill="#01919A" fill-rule="evenodd"/><text fill="#FFFFFF" font-family="Latha,Latha_MSFontService,sans-serif" font-weight="400" font-size="46" transform="translate(1140.06 824)">சமூக <tspan font-size="46" x="-2.29163" y="49">ஊடக </tspan><tspan font-size="46" x="2.01672" y="100">பதிவு</tspan><tspan font-size="46" x="-1010.86" y="-8">சுயசேவை</tspan> <tspan font-size="46" x="-976.787" y="41">கணக்கு </tspan><tspan font-size="46" x="-995.395" y="91">மேலாண்</tspan><tspan font-size="46" x="-930.38" y="142">மை</tspan><tspan font-size="46" x="-801.061" y="510">ஒற்றை </tspan><tspan font-size="46" x="-831.998" y="565">நுழைவு </tspan>&amp; <tspan font-size="46" x="-816.805" y="620">அணுகல் </tspan><tspan font-size="46" x="-821.113" y="675">மேலாண்</tspan><tspan font-size="46" x="-756.075" y="731">மை</tspan><tspan font-size="46" x="-222.678" y="579">இசைவு</tspan><tspan font-size="46" x="-241.882" y="627">மேலாண்</tspan><tspan font-size="46" x="-176.845" y="678">மை</tspan><tspan font-size="46" x="-543.916" y="-346">வாடிக்கை</tspan><tspan font-size="46" x="-493.774" y="-297">யாளர் </tspan><tspan font-size="46" x="-484.906" y="-246">பதிவு</tspan><tspan font-size="55" x="-567.848" y="99">நுகர்வோர்</tspan><tspan font-size="55" x="-263.057" y="99"> </tspan><tspan font-size="55" x="-579.009" y="159">அடையாள </tspan><tspan font-size="55" x="-587.03" y="218">அமைப்பின்</tspan><tspan font-size="55" x="-243.853" y="218"> </tspan><tspan font-size="55" x="-548.644" y="277">தோற்றக் </tspan><tspan font-size="55" x="-535.467" y="338">கூறுகள்</tspan></text></g></svg>