<svg width="3023" height="1375" xmlns="http://www.w3.org/2000/svg" xmlns:xlink="http://www.w3.org/1999/xlink" xml:space="preserve" overflow="hidden"><defs><clipPath id="clip0"><rect x="124" y="291" width="3023" height="1375"/></clipPath><clipPath id="clip1"><rect x="430" y="1524" width="129" height="132"/></clipPath><clipPath id="clip2"><rect x="430" y="1524" width="129" height="132"/></clipPath><clipPath id="clip3"><rect x="430" y="1524" width="129" height="132"/></clipPath><clipPath id="clip4"><rect x="2370" y="291" width="197" height="195"/></clipPath><clipPath id="clip5"><rect x="2370" y="291" width="197" height="195"/></clipPath><clipPath id="clip6"><rect x="2370" y="291" width="197" height="195"/></clipPath><clipPath id="clip7"><rect x="687" y="291" width="196" height="195"/></clipPath><clipPath id="clip8"><rect x="687" y="291" width="196" height="195"/></clipPath><clipPath id="clip9"><rect x="687" y="291" width="196" height="195"/></clipPath><clipPath id="clip10"><rect x="2134" y="812" width="195" height="196"/></clipPath><clipPath id="clip11"><rect x="2134" y="812" width="195" height="196"/></clipPath><clipPath id="clip12"><rect x="2134" y="812" width="195" height="196"/></clipPath><clipPath id="clip13"><rect x="402" y="1130" width="197" height="196"/></clipPath><clipPath id="clip14"><rect x="402" y="1130" width="197" height="196"/></clipPath><clipPath id="clip15"><rect x="402" y="1130" width="197" height="196"/></clipPath><clipPath id="clip16"><rect x="402" y="961" width="197" height="196"/></clipPath><clipPath id="clip17"><rect x="402" y="961" width="197" height="196"/></clipPath><clipPath id="clip18"><rect x="402" y="961" width="197" height="196"/></clipPath><clipPath id="clip19"><rect x="402" y="788" width="197" height="197"/></clipPath><clipPath id="clip20"><rect x="402" y="788" width="197" height="197"/></clipPath><clipPath id="clip21"><rect x="402" y="788" width="197" height="197"/></clipPath></defs><g clip-path="url(#clip0)" transform="translate(-124 -291)"><text fill="#01919A" font-family="Latha,Latha_MSFontService,sans-serif" font-weight="700" font-size="64" transform="translate(451.922 565)">வணிகம்-<tspan font-size="64" x="342.031" y="0">வணிகம்</tspan><tspan font-size="64" x="664.583" y="0"> </tspan><tspan font-size="64" x="28.6458" y="79">அடையாளங்கள்</tspan><tspan fill="#DF7275" font-size="64" x="1652.03" y="0">வணிகம்</tspan><tspan fill="#DF7275" font-size="64" x="1974.59" y="0">-</tspan><tspan fill="#DF7275" font-size="64" x="1994.06" y="0">நுகர்வோ</tspan><tspan fill="#DF7275" font-size="64" x="2337.81" y="0">ர் </tspan><tspan fill="#DF7275" font-size="64" x="1713.06" y="79">அடையாளங்கள்</tspan><tspan fill="#000000" font-weight="400" font-size="41" x="1923.84" y="321">நுகர்வோர் </tspan><tspan fill="#000000" font-weight="400" font-size="41" x="2175.92" y="321">&amp; </tspan><tspan fill="#000000" font-weight="400" font-size="41" x="1923.84" y="372">வாடிக்கையாள</tspan><tspan fill="#000000" font-weight="400" font-size="41" x="2259.57" y="372">ர்</tspan><tspan fill="#000000" font-weight="400" font-size="41" x="184.579" y="1012">சேவையகம் </tspan></text><text font-family="Verdana,Verdana_MSFontService,sans-serif" font-weight="400" font-size="41" transform="matrix(1 0 0 1 947.595 1577)">&amp; </text><text font-family="Latha,Latha_MSFontService,sans-serif" font-weight="400" font-size="41" transform="translate(991.71 1577)">பிணைய <tspan font-size="41" x="-355.208" y="50">சாதனங்கள்</tspan></text><g clip-path="url(#clip1)"><g clip-path="url(#clip2)"><g clip-path="url(#clip3)"><path d="M96.3601 39.4538 32.6424 39.4538C30.6042 39.4538 28.9418 41.1018 28.9418 43.1439L28.9418 55.7071C28.9418 57.7493 30.6042 59.3973 32.6424 59.3973L96.3601 59.3973C98.3944 59.3973 100.055 57.7493 100.055 55.7071L100.055 43.1439C100.055 41.1018 98.3918 39.4538 96.3601 39.4538ZM35.6058 48.2042C34.3466 48.2042 33.3262 47.1864 33.3262 45.9259 33.3262 44.6693 34.3466 43.6489 35.6058 43.6489 36.8676 43.6489 37.884 44.6693 37.884 45.9259 37.884 47.1877 36.8676 48.2042 35.6058 48.2042ZM90.3369 54.7729 74.2401 54.7729 74.2401 49.4268 90.3382 49.4268 90.3382 54.7729Z" fill="#79787A" transform="matrix(1 0 0 1.00775 430 1525)"/><path d="M96.3601 61.4264 32.6424 61.4264C30.6042 61.4264 28.9418 63.077 28.9418 65.1191L28.9418 77.681C28.9418 79.7205 30.6042 81.3725 32.6424 81.3725L96.3601 81.3725C98.3944 81.3725 100.055 79.7205 100.055 77.681L100.055 65.1191C100.055 63.077 98.3918 61.4264 96.3601 61.4264ZM35.6058 70.1794C34.3466 70.1794 33.3262 69.1655 33.3262 67.9011 33.3262 66.6458 34.3466 65.6202 35.6058 65.6202 36.8676 65.6202 37.884 66.6445 37.884 67.9011 37.884 69.1642 36.8676 70.1794 35.6058 70.1794ZM90.3369 76.7467 74.2401 76.7467 74.2401 71.3994 90.3382 71.3994 90.3382 76.7467Z" fill="#79787A" transform="matrix(1 0 0 1.00775 430 1525)"/><path d="M96.3601 83.4002 32.6424 83.4002C30.6042 83.4002 28.9418 85.0509 28.9418 87.0917L28.9418 99.6536C28.9418 101.694 30.6042 103.346 32.6424 103.346L96.3601 103.346C98.3944 103.346 100.055 101.694 100.055 99.6536L100.055 87.0917C100.055 85.0509 98.3918 83.4002 96.3601 83.4002ZM35.6058 92.1506C34.3466 92.1506 33.3262 91.1394 33.3262 89.8723 33.3262 88.6144 34.3466 87.5966 35.6058 87.5966 36.8676 87.5966 37.884 88.6131 37.884 89.8723 37.884 91.1394 36.8676 92.1506 35.6058 92.1506ZM90.3369 98.718 74.2401 98.718 74.2401 93.3707 90.3382 93.3707 90.3382 98.718Z" fill="#79787A" transform="matrix(1 0 0 1.00775 430 1525)"/><path d="M75.5045 115.361 68.714 115.361 68.714 105.482 60.2898 105.482 60.2898 115.361 53.4915 115.361 53.4915 117.965 29.7221 117.965 29.7221 126.393 53.4915 126.393 53.4915 129 75.5045 129 75.5045 126.393 99.2726 126.393 99.2726 117.965 75.5045 117.965Z" fill="#79787A" transform="matrix(1 0 0 1.00775 430 1525)"/><path d="M102.109 19.1893C101.197 19.1123 100.36 18.6465 99.8167 17.9118 94.7081 11.013 86.5175 6.75788 77.8011 6.75788 77.2556 6.75788 76.7089 6.77484 76.1622 6.80746 75.4053 6.85313 74.6616 6.62739 74.0574 6.17069 68.7505 2.16868 62.3202 0 55.5897 0 43.5302 0 32.8264 6.98623 27.8236 17.5647 27.3643 18.5343 26.4482 19.2076 25.3861 19.3563 12.0948 21.2262 1.83333 32.6724 1.83333 46.47 1.83333 59.6243 11.1592 70.6348 23.5475 73.2536L23.5475 65.1191C23.5475 64.1052 23.7354 63.1383 24.0473 62.2288 17.4225 60.051 12.6206 53.8151 12.6206 46.4713 12.6206 37.323 20.0635 29.88 29.2132 29.88 29.6752 29.88 30.1293 29.9166 30.582 29.9531 33.2192 30.158 35.6044 28.4473 36.2477 25.8898 38.4778 16.9984 46.4335 10.7886 55.5884 10.7886 60.8209 10.7886 65.7728 12.8085 69.5308 16.4778 70.8148 17.7305 72.6403 18.2641 74.3967 17.8975 75.5175 17.6639 76.6619 17.5452 77.8011 17.5452 84.2066 17.5452 89.9271 21.1466 92.7287 26.9428 93.7138 28.981 95.8669 30.1945 98.1204 29.9622 98.6814 29.9061 99.2412 29.8787 99.7841 29.8787 108.934 29.8787 116.378 37.3216 116.378 46.47 116.378 53.8151 111.573 60.0497 104.95 62.2275 105.261 63.1383 105.448 64.1039 105.448 65.1178L105.448 73.251C117.836 70.6335 127.167 59.6243 127.167 46.4687 127.165 32.1557 116.121 20.3715 102.109 19.1893Z" fill="#79787A" transform="matrix(1 0 0 1.00775 430 1525)"/></g></g></g><path d="M591.564 1340C549.872 1340 549.872 1340 549.872 1340 546.068 1340 542.265 1343.58 542.265 1347.16 542.265 1450.84 542.265 1450.84 542.265 1450.84 542.265 1454.42 546.068 1458 549.872 1458 591.564 1458 591.564 1458 591.564 1458 595.367 1458 598 1454.42 598 1450.84 598 1347.16 598 1347.16 598 1347.16 598 1343.58 595.367 1340 591.564 1340ZM570.059 1444.64C567.719 1444.64 565.671 1442.72 565.671 1440.38 565.671 1438.03 567.719 1436.24 570.059 1436.24 572.546 1436.24 574.594 1438.03 574.594 1440.38 574.594 1442.72 572.546 1444.64 570.059 1444.64ZM591.417 1369.19C591.417 1369.88 590.832 1370.43 590.101 1370.43 551.627 1370.43 551.627 1370.43 551.627 1370.43 550.75 1370.43 550.164 1369.88 550.164 1369.19 550.164 1363.96 550.164 1363.96 550.164 1363.96 550.164 1363.27 550.75 1362.58 551.627 1362.58 590.101 1362.58 590.101 1362.58 590.101 1362.58 590.832 1362.58 591.417 1363.27 591.417 1363.96L591.417 1369.19ZM591.417 1355.56C591.417 1356.38 590.832 1356.94 590.101 1356.94 551.627 1356.94 551.627 1356.94 551.627 1356.94 550.75 1356.94 550.164 1356.38 550.164 1355.56 550.164 1350.46 550.164 1350.46 550.164 1350.46 550.164 1349.78 550.75 1349.09 551.627 1349.09 590.101 1349.09 590.101 1349.09 590.101 1349.09 590.832 1349.09 591.417 1349.78 591.417 1350.46L591.417 1355.56ZM524.564 1340C409.29 1340 409.29 1340 409.29 1340 405.487 1340 403 1343.58 403 1347.16 403 1431.84 403 1431.84 403 1431.84 403 1435.42 405.487 1438.86 409.29 1438.86 453.615 1438.86 453.615 1438.86 453.615 1438.86 453.615 1449.6 453.615 1449.6 453.615 1449.6 435.914 1450.84 422.017 1454.42 422.017 1458 511.837 1458 511.837 1458 511.837 1458 511.837 1454.42 497.94 1450.84 480.239 1449.6 480.239 1438.86 480.239 1438.86 480.239 1438.86 524.564 1438.86 524.564 1438.86 524.564 1438.86 528.368 1438.86 530.854 1435.42 530.854 1431.84 530.854 1347.16 530.854 1347.16 530.854 1347.16 530.854 1343.58 528.368 1340 524.564 1340ZM520.761 1428.26C413.094 1428.26 413.094 1428.26 413.094 1428.26 413.094 1350.74 413.094 1350.74 413.094 1350.74 520.761 1350.74 520.761 1350.74 520.761 1350.74L520.761 1428.26Z" fill="#79787A" fill-rule="evenodd"/><text font-family="Latha,Latha_MSFontService,sans-serif" font-weight="400" font-size="41" transform="translate(636.502 1220)">பயன்பாட்டு நிரலாக்க <tspan font-size="41" x="0" y="51">இடைமுகம் </tspan><tspan font-size="41" x="289.323" y="51">/ </tspan>சேவைகள்</text><path d="M2262 1242 2264.03 1242 2264.68 1242.08 2265.26 1242.41 2265.65 1242.88 2265.9 1243.49 2266 1244.3 2266 1253.7 2265.9 1254.51 2265.65 1255.12 2265.26 1255.59 2264.68 1255.92 2264.03 1256 2262 1256 2262 1242Z" fill="#0D0D0D" fill-rule="evenodd"/><path d="M2260 1264 2261.51 1264 2262.32 1264.13 2263.05 1264.39 2263.55 1264.87 2263.87 1265.47 2264 1266.17 2264 1283.85 2263.87 1284.55 2263.55 1285.15 2263.05 1285.61 2262.32 1285.89 2261.51 1286 2260 1286 2260 1264Z" fill="#0D0D0D" fill-rule="evenodd"/><path d="M2228.99 1199 2230.5 1199 2232.08 1199 2233.73 1199.04 2235.38 1199.08 2237.02 1199.15 2238.67 1199.26 2240.29 1199.43 2241.83 1199.68 2243.28 1199.91 2244.66 1200.23 2245.85 1200.58 2246.91 1201.04 2247.78 1201.55 2248.41 1202.15 2248.92 1202.87 2249.31 1203.75 2249.58 1204.75 2249.79 1205.87 2249.94 1207.11 2250.07 1208.42 2250.18 1209.79 2250.25 1211.19 2250.35 1212.62 2250.46 1214.06 2250.61 1215.45 2250.81 1216.81 2251.09 1218.13 2251.44 1219.42 2251.91 1220.53 2252.35 1221.45 2252.89 1222.49 2253.56 1223.53 2254.27 1224.6 2255.07 1225.64 2255.92 1226.57 2256.83 1227.38 2257.93 1228.25 2258.91 1229.25 2259.79 1230.36 2260.49 1231.6 2261.09 1233 2261.55 1234.53 2261.83 1236.21 2262 1238 2261.83 1238 2261.41 1238 2260.7 1238 2259.71 1238 2258.52 1238 2257.11 1238 2255.46 1238 2253.64 1238 2251.68 1238 2249.55 1238 2247.26 1238 2226.24 1238 2223.53 1238 2220.81 1238 2218.17 1238 2210.72 1238 2208.43 1238 2206.32 1238 2204.34 1238 2202.54 1238 2200.89 1238 2199.46 1238 2197.3 1238 2196.59 1238 2196.15 1238 2196 1238 2196.15 1236.21 2196.46 1234.53 2196.95 1232.96 2197.58 1231.53 2198.36 1230.21 2199.27 1229.04 2200.29 1228.06 2201.71 1226.77 2203.01 1225.32 2204.16 1223.85 2205.18 1222.25 2206.07 1220.53 2206.56 1219.42 2206.91 1218.13 2207.19 1216.81 2207.41 1215.45 2207.54 1214.06 2207.65 1212.62 2207.73 1211.19 2207.86 1209.79 2207.93 1208.42 2208.04 1207.11 2208.21 1205.87 2208.4 1204.75 2208.71 1203.75 2209.07 1202.87 2209.59 1202.15 2210.22 1201.55 2211.07 1201.04 2212.15 1200.58 2213.36 1200.23 2214.7 1199.91 2216.17 1199.68 2217.69 1199.43 2219.31 1199.26 2220.96 1199.15 2222.62 1199.08 2224.31 1199.04 2225.92 1199 2227.5 1199 2228.99 1199Z" fill="#79787A" fill-rule="evenodd"/><path d="M2228.99 1291 2231.76 1291 2234.47 1291 2237.19 1291 2239.83 1291 2242.39 1291 2244.86 1291 2247.26 1291 2249.55 1291 2251.68 1291 2253.64 1291 2255.46 1291 2257.11 1291 2258.52 1291 2259.71 1291 2260.7 1291 2261.41 1291 2261.83 1291 2262 1291 2261.83 1292.78 2261.55 1294.38 2261.09 1295.85 2260.49 1297.21 2259.79 1298.46 2258.91 1299.56 2257.93 1300.51 2256.83 1301.34 2255.92 1302.11 2255.07 1303.05 2254.27 1304.02 2253.56 1305.07 2252.89 1306.13 2252.35 1307.09 2251.91 1307.99 2251.44 1309.13 2251.09 1310.32 2250.81 1311.61 2250.61 1312.93 2250.46 1314.33 2250.35 1315.74 2250.25 1317.1 2250.18 1318.49 2250.07 1319.82 2249.94 1321.07 2249.79 1322.28 2249.58 1323.36 2249.31 1324.37 2248.92 1325.23 2248.41 1325.93 2247.78 1326.5 2246.91 1326.98 2245.85 1327.4 2244.66 1327.79 2243.28 1328.1 2241.83 1328.34 2240.29 1328.54 2238.67 1328.69 2237.02 1328.8 2235.38 1328.89 2233.73 1328.96 2232.08 1328.96 2230.5 1329 2228.99 1329 2227.5 1329 2225.92 1328.96 2224.31 1328.96 2222.62 1328.89 2220.96 1328.8 2219.31 1328.69 2217.69 1328.54 2216.17 1328.34 2214.7 1328.1 2213.36 1327.79 2212.15 1327.4 2211.07 1326.98 2210.22 1326.5 2209.59 1325.93 2209.07 1325.23 2208.71 1324.37 2208.4 1323.36 2208.21 1322.28 2208.04 1321.07 2207.93 1319.82 2207.86 1318.49 2207.73 1317.1 2207.65 1315.74 2207.54 1314.33 2207.41 1312.93 2207.19 1311.61 2206.91 1310.32 2206.56 1309.13 2206.07 1307.99 2205.18 1306.35 2204.16 1304.79 2203.01 1303.32 2201.71 1301.96 2200.29 1300.68 2199.27 1299.71 2198.36 1298.59 2197.58 1297.34 2196.95 1295.94 2196.46 1294.38 2196.15 1292.74 2196 1291 2196.15 1291 2196.59 1291 2197.3 1291 2198.29 1291 2199.46 1291 2200.89 1291 2202.54 1291 2204.34 1291 2206.32 1291 2208.43 1291 2210.72 1291 2213.14 1291 2215.61 1291 2218.17 1291 2220.81 1291 2223.53 1291 2226.24 1291 2228.99 1291Z" fill="#79787A" fill-rule="evenodd"/><path d="M2209.22 1225 2248.78 1225 2250.58 1225.17 2252.33 1225.48 2253.92 1226.06 2255.46 1226.81 2256.88 1227.76 2258.14 1228.89 2259.23 1230.15 2260.18 1231.56 2260.98 1233.04 2261.52 1234.69 2261.87 1236.43 2262 1238.19 2262 1290.83 2261.87 1292.63 2261.52 1294.35 2260.98 1295.96 2260.18 1297.5 2259.23 1298.91 2258.14 1300.17 2256.88 1301.26 2255.46 1302.2 2253.92 1302.98 2252.33 1303.54 2250.58 1303.89 2248.78 1304 2209.22 1304 2207.4 1303.89 2205.67 1303.54 2204.06 1302.98 2202.53 1302.2 2201.14 1301.26 2199.84 1300.17 2198.75 1298.91 2197.8 1297.5 2197.02 1295.96 2196.46 1294.35 2196.11 1292.63 2196 1290.83 2196 1238.19 2196.11 1236.43 2196.46 1234.69 2197.02 1233.04 2197.8 1231.56 2198.75 1230.15 2199.84 1228.89 2201.14 1227.76 2202.53 1226.81 2204.06 1226.06 2205.67 1225.48 2207.4 1225.17 2209.22 1225Z" fill="#79787A" fill-rule="evenodd"/><path d="M2209.22 1229.39 2207.75 1229.52 2206.42 1229.87 2205.15 1230.37 2204.02 1231.13 2203 1231.98 2202.09 1233 2201.38 1234.15 2200.83 1235.41 2200.53 1236.78 2200.4 1238.19 2200.4 1290.83 2200.53 1292.28 2200.83 1293.61 2201.38 1294.87 2202.09 1296 2203 1297.06 2204.02 1297.93 2205.15 1298.63 2206.42 1299.19 2207.75 1299.5 2209.22 1299.61 2248.78 1299.61 2250.23 1299.5 2251.57 1299.19 2252.83 1298.63 2254.02 1297.93 2255.04 1297.06 2255.89 1296 2256.6 1294.87 2257.15 1293.61 2257.47 1292.28 2257.58 1290.83 2257.58 1238.19 2257.47 1236.78 2257.15 1235.41 2256.6 1234.15 2255.89 1233 2255.04 1231.98 2254.02 1231.13 2252.83 1230.37 2251.57 1229.87 2250.23 1229.52 2248.78 1229.39 2209.22 1229.39ZM2209.22 1225 2248.78 1225 2250.58 1225.17 2252.33 1225.48 2253.92 1226.06 2255.46 1226.81 2256.88 1227.76 2258.14 1228.89 2259.23 1230.15 2260.18 1231.56 2260.98 1233.04 2261.52 1234.69 2261.87 1236.43 2262 1238.19 2262 1290.83 2261.87 1292.63 2261.52 1294.35 2260.98 1295.96 2260.18 1297.5 2259.23 1298.91 2258.14 1300.17 2256.88 1301.26 2255.46 1302.2 2253.92 1302.98 2252.33 1303.54 2250.58 1303.89 2248.78 1304 2209.22 1304 2207.4 1303.89 2205.67 1303.54 2204.06 1302.98 2202.53 1302.2 2201.14 1301.26 2199.84 1300.17 2198.75 1298.91 2197.8 1297.5 2197.02 1295.96 2196.46 1294.35 2196.11 1292.63 2196 1290.83 2196 1238.19 2196.11 1236.43 2196.46 1234.69 2197.02 1233.04 2197.8 1231.56 2198.75 1230.15 2199.84 1228.89 2201.14 1227.76 2202.53 1226.81 2204.06 1226.06 2205.67 1225.48 2207.4 1225.17 2209.22 1225Z" fill="#262626" fill-rule="evenodd"/><rect x="2262" y="1242" width="1" height="14.0001" fill="#404040"/><path d="M2221.99 1292 2222.4 1292.1 2222.71 1292.32 2222.92 1292.64 2223 1293 2222.92 1293.39 2222.71 1293.73 2222.4 1293.93 2221.99 1294 2221.6 1293.93 2221.29 1293.73 2221.1 1293.39 2221 1293 2221.1 1292.64 2221.29 1292.32 2221.6 1292.1 2221.99 1292Z" fill="#F2F2F2" fill-rule="evenodd"/><path d="M2226.51 1292 2227.09 1292.1 2227.57 1292.32 2227.9 1292.64 2228 1293 2227.9 1293.39 2227.57 1293.73 2227.09 1293.93 2226.51 1294 2225.91 1293.93 2225.43 1293.73 2225.13 1293.39 2225 1293 2225.13 1292.64 2225.43 1292.32 2225.91 1292.1 2226.51 1292Z" fill="#F2F2F2" fill-rule="evenodd"/><path d="M2231 1292 2231.39 1292.1 2231.71 1292.32 2231.93 1292.64 2232 1293 2231.93 1293.39 2231.71 1293.73 2231.39 1293.93 2231 1294 2230.61 1293.93 2230.29 1293.73 2230.07 1293.39 2230 1293 2230.07 1292.64 2230.29 1292.32 2230.61 1292.1 2231 1292Z" fill="#F2F2F2" fill-rule="evenodd"/><path d="M2234.99 1292 2235.4 1292.1 2235.71 1292.32 2235.92 1292.64 2236 1293 2235.92 1293.39 2235.71 1293.73 2235.4 1293.93 2234.99 1294 2234.6 1293.93 2234.29 1293.73 2234.07 1293.39 2234 1293 2234.07 1292.64 2234.29 1292.32 2234.6 1292.1 2234.99 1292Z" fill="#F2F2F2" fill-rule="evenodd"/><path d="M2165.24 1110.83 2163.46 1110.83 2161.53 1111.1 2160.05 1111.65 2158.71 1112.6 2157.97 1114.38 2157.67 1116.97 2157.67 1122.71 2158.26 1124.89 2160.05 1126.4 2162.87 1127.62 2166.43 1128.44 2170.44 1128.72 2174.6 1128.72 2184.1 1128.72 2187.67 1128.72 2190.34 1127.9 2191.97 1126.94 2193.16 1125.71 2193.46 1123.66 2192.57 1121.62 2190.93 1119.98 2188.26 1118.47 2184.99 1117.11 2181.73 1115.88 2178.46 1114.65 2174.9 1113.15 2171.33 1111.92 2168.06 1111.1 2165.24 1110.83ZM2291.61 1110.83 2288.94 1111.1 2285.52 1111.92 2282.1 1113.15 2278.54 1114.65 2275.27 1115.88 2272.01 1117.11 2268.74 1118.47 2266.22 1119.98 2264.29 1121.62 2263.54 1123.66 2263.84 1125.71 2264.88 1126.94 2266.51 1127.9 2269.19 1128.72 2272.75 1128.72 2282.25 1128.72 2286.41 1128.72 2290.57 1128.44 2293.98 1127.62 2296.81 1126.4 2298.74 1124.89 2299.18 1122.71 2299.18 1122.71 2299.18 1116.7 2298.88 1114.38 2298.14 1112.6 2297.1 1111.65 2295.47 1111.1 2293.54 1110.83 2291.61 1110.83ZM2228.65 1051.02 2218.25 1051.02 2209.49 1051.43 2202.37 1051.97 2196.72 1052.79 2191.97 1053.47 2188.56 1054.29 2186.03 1055.25 2184.1 1056.21 2183.06 1057.03 2182.47 1057.98 2181.87 1058.8 2181.73 1059.21 2180.83 1061.26 2179.5 1064.54 2177.57 1069.04 2175.34 1074.5 2173.26 1081.61 2171.03 1089.8 2171.63 1090.07 2173.71 1090.62 2177.27 1091.3 2182.17 1092.39 2188.7 1093.35 2196.43 1094.3 2205.63 1095.12 2216.32 1095.53 2228.65 1095.81 2240.53 1095.53 2251.22 1095.12 2260.43 1094.3 2268.15 1093.35 2274.68 1092.39 2279.58 1091.3 2283.14 1090.62 2285.37 1090.07 2285.82 1089.8 2283.74 1082.01 2281.21 1075.32 2278.99 1069.32 2277.2 1064.54 2275.57 1060.71 2274.68 1058.25 2274.68 1057.98 2274.38 1057.43 2273.64 1057.03 2272.45 1056.21 2270.82 1055.52 2268.44 1054.43 2264.88 1053.75 2260.43 1052.79 2254.78 1051.97 2247.36 1051.43 2238.89 1051.02 2228.65 1051.02ZM2228.65 1039 2237.56 1039 2245.28 1039.27 2251.81 1039.68 2257.01 1040.23 2260.72 1040.78 2263.84 1041.18 2265.62 1041.73 2266.81 1042 2267.11 1042 2270.08 1042.69 2273.64 1043.92 2277.2 1045.42 2280.47 1047.19 2283.14 1049.51 2285.37 1052.52 2286.11 1054.43 2287.45 1057.43 2289.08 1061.53 2291.01 1066.31 2292.94 1071.23 2295.17 1076.83 2297.25 1082.29 2299.48 1087.61 2306.61 1087.61 2309.87 1088.3 2312.84 1090.34 2314.48 1093.08 2316.7 1098.67 2317 1100.59 2316.41 1102.36 2314.77 1103.59 2312.84 1103.86 2305.71 1103.86 2306.01 1105.37 2306.61 1106.32 2306.9 1107.14 2307.2 1107.69 2307.2 1107.82 2307.35 1109.19 2307.94 1110.83 2307.94 1112.6 2308.24 1113.83 2308.24 1163.26 2307.65 1165.59 2306.31 1167.22 2304.38 1168.59 2302 1169 2278.99 1169 2276.61 1168.59 2274.68 1167.22 2273.34 1165.59 2272.75 1163.26 2272.75 1152.75 2184.1 1152.75 2184.1 1163.26 2183.8 1165.59 2182.47 1167.22 2180.24 1168.59 2177.86 1169 2155 1169 2152.77 1168.59 2150.54 1167.22 2149.21 1165.59 2148.91 1163.26 2148.91 1113.83 2148.91 1112.6 2149.21 1110.83 2149.5 1109.19 2149.8 1107.82 2149.8 1107.69 2149.95 1107.14 2150.25 1106.32 2150.84 1105.37 2151.43 1103.86 2144.31 1103.86 2142.08 1103.59 2140.45 1102.36 2140 1100.59 2140.15 1098.67 2142.38 1093.08 2144.01 1090.34 2146.98 1088.3 2150.25 1087.61 2157.37 1087.61 2159.6 1082.01 2161.68 1076.55 2163.91 1071.09 2165.84 1065.76 2167.77 1061.26 2169.4 1057.3 2170.44 1054.43 2171.33 1052.79 2174 1049.51 2177.57 1046.92 2181.73 1045.01 2185.73 1043.23 2189.89 1042 2190.19 1042 2191.23 1041.73 2193.16 1041.18 2196.13 1040.78 2200.29 1040.23 2205.19 1039.68 2211.72 1039.27 2219.29 1039 2228.65 1039Z" fill="#79787A" fill-rule="evenodd"/><path d="M2316.29 1445.02C2310.16 1445.02 2310.16 1445.02 2310.16 1445.02 2308.27 1445.02 2306.39 1445.96 2305.92 1447.85 2303.09 1438.87 2299.32 1430.84 2295.08 1426.58 2294.13 1425.16 2291.78 1423.27 2271.04 1421.85 2268.68 1421.85 2266.32 1421.38 2263.97 1421.38 2245.11 1401.05 2245.11 1401.05 2245.11 1401.05 2245.11 1376 2245.11 1376 2245.11 1376 2215.42 1376 2215.42 1376 2215.42 1376 2215.42 1401.05 2215.42 1401.05 2215.42 1401.05 2196.56 1421.38 2196.56 1421.38 2196.56 1421.38 2180.06 1422.33 2167.34 1423.75 2164.51 1426.11 2159.8 1430.36 2156.5 1437.93 2154.14 1445.96 2153.2 1445.49 2152.25 1445.02 2150.84 1445.02 2144.71 1445.02 2144.71 1445.02 2144.71 1445.02 2142.36 1445.02 2140 1446.91 2140 1449.75 2140 1501.27 2140 1501.27 2140 1501.27 2140 1504.11 2142.36 1506 2144.71 1506 2150.84 1506 2150.84 1506 2150.84 1506 2153.67 1506 2155.55 1504.11 2155.55 1501.27 2155.55 1490.87 2155.55 1490.87 2155.55 1490.87 2156.5 1492.29 2157.44 1493.24 2158.38 1494.18 2164.04 1499.85 2177.24 1501.27 2189.96 1501.27 2198.92 1501.27 2207.4 1500.33 2213.06 1499.85 2213.53 1499.85 2214.47 1499.85 2214.95 1499.38 2215.42 1499.38 2215.89 1499.38 2216.36 1499.38 2217.77 1499.38 2219.66 1498.44 2221.07 1497.49 2230.03 1488.51 2230.03 1488.51 2230.03 1488.51 2238.98 1497.02 2238.98 1497.02 2238.98 1497.02 2240.4 1498.44 2241.81 1499.38 2243.7 1499.38 2244.17 1499.38 2244.64 1499.38 2244.64 1499.38 2245.58 1499.85 2246.05 1499.85 2246.53 1499.85 2264.44 1501.75 2295.08 1502.69 2304.03 1493.24 2304.5 1492.76 2304.97 1492.29 2305.45 1491.82 2305.45 1501.27 2305.45 1501.27 2305.45 1501.27 2305.45 1504.11 2307.33 1506 2310.16 1506 2316.29 1506 2316.29 1506 2316.29 1506 2319.11 1506 2321 1504.11 2321 1501.27 2321 1449.75 2321 1449.75 2321 1449.75 2321 1446.91 2319.11 1445.02 2316.29 1445.02ZM2253.12 1420.91C2250.77 1420.91 2247.94 1420.91 2245.11 1420.91 2245.11 1412.4 2245.11 1412.4 2245.11 1412.4L2253.12 1420.91ZM2222.96 1383.56C2237.57 1383.56 2237.57 1383.56 2237.57 1383.56 2237.57 1420.91 2237.57 1420.91 2237.57 1420.91 2222.96 1420.91 2222.96 1420.91 2222.96 1420.91L2222.96 1383.56ZM2215.42 1411.93C2215.42 1420.91 2215.42 1420.91 2215.42 1420.91 2212.59 1420.91 2209.76 1420.91 2206.93 1420.91L2215.42 1411.93ZM2279.05 1439.82C2287.53 1449.75 2293.19 1480.95 2286.59 1488.51 2282.82 1492.29 2266.79 1493.71 2246.53 1492.29 2246.53 1491.82 2246.53 1491.82 2246.05 1491.82 2232.86 1479.53 2232.86 1479.53 2232.86 1479.53 2231.44 1478.11 2229.09 1478.11 2227.67 1479.53 2213.53 1491.82 2213.53 1491.82 2213.53 1491.82 2213.06 1491.82 2213.06 1492.29 2213.06 1492.29 2194.21 1493.71 2179.12 1492.76 2175.35 1488.98 2172.99 1486.62 2171.58 1480 2171.58 1471.49 2171.58 1458.73 2175.82 1445.02 2180.06 1440.29 2189.02 1436.04 2270.56 1436.04 2279.05 1439.82ZM2298.85 1488.04C2297.9 1488.98 2296.02 1489.93 2294.13 1490.87 2302.15 1476.69 2293.19 1444.55 2284.71 1434.62 2283.29 1432.73 2280.46 1431.31 2263.02 1430.36 2242.76 1428.95 2181.48 1428.47 2175.35 1434.62 2168.28 1441.24 2164.51 1458.25 2164.04 1471.02 2164.04 1477.64 2164.51 1485.67 2167.81 1491.35 2165.92 1490.4 2164.51 1489.93 2163.57 1488.98 2160.27 1485.67 2158.38 1478.11 2158.85 1468.18 2158.85 1453.53 2163.57 1437.45 2169.22 1432.25 2173.47 1429.89 2193.73 1428.47 2216.83 1428.47 2245.11 1428.47 2245.11 1428.47 2245.11 1428.47 2266.79 1428.47 2285.65 1429.89 2289.89 1431.78 2299.79 1442.65 2306.86 1479.05 2298.85 1488.04ZM2177.24 1458.25C2181.01 1460.15 2181.01 1460.15 2181.01 1460.15 2181.01 1460.62 2181.48 1460.62 2181.95 1460.62 2182.42 1460.62 2183.36 1460.15 2183.84 1459.2 2189.96 1445.96 2189.96 1445.96 2189.96 1445.96 2190.91 1445.02 2190.43 1443.6 2189.02 1443.13 2185.72 1441.71 2185.72 1441.71 2185.72 1441.71 2185.25 1441.24 2184.31 1441.24 2183.84 1441.24 2183.36 1441.71 2182.89 1442.18 2182.89 1442.65 2176.29 1455.42 2176.29 1455.42 2176.29 1455.42 2175.82 1456.84 2176.29 1457.78 2177.24 1458.25ZM2177.71 1456.36C2184.31 1443.13 2184.31 1443.13 2184.31 1443.13 2184.31 1443.13 2184.78 1443.13 2184.78 1443.13 2188.55 1445.02 2188.55 1445.02 2188.55 1445.02 2188.55 1445.02 2188.55 1445.02 2188.55 1445.49 2181.95 1458.73 2181.95 1458.73 2181.95 1458.73 2181.95 1458.73 2181.95 1458.73 2181.48 1458.73 2178.18 1456.84 2178.18 1456.84 2178.18 1456.84 2177.71 1456.84 2177.71 1456.36 2177.71 1456.36Z" fill="#79787A" fill-rule="evenodd"/><text font-family="Latha,Latha_MSFontService,sans-serif" font-weight="400" font-size="41" transform="translate(2375.76 1273)">திறன் கடிகாரம்</text><g clip-path="url(#clip4)"><g clip-path="url(#clip5)"><g clip-path="url(#clip6)"><path d="M48.5 178.744 48.5 184.906C48.5 186.131 49.2396 187.237 50.3702 187.707 50.7461 187.862 51.1402 187.937 51.5312 187.937 52.3193 187.937 53.0953 187.628 53.6743 187.049L71.8618 168.862C73.047 167.677 73.047 165.761 71.8618 164.576L53.6743 146.388C52.8043 145.518 51.5039 145.257 50.3702 145.73 49.2396 146.2 48.5 147.307 48.5 148.531L48.5 154.287C41.5918 152.881 36.375 146.755 36.375 139.437L36.375 133.375C36.375 131.702 35.017 130.344 33.3437 130.344L9.09374 130.344C7.42049 130.344 6.0625 131.702 6.0625 133.375 6.0625 157.428 24.838 177.176 48.5 178.744Z" fill="#DF7275" transform="matrix(1.00516 0 0 1 2371 291)"/><path d="M145.5 15.2563 145.5 9.09374C145.5 7.86912 144.76 6.76271 143.63 6.29287 142.493 5.82 141.192 6.08068 140.326 6.95065L122.138 25.1381C120.953 26.3234 120.953 28.2391 122.138 29.4243L140.326 47.6118C141.192 48.4787 142.493 48.7334 143.63 48.2696 144.76 47.7997 145.5 46.6933 145.5 45.4687L145.5 39.7124C152.408 41.1189 157.625 47.245 157.625 54.5625L157.625 60.625C157.625 62.2982 158.983 63.6562 160.656 63.6562L184.906 63.6562C186.579 63.6562 187.937 62.2982 187.937 60.625 187.937 36.572 169.162 16.8234 145.5 15.2563Z" fill="#DF7275" transform="matrix(1.00516 0 0 1 2371 291)"/><path d="M27.2812 84.8749 45.4687 84.8749 45.4687 109.125 27.2812 109.125Z" fill="#DF7275" transform="matrix(1.00516 0 0 1 2371 291)"/><path d="M60.625 109.125 60.625 12.125 12.125 12.125 12.125 109.125 21.2187 109.125 21.2187 81.8437C21.2187 80.1704 22.5767 78.8124 24.25 78.8124L48.5 78.8124C50.1732 78.8124 51.5312 80.1704 51.5312 81.8437L51.5312 109.125 60.625 109.125ZM45.4687 18.1875 51.5312 18.1875 51.5312 24.25 45.4687 24.25 45.4687 18.1875ZM45.4687 33.3437 51.5312 33.3437 51.5312 39.4062 45.4687 39.4062 45.4687 33.3437ZM45.4687 48.5 51.5312 48.5 51.5312 54.5625 45.4687 54.5625 45.4687 48.5ZM27.2812 69.7187 21.2187 69.7187 21.2187 63.6562 27.2812 63.6562 27.2812 69.7187ZM27.2812 54.5625 21.2187 54.5625 21.2187 48.5 27.2812 48.5 27.2812 54.5625ZM27.2812 39.4062 21.2187 39.4062 21.2187 33.3437 27.2812 33.3437 27.2812 39.4062ZM27.2812 24.25 21.2187 24.25 21.2187 18.1875 27.2812 18.1875 27.2812 24.25ZM39.4062 69.7187 33.3437 69.7187 33.3437 63.6562 39.4062 63.6562 39.4062 69.7187ZM39.4062 54.5625 33.3437 54.5625 33.3437 48.5 39.4062 48.5 39.4062 54.5625ZM39.4062 39.4062 33.3437 39.4062 33.3437 33.3437 39.4062 33.3437 39.4062 39.4062ZM39.4062 24.25 33.3437 24.25 33.3437 18.1875 39.4062 18.1875 39.4062 24.25ZM45.4687 69.7187 45.4687 63.6562 51.5312 63.6562 51.5312 69.7187 45.4687 69.7187Z" fill="#DF7275" transform="matrix(1.00516 0 0 1 2371 291)"/><path d="M172.781 169.75C169.826 169.75 167.085 168.865 164.751 167.395L154.594 171.747 154.594 181.875 181.875 181.875 181.875 178.844C181.875 173.83 177.795 169.75 172.781 169.75Z" fill="#DF7275" transform="matrix(1.00516 0 0 1 2371 291)"/><path d="M157.534 155.333C155.636 156.146 153.599 156.552 151.562 156.552 149.525 156.552 147.488 156.146 145.591 155.333 145.536 155.309 145.488 155.276 145.433 155.251 145.321 157.804 144.575 160.177 143.348 162.254L151.659 166.409 160.077 162.802C158.656 160.608 157.813 158.025 157.692 155.248 157.637 155.273 157.589 155.309 157.534 155.333 157.534 155.333 157.534 155.333 157.534 155.333Z" fill="#DF7275" transform="matrix(1.00516 0 0 1 2371 291)"/><path d="M121.25 178.844 121.25 181.875 148.531 181.875 148.531 171.623 139.11 166.913C136.627 168.683 133.614 169.75 130.344 169.75 125.33 169.75 121.25 173.83 121.25 178.844Z" fill="#DF7275" transform="matrix(1.00516 0 0 1 2371 291)"/><path d="M169.553 130.259C164.597 129.274 160.341 126.33 157.725 122.135 154.506 127.124 148.952 130.438 142.654 130.507L133.596 130.607C134.648 139.028 140.038 146.358 147.979 149.762 150.256 150.735 152.866 150.735 155.142 149.762 163.193 146.312 168.61 138.825 169.553 130.259Z" fill="#DF7275" transform="matrix(1.00516 0 0 1 2371 291)"/><path d="M169.75 118.219C169.75 109.862 162.951 103.062 154.594 103.062L148.531 103.062C140.174 103.062 133.375 109.862 133.375 118.219L133.375 124.548 142.587 124.448C149.207 124.372 154.594 118.925 154.594 112.305 154.594 110.747 155.776 109.367 157.325 109.213 158.853 109.046 160.289 110.031 160.596 111.559L161.247 114.824C162.157 119.368 165.482 122.823 169.747 124.06L169.747 118.219Z" fill="#DF7275" transform="matrix(1.00516 0 0 1 2371 291)"/><path d="M66.6875 109.125 109.125 109.125 109.125 42.4375 66.6875 42.4375 66.6875 109.125ZM96.9999 48.5 103.062 48.5 103.062 54.5625 96.9999 54.5625 96.9999 48.5ZM96.9999 63.6562 103.062 63.6562 103.062 69.7187 96.9999 69.7187 96.9999 63.6562ZM96.9999 78.8124 103.062 78.8124 103.062 84.8749 96.9999 84.8749 96.9999 78.8124ZM84.8749 48.5 90.9374 48.5 90.9374 54.5625 84.8749 54.5625 84.8749 48.5ZM84.8749 63.6562 90.9374 63.6562 90.9374 69.7187 84.8749 69.7187 84.8749 63.6562ZM84.8749 78.8124 90.9374 78.8124 90.9374 84.8749 84.8749 84.8749 84.8749 78.8124ZM72.7499 48.5 78.8124 48.5 78.8124 54.5625 72.7499 54.5625 72.7499 48.5ZM72.7499 63.6562 78.8124 63.6562 78.8124 69.7187 72.7499 69.7187 72.7499 63.6562ZM72.7499 78.8124 78.8124 78.8124 78.8124 84.8749 72.7499 84.8749 72.7499 78.8124Z" fill="#DF7275" transform="matrix(1.00516 0 0 1 2371 291)"/></g></g></g><g clip-path="url(#clip7)"><g clip-path="url(#clip8)"><g clip-path="url(#clip9)"><path d="M53.6743 146.388C52.8074 145.521 51.507 145.263 50.3702 145.73 49.2366 146.2 48.5 147.307 48.5 148.531L48.5 154.287C41.5918 152.881 36.375 146.755 36.375 139.437L36.375 133.375C36.375 131.702 35.02 130.344 33.3437 130.344L9.09374 130.344C7.41746 130.344 6.0625 131.702 6.0625 133.375 6.0625 157.428 24.835 177.176 48.5 178.744L48.5 184.906C48.5 186.131 49.2366 187.237 50.3702 187.707 50.7461 187.862 51.1402 187.937 51.5312 187.937 52.3193 187.937 53.0953 187.628 53.6743 187.049L71.8618 168.862C73.047 167.677 73.047 165.761 71.8618 164.576L53.6743 146.388Z" fill="#01919A" transform="matrix(1.00515 0 0 1 687 291)"/><path d="M145.5 15.2563 145.5 9.09374C145.5 7.86912 144.763 6.76271 143.63 6.29287 142.499 5.82303 141.192 6.08371 140.326 6.95065L122.138 25.1381C120.953 26.3234 120.953 28.2391 122.138 29.4243L140.326 47.6118C141.196 48.4818 142.499 48.7394 143.63 48.2696 144.763 47.7997 145.5 46.6933 145.5 45.4687L145.5 39.7124C152.408 41.1189 157.625 47.245 157.625 54.5625L157.625 60.625C157.625 62.2982 158.98 63.6562 160.656 63.6562L184.906 63.6562C186.582 63.6562 187.937 62.2982 187.937 60.625 187.937 36.572 169.165 16.8234 145.5 15.2563Z" fill="#01919A" transform="matrix(1.00515 0 0 1 687 291)"/><path d="M60.625 109.125 60.625 12.125 12.125 12.125 12.125 109.125 21.2187 109.125 21.2187 81.8437C21.2187 80.1704 22.5737 78.8124 24.25 78.8124L48.5 78.8124C50.1762 78.8124 51.5312 80.1704 51.5312 81.8437L51.5312 109.125 60.625 109.125ZM45.4687 18.1875 51.5312 18.1875 51.5312 24.25 45.4687 24.25 45.4687 18.1875ZM45.4687 33.3437 51.5312 33.3437 51.5312 39.4062 45.4687 39.4062 45.4687 33.3437ZM45.4687 48.5 51.5312 48.5 51.5312 54.5625 45.4687 54.5625 45.4687 48.5ZM27.2812 69.7187 21.2187 69.7187 21.2187 63.6562 27.2812 63.6562 27.2812 69.7187ZM27.2812 54.5625 21.2187 54.5625 21.2187 48.5 27.2812 48.5 27.2812 54.5625ZM27.2812 39.4062 21.2187 39.4062 21.2187 33.3437 27.2812 33.3437 27.2812 39.4062ZM27.2812 24.25 21.2187 24.25 21.2187 18.1875 27.2812 18.1875 27.2812 24.25ZM39.4062 69.7187 33.3437 69.7187 33.3437 63.6562 39.4062 63.6562 39.4062 69.7187ZM39.4062 54.5625 33.3437 54.5625 33.3437 48.5 39.4062 48.5 39.4062 54.5625ZM39.4062 39.4062 33.3437 39.4062 33.3437 33.3437 39.4062 33.3437 39.4062 39.4062ZM39.4062 24.25 33.3437 24.25 33.3437 18.1875 39.4062 18.1875 39.4062 24.25ZM45.4687 69.7187 45.4687 63.6562 51.5312 63.6562 51.5312 69.7187 45.4687 69.7187Z" fill="#01919A" transform="matrix(1.00515 0 0 1 687 291)"/><path d="M27.2812 84.8749 45.4687 84.8749 45.4687 109.125 27.2812 109.125Z" fill="#01919A" transform="matrix(1.00515 0 0 1 687 291)"/><path d="M109.125 42.4375 66.6875 42.4375 66.6875 109.125 81.8437 109.125 109.125 109.125 109.125 42.4375ZM78.8124 84.8749 72.7499 84.8749 72.7499 78.8124 78.8124 78.8124 78.8124 84.8749ZM78.8124 69.7187 72.7499 69.7187 72.7499 63.6562 78.8124 63.6562 78.8124 69.7187ZM78.8124 54.5625 72.7499 54.5625 72.7499 48.5 78.8124 48.5 78.8124 54.5625ZM90.9374 84.8749 84.8749 84.8749 84.8749 78.8124 90.9374 78.8124 90.9374 84.8749ZM90.9374 69.7187 84.8749 69.7187 84.8749 63.6562 90.9374 63.6562 90.9374 69.7187ZM90.9374 54.5625 84.8749 54.5625 84.8749 48.5 90.9374 48.5 90.9374 54.5625ZM103.062 84.8749 96.9999 84.8749 96.9999 78.8124 103.062 78.8124 103.062 84.8749ZM103.062 69.7187 96.9999 69.7187 96.9999 63.6562 103.062 63.6562 103.062 69.7187ZM103.062 54.5625 96.9999 54.5625 96.9999 48.5 103.062 48.5 103.062 54.5625Z" fill="#01919A" transform="matrix(1.00515 0 0 1 687 291)"/><path d="M160.656 157.625 166.719 157.625 166.719 181.875 160.656 181.875Z" fill="#01919A" transform="matrix(1.00515 0 0 1 687 291)"/><path d="M148.531 157.625 154.594 157.625 154.594 181.875 148.531 181.875Z" fill="#01919A" transform="matrix(1.00515 0 0 1 687 291)"/><path d="M133.375 181.875 142.469 181.875 142.469 154.594C142.469 152.92 143.824 151.562 145.5 151.562L169.75 151.562C171.426 151.562 172.781 152.92 172.781 154.594L172.781 181.875 181.875 181.875 181.875 84.8749 133.375 84.8749 133.375 181.875ZM148.531 142.469 142.469 142.469 142.469 136.406 148.531 136.406 148.531 142.469ZM160.656 142.469 154.594 142.469 154.594 136.406 160.656 136.406 160.656 142.469ZM172.781 142.469 166.719 142.469 166.719 136.406 172.781 136.406 172.781 142.469ZM139.437 90.9374 175.812 90.9374 175.812 96.9999 139.437 96.9999 139.437 90.9374ZM139.437 106.094 175.812 106.094 175.812 112.156 139.437 112.156 139.437 106.094ZM139.437 121.25 175.812 121.25 175.812 127.312 139.437 127.312 139.437 121.25Z" fill="#01919A" transform="matrix(1.00515 0 0 1 687 291)"/><path d="M84.8749 115.187 84.8749 181.875 127.312 181.875 127.312 115.187 112.156 115.187 84.8749 115.187ZM96.9999 157.625 90.9374 157.625 90.9374 151.562 96.9999 151.562 96.9999 157.625ZM109.125 157.625 103.062 157.625 103.062 151.562 109.125 151.562 109.125 157.625ZM121.25 157.625 115.187 157.625 115.187 151.562 121.25 151.562 121.25 157.625ZM121.25 142.469 90.9374 142.469 90.9374 136.406 121.25 136.406 121.25 142.469ZM121.25 127.312 90.9374 127.312 90.9374 121.25 121.25 121.25 121.25 127.312Z" fill="#01919A" transform="matrix(1.00515 0 0 1 687 291)"/></g></g></g><text font-family="Latha,Latha_MSFontService,sans-serif" font-weight="400" font-size="50" transform="translate(163.459 721)">அடையாளம் மற்றும் அணுகல் மேலா<tspan font-size="50" x="1054.74" y="0">ண்மை </tspan><tspan font-size="50" x="180.469" y="62">அமைப்பில் நிர்வகிக்கப்படுகிறது</tspan><tspan font-size="50" x="1725.65" y="0">நுகர்வோர் அடையாளம் மற்றும் அணு</tspan>கல் <tspan font-size="50" x="1669.51" y="62">மேலாண்மை அமைப்பில் நிர்வகிக்க</tspan><tspan font-size="50" x="2664.66" y="62">ப்படுகிறது</tspan></text><g clip-path="url(#clip10)"><g clip-path="url(#clip11)"><g clip-path="url(#clip12)"><path d="M2198.74 846.15C2198.74 857.996 2189.14 867.6 2177.29 867.6 2165.44 867.6 2155.84 857.996 2155.84 846.15 2155.84 834.303 2165.44 824.7 2177.29 824.7 2189.14 824.7 2198.74 834.303 2198.74 846.15Z" fill="#79787A"/><path d="M2204.59 884.37C2200.69 877.74 2193.28 873.45 2185.09 873.45L2169.1 873.45C2157.59 873.45 2147.84 882.03 2146.48 893.535L2144.33 912.06C2144.14 914.4 2145.7 916.74 2148.04 917.325 2157.21 919.275 2166.96 920.25 2177.09 920.25 2182.17 920.25 2187.23 920.055 2192.11 919.47L2194.06 903.48C2195.23 895.68 2199.13 889.05 2204.59 884.37Z" fill="#79787A"/><path d="M2307.16 846.15C2307.16 857.996 2297.56 867.6 2285.71 867.6 2273.86 867.6 2264.26 857.996 2264.26 846.15 2264.26 834.303 2273.86 824.7 2285.71 824.7 2297.56 824.7 2307.16 834.303 2307.16 846.15Z" fill="#79787A"/><path d="M2285.71 920.055C2295.85 920.055 2305.6 919.08 2314.76 917.13 2317.1 916.545 2318.66 914.4 2318.47 911.865L2316.32 893.34C2314.76 882.03 2305.21 873.45 2293.7 873.45L2277.71 873.45C2269.52 873.45 2262.31 877.74 2258.41 884.37 2264.06 889.05 2267.96 895.68 2268.74 903.48L2270.69 919.47C2275.57 919.86 2280.64 920.055 2285.71 920.055Z" fill="#79787A"/><path d="M2239.49 884.175 2223.5 884.175C2212 884.175 2202.25 892.755 2200.89 904.26L2198.74 922.785C2198.54 925.125 2199.91 927.465 2202.45 928.05 2211.61 930 2221.36 930.975 2231.5 930.975 2241.64 930.975 2251.39 930 2260.55 928.05 2262.9 927.465 2264.45 925.32 2264.26 922.785L2262.11 904.26C2260.75 892.755 2251 884.175 2239.49 884.175Z" fill="#79787A"/><path d="M2252.95 856.875C2252.95 868.721 2243.35 878.325 2231.5 878.325 2219.65 878.325 2210.05 868.721 2210.05 856.875 2210.05 845.028 2219.65 835.425 2231.5 835.425 2243.35 835.425 2252.95 845.028 2252.95 856.875Z" fill="#79787A"/><path d="M2190.55 951.255 2177.09 950.085C2175.93 949.89 2174.75 949.305 2174.36 948.135L2169.29 935.85C2168.12 933.12 2164.42 933.12 2163.25 935.85L2157.99 948.33C2157.59 949.5 2156.43 950.28 2155.25 950.28L2141.8 951.255C2138.88 951.45 2137.71 955.155 2139.85 956.91L2149.99 965.685C2150.97 966.465 2151.35 967.635 2150.97 969L2147.84 982.065C2147.26 984.99 2150.19 987.135 2152.72 985.575L2164.23 978.555C2165.2 977.97 2166.56 977.97 2167.54 978.555L2179.04 985.575C2181.58 987.135 2184.7 984.795 2183.92 982.065L2181.19 969C2180.99 967.83 2181.39 966.465 2182.17 965.685L2192.3 956.91C2194.65 955.155 2193.47 951.45 2190.55 951.255Z" fill="#79787A"/><path d="M2255.88 961.395 2242.42 960.225C2241.25 960.03 2240.08 959.445 2239.69 958.275L2234.43 945.795C2233.25 943.065 2229.55 943.065 2228.38 945.795L2223.11 958.275C2222.72 959.445 2221.55 960.225 2220.39 960.225L2206.93 961.395C2204 961.59 2202.83 965.295 2204.98 967.05L2215.12 975.825C2216.09 976.605 2216.48 977.775 2216.09 979.14L2212.97 992.205C2212.39 995.13 2215.31 997.275 2217.85 995.715L2229.35 988.695C2230.33 988.11 2231.69 988.11 2232.67 988.695L2244.18 995.715C2246.71 997.275 2249.83 994.935 2249.05 992.205L2245.93 979.14C2245.73 977.97 2246.12 976.605 2246.91 975.825L2257.04 967.05C2259.97 965.295 2258.8 961.59 2255.88 961.395Z" fill="#79787A"/><path d="M2322.95 957.105C2325.1 955.155 2323.93 951.645 2321 951.45L2307.55 950.28C2306.38 950.085 2305.21 949.5 2304.82 948.33L2299.75 935.85C2298.58 933.12 2294.88 933.12 2293.7 935.85L2288.44 948.33C2288.05 949.5 2286.88 950.28 2285.71 950.28L2272.45 951.255C2269.52 951.45 2268.35 955.155 2270.5 956.91L2280.64 965.685C2281.61 966.465 2282 967.635 2281.61 969L2278.49 982.065C2277.91 984.99 2280.83 987.135 2283.37 985.575L2294.88 978.555C2295.85 977.97 2297.21 977.97 2298.19 978.555L2309.69 985.575C2312.23 987.135 2315.35 984.795 2314.57 982.065L2311.84 969C2311.65 967.83 2312.03 966.465 2312.81 965.685L2322.95 957.105Z" fill="#79787A"/></g></g></g><text font-family="Latha,Latha_MSFontService,sans-serif" font-weight="400" font-size="41" transform="translate(636.502 901)">பணியாளர்கள் மற்றும் <tspan font-size="41" x="0" y="51">ஒப்பந்ததாரர்கள்</tspan><tspan font-size="41" x="0" y="169">நிரல்கள் மற்றும் </tspan><tspan font-size="41" x="0" y="219">பயன்பாடுகள்</tspan></text><g clip-path="url(#clip13)"><g clip-path="url(#clip14)"><g clip-path="url(#clip15)"><path d="M16.77 145.86C16.77 153.465 22.815 159.51 30.42 159.51L164.58 159.51C172.185 159.51 178.23 153.465 178.23 145.86L178.23 71.76 16.77 71.76 16.77 145.86ZM98.6699 108.615C96.5249 108.615 94.77 106.86 94.77 104.715 94.77 102.57 96.5249 100.815 98.6699 100.815L107.835 100.815 107.835 94.38C107.835 92.2349 109.59 90.48 111.735 90.48L120.315 90.48C132.6 90.48 142.935 99.45 144.69 111.345L161.07 111.345C163.215 111.345 164.97 113.1 164.97 115.245 164.97 117.39 163.215 119.145 161.07 119.145L144.69 119.145C142.74 131.04 132.6 140.01 120.315 140.01L111.735 140.01C109.59 140.01 107.835 138.255 107.835 136.11L107.835 129.675 98.6699 129.675C96.5249 129.675 94.77 127.92 94.77 125.775 94.77 123.63 96.5249 121.875 98.6699 121.875L107.835 121.875 107.835 108.42 98.6699 108.42ZM33.93 111.345 50.31 111.345C52.26 99.45 62.4 90.48 74.685 90.48L83.265 90.48C85.41 90.48 87.165 92.2349 87.165 94.38L87.165 136.11C87.165 138.255 85.41 140.01 83.265 140.01L74.685 140.01C62.4 140.01 52.065 131.04 50.31 119.145L33.93 119.145C31.785 119.145 30.03 117.39 30.03 115.245 30.03 113.1 31.785 111.345 33.93 111.345Z" fill="#79787A" transform="matrix(1 0 0 1 403 1131)"/><path d="M74.88 132.21 79.56 132.21 79.56 98.28 74.88 98.28C65.52 98.28 57.915 105.885 57.915 115.245 57.72 124.605 65.52 132.21 74.88 132.21Z" fill="#79787A" transform="matrix(1 0 0 1 403 1131)"/><path d="M137.28 115.245C137.28 105.885 129.675 98.28 120.315 98.28L115.635 98.28 115.635 132.21 120.315 132.21C129.48 132.21 137.28 124.605 137.28 115.245Z" fill="#79787A" transform="matrix(1 0 0 1 403 1131)"/><path d="M164.58 35.49 30.42 35.49C22.815 35.49 16.77 41.535 16.77 49.14L16.77 63.765 178.23 63.765 178.23 49.14C178.23 41.73 171.99 35.49 164.58 35.49ZM30.615 59.865C25.155 59.865 20.67 55.38 20.67 49.92 20.67 44.46 25.155 39.975 30.615 39.975 36.075 39.975 40.56 44.46 40.56 49.92 40.56 55.38 36.075 59.865 30.615 59.865ZM57.72 59.865C52.26 59.865 47.775 55.38 47.775 49.92 47.775 44.46 52.26 39.975 57.72 39.975 63.18 39.975 67.665 44.46 67.665 49.92 67.665 55.38 63.18 59.865 57.72 59.865ZM84.825 59.865C79.365 59.865 74.88 55.38 74.88 49.92 74.88 44.46 79.365 39.975 84.825 39.975 90.285 39.975 94.77 44.46 94.77 49.92 94.77 55.38 90.285 59.865 84.825 59.865Z" fill="#79787A" transform="matrix(1 0 0 1 403 1131)"/></g></g></g><g clip-path="url(#clip16)"><g clip-path="url(#clip17)"><g clip-path="url(#clip18)"><path d="M16.77 145.86C16.77 153.465 22.815 159.51 30.42 159.51L164.58 159.51C172.185 159.51 178.23 153.465 178.23 145.86L178.23 65.52 16.77 65.52 16.77 145.86ZM123.24 89.7C121.68 88.14 121.68 85.8 123.24 84.24 124.8 82.68 127.14 82.68 128.7 84.24L153.66 109.2C155.22 110.76 155.22 113.1 153.66 114.66L128.7 139.62C127.92 140.4 126.945 140.79 125.97 140.79 124.995 140.79 124.02 140.4 123.24 139.62 121.68 138.06 121.68 135.72 123.24 134.16L145.47 111.93 123.24 89.7ZM80.73 134.94 107.64 85.02C108.615 83.07 110.955 82.485 112.905 83.46 114.855 84.435 115.44 86.775 114.465 88.725L87.555 138.645C86.775 140.01 85.41 140.79 84.045 140.79 83.46 140.79 82.875 140.595 82.29 140.4 80.34 139.23 79.56 136.89 80.73 134.94ZM41.34 109.005 66.3 84.045C67.86 82.485 70.2 82.485 71.76 84.045 73.32 85.605 73.32 87.945 71.76 89.505L49.53 111.735 71.76 133.965C73.32 135.525 73.32 137.865 71.76 139.425 70.98 140.205 70.005 140.595 69.03 140.595 68.055 140.595 67.08 140.205 66.3 139.425L41.34 114.66C39.78 113.1 39.78 110.565 41.34 109.005Z" fill="#79787A" transform="matrix(1 0 0 1 403 961)"/><path d="M164.58 35.49 30.42 35.49C22.815 35.49 16.77 41.535 16.77 49.14L16.77 57.72 178.23 57.72 178.23 49.14C178.23 41.73 171.99 35.49 164.58 35.49ZM28.665 53.43C24.96 53.43 22.035 50.505 22.035 46.8 22.035 43.095 24.96 40.17 28.665 40.17 32.37 40.17 35.295 43.095 35.295 46.8 35.295 50.505 32.37 53.43 28.665 53.43ZM48.75 53.43C45.045 53.43 42.12 50.505 42.12 46.8 42.12 43.095 45.045 40.17 48.75 40.17 52.455 40.17 55.38 43.095 55.38 46.8 55.38 50.505 52.455 53.43 48.75 53.43ZM69.03 53.43C65.325 53.43 62.4 50.505 62.4 46.8 62.4 43.095 65.325 40.17 69.03 40.17 72.735 40.17 75.66 43.095 75.66 46.8 75.66 50.505 72.735 53.43 69.03 53.43Z" fill="#79787A" transform="matrix(1 0 0 1 403 961)"/></g></g></g><g clip-path="url(#clip19)"><g clip-path="url(#clip20)"><g clip-path="url(#clip21)"><path d="M430.182 907.477C431.954 907.477 433.136 906.295 433.136 904.523L433.136 884.727 497.545 884.727 497.545 907.477C497.545 909.25 498.727 910.432 500.5 910.432 502.273 910.432 503.455 909.25 503.455 907.477L503.455 884.727 567.864 884.727 567.864 904.523C567.864 906.295 569.046 907.477 570.818 907.477 572.591 907.477 573.773 906.295 573.773 904.523L573.773 881.773C573.773 880 572.591 878.818 570.818 878.818L503.455 878.818 503.455 865.227C503.455 863.455 502.273 862.273 500.5 862.273 498.727 862.273 497.545 863.455 497.545 865.227L497.545 878.818 430.182 878.818C428.409 878.818 427.227 880 427.227 881.773L427.227 904.523C427.227 906 428.704 907.477 430.182 907.477Z" fill="#79787A"/><path d="M473.318 855.477 527.386 855.477C528.864 855.477 530.046 854.295 530.046 852.818L530.046 837.75C530.046 829.477 524.432 822.977 516.75 821.204 513.205 826.227 507.295 829.773 500.5 829.773 493.705 829.773 487.795 826.523 484.25 821.204 476.568 822.682 470.955 829.477 470.955 837.75L470.955 852.818C470.955 854.295 472.136 855.477 473.318 855.477ZM500.5 854 496.659 850.75 497.841 838.636 502.864 838.636 504.045 850.75 500.5 854ZM504.341 833.909 502.864 837.454 498.432 837.454 496.955 833.909 504.341 833.909Z" fill="#79787A"/><path d="M500.5 827.114C509.955 827.114 517.932 819.136 517.341 809.091 516.75 801.114 510.545 794.614 502.864 793.432 492.523 791.954 483.659 799.932 483.659 810.273 483.659 819.727 491.341 827.114 500.5 827.114Z" fill="#79787A"/><path d="M451.75 945.591C448.204 950.614 442.295 954.159 435.5 954.159 428.704 954.159 422.795 950.909 419.25 945.591 411.864 947.364 405.954 954.159 405.954 962.136L405.954 977.205C405.954 978.682 407.136 979.864 408.614 979.864L462.682 979.864C464.159 979.864 465.341 978.682 465.341 977.205L465.341 962.136C465.045 953.864 459.432 947.364 451.75 945.591ZM435.5 978.091 431.659 974.841 432.841 962.727 437.864 962.727 439.045 974.841 435.5 978.091ZM437.864 961.25 433.432 961.25 431.954 957.705 439.636 957.705 437.864 961.25Z" fill="#79787A"/><path d="M435.5 951.205C444.659 951.205 452.341 943.818 452.341 934.364 452.341 924.318 443.773 916.341 433.432 917.523 426.045 918.409 419.841 924.023 418.659 931.409 417.182 942.046 425.454 951.205 435.5 951.205Z" fill="#79787A"/><path d="M516.75 945.591C513.205 950.614 507.295 954.159 500.5 954.159 493.705 954.159 487.795 950.909 484.25 945.591 476.568 947.068 470.955 953.864 470.955 962.136L470.955 977.205C470.955 978.682 472.136 979.864 473.614 979.864L527.682 979.864C529.159 979.864 530.341 978.682 530.341 977.205L530.341 962.136C530.046 953.864 524.432 947.364 516.75 945.591ZM500.5 978.091 496.659 974.841 497.841 962.727 502.864 962.727 504.045 974.841 500.5 978.091ZM502.864 961.25 498.432 961.25 496.955 957.705 504.636 957.705 502.864 961.25Z" fill="#79787A"/><path d="M483.955 931.409C482.182 942.046 490.455 951.205 500.5 951.205 509.659 951.205 517.341 943.818 517.341 934.364 517.341 924.318 508.773 916.341 498.432 917.523 491.341 918.409 485.136 924.023 483.955 931.409Z" fill="#79787A"/><path d="M581.75 945.591C578.205 950.614 572.296 954.159 565.5 954.159 558.705 954.159 552.796 950.909 549.25 945.591 541.568 947.068 535.955 953.864 535.955 962.136L535.955 977.205C535.955 978.682 537.136 979.864 538.614 979.864L592.682 979.864C594.159 979.864 595.046 978.682 595.046 977.205L595.046 962.136C595.046 953.864 589.432 947.364 581.75 945.591ZM565.5 978.091 561.659 974.841 562.841 962.727 567.864 962.727 569.046 974.841 565.5 978.091ZM567.568 961.25 563.136 961.25 561.659 957.705 569.341 957.705 567.568 961.25Z" fill="#79787A"/><path d="M548.659 931.409C546.886 942.046 555.159 951.205 565.205 951.205 574.364 951.205 582.046 943.818 582.046 934.364 582.046 924.318 573.477 916.341 563.136 917.523 556.046 918.409 549.841 924.023 548.659 931.409Z" fill="#79787A"/></g></g></g><text font-family="Latha,Latha_MSFontService,sans-serif" font-weight="400" font-size="41" transform="translate(636.502 1392)">மேசைக்கணினிகள்<tspan font-size="41" x="426.823" y="0">, </tspan>மடிக்கணினிகள்<tspan font-size="41" x="814.115" y="0">, </tspan><tspan font-size="41" x="0" y="51">அச்சுப்பொறிகள்</tspan><tspan font-size="41" x="354.062" y="51">, </tspan><tspan font-size="41" x="388.437" y="51">வருடுபொறி</tspan><tspan font-size="41" x="661.146" y="51">கள்</tspan><tspan font-size="41" x="1739.26" y="-296">திறன் மகிழுந்து</tspan><tspan font-size="41" x="1739.26" y="41">மெய்நிகர் </tspan><tspan font-size="41" x="1975.87" y="41">நிலவுகை </tspan>தலையணி <tspan font-size="41" x="1739.26" y="92">ஒலி</tspan><tspan font-size="41" x="1838.37" y="92">/</tspan>ஒளி வாங்கி</text></g></svg>