<svg width="3181" height="1267" xmlns="http://www.w3.org/2000/svg" xmlns:xlink="http://www.w3.org/1999/xlink" xml:space="preserve" overflow="hidden"><defs><clipPath id="clip0"><rect x="90" y="384" width="3181" height="1267"/></clipPath></defs><g clip-path="url(#clip0)" transform="translate(-90 -384)"><rect x="1104.5" y="511.5" width="1079" height="1123" stroke="#01919A" stroke-width="3.4375" stroke-miterlimit="8" fill="#FFFFFF"/><text fill="#01919A" font-family="Lucida Sans Unicode,Lucida Sans Unicode_MSFontService,sans-serif" font-weight="400" font-size="41" transform="matrix(1 0 0 1 1136.75 563)">▶</text><text font-family="Latha,Latha_MSFontService,sans-serif" font-weight="400" font-size="41" transform="translate(1201.6 563)">தற்போதைய கணக்கியல் பதிவு மு<tspan font-size="41" x="795.781" y="0">றை</tspan></text><text fill="#01919A" font-family="Lucida Sans Unicode,Lucida Sans Unicode_MSFontService,sans-serif" font-weight="400" font-size="41" transform="matrix(1 0 0 1 1136.75 626)">▶</text><text font-family="Latha,Latha_MSFontService,sans-serif" font-weight="400" font-size="41" transform="translate(1201.6 626)">கிட்டத்தட்ட <tspan font-size="41" x="287.031" y="0">600</tspan> ஆண்டுகளாக <tspan font-size="41" x="0" y="50">வழக்கத்தில் உள்ளது</tspan></text><text fill="#01919A" font-family="Lucida Sans Unicode,Lucida Sans Unicode_MSFontService,sans-serif" font-weight="400" font-size="41" transform="matrix(1 0 0 1 1136.75 739)">▶</text><text font-family="Latha,Latha_MSFontService,sans-serif" font-weight="400" font-size="41" transform="translate(1201.6 739)">வரவு செலவு கணக்குகள் பற்று ம<tspan font-size="41" x="776.875" y="0">ற்றும் </tspan><tspan font-size="41" x="0" y="50">வரவு என்று பிரித்து </tspan><tspan font-size="41" x="477.812" y="50">எழுதப்பட்ட</tspan>ன</text><text fill="#01919A" font-family="Lucida Sans Unicode,Lucida Sans Unicode_MSFontService,sans-serif" font-weight="400" font-size="41" transform="matrix(1 0 0 1 1136.75 852)">▶</text><text font-family="Latha,Latha_MSFontService,sans-serif" font-weight="400" font-size="41" transform="translate(1201.6 852)">ஒவ்வொரு  பற்று பதிவிற்கும்<tspan font-size="41" x="683.49" y="0"> </tspan>அ<tspan font-size="41" x="754.531" y="0">தற்கு </tspan><tspan font-size="41" x="0" y="49">இணையான வரவு பதிவு மற்றொரு</tspan><tspan font-size="41" x="807.24" y="49"> </tspan><tspan font-size="41" x="0" y="99">பதிவேட்டில்</tspan><tspan font-size="41" x="274.427" y="99"> </tspan>இருக்கும்</text><text fill="#01919A" font-family="Lucida Sans Unicode,Lucida Sans Unicode_MSFontService,sans-serif" font-weight="400" font-size="41" transform="matrix(1 0 0 1 1136.75 1014)">▶</text><text font-family="Latha,Latha_MSFontService,sans-serif" font-weight="400" font-size="41" transform="translate(1201.6 1014)">அவரவர் <tspan font-size="41" x="213.698" y="0">பதிவேட்டை</tspan><tspan font-size="41" x="491.562" y="0"> </tspan>தனியாக <tspan font-size="41" x="0" y="50">பாதுகாப்பர்</tspan></text><rect x="91.4999" y="511.5" width="987" height="1123" stroke="#DC7476" stroke-width="3.4375" stroke-miterlimit="8" fill="#FFFFFF"/><text fill="#DC7476" font-family="Wingdings 3,Wingdings 3_MSFontService,sans-serif" font-weight="400" font-size="41" transform="matrix(1 0 0 1 123.362 563)"></text><text font-family="Latha,Latha_MSFontService,sans-serif" font-weight="400" font-size="41" transform="translate(185.237 563)">பண்டைய கால கணக்கு பதிவுமு<tspan font-size="41" x="752.24" y="0">றை</tspan></text><text fill="#DC7476" font-family="Wingdings 3,Wingdings 3_MSFontService,sans-serif" font-weight="400" font-size="41" transform="matrix(1 0 0 1 123.362 626)"></text><text font-family="Latha,Latha_MSFontService,sans-serif" font-weight="400" font-size="41" transform="translate(185.237 626)">எளிமையானது</text><text fill="#DC7476" font-family="Wingdings 3,Wingdings 3_MSFontService,sans-serif" font-weight="400" font-size="41" transform="matrix(1 0 0 1 123.362 690)"></text><text font-family="Latha,Latha_MSFontService,sans-serif" font-weight="400" font-size="41" transform="translate(185.237 690)">இலகுவாக பராமரிக்க முடிந்தது</text><text fill="#DC7476" font-family="Wingdings 3,Wingdings 3_MSFontService,sans-serif" font-weight="400" font-size="41" transform="matrix(1 0 0 1 123.362 753)"></text><text font-family="Latha,Latha_MSFontService,sans-serif" font-weight="400" font-size="41" transform="translate(185.237 753)">நிகழ்வுகள் பதிவு செய்யப்பட்டது</text><text fill="#DC7476" font-family="Wingdings 3,Wingdings 3_MSFontService,sans-serif" font-weight="400" font-size="41" transform="matrix(1 0 0 1 252.841 816)"></text><text font-family="Latha,Latha_MSFontService,sans-serif" font-weight="400" font-size="41" transform="translate(314.716 816)">பணப்பரிமாற்றம்</text><text fill="#DC7476" font-family="Wingdings 3,Wingdings 3_MSFontService,sans-serif" font-weight="400" font-size="41" transform="matrix(1 0 0 1 252.841 879)"></text><text font-family="Latha,Latha_MSFontService,sans-serif" font-weight="400" font-size="41" transform="translate(314.716 879)">பொருள் பரிமாற்றம்</text><text fill="#DC7476" font-family="Wingdings 3,Wingdings 3_MSFontService,sans-serif" font-weight="400" font-size="41" transform="matrix(1 0 0 1 252.841 943)"></text><text font-family="Latha,Latha_MSFontService,sans-serif" font-weight="400" font-size="41" transform="translate(314.716 943)">பண்டமாற்று முறை</text><text fill="#DC7476" font-family="Wingdings 3,Wingdings 3_MSFontService,sans-serif" font-weight="400" font-size="41" transform="matrix(1 0 0 1 123.362 1006)"></text><text font-family="Latha,Latha_MSFontService,sans-serif" font-weight="400" font-size="41" transform="translate(185.237 1006)">ஒற்றைச்<tspan font-size="41" x="201.094" y="0"> </tspan>சார்பு கொண்டது</text><text fill="#DC7476" font-family="Wingdings 3,Wingdings 3_MSFontService,sans-serif" font-weight="400" font-size="41" transform="matrix(1 0 0 1 123.362 1069)"></text><text font-family="Latha,Latha_MSFontService,sans-serif" font-weight="400" font-size="41" transform="translate(185.237 1069)">தணிக்கை செய்ய இயலாது</text><text fill="#DC7476" font-family="Wingdings 3,Wingdings 3_MSFontService,sans-serif" font-weight="400" font-size="41" transform="matrix(1 0 0 1 123.362 1132)"></text><text font-family="Latha,Latha_MSFontService,sans-serif" font-weight="400" font-size="41" transform="translate(185.237 1132)">பதிவின் பொறுப்புடைமையை<tspan font-size="41" x="669.74" y="0"> </tspan><tspan font-size="41" x="-42.8542" y="50">ஆராயவோ</tspan> அல்லது <tspan font-size="41" x="440.115" y="50">அங்கீகரிக்கவோ</tspan><tspan font-size="41" x="801.052" y="50"> </tspan><tspan font-size="41" x="-42.8542" y="99">இயலாது</tspan><tspan font-size="41" x="-61.875" y="226">உதாரணம்</tspan>:</text><text fill="#DC7476" font-family="Wingdings 3,Wingdings 3_MSFontService,sans-serif" font-weight="400" font-size="41" transform="matrix(1 0 0 1 123.362 1422)"><tspan fill="#000000" font-family="Verdana,Verdana_MSFontService,sans-serif" font-size="41" x="61.875" y="0">100 </tspan></text><text font-family="Latha,Latha_MSFontService,sans-serif" font-weight="400" font-size="41" transform="translate(278.622 1422)">படி அரிசி கொடுக்கப்பட்டது</text><text fill="#DC7476" font-family="Wingdings 3,Wingdings 3_MSFontService,sans-serif" font-weight="400" font-size="41" transform="matrix(1 0 0 1 123.362 1486)"><tspan fill="#000000" font-family="Verdana,Verdana_MSFontService,sans-serif" font-size="41" x="61.875" y="0">50 </tspan></text><text font-family="Latha,Latha_MSFontService,sans-serif" font-weight="400" font-size="41" transform="translate(252.268 1486)">பொற்காசுகள் கொடுக்கப்பட்<tspan font-size="41" x="619.896" y="0">டது</tspan></text><text fill="#DC7476" font-family="Wingdings 3,Wingdings 3_MSFontService,sans-serif" font-weight="400" font-size="41" transform="matrix(1 0 0 1 123.362 1549)"><tspan fill="#000000" font-family="Verdana,Verdana_MSFontService,sans-serif" font-size="41" x="61.875" y="0">10 </tspan></text><text font-family="Latha,Latha_MSFontService,sans-serif" font-weight="400" font-size="41" transform="translate(252.268 1549)">குழி நிலம் கொடுக்கப்பட்டது</text><text fill="#DC7476" font-family="Wingdings 3,Wingdings 3_MSFontService,sans-serif" font-weight="400" font-size="41" transform="matrix(1 0 0 1 123.362 1612)"><tspan fill="#000000" font-family="Verdana,Verdana_MSFontService,sans-serif" font-size="41" x="61.875" y="0">5 </tspan></text><text font-family="Latha,Latha_MSFontService,sans-serif" font-weight="400" font-size="41" transform="translate(225.914 1612)">படி பால் கொடுக்கப்பட்டது</text><rect x="91.0001" y="394" width="987" height="117" fill="#DC7476"/><text fill="#FFFFFF" font-family="Latha,Latha_MSFontService,sans-serif" font-weight="700" font-size="46" transform="translate(288.384 438)">ஒற்றைப்<tspan font-size="46" x="237.76" y="0"> </tspan><tspan font-size="46" x="260.677" y="0">பதிவு முறை</tspan></text><text fill="#FFFFFF" font-family="Verdana,Verdana_MSFontService,sans-serif" font-weight="700" font-size="46" transform="matrix(1 0 0 1 277.499 497)">Single Entry Accounting</text><rect x="1104" y="394" width="1079" height="117" fill="#01919A"/><text fill="#FFFFFF" font-family="Latha,Latha_MSFontService,sans-serif" font-weight="700" font-size="46" transform="translate(1333.78 438)">இரட்டைப் <tspan font-size="46" x="287.604" y="0">பதிவு முறை</tspan></text><text fill="#FFFFFF" font-family="Verdana,Verdana_MSFontService,sans-serif" font-weight="700" font-size="46" transform="matrix(1 0 0 1 1325.76 497)">Double Entry Accounting</text><rect x="2196.5" y="511.5" width="1065" height="1123" stroke="#204497" stroke-width="3.4375" stroke-miterlimit="8" fill="#FFFFFF"/><text fill="#204497" font-family="Lucida Sans Unicode,Lucida Sans Unicode_MSFontService,sans-serif" font-weight="400" font-size="41" transform="matrix(1 0 0 1 2228.2 563)">▶</text><text font-family="Latha,Latha_MSFontService,sans-serif" font-weight="400" font-size="41" transform="translate(2293.06 563)">அனைத்து <tspan font-size="41" x="248.073" y="0">பரிவர்த்தனைகள்</tspan> இரட்டை<tspan font-size="41" x="850.781" y="0">ப்</tspan><tspan font-size="41" x="881.146" y="0"> </tspan><tspan font-size="41" x="0" y="50">பதிவு முறையில் பதிவு செய்யப்</tspan><tspan font-size="41" x="736.771" y="50">படும்</tspan></text><text fill="#204497" font-family="Lucida Sans Unicode,Lucida Sans Unicode_MSFontService,sans-serif" font-weight="400" font-size="41" transform="matrix(1 0 0 1 2228.2 676)">▶</text><text font-family="Latha,Latha_MSFontService,sans-serif" font-weight="400" font-size="41" transform="translate(2293.06 676)">இதனோடு சேர்ந்து <tspan fill="#204497" font-weight="700" font-size="41" x="440" y="0">பரிவர்த்தனை</tspan><tspan fill="#204497" font-weight="700" font-size="41" x="763.698" y="0">கள்</tspan><tspan fill="#204497" font-weight="700" font-size="41" x="847.344" y="0"> </tspan><tspan fill="#204497" font-weight="700" font-size="41" x="0" y="49">மறைப்பியல் </tspan><tspan fill="#204497" font-weight="700" font-size="41" x="321.979" y="49">முத்திரையிடபட்டு</tspan><tspan fill="#204497" font-weight="700" font-size="41" x="750.521" y="49">, </tspan><tspan fill="#204497" font-weight="700" font-size="41" x="0" y="99">மூன்றாம் </tspan><tspan fill="#204497" font-weight="700" font-size="41" x="242.917" y="99">பதிவாக</tspan><tspan fill="#204497" font-weight="700" font-size="41" x="434.844" y="99"> </tspan><tspan fill="#204497" font-weight="700" font-size="41" x="455.469" y="99">பரவலாக்கப்ப</tspan><tspan fill="#204497" font-weight="700" font-size="41" x="780.312" y="99">ட்ட</tspan><tspan fill="#204497" font-weight="700" font-size="41" x="857.083" y="99"> </tspan><tspan fill="#204497" font-weight="700" font-size="41" x="0" y="148">பொது </tspan><tspan fill="#204497" font-weight="700" font-size="41" x="165" y="148">பதிவேட்டில்</tspan><tspan fill="#204497" font-weight="700" font-size="41" x="452.031" y="148"> </tspan><tspan fill="#204497" font-weight="700" font-size="41" x="472.656" y="148">பதிவு செய்</tspan><tspan fill="#204497" font-weight="700" font-size="41" x="731.615" y="148">யப்படும்</tspan></text><text fill="#204497" font-family="Lucida Sans Unicode,Lucida Sans Unicode_MSFontService,sans-serif" font-weight="400" font-size="41" transform="matrix(1 0 0 1 2228.2 888)">▶</text><text font-family="Latha,Latha_MSFontService,sans-serif" font-weight="400" font-size="41" transform="translate(2293.06 888)">முத்திரையிடப்பட்ட<tspan font-size="41" x="441.146" y="0"> </tspan>பரிவர்த்தனை<tspan font-size="41" x="770.573" y="0">களை</tspan><tspan font-size="41" x="896.615" y="0"> </tspan><tspan font-size="41" x="0" y="50">மாற்ற இயலாது</tspan><tspan font-size="41" x="366.094" y="50">.</tspan></text><rect x="2196" y="394" width="1065" height="117" fill="#204497"/><text fill="#FFFFFF" font-family="Latha,Latha_MSFontService,sans-serif" font-weight="700" font-size="46" transform="translate(2511.55 438)">முப்பதிவு<tspan font-size="46" x="242.917" y="0"> </tspan><tspan font-size="46" x="265.833" y="0">முறை</tspan></text><text fill="#FFFFFF" font-family="Verdana,Verdana_MSFontService,sans-serif" font-weight="700" font-size="46" transform="matrix(1 0 0 1 2426.76 497)">Triple Entry Accounting</text><path d="M1104.27 1346.8 1310.63 1346.8 1310.63 1423.8 1104.27 1423.8Z" fill="#F2F2F2" fill-rule="evenodd"/><path d="M1310.63 1346.8 1641.99 1346.8 1641.99 1423.8 1310.63 1423.8Z" fill="#F2F2F2" fill-rule="evenodd"/><path d="M1104.27 1423.8 1310.63 1423.8 1310.63 1500.8 1104.27 1500.8Z" fill="#F2F2F2" fill-rule="evenodd"/><path d="M1310.63 1423.8 1641.99 1423.8 1641.99 1500.8 1310.63 1500.8Z" fill="#F2F2F2" fill-rule="evenodd"/><path d="M1104.27 1500.8 1310.63 1500.8 1310.63 1577.8 1104.27 1577.8Z" fill="#F2F2F2" fill-rule="evenodd"/><path d="M1310.63 1500.8 1641.99 1500.8 1641.99 1577.8 1310.63 1577.8Z" fill="#F2F2F2" fill-rule="evenodd"/><path d="M1310.63 1344.51 1310.63 1580.1" stroke="#FFFFFF" stroke-width="4.58333" stroke-linejoin="round" stroke-miterlimit="10" fill="none" fill-rule="evenodd"/><path d="M1101.98 1423.8 1644.28 1423.8" stroke="#FFFFFF" stroke-width="13.75" stroke-linejoin="round" stroke-miterlimit="10" fill="none" fill-rule="evenodd"/><path d="M1101.98 1500.8 1644.28 1500.8" stroke="#FFFFFF" stroke-width="4.58333" stroke-linejoin="round" stroke-miterlimit="10" fill="none" fill-rule="evenodd"/><path d="M1104.27 1344.51 1104.27 1580.1" stroke="#FFFFFF" stroke-width="4.58333" stroke-linejoin="round" stroke-miterlimit="10" fill="none" fill-rule="evenodd"/><path d="M1641.99 1344.51 1641.99 1580.1" stroke="#FFFFFF" stroke-width="4.58333" stroke-linejoin="round" stroke-miterlimit="10" fill="none" fill-rule="evenodd"/><path d="M1101.98 1346.8 1644.28 1346.8" stroke="#FFFFFF" stroke-width="4.58333" stroke-linejoin="round" stroke-miterlimit="10" fill="none" fill-rule="evenodd"/><path d="M1101.98 1577.8 1644.28 1577.8" stroke="#FFFFFF" stroke-width="4.58333" stroke-linejoin="round" stroke-miterlimit="10" fill="none" fill-rule="evenodd"/><text font-family="Latha,Latha_MSFontService,sans-serif" font-weight="700" font-size="37" transform="translate(1137.27 1396)">பற்று<tspan font-size="37" x="109.427" y="0"> </tspan><tspan font-size="37" x="206.365" y="0">வரவு</tspan></text><text font-family="Verdana,Verdana_MSFontService,sans-serif" font-weight="400" font-size="37" transform="matrix(1 0 0 1 1137.27 1476)">₹1000<tspan font-size="37" x="206.365" y="74">10 </tspan></text><text font-family="Latha,Latha_MSFontService,sans-serif" font-weight="400" font-size="37" transform="translate(1403.79 1550)">படி<tspan font-size="37" x="75.0521" y="0">அரிசி</tspan></text><path d="M1655.73 1345.66 1986.99 1345.66 1986.99 1422.66 1655.73 1422.66Z" fill="#F2F2F2" fill-rule="evenodd"/><path d="M1986.99 1345.66 2183.62 1345.66 2183.62 1422.66 1986.99 1422.66Z" fill="#F2F2F2" fill-rule="evenodd"/><path d="M1655.73 1422.66 1986.99 1422.66 1986.99 1499.66 1655.73 1499.66Z" fill="#F2F2F2" fill-rule="evenodd"/><path d="M1986.99 1422.66 2183.62 1422.66 2183.62 1499.66 1986.99 1499.66Z" fill="#F2F2F2" fill-rule="evenodd"/><path d="M1655.73 1499.66 1986.99 1499.66 1986.99 1576.66 1655.73 1576.66Z" fill="#F2F2F2" fill-rule="evenodd"/><path d="M1986.99 1499.66 2183.62 1499.66 2183.62 1576.66 1986.99 1576.66Z" fill="#F2F2F2" fill-rule="evenodd"/><path d="M1986.99 1343.37 1986.99 1578.95" stroke="#FFFFFF" stroke-width="4.58333" stroke-linejoin="round" stroke-miterlimit="10" fill="none" fill-rule="evenodd"/><path d="M1653.44 1422.66 2185.91 1422.66" stroke="#FFFFFF" stroke-width="13.75" stroke-linejoin="round" stroke-miterlimit="10" fill="none" fill-rule="evenodd"/><path d="M1653.44 1499.66 2185.91 1499.66" stroke="#FFFFFF" stroke-width="4.58333" stroke-linejoin="round" stroke-miterlimit="10" fill="none" fill-rule="evenodd"/><path d="M1655.73 1343.37 1655.73 1578.95" stroke="#FFFFFF" stroke-width="4.58333" stroke-linejoin="round" stroke-miterlimit="10" fill="none" fill-rule="evenodd"/><path d="M2183.62 1343.37 2183.62 1578.95" stroke="#FFFFFF" stroke-width="4.58333" stroke-linejoin="round" stroke-miterlimit="10" fill="none" fill-rule="evenodd"/><path d="M1653.44 1345.66 2185.91 1345.66" stroke="#FFFFFF" stroke-width="4.58333" stroke-linejoin="round" stroke-miterlimit="10" fill="none" fill-rule="evenodd"/><path d="M1653.44 1576.66 2185.91 1576.66" stroke="#FFFFFF" stroke-width="4.58333" stroke-linejoin="round" stroke-miterlimit="10" fill="none" fill-rule="evenodd"/><text font-family="Latha,Latha_MSFontService,sans-serif" font-weight="700" font-size="37" transform="translate(1688.73 1395)">பற்று <tspan font-size="37" x="331.261" y="0">வரவு</tspan></text><text font-family="Verdana,Verdana_MSFontService,sans-serif" font-weight="400" font-size="37" transform="matrix(1 0 0 1 2019.99 1475)">₹<tspan font-size="37" x="23.4895" y="0">1000</tspan><tspan font-size="37" x="-331.261" y="74">10</tspan></text><text font-family="Latha,Latha_MSFontService,sans-serif" font-weight="400" font-size="37" transform="translate(1735.71 1549)"> <tspan font-size="37" x="21.198" y="0">படி</tspan><tspan font-size="37" x="96.25" y="0">அரிசி</tspan><tspan font-size="37" x="-567.522" y="-229">நிறுவனம் </tspan><tspan font-size="37" x="-348.668" y="-229">1 </tspan>பதிவே<tspan font-size="37" x="-174.501" y="-229">டு</tspan><tspan font-size="37" x="-57.926" y="-229">நிறுவனம் </tspan><tspan font-size="37" x="160.928" y="-229">2 </tspan>பதிவே<tspan font-size="37" x="335.095" y="-229">டு</tspan></text><path d="M2200.89 1006.09 2408.4 1006.09 2408.4 1084.79 2200.89 1084.79Z" fill="#F2F2F2" fill-rule="evenodd"/><path d="M2408.4 1006.09 2741.46 1006.09 2741.46 1084.79 2408.4 1084.79Z" fill="#F2F2F2" fill-rule="evenodd"/><path d="M2200.89 1084.79 2408.4 1084.79 2408.4 1161.79 2200.89 1161.79Z" fill="#F2F2F2" fill-rule="evenodd"/><path d="M2408.4 1084.79 2741.46 1084.79 2741.46 1161.79 2408.4 1161.79Z" fill="#F2F2F2" fill-rule="evenodd"/><path d="M2200.89 1161.79 2408.4 1161.79 2408.4 1240.5 2200.89 1240.5Z" fill="#F2F2F2" fill-rule="evenodd"/><path d="M2408.4 1161.79 2741.46 1161.79 2741.46 1240.5 2408.4 1240.5Z" fill="#F2F2F2" fill-rule="evenodd"/><path d="M2408.4 1003.8 2408.4 1242.79" stroke="#FFFFFF" stroke-width="4.58333" stroke-linejoin="round" stroke-miterlimit="10" fill="none" fill-rule="evenodd"/><path d="M2198.59 1084.79 2743.75 1084.79" stroke="#FFFFFF" stroke-width="13.75" stroke-linejoin="round" stroke-miterlimit="10" fill="none" fill-rule="evenodd"/><path d="M2198.59 1161.79 2743.75 1161.79" stroke="#FFFFFF" stroke-width="4.58333" stroke-linejoin="round" stroke-miterlimit="10" fill="none" fill-rule="evenodd"/><path d="M2200.89 1003.8 2200.89 1242.79" stroke="#FFFFFF" stroke-width="4.58333" stroke-linejoin="round" stroke-miterlimit="10" fill="none" fill-rule="evenodd"/><path d="M2741.46 1003.8 2741.46 1242.79" stroke="#FFFFFF" stroke-width="4.58333" stroke-linejoin="round" stroke-miterlimit="10" fill="none" fill-rule="evenodd"/><path d="M2198.59 1006.09 2743.75 1006.09" stroke="#FFFFFF" stroke-width="4.58333" stroke-linejoin="round" stroke-miterlimit="10" fill="none" fill-rule="evenodd"/><path d="M2198.59 1240.5 2743.75 1240.5" stroke="#FFFFFF" stroke-width="4.58333" stroke-linejoin="round" stroke-miterlimit="10" fill="none" fill-rule="evenodd"/><text font-family="Latha,Latha_MSFontService,sans-serif" font-weight="700" font-size="32" transform="translate(2233.89 1052)">பற்று <tspan font-size="32" x="207.511" y="0">வரவு</tspan></text><text font-family="Verdana,Verdana_MSFontService,sans-serif" font-weight="400" font-size="37" transform="matrix(1 0 0 1 2233.89 1137)">₹1000<tspan font-size="37" x="207.511" y="74">10</tspan></text><text font-family="Latha,Latha_MSFontService,sans-serif" font-weight="400" font-size="37" transform="translate(2488.38 1211)"> <tspan font-size="37" x="21.1978" y="0">படி அரிசி</tspan></text><path d="M2717.55 1006.09 3056.83 1006.09 3056.83 1084.04 2717.55 1084.04Z" fill="#F2F2F2" fill-rule="evenodd"/><path d="M3056.83 1006.09 3261.2 1006.09 3261.2 1084.04 3056.83 1084.04Z" fill="#F2F2F2" fill-rule="evenodd"/><path d="M2717.55 1084.04 3056.83 1084.04 3056.83 1161.99 2717.55 1161.99Z" fill="#F2F2F2" fill-rule="evenodd"/><path d="M3056.83 1084.04 3261.2 1084.04 3261.2 1161.99 3056.83 1161.99Z" fill="#F2F2F2" fill-rule="evenodd"/><path d="M2717.55 1161.99 3056.83 1161.99 3056.83 1239.94 2717.55 1239.94Z" fill="#F2F2F2" fill-rule="evenodd"/><path d="M3056.83 1161.99 3261.2 1161.99 3261.2 1239.94 3056.83 1239.94Z" fill="#F2F2F2" fill-rule="evenodd"/><path d="M3056.83 1003.79 3056.83 1242.24" stroke="#FFFFFF" stroke-width="4.58333" stroke-linejoin="round" stroke-miterlimit="10" fill="none" fill-rule="evenodd"/><path d="M2715.25 1084.04 3263.49 1084.04" stroke="#FFFFFF" stroke-width="13.75" stroke-linejoin="round" stroke-miterlimit="10" fill="none" fill-rule="evenodd"/><path d="M2715.25 1161.99 3263.49 1161.99" stroke="#FFFFFF" stroke-width="4.58333" stroke-linejoin="round" stroke-miterlimit="10" fill="none" fill-rule="evenodd"/><path d="M2717.55 1003.79 2717.55 1242.24" stroke="#FFFFFF" stroke-width="4.58333" stroke-linejoin="round" stroke-miterlimit="10" fill="none" fill-rule="evenodd"/><path d="M3261.2 1003.79 3261.2 1242.24" stroke="#FFFFFF" stroke-width="4.58333" stroke-linejoin="round" stroke-miterlimit="10" fill="none" fill-rule="evenodd"/><path d="M2715.25 1006.09 3263.49 1006.09" stroke="#FFFFFF" stroke-width="4.58333" stroke-linejoin="round" stroke-miterlimit="10" fill="none" fill-rule="evenodd"/><path d="M2715.25 1239.94 3263.49 1239.94" stroke="#FFFFFF" stroke-width="4.58333" stroke-linejoin="round" stroke-miterlimit="10" fill="none" fill-rule="evenodd"/><text font-family="Latha,Latha_MSFontService,sans-serif" font-weight="700" font-size="37" transform="translate(2750.55 1056)">பற்று <tspan font-size="37" x="339.281" y="0">வரவு</tspan></text><text font-family="Verdana,Verdana_MSFontService,sans-serif" font-weight="400" font-size="37" transform="matrix(1 0 0 1 3089.83 1137)">₹<tspan font-size="37" x="23.4895" y="0">1000</tspan><tspan font-size="37" x="-339.282" y="74">10</tspan></text><text font-family="Latha,Latha_MSFontService,sans-serif" font-weight="400" font-size="37" transform="translate(2797.52 1211)"> <tspan font-size="37" x="21.198" y="0">படி அரிசி</tspan></text><path d="M2370.77 1346.8 2702.6 1346.8 2702.6 1423.8 2370.77 1423.8Z" fill="#F2F2F2" fill-rule="evenodd"/><path d="M2702.6 1346.8 3079.29 1346.8 3079.29 1423.8 2702.6 1423.8Z" fill="#F2F2F2" fill-rule="evenodd"/><path d="M2370.77 1423.8 2702.6 1423.8 2702.6 1500.8 2370.77 1500.8Z" fill="#F2F2F2" fill-rule="evenodd"/><path d="M2702.6 1423.8 3079.29 1423.8 3079.29 1500.8 2702.6 1500.8Z" fill="#F2F2F2" fill-rule="evenodd"/><path d="M2370.77 1500.8 2702.6 1500.8 2702.6 1577.8 2370.77 1577.8Z" fill="#F2F2F2" fill-rule="evenodd"/><path d="M2702.6 1500.8 3079.29 1500.8 3079.29 1577.8 2702.6 1577.8Z" fill="#F2F2F2" fill-rule="evenodd"/><path d="M2702.6 1344.51 2702.6 1580.1" stroke="#FFFFFF" stroke-width="4.58333" stroke-linejoin="round" stroke-miterlimit="10" fill="none" fill-rule="evenodd"/><path d="M2368.47 1423.8 3081.58 1423.8" stroke="#FFFFFF" stroke-width="13.75" stroke-linejoin="round" stroke-miterlimit="10" fill="none" fill-rule="evenodd"/><path d="M2368.47 1500.8 3081.58 1500.8" stroke="#FFFFFF" stroke-width="4.58333" stroke-linejoin="round" stroke-miterlimit="10" fill="none" fill-rule="evenodd"/><path d="M2370.77 1344.51 2370.77 1580.1" stroke="#FFFFFF" stroke-width="4.58333" stroke-linejoin="round" stroke-miterlimit="10" fill="none" fill-rule="evenodd"/><path d="M3079.29 1344.51 3079.29 1580.1" stroke="#FFFFFF" stroke-width="4.58333" stroke-linejoin="round" stroke-miterlimit="10" fill="none" fill-rule="evenodd"/><path d="M2368.47 1346.8 3081.58 1346.8" stroke="#FFFFFF" stroke-width="4.58333" stroke-linejoin="round" stroke-miterlimit="10" fill="none" fill-rule="evenodd"/><path d="M2368.47 1577.8 3081.58 1577.8" stroke="#FFFFFF" stroke-width="4.58333" stroke-linejoin="round" stroke-miterlimit="10" fill="none" fill-rule="evenodd"/><text font-family="Latha,Latha_MSFontService,sans-serif" font-weight="700" font-size="37" transform="translate(2403.77 1396)">நிறுவனம்</text><text font-family="Verdana,Verdana_MSFontService,sans-serif" font-weight="700" font-size="37" transform="matrix(1 0 0 1 2627.2 1396)">1</text><text font-family="Latha,Latha_MSFontService,sans-serif" font-weight="700" font-size="37" transform="translate(2735.6 1396)">நிறுவனம்</text><text font-family="Verdana,Verdana_MSFontService,sans-serif" font-weight="700" font-size="37" transform="matrix(1 0 0 1 2959.04 1396)">2</text><text font-family="Latha,Latha_MSFontService,sans-serif" font-weight="400" font-size="37" transform="translate(2403.77 1473)">-</text><text font-family="Verdana,Verdana_MSFontService,sans-serif" font-weight="400" font-size="37" transform="matrix(1 0 0 1 2414.65 1473)">₹1000<tspan font-size="37" x="320.948" y="3">₹1000</tspan><tspan font-size="37" x="-10.8855" y="77">10</tspan></text><text font-family="Latha,Latha_MSFontService,sans-serif" font-weight="400" font-size="37" transform="translate(2450.75 1550)"> <tspan font-size="37" x="21.198" y="0">படி அரிசி</tspan><tspan font-size="37" x="284.854" y="0">-</tspan></text><text font-family="Verdana,Verdana_MSFontService,sans-serif" font-weight="400" font-size="37" transform="matrix(1 0 0 1 2746.48 1550)">10</text><text font-family="Latha,Latha_MSFontService,sans-serif" font-weight="400" font-size="37" transform="translate(2793.46 1550)"> <tspan font-size="37" x="21.198" y="0">படி அரிசி</tspan><tspan fill="#204497" font-weight="700" font-size="37" x="-425.497" y="-225">பரவலாக்கப்பட்ட</tspan><tspan fill="#204497" font-weight="700" font-size="37" x="-67.4241" y="-225"> </tspan><tspan fill="#204497" font-weight="700" font-size="37" x="-49.0908" y="-225">பொதுப்</tspan><tspan fill="#204497" font-weight="700" font-size="37" x="108.461" y="-225"> </tspan><tspan fill="#204497" font-weight="700" font-size="37" x="126.795" y="-225">பதிவே</tspan><tspan fill="#204497" font-weight="700" font-size="37" x="269.451" y="-225">டு</tspan></text><path d="M3075 1482.06 3072.24 1482.14 3069.6 1482.53 3067 1483.11 3064.47 1483.92 3062.06 1484.96 3059.8 1486.19 3057.62 1487.62 3055.59 1489.21 3053.72 1490.94 3051.96 1492.83 3050.39 1494.92 3048.97 1497.08 3047.75 1499.43 3046.71 1501.87 3045.91 1504.41 3045.33 1507 3044.95 1509.7 3044.84 1512.48 3044.95 1515.22 3045.3 1517.96 3045.87 1520.55 3046.71 1523.1 3047.75 1525.53 3048.97 1527.84 3050.35 1530 3051.92 1532.09 3053.68 1534.02 3055.55 1535.76 3057.58 1537.38 3059.77 1538.77 3062.02 1540 3064.44 1541.01 3066.96 1541.85 3069.56 1542.47 3072.21 1542.82 3074.96 1542.94 3077.68 1542.82 3080.36 1542.47 3083 1541.85 3085.45 1541.04 3087.86 1540 3090.16 1538.81 3092.38 1537.38 3094.37 1535.79 3096.28 1534.02 3098.04 1532.09 3099.61 1530.04 3100.99 1527.84 3102.22 1525.57 3103.25 1523.13 3104.05 1520.59 3104.67 1518 3105.01 1515.26 3105.16 1512.52 3105.01 1509.74 3104.67 1507.04 3104.05 1504.45 3103.25 1501.9 3102.25 1499.47 3101.03 1497.12 3099.65 1494.96 3098.04 1492.87 3096.32 1490.98 3094.41 1489.24 3092.38 1487.62 3090.23 1486.23 3087.9 1485 3085.53 1483.96 3083.04 1483.11 3080.44 1482.53 3077.72 1482.18 3075 1482.06ZM3075.04 1464 3075.57 1464.08 3076.07 1464.31 3076.53 1464.66 3080.7 1468.82 3085.79 1465.85 3086.29 1465.66 3086.9 1465.62 3087.44 1465.66 3087.94 1465.93 3088.4 1466.24 3088.74 1466.7 3091.69 1471.87 3097.35 1470.33 3097.93 1470.25 3098.46 1470.33 3099 1470.52 3099.46 1470.87 3099.8 1471.33 3100.03 1471.87 3101.53 1477.59 3107.42 1477.59 3108.11 1477.7 3108.68 1478.01 3109.14 1478.47 3109.49 1479.09 3109.56 1479.79 3109.56 1485.69 3115.23 1487.28 3115.88 1487.55 3116.38 1488.01 3116.72 1488.59 3116.84 1489.24 3116.8 1489.94 3115.23 1495.65 3120.32 1498.66 3120.78 1499.01 3121.12 1499.47 3121.35 1499.97 3121.43 1500.55 3121.35 1501.09 3121.12 1501.63 3118.18 1506.77 3122.35 1510.98 3122.69 1511.4 3122.89 1511.98 3123 1512.52 3122.89 1513.1 3122.69 1513.64 3122.35 1514.1 3118.18 1518.31 3121.12 1523.4 3121.35 1523.94 3121.39 1524.48 3121.35 1525.06 3121.12 1525.6 3120.78 1526.03 3120.32 1526.42 3115.19 1529.39 3116.76 1535.06 3116.84 1535.79 3116.68 1536.49 3116.34 1537.03 3115.84 1537.49 3115.19 1537.8 3109.53 1539.31 3109.53 1545.21 3109.41 1545.95 3109.11 1546.53 3108.65 1547.03 3108.07 1547.3 3107.38 1547.45 3101.49 1547.45 3100 1553.16 3099.73 1553.67 3099.38 1554.13 3098.92 1554.48 3098.43 1554.71 3097.89 1554.79 3097.32 1554.71 3091.65 1553.16 3088.67 1558.3 3088.32 1558.76 3087.86 1559.11 3087.36 1559.34 3086.83 1559.42 3086.25 1559.34 3085.72 1559.07 3080.63 1556.14 3076.45 1560.34 3076.03 1560.69 3075.5 1560.88 3074.96 1561 3074.39 1560.88 3073.85 1560.69 3073.43 1560.34 3069.26 1556.14 3064.17 1559.07 3063.63 1559.3 3063.1 1559.38 3062.56 1559.3 3062.02 1559.07 3061.56 1558.72 3061.18 1558.26 3058.31 1553.13 3052.61 1554.67 3051.92 1554.75 3051.27 1554.63 3050.69 1554.28 3050.23 1553.78 3049.93 1553.13 3048.4 1547.37 3042.58 1547.37 3041.85 1547.26 3041.28 1546.95 3040.78 1546.49 3040.51 1545.91 3040.36 1545.17 3040.36 1539.27 3034.69 1537.72 3034.2 1537.49 3033.74 1537.15 3033.39 1536.68 3033.2 1536.18 3033.09 1535.6 3033.2 1535.02 3034.69 1529.31 3029.6 1526.34 3029.18 1525.99 3028.8 1525.53 3028.65 1524.99 3028.57 1524.45 3028.61 1523.87 3028.84 1523.37 3031.75 1518.19 3027.61 1513.99 3027.31 1513.52 3027.04 1513.02 3027 1512.44 3027.04 1511.86 3027.31 1511.36 3027.61 1510.9 3031.78 1506.69 3028.84 1501.56 3028.65 1501.06 3028.57 1500.48 3028.65 1499.94 3028.84 1499.4 3029.18 1498.93 3029.64 1498.58 3034.73 1495.61 3033.24 1489.9 3033.12 1489.32 3033.24 1488.78 3033.43 1488.2 3033.78 1487.78 3034.23 1487.39 3034.73 1487.2 3040.44 1485.65 3040.44 1479.71 3040.55 1479.05 3040.86 1478.44 3041.32 1477.97 3041.93 1477.66 3042.62 1477.55 3048.51 1477.55 3050 1471.84 3050.31 1471.18 3050.77 1470.68 3051.31 1470.33 3052 1470.21 3052.65 1470.29 3058.35 1471.84 3061.3 1466.66 3061.6 1466.2 3062.06 1465.85 3062.6 1465.66 3063.17 1465.58 3063.71 1465.66 3064.28 1465.85 3069.3 1468.82 3073.47 1464.66 3073.93 1464.31 3074.46 1464.08 3075.04 1464Z" fill="#204497" fill-rule="evenodd"/><path d="M3104.6 1555 3121.76 1591.01 3121.96 1591.55 3122 1592.16 3121.8 1592.74 3121.53 1593.23 3121.1 1593.66 3120.55 1593.96 3119.96 1594.08 3119.38 1594.04 3106.52 1591.78 3100.02 1602.89 3099.71 1603.35 3099.28 1603.69 3098.69 1603.92 3098.14 1604 3098.06 1604 3097.39 1603.89 3096.89 1603.62 3096.42 1603.23 3096.1 1602.74 3078 1564.69 3078.86 1564.19 3079.61 1563.58 3081.49 1561.7 3083.72 1562.97 3084.74 1563.47 3085.91 1563.77 3087.09 1563.89 3088.23 1563.77 3089.4 1563.47 3090.42 1563.01 3091.36 1562.39 3092.14 1561.59 3092.85 1560.67 3094.14 1558.41 3096.65 1559.06 3097.51 1559.25 3098.41 1559.29 3099.59 1559.21 3100.69 1558.91 3101.67 1558.45 3102.61 1557.8 3103.43 1556.99 3104.13 1556.07 3104.6 1555Z" fill="#204497" fill-rule="evenodd"/><path d="M3045.95 1555 3046.48 1556.04 3047.13 1556.96 3047.9 1557.76 3048.82 1558.37 3049.85 1558.87 3050.92 1559.18 3052.07 1559.26 3052.95 1559.22 3053.75 1559.06 3056.24 1558.37 3057.5 1560.6 3058.15 1561.59 3058.95 1562.36 3059.87 1563.01 3060.91 1563.47 3061.98 1563.78 3063.12 1563.86 3064.23 1563.78 3065.34 1563.47 3066.34 1562.98 3068.6 1561.71 3070.47 1563.63 3071.2 1564.2 3072 1564.7 3054.25 1602.73 3053.91 1603.23 3053.45 1603.62 3052.95 1603.92 3052.37 1604 3052.26 1604 3051.72 1603.92 3051.19 1603.69 3050.73 1603.35 3050.39 1602.89 3044.11 1591.77 3031.49 1594.03 3030.91 1594.03 3030.38 1593.92 3029.88 1593.61 3029.46 1593.23 3029.15 1592.69 3029 1592.15 3029.04 1591.54 3029.19 1590.96 3045.95 1555Z" fill="#204497" fill-rule="evenodd"/><path d="M3075 1486 3077.66 1486.12 3080.24 1486.5 3082.74 1487.15 3085.09 1488.04 3087.4 1489.16 3089.52 1490.46 3091.49 1491.93 3093.37 1493.62 3095.07 1495.51 3096.53 1497.47 3097.84 1499.66 3098.92 1501.9 3099.81 1504.32 3100.42 1506.75 3100.81 1509.36 3101 1512.02 3100.81 1514.68 3100.42 1517.22 3099.81 1519.72 3098.92 1522.14 3097.8 1524.37 3096.49 1526.53 3095.03 1528.53 3093.33 1530.42 3091.49 1532.03 3089.48 1533.57 3087.36 1534.84 3085.05 1535.96 3082.7 1536.85 3080.2 1537.46 3077.62 1537.85 3074.96 1538 3072.34 1537.85 3069.76 1537.46 3067.26 1536.81 3064.87 1535.96 3062.6 1534.84 3060.48 1533.54 3058.44 1532.03 3056.63 1530.34 3054.93 1528.49 3053.43 1526.49 3052.12 1524.34 3051.04 1522.1 3050.19 1519.68 3049.5 1517.22 3049.12 1514.64 3049 1511.98 3049.12 1509.29 3049.54 1506.71 3050.19 1504.24 3051.08 1501.86 3052.12 1499.59 3053.43 1497.43 3054.97 1495.47 3056.63 1493.58 3058.48 1491.93 3060.48 1490.43 3062.64 1489.16 3064.91 1488.04 3067.3 1487.15 3069.8 1486.5 3072.38 1486.12 3075 1486Z" fill="#204497" fill-rule="evenodd"/></g></svg>