<svg width="1642" height="1170" xmlns="http://www.w3.org/2000/svg" xmlns:xlink="http://www.w3.org/1999/xlink" xml:space="preserve" overflow="hidden"><defs><clipPath id="clip0"><rect x="1620" y="407" width="1642" height="1170"/></clipPath></defs><g clip-path="url(#clip0)" transform="translate(-1620 -407)"><path d="M1620.5 452.694C1620.5 427.734 1640.73 407.5 1665.69 407.5L3216.31 407.5C3241.27 407.5 3261.5 427.734 3261.5 452.694L3261.5 1531.31C3261.5 1556.27 3241.27 1576.5 3216.31 1576.5L1665.69 1576.5C1640.73 1576.5 1620.5 1556.27 1620.5 1531.31Z" stroke="#204497" stroke-width="1.14583" stroke-linejoin="round" stroke-miterlimit="10" fill="none" fill-rule="evenodd"/><text font-family="Latha,Latha_MSFontService,sans-serif" font-weight="400" font-size="46" transform="translate(2267.56 478)">கட்டம்</text><text font-family="Verdana,Verdana_MSFontService,sans-serif" font-weight="400" font-size="46" transform="matrix(1 0 0 1 2449.18 478)">(Block)</text><path d="M1646.5 545.039C1646.5 527.068 1661.07 512.5 1679.04 512.5L3202.96 512.5C3220.93 512.5 3235.5 527.068 3235.5 545.039L3235.5 751.961C3235.5 769.932 3220.93 784.5 3202.96 784.5L1679.04 784.5C1661.07 784.5 1646.5 769.932 1646.5 751.961Z" stroke="#DC7476" stroke-width="1.14583" stroke-linejoin="round" stroke-miterlimit="10" fill="none" fill-rule="evenodd"/><text font-family="Latha,Latha_MSFontService,sans-serif" font-weight="400" font-size="46" transform="translate(2224.02 579)">தலைப்பு</text><text font-family="Verdana,Verdana_MSFontService,sans-serif" font-weight="400" font-size="46" transform="matrix(1 0 0 1 2450.9 579)">(Header)</text><path d="M1686.5 633.833C1686.5 624.26 1694.26 616.5 1703.83 616.5L2019.17 616.5C2028.74 616.5 2036.5 624.26 2036.5 633.833L2036.5 703.166C2036.5 712.74 2028.74 720.5 2019.17 720.5L1703.83 720.5C1694.26 720.5 1686.5 712.74 1686.5 703.166Z" stroke="#DC7476" stroke-width="1.14583" stroke-linejoin="round" stroke-miterlimit="10" fill="none" fill-rule="evenodd"/><text font-family="Latha,Latha_MSFontService,sans-serif" font-weight="400" font-size="37" transform="translate(1702.1 651)">கட்டத்தின்<tspan font-size="37" x="210.26" y="0"> </tspan><tspan font-size="37" x="231.458" y="0">எண்</tspan></text><text font-family="Verdana,Verdana_MSFontService,sans-serif" font-weight="400" font-size="37" transform="matrix(1 0 0 1 1731.89 708)">Block Number</text><path d="M2586.5 633.833C2586.5 624.26 2594.26 616.5 2603.83 616.5L3192.17 616.5C3201.74 616.5 3209.5 624.26 3209.5 633.833L3209.5 703.166C3209.5 712.74 3201.74 720.5 3192.17 720.5L2603.83 720.5C2594.26 720.5 2586.5 712.74 2586.5 703.166Z" stroke="#DC7476" stroke-width="1.14583" stroke-linejoin="round" stroke-miterlimit="10" fill="none" fill-rule="evenodd"/><text font-family="Latha,Latha_MSFontService,sans-serif" font-weight="400" font-size="37" transform="translate(2594.34 657)">முந்தைய கட்ட<tspan font-size="37" x="325.99" y="0">குறுக்க</tspan><tspan font-size="37" x="479.531" y="0">ம</tspan><tspan font-size="37" x="515.052" y="0">திப்பு</tspan></text><text font-family="Verdana,Verdana_MSFontService,sans-serif" font-weight="400" font-size="37" transform="matrix(1 0 0 1 2643.89 704)">Previous block header hash</text><path d="M2066.5 633.833C2066.5 624.26 2074.26 616.5 2083.83 616.5L2517.17 616.5C2526.74 616.5 2534.5 624.26 2534.5 633.833L2534.5 703.166C2534.5 712.74 2526.74 720.5 2517.17 720.5L2083.83 720.5C2074.26 720.5 2066.5 712.74 2066.5 703.166Z" stroke="#DC7476" stroke-width="1.14583" stroke-linejoin="round" stroke-miterlimit="10" fill="none" fill-rule="evenodd"/><text font-family="Latha,Latha_MSFontService,sans-serif" font-weight="400" font-size="37" transform="translate(2090.55 657)">தரவுக்<tspan font-size="37" x="138.073" y="0">குறுக்க</tspan><tspan font-size="37" x="291.615" y="0">மதி</tspan><tspan font-size="37" x="364.948" y="0">ப்பு</tspan></text><text font-family="Verdana,Verdana_MSFontService,sans-serif" font-weight="400" font-size="37" transform="matrix(1 0 0 1 2077.65 704)">Current block data hash</text><path d="M1644.5 868.287C1644.5 835.82 1670.82 809.5 1703.29 809.5L3174.71 809.5C3207.18 809.5 3233.5 835.82 3233.5 868.287L3233.5 1311.71C3233.5 1344.18 3207.18 1370.5 3174.71 1370.5L1703.29 1370.5C1670.82 1370.5 1644.5 1344.18 1644.5 1311.71Z" stroke="#01919A" stroke-width="1.14583" stroke-linejoin="round" stroke-miterlimit="10" fill="none" fill-rule="evenodd"/><text font-family="Latha,Latha_MSFontService,sans-serif" font-weight="400" font-size="46" transform="translate(2295.99 884)">தரவு</text><text font-family="Verdana,Verdana_MSFontService,sans-serif" font-weight="400" font-size="46" transform="matrix(1 0 0 1 2431.2 884)">(Data)</text><path d="M2845.5 958.334C2845.5 950.141 2852.14 943.5 2860.33 943.5L3181.67 943.5C3189.86 943.5 3196.5 950.141 3196.5 958.334L3196.5 1017.67C3196.5 1025.86 3189.86 1032.5 3181.67 1032.5L2860.33 1032.5C2852.14 1032.5 2845.5 1025.86 2845.5 1017.67Z" stroke="#01919A" stroke-width="1.14583" stroke-linejoin="round" stroke-miterlimit="10" fill="none" fill-rule="evenodd"/><text font-family="Latha,Latha_MSFontService,sans-serif" font-weight="400" font-size="37" transform="translate(2852.65 997)">பரிவர்த்தனை <tspan font-size="37" x="294.479" y="0">#</tspan></text><text font-family="Verdana,Verdana_MSFontService,sans-serif" font-weight="400" font-size="37" transform="matrix(1 0 0 1 3165.46 997)">2</text><path d="M2846.5 1098.33C2846.5 1090.14 2853.14 1083.5 2861.33 1083.5L3181.67 1083.5C3189.86 1083.5 3196.5 1090.14 3196.5 1098.33L3196.5 1157.67C3196.5 1165.86 3189.86 1172.5 3181.67 1172.5L2861.33 1172.5C2853.14 1172.5 2846.5 1165.86 2846.5 1157.67Z" stroke="#01919A" stroke-width="1.14583" stroke-linejoin="round" stroke-miterlimit="10" fill="none" fill-rule="evenodd"/><text font-family="Latha,Latha_MSFontService,sans-serif" font-weight="400" font-size="37" transform="translate(2852.94 1137)">பரிவர்த்தனை <tspan font-size="37" x="294.479" y="0">#</tspan></text><text font-family="Verdana,Verdana_MSFontService,sans-serif" font-weight="400" font-size="37" transform="matrix(1 0 0 1 3165.75 1137)">3</text><path d="M2846.5 1239.33C2846.5 1231.14 2853.14 1224.5 2861.33 1224.5L3181.67 1224.5C3189.86 1224.5 3196.5 1231.14 3196.5 1239.33L3196.5 1298.67C3196.5 1306.86 3189.86 1313.5 3181.67 1313.5L2861.33 1313.5C2853.14 1313.5 2846.5 1306.86 2846.5 1298.67Z" stroke="#01919A" stroke-width="1.14583" stroke-linejoin="round" stroke-miterlimit="10" fill="none" fill-rule="evenodd"/><text font-family="Latha,Latha_MSFontService,sans-serif" font-weight="400" font-size="37" transform="translate(2850.94 1278)">பரிவர்த்தனை <tspan font-size="37" x="294.479" y="0">#</tspan><tspan font-size="37" x="312.812" y="0">...</tspan></text><path d="M1691.5 1004.84C1691.5 970.961 1718.96 943.5 1752.83 943.5L2747.17 943.5C2781.04 943.5 2808.5 970.961 2808.5 1004.84L2808.5 1250.17C2808.5 1284.04 2781.04 1311.5 2747.17 1311.5L1752.83 1311.5C1718.96 1311.5 1691.5 1284.04 1691.5 1250.17Z" stroke="#01919A" stroke-width="1.14583" stroke-linejoin="round" stroke-miterlimit="10" fill="none" fill-rule="evenodd"/><path d="M1951.5 967.167C1951.5 962.38 1955.38 958.5 1960.17 958.5L2293.83 958.5C2298.62 958.5 2302.5 962.38 2302.5 967.167L2302.5 1001.83C2302.5 1006.62 2298.62 1010.5 2293.83 1010.5L1960.17 1010.5C1955.38 1010.5 1951.5 1006.62 1951.5 1001.83Z" stroke="#01919A" stroke-width="1.14583" stroke-linejoin="round" stroke-miterlimit="10" fill="none" fill-rule="evenodd"/><text font-family="Latha,Latha_MSFontService,sans-serif" font-weight="400" font-size="37" transform="translate(1960.57 993)">பரிவர்த்தனை #<tspan font-size="37" x="312.813" y="0">1</tspan></text><path d="M1707.5 1046.83C1707.5 1037.26 1715.26 1029.5 1724.83 1029.5L1897.17 1029.5C1906.74 1029.5 1914.5 1037.26 1914.5 1046.83L1914.5 1116.17C1914.5 1125.74 1906.74 1133.5 1897.17 1133.5L1724.83 1133.5C1715.26 1133.5 1707.5 1125.74 1707.5 1116.17Z" stroke="#01919A" stroke-width="1.14583" stroke-linejoin="round" stroke-miterlimit="10" fill="none" fill-rule="evenodd"/><text font-family="Latha,Latha_MSFontService,sans-serif" font-weight="400" font-size="37" transform="translate(1726.03 1067)">தலைப்பு</text><text font-family="Arial,Arial_MSFontService,sans-serif" font-weight="400" font-size="37" transform="matrix(1 0 0 1 1750.09 1114)">Header</text><path d="M2076.5 1050.83C2076.5 1041.26 2084.26 1033.5 2093.83 1033.5L2344.17 1033.5C2353.74 1033.5 2361.5 1041.26 2361.5 1050.83L2361.5 1120.17C2361.5 1129.74 2353.74 1137.5 2344.17 1137.5L2093.83 1137.5C2084.26 1137.5 2076.5 1129.74 2076.5 1120.17Z" stroke="#01919A" stroke-width="1.14583" stroke-linejoin="round" stroke-miterlimit="10" fill="none" fill-rule="evenodd"/><text font-family="Latha,Latha_MSFontService,sans-serif" font-weight="400" font-size="37" transform="translate(2089.06 1071)">குறியொப்<tspan font-size="37" x="196.51" y="0">பம்</tspan></text><text font-family="Arial,Arial_MSFontService,sans-serif" font-weight="400" font-size="37" transform="matrix(1 0 0 1 2139.48 1118)">Signature</text><path d="M2508.5 1050.83C2508.5 1041.26 2516.26 1033.5 2525.83 1033.5L2776.17 1033.5C2785.74 1033.5 2793.5 1041.26 2793.5 1050.83L2793.5 1120.17C2793.5 1129.74 2785.74 1137.5 2776.17 1137.5L2525.83 1137.5C2516.26 1137.5 2508.5 1129.74 2508.5 1120.17Z" stroke="#01919A" stroke-width="1.14583" stroke-linejoin="round" stroke-miterlimit="10" fill="none" fill-rule="evenodd"/><text font-family="Latha,Latha_MSFontService,sans-serif" font-weight="400" font-size="37" transform="translate(2515.6 1071)">முன்மொழி<tspan font-size="37" x="228.021" y="0">வு</tspan></text><text font-family="Arial,Arial_MSFontService,sans-serif" font-weight="400" font-size="37" transform="matrix(1 0 0 1 2577.75 1118)">Proposal</text><path d="M1884.5 1189.83C1884.5 1180.26 1892.26 1172.5 1901.83 1172.5L2075.17 1172.5C2084.74 1172.5 2092.5 1180.26 2092.5 1189.83L2092.5 1259.17C2092.5 1268.74 2084.74 1276.5 2075.17 1276.5L1901.83 1276.5C1892.26 1276.5 1884.5 1268.74 1884.5 1259.17Z" stroke="#01919A" stroke-width="1.14583" stroke-linejoin="round" stroke-miterlimit="10" fill="none" fill-rule="evenodd"/><text font-family="Latha,Latha_MSFontService,sans-serif" font-weight="400" font-size="37" transform="translate(1894.17 1210)">துலங்கல்</text><text font-family="Arial,Arial_MSFontService,sans-serif" font-weight="400" font-size="37" transform="matrix(1 0 0 1 1904.76 1257)">Response</text><path d="M2300.5 1186.67C2300.5 1177.19 2308.19 1169.5 2317.67 1169.5L2569.33 1169.5C2578.81 1169.5 2586.5 1177.19 2586.5 1186.67L2586.5 1255.33C2586.5 1264.81 2578.81 1272.5 2569.33 1272.5L2317.67 1272.5C2308.19 1272.5 2300.5 1264.81 2300.5 1255.33Z" stroke="#01919A" stroke-width="1.14583" stroke-linejoin="round" stroke-miterlimit="10" fill="none" fill-rule="evenodd"/><text font-family="Latha,Latha_MSFontService,sans-serif" font-weight="400" font-size="37" transform="translate(2327.75 1207)">மேற்குறிப்<tspan font-size="37" x="203.385" y="0">பு</tspan></text><text font-family="Arial,Arial_MSFontService,sans-serif" font-weight="400" font-size="37" transform="matrix(1 0 0 1 2323.74 1254)">Endorsements</text><path d="M1644.5 1433.33C1644.5 1420.17 1655.17 1409.5 1668.33 1409.5L3209.67 1409.5C3222.83 1409.5 3233.5 1420.17 3233.5 1433.33L3233.5 1528.67C3233.5 1541.83 3222.83 1552.5 3209.67 1552.5L1668.33 1552.5C1655.17 1552.5 1644.5 1541.83 1644.5 1528.67Z" stroke="#F2D552" stroke-width="1.14583" stroke-linejoin="round" stroke-miterlimit="10" fill="none" fill-rule="evenodd"/><text font-family="Latha,Latha_MSFontService,sans-serif" font-weight="400" font-size="46" transform="translate(2202.32 1474)">மீத்தரவு</text><text font-family="Verdana,Verdana_MSFontService,sans-serif" font-weight="400" font-size="46" transform="matrix(1 0 0 1 2420.02 1474)">(Metadata)</text></g></svg>