<svg width="3068" height="1045" xmlns="http://www.w3.org/2000/svg" xmlns:xlink="http://www.w3.org/1999/xlink" xml:space="preserve" overflow="hidden"><defs><clipPath id="clip0"><rect x="142" y="356" width="3068" height="1045"/></clipPath></defs><g clip-path="url(#clip0)" transform="translate(-142 -356)"><path d="M143 426.984C143 390.542 172.542 361 208.984 361L986.016 361C1022.46 361 1052 390.542 1052 426.984L1052 1334.02C1052 1370.46 1022.46 1400 986.016 1400L208.984 1400C172.542 1400 143 1370.46 143 1334.02Z" stroke="#204497" stroke-width="2.29167" stroke-linejoin="round" stroke-miterlimit="10" fill="none" fill-rule="evenodd"/><text font-family="Latha,Latha_MSFontService,sans-serif" font-weight="400" font-size="41" transform="translate(218.199 434)">தோற்றக் கட்டம் <tspan font-size="41" x="397.604" y="0">0</tspan></text><text font-family="Verdana,Verdana_MSFontService,sans-serif" font-weight="400" font-size="41" transform="matrix(1 0 0 1 650.752 434)">(Genesis Block)</text><path d="M175 546.668C175 498.803 213.803 460 261.668 460L933.332 460C981.197 460 1020 498.803 1020 546.668L1020 893.332C1020 941.197 981.197 980 933.332 980L261.668 980C213.803 980 175 941.197 175 893.332Z" stroke="#DC7476" stroke-width="2.29167" stroke-linejoin="round" stroke-miterlimit="10" fill="none" fill-rule="evenodd"/><text font-family="Verdana,Verdana_MSFontService,sans-serif" font-weight="400" font-size="37" transform="matrix(1 0 0 1 233.595 535)">1.</text><text font-family="Latha,Latha_MSFontService,sans-serif" font-weight="400" font-size="37" transform="translate(270.262 535)">கட்டத்தின் <tspan font-size="37" x="231.458" y="0">பதிப்பு</tspan> <tspan font-size="37" x="370.677" y="0">எண்</tspan></text><text font-family="Verdana,Verdana_MSFontService,sans-serif" font-weight="400" font-size="37" transform="matrix(1 0 0 1 233.595 582)">2.<tspan font-size="37" x="0" y="41">3.</tspan></text><text font-family="Latha,Latha_MSFontService,sans-serif" font-weight="400" font-size="37" transform="translate(270.262 623)">கட்டத்தின் <tspan font-size="37" x="231.458" y="0">தரவுக்</tspan> <tspan font-size="37" x="377.552" y="0">குறுக்க</tspan> மதிப்பு</text><text font-family="Verdana,Verdana_MSFontService,sans-serif" font-weight="400" font-size="37" transform="matrix(1 0 0 1 233.595 667)">4.</text><text font-family="Latha,Latha_MSFontService,sans-serif" font-weight="400" font-size="37" transform="translate(270.262 667)">நேர<tspan font-size="37" x="79.0625" y="0"> </tspan><tspan font-size="37" x="100.26" y="0">முத்திரை</tspan></text><text font-family="Verdana,Verdana_MSFontService,sans-serif" font-weight="400" font-size="37" transform="matrix(1 0 0 1 233.595 711)">5.</text><text font-family="Latha,Latha_MSFontService,sans-serif" font-weight="400" font-size="37" transform="translate(270.262 711)">தற்போதைய கடின <tspan font-size="37" x="405.052" y="0">அளவு</tspan></text><text font-family="Verdana,Verdana_MSFontService,sans-serif" font-weight="400" font-size="37" transform="matrix(1 0 0 1 233.595 755)">6.</text><text font-family="Latha,Latha_MSFontService,sans-serif" font-weight="400" font-size="37" transform="translate(270.262 755)">ஒரேமுறை எண்</text><text font-family="Latha,Latha_MSFontService,sans-serif" font-weight="400" font-size="37" transform="matrix(-1.83697e-16 -1 1 -1.83697e-16 1100.79 864)">தலைப்பின்<tspan font-size="37" x="223" y="4.09644e-14"> </tspan><tspan font-size="37" x="-33" y="44">குறுக்க</tspan><tspan font-size="37" x="108" y="44"> </tspan><tspan font-size="37" x="129" y="44">மதி</tspan><tspan font-size="37" x="202" y="44">ப்பு</tspan></text><path d="M1208.5 415.708C1208.5 385.77 1232.77 361.5 1262.71 361.5L2064.27 361.5C2094.21 361.5 2118.48 385.77 2118.48 415.708L2118.48 1346.29C2118.48 1376.23 2094.21 1400.5 2064.27 1400.5L1262.71 1400.5C1232.77 1400.5 1208.5 1376.23 1208.5 1346.29Z" stroke="#204497" stroke-width="1.14583" stroke-linejoin="round" stroke-miterlimit="10" fill="none" fill-rule="evenodd"/><text font-family="Latha,Latha_MSFontService,sans-serif" font-weight="400" font-size="41" transform="translate(1563.26 430)">கட்டம் </text><text font-family="Verdana,Verdana_MSFontService,sans-serif" font-weight="400" font-size="41" transform="matrix(1 0 0 1 1736.28 430)">1</text><path d="M1241.5 547.168C1241.5 499.303 1280.3 460.5 1328.17 460.5L2011.83 460.5C2059.7 460.5 2098.5 499.303 2098.5 547.168L2098.5 893.832C2098.5 941.697 2059.7 980.5 2011.83 980.5L1328.17 980.5C1280.3 980.5 1241.5 941.697 1241.5 893.832Z" stroke="#DC7476" stroke-width="1.14583" stroke-linejoin="round" stroke-miterlimit="10" fill="none" fill-rule="evenodd"/><text font-family="Verdana,Verdana_MSFontService,sans-serif" font-weight="400" font-size="37" transform="matrix(1 0 0 1 1299.07 536)">1.<tspan font-size="37" x="36.6668" y="0">02000000</tspan><tspan font-size="37" x="0" y="44">2.</tspan><tspan font-size="37" x="36.6668" y="44">AD</tspan><tspan font-size="37" x="89.948" y="44">66</tspan><tspan font-size="37" x="136.927" y="44">D</tspan><tspan font-size="37" x="165" y="44">797</tspan><tspan font-size="37" x="235.469" y="44">B</tspan><tspan font-size="37" x="260.677" y="44">5</tspan><tspan font-size="37" x="284.167" y="44">F</tspan><tspan font-size="37" x="305.365" y="44">9</tspan><tspan font-size="37" x="328.854" y="44">D</tspan><tspan font-size="37" x="356.927" y="44">69</tspan>A<tspan font-size="37" x="429.115" y="44">3</tspan><tspan font-size="37" x="452.604" y="44">CC</tspan>3<tspan font-size="37" x="527.656" y="44">C</tspan>7<tspan font-size="37" x="576.927" y="44">BFF</tspan><tspan font-size="37" x="644.531" y="44">07</tspan><tspan font-size="37" x="691.511" y="44">F</tspan><tspan font-size="37" x="712.708" y="44">8</tspan><tspan font-size="37" x="32.0834" y="88">075</tspan><tspan font-size="37" x="102.552" y="88">F</tspan><tspan font-size="37" x="123.75" y="88">116802</tspan><tspan font-size="37" x="264.688" y="88">D</tspan><tspan font-size="37" x="292.761" y="88">7</tspan><tspan font-size="37" x="316.25" y="88">C</tspan>243794<tspan font-size="37" x="482.969" y="88">F</tspan><tspan font-size="37" x="504.167" y="88">4</tspan><tspan font-size="37" x="527.656" y="88">DB</tspan>3<tspan font-size="37" x="604.427" y="88">FFB</tspan><tspan font-size="37" x="672.031" y="88">78</tspan><tspan font-size="37" x="32.0834" y="132">D</tspan><tspan font-size="37" x="60.1563" y="132">5</tspan><tspan font-size="37" x="83.6459" y="132">BEF</tspan><tspan font-size="37" x="152.969" y="132">8</tspan><tspan font-size="37" x="0" y="176">3.</tspan><tspan font-size="37" x="36.6668" y="176">35</tspan><tspan font-size="37" x="83.6459" y="176">CF</tspan><tspan font-size="37" x="130.625" y="176">7</tspan><tspan font-size="37" x="154.115" y="176">B</tspan><tspan font-size="37" x="179.323" y="176">22</tspan><tspan font-size="37" x="226.302" y="176">F</tspan><tspan font-size="37" x="247.5" y="176">0660</tspan><tspan font-size="37" x="341.458" y="176">FF</tspan><tspan font-size="37" x="383.854" y="176">831</tspan><tspan font-size="37" x="454.323" y="176">A</tspan><tspan font-size="37" x="479.531" y="176">22</tspan><tspan font-size="37" x="526.511" y="176">D</tspan><tspan font-size="37" x="554.583" y="176">34</tspan><tspan font-size="37" x="601.563" y="176">EAB</tspan><tspan font-size="37" x="674.896" y="176">21</tspan><tspan font-size="37" x="32.0834" y="220">5</tspan><tspan font-size="37" x="55.573" y="220">ACE</tspan><tspan font-size="37" x="129.479" y="220">90</tspan><tspan font-size="37" x="176.458" y="220">D</tspan><tspan font-size="37" x="204.531" y="220">7</tspan><tspan font-size="37" x="228.021" y="220">FADF</tspan><tspan font-size="37" x="323.698" y="220">4545</tspan><tspan font-size="37" x="417.656" y="220">F</tspan><tspan font-size="37" x="438.854" y="220">22</tspan><tspan font-size="37" x="485.833" y="220">E</tspan><tspan font-size="37" x="508.75" y="220">4118848</tspan><tspan font-size="37" x="673.177" y="220">F</tspan><tspan font-size="37" x="694.375" y="220">8</tspan><tspan font-size="37" x="32.0834" y="264">AAE</tspan><tspan font-size="37" x="105.417" y="264">840</tspan><tspan font-size="37" x="0" y="308">4.</tspan><tspan font-size="37" x="36.6668" y="308">24</tspan><tspan font-size="37" x="83.6459" y="308">d</tspan><tspan font-size="37" x="106.563" y="308">95</tspan><tspan font-size="37" x="153.542" y="308">a</tspan><tspan font-size="37" x="175.313" y="308">54 </tspan><tspan font-size="37" x="235.469" y="308">(Unix epoch time)</tspan><tspan font-size="37" x="0" y="352">5.</tspan><tspan font-size="37" x="36.6668" y="352">30</tspan><tspan font-size="37" x="83.6459" y="352">c</tspan><tspan font-size="37" x="102.552" y="352">31</tspan><tspan font-size="37" x="149.531" y="352">b</tspan><tspan font-size="37" x="172.448" y="352">18</tspan><tspan font-size="37" x="0" y="396">6.</tspan><tspan font-size="37" x="36.6668" y="396">FE</tspan><tspan font-size="37" x="80.7813" y="396">9</tspan><tspan font-size="37" x="104.271" y="396">F</tspan><tspan font-size="37" x="125.469" y="396">0864 </tspan></text><path d="M1241.5 1084.5C1241.5 1055.78 1264.78 1032.5 1293.5 1032.5L2046.5 1032.5C2075.22 1032.5 2098.5 1055.78 2098.5 1084.5L2098.5 1292.5C2098.5 1321.22 2075.22 1344.5 2046.5 1344.5L1293.5 1344.5C1264.78 1344.5 1241.5 1321.22 1241.5 1292.5Z" stroke="#01919A" stroke-width="1.14583" stroke-linejoin="round" stroke-miterlimit="10" fill="none" fill-rule="evenodd"/><text font-family="Latha,Latha_MSFontService,sans-serif" font-weight="400" font-size="37" transform="translate(1621.49 1097)">தரவு<tspan font-size="37" x="-332.567" y="44">பரிவர்த்தனை எண்ணி</tspan></text><text font-family="Verdana,Verdana_MSFontService,sans-serif" font-weight="400" font-size="37" transform="matrix(1 0 0 1 1735.8 1141)">: <tspan font-size="37" x="29.7918" y="0">2</tspan></text><text font-family="Latha,Latha_MSFontService,sans-serif" font-weight="400" font-size="37" transform="translate(1288.92 1185)">பரிவர்த்தனை</text><text font-family="Verdana,Verdana_MSFontService,sans-serif" font-weight="400" font-size="37" transform="matrix(1 0 0 1 1575.38 1185)">#<tspan font-size="37" x="29.7916" y="0">1</tspan><tspan font-size="37" x="53.2813" y="0">: </tspan></text><text font-family="Latha,Latha_MSFontService,sans-serif" font-weight="400" font-size="37" transform="translate(1658.45 1185)">முகிலன் <tspan font-size="37" x="195.365" y="0">-</tspan><tspan font-size="37" x="206.25" y="0">&gt; </tspan><tspan font-size="37" x="-369.531" y="44">எழிலன்</tspan></text><text font-family="Verdana,Verdana_MSFontService,sans-serif" font-weight="400" font-size="37" transform="matrix(1 0 0 1 1458.5 1229)">120 </text><text font-family="Latha,Latha_MSFontService,sans-serif" font-weight="400" font-size="37" transform="translate(1542.15 1229)">காசுகள்<tspan font-size="37" x="-253.229" y="44">பரிவர்த்தனை</tspan></text><text font-family="Verdana,Verdana_MSFontService,sans-serif" font-weight="400" font-size="37" transform="matrix(1 0 0 1 1575.38 1273)">#<tspan font-size="37" x="29.7916" y="0">2</tspan><tspan font-size="37" x="53.2813" y="0">: </tspan></text><text font-family="Latha,Latha_MSFontService,sans-serif" font-weight="400" font-size="37" transform="translate(1658.45 1273)">எழிலன் <tspan font-size="37" x="177.604" y="0">-</tspan><tspan font-size="37" x="188.49" y="0">&gt; </tspan><tspan font-size="37" x="229.167" y="0">வே</tspan><tspan font-size="37" x="299.062" y="0">தா</tspan></text><text font-family="Verdana,Verdana_MSFontService,sans-serif" font-weight="400" font-size="37" transform="matrix(1 0 0 1 1288.92 1317)">800 </text><text font-family="Latha,Latha_MSFontService,sans-serif" font-weight="400" font-size="37" transform="translate(1372.57 1317)">காசுகள்</text><path d="M2300.5 422.112C2300.5 385.875 2329.88 356.5 2366.11 356.5L3143.89 356.5C3180.12 356.5 3209.5 385.875 3209.5 422.112L3209.5 1330.89C3209.5 1367.12 3180.12 1396.5 3143.89 1396.5L2366.11 1396.5C2329.88 1396.5 2300.5 1367.12 2300.5 1330.89Z" stroke="#204497" stroke-width="1.14583" stroke-linejoin="round" stroke-miterlimit="10" fill="none" fill-rule="evenodd"/><text font-family="Latha,Latha_MSFontService,sans-serif" font-weight="400" font-size="41" transform="translate(2654.82 429)">கட்டம் </text><text font-family="Verdana,Verdana_MSFontService,sans-serif" font-weight="400" font-size="41" transform="matrix(1 0 0 1 2827.84 429)">2</text><path d="M2332.5 547.168C2332.5 499.303 2371.3 460.5 2419.17 460.5L3090.83 460.5C3138.7 460.5 3177.5 499.303 3177.5 547.168L3177.5 893.832C3177.5 941.697 3138.7 980.5 3090.83 980.5L2419.17 980.5C2371.3 980.5 2332.5 941.697 2332.5 893.832Z" stroke="#DC7476" stroke-width="1.14583" stroke-linejoin="round" stroke-miterlimit="10" fill="none" fill-rule="evenodd"/><text font-family="Verdana,Verdana_MSFontService,sans-serif" font-weight="400" font-size="37" transform="matrix(1 0 0 1 2390.63 536)">1.<tspan font-size="37" x="36.6668" y="0">02000000</tspan><tspan font-size="37" x="0" y="44">2.</tspan><tspan font-size="37" x="36.6668" y="44">3</tspan><tspan font-size="37" x="60.1563" y="44">FBDB</tspan><tspan font-size="37" x="159.844" y="44">27</tspan><tspan font-size="37" x="206.823" y="44">F</tspan><tspan font-size="37" x="228.021" y="44">4</tspan><tspan font-size="37" x="251.511" y="44">EE</tspan><tspan font-size="37" x="297.344" y="44">6</tspan><tspan font-size="37" x="320.833" y="44">DA</tspan>90<tspan font-size="37" x="421.094" y="44">B</tspan><tspan font-size="37" x="446.302" y="44">76333</tspan><tspan font-size="37" x="563.75" y="44">B</tspan><tspan font-size="37" x="588.958" y="44">3008</tspan><tspan font-size="37" x="682.917" y="44">E</tspan><tspan font-size="37" x="32.0833" y="88">488</tspan><tspan font-size="37" x="102.552" y="88">B</tspan><tspan font-size="37" x="127.761" y="88">20</tspan><tspan font-size="37" x="174.74" y="88">BF</tspan><tspan font-size="37" x="221.146" y="88">83</tspan><tspan font-size="37" x="268.125" y="88">D</tspan><tspan font-size="37" x="296.198" y="88">1</tspan><tspan font-size="37" x="319.688" y="88">E</tspan><tspan font-size="37" x="342.604" y="88">8</tspan><tspan font-size="37" x="366.094" y="88">D</tspan><tspan font-size="37" x="394.167" y="88">19</tspan><tspan font-size="37" x="441.146" y="88">FA</tspan>4<tspan font-size="37" x="511.042" y="88">E</tspan><tspan font-size="37" x="533.958" y="88">384</tspan>F<tspan font-size="37" x="625.625" y="88">84</tspan><tspan font-size="37" x="672.604" y="88">C</tspan>2<tspan font-size="37" x="32.0833" y="132">ABADACF</tspan><tspan font-size="37" x="0" y="176">3.</tspan><tspan font-size="37" x="36.6668" y="176">23</tspan><tspan font-size="37" x="83.6458" y="176">E</tspan><tspan font-size="37" x="106.563" y="176">8</tspan><tspan font-size="37" x="130.052" y="176">E</tspan><tspan font-size="37" x="152.969" y="176">190313</tspan><tspan font-size="37" x="293.906" y="176">E</tspan><tspan font-size="37" x="316.823" y="176">3</tspan><tspan font-size="37" x="340.313" y="176">AE</tspan><tspan font-size="37" x="388.438" y="176">506051360170</tspan>D<tspan font-size="37" x="698.385" y="176">9</tspan><tspan font-size="37" x="32.0833" y="220">C</tspan><tspan font-size="37" x="57.8645" y="220">57</tspan><tspan font-size="37" x="104.844" y="220">ECC</tspan><tspan font-size="37" x="179.323" y="220">2</tspan><tspan font-size="37" x="202.813" y="220">E</tspan><tspan font-size="37" x="225.729" y="220">273</tspan>AA<tspan font-size="37" x="346.615" y="220">7576</tspan><tspan font-size="37" x="440.573" y="220">B</tspan><tspan font-size="37" x="465.781" y="220">5</tspan><tspan font-size="37" x="489.271" y="220">B</tspan><tspan font-size="37" x="514.479" y="220">9</tspan><tspan font-size="37" x="537.969" y="220">B</tspan><tspan font-size="37" x="563.177" y="220">71366</tspan><tspan font-size="37" x="680.625" y="220">B</tspan><tspan font-size="37" x="32.0833" y="264">DF</tspan><tspan font-size="37" x="81.3543" y="264">1492324</tspan><tspan font-size="37" x="0" y="308">4.</tspan><tspan font-size="37" x="36.6668" y="308">24</tspan><tspan font-size="37" x="83.6458" y="308">d</tspan><tspan font-size="37" x="106.563" y="308">95</tspan><tspan font-size="37" x="153.542" y="308">c</tspan>58<tspan font-size="37" x="0" y="352">5.</tspan><tspan font-size="37" x="36.6668" y="352">30</tspan><tspan font-size="37" x="83.6458" y="352">c</tspan><tspan font-size="37" x="102.552" y="352">31</tspan><tspan font-size="37" x="149.531" y="352">b</tspan><tspan font-size="37" x="172.448" y="352">18</tspan><tspan font-size="37" x="0" y="396">6.</tspan><tspan font-size="37" x="36.6668" y="396">E</tspan><tspan font-size="37" x="59.5833" y="396">3</tspan><tspan font-size="37" x="83.073" y="396">AE</tspan><tspan font-size="37" x="131.198" y="396">5060</tspan></text><path d="M2332.5 1084.5C2332.5 1055.78 2355.78 1032.5 2384.5 1032.5L3125.5 1032.5C3154.22 1032.5 3177.5 1055.78 3177.5 1084.5L3177.5 1292.5C3177.5 1321.22 3154.22 1344.5 3125.5 1344.5L2384.5 1344.5C2355.78 1344.5 2332.5 1321.22 2332.5 1292.5Z" stroke="#01919A" stroke-width="1.14583" stroke-linejoin="round" stroke-miterlimit="10" fill="none" fill-rule="evenodd"/><text font-family="Latha,Latha_MSFontService,sans-serif" font-weight="400" font-size="37" transform="translate(2706.47 1097)">தரவு<tspan font-size="37" x="-325.99" y="44">பரிவர்த்தனை எண்ணி</tspan></text><text font-family="Verdana,Verdana_MSFontService,sans-serif" font-weight="400" font-size="37" transform="matrix(1 0 0 1 2827.36 1141)">: <tspan font-size="37" x="29.7918" y="0">2</tspan></text><text font-family="Latha,Latha_MSFontService,sans-serif" font-weight="400" font-size="37" transform="translate(2380.48 1185)">பரிவர்த்தனை</text><text font-family="Verdana,Verdana_MSFontService,sans-serif" font-weight="400" font-size="37" transform="matrix(1 0 0 1 2666.94 1185)">#<tspan font-size="37" x="29.7915" y="0">1</tspan><tspan font-size="37" x="53.2813" y="0">: </tspan></text><text font-family="Latha,Latha_MSFontService,sans-serif" font-weight="400" font-size="37" transform="translate(2750.01 1185)">சுரேஷ் <tspan font-size="37" x="155.26" y="0">-</tspan><tspan font-size="37" x="166.146" y="0">&gt; </tspan><tspan font-size="37" x="206.823" y="0">அரு</tspan>ண்</text><text font-family="Verdana,Verdana_MSFontService,sans-serif" font-weight="400" font-size="37" transform="matrix(1 0 0 1 2380.48 1229)">1 </text><text font-family="Latha,Latha_MSFontService,sans-serif" font-weight="400" font-size="37" transform="translate(2417.15 1229)">ஓவியம்<tspan font-size="37" x="-36.6667" y="44">பரிவர்த்தனை</tspan></text><text font-family="Verdana,Verdana_MSFontService,sans-serif" font-weight="400" font-size="37" transform="matrix(1 0 0 1 2666.94 1273)">#<tspan font-size="37" x="29.7915" y="0">2</tspan><tspan font-size="37" x="53.2813" y="0">: </tspan></text><text font-family="Latha,Latha_MSFontService,sans-serif" font-weight="400" font-size="37" transform="translate(2750.01 1273)">சுந்தர்<tspan font-size="37" x="111.719" y="0"> </tspan><tspan font-size="37" x="132.917" y="0">-</tspan><tspan font-size="37" x="143.802" y="0">&gt; </tspan><tspan font-size="37" x="184.479" y="0">சும</tspan><tspan font-size="37" x="250.365" y="0">தி</tspan></text><text font-family="Verdana,Verdana_MSFontService,sans-serif" font-weight="400" font-size="37" transform="matrix(1 0 0 1 3051.37 1273)">1 </text><text font-family="Latha,Latha_MSFontService,sans-serif" font-weight="400" font-size="37" transform="translate(2380.48 1317)">வாகனம்</text><path d="M175 1084C175 1055.28 198.282 1032 227.001 1032L967.999 1032C996.718 1032 1020 1055.28 1020 1084L1020 1292C1020 1320.72 996.718 1344 967.999 1344L227.001 1344C198.282 1344 175 1320.72 175 1292Z" stroke="#01919A" stroke-width="2.29167" stroke-linejoin="round" stroke-miterlimit="10" fill="none" fill-rule="evenodd"/><text font-family="Latha,Latha_MSFontService,sans-serif" font-weight="400" font-size="37" transform="translate(549.437 1097)">தரவு<tspan font-size="37" x="-325.99" y="44">பரிவர்த்தனை எண்ணி</tspan></text><text font-family="Verdana,Verdana_MSFontService,sans-serif" font-weight="400" font-size="37" transform="matrix(1 0 0 1 670.323 1141)">: <tspan font-size="37" x="29.7917" y="0">0</tspan></text><path d="M1020.5 562.781 1218.57 562.781 1218.57 566.219 1020.5 566.219ZM1213.98 550.75 1241.48 564.5 1213.98 578.25Z"/><path d="M2097.5 575.781 2277.03 575.782 2277.03 579.219 2097.5 579.219ZM2272.45 563.75 2299.95 577.5 2272.45 591.25Z"/><text font-family="Latha,Latha_MSFontService,sans-serif" font-weight="400" font-size="37" transform="matrix(-1.83697e-16 -1 1 -1.83697e-16 2192.26 864)">தலைப்பின்<tspan font-size="37" x="223" y="4.09644e-14"> </tspan><tspan font-size="37" x="-33" y="44">குறுக்க</tspan><tspan font-size="37" x="108" y="44"> </tspan><tspan font-size="37" x="129" y="44">மதி</tspan><tspan font-size="37" x="202" y="44">ப்பு</tspan></text></g></svg>