<svg width="478" height="312" xmlns="http://www.w3.org/2000/svg" xmlns:xlink="http://www.w3.org/1999/xlink" overflow="hidden"><defs><clipPath id="clip0"><rect x="479" y="167" width="478" height="312"/></clipPath></defs><g clip-path="url(#clip0)" transform="translate(-479 -167)"><path d="M647 177.167C647 174.313 649.313 172 652.167 172L784.833 172C787.687 172 790 174.313 790 177.167L790 197.833C790 200.687 787.687 203 784.833 203L652.167 203C649.313 203 647 200.687 647 197.833Z" fill="#F3D85D" fill-rule="evenodd"/><text font-family="Latha,Latha_MSFontService,sans-serif" font-weight="400" font-size="13" transform="translate(661.369 184)">வேர் மண்டலம்<tspan font-family="Verdana,Verdana_MSFontService,sans-serif" font-size="13" x="22.42" y="17">Root Zone</tspan></text><path d="M480 237.667C480 230.671 485.671 225 492.667 225L611.333 225C618.329 225 624 230.671 624 237.667L624 288.333C624 295.329 618.329 301 611.333 301L492.667 301C485.671 301 480 295.329 480 288.333Z" fill="#FC9A05" fill-rule="evenodd"/><text fill="#FFFFFF" font-family="Latha,Latha_MSFontService,sans-serif" font-weight="400" font-size="13" transform="translate(494.843 243)">.<tspan font-family="Verdana,Verdana_MSFontService,sans-serif" font-size="13" x="3.33331" y="0">net</tspan><tspan font-size="13" x="25.1667" y="0"> </tspan><tspan font-size="13" x="32.8333" y="0">மேல்நிலை</tspan><tspan font-size="13" x="114" y="0"> </tspan><tspan font-size="13" x="18.5" y="16">களப்பெயர் </tspan><tspan font-size="13" x="20.4133" y="32">மண்டலம்</tspan><tspan font-family="Verdana,Verdana_MSFontService,sans-serif" font-size="13" x="9.07999" y="49">.net</tspan><tspan font-family="Verdana,Verdana_MSFontService,sans-serif" font-size="13" x="40.4133" y="49">TLD Zone</tspan></text><path d="M618 331.334C618 322.313 625.313 315 634.334 315L802.666 315C811.687 315 819 322.313 819 331.334L819 396.666C819 405.687 811.687 413 802.666 413L634.334 413C625.313 413 618 405.687 618 396.666Z" fill="#FC6605" fill-rule="evenodd"/><text fill="#FFFFFF" font-family="Verdana,Verdana_MSFontService,sans-serif" font-weight="400" font-size="13" transform="translate(632.78 329)">cybervattam.com <tspan font-family="Latha,Latha_MSFontService,sans-serif" font-size="13" x="0" y="15">மண்டலம்</tspan><tspan font-size="13" x="77.8333" y="15">/ Zone</tspan><tspan font-size="13" x="0" y="48">www.cybervattam.com</tspan><tspan font-size="13" x="0" y="64">blog.cybervattam.com</tspan><tspan font-size="13" x="0" y="80">mail.cybervattam.com</tspan></text><path d="M645 236.5C645 229.597 650.597 224 657.5 224L779.5 224C786.403 224 792 229.597 792 236.5L792 286.5C792 293.403 786.403 299 779.5 299L657.5 299C650.597 299 645 293.403 645 286.5Z" fill="#FC9A05" fill-rule="evenodd"/><text fill="#FFFFFF" font-family="Verdana,Verdana_MSFontService,sans-serif" font-weight="400" font-size="13" transform="translate(659.119 242)">.com <tspan font-family="Latha,Latha_MSFontService,sans-serif" font-size="13" x="37.6666" y="0">மேல்நிலை</tspan><tspan font-family="Latha,Latha_MSFontService,sans-serif" font-size="13" x="118.833" y="0"> </tspan><tspan font-family="Latha,Latha_MSFontService,sans-serif" font-size="13" x="20.92" y="16">களப்பெயர் </tspan><tspan font-family="Latha,Latha_MSFontService,sans-serif" font-size="13" x="22.8333" y="32">மண்டலம்</tspan><tspan font-size="13" x="8.33331" y="49">.com TLD Zone</tspan></text><path d="M813 237.667C813 230.671 818.671 225 825.667 225L943.333 225C950.329 225 956 230.671 956 237.667L956 288.333C956 295.329 950.329 301 943.333 301L825.667 301C818.671 301 813 295.329 813 288.333Z" fill="#FC9A05" fill-rule="evenodd"/><text fill="#FFFFFF" font-family="Verdana,Verdana_MSFontService,sans-serif" font-weight="400" font-size="13" transform="translate(828.046 243)">.org <tspan font-family="Latha,Latha_MSFontService,sans-serif" font-size="13" x="31.6667" y="0">மேல்நிலை</tspan><tspan font-family="Latha,Latha_MSFontService,sans-serif" font-size="13" x="112.833" y="0"> </tspan><tspan font-family="Latha,Latha_MSFontService,sans-serif" font-size="13" x="17.92" y="16">களப்பெயர் </tspan><tspan font-family="Latha,Latha_MSFontService,sans-serif" font-size="13" x="19.8334" y="32">மண்டலம்</tspan><tspan font-size="13" x="8.33337" y="49">.org TLD Zone</tspan></text><path d="M790.5 188 884.616 188C884.892 188 885.116 188.224 885.116 188.5L885.116 219.622 884.116 219.622 884.116 188.5 884.616 189 790.5 189ZM888.616 218.288 884.616 226.288 880.616 218.288Z" fill="#7A797B"/><path d="M0-0.5 94.8818-0.5C95.1579-0.5 95.3818-0.276142 95.3818 0L95.3818 31.1217 94.3818 31.1217 94.3818 0 94.8818 0.5 0 0.5ZM98.8818 29.7883 94.8818 37.7883 90.8818 29.7883Z" fill="#7A797B" transform="matrix(-1 1.22465e-16 1.22465e-16 1 647.382 188.5)"/><path d="M720 203.5 720 217.239 719 217.239 719 203.5ZM723.5 215.905 719.5 223.905 715.5 215.905Z" fill="#7A797B"/><path d="M720 299.5 720 307.997 719 307.997 719 299.5ZM723.5 306.663 719.5 314.663 715.5 306.663Z" fill="#7A797B"/><path d="M618 438.5C618 434.358 621.358 431 625.5 431L811.5 431C815.642 431 819 434.358 819 438.5L819 468.5C819 472.642 815.642 476 811.5 476L625.5 476C621.358 476 618 472.642 618 468.5Z" fill="#FC6605" fill-rule="evenodd"/><text fill="#FFFFFF" font-family="Verdana,Verdana_MSFontService,sans-serif" font-weight="400" font-size="13" transform="translate(630.197 450)">tamil.cybervattam.com<tspan font-family="Latha,Latha_MSFontService,sans-serif" font-size="13" x="155.833" y="0"> </tspan><tspan font-family="Latha,Latha_MSFontService,sans-serif" font-size="13" x="0" y="16">மண்டலம்</tspan><tspan font-size="13" x="77.8333" y="16">/ Zone</tspan></text><path d="M720 413.5 720 425.011 719 425.011 719 413.5ZM723.5 423.678 719.5 431.678 715.5 423.678Z" fill="#7A797B"/></g></svg>