<svg width="654" height="243" xmlns="http://www.w3.org/2000/svg" xmlns:xlink="http://www.w3.org/1999/xlink" overflow="hidden"><defs><clipPath id="clip0"><rect x="143" y="247" width="654" height="243"/></clipPath><clipPath id="clip1"><rect x="684" y="332" width="91" height="90"/></clipPath><clipPath id="clip2"><rect x="684" y="332" width="91" height="90"/></clipPath><clipPath id="clip3"><rect x="684" y="332" width="91" height="90"/></clipPath><clipPath id="clip4"><rect x="150" y="334" width="100" height="100"/></clipPath><clipPath id="clip5"><rect x="150" y="334" width="101" height="100"/></clipPath><clipPath id="clip6"><rect x="150" y="334" width="101" height="100"/></clipPath></defs><g clip-path="url(#clip0)" transform="translate(-143 -247)"><path d="M288.5 371.5 672.5 371.5 672.5 371.5 288.5 371.5ZM672.5 371.5 672.5 371.5 672.5 371.5Z"/><path d="M1.43519e-11-5.24935e-05 384 5.24934e-05 384 0.00015748-1.43519e-11 5.24935e-05ZM384 0.000104987 384 0.000104987 384 0.000104987Z" transform="matrix(-1 0 0 1 672.5 395.5)"/><path d="M345.017 418.878C349.98 418.873 353.989 402.777 353.972 382.926 353.954 363.075 349.917 346.987 344.955 346.991L614.983 346.755C619.945 346.751 623.983 362.84 624 382.691 624.017 402.542 620.008 418.638 615.046 418.642Z" fill="#F2F2F2" fill-rule="evenodd"/><path d="M345.017 418.878C340.055 418.882 336.017 402.793 336 382.942 335.983 363.091 339.992 346.995 344.955 346.991 349.917 346.987 353.954 363.075 353.972 382.926 353.989 402.777 349.98 418.873 345.017 418.878Z" fill="#F7F7F7" fill-rule="evenodd"/><path d="M344.955 346.991C349.917 346.987 353.954 363.075 353.972 382.926 353.989 402.777 349.98 418.873 345.017 418.878 340.055 418.882 336.017 402.793 336 382.942 335.983 363.091 339.992 346.995 344.955 346.991L614.983 346.755C619.945 346.751 623.983 362.84 624 382.691 624.017 402.542 620.008 418.638 615.046 418.642L345.017 418.878" stroke="#FC3204" stroke-width="0" stroke-linejoin="round" stroke-miterlimit="10" fill="none" fill-rule="evenodd"/><path d="M472.853 272.677 472.828 272.741 472.802 272.955 472.751 273.245 472.688 273.687 472.637 274.204 472.624 274.822 472.624 275.504 472.637 276.261 472.688 277.081 472.802 277.926 472.981 278.81 473.223 279.705 473.491 280.475 473.823 281.257 473.861 281.371 474.423 282.393 475.086 283.352 475.852 284.223 476.681 284.967 477.599 285.674 478.595 286.241 479.653 286.708 480.763 287.049 481.899 287.276 483.098 287.339 484.297 287.251 485.471 287.049 486.581 286.708 487.64 286.229 488.635 285.636 489.554 284.942 490.408 284.147 491.174 283.264 491.825 282.305 492.399 281.257 492.463 281.093 492.514 280.98 492.628 280.664 492.794 280.223 492.947 279.731 493.113 279.112 493.254 278.444 493.368 277.699 493.432 276.74 493.407 275.731 493.292 274.658 493.049 273.573 493.024 273.46 492.973 273.334 489.005 276.879 483.736 274.28 478.454 276.879 473.287 273.207 473.338 273.409 472.853 272.677ZM470.838 259 470.774 259.883 470.723 260.703 470.685 261.46 470.659 262.091 470.659 262.646 470.633 263.075 470.633 263.378 470.659 263.53 470.659 263.87 470.927 264.034 472.177 264.741 473.466 265.334 474.831 265.839 476.247 266.242 477.701 266.596 479.22 266.823 480.789 266.949 482.384 267 483.672 266.974 484.923 266.886 486.147 266.772 487.321 266.608 488.457 266.407 489.541 266.205 490.549 265.952 491.493 265.7 492.373 265.448 493.177 265.195 493.917 264.968 494.542 264.741 495.078 264.539 495.537 264.35 495.856 264.224 496.086 264.123 496.188 264.085 496.571 263.896 496.545 263.492 496.43 261.915 496.315 260.451 496.188 259.063 497.451 259.454 498.599 259.883 499.645 260.337 500.564 260.842 501.38 261.347 502.069 261.889 502.592 262.457 502.988 263.05 503.243 263.668 503.32 264.287 503.243 264.905 503.013 265.498 502.618 266.066 502.108 266.608 501.47 267.164 500.679 267.656 499.786 268.16 498.765 268.615 497.655 269.031 496.43 269.435 495.142 269.788 494.427 271.327 494.797 271.201 495.193 271.125 495.601 271.201 495.997 271.378 496.367 271.681 496.685 272.059 496.966 272.539 497.196 273.106 497.362 273.725 497.451 274.431 497.502 275.163 497.451 275.92 497.362 276.602 497.196 277.245 496.966 277.813 496.685 278.292 496.367 278.671 495.997 278.974 495.601 279.15 495.193 279.201 494.797 279.15 494.402 278.999 494.249 279.705 494.032 280.412 503.728 285.017 499.735 289.648 499.786 289.648 499.849 289.648 499.99 289.648 500.194 289.648 500.424 289.648 500.704 289.648 501.023 289.661 501.38 289.711 501.763 289.762 502.184 289.825 502.618 289.913 503.077 290.052 503.549 290.191 504.034 290.38 504.532 290.607 505.042 290.847 505.552 291.15 506.063 291.49 506.547 291.881 507.058 292.31 507.517 292.79 507.976 293.332 508.436 293.925 508.857 294.594 509.239 295.326 509.609 296.096 509.941 296.966 510.235 297.9 510.49 298.897 510.694 299.995 510.834 301.155 510.949 302.417 511 303.742 511 305.168 510.911 306.707 510.77 308.322 510.566 310.025 510.541 310.076 510.464 310.189 510.324 310.391 510.145 310.644 509.865 310.947 509.495 311.312 509.01 311.691 508.436 312.133 507.747 312.587 506.917 313.041 505.948 313.521 504.838 314 504.838 296.575 504.774 296.146 504.608 295.755 504.353 295.44 504.034 295.187 503.639 295.023 503.192 294.96 462.991 294.96 462.558 295.023 462.188 295.187 461.843 295.44 461.588 295.755 461.422 296.146 461.358 296.575 461.358 313.634 460.312 313.129 459.343 312.587 458.475 311.969 457.659 311.312 456.944 310.606 456.344 309.824 456.344 309.786 456.319 309.647 456.306 309.42 456.255 309.117 456.204 308.726 456.166 308.272 456.115 307.754 456.064 307.174 456.026 306.568 456 305.874 456 305.168 456 304.423 456.026 303.628 456.051 302.821 456.115 301.975 456.204 301.143 456.319 300.297 456.485 299.452 456.663 298.581 456.906 297.736 457.174 296.916 457.48 296.096 457.85 295.301 458.233 294.544 458.705 293.812 459.228 293.131 459.802 292.5 460.427 291.919 461.142 291.402 461.907 290.922 462.762 290.531 463.668 290.216 464.65 289.964 465.722 289.825 466.87 289.762 462.672 285.106 472.496 281.32 472.062 280.109 471.769 278.86 471.488 278.923 471.208 278.974 470.774 278.898 470.378 278.721 470.034 278.431 469.715 278.04 469.434 277.56 469.23 276.993 469.039 276.374 468.949 275.668 468.898 274.936 468.949 274.179 469.039 273.498 469.23 272.867 469.434 272.286 469.715 271.807 470.034 271.428 470.378 271.125 470.774 270.949 471.208 270.898 471.552 270.949 471.884 271.062 472.203 271.264 471.603 269.763 470.315 269.422 469.115 269.031 468.005 268.602 466.985 268.135 466.104 267.656 465.352 267.138 464.701 266.608 464.165 266.066 463.795 265.473 463.566 264.88 463.502 264.287 463.566 263.719 463.782 263.151 464.101 262.596 464.561 262.079 465.16 261.549 465.849 261.069 466.666 260.59 467.559 260.161 468.554 259.744 469.664 259.366 470.838 259Z" fill="#AE5E0E" fill-rule="evenodd"/><path d="M489.175 247 489.601 247.026 489.952 247.092 490.29 247.209 490.628 247.353 490.991 247.575 491.33 247.824 491.643 248.164 491.981 248.582 492.307 249.079 492.62 249.668 492.92 250.361 493.209 251.158 493.509 252.087 493.747 253.12 493.998 254.31 494.223 255.604 494.461 257.069 494.637 258.677 494.775 260.089 494.912 261.606 495 263.267 494.662 263.398 494.186 263.594 493.597 263.829 492.92 264.065 492.169 264.326 491.304 264.614 490.377 264.875 489.375 265.124 488.336 265.359 487.208 265.582 486.043 265.738 484.853 265.882 483.6 265.974 482.335 266 480.681 265.961 479.09 265.791 477.55 265.503 476.071 265.111 474.643 264.614 473.29 264.012 472 263.306 472.025 262.299 472.038 261.188 472.138 259.959 472.251 258.625 472.338 257.71 472.476 256.781 472.614 255.866 472.789 254.924 472.977 253.996 473.203 253.107 473.466 252.231 473.741 251.394 474.054 250.622 474.418 249.89 474.806 249.223 475.22 248.635 475.696 248.111 476.184 247.693 476.735 247.353 477.299 247.144 477.938 247.026 478.076 247.052 478.339 247.078 478.702 247.144 479.115 247.235 479.591 247.432 480.093 247.667 480.569 248.02 480.932 248.321 481.333 248.687 481.721 248.988 482.122 249.249 482.56 249.458 483.011 249.576 483.513 249.628 484.014 249.576 484.527 249.458 485.078 249.249 485.78 248.896 486.394 248.465 486.932 248.072 487.358 247.706 487.797 247.432 488.223 247.196 488.674 247.052 489.175 247Z" fill="#AE5E0E" fill-rule="evenodd"/><path d="M482.994 301.977 482.496 302.042 482.073 302.235 481.687 302.531 481.389 302.905 481.215 303.368 481.14 303.884 481.19 304.309 480.742 304.579 480.319 304.94 479.933 305.326 478.764 304.115 478.602 304.025 478.428 303.974 478.241 304.025 478.067 304.115 477.967 304.309 477.93 304.489 477.967 304.682 478.067 304.837 479.348 306.164 479.05 306.756 478.801 307.375 478.652 308.031 478.552 308.727 476.512 308.727 476.325 308.753 476.176 308.869 476.064 309.036 476.039 309.217 476.064 309.423 476.176 309.59 476.325 309.706 476.512 309.732 478.552 309.732 478.652 310.427 478.801 311.084 479.05 311.703 479.348 312.295 478.067 313.596 477.955 313.777 477.93 313.97 477.955 314.15 478.067 314.318 478.241 314.434 478.428 314.485 478.602 314.434 478.764 314.318 479.933 313.133 480.468 313.635 481.053 314.06 481.687 314.369 482.322 314.524 482.994 314.601 483.641 314.55 484.3 314.369 484.922 314.086 485.507 313.661 486.054 313.133 487.224 314.318 487.386 314.434 487.585 314.485 487.759 314.434 487.921 314.318 488.033 314.15 488.082 313.97 488.033 313.777 487.921 313.596 486.664 312.295 486.95 311.703 487.174 311.084 487.336 310.427 487.423 309.732 489.476 309.732 489.65 309.706 489.812 309.59 489.924 309.423 489.974 309.217 489.924 309.036 489.812 308.869 489.65 308.753 489.476 308.727 487.423 308.727 487.336 308.031 487.174 307.375 486.95 306.756 486.664 306.164 487.921 304.837 488.033 304.682 488.058 304.489 488.033 304.309 487.921 304.115 487.759 304.025 487.585 303.974 487.386 304.025 487.224 304.115 486.054 305.326 485.669 304.94 485.246 304.579 484.798 304.309 484.86 303.884 484.798 303.368 484.586 302.905 484.3 302.531 483.939 302.235 483.491 302.042 482.994 301.977ZM463.386 296 502.589 296 502.801 296.064 502.938 296.206 503 296.412 503 322.575 502.938 322.794 502.801 322.948 502.589 323 463.386 323 463.187 322.948 463.05 322.794 463 322.575 463 296.412 463.05 296.206 463.187 296.064 463.386 296Z" fill="#AE5E0E" fill-rule="evenodd"/><path d="M482.995 308 483.26 308.041 483.507 308.193 483.708 308.44 483.854 308.743 483.954 309.087 484 309.486 483.954 309.913 483.854 310.257 483.708 310.56 483.507 310.807 483.26 310.959 482.995 311 482.731 310.959 482.502 310.807 482.283 310.56 482.137 310.257 482.037 309.913 482 309.486 482.037 309.087 482.137 308.743 482.283 308.44 482.502 308.193 482.731 308.041 482.995 308Z" fill="#AE5E0E" fill-rule="evenodd"/><text font-family="Latha,Latha_MSFontService,sans-serif" font-weight="400" font-size="13" transform="translate(311.482 447)">பாதுகாப்பான மீவுரை பரிமாற்ற நெறிமுறை <tspan font-size="13" x="20.9867" y="16">மேல் களப்பெயர் முறைமை வினவல்</tspan><tspan font-family="Verdana,Verdana_MSFontService,sans-serif" font-size="12" x="67.9533" y="32">DNS Query over HTTPS (DOH)</tspan><tspan font-weight="700" font-size="13" x="382.248" y="14">சுழல்நிலை</tspan><tspan font-weight="700" font-size="13" x="470.014" y="14"> </tspan><tspan font-weight="700" font-size="13" x="406.061" y="30">தீர்வி</tspan><tspan font-weight="700" font-size="13" x="-149.72" y="14">கிளையன்</tspan></text><path d="M528.5 299.5 552.5 347.5 552.5 347.5 528.5 299.5ZM552.5 347.5 552.5 347.5 552.5 347.5Z" fill="#FC3204"/><path d="M3.14961e-05-4.19948e-05 96 72 96 72-3.14961e-05 4.19948e-05ZM96 72 96 72 96 72Z" fill="#FC3204" transform="matrix(1 0 0 -1 552.5 347.5)"/><text font-family="Latha,Latha_MSFontService,sans-serif" font-weight="400" font-size="12" transform="translate(429.701 340)">தீநிரலர்<tspan font-family="Verdana,Verdana_MSFontService,sans-serif" font-size="12" x="53.6" y="0">(Hacke</tspan><tspan font-family="Verdana,Verdana_MSFontService,sans-serif" font-size="12" x="95.8533" y="0">r)</tspan><tspan font-size="13" x="-50.2861" y="40">மறையாக்கப்பட்ட சுரங்க</tspan><tspan font-size="13" x="129.361" y="40">வழி</tspan><tspan font-family="Verdana,Verdana_MSFontService,sans-serif" font-size="13" x="-4.03275" y="57">Encrypted Tunnel</tspan></text><g clip-path="url(#clip1)"><g clip-path="url(#clip2)"><g clip-path="url(#clip3)"><path d="M67.228 27.5259 22.7738 27.5259C21.3518 27.5259 20.192 28.6757 20.192 30.1004L20.192 38.8655C20.192 40.2902 21.3518 41.44 22.7738 41.44L67.228 41.44C68.6473 41.44 69.8062 40.2902 69.8062 38.8655L69.8062 30.1004C69.8062 28.6757 68.6455 27.5259 67.228 27.5259ZM24.8412 33.6309C23.9627 33.6309 23.2508 32.9208 23.2508 32.0414 23.2508 31.1647 23.9627 30.4528 24.8412 30.4528 25.7216 30.4528 26.4307 31.1647 26.4307 32.0414 26.4307 32.9217 25.7216 33.6309 24.8412 33.6309ZM63.0258 38.2137 51.7955 38.2137 51.7955 34.4839 63.0267 34.4839 63.0267 38.2137Z" fill="#DF7275" transform="matrix(1.01111 0 0 1 684 332)"/><path d="M67.228 42.8556 22.7738 42.8556C21.3518 42.8556 20.192 44.0072 20.192 45.432L20.192 54.1961C20.192 55.619 21.3518 56.7715 22.7738 56.7715L67.228 56.7715C68.6473 56.7715 69.8062 55.619 69.8062 54.1961L69.8062 45.432C69.8062 44.0072 68.6455 42.8556 67.228 42.8556ZM24.8412 48.9624C23.9627 48.9624 23.2508 48.255 23.2508 47.3729 23.2508 46.4971 23.9627 45.7816 24.8412 45.7816 25.7216 45.7816 26.4307 46.4962 26.4307 47.3729 26.4307 48.2541 25.7216 48.9624 24.8412 48.9624ZM63.0258 53.5443 51.7955 53.5443 51.7955 49.8136 63.0267 49.8136 63.0267 53.5443Z" fill="#DF7275" transform="matrix(1.01111 0 0 1 684 332)"/><path d="M67.228 58.1862 22.7738 58.1862C21.3518 58.1862 20.192 59.3379 20.192 60.7617L20.192 69.5258C20.192 70.9496 21.3518 72.1021 22.7738 72.1021L67.228 72.1021C68.6473 72.1021 69.8062 70.9496 69.8062 69.5258L69.8062 60.7617C69.8062 59.3379 68.6455 58.1862 67.228 58.1862ZM24.8412 64.2912C23.9627 64.2912 23.2508 63.5856 23.2508 62.7017 23.2508 61.8241 23.9627 61.114 24.8412 61.114 25.7216 61.114 26.4307 61.8232 26.4307 62.7017 26.4307 63.5856 25.7216 64.2912 24.8412 64.2912ZM63.0258 68.8731 51.7955 68.8731 51.7955 65.1424 63.0267 65.1424 63.0267 68.8731Z" fill="#DF7275" transform="matrix(1.01111 0 0 1 684 332)"/><path d="M52.6776 80.4848 47.94 80.4848 47.94 73.5924 42.0627 73.5924 42.0627 80.4848 37.3197 80.4848 37.3197 82.301 20.7364 82.301 20.7364 88.1811 37.3197 88.1811 37.3197 90 52.6776 90 52.6776 88.1811 69.26 88.1811 69.26 82.301 52.6776 82.301Z" fill="#DF7275" transform="matrix(1.01111 0 0 1 684 332)"/><path d="M71.2391 13.3879C70.6028 13.3342 70.0183 13.0092 69.6396 12.4966 66.0755 7.68351 60.3611 4.7148 54.2798 4.7148 53.8993 4.7148 53.5179 4.72664 53.1364 4.7494 52.6084 4.78126 52.0895 4.62376 51.668 4.30514 47.9655 1.51303 43.4792 0 38.7835 0 30.3699 0 22.9022 4.87412 19.4118 12.2545 19.0914 12.9309 18.4523 13.4006 17.7112 13.5044 8.43821 14.809 1.27907 22.7947 1.27907 32.421 1.27907 41.5984 7.78548 49.2801 16.4285 51.1072L16.4285 45.432C16.4285 44.7246 16.5596 44.05 16.7772 43.4155 12.1552 41.8961 8.80509 37.5454 8.80509 32.4219 8.80509 26.0393 13.9978 20.8465 20.3813 20.8465 20.7036 20.8465 21.0204 20.872 21.3363 20.8975 23.1762 21.0405 24.8403 19.847 25.2891 18.0626 26.845 11.8594 32.3955 7.52693 38.7826 7.52693 42.4332 7.52693 45.8881 8.93618 48.5099 11.4961 49.4057 12.3701 50.6793 12.7424 51.9047 12.4866 52.6867 12.3237 53.4851 12.2408 54.2798 12.2408 58.7488 12.2408 62.7399 14.7534 64.6945 18.7973 65.3818 20.2193 66.8839 21.0659 68.4561 20.9039 68.8476 20.8647 69.2381 20.8456 69.6168 20.8456 76.0003 20.8456 81.194 26.0384 81.194 32.421 81.194 37.5454 77.842 41.8952 73.221 43.4146 73.4377 44.05 73.5687 44.7237 73.5687 45.4311L73.5687 51.1054C82.2109 49.2792 88.7209 41.5984 88.7209 32.4201 88.72 22.4342 81.0147 14.2127 71.2391 13.3879Z" fill="#DF7275" transform="matrix(1.01111 0 0 1 684 332)"/></g></g></g><g clip-path="url(#clip4)"><g clip-path="url(#clip5)"><g clip-path="url(#clip6)"><path d="M243.7 377.3 229.6 377.3C228.9 377.3 228.3 377.9 228.3 378.6L228.3 406.1C228.3 406.8 228.9 407.4 229.6 407.4L243.7 407.4C244.4 407.4 245 406.8 245 406.1L245 378.7C245 377.9 244.4 377.3 243.7 377.3ZM236.6 406.8C236 406.8 235.6 406.3 235.6 405.8 235.6 405.2 236.1 404.8 236.6 404.8 237.2 404.8 237.6 405.3 237.6 405.8 237.6 406.4 237.2 406.8 236.6 406.8ZM238.8 379.3 234.4 379.3C234.2 379.3 234.1 379.1 234.1 379 234.1 378.9 234.3 378.7 234.4 378.7L238.8 378.7C239 378.7 239.1 378.9 239.1 379 239.1 379.1 239 379.3 238.8 379.3Z" fill="#204497"/><path d="M217.8 364.6 217.8 362.7C217.8 361.5 216.8 360.5 215.6 360.5L157.2 360.5C156 360.5 155 361.5 155 362.7L155 393.3C155 394.5 156 395.5 157.2 395.5L182.9 395.5 182.3 398.3C181.8 398.7 181.3 399.2 180.9 399.7L176.8 405.5C176.5 406 176.8 406.7 177.4 406.7L195.5 406.7C196.1 406.7 196.4 406 196.1 405.5L192 399.7C191.6 399.1 191.1 398.7 190.6 398.3L190 395.5 204.2 395.5 204.2 365.7C204.2 365.1 204.7 364.7 205.2 364.7L217.8 364.6ZM186.4 391.9C185.6 391.9 185 391.3 185 390.5 185 389.7 185.6 389.1 186.4 389.1 187.2 389.1 187.8 389.7 187.8 390.5 187.8 391.3 187.2 391.9 186.4 391.9Z" fill="#204497"/><path d="M234.3 374.6 234.7 374.6 234.7 368.3C234.7 367.7 234.2 367.2 233.6 367.2L207.9 367.2C207.3 367.2 206.8 367.7 206.8 368.3L206.8 406.3C206.8 406.9 207.3 407.4 207.9 407.4L222.6 407.4 225.8 407.4 225.8 375.7C225.8 375.1 226.3 374.7 226.8 374.7L234.3 374.6 234.3 374.6ZM220.8 406.1C220.2 406.1 219.7 405.6 219.7 405 219.7 404.4 220.2 403.9 220.8 403.9 221.4 403.9 221.9 404.4 221.9 405 221.9 405.6 221.4 406.1 220.8 406.1Z" fill="#204497"/></g></g></g></g></svg>