<svg width="729" height="259" xmlns="http://www.w3.org/2000/svg" xmlns:xlink="http://www.w3.org/1999/xlink" overflow="hidden"><defs><clipPath id="clip0"><rect x="86" y="216" width="729" height="259"/></clipPath><clipPath id="clip1"><rect x="718" y="255" width="38" height="38"/></clipPath><clipPath id="clip2"><rect x="718" y="255" width="38" height="38"/></clipPath><clipPath id="clip3"><rect x="718" y="255" width="38" height="38"/></clipPath><clipPath id="clip4"><rect x="707" y="353" width="61" height="38"/></clipPath><clipPath id="clip5"><rect x="707" y="353" width="61" height="38"/></clipPath><clipPath id="clip6"><rect x="707" y="353" width="61" height="38"/></clipPath><clipPath id="clip7"><rect x="355" y="261" width="49" height="32"/></clipPath><clipPath id="clip8"><rect x="355" y="261" width="49" height="32"/></clipPath><clipPath id="clip9"><rect x="355" y="261" width="49" height="32"/></clipPath><clipPath id="clip10"><rect x="356" y="341" width="44" height="44"/></clipPath><clipPath id="clip11"><rect x="356" y="341" width="44" height="44"/></clipPath><clipPath id="clip12"><rect x="356" y="341" width="44" height="44"/></clipPath><clipPath id="clip13"><rect x="90" y="333" width="100" height="100"/></clipPath><clipPath id="clip14"><rect x="90" y="333" width="101" height="100"/></clipPath><clipPath id="clip15"><rect x="90" y="333" width="101" height="100"/></clipPath></defs><g clip-path="url(#clip0)" transform="translate(-86 -216)"><rect x="87.5001" y="217.5" width="333" height="257" stroke="#7A797B" stroke-width="0.666667" stroke-linejoin="round" stroke-miterlimit="10" fill="none"/><rect x="482.5" y="217.5" width="332" height="257" stroke="#7A797B" stroke-width="0.666667" stroke-linejoin="round" stroke-miterlimit="10" fill="none"/><text font-family="Latha,Latha_MSFontService,sans-serif" font-weight="400" font-size="13" transform="translate(156.825 240)">இ<tspan font-size="13" x="14.4867" y="0">.</tspan><tspan font-size="13" x="17.8067" y="0">நெறி ப</tspan><tspan font-family="Verdana,Verdana_MSFontService,sans-serif" font-size="13" x="70.92" y="0">6</tspan><tspan font-size="13" x="79.4067" y="0"> </tspan><tspan font-size="13" x="87.06" y="0">பிணையம்</tspan></text><g clip-path="url(#clip1)"><g clip-path="url(#clip2)"><g clip-path="url(#clip3)"><path d="M753.625 266.875 720.375 266.875C719.063 266.875 718 265.812 718 264.5L718 259.75C718 258.438 719.063 257.375 720.375 257.375L753.625 257.375C754.937 257.375 756 258.438 756 259.75L756 264.5C756 265.812 754.937 266.875 753.625 266.875ZM750.062 260.344C749.079 260.344 748.281 261.141 748.281 262.125 748.281 263.109 749.079 263.906 750.062 263.906 751.046 263.906 751.844 263.109 751.844 262.125 751.844 261.141 751.046 260.344 750.062 260.344ZM745.312 260.344C744.329 260.344 743.531 261.141 743.531 262.125 743.531 263.109 744.329 263.906 745.312 263.906 746.296 263.906 747.094 263.109 747.094 262.125 747.094 261.141 746.296 260.344 745.312 260.344ZM753.625 278.75 720.375 278.75C719.063 278.75 718 277.687 718 276.375L718 271.625C718 270.313 719.063 269.25 720.375 269.25L753.625 269.25C754.937 269.25 756 270.313 756 271.625L756 276.375C756 277.687 754.937 278.75 753.625 278.75ZM750.062 272.219C749.079 272.219 748.281 273.016 748.281 274 748.281 274.984 749.079 275.781 750.062 275.781 751.046 275.781 751.844 274.984 751.844 274 751.844 273.016 751.046 272.219 750.062 272.219ZM745.312 272.219C744.329 272.219 743.531 273.016 743.531 274 743.531 274.984 744.329 275.781 745.312 275.781 746.296 275.781 747.094 274.984 747.094 274 747.094 273.016 746.296 272.219 745.312 272.219ZM753.625 290.625 720.375 290.625C719.063 290.625 718 289.562 718 288.25L718 283.5C718 282.188 719.063 281.125 720.375 281.125L753.625 281.125C754.937 281.125 756 282.188 756 283.5L756 288.25C756 289.562 754.937 290.625 753.625 290.625ZM750.062 284.094C749.079 284.094 748.281 284.891 748.281 285.875 748.281 286.859 749.079 287.656 750.062 287.656 751.046 287.656 751.844 286.859 751.844 285.875 751.844 284.891 751.046 284.094 750.062 284.094ZM745.312 284.094C744.329 284.094 743.531 284.891 743.531 285.875 743.531 286.859 744.329 287.656 745.312 287.656 746.296 287.656 747.094 286.859 747.094 285.875 747.094 284.891 746.296 284.094 745.312 284.094Z" fill="#AE5E0E"/></g></g></g><text font-family="Verdana,Verdana_MSFontService,sans-serif" font-weight="400" font-size="13" transform="translate(679.634 312)">www.google.com<tspan font-size="13" x="-0.73999" y="16">142.250.193.164</tspan><tspan font-family="Latha,Latha_MSFontService,sans-serif" font-size="13" x="-113.22" y="-72">இ</tspan><tspan font-family="Latha,Latha_MSFontService,sans-serif" font-size="13" x="-98.7333" y="-72">.</tspan><tspan font-family="Latha,Latha_MSFontService,sans-serif" font-size="13" x="-95.4133" y="-72">நெறி ப</tspan><tspan font-size="13" x="-42.3" y="-72">4</tspan><tspan font-family="Latha,Latha_MSFontService,sans-serif" font-size="13" x="-33.8134" y="-72"> </tspan><tspan font-family="Latha,Latha_MSFontService,sans-serif" font-size="13" x="-26.16" y="-72">பிணையம்</tspan></text><g clip-path="url(#clip4)"><g clip-path="url(#clip5)"><g clip-path="url(#clip6)"><path d="M21.9864 23.9105 21.9864 34.6354 72.7515 34.6354 72.7515 23.9105ZM24.433 26.1447 26.6896 26.1447 26.6896 32.4009 24.433 32.4009ZM28.9375 26.1447 31.1942 26.1447 31.1942 32.4009 28.9375 32.4009ZM33.442 26.1447 35.6987 26.1447 35.6987 32.4009 33.442 32.4009Z" fill="#FC6605" fill-rule="evenodd" transform="matrix(1.15366 0 0 1 682.852 330.25)"/><path d="M21.9864 36.3873 21.9864 47.1122 72.7515 47.1122 72.7515 36.3873ZM24.433 38.6215 26.6896 38.6215 26.6896 44.8777 24.433 44.8777ZM28.9375 38.6215 31.1942 38.6215 31.1942 44.8777 28.9375 44.8777ZM33.442 38.6215 35.6987 38.6215 35.6987 44.8777 33.442 44.8777Z" fill="#FC6605" fill-rule="evenodd" transform="matrix(1.15366 0 0 1 682.852 330.25)"/><path d="M21.9864 48.8641 21.9864 59.5888 72.7515 59.5888 72.7515 48.8641ZM24.433 51.0981 26.6896 51.0981 26.6896 57.3548 24.433 57.3548ZM28.9375 51.0981 31.1942 51.0981 31.1942 57.3548 28.9375 57.3548ZM33.442 51.0981 35.6987 51.0981 35.6987 57.3548 33.442 57.3548Z" fill="#FC6605" fill-rule="evenodd" transform="matrix(1.15366 0 0 1 682.852 330.25)"/><path d="M24.435 34.1527 26.6873 34.1527 26.6873 37.3704 24.435 37.3704Z" fill="#FC6605" fill-rule="evenodd" transform="matrix(1.15366 0 0 1 682.852 330.25)"/><path d="M24.435 46.5224 26.6873 46.5224 26.6873 49.74 24.435 49.74Z" fill="#FC6605" fill-rule="evenodd" transform="matrix(1.15366 0 0 1 682.852 330.25)"/><path d="M67.9254 34.1706 70.1777 34.1706 70.1777 37.3883 67.9254 37.3883Z" fill="#FC6605" fill-rule="evenodd" transform="matrix(1.15366 0 0 1 682.852 330.25)"/><path d="M67.9254 46.5402 70.1777 46.5402 70.1777 49.7579 67.9254 49.7579Z" fill="#FC6605" fill-rule="evenodd" transform="matrix(1.15366 0 0 1 682.852 330.25)"/></g></g></g><text font-family="Latha,Latha_MSFontService,sans-serif" font-weight="400" font-size="13" transform="translate(686.347 413)">அதிகாரப்பூர்<tspan font-size="13" x="86.5733" y="0">வ</tspan><tspan font-size="13" x="12.2333" y="16">களப்பெயர்</tspan><tspan font-size="13" x="16.7267" y="32">வழங்கன்</tspan></text><g clip-path="url(#clip7)"><g clip-path="url(#clip8)"><g clip-path="url(#clip9)"><path d="M242.631 247.115 289.65 247.292 289.696 258.331 289.661 258.902 289.451 259.686 289.057 260.59 288.438 261.385 287.407 262.38 286.07 263.334 284.389 264.232 282.345 265.092 279.633 265.991 277.035 266.639 272.441 267.363 268.839 267.69 266.585 267.748 262.038 267.595 257.31 267.058 254.1 266.332 252.237 265.857 250.441 265.303 248.589 264.518 247.079 263.774 245.322 262.666 244.234 261.692 243.66 261.005 243.05 260.01 242.742 259.305 242.557 258.331Z" stroke="#7D7D7D" stroke-width="1.41418" stroke-miterlimit="10" fill="#BDBDBD" fill-rule="evenodd" transform="matrix(1.00896 0 0 1 110.985 24.5242)"/><path d="M289.71 246.636C289.71 251.844 279.157 256.064 266.14 256.064 253.124 256.064 242.571 251.844 242.571 246.636 242.571 241.43 253.124 237.208 266.14 237.208 279.157 237.208 289.71 241.43 289.71 246.636" stroke="#7D7D7D" stroke-width="1.41418" stroke-miterlimit="10" fill="#BDBDBD" fill-rule="evenodd" transform="matrix(1.00896 0 0 1 110.985 24.5242)"/><path d="M250.419 241.349 253.669 240.141 262.043 243.516 265.584 242.266 264.001 245.391 254.877 245.348 257.418 244.391Z" stroke="#7D7D7D" stroke-width="0.471392" stroke-miterlimit="10" fill="#FFFFFF" fill-rule="evenodd" transform="matrix(1.00896 0 0 1 110.985 24.5242)"/><path d="M270.375 249.053 266.334 250.219 267.917 246.803 277.958 246.928 274.167 248.094 281.499 251.261 278.374 252.512Z" stroke="#7D7D7D" stroke-width="0.471392" stroke-miterlimit="10" fill="#FFFFFF" fill-rule="evenodd" transform="matrix(1.00896 0 0 1 110.985 24.5242)"/><path d="M266.627 244.596 274 241.429 270.126 240.304 280.209 240.221 282.084 243.428 278.666 242.388 270.085 245.887Z" stroke="#7D7D7D" stroke-width="0.471392" stroke-miterlimit="10" fill="#FFFFFF" fill-rule="evenodd" transform="matrix(1.00896 0 0 1 110.985 24.5242)"/><path d="M257.919 251.18 260.709 252.221 251.502 252.138 249.42 248.722 253.251 250.055 261.711 246.472 265.127 247.847Z" stroke="#7D7D7D" stroke-width="0.471392" stroke-miterlimit="10" fill="#FFFFFF" fill-rule="evenodd" transform="matrix(1.00896 0 0 1 110.985 24.5242)"/></g></g></g><text font-family="Verdana,Verdana_MSFontService,sans-serif" font-weight="400" font-size="13" transform="translate(355.812 314)">NAT<tspan font-size="13" x="27.2933" y="0">64</tspan></text><path d="M205.5 366 319.792 366 319.792 367 205.5 367ZM318.458 362.5 326.458 366.5 318.458 370.5Z" fill="#7A797B"/><text font-family="Verdana,Verdana_MSFontService,sans-serif" font-weight="400" font-size="13" transform="translate(205.861 360)">www.google.com ?</text><path d="M4.3398e-07-0.5 114.292-0.499901 114.292 0.500099-4.3398e-07 0.5ZM112.958-3.9999 120.958 0.000104987 112.958 4.0001Z" fill="#7A797B" transform="matrix(-1 0 0 1 326.458 383.5)"/><text font-family="Verdana,Verdana_MSFontService,sans-serif" font-weight="400" font-size="13" transform="translate(189.436 401)">AAAA ::ffff:<tspan font-size="13" x="77.84" y="0">8</tspan><tspan font-size="13" x="86.3267" y="0">efa:c</tspan><tspan font-size="13" x="119.927" y="0">1</tspan>a<tspan font-size="13" x="136.4" y="0">4</tspan></text><path d="M404.5 361 681.298 361 681.298 362 404.5 362ZM679.965 357.5 687.965 361.5 679.965 365.5Z" fill="#7A797B"/><text font-family="Verdana,Verdana_MSFontService,sans-serif" font-weight="400" font-size="13" transform="translate(520.799 352)">www.google.com ?</text><path d="M1.85185e-07-0.5 276.798-0.499897 276.798 0.500103-1.85185e-07 0.5ZM275.465-3.9999 283.465 0.000104987 275.465 4.0001Z" fill="#7A797B" transform="matrix(-1 0 0 1 687.965 379.5)"/><text font-family="Verdana,Verdana_MSFontService,sans-serif" font-weight="400" font-size="13" transform="translate(508.887 401)">A <tspan font-size="13" x="18.46" y="0">142.250.193.164</tspan></text><path d="M6.49989 1.56408 168.728 53.7094 168.422 54.6614 6.19388 2.5161ZM6.39217 6.25621 0 0 8.84027-1.36002ZM168.53 49.9693 174.922 56.2255 166.082 57.5855Z" fill="#7A797B" transform="matrix(1 0 0 -1 169.5 341.726)"/><text font-family="Latha,Latha_MSFontService,sans-serif" font-weight="400" font-size="13" transform="matrix(0.952358 -0.304981 0.304981 0.952358 193.265 309)">இணைப்பாக்கு<tspan font-size="13" x="103.328" y="0.53861"> </tspan><tspan font-family="Verdana,Verdana_MSFontService,sans-serif" font-size="13" x="-0.301417" y="17.7539">::ffff:</tspan><tspan font-family="Verdana,Verdana_MSFontService,sans-serif" font-size="13" x="36.5299" y="16.9484">8</tspan><tspan font-family="Verdana,Verdana_MSFontService,sans-serif" font-size="13" x="44.8371" y="17.5086">efa:c</tspan><tspan font-family="Verdana,Verdana_MSFontService,sans-serif" font-size="13" x="78.3617" y="17.7442">1</tspan><tspan font-family="Verdana,Verdana_MSFontService,sans-serif" font-size="13" x="86.9739" y="17.3521">a</tspan><tspan font-family="Verdana,Verdana_MSFontService,sans-serif" font-size="13" x="94.8277" y="17.7671">4</tspan></text><path d="M6.67177-0.436076 289.566 2.2754 289.557 3.27535 6.66218 0.563878ZM7.96129 4.07649 0 0 8.03797-3.92314ZM288.266-1.23723 296.227 2.83927 288.189 6.76241Z" fill="#7A797B" transform="matrix(1 0 0 -1 408.5 277.339)"/><text font-family="Latha,Latha_MSFontService,sans-serif" font-weight="400" font-size="13" transform="translate(514.611 272)">இணைப்பாக்கு <tspan font-family="Verdana,Verdana_MSFontService,sans-serif" font-size="13" x="-6.39996" y="17">142.250.193.164</tspan></text><g clip-path="url(#clip10)"><g clip-path="url(#clip11)"><g clip-path="url(#clip12)"><path d="M388.867 354.457 367.134 354.457C366.439 354.457 365.872 355.019 365.872 355.716L365.872 360.001C365.872 360.697 366.439 361.26 367.134 361.26L388.867 361.26C389.561 361.26 390.127 360.697 390.127 360.001L390.127 355.716C390.127 355.019 389.56 354.457 388.867 354.457ZM368.145 357.442C367.715 357.442 367.367 357.095 367.367 356.665 367.367 356.236 367.715 355.888 368.145 355.888 368.575 355.888 368.922 356.236 368.922 356.665 368.922 357.095 368.575 357.442 368.145 357.442ZM386.813 359.682 381.322 359.682 381.322 357.859 386.813 357.859 386.813 359.682Z" fill="#DF7275"/><path d="M388.867 361.952 367.134 361.952C366.439 361.952 365.872 362.515 365.872 363.211L365.872 367.496C365.872 368.191 366.439 368.755 367.134 368.755L388.867 368.755C389.561 368.755 390.127 368.191 390.127 367.496L390.127 363.211C390.127 362.515 389.56 361.952 388.867 361.952ZM368.145 364.937C367.715 364.937 367.367 364.591 367.367 364.16 367.367 363.732 367.715 363.382 368.145 363.382 368.575 363.382 368.922 363.731 368.922 364.16 368.922 364.591 368.575 364.937 368.145 364.937ZM386.813 367.177 381.322 367.177 381.322 365.353 386.813 365.353 386.813 367.177Z" fill="#DF7275"/><path d="M388.867 369.447 367.134 369.447C366.439 369.447 365.872 370.01 365.872 370.706L365.872 374.99C365.872 375.686 366.439 376.25 367.134 376.25L388.867 376.25C389.561 376.25 390.127 375.686 390.127 374.99L390.127 370.706C390.127 370.01 389.56 369.447 388.867 369.447ZM368.145 372.431C367.715 372.431 367.367 372.086 367.367 371.654 367.367 371.225 367.715 370.878 368.145 370.878 368.575 370.878 368.922 371.225 368.922 371.654 368.922 372.086 368.575 372.431 368.145 372.431ZM386.813 374.671 381.322 374.671 381.322 372.847 386.813 372.847 386.813 374.671Z" fill="#DF7275"/><path d="M381.753 380.348 379.437 380.348 379.437 376.979 376.564 376.979 376.564 380.348 374.245 380.348 374.245 381.236 366.138 381.236 366.138 384.111 374.245 384.111 374.245 385 381.753 385 381.753 384.111 389.86 384.111 389.86 381.236 381.753 381.236Z" fill="#DF7275"/><path d="M390.828 347.545C390.517 347.519 390.231 347.36 390.046 347.109 388.304 344.756 385.51 343.305 382.537 343.305 382.351 343.305 382.164 343.311 381.978 343.322 381.72 343.337 381.466 343.26 381.26 343.105 379.45 341.74 377.257 341 374.961 341 370.848 341 367.197 343.383 365.49 346.991 365.334 347.322 365.021 347.551 364.659 347.602 360.125 348.24 356.625 352.144 356.625 356.85 356.625 361.337 359.806 365.092 364.032 365.986L364.032 363.211C364.032 362.865 364.096 362.536 364.202 362.225 361.943 361.483 360.305 359.356 360.305 356.851 360.305 353.73 362.843 351.192 365.964 351.192 366.122 351.192 366.277 351.204 366.431 351.217 367.331 351.286 368.144 350.703 368.364 349.831 369.124 346.798 371.838 344.68 374.96 344.68 376.745 344.68 378.434 345.369 379.716 346.62 380.154 347.048 380.777 347.23 381.376 347.105 381.758 347.025 382.148 346.984 382.537 346.984 384.722 346.984 386.673 348.213 387.628 350.19 387.964 350.885 388.699 351.299 389.467 351.22 389.659 351.201 389.85 351.191 390.035 351.191 393.156 351.191 395.695 353.73 395.695 356.85 395.695 359.356 394.056 361.482 391.797 362.225 391.903 362.536 391.967 362.865 391.967 363.211L391.967 365.985C396.192 365.092 399.375 361.337 399.375 356.85 399.374 351.968 395.607 347.948 390.828 347.545Z" fill="#DF7275"/></g></g></g><text font-family="Verdana,Verdana_MSFontService,sans-serif" font-weight="400" font-size="13" transform="translate(351.905 408)">DNS<tspan font-size="13" x="29.46" y="0">64</tspan><tspan font-family="Latha,Latha_MSFontService,sans-serif" font-size="13" x="-33.8249" y="20">இணைப்பாக்</tspan><tspan font-family="Latha,Latha_MSFontService,sans-serif" font-size="13" x="55.6751" y="20">கி</tspan><tspan font-family="Latha,Latha_MSFontService,sans-serif" font-size="13" x="-246.759" y="22">கிளையன்</tspan></text><g clip-path="url(#clip13)"><g clip-path="url(#clip14)"><g clip-path="url(#clip15)"><path d="M183.7 376.3 169.6 376.3C168.9 376.3 168.3 376.9 168.3 377.6L168.3 405.1C168.3 405.8 168.9 406.4 169.6 406.4L183.7 406.4C184.4 406.4 185 405.8 185 405.1L185 377.7C185 376.9 184.4 376.3 183.7 376.3ZM176.6 405.8C176 405.8 175.6 405.3 175.6 404.8 175.6 404.2 176.1 403.8 176.6 403.8 177.2 403.8 177.6 404.3 177.6 404.8 177.6 405.4 177.2 405.8 176.6 405.8ZM178.8 378.3 174.4 378.3C174.2 378.3 174.1 378.1 174.1 378 174.1 377.9 174.3 377.7 174.4 377.7L178.8 377.7C179 377.7 179.1 377.9 179.1 378 179.1 378.1 179 378.3 178.8 378.3Z" fill="#204497"/><path d="M157.8 363.6 157.8 361.7C157.8 360.5 156.8 359.5 155.6 359.5L97.2 359.5C96 359.5 95 360.5 95 361.7L95 392.3C95 393.5 96 394.5 97.2 394.5L122.9 394.5 122.3 397.3C121.8 397.7 121.3 398.2 120.9 398.7L116.8 404.5C116.5 405 116.8 405.7 117.4 405.7L135.5 405.7C136.1 405.7 136.4 405 136.1 404.5L132 398.7C131.6 398.1 131.1 397.7 130.6 397.3L130 394.5 144.2 394.5 144.2 364.7C144.2 364.1 144.7 363.7 145.2 363.7L157.8 363.6ZM126.4 390.9C125.6 390.9 125 390.3 125 389.5 125 388.7 125.6 388.1 126.4 388.1 127.2 388.1 127.8 388.7 127.8 389.5 127.8 390.3 127.2 390.9 126.4 390.9Z" fill="#204497"/><path d="M174.3 373.6 174.7 373.6 174.7 367.3C174.7 366.7 174.2 366.2 173.6 366.2L147.9 366.2C147.3 366.2 146.8 366.7 146.8 367.3L146.8 405.3C146.8 405.9 147.3 406.4 147.9 406.4L162.6 406.4 165.8 406.4 165.8 374.7C165.8 374.1 166.3 373.7 166.8 373.7L174.3 373.6 174.3 373.6ZM160.8 405.1C160.2 405.1 159.7 404.6 159.7 404 159.7 403.4 160.2 402.9 160.8 402.9 161.4 402.9 161.9 403.4 161.9 404 161.9 404.6 161.4 405.1 160.8 405.1Z" fill="#204497"/></g></g></g></g></svg>